<?xml version="1.0" encoding="UTF-8" standalone="no"?>
<!-- Created with Inkscape (http://www.inkscape.org/) -->

<svg
   xmlns:dc="http://purl.org/dc/elements/1.1/"
   xmlns:cc="http://creativecommons.org/ns#"
   xmlns:rdf="http://www.w3.org/1999/02/22-rdf-syntax-ns#"
   xmlns:svg="http://www.w3.org/2000/svg"
   xmlns="http://www.w3.org/2000/svg"
   xmlns:sodipodi="http://sodipodi.sourceforge.net/DTD/sodipodi-0.dtd"
   xmlns:inkscape="http://www.inkscape.org/namespaces/inkscape"
   width="496.06299"
   height="460.62991"
   id="svg2"
   version="1.1"
   inkscape:version="0.48.5 r10040"
   sodipodi:docname="in-plane-deflection.svg">
  <defs
     id="defs4" />
  <sodipodi:namedview
     id="base"
     pagecolor="#ffffff"
     bordercolor="#666666"
     borderopacity="1.0"
     inkscape:pageopacity="0.0"
     inkscape:pageshadow="2"
     inkscape:zoom="2"
     inkscape:cx="375"
     inkscape:cy="252.61217"
     inkscape:document-units="px"
     inkscape:current-layer="layer1"
     showgrid="false"
     inkscape:window-width="2560"
     inkscape:window-height="1365"
     inkscape:window-x="-9"
     inkscape:window-y="-9"
     inkscape:window-maximized="1"
     units="mm" />
  <metadata
     id="metadata7">
    <rdf:RDF>
      <cc:Work
         rdf:about="">
        <dc:format>image/svg+xml</dc:format>
        <dc:type
           rdf:resource="http://purl.org/dc/dcmitype/StillImage" />
        <dc:title />
      </cc:Work>
    </rdf:RDF>
  </metadata>
  <g
     inkscape:label="Layer 1"
     inkscape:groupmode="layer"
     id="layer1"
     transform="translate(0,-591.73227)">
    <path
       inkscape:connector-curvature="0"
       style="fill:#000000;fill-opacity:1;fill-rule:nonzero;stroke:#000000;stroke-width:0.0143548px;stroke-linecap:butt;stroke-linejoin:round;stroke-opacity:1;stroke-dasharray:none"
       d="m 250.41129,808.81485 14.52705,-16.12043 -0.71774,-0.64597 -14.52705,16.13479 z m -2.48338,-2.23935 c -1.06225,1.17709 -0.97613,3.00015 0.20097,4.06241 1.19144,1.06226 3.00015,0.96177 4.06241,-0.21532 1.06225,-1.17709 0.96177,-3.00015 -0.21533,-4.0624 -1.17709,-1.06227 -2.98579,-0.96178 -4.04805,0.21531 z m 18.79042,-12.2877 c 1.06226,-1.17709 0.96178,-2.9858 -0.21532,-4.04805 -1.17709,-1.06225 -3.00014,-0.96177 -4.0624,0.21532 -1.06226,1.1771 -0.96177,2.9858 0.21532,4.04805 1.17709,1.06226 3.00015,0.96177 4.0624,-0.21532 z"
       id="path3189" />
    <path
       inkscape:connector-curvature="0"
       style="fill:#000000;fill-opacity:1;fill-rule:nonzero;stroke:#000000;stroke-width:0.0143548px;stroke-linecap:butt;stroke-linejoin:round;stroke-opacity:1;stroke-dasharray:none"
       d="m 249.60742,808.64259 6.70369,20.6422 0.90435,-0.2871 -6.70369,-20.64219 z m 3.17241,-1.03354 c -0.48806,-1.50726 -2.09579,-2.32548 -3.61741,-1.83741 -1.50725,0.48806 -2.32547,2.11015 -1.83741,3.6174 0.48806,1.50726 2.11016,2.32548 3.61741,1.83741 1.50726,-0.48805 2.33983,-2.11015 1.83741,-3.6174 z m 1.24887,22.42218 c 0.48806,1.50726 2.11015,2.32549 3.61741,1.83742 1.50725,-0.48807 2.33983,-2.11015 1.85177,-3.61741 -0.48807,-1.50725 -2.11016,-2.32547 -3.61741,-1.83742 -1.50725,0.48807 -2.33984,2.11016 -1.85177,3.61741 z"
       id="path3191" />
    <path
       inkscape:connector-curvature="0"
       style="fill:#000000;fill-opacity:1;fill-rule:nonzero;stroke:#000000;stroke-width:0.0143548px;stroke-linecap:butt;stroke-linejoin:round;stroke-opacity:1;stroke-dasharray:none"
       d="m 229.1662,803.15906 21.23074,4.52176 -0.20097,0.93306 -21.23074,-4.5074 z m -0.70338,3.28725 c -1.55032,-0.33016 -2.54081,-1.86612 -2.21064,-3.41644 0.33015,-1.55032 1.85176,-2.5408 3.40208,-2.21064 1.55032,0.33016 2.5408,1.85177 2.21064,3.40209 -0.33016,1.56467 -1.85177,2.5408 -3.40208,2.22499 z m 22.42218,-1.10532 c 1.55031,0.33016 2.5408,1.85177 2.21064,3.40209 -0.33016,1.55032 -1.85177,2.54079 -3.40209,2.21064 -1.55032,-0.33017 -2.5408,-1.85177 -2.21064,-3.40209 0.33016,-1.55032 1.85177,-2.5408 3.40209,-2.21064 z"
       id="path3193" />
    <path
       inkscape:connector-curvature="0"
       style="fill:#000000;fill-opacity:1;fill-rule:nonzero;stroke:#000000;stroke-width:0.0143548px;stroke-linecap:butt;stroke-linejoin:round;stroke-opacity:1;stroke-dasharray:none"
       d="m 228.86475,804.006 -15.30221,-3.28725 -15.14431,-3.3016 -14.9577,-3.33032 -14.74237,-3.33031 -14.48398,-3.34466 -14.19689,-3.31596 -13.88109,-3.31596 -13.53657,-3.28725 -13.14899,-3.25853 -12.71835,-3.21548 -6.18691,-1.57903 -6.08643,-1.57902 -5.957249,-1.56467 -5.8424,-1.55032 -5.69885,-1.53597 -5.56966,-1.50725 -5.42611,-1.50726 -5.29692,-1.47854 -5.13902,-1.44983 -4.99546,-1.44984 -4.85192,-1.42112 -4.67967,-1.39242 0.27275,-0.90435 4.67966,1.37807 4.83756,1.42112 4.99547,1.43547 5.13902,1.4642 5.28256,1.47854 5.44047,1.4929 5.56966,1.52161 5.69885,1.5216 5.82805,1.55032 5.957229,1.56467 6.07208,1.57903 6.20128,1.59338 12.70398,3.21548 13.149,3.25853 13.52221,3.28725 13.88109,3.3016 14.19689,3.31596 14.48398,3.34467 14.72802,3.33031 14.9577,3.31596 15.1443,3.31596 15.30222,3.27289 z m 0.70339,-3.28725 c 1.55031,0.34451 2.54079,1.86612 2.21063,3.41644 -0.34451,1.55032 -1.86613,2.5408 -3.41644,2.21063 -1.55032,-0.34451 -2.5408,-1.86612 -2.21064,-3.41644 0.34451,-1.55032 1.86613,-2.54079 3.41645,-2.21063 z M 20.332661,755.30018 c -1.50725,-0.445 -2.38289,-2.05273 -1.92354,-3.57434 0.445,-1.50725 2.05274,-2.3829 3.57435,-1.92354 1.50725,0.44499 2.38289,2.05273 1.92354,3.57434 -0.445,1.50726 -2.05274,2.38289 -3.57435,1.92354 z"
       id="path3195" />
    <path
       inkscape:connector-curvature="0"
       style="fill:#000000;fill-opacity:1;fill-rule:nonzero;stroke:#000000;stroke-width:0.0143548px;stroke-linecap:butt;stroke-linejoin:round;stroke-opacity:1;stroke-dasharray:none"
       d="m 264.45028,791.91926 10.49335,-11.61303 10.43594,-11.45513 10.34981,-11.31157 10.26367,-11.09625 10.13448,-10.86658 9.97659,-10.63691 9.80432,-10.36416 9.61771,-10.07707 9.38804,-9.74689 9.144,-9.41675 8.88562,-9.04352 8.58416,-8.65594 8.28272,-8.23966 4.01934,-3.96192 3.91886,-3.83273 3.84708,-3.73224 3.73226,-3.61741 3.64611,-3.47386 3.55999,-3.35902 0.64597,0.68903 -3.54564,3.35902 -3.63176,3.47386 -3.7466,3.61741 -3.83274,3.71789 -3.93321,3.84708 -4.00499,3.94757 -8.26835,8.23966 -8.58417,8.65594 -8.88562,9.04352 -9.144,9.40239 -9.38804,9.7469 -9.60335,10.07706 -9.81869,10.36416 -9.97657,10.62255 -10.12013,10.88094 -10.24932,11.08189 -10.36416,11.29723 -10.43594,11.46948 -10.49336,11.59867 z m 2.48338,2.23935 c -1.06225,1.17709 -2.88532,1.26322 -4.06241,0.20097 -1.17709,-1.06226 -1.26322,-2.87096 -0.20096,-4.04806 1.06225,-1.17709 2.88531,-1.26322 4.0624,-0.20097 1.17709,1.06226 1.26322,2.87096 0.20097,4.04806 z M 410.88353,635.68169 c 1.14838,-1.09097 2.97144,-1.0479 4.0624,0.10048 1.09097,1.16274 1.03355,2.97145 -0.11483,4.06241 -1.14839,1.09096 -2.97144,1.0479 -4.06241,-0.10049 -1.09097,-1.16274 -1.03355,-2.97144 0.11484,-4.0624 z"
       id="path3197" />
    <path
       inkscape:connector-curvature="0"
       style="fill:#000000;fill-opacity:1;fill-rule:nonzero;stroke:#000000;stroke-width:0.02870959px;stroke-linecap:butt;stroke-linejoin:round;stroke-opacity:1;stroke-dasharray:none"
       d="m 257.41643,829.14124 4.7945,14.90027 4.70837,14.75674 4.62224,14.61317 4.47871,14.44093 4.33514,14.21124 4.22031,13.95286 4.07676,13.66577 3.93321,13.37866 3.73225,13.00544 3.5887,12.63222 3.38773,12.20157 1.63645,5.94289 1.57902,5.82804 1.52161,5.71321 1.46419,5.56965 1.40677,5.4548 1.37806,5.34 1.32064,5.1677 1.23452,5.0529 1.2058,4.9093 1.11967,4.7371 -0.9187,0.2297 -1.11968,-4.7371 -1.2058,-4.9093 -1.26323,-5.0242 -1.29192,-5.1964 -1.37807,-5.3113 -1.40677,-5.4548 -1.46418,-5.56966 -1.55032,-5.71321 -1.55032,-5.82804 -1.63644,-5.94289 -3.38774,-12.20157 -3.5887,-12.63222 -3.73224,-13.00544 -3.93321,-13.34996 -4.04806,-13.66577 -4.22031,-13.95285 -4.36386,-14.21125 -4.47869,-14.44092 -4.59353,-14.61318 -4.70838,-14.75673 -4.82321,-14.90028 z m -3.18676,1.03354 c -0.48807,-1.5216 0.34451,-3.12934 1.83741,-3.61741 1.52161,-0.48805 3.12935,0.34452 3.61741,1.83742 0.48806,1.52161 -0.34451,3.12934 -1.83742,3.61741 -1.5216,0.48806 -3.12934,-0.34452 -3.6174,-1.83742 z m 65.25689,203.89552 c 0.37323,1.5503 -0.57419,3.1006 -2.12451,3.445 -1.52161,0.3733 -3.07193,-0.5741 -3.44515,-2.1244 -0.37323,-1.5217 0.57419,-3.072 2.12451,-3.4452 1.55031,-0.3732 3.10063,0.5742 3.44515,2.1246 z"
       id="path3199" />
    <path
       inkscape:connector-curvature="0"
       style="fill:#000000;fill-opacity:1;fill-rule:nonzero;stroke:#000000;stroke-width:0.0143548px;stroke-linecap:butt;stroke-linejoin:round;stroke-opacity:1;stroke-dasharray:none"
       d="m 264.85221,792.43604 1.90919,-2.13887 -0.70339,-0.64597 -1.92354,2.13887 z m 2.55516,-2.85661 1.90918,-2.13887 -0.71773,-0.64596 -1.90919,2.15322 z m 2.5408,-2.85661 1.92354,-2.13886 -0.71774,-0.63161 -1.90919,2.13886 z m 2.55515,-2.84225 1.92354,-2.13886 -0.71773,-0.64596 -1.90919,2.13886 z m 2.55515,-2.8566 0.74645,-0.83258 1.16274,-1.32064 -0.71774,-0.63161 -1.14839,1.30629 -0.74645,0.83258 z m 2.5408,-2.87096 1.90919,-2.13886 -0.71774,-0.64597 -1.90919,2.15322 z m 2.5408,-2.8566 1.90918,-2.15322 -0.71773,-0.63161 -1.90919,2.13886 z m 2.5408,-2.87096 1.89483,-2.15322 -0.71774,-0.63161 -1.89483,2.15322 z m 2.5408,-2.87096 1.34934,-1.52161 0.54549,-0.6316 -0.71774,-0.63162 -0.54548,0.61726 -1.34936,1.53596 z m 2.52644,-2.87096 1.89483,-2.16757 -0.73209,-0.63161 -1.88048,2.16757 z m 2.51209,-2.88531 1.89483,-2.15322 -0.71774,-0.63161 -1.89484,2.15322 z m 2.52644,-2.88531 1.89484,-2.15322 -0.7321,-0.63162 -1.88048,2.16758 z m 2.52644,-2.87097 1.78,-2.05273 0.10049,-0.11484 -0.71775,-0.63161 -0.10048,0.12919 -1.79435,2.03839 z m 2.51209,-2.88531 1.88049,-2.18192 -0.7321,-0.61726 -1.88048,2.16757 z m 2.49774,-2.89967 1.88047,-2.16757 -0.71773,-0.63161 -1.88048,2.16758 z m 2.51209,-2.89966 1.86612,-2.16757 -0.71774,-0.63162 -1.88048,2.18193 z m 2.49773,-2.89967 1.88048,-2.16757 -0.7321,-0.63162 -1.86612,2.18193 z m 2.49773,-2.89967 1.86613,-2.18193 -0.73209,-0.61725 -1.85177,2.18192 z m 2.48339,-2.91403 1.86612,-2.18192 -0.71774,-0.61725 -1.86613,2.18192 z m 2.49773,-2.89966 1.85177,-2.19628 -0.71774,-0.61726 -1.86612,2.18193 z m 2.48338,-2.91402 1.85177,-2.19629 -0.71775,-0.61725 -1.86612,2.18192 z m 2.48338,-2.92839 1.83741,-2.19627 -0.73209,-0.60291 -1.83741,2.18193 z m 2.45467,-2.92837 1.85177,-2.18193 -0.7321,-0.61725 -1.85177,2.19628 z m 2.46902,-2.91402 1.85177,-2.19628 -0.7321,-0.61726 -1.85176,2.19628 z m 2.46902,-2.92838 1.78,-2.12451 0.0718,-0.0861 -0.7321,-0.6029 -0.0718,0.0718 -1.78,2.12452 z m 2.46903,-2.94274 1.82306,-2.21063 -0.7321,-0.6029 -1.83741,2.21063 z m 2.44032,-2.94273 1.83741,-2.21063 -0.73209,-0.60291 -1.83742,2.21064 z m 2.45467,-2.94273 1.83741,-2.21064 -0.74645,-0.6029 -1.83741,2.21064 z m 2.44031,-2.94273 1.27758,-1.52161 0.55984,-0.68903 -0.74646,-0.6029 -0.55983,0.67467 -1.26322,1.53597 z m 2.44032,-2.95709 1.82305,-2.21064 -0.74645,-0.61725 -1.8087,2.22499 z m 2.42595,-2.95709 1.82306,-2.22499 -0.74645,-0.6029 -1.8087,2.22499 z m 2.42596,-2.95709 1.82307,-2.22499 -0.74645,-0.6029 -1.80871,2.22499 z m 2.42597,-2.95708 0.4737,-0.57419 1.335,-1.66516 -0.74645,-0.6029 -1.335,1.66515 -0.45935,0.55984 z m 2.4116,-2.9858 1.8087,-2.22499 -0.74644,-0.6029 -1.80871,2.22499 z m 2.4116,-2.97144 1.79435,-2.23934 -0.74645,-0.60291 -1.79434,2.23935 z m 2.39726,-2.9858 1.75128,-2.16757 0.0574,-0.0718 -0.74645,-0.58855 -0.0574,0.0718 -1.75129,2.15322 z m 2.39725,-2.9858 1.79435,-2.23934 -0.74645,-0.6029 -1.79435,2.2537 z m 2.39725,-2.98579 1.04789,-1.32064 0.7321,-0.93306 -0.74645,-0.58855 -0.73209,0.91871 -1.0479,1.32064 z m 2.38289,-3.00016 1.77999,-2.2537 -0.7608,-0.6029 -1.77999,2.2537 z m 2.36854,-3.0145 0.27274,-0.34452 1.4929,-1.90919 -0.74645,-0.58854 -1.49289,1.90919 -0.27275,0.34452 z m 2.35419,-3.00015 1.77999,-2.26806 -0.7608,-0.58854 -1.76564,2.2537 z m 2.36854,-3.02887 1.75129,-2.26805 -0.74645,-0.58854 -1.76564,2.26805 z m 2.33983,-3.0145 0.81823,-1.0479 0.94741,-1.23451 -0.76081,-0.57419 -0.94741,1.22016 -0.80386,1.0479 z m 2.33983,-3.04321 1.75129,-2.28242 -0.7608,-0.57419 -1.75129,2.28241 z m 2.32548,-3.04322 1.73693,-2.28241 -0.7608,-0.57419 -1.73694,2.28241 z m 2.31112,-3.04322 0.94742,-1.23451 0.78951,-1.06226 -0.7608,-0.57418 -0.80387,1.06225 -0.93306,1.23451 z m 2.31112,-3.05757 1.72258,-2.29677 -0.76081,-0.57419 -1.72257,2.29677 z m 2.29677,-3.07192 1.70822,-2.31113 -0.7608,-0.55983 -1.70822,2.31112 z m 2.28241,-3.07193 0.63161,-0.86129 1.06226,-1.44983 -0.77516,-0.5742 -1.0479,1.44984 -0.64597,0.86128 z m 2.26806,-3.08628 1.44983,-1.99532 0.24403,-0.33016 -0.77515,-0.55983 -0.22968,0.3158 -1.46419,1.99532 z m 2.2537,-3.10063 1.67952,-2.32549 -0.78952,-0.55983 -1.66516,2.32548 z m 2.23935,-3.115 1.6508,-2.33983 -0.77516,-0.55984 -1.66515,2.35419 z m 2.19628,-3.12934 0.50242,-0.70338 1.14838,-1.65081 -0.78951,-0.54548 -1.13403,1.6508 -0.50242,0.70339 z m 2.19629,-3.1437 0.96177,-1.37806 0.67468,-0.97613 -0.78952,-0.54548 -0.67467,0.97613 -0.96178,1.37806 z m 2.16757,-3.15806 1.29193,-1.88047 0.33017,-0.48807 -0.78952,-0.53113 -0.33016,0.48807 -1.29193,1.88048 z m 2.15322,-3.17241 1.47855,-2.22499 -0.78952,-0.53113 -1.47855,2.22499 z M 262.35448,790.19668 c -1.06225,1.17709 -0.96177,3.00016 0.22967,4.04806 1.1771,1.06225 2.98581,0.96177 4.04806,-0.21533 1.06225,-1.17709 0.96177,-3.00014 -0.22968,-4.06241 -1.17709,-1.04789 -2.98579,-0.94741 -4.04805,0.22968 z M 401.33759,628.43251 c 0.87564,-1.32063 0.51678,-3.10063 -0.80387,-3.97627 -1.32064,-0.88999 -3.10063,-0.53113 -3.97628,0.78951 -0.87564,1.32064 -0.51677,3.10064 0.80387,3.97628 1.30629,0.89 3.10064,0.53113 3.97628,-0.78952 z"
       id="path3201" />
    <path
       inkscape:connector-curvature="0"
       style="fill:#000000;fill-opacity:1;fill-rule:nonzero;stroke:#000000;stroke-width:0.0143548px;stroke-linecap:butt;stroke-linejoin:round;stroke-opacity:1;stroke-dasharray:none"
       d="m 229.12314,803.89115 -2.81354,-0.58854 -0.20097,0.94742 2.81354,0.58854 z m -3.74661,-0.77515 -2.81354,-0.58855 -0.20097,0.93306 2.81354,0.58855 z m -3.7466,-0.78952 -2.81354,-0.58854 -0.20096,0.93306 2.81354,0.58855 z m -3.7466,-0.78951 -2.81354,-0.58854 -0.20097,0.93305 2.81354,0.58855 z m -3.7466,-0.78951 -1.10532,-0.22968 -1.70822,-0.34452 -0.20096,0.93307 1.72257,0.35887 1.09096,0.22968 z m -3.76096,-0.7608 -2.81354,-0.5742 -0.18661,0.93306 2.81354,0.57419 z m -3.7466,-0.76081 -2.81354,-0.57419 -0.18661,0.93306 2.81354,0.57419 z m -3.7466,-0.77516 -2.81354,-0.57419 -0.18661,0.94742 2.81354,0.57419 z m -3.7466,-0.7608 -2.00967,-0.40194 -0.81822,-0.1579 -0.18662,0.93306 0.81823,0.15791 1.99531,0.41628 z m -3.76096,-0.74645 -2.81354,-0.55984 -0.18661,0.93306 2.81354,0.55984 z m -3.76095,-0.74646 -2.81354,-0.55983 -0.18661,0.94742 2.81354,0.54548 z m -3.7466,-0.74644 -2.8279,-0.54548 -0.18661,0.93306 2.82789,0.55983 z m -3.76096,-0.7321 -2.65564,-0.53113 -0.1579,-0.0287 -0.18661,0.94742 0.1579,0.0287 2.65564,0.51678 z m -3.76096,-0.73209 -2.81354,-0.54548 -0.1866,0.93306 2.82789,0.54548 z m -3.76095,-0.73209 -2.81354,-0.53113 -0.18661,0.93306 2.82789,0.54548 z m -3.76096,-0.71774 -2.81353,-0.53113 -0.18662,0.93306 2.82789,0.54548 z m -3.76095,-0.71775 -2.81354,-0.53112 -0.18662,0.93306 2.8279,0.54548 z m -3.76096,-0.71773 -2.81354,-0.51677 -0.18661,0.93305 2.8279,0.53113 z m -3.76096,-0.68904 -2.82789,-0.53112 -0.17225,0.94742 2.82789,0.51677 z m -3.76095,-0.70338 -2.8279,-0.51677 -0.17225,0.93306 2.82789,0.53113 z m -3.76095,-0.68903 -2.8279,-0.53113 -0.17226,0.94742 2.81354,0.51677 z m -3.77531,-0.70338 -2.8279,-0.50242 -0.17226,0.94741 2.82789,0.50242 z m -3.76096,-0.66033 -2.82789,-0.50242 -0.17227,0.93307 2.8279,0.50242 z m -3.77531,-0.67467 -2.82789,-0.50242 -0.17227,0.93307 2.8279,0.50241 z m -3.77531,-0.67467 -2.72742,-0.48807 -0.10048,-0.0143 -0.1579,0.94742 0.10048,0.0144 2.72742,0.48806 z m -3.76096,-0.66032 -2.82789,-0.48807 -0.17226,0.93306 2.82789,0.48807 z m -3.77531,-0.66033 -2.82789,-0.4737 -0.17226,0.93306 2.84225,0.48806 z m -3.77531,-0.64596 -2.8279,-0.48806 -0.1579,0.94741 2.8279,0.48806 z m -3.77531,-0.64596 -1.95225,-0.33017 -0.87565,-0.14355 -0.1579,0.93307 0.86129,0.14355 1.9666,0.34451 z m -3.77532,-0.63162 -2.82789,-0.4737 -0.1579,0.94741 2.82789,0.45936 z m -3.77531,-0.63161 -1.40677,-0.22968 -1.42112,-0.24403 -0.1579,0.94742 1.42112,0.22968 1.40677,0.24402 z m -3.77531,-0.61726 -2.84224,-0.45935 -0.14355,0.94742 2.82789,0.45935 z m -3.77531,-0.61725 -0.73209,-0.11484 -2.11015,-0.33016 -0.1579,0.93306 2.1245,0.34452 0.71774,0.11484 z m -3.78966,-0.6029 -2.82789,-0.445 -0.15791,0.93306 2.84225,0.45935 z m -3.77531,-0.6029 -2.84225,-0.445 -0.14355,0.94741 2.8279,0.445 z m -3.78967,-0.58855 -2.75611,-0.41629 -0.0861,-0.0144 -0.14355,0.94742 0.0861,0 2.75611,0.43063 z m -3.78966,-0.57419 -2.82789,-0.43065 -0.14355,0.94742 2.82789,0.43065 z m -3.77531,-0.5742 -1.67952,-0.24402 -1.16273,-0.17226 -0.14355,0.94741 1.16274,0.1579 1.67951,0.25839 z m -3.78967,-0.55983 -2.84225,-0.41629 -0.14355,0.94742 2.84226,0.41628 z m -3.78966,-0.55984 -0.445,-0.0574 -2.39725,-0.34452 -0.14355,0.94742 2.41161,0.34452 0.43064,0.0574 z m -3.78967,-0.53112 -2.84225,-0.40194 -0.14355,0.94741 2.84225,0.40194 z m -3.78967,-0.53113 -2.856589,-0.38758 -0.1292,0.94741 2.842239,0.38758 z m -3.804009,-0.51677 -1.30629,-0.18662 -1.53596,-0.20097 -0.12919,0.94742 1.53596,0.20097 1.30628,0.18661 z m -3.78967,-0.51677 -2.84225,-0.37323 -0.12919,0.94741 2.84225,0.37323 z m -3.80402,-0.50242 -2.84225,-0.34452 -0.12919,0.94742 2.8566,0.35887 z m -3.78967,-0.47371 -1.53596,-0.18662 -1.32064,-0.1579 -0.11484,0.94742 1.30629,0.1579 1.53596,0.18661 z m -3.80401,-0.45936 -2.85661,-0.34451 -0.11484,0.94741 2.8566,0.34452 z m -3.80403,-0.45935 -2.8566,-0.33016 -0.10048,0.94742 2.84225,0.33016 z m -3.80402,-0.445 -1.06225,-0.11483 -1.79435,-0.20097 -0.10049,0.96177 1.78,0.18661 1.06226,0.12919 z m -3.80401,-0.41629 -2.45467,-0.25838 -0.40194,-0.0431 -0.10048,0.94742 0.38757,0.0431 2.46903,0.27274 z m -3.81838,-0.40193 -2.8566,-0.2871 -0.0861,0.96177 2.8566,0.2871 z m -3.80402,-0.37323 -2.87096,-0.27274 -0.0861,0.96177 2.85661,0.25839 z m -3.81838,-0.35887 -0.86128,-0.0718 -1.99532,-0.17226 -0.0861,0.96177 1.99532,0.15791 0.86128,0.0861 z m -3.81837,-0.3158 -1.67951,-0.14355 -1.19145,-0.0861 -0.0718,0.94742 1.19145,0.0861 1.67951,0.14355 z m -3.81838,-0.30145 -2.28241,-0.17226 -0.58854,-0.0431 -0.0574,0.96177 0.57419,0.0287 2.28241,0.17227 z m -3.81837,-0.27275 -2.66999,-0.17225 -0.0718,0.94742 2.66999,0.17225 z M 228.4341,807.17841 c 1.55032,0.3158 3.07193,-0.67468 3.40209,-2.22499 0.31581,-1.55032 -0.67468,-3.07194 -2.225,-3.40209 -1.55031,-0.31581 -3.07192,0.67467 -3.40208,2.22499 -0.31581,1.55032 0.67467,3.07192 2.22499,3.40209 z M 18.839771,767.68837 c -1.57903,-0.10049 -2.94274,1.10531 -3.04322,2.68435 -0.10048,1.57902 1.09096,2.94273 2.68435,3.05757 1.57902,0.10048 2.94273,-1.10532 3.04321,-2.68435 0.10049,-1.57903 -1.09096,-2.94273 -2.68434,-3.05757 z"
       id="path3203" />
    <path
       inkscape:connector-curvature="0"
       style="fill:#000000;fill-opacity:1;fill-rule:nonzero;stroke:#000000;stroke-width:0.02870959px;stroke-linecap:butt;stroke-linejoin:round;stroke-opacity:1;stroke-dasharray:none"
       d="m 256.98579,829.51446 0.89,2.72741 0.9187,-0.28709 -0.89,-2.72742 z m 1.2058,3.64612 0.89,2.72741 0.9187,-0.3158 -0.9187,-2.72742 z m 1.17709,3.61741 0.89,2.72741 0.9187,-0.2871 -0.88999,-2.72741 z m 1.2058,3.64612 0.89,2.7274 0.91871,-0.28709 -0.88999,-2.72741 z m 1.1771,3.64612 0.37322,1.06225 0.54549,1.66516 0.9187,-0.31581 -0.57419,-1.63645 -0.34451,-1.09096 z m 1.23451,3.6174 0.89,2.72741 0.9187,-0.28709 -0.9187,-2.72741 z m 1.2058,3.64612 0.91871,2.72741 0.89,-0.31581 -0.91871,-2.7274 z m 1.2058,3.61741 0.91872,2.72741 0.88999,-0.31581 -0.88999,-2.6987 z m 1.20581,3.64612 0.66032,1.92354 0.25838,0.80387 0.91871,-0.31581 -0.25838,-0.80387 -0.66033,-1.92354 z m 1.23451,3.61741 0.91871,2.72741 0.9187,-0.31581 -0.9187,-2.72741 z m 1.23451,3.6174 0.91871,2.72741 0.91871,-0.31581 -0.91871,-2.72741 z m 1.23452,3.61741 0.9187,2.72741 0.91871,-0.31581 -0.91871,-2.6987 z m 1.2345,3.64612 0.89,2.55515 0.0574,0.14355 0.89,-0.31581 -0.0574,-0.14354 -0.86128,-2.55516 z m 1.23452,3.6174 0.94742,2.69871 0.9187,-0.31581 -0.94742,-2.6987 z m 1.26322,3.61741 0.94742,2.69871 0.9187,-0.31581 -0.94741,-2.6987 z m 1.26322,3.61741 0.94742,2.6987 0.89,-0.31581 -0.94742,-2.69869 z m 1.26322,3.61741 0.94742,2.6987 0.89,-0.31581 -0.94742,-2.69869 z m 1.26322,3.61741 0.94742,2.69869 0.91871,-0.3158 -0.97613,-2.6987 z m 1.26323,3.58869 0.97612,2.72741 0.89,-0.34451 -0.94741,-2.6987 z m 1.29193,3.61741 0.94742,2.69871 0.9187,-0.31582 -0.97612,-2.69869 z m 1.26322,3.61741 0.97613,2.6987 0.89,-0.31581 -0.94742,-2.69869 z m 1.29193,3.5887 0.97613,2.6987 0.88999,-0.3158 -0.94741,-2.69871 z m 1.29194,3.6174 0.97612,2.69871 0.91871,-0.31581 -0.97613,-2.72741 z m 1.32064,3.58871 0.97613,2.69869 0.88999,-0.3158 -0.97613,-2.6987 z m 1.29193,3.6174 0.94742,2.58386 0.0287,0.11484 0.89,-0.34451 -0.0287,-0.0861 -0.94741,-2.61257 z m 1.32064,3.5887 0.97612,2.6987 0.89,-0.34451 -0.97612,-2.66999 z m 1.32064,3.5887 0.83258,2.29676 0.14355,0.40194 0.88999,-0.34452 -0.14354,-0.40193 -0.83258,-2.26806 z m 1.32064,3.5887 0.97613,2.6987 0.9187,-0.34451 -1.00483,-2.66999 z m 1.32064,3.58869 0.68903,1.86613 0.31581,0.83258 0.89,-0.34452 -0.31581,-0.80387 -0.68903,-1.86612 z m 1.34935,3.58871 1.00484,2.69869 0.88999,-0.34451 -1.00483,-2.66999 z m 1.32064,3.58869 0.51677,1.34935 0.51678,1.34936 0.88999,-0.34452 -0.51677,-1.34935 -0.48806,-1.34935 z m 1.37806,3.5887 1.00484,2.67 0.89,-0.31581 -1.00484,-2.6987 z m 1.34935,3.5887 0.25839,0.68903 0.77516,1.98096 0.89,-0.34451 -0.77516,-1.98096 -0.25839,-0.68904 z m 1.34935,3.55999 1.03355,2.6987 0.88999,-0.34452 -1.00483,-2.69869 z m 1.37807,3.5887 1.03354,2.66999 0.9187,-0.34452 -1.06225,-2.66999 z m 1.40676,3.55999 1.00484,2.61257 0.0287,0.0574 0.89,-0.34452 -0.0287,-0.0861 -1.00484,-2.58386 z m 1.37807,3.55999 1.06225,2.66999 0.89,-0.34452 -1.06226,-2.66999 z m 1.40677,3.55998 0.6029,1.57903 0.43064,1.11967 0.89,-0.37322 -0.43064,-1.09096 -0.60291,-1.57903 z m 1.40677,3.5887 1.06225,2.64128 0.89,-0.34452 -1.06226,-2.66999 z m 1.40676,3.53128 0.17226,0.43065 0.89,2.23934 0.89,-0.34452 -0.89,-2.23934 -0.17226,-0.43065 z m 1.43548,3.55999 1.06226,2.66999 0.88999,-0.37322 -1.06225,-2.64129 z m 1.43548,3.55999 1.09097,2.64128 0.86129,-0.34452 -1.06226,-2.66999 z m 1.43549,3.53128 0.51677,1.23451 0.57418,1.43548 0.89,-0.37322 -0.6029,-1.43549 -0.48806,-1.2058 z m 1.46418,3.55999 1.09096,2.64128 0.89,-0.37323 -1.09096,-2.64128 z m 1.46419,3.53128 1.11967,2.64128 0.89,-0.37323 -1.11968,-2.64128 z m 1.49289,3.53127 0.60291,1.40677 0.51677,1.23452 0.86129,-0.37323 -0.51677,-1.2058 -0.5742,-1.43548 z m 1.49291,3.53128 1.11967,2.64129 0.89,-0.37323 -1.11967,-2.64128 z m 1.4929,3.50257 1.14838,2.64125 0.88999,-0.3732 -1.14837,-2.64127 z m 1.55032,3.53125 0.40193,0.9762 0.74645,1.6364 0.86129,-0.3732 -0.71775,-1.6365 -0.43064,-1.0048 z m 1.5216,3.5026 1.00484,2.2393 0.17225,0.3733 0.86129,-0.3733 -0.17226,-0.3732 -0.97612,-2.268 z m 1.55032,3.5026 1.17709,2.6125 0.89,-0.4019 -1.1771,-2.6126 z m 1.57902,3.4738 1.20581,2.6126 0.86128,-0.4019 -1.17709,-2.6126 z m 1.60774,3.5026 0.37323,0.7752 0.83257,1.8087 0.89,-0.402 -0.86128,-1.8087 -0.37323,-0.7751 z m 1.63645,3.4452 0.68903,1.5215 0.54548,1.091 0.86129,-0.4307 -0.51677,-1.0622 -0.71774,-1.5216 z m 1.63644,3.4738 0.97613,2.0383 0.28709,0.5455 0.8613,-0.4306 -0.2871,-0.5167 -0.97613,-2.0672 z m 1.66516,3.4451 1.2058,2.3829 0.8613,-0.4019 -1.20581,-2.4116 z M 260.17255,828.48092 c -0.48806,-1.52161 -2.12451,-2.35419 -3.61741,-1.83742 -1.52161,0.48807 -2.32547,2.09581 -1.83741,3.61741 0.48806,1.4929 2.12451,2.32548 3.61741,1.83742 1.52161,-0.48807 2.32547,-2.12452 1.83741,-3.61741 z m 70.59688,201.22548 c 0.71774,1.4355 2.44031,2.0097 3.84708,1.3206 1.43548,-0.7177 2.00967,-2.4403 1.29193,-3.8471 -0.68903,-1.4355 -2.4116,-2.0096 -3.84709,-1.3206 -1.40676,0.7178 -1.98095,2.4403 -1.29192,3.8471 z"
       id="path3205" />
    <path
       inkscape:connector-curvature="0"
       style="fill:#000000;fill-opacity:1;fill-rule:nonzero;stroke:#000000;stroke-width:0.0143548px;stroke-linecap:butt;stroke-linejoin:round;stroke-opacity:1;stroke-dasharray:none"
       d="m 250.97113,808.25501 0,-2.87096 -0.71774,0 0,2.87096 0.71774,0 z m 0,-5.02418 0,-2.87095 -0.71774,0 0,2.87095 0.71774,0 z m 0,-5.02417 0,-2.87096 -0.71774,0 0,2.87096 0.71774,0 z m 0,-5.02418 0,-2.87096 -0.71774,0 0,2.87096 0.71774,0 z m 0,-5.02418 0,-2.87096 -0.71774,0 0,2.87096 0.71774,0 z m 0,-5.02417 0,-2.87097 -0.71774,0 0,2.87097 0.71774,0 z m 0,-5.02418 0,-2.87096 -0.71774,0 0,2.87096 0.71774,0 z m 0,-5.02418 0,-2.87095 -0.71774,0 0,2.87095 0.71774,0 z m 0,-5.02418 0,-2.87095 -0.71774,0 0,2.87095 0.71774,0 z m 0,-5.02417 0,-2.87096 -0.71774,0 0,2.87096 0.71774,0 z m 0,-5.02418 0,-2.87096 -0.71774,0 0,2.87096 0.71774,0 z m 0,-5.02418 0,-2.87096 -0.71774,0 0,2.87096 0.71774,0 z m 0,-5.02418 0,-2.87096 -0.71774,0 0,2.87096 0.71774,0 z m 0,-5.02418 0,-2.87095 -0.71774,0 0,2.87095 0.71774,0 z m 0,-5.02417 0,-2.87096 -0.71774,0 0,2.87096 0.71774,0 z m 0,-5.02418 0,-2.87096 -0.71774,0 0,2.87096 0.71774,0 z m 0,-5.02418 0,-2.87096 -0.71774,0 0,2.87096 0.71774,0 z m 0,-5.02418 0,-2.87096 -0.71774,0 0,2.87096 0.71774,0 z m 0,-5.02418 0,-2.87095 -0.71774,0 0,2.87095 0.71774,0 z m 0,-5.02418 0,-2.87095 -0.71774,0 0,2.87095 0.71774,0 z m 0,-5.02417 0,-2.87096 -0.71774,0 0,2.87096 0.71774,0 z m 0,-5.02417 0,-2.87097 -0.71774,0 0,2.87097 0.71774,0 z m 0,-5.02418 0,-2.87096 -0.71774,0 0,2.87096 0.71774,0 z m 0,-5.02418 0,-2.87096 -0.71774,0 0,2.87096 0.71774,0 z m 0,-5.02418 0,-2.87096 -0.71774,0 0,2.87096 0.71774,0 z m 0,-5.02418 0,-2.87095 -0.71774,0 0,2.87095 0.71774,0 z m 0,-5.02417 0,-2.87096 -0.71774,0 0,2.87096 0.71774,0 z m 0,-5.02418 0,-2.87096 -0.71774,0 0,2.87096 0.71774,0 z m 0,-5.02418 0,-2.87096 -0.71774,0 0,2.87096 0.71774,0 z m 0,-5.02418 0,-2.6987 -0.71774,0 0,2.6987 0.71774,0 z"
       id="path3207" />
    <text
       xml:space="preserve"
       x="434.97385"
       y="657.71838"
       style="font-size:17.22575188px;font-style:normal;font-weight:normal;text-align:start;text-anchor:start;fill:#000000;font-family:Calibri"
       id="text3209">&quot;<tspan
   style="font-size:16px;font-style:normal;font-variant:normal;font-weight:normal;font-stretch:normal;font-family:Arial;-inkscape-font-specification:Arial"
   id="tspan3147">ghost</tspan>&quot; </text>
    <text
       xml:space="preserve"
       x="334.07956"
       y="495.90179"
       style="font-size:17.22575188px;font-style:normal;font-weight:normal;text-align:start;text-anchor:start;fill:#000000;font-family:Calibri"
       id="text3100"><tspan
         style="font-style:normal;font-variant:normal;font-weight:normal;font-stretch:normal;font-family:Arial;-inkscape-font-specification:Arial"
         id="tspan3102"><tspan
           style="font-size:16px"
           id="tspan3104"> </tspan></tspan></text>
    <text
       xml:space="preserve"
       x="358.57956"
       y="574.57269"
       style="font-size:17.22575188px;font-style:normal;font-weight:normal;text-align:start;text-anchor:start;fill:#000000;font-family:Calibri"
       id="text3219" />
    <text
       xml:space="preserve"
       x="358.57956"
       y="595.24359"
       style="font-size:17.22575188px;font-style:normal;font-weight:normal;text-align:start;text-anchor:start;fill:#000000;font-family:Calibri"
       id="text3221" />
    <text
       xml:space="preserve"
       x="4.0595608"
       y="753.6225"
       style="font-size:16px;font-style:normal;font-variant:normal;font-weight:normal;font-stretch:normal;text-align:start;text-anchor:start;fill:#000000;font-family:Arial;-inkscape-font-specification:Arial"
       id="text3223">1</text>
    <text
       xml:space="preserve"
       x="422.60165"
       y="631.06256"
       style="font-size:16px;font-style:normal;font-variant:normal;font-weight:normal;font-stretch:normal;text-align:start;text-anchor:start;fill:#000000;font-family:Arial;-inkscape-font-specification:Arial"
       id="text3225">2</text>
    <text
       xml:space="preserve"
       x="338.81082"
       y="1043.115"
       style="font-size:16px;font-style:normal;font-variant:normal;font-weight:normal;font-stretch:normal;text-align:start;text-anchor:start;fill:#000000;font-family:Arial;-inkscape-font-specification:Arial"
       id="text3227">3</text>
    <path
       inkscape:connector-curvature="0"
       style="fill:#000000;fill-opacity:1;fill-rule:nonzero;stroke:#000000;stroke-width:0.0143548px;stroke-linecap:butt;stroke-linejoin:round;stroke-opacity:1;stroke-dasharray:none"
       d="m 251.22951,791.89055 1.66516,0.0861 1.6508,0.25839 1.60774,0.40193 1.53596,0.55984 1.47854,0.70338 1.37807,0.83258 1.29192,0.97613 1.1771,1.0766 1.09097,1.19145 0.96177,1.27758 0.83257,1.37806 0.71774,1.46419 0.55984,1.53596 0.41629,1.60774 0.25839,1.6508 0.0861,1.72257 -0.0861,1.70822 -0.24404,1.6508 -0.41628,1.62209 -0.55984,1.53597 -0.70338,1.46419 -0.83259,1.37806 -0.96177,1.29193 -1.0766,1.19145 -1.19145,1.07661 -1.29194,0.96177 -1.37805,0.84693 -1.46419,0.70338 -1.53597,0.55984 -1.59337,0.4163 -1.66517,0.25838 -1.70822,0.0861 -1.72257,-0.0861 -1.6508,-0.24403 -1.60774,-0.41629 -1.53596,-0.55984 -1.46419,-0.68903 -1.37806,-0.84693 -1.29193,-0.96177 -1.19145,-1.07661 -1.09096,-1.19145 -0.96178,-1.29193 -0.83258,-1.36371 -0.71773,-1.46418 -0.55984,-1.53597 -0.41629,-1.60774 -0.24403,-1.66515 -0.10048,-1.70822 0.0287,-0.99048 0,-0.0431 0.96178,0.0718 0,0 -0.0287,0.9187 0.0718,1.60774 0.24403,1.56467 0.38758,1.52161 0.53113,1.44984 0.64596,1.37806 0.80387,1.30628 0.90435,1.22016 1.00484,1.11968 1.11968,1.01919 1.22015,0.90435 1.29194,0.78951 1.37805,0.67468 1.44984,0.53112 1.52161,0.38758 1.56467,0.24403 1.60773,0.0861 1.6221,-0.0861 1.56467,-0.22968 1.52161,-0.38757 1.44983,-0.53113 1.37806,-0.66032 1.30629,-0.78952 1.2058,-0.90435 1.11967,-1.01919 1.0192,-1.11967 0.9187,-1.22015 0.78952,-1.29194 0.67467,-1.37806 0.53113,-1.44983 0.38758,-1.52161 0.24403,-1.55032 0.0861,-1.62209 -0.0861,-1.62209 -0.22967,-1.56467 -0.38759,-1.50726 -0.53113,-1.44983 -0.67467,-1.37806 -0.77515,-1.30629 -0.91872,-1.22016 -1.00483,-1.11967 -1.13403,-1.01919 -1.2058,-0.9187 -1.30629,-0.78952 -1.3637,-0.66032 -1.44984,-0.53113 -1.5216,-0.40193 -1.56468,-0.22968 -1.66516,-0.0861 z m -20.49864,20.91494 4.3208,-6.08644 3.1724,6.76111 c 0.11484,0.24403 0.0144,0.53113 -0.22968,0.64596 -0.24403,0.11484 -0.51677,0 -0.6316,-0.22968 l 0,0 -2.8279,-6.029 0.83258,0.0861 -3.86144,5.41176 c -0.14355,0.21532 -0.445,0.25839 -0.66032,0.11484 -0.21532,-0.1579 -0.27274,-0.45935 -0.11484,-0.67467 z"
       id="path3229" />
    <path
       inkscape:connector-curvature="0"
       style="fill:#000000;fill-opacity:1;fill-rule:nonzero;stroke:#000000;stroke-width:0.0143548px;stroke-linecap:butt;stroke-linejoin:round;stroke-opacity:1;stroke-dasharray:none"
       d="m 249.44952,809.77662 -36.61907,-7.83771 0.44499,-2.11016 36.61908,7.85207 z m -31.5949,-3.05757 -6.8903,-6.2874 8.85691,-2.89967 c 0.57419,-0.18661 1.17709,0.11484 1.3637,0.68904 0.18661,0.55983 -0.12919,1.16273 -0.68903,1.34934 l -7.10562,2.33984 0.38758,-1.82306 5.52659,5.03853 c 0.445,0.40193 0.47371,1.07661 0.0718,1.52161 -0.40193,0.43064 -1.07661,0.47371 -1.5216,0.0718 z"
       id="path3239" />
    <path
       inkscape:connector-curvature="0"
       style="fill:#4a7ebb;fill-opacity:1;fill-rule:nonzero;stroke:#4a7ebb;stroke-width:0.0143548px;stroke-linecap:butt;stroke-linejoin:round;stroke-opacity:1;stroke-dasharray:none"
       d="m 22.887821,751.89809 -4.98112,18.79043 0.91871,0.24403 4.99547,-18.77607 z m -6.74676,12.63222 1.98097,7.20611 5.29692,-5.26821 c 0.18661,-0.18661 0.18661,-0.48806 0,-0.67467 -0.18662,-0.18662 -0.48807,-0.20097 -0.67468,-0.0144 l -4.70837,4.69402 0.78951,0.21532 -1.76564,-6.40224 c -0.0718,-0.25838 -0.33016,-0.41629 -0.58854,-0.34451 -0.24404,0.0718 -0.40194,0.34451 -0.33017,0.58854 z"
       id="path3245" />
    <text
       xml:space="preserve"
       x="17.491238"
       y="732.44806"
       style="font-size:11.48383427px;font-style:normal;font-weight:normal;text-align:start;text-anchor:start;fill:#000000;font-family:Calibri"
       id="text3247"><tspan
         style="font-size:12px;font-style:normal;font-variant:normal;font-weight:normal;font-stretch:normal;font-family:Arial;-inkscape-font-specification:Arial"
         id="tspan3167">blade tip IP deflection </tspan></text>
    <text
       xml:space="preserve"
       x="26.306225"
       y="816.11725"
       style="font-size:10px;font-style:oblique;font-variant:normal;font-weight:normal;font-stretch:normal;text-align:start;text-anchor:start;fill:#000000;font-family:Arial;-inkscape-font-specification:Arial Oblique"
       id="text3249">(negative value of IP deflection)</text>
    <path
       inkscape:connector-curvature="0"
       style="fill:#4a7ebb;fill-opacity:1;fill-rule:nonzero;stroke:#4a7ebb;stroke-width:0.0143548px;stroke-linecap:butt;stroke-linejoin:round;stroke-opacity:1;stroke-dasharray:none"
       d="m 60.023671,800.76181 -21.04413,-21.77622 0.68903,-0.66032 21.04413,21.77622 z m -19.5943,-15.53189 -1.76564,-7.26352 7.1774,2.02403 c 0.25839,0.0718 0.40194,0.34451 0.33016,0.58854 -0.0718,0.25839 -0.33016,0.40194 -0.58854,0.33016 l -6.38789,-1.79434 0.58855,-0.5742 1.57903,6.45966 c 0.0574,0.25839 -0.0861,0.51677 -0.34452,0.57419 -0.25838,0.0574 -0.51677,-0.10048 -0.58855,-0.34452 z"
       id="path3251" />
    <text
       xml:space="preserve"
       style="font-size:40px;font-style:normal;font-weight:normal;line-height:125%;letter-spacing:0px;word-spacing:0px;fill:#000000;fill-opacity:1;stroke:none;font-family:Sans"
       x="303"
       y="617.86218"
       id="text3125"
       sodipodi:linespacing="125%"><tspan
         sodipodi:role="line"
         x="303"
         y="617.86218"
         id="tspan3129"
         style="font-size:16px;font-style:normal;font-variant:normal;font-weight:normal;font-stretch:normal;font-family:Arial;-inkscape-font-specification:Arial">updated</tspan><tspan
         sodipodi:role="line"
         x="303"
         y="637.86218"
         id="tspan3133"
         style="font-size:16px;font-style:normal;font-variant:normal;font-weight:normal;font-stretch:normal;font-family:Arial;-inkscape-font-specification:Arial">blade </tspan><tspan
         sodipodi:role="line"
         x="303"
         y="657.86218"
         id="tspan3135"
         style="font-size:16px;font-style:normal;font-variant:normal;font-weight:normal;font-stretch:normal;font-family:Arial;-inkscape-font-specification:Arial">position</tspan></text>
    <text
       xml:space="preserve"
       style="font-size:40px;font-style:normal;font-variant:normal;font-weight:normal;font-stretch:normal;line-height:125%;letter-spacing:0px;word-spacing:0px;fill:#000000;fill-opacity:1;stroke:none;font-family:Arial;-inkscape-font-specification:Arial"
       x="441"
       y="655.36218"
       id="text3137"
       sodipodi:linespacing="125%"><tspan
         sodipodi:role="line"
         id="tspan3139"
         x="441"
         y="655.36218"
         style="font-size:16px" /><tspan
         sodipodi:role="line"
         x="441"
         y="675.36218"
         id="tspan3141"
         style="font-size:16px">rigid</tspan><tspan
         sodipodi:role="line"
         x="441"
         y="695.36218"
         id="tspan3143"
         style="font-size:16px">blade </tspan><tspan
         sodipodi:role="line"
         x="441"
         y="715.36218"
         id="tspan3145"
         style="font-size:16px">position</tspan></text>
    <text
       xml:space="preserve"
       style="font-size:16px;font-style:normal;font-variant:normal;font-weight:normal;font-stretch:normal;line-height:125%;letter-spacing:0px;word-spacing:0px;fill:#000000;fill-opacity:1;stroke:none;font-family:Arial;-inkscape-font-specification:Arial"
       x="279.5"
       y="802.36218"
       id="text3151"
       sodipodi:linespacing="125%"><tspan
         sodipodi:role="line"
         x="279.5"
         y="802.36218"
         id="tspan3155">azimuth</tspan><tspan
         sodipodi:role="line"
         x="279.5"
         y="822.36218"
         id="tspan3159">angle</tspan></text>
    <text
       xml:space="preserve"
       style="font-size:40px;font-style:normal;font-weight:normal;line-height:125%;letter-spacing:0px;word-spacing:0px;fill:#000000;fill-opacity:1;stroke:none;font-family:Sans"
       x="243"
       y="654.86218"
       id="text3161"
       sodipodi:linespacing="125%"><tspan
         sodipodi:role="line"
         id="tspan3163"
         x="243"
         y="654.86218"
         style="font-size:16px;font-style:normal;font-variant:normal;font-weight:normal;font-stretch:normal;font-family:Arial;-inkscape-font-specification:Arial">Z<tspan
   style="font-size:10.39999962px;font-style:normal;font-variant:normal;font-weight:normal;font-stretch:normal;baseline-shift:sub;font-family:Arial;-inkscape-font-specification:Arial"
   id="tspan3165">S</tspan></tspan></text>
    <text
       xml:space="preserve"
       style="font-size:40px;font-style:normal;font-weight:normal;line-height:125%;letter-spacing:0px;word-spacing:0px;fill:#000000;fill-opacity:1;stroke:none;font-family:Sans"
       x="216.5"
       y="832.36218"
       id="text3169"
       sodipodi:linespacing="125%"><tspan
         sodipodi:role="line"
         id="tspan3171"
         x="216.5"
         y="832.36218"
         style="font-size:16px;font-style:normal;font-variant:normal;font-weight:normal;font-stretch:normal;font-family:Arial;-inkscape-font-specification:Arial">Z<tspan
   style="font-size:65.00091553%;baseline-shift:sub"
   id="tspan3173">R</tspan></tspan></text>
  </g>
</svg>
