<?xml version="1.0" encoding="utf-8"?>
<!-- Generator: Adobe Illustrator 15.0.0, SVG Export Plug-In . SVG Version: 6.00 Build 0)  -->
<!DOCTYPE svg PUBLIC "-//W3C//DTD SVG 1.1//EN" "http://www.w3.org/Graphics/SVG/1.1/DTD/svg11.dtd" [
	<!ENTITY ns_flows "http://ns.adobe.com/Flows/1.0/">
	<!ENTITY ns_extend "http://ns.adobe.com/Extensibility/1.0/">
	<!ENTITY ns_ai "http://ns.adobe.com/AdobeIllustrator/10.0/">
	<!ENTITY ns_graphs "http://ns.adobe.com/Graphs/1.0/">
]>
<svg version="1.1" id="Layer_1" xmlns:x="&ns_extend;" xmlns:i="&ns_ai;" xmlns:graph="&ns_graphs;"
	 xmlns="http://www.w3.org/2000/svg" xmlns:xlink="http://www.w3.org/1999/xlink" xmlns:a="http://ns.adobe.com/AdobeSVGViewerExtensions/3.0/"
	 x="0px" y="0px" width="762.5px" height="207.667px" viewBox="0 0 762.5 207.667" enable-background="new 0 0 762.5 207.667"
	 xml:space="preserve">
<line fill="none" stroke="#000000" stroke-miterlimit="10" stroke-dasharray="12" x1="724.143" y1="99.755" x2="90.934" y2="99.755"/>
<path fill="none" stroke="#000000" stroke-width="2" stroke-miterlimit="10" d="M752.254,100.715c0,0-52.029-1.172-69.331-0.119
	c-25.808,1.568-102.639,12.71-102.639,12.71s-176.608,39.161-238.092,40.16c-56,0.912-180.154-0.551-227.938-29.766
	c-8.12-4.963-22.868-13.182-22.268-22.68c0.936-14.795-0.92-17.552,18.676-36.478c29.557-28.545,116.895-47.268,157.631-52.663
	c45.764-6.06,136.98-2.938,182.394,5.355C527.673,31.296,752.254,100.715,752.254,100.715z"/>
<line fill="none" stroke="#000000" stroke-width="1.25" stroke-miterlimit="10" x1="29.517" y1="125.137" x2="83.49" y2="125.137"/>
<g>
	<g>
		<path fill="none" stroke="#000000" stroke-width="0.75" stroke-miterlimit="10" d="M66.089,125.057c0,0,1.732-5.159,0.291-7.425
			c-0.498-0.782-2.74-2.942-4.479-4.568"/>
		<g>
			<polygon points="64.123,112.675 62.333,113.478 61.669,115.324 59.757,111.091 			"/>
		</g>
	</g>
</g>
<g>
	<g>
		<g>
			
				<line fill="none" stroke="#000000" stroke-width="2" stroke-miterlimit="10" x1="216.173" y1="99.199" x2="268.124" y2="99.199"/>
			<g>
				<polygon points="265.877,102.161 267.135,99.199 265.877,96.236 272.899,99.199 				"/>
			</g>
		</g>
	</g>
	<g>
		<g>
			<line fill="none" stroke="#000000" stroke-width="2" stroke-miterlimit="10" x1="214.99" y1="101.906" x2="214.99" y2="50.793"/>
			<g>
				<circle cx="214.99" cy="101.831" r="1.504"/>
			</g>
			<g>
				<polygon points="217.953,53.04 214.99,51.781 212.028,53.04 214.99,46.017 				"/>
			</g>
		</g>
	</g>
</g>
<g>
	<g>
		<path fill="none" stroke="#000000" stroke-width="0.75" stroke-miterlimit="10" d="M252.184,98.312c0,0,1.9-4.853,0.995-6.82
			c-0.335-0.726-2.243-2.662-3.595-3.983"/>
		<g>
			<polygon points="253.898,88.833 253.613,89.446 249.604,87.582 251.477,91.586 250.865,91.873 248.207,86.188 			"/>
		</g>
	</g>
</g>
<g>
	<path d="M14.977,138.958c0,0.071-0.023,0.124-0.071,0.159c-0.047,0.036-0.112,0.062-0.194,0.08s-0.203,0.027-0.362,0.027
		c-0.153,0-0.275-0.009-0.367-0.027s-0.158-0.044-0.199-0.08c-0.042-0.035-0.062-0.088-0.062-0.159v-0.795
		c-0.348,0.371-0.735,0.659-1.162,0.866c-0.427,0.206-0.879,0.309-1.356,0.309c-0.418,0-0.796-0.055-1.135-0.164
		c-0.338-0.109-0.627-0.267-0.866-0.473c-0.238-0.206-0.424-0.459-0.557-0.76c-0.132-0.3-0.199-0.642-0.199-1.024
		c0-0.448,0.091-0.836,0.274-1.166c0.183-0.33,0.445-0.604,0.786-0.822c0.342-0.218,0.76-0.381,1.254-0.49
		c0.495-0.109,1.051-0.164,1.67-0.164h1.095v-0.618c0-0.306-0.032-0.577-0.097-0.813c-0.065-0.235-0.169-0.431-0.313-0.587
		c-0.145-0.156-0.332-0.274-0.561-0.353c-0.229-0.08-0.512-0.12-0.848-0.12c-0.359,0-0.682,0.043-0.967,0.128
		s-0.536,0.18-0.751,0.283c-0.215,0.103-0.395,0.197-0.539,0.283c-0.145,0.085-0.252,0.128-0.323,0.128
		c-0.047,0-0.088-0.012-0.124-0.035c-0.035-0.024-0.066-0.059-0.093-0.106c-0.026-0.047-0.045-0.107-0.057-0.181
		c-0.012-0.074-0.018-0.155-0.018-0.243c0-0.147,0.01-0.264,0.031-0.349c0.021-0.085,0.071-0.166,0.15-0.243
		c0.08-0.077,0.217-0.167,0.411-0.27s0.418-0.197,0.671-0.283c0.253-0.085,0.53-0.156,0.83-0.212s0.604-0.084,0.91-0.084
		c0.571,0,1.057,0.065,1.458,0.194c0.4,0.13,0.724,0.319,0.972,0.57c0.247,0.25,0.427,0.561,0.539,0.932s0.168,0.804,0.168,1.298
		V138.958z M13.528,135.327h-1.246c-0.4,0-0.748,0.034-1.042,0.102c-0.294,0.068-0.539,0.168-0.733,0.3
		c-0.194,0.133-0.337,0.292-0.429,0.477s-0.137,0.399-0.137,0.641c0,0.412,0.131,0.741,0.393,0.985
		c0.262,0.245,0.628,0.367,1.1,0.367c0.383,0,0.738-0.097,1.064-0.292c0.327-0.194,0.67-0.492,1.029-0.892V135.327z"/>
	<path d="M24.5,138.949c0,0.047-0.012,0.087-0.035,0.119c-0.024,0.032-0.062,0.061-0.115,0.084
		c-0.053,0.023-0.127,0.041-0.221,0.053s-0.212,0.018-0.353,0.018c-0.147,0-0.268-0.006-0.362-0.018s-0.168-0.029-0.221-0.053
		c-0.053-0.023-0.092-0.052-0.115-0.084s-0.035-0.072-0.035-0.119v-4.656c0-0.453-0.035-0.818-0.106-1.095s-0.174-0.515-0.309-0.715
		c-0.136-0.2-0.311-0.354-0.526-0.459s-0.464-0.159-0.747-0.159c-0.365,0-0.73,0.13-1.095,0.389
		c-0.365,0.259-0.748,0.639-1.148,1.14v5.557c0,0.047-0.012,0.087-0.035,0.119c-0.024,0.032-0.062,0.061-0.115,0.084
		c-0.053,0.023-0.127,0.041-0.221,0.053s-0.215,0.018-0.362,0.018c-0.142,0-0.259-0.006-0.354-0.018s-0.169-0.029-0.225-0.053
		c-0.056-0.023-0.095-0.052-0.115-0.084s-0.031-0.072-0.031-0.119v-7.951c0-0.047,0.009-0.087,0.026-0.119s0.053-0.062,0.106-0.088
		c0.053-0.026,0.121-0.044,0.204-0.053c0.082-0.009,0.191-0.013,0.327-0.013c0.129,0,0.237,0.004,0.322,0.013
		c0.085,0.009,0.152,0.027,0.199,0.053c0.047,0.026,0.081,0.056,0.102,0.088s0.031,0.072,0.031,0.119v1.051
		c0.447-0.5,0.894-0.867,1.338-1.1c0.444-0.233,0.894-0.349,1.347-0.349c0.53,0,0.976,0.09,1.338,0.27
		c0.362,0.18,0.655,0.419,0.879,0.72c0.224,0.3,0.384,0.652,0.481,1.056c0.097,0.404,0.146,0.888,0.146,1.453V138.949z"/>
	<path d="M33.802,131.36c0,0.206-0.028,0.355-0.084,0.446s-0.128,0.137-0.216,0.137h-1.14c0.206,0.212,0.35,0.446,0.433,0.702
		c0.082,0.256,0.124,0.523,0.124,0.8c0,0.459-0.074,0.866-0.221,1.219c-0.147,0.354-0.358,0.652-0.632,0.897
		c-0.274,0.244-0.599,0.431-0.976,0.561c-0.377,0.13-0.795,0.194-1.254,0.194c-0.324,0-0.632-0.042-0.923-0.128
		s-0.517-0.193-0.676-0.322c-0.106,0.106-0.193,0.227-0.26,0.362c-0.068,0.136-0.102,0.292-0.102,0.468
		c0,0.207,0.096,0.377,0.287,0.513c0.191,0.135,0.446,0.209,0.764,0.221l2.076,0.088c0.395,0.012,0.757,0.066,1.086,0.164
		c0.33,0.097,0.615,0.235,0.857,0.415c0.241,0.18,0.43,0.4,0.565,0.663c0.135,0.262,0.203,0.566,0.203,0.914
		c0,0.365-0.077,0.712-0.229,1.042c-0.153,0.33-0.388,0.62-0.703,0.87s-0.717,0.448-1.206,0.592
		c-0.489,0.145-1.066,0.216-1.731,0.216c-0.642,0-1.188-0.054-1.639-0.163c-0.451-0.109-0.82-0.258-1.109-0.446
		s-0.498-0.414-0.627-0.676c-0.13-0.262-0.194-0.546-0.194-0.853c0-0.194,0.023-0.383,0.071-0.565
		c0.047-0.183,0.119-0.356,0.216-0.521s0.218-0.322,0.362-0.473c0.144-0.15,0.311-0.299,0.499-0.446
		c-0.289-0.147-0.502-0.333-0.641-0.556c-0.138-0.224-0.208-0.465-0.208-0.725c0-0.359,0.074-0.68,0.221-0.963
		c0.147-0.283,0.33-0.536,0.548-0.76c-0.183-0.218-0.327-0.464-0.433-0.737c-0.106-0.274-0.159-0.605-0.159-0.994
		c0-0.453,0.076-0.86,0.229-1.219c0.153-0.359,0.365-0.663,0.636-0.91c0.271-0.247,0.596-0.437,0.976-0.57
		c0.38-0.132,0.793-0.199,1.241-0.199c0.241,0,0.467,0.013,0.676,0.04c0.209,0.026,0.405,0.063,0.587,0.11h2.403
		c0.1,0,0.175,0.048,0.225,0.146C33.777,131.011,33.802,131.16,33.802,131.36z M32.256,139.752c0-0.342-0.14-0.605-0.419-0.791
		c-0.28-0.186-0.658-0.284-1.135-0.296l-2.059-0.071c-0.188,0.147-0.343,0.287-0.463,0.419c-0.121,0.133-0.217,0.259-0.287,0.38
		c-0.071,0.121-0.12,0.24-0.146,0.358s-0.04,0.239-0.04,0.362c0,0.383,0.194,0.673,0.583,0.87s0.93,0.296,1.625,0.296
		c0.441,0,0.811-0.043,1.108-0.128c0.297-0.085,0.538-0.199,0.72-0.34c0.182-0.141,0.313-0.303,0.393-0.486
		S32.256,139.953,32.256,139.752z M31.523,133.454c0-0.542-0.148-0.964-0.446-1.268c-0.297-0.304-0.72-0.455-1.268-0.455
		c-0.283,0-0.529,0.047-0.738,0.141s-0.383,0.224-0.521,0.389c-0.138,0.165-0.241,0.355-0.309,0.57
		c-0.068,0.215-0.102,0.44-0.102,0.676c0,0.524,0.149,0.937,0.446,1.237s0.714,0.451,1.25,0.451c0.289,0,0.539-0.046,0.751-0.137
		c0.212-0.091,0.387-0.218,0.525-0.38c0.138-0.162,0.241-0.349,0.309-0.561C31.489,133.904,31.523,133.684,31.523,133.454z"/>
	<path d="M37.132,138.949c0,0.047-0.012,0.087-0.035,0.119c-0.024,0.032-0.062,0.061-0.115,0.084
		c-0.053,0.023-0.127,0.041-0.221,0.053s-0.215,0.018-0.362,0.018c-0.142,0-0.259-0.006-0.354-0.018s-0.169-0.029-0.225-0.053
		c-0.056-0.023-0.095-0.052-0.115-0.084s-0.031-0.072-0.031-0.119v-11.802c0-0.047,0.01-0.088,0.031-0.124s0.059-0.065,0.115-0.088
		c0.056-0.023,0.131-0.041,0.225-0.053c0.094-0.012,0.212-0.018,0.354-0.018c0.147,0,0.268,0.006,0.362,0.018
		c0.094,0.012,0.168,0.03,0.221,0.053c0.053,0.023,0.091,0.053,0.115,0.088c0.023,0.035,0.035,0.077,0.035,0.124V138.949z"/>
	<path d="M46.611,134.629c0,0.229-0.058,0.393-0.173,0.49s-0.247,0.146-0.395,0.146h-5.236c0,0.442,0.044,0.839,0.133,1.193
		c0.088,0.354,0.237,0.657,0.444,0.91c0.207,0.253,0.476,0.448,0.808,0.583c0.332,0.136,0.737,0.203,1.216,0.203
		c0.378,0,0.716-0.031,1.012-0.093c0.296-0.062,0.552-0.131,0.768-0.208c0.216-0.076,0.394-0.146,0.533-0.208
		c0.139-0.062,0.244-0.093,0.315-0.093c0.042,0,0.079,0.01,0.111,0.031c0.033,0.021,0.058,0.051,0.076,0.093
		c0.018,0.041,0.031,0.099,0.04,0.172c0.009,0.074,0.013,0.164,0.013,0.27c0,0.077-0.003,0.143-0.009,0.199
		c-0.006,0.056-0.013,0.106-0.022,0.15c-0.009,0.044-0.024,0.084-0.044,0.119s-0.047,0.069-0.08,0.102
		c-0.032,0.032-0.128,0.085-0.287,0.159c-0.159,0.074-0.365,0.146-0.618,0.216c-0.253,0.071-0.546,0.134-0.879,0.19
		c-0.333,0.056-0.688,0.084-1.064,0.084c-0.654,0-1.227-0.091-1.718-0.274s-0.905-0.454-1.241-0.813
		c-0.335-0.359-0.589-0.81-0.76-1.352c-0.171-0.542-0.256-1.172-0.256-1.89c0-0.683,0.088-1.297,0.265-1.842
		c0.177-0.545,0.432-1.007,0.764-1.387s0.735-0.671,1.206-0.875s0.998-0.305,1.581-0.305c0.624,0,1.156,0.1,1.595,0.3
		c0.438,0.2,0.799,0.47,1.082,0.809c0.283,0.338,0.49,0.736,0.623,1.192c0.133,0.457,0.199,0.944,0.199,1.462V134.629z
		 M45.145,134.196c0.018-0.765-0.153-1.366-0.511-1.802c-0.358-0.436-0.89-0.654-1.595-0.654c-0.361,0-0.678,0.068-0.951,0.203
		c-0.273,0.136-0.501,0.315-0.685,0.539c-0.184,0.224-0.326,0.484-0.427,0.782s-0.157,0.608-0.169,0.932H45.145z"/>
	<path d="M60.313,134.885c0,0.647-0.085,1.244-0.256,1.789c-0.171,0.545-0.425,1.015-0.764,1.409s-0.763,0.702-1.272,0.923
		c-0.509,0.221-1.1,0.332-1.771,0.332c-0.654,0-1.224-0.097-1.709-0.292s-0.891-0.477-1.215-0.848s-0.565-0.822-0.724-1.352
		c-0.159-0.53-0.239-1.131-0.239-1.802c0-0.647,0.084-1.244,0.252-1.789c0.168-0.545,0.421-1.015,0.76-1.409
		c0.338-0.395,0.761-0.701,1.268-0.919c0.506-0.218,1.098-0.327,1.775-0.327c0.654,0,1.224,0.097,1.709,0.292
		s0.891,0.477,1.215,0.848c0.324,0.371,0.566,0.821,0.729,1.352C60.231,133.622,60.313,134.22,60.313,134.885z M58.802,134.982
		c0-0.43-0.04-0.836-0.12-1.219c-0.081-0.383-0.213-0.718-0.397-1.007c-0.184-0.288-0.434-0.517-0.749-0.685
		c-0.315-0.167-0.708-0.251-1.177-0.251c-0.434,0-0.807,0.077-1.119,0.229c-0.312,0.153-0.569,0.37-0.771,0.649
		s-0.352,0.611-0.45,0.994s-0.147,0.801-0.147,1.254c0,0.436,0.04,0.845,0.12,1.228c0.081,0.383,0.214,0.717,0.401,1.002
		s0.438,0.513,0.753,0.68c0.315,0.168,0.707,0.252,1.177,0.252c0.428,0,0.799-0.077,1.114-0.229
		c0.315-0.153,0.573-0.368,0.775-0.645s0.351-0.606,0.446-0.989S58.802,135.441,58.802,134.982z"/>
	<path d="M66.814,127.729c0,0.112-0.006,0.202-0.018,0.27c-0.012,0.068-0.025,0.123-0.04,0.164
		c-0.015,0.041-0.034,0.069-0.058,0.084s-0.053,0.022-0.088,0.022c-0.041,0-0.093-0.013-0.154-0.04
		c-0.062-0.026-0.137-0.056-0.226-0.088c-0.088-0.033-0.193-0.062-0.313-0.088c-0.121-0.027-0.261-0.04-0.419-0.04
		c-0.218,0-0.404,0.036-0.557,0.106c-0.153,0.071-0.277,0.181-0.371,0.332c-0.094,0.15-0.162,0.344-0.203,0.583
		c-0.042,0.238-0.062,0.528-0.062,0.87v0.866h1.776c0.047,0,0.086,0.01,0.119,0.031c0.032,0.021,0.062,0.056,0.088,0.106
		c0.026,0.05,0.047,0.114,0.062,0.19c0.015,0.077,0.022,0.171,0.022,0.283c0,0.212-0.027,0.365-0.08,0.459
		c-0.053,0.094-0.124,0.141-0.212,0.141h-1.776v6.97c0,0.047-0.012,0.087-0.035,0.119c-0.024,0.032-0.063,0.061-0.119,0.084
		c-0.056,0.023-0.131,0.041-0.226,0.053s-0.212,0.018-0.353,0.018c-0.142,0-0.259-0.006-0.354-0.018s-0.169-0.029-0.225-0.053
		c-0.056-0.023-0.096-0.052-0.12-0.084s-0.035-0.072-0.035-0.119v-6.97h-1.122c-0.094,0-0.165-0.047-0.212-0.141
		s-0.071-0.248-0.071-0.459c0-0.112,0.006-0.206,0.018-0.283c0.012-0.076,0.029-0.14,0.053-0.19c0.023-0.05,0.053-0.085,0.088-0.106
		c0.035-0.021,0.077-0.031,0.124-0.031h1.122v-0.822c0-0.553,0.051-1.029,0.155-1.427c0.103-0.397,0.26-0.723,0.472-0.976
		c0.212-0.253,0.479-0.44,0.8-0.561c0.321-0.121,0.699-0.181,1.135-0.181c0.206,0,0.406,0.019,0.601,0.057
		c0.194,0.039,0.344,0.08,0.45,0.124c0.106,0.044,0.177,0.083,0.212,0.119c0.035,0.035,0.064,0.081,0.088,0.137
		c0.023,0.056,0.04,0.124,0.048,0.203S66.814,127.618,66.814,127.729z"/>
	<path d="M78.06,138.958c0,0.071-0.023,0.124-0.071,0.159c-0.047,0.036-0.112,0.062-0.194,0.08s-0.203,0.027-0.362,0.027
		c-0.153,0-0.275-0.009-0.367-0.027s-0.158-0.044-0.199-0.08c-0.042-0.035-0.062-0.088-0.062-0.159v-0.795
		c-0.348,0.371-0.735,0.659-1.162,0.866c-0.427,0.206-0.879,0.309-1.356,0.309c-0.418,0-0.796-0.055-1.135-0.164
		c-0.338-0.109-0.627-0.267-0.866-0.473c-0.238-0.206-0.424-0.459-0.557-0.76c-0.132-0.3-0.199-0.642-0.199-1.024
		c0-0.448,0.091-0.836,0.274-1.166c0.183-0.33,0.445-0.604,0.786-0.822c0.342-0.218,0.76-0.381,1.254-0.49
		c0.495-0.109,1.051-0.164,1.67-0.164h1.095v-0.618c0-0.306-0.032-0.577-0.097-0.813c-0.065-0.235-0.169-0.431-0.313-0.587
		c-0.145-0.156-0.332-0.274-0.561-0.353c-0.229-0.08-0.512-0.12-0.848-0.12c-0.359,0-0.682,0.043-0.967,0.128
		s-0.536,0.18-0.751,0.283c-0.215,0.103-0.395,0.197-0.539,0.283c-0.145,0.085-0.252,0.128-0.323,0.128
		c-0.047,0-0.088-0.012-0.124-0.035c-0.035-0.024-0.066-0.059-0.093-0.106c-0.026-0.047-0.045-0.107-0.057-0.181
		c-0.012-0.074-0.018-0.155-0.018-0.243c0-0.147,0.01-0.264,0.031-0.349c0.021-0.085,0.071-0.166,0.15-0.243
		c0.08-0.077,0.217-0.167,0.411-0.27s0.418-0.197,0.671-0.283c0.253-0.085,0.53-0.156,0.83-0.212s0.604-0.084,0.91-0.084
		c0.571,0,1.057,0.065,1.458,0.194c0.4,0.13,0.724,0.319,0.972,0.57c0.247,0.25,0.427,0.561,0.539,0.932s0.168,0.804,0.168,1.298
		V138.958z M76.611,135.327h-1.246c-0.4,0-0.748,0.034-1.042,0.102c-0.294,0.068-0.539,0.168-0.733,0.3
		c-0.194,0.133-0.337,0.292-0.429,0.477s-0.137,0.399-0.137,0.641c0,0.412,0.131,0.741,0.393,0.985
		c0.262,0.245,0.628,0.367,1.1,0.367c0.383,0,0.738-0.097,1.064-0.292c0.327-0.194,0.67-0.492,1.029-0.892V135.327z"/>
	<path d="M90.109,138.366c0,0.171-0.012,0.305-0.035,0.402c-0.024,0.097-0.061,0.169-0.11,0.216c-0.05,0.047-0.12,0.091-0.208,0.132
		c-0.088,0.042-0.193,0.077-0.313,0.106c-0.121,0.029-0.25,0.053-0.389,0.07s-0.272,0.027-0.402,0.027
		c-0.418,0-0.774-0.055-1.069-0.164s-0.535-0.274-0.72-0.495c-0.186-0.221-0.322-0.5-0.411-0.839
		c-0.088-0.338-0.132-0.738-0.132-1.197v-4.647h-3.949v4.435c0,0.548,0.081,0.962,0.243,1.241c0.162,0.28,0.452,0.42,0.87,0.42
		c0.136,0,0.256-0.014,0.362-0.04s0.2-0.054,0.283-0.084c0.083-0.029,0.153-0.057,0.212-0.084c0.059-0.026,0.112-0.04,0.159-0.04
		c0.029,0,0.057,0.007,0.084,0.022c0.026,0.015,0.047,0.043,0.062,0.084c0.015,0.042,0.028,0.097,0.04,0.168
		c0.012,0.071,0.018,0.159,0.018,0.265c0,0.1-0.003,0.18-0.009,0.238c-0.006,0.059-0.013,0.113-0.022,0.164
		c-0.009,0.05-0.024,0.094-0.044,0.132c-0.021,0.039-0.053,0.077-0.097,0.115c-0.044,0.039-0.11,0.077-0.199,0.115
		c-0.088,0.038-0.191,0.07-0.309,0.097c-0.118,0.026-0.245,0.048-0.38,0.066c-0.136,0.018-0.271,0.027-0.406,0.027
		c-0.413,0-0.766-0.055-1.06-0.164c-0.295-0.109-0.536-0.274-0.725-0.495c-0.188-0.221-0.325-0.5-0.411-0.839
		c-0.085-0.338-0.128-0.738-0.128-1.197v-4.647H79.8c-0.088,0-0.159-0.047-0.212-0.141c-0.053-0.094-0.08-0.248-0.08-0.459
		c0-0.112,0.007-0.206,0.022-0.283c0.015-0.076,0.034-0.14,0.058-0.19c0.023-0.05,0.054-0.085,0.093-0.106
		c0.038-0.021,0.081-0.031,0.128-0.031h1.104v-1.891c0-0.041,0.01-0.08,0.031-0.115s0.059-0.066,0.115-0.093
		s0.131-0.045,0.225-0.058c0.094-0.012,0.212-0.018,0.354-0.018c0.147,0,0.268,0.006,0.362,0.018
		c0.094,0.012,0.168,0.031,0.221,0.058c0.053,0.026,0.091,0.058,0.115,0.093s0.036,0.074,0.036,0.115v1.891h3.949v-2.271
		c0-0.047,0.012-0.088,0.035-0.124s0.063-0.063,0.119-0.084c0.056-0.021,0.131-0.038,0.226-0.053
		c0.094-0.015,0.212-0.022,0.353-0.022c0.142,0,0.259,0.008,0.354,0.022s0.169,0.032,0.225,0.053
		c0.056,0.021,0.096,0.049,0.12,0.084c0.023,0.035,0.035,0.077,0.035,0.124v2.271h2.032c0.047,0,0.088,0.01,0.124,0.031
		c0.036,0.021,0.066,0.056,0.093,0.106c0.027,0.05,0.046,0.114,0.058,0.19c0.012,0.077,0.018,0.171,0.018,0.283
		c0,0.212-0.026,0.365-0.08,0.459c-0.053,0.094-0.121,0.141-0.203,0.141h-2.041v4.435c0,0.548,0.08,0.962,0.238,1.241
		c0.159,0.28,0.448,0.42,0.866,0.42c0.13,0,0.249-0.014,0.358-0.04s0.205-0.054,0.287-0.084c0.083-0.029,0.155-0.057,0.216-0.084
		c0.062-0.026,0.113-0.04,0.155-0.04c0.035,0,0.065,0.007,0.088,0.022c0.023,0.015,0.042,0.043,0.057,0.084
		c0.015,0.042,0.028,0.097,0.04,0.168S90.109,138.26,90.109,138.366z"/>
	<path d="M97.812,138.958c0,0.071-0.023,0.124-0.071,0.159c-0.047,0.036-0.112,0.062-0.194,0.08s-0.203,0.027-0.362,0.027
		c-0.153,0-0.275-0.009-0.367-0.027s-0.158-0.044-0.199-0.08c-0.042-0.035-0.062-0.088-0.062-0.159v-0.795
		c-0.348,0.371-0.735,0.659-1.162,0.866c-0.427,0.206-0.879,0.309-1.356,0.309c-0.418,0-0.796-0.055-1.135-0.164
		c-0.338-0.109-0.627-0.267-0.866-0.473c-0.238-0.206-0.424-0.459-0.557-0.76c-0.132-0.3-0.199-0.642-0.199-1.024
		c0-0.448,0.091-0.836,0.274-1.166c0.183-0.33,0.445-0.604,0.786-0.822c0.342-0.218,0.76-0.381,1.254-0.49
		c0.495-0.109,1.051-0.164,1.67-0.164h1.095v-0.618c0-0.306-0.032-0.577-0.097-0.813c-0.065-0.235-0.169-0.431-0.313-0.587
		c-0.145-0.156-0.332-0.274-0.561-0.353c-0.229-0.08-0.512-0.12-0.848-0.12c-0.359,0-0.682,0.043-0.967,0.128
		s-0.536,0.18-0.751,0.283c-0.215,0.103-0.395,0.197-0.539,0.283c-0.145,0.085-0.252,0.128-0.323,0.128
		c-0.047,0-0.088-0.012-0.124-0.035c-0.035-0.024-0.066-0.059-0.093-0.106c-0.026-0.047-0.045-0.107-0.057-0.181
		c-0.012-0.074-0.018-0.155-0.018-0.243c0-0.147,0.01-0.264,0.031-0.349c0.021-0.085,0.071-0.166,0.15-0.243
		c0.08-0.077,0.217-0.167,0.411-0.27s0.418-0.197,0.671-0.283c0.253-0.085,0.53-0.156,0.83-0.212s0.604-0.084,0.91-0.084
		c0.571,0,1.057,0.065,1.458,0.194c0.4,0.13,0.724,0.319,0.972,0.57c0.247,0.25,0.427,0.561,0.539,0.932s0.168,0.804,0.168,1.298
		V138.958z M96.363,135.327h-1.246c-0.4,0-0.748,0.034-1.042,0.102c-0.294,0.068-0.539,0.168-0.733,0.3
		c-0.194,0.133-0.337,0.292-0.429,0.477s-0.137,0.399-0.137,0.641c0,0.412,0.131,0.741,0.393,0.985
		c0.262,0.245,0.628,0.367,1.1,0.367c0.383,0,0.738-0.097,1.064-0.292c0.327-0.194,0.67-0.492,1.029-0.892V135.327z"/>
	<path d="M106.204,137.738c0,0.1-0.003,0.187-0.009,0.261s-0.016,0.135-0.031,0.186c-0.015,0.05-0.032,0.094-0.053,0.132
		c-0.021,0.039-0.067,0.094-0.141,0.168s-0.199,0.165-0.375,0.274s-0.375,0.206-0.596,0.292s-0.461,0.154-0.72,0.208
		c-0.259,0.053-0.527,0.08-0.804,0.08c-0.571,0-1.078-0.094-1.52-0.283c-0.441-0.188-0.811-0.464-1.108-0.826
		s-0.524-0.807-0.68-1.334c-0.156-0.527-0.234-1.135-0.234-1.824c0-0.783,0.096-1.456,0.287-2.018
		c0.191-0.563,0.454-1.023,0.786-1.383c0.333-0.359,0.725-0.625,1.175-0.799c0.45-0.174,0.938-0.261,1.462-0.261
		c0.253,0,0.499,0.023,0.737,0.071c0.239,0.047,0.458,0.109,0.658,0.186s0.378,0.165,0.535,0.265c0.156,0.1,0.27,0.185,0.34,0.256
		c0.071,0.071,0.12,0.127,0.146,0.168s0.048,0.09,0.066,0.146c0.018,0.056,0.029,0.12,0.035,0.19
		c0.006,0.071,0.009,0.159,0.009,0.265c0,0.23-0.026,0.39-0.08,0.481c-0.053,0.091-0.118,0.137-0.194,0.137
		c-0.088,0-0.19-0.049-0.305-0.146s-0.261-0.205-0.438-0.322c-0.176-0.118-0.39-0.226-0.64-0.323
		c-0.25-0.097-0.546-0.146-0.888-0.146c-0.701,0-1.238,0.27-1.612,0.808c-0.374,0.539-0.561,1.321-0.561,2.346
		c0,0.512,0.049,0.961,0.146,1.347s0.24,0.708,0.428,0.967s0.419,0.452,0.693,0.579c0.274,0.126,0.587,0.19,0.941,0.19
		c0.335,0,0.63-0.053,0.883-0.159s0.473-0.222,0.658-0.349c0.186-0.126,0.341-0.241,0.468-0.344
		c0.126-0.103,0.225-0.155,0.296-0.155c0.041,0,0.076,0.012,0.106,0.036c0.029,0.023,0.054,0.063,0.075,0.119
		c0.021,0.056,0.035,0.126,0.044,0.212S106.204,137.621,106.204,137.738z"/>
	<path d="M114.667,138.94c0,0.047-0.012,0.088-0.036,0.124s-0.063,0.065-0.119,0.088s-0.134,0.041-0.234,0.053
		s-0.227,0.018-0.38,0.018c-0.159,0-0.29-0.004-0.393-0.014c-0.103-0.009-0.19-0.023-0.261-0.044s-0.128-0.05-0.172-0.088
		c-0.044-0.038-0.084-0.084-0.119-0.137l-3.357-4.399v4.408c0,0.047-0.012,0.087-0.035,0.119c-0.024,0.032-0.062,0.061-0.115,0.084
		c-0.053,0.023-0.127,0.041-0.221,0.053s-0.215,0.018-0.362,0.018c-0.142,0-0.259-0.006-0.354-0.018s-0.169-0.029-0.225-0.053
		c-0.056-0.023-0.095-0.052-0.115-0.084s-0.031-0.072-0.031-0.119v-11.802c0-0.047,0.01-0.088,0.031-0.124s0.059-0.065,0.115-0.088
		c0.056-0.023,0.131-0.041,0.225-0.053c0.094-0.012,0.212-0.018,0.354-0.018c0.147,0,0.268,0.006,0.362,0.018
		c0.094,0.012,0.168,0.03,0.221,0.053c0.053,0.023,0.091,0.053,0.115,0.088c0.023,0.035,0.035,0.077,0.035,0.124v7.191l3.003-3.304
		c0.047-0.059,0.097-0.107,0.15-0.146c0.053-0.038,0.116-0.071,0.19-0.097s0.16-0.044,0.261-0.053
		c0.1-0.009,0.221-0.013,0.362-0.013c0.147,0,0.271,0.004,0.371,0.013c0.1,0.009,0.181,0.024,0.243,0.044
		c0.062,0.021,0.106,0.047,0.132,0.08s0.04,0.075,0.04,0.128c0,0.071-0.019,0.142-0.057,0.212c-0.039,0.071-0.102,0.153-0.19,0.248
		l-2.88,2.88l3.233,4.196c0.076,0.101,0.131,0.181,0.163,0.243C114.65,138.829,114.667,138.887,114.667,138.94z"/>
</g>
<g>
	<path d="M29.577,110.405c-0.023,0.083-0.059,0.148-0.106,0.199c-0.047,0.05-0.112,0.088-0.194,0.115
		c-0.083,0.026-0.184,0.045-0.305,0.057s-0.27,0.018-0.446,0.018c-0.183,0-0.337-0.006-0.463-0.018
		c-0.127-0.012-0.231-0.031-0.314-0.057c-0.083-0.027-0.144-0.065-0.186-0.115c-0.041-0.05-0.073-0.116-0.097-0.199l-2.394-8.631
		h-0.018l-2.208,8.631c-0.018,0.083-0.047,0.148-0.088,0.199c-0.042,0.05-0.101,0.088-0.177,0.115
		c-0.077,0.026-0.175,0.045-0.296,0.057c-0.121,0.012-0.275,0.018-0.464,0.018c-0.194,0-0.356-0.006-0.486-0.018
		c-0.13-0.012-0.236-0.031-0.318-0.057c-0.083-0.027-0.146-0.065-0.19-0.115c-0.044-0.05-0.075-0.116-0.093-0.199l-3.021-10.557
		c-0.035-0.135-0.054-0.241-0.057-0.318c-0.003-0.077,0.021-0.136,0.07-0.177c0.05-0.041,0.131-0.068,0.243-0.08
		s0.262-0.018,0.451-0.018c0.182,0,0.327,0.004,0.433,0.013s0.187,0.025,0.243,0.048c0.056,0.024,0.094,0.056,0.115,0.097
		c0.021,0.042,0.037,0.095,0.048,0.159l2.571,9.576h0.009l2.438-9.558c0.018-0.064,0.04-0.119,0.066-0.163
		c0.026-0.044,0.069-0.078,0.128-0.102c0.059-0.024,0.143-0.042,0.252-0.053s0.252-0.018,0.428-0.018
		c0.165,0,0.296,0.006,0.394,0.018s0.175,0.029,0.234,0.053c0.059,0.023,0.102,0.057,0.128,0.102
		c0.027,0.044,0.049,0.099,0.066,0.163l2.624,9.558h0.018l2.518-9.567c0.018-0.059,0.035-0.11,0.053-0.154
		c0.018-0.044,0.054-0.078,0.11-0.102c0.056-0.024,0.136-0.042,0.239-0.053s0.24-0.018,0.411-0.018c0.177,0,0.316,0.007,0.419,0.022
		s0.178,0.043,0.226,0.084c0.047,0.041,0.069,0.1,0.066,0.177s-0.019,0.183-0.048,0.318L29.577,110.405z"/>
	<path d="M36.185,99.884c0,0.342-0.065,0.574-0.194,0.698c-0.13,0.124-0.368,0.185-0.716,0.185c-0.341,0-0.576-0.06-0.702-0.181
		s-0.19-0.349-0.19-0.685c0-0.342,0.065-0.574,0.194-0.698c0.129-0.124,0.368-0.186,0.716-0.186c0.341,0,0.575,0.061,0.702,0.181
		C36.121,99.32,36.185,99.548,36.185,99.884z M36.017,110.52c0,0.047-0.012,0.087-0.035,0.119c-0.024,0.032-0.062,0.061-0.115,0.084
		c-0.053,0.023-0.127,0.041-0.221,0.053s-0.215,0.018-0.362,0.018c-0.142,0-0.259-0.006-0.354-0.018s-0.169-0.029-0.225-0.053
		c-0.056-0.023-0.095-0.052-0.115-0.084s-0.031-0.072-0.031-0.119v-7.951c0-0.041,0.01-0.08,0.031-0.115s0.059-0.065,0.115-0.088
		c0.056-0.023,0.131-0.041,0.225-0.053s0.212-0.018,0.354-0.018c0.147,0,0.268,0.006,0.362,0.018s0.168,0.029,0.221,0.053
		c0.053,0.023,0.091,0.053,0.115,0.088c0.023,0.035,0.035,0.074,0.035,0.115V110.52z"/>
	<path d="M45.557,110.52c0,0.047-0.012,0.087-0.035,0.119c-0.024,0.032-0.062,0.061-0.115,0.084
		c-0.053,0.023-0.127,0.041-0.221,0.053s-0.212,0.018-0.353,0.018c-0.147,0-0.268-0.006-0.362-0.018s-0.168-0.029-0.221-0.053
		c-0.053-0.023-0.092-0.052-0.115-0.084s-0.035-0.072-0.035-0.119v-4.656c0-0.453-0.035-0.818-0.106-1.095s-0.174-0.515-0.309-0.715
		c-0.136-0.2-0.311-0.354-0.526-0.459s-0.464-0.159-0.747-0.159c-0.365,0-0.73,0.13-1.095,0.389
		c-0.365,0.259-0.748,0.639-1.148,1.14v5.557c0,0.047-0.012,0.087-0.035,0.119c-0.024,0.032-0.062,0.061-0.115,0.084
		c-0.053,0.023-0.127,0.041-0.221,0.053s-0.215,0.018-0.362,0.018c-0.142,0-0.259-0.006-0.354-0.018s-0.169-0.029-0.225-0.053
		c-0.056-0.023-0.095-0.052-0.115-0.084s-0.031-0.072-0.031-0.119v-7.951c0-0.047,0.009-0.087,0.026-0.119s0.053-0.062,0.106-0.088
		c0.053-0.026,0.121-0.044,0.204-0.053c0.082-0.009,0.191-0.013,0.327-0.013c0.129,0,0.237,0.004,0.322,0.013
		c0.085,0.009,0.152,0.027,0.199,0.053c0.047,0.026,0.081,0.056,0.102,0.088s0.031,0.072,0.031,0.119v1.051
		c0.447-0.5,0.894-0.867,1.338-1.1c0.444-0.233,0.894-0.349,1.347-0.349c0.53,0,0.976,0.09,1.338,0.27
		c0.362,0.18,0.655,0.419,0.879,0.72c0.224,0.3,0.384,0.652,0.481,1.056c0.097,0.404,0.146,0.888,0.146,1.453V110.52z"/>
	<path d="M55.027,110.52c0,0.047-0.01,0.088-0.031,0.124c-0.021,0.035-0.056,0.063-0.106,0.084c-0.05,0.021-0.116,0.037-0.199,0.048
		s-0.183,0.018-0.3,0.018c-0.124,0-0.227-0.006-0.309-0.018s-0.15-0.028-0.203-0.048c-0.053-0.021-0.091-0.049-0.115-0.084
		c-0.024-0.035-0.036-0.077-0.036-0.124v-1.051c-0.418,0.454-0.853,0.807-1.303,1.06c-0.451,0.253-0.944,0.38-1.48,0.38
		c-0.583,0-1.081-0.114-1.493-0.34c-0.413-0.227-0.747-0.533-1.003-0.918c-0.256-0.386-0.443-0.839-0.561-1.36
		c-0.118-0.521-0.177-1.07-0.177-1.648c0-0.683,0.073-1.3,0.221-1.851c0.147-0.55,0.365-1.02,0.654-1.409s0.646-0.688,1.073-0.897
		c0.427-0.209,0.92-0.313,1.479-0.313c0.465,0,0.891,0.102,1.277,0.305c0.385,0.203,0.767,0.502,1.144,0.897v-4.62
		c0-0.042,0.01-0.081,0.031-0.12c0.021-0.038,0.06-0.067,0.119-0.088c0.059-0.021,0.134-0.038,0.225-0.053s0.208-0.022,0.349-0.022
		c0.147,0,0.268,0.007,0.362,0.022s0.168,0.032,0.221,0.053c0.053,0.021,0.093,0.05,0.119,0.088c0.027,0.039,0.04,0.078,0.04,0.12
		V110.52z M53.561,104.928c-0.395-0.489-0.776-0.861-1.144-1.118c-0.368-0.256-0.752-0.384-1.153-0.384
		c-0.371,0-0.687,0.088-0.945,0.265c-0.259,0.177-0.47,0.409-0.632,0.698s-0.28,0.616-0.353,0.98
		c-0.074,0.365-0.111,0.736-0.111,1.113c0,0.4,0.031,0.792,0.093,1.175c0.062,0.383,0.169,0.723,0.323,1.021
		c0.153,0.297,0.356,0.536,0.609,0.715s0.571,0.27,0.954,0.27c0.194,0,0.381-0.026,0.561-0.08s0.363-0.141,0.552-0.265
		c0.188-0.124,0.385-0.284,0.592-0.481c0.206-0.197,0.424-0.44,0.653-0.729V104.928z"/>
</g>
<g>
	<path d="M227.094,41.683v4.214c0,0.047-0.012,0.088-0.036,0.124c-0.023,0.035-0.064,0.063-0.123,0.084
		c-0.059,0.021-0.138,0.038-0.237,0.053s-0.22,0.022-0.36,0.022c-0.146,0-0.268-0.008-0.365-0.022s-0.176-0.032-0.237-0.053
		s-0.104-0.049-0.127-0.084s-0.035-0.077-0.035-0.124v-4.214l-3.233-6.449c-0.065-0.135-0.104-0.241-0.119-0.318
		s0-0.136,0.044-0.177c0.044-0.041,0.124-0.068,0.239-0.08s0.27-0.018,0.464-0.018c0.177,0,0.319,0.006,0.428,0.018
		s0.196,0.028,0.261,0.048c0.064,0.021,0.113,0.05,0.146,0.088c0.033,0.039,0.063,0.087,0.093,0.146l1.582,3.286
		c0.146,0.312,0.293,0.639,0.439,0.98c0.146,0.342,0.296,0.686,0.448,1.034h0.018c0.134-0.336,0.273-0.67,0.417-1.002
		c0.144-0.333,0.289-0.661,0.436-0.985l1.59-3.304c0.018-0.059,0.042-0.109,0.075-0.15c0.032-0.041,0.077-0.072,0.133-0.093
		c0.056-0.021,0.134-0.037,0.234-0.048s0.227-0.018,0.38-0.018c0.212,0,0.378,0.007,0.499,0.022s0.205,0.043,0.252,0.084
		c0.047,0.041,0.063,0.1,0.048,0.177s-0.054,0.18-0.119,0.309L227.094,41.683z"/>
</g>
<g>
	<path d="M552.59,221.465c-0.729-0.096-1.311-0.402-1.746-0.918s-0.654-1.15-0.654-1.902c0-0.544,0.176-1.054,0.528-1.529
		c0.353-0.477,0.788-0.791,1.308-0.943v0.42c-0.239,0.105-0.407,0.191-0.504,0.259c-0.096,0.067-0.211,0.183-0.348,0.342
		c-0.16,0.2-0.296,0.438-0.408,0.714c-0.111,0.276-0.168,0.522-0.168,0.738c0,0.632,0.18,1.166,0.541,1.602
		c0.359,0.437,0.844,0.711,1.451,0.822v-2.748c0-0.544,0.023-0.934,0.072-1.17c0.048-0.236,0.148-0.449,0.3-0.643
		c0.248-0.319,0.592-0.479,1.032-0.479c0.576,0,1.074,0.278,1.494,0.834s0.63,1.21,0.63,1.962c0,0.608-0.196,1.156-0.589,1.645
		c-0.392,0.488-0.892,0.804-1.5,0.947c-0.168,0.041-0.31,0.066-0.426,0.078c-0.115,0.012-0.306,0.019-0.569,0.019v1.728h-0.444
		V221.465z M553.034,221.105h0.06c0.385,0,0.68-0.024,0.889-0.071c0.207-0.049,0.424-0.152,0.647-0.313
		c0.336-0.225,0.601-0.508,0.792-0.852c0.191-0.345,0.288-0.705,0.288-1.08c0-0.648-0.17-1.203-0.51-1.662
		c-0.341-0.461-0.75-0.69-1.229-0.69c-0.345,0-0.587,0.14-0.727,0.42c-0.141,0.28-0.21,0.765-0.21,1.452V221.105z"/>
</g>
<g>
	<g>
		<g>
			<line fill="none" stroke="#000000" stroke-width="2" stroke-miterlimit="10" x1="324.842" y1="88.78" x2="376.21" y2="81.013"/>
			<g>
				<polygon points="327.507,91.373 325.819,88.632 326.621,85.515 320.12,89.494 				"/>
			</g>
		</g>
	</g>
	<g>
		<g>
			<line fill="none" stroke="#000000" stroke-width="2" stroke-miterlimit="10" x1="376.44" y1="81.169" x2="368.798" y2="30.63"/>
			<g>
				<circle cx="376.428" cy="81.094" r="1.504"/>
			</g>
			<g>
				<polygon points="372.063,32.409 368.946,31.607 366.205,33.295 368.084,25.908 				"/>
			</g>
		</g>
	</g>
</g>
<g>
	<circle fill="#FFFFFF" stroke="#000000" stroke-miterlimit="10" cx="376.267" cy="80.116" r="6.138"/>
	
		<line fill="none" stroke="#000000" stroke-width="0.75" stroke-miterlimit="10" x1="371.547" y1="75.799" x2="381.101" y2="84.537"/>
	<line fill="none" stroke="#000000" stroke-width="0.75" stroke-miterlimit="10" x1="380.83" y1="76.032" x2="372.35" y2="85.303"/>
</g>
<g>
	<g>
		
			<line fill="none" stroke="#000000" stroke-width="0.75" stroke-miterlimit="10" x1="378.139" y1="80.938" x2="375.639" y2="80.938"/>
		
			<line fill="none" stroke="#000000" stroke-width="0.75" stroke-miterlimit="10" stroke-dasharray="4.8142,4.8142" x1="370.825" y1="80.938" x2="305.833" y2="80.938"/>
		
			<line fill="none" stroke="#000000" stroke-width="0.75" stroke-miterlimit="10" x1="303.426" y1="80.938" x2="300.926" y2="80.938"/>
	</g>
</g>
<line fill="none" stroke="#000000" stroke-miterlimit="10" stroke-dasharray="1" x1="394.615" y1="241.582" x2="394.615" y2="241.905"/>
<g>
	<g>
		<path fill="none" stroke="#000000" stroke-width="0.75" stroke-miterlimit="10" d="M311.208,91.787c0,0-2.206-4.51-2.528-6.158
			c-0.144-0.73-0.13-2.292-0.089-3.562"/>
		<g>
			<polygon points="310.766,86.076 310.129,86.3 308.66,82.13 307.105,86.269 306.473,86.032 308.68,80.157 			"/>
		</g>
	</g>
</g>
<g>
	<path d="M236.458,48.327c0.034,0.092,0.051,0.167,0.054,0.224c0.002,0.057-0.014,0.1-0.047,0.129
		c-0.034,0.03-0.089,0.048-0.167,0.057c-0.078,0.008-0.182,0.013-0.312,0.013c-0.131,0-0.235-0.003-0.313-0.01
		c-0.078-0.006-0.137-0.017-0.177-0.031c-0.04-0.015-0.069-0.035-0.088-0.06c-0.019-0.025-0.037-0.057-0.054-0.095l-0.7-1.988
		h-3.395l-0.668,1.962c-0.013,0.038-0.03,0.071-0.051,0.098s-0.051,0.05-0.091,0.069c-0.04,0.019-0.097,0.032-0.17,0.041
		c-0.074,0.008-0.169,0.013-0.287,0.013c-0.122,0-0.222-0.005-0.3-0.016c-0.078-0.01-0.132-0.03-0.164-0.06
		c-0.031-0.029-0.046-0.072-0.044-0.129c0.002-0.057,0.02-0.132,0.054-0.224l2.738-7.584c0.017-0.046,0.039-0.084,0.066-0.114
		c0.027-0.029,0.067-0.052,0.12-0.069c0.053-0.017,0.12-0.028,0.202-0.035s0.186-0.009,0.312-0.009c0.135,0,0.246,0.003,0.334,0.009
		s0.16,0.018,0.215,0.035c0.055,0.017,0.097,0.041,0.126,0.073c0.029,0.031,0.053,0.07,0.069,0.117L236.458,48.327z M232.943,41.632
		h-0.006l-1.407,4.07h2.839L232.943,41.632z"/>
	<path d="M242.111,41.013c0,0.08-0.004,0.149-0.013,0.208s-0.023,0.106-0.044,0.142s-0.045,0.062-0.073,0.079
		c-0.027,0.017-0.056,0.025-0.085,0.025h-2.991v2.776h2.827c0.029,0,0.058,0.007,0.085,0.022s0.052,0.039,0.073,0.073
		s0.036,0.079,0.044,0.135c0.008,0.057,0.013,0.129,0.013,0.218c0,0.08-0.004,0.148-0.013,0.205
		c-0.008,0.057-0.023,0.103-0.044,0.139c-0.021,0.036-0.045,0.063-0.073,0.082c-0.027,0.019-0.056,0.028-0.085,0.028h-2.827v3.401
		c0,0.029-0.008,0.058-0.025,0.085c-0.017,0.028-0.046,0.049-0.088,0.063s-0.097,0.027-0.164,0.038
		c-0.067,0.011-0.156,0.016-0.265,0.016c-0.101,0-0.187-0.005-0.259-0.016c-0.071-0.01-0.128-0.023-0.17-0.038
		s-0.071-0.036-0.088-0.063c-0.017-0.027-0.025-0.056-0.025-0.085v-7.559c0-0.164,0.043-0.279,0.129-0.344
		c0.086-0.065,0.177-0.098,0.274-0.098h3.672c0.029,0,0.058,0.008,0.085,0.025c0.027,0.017,0.052,0.044,0.073,0.082
		c0.021,0.038,0.036,0.087,0.044,0.148C242.106,40.863,242.111,40.934,242.111,41.013z"/>
</g>
<g>
	<path d="M265.194,118.808c0.077,0.13,0.122,0.233,0.137,0.31c0.015,0.076-0.004,0.137-0.058,0.181
		c-0.053,0.044-0.14,0.074-0.261,0.088c-0.121,0.015-0.281,0.022-0.481,0.022c-0.188,0-0.335-0.004-0.441-0.014
		c-0.106-0.009-0.19-0.025-0.252-0.048c-0.062-0.023-0.109-0.052-0.141-0.084c-0.033-0.032-0.061-0.075-0.084-0.128l-2.544-4.55
		l-2.571,4.55c-0.03,0.053-0.062,0.097-0.097,0.132c-0.036,0.035-0.084,0.063-0.146,0.084c-0.062,0.021-0.146,0.035-0.251,0.044
		c-0.106,0.009-0.248,0.014-0.424,0.014c-0.194,0-0.348-0.008-0.459-0.022c-0.112-0.015-0.19-0.044-0.234-0.088
		c-0.044-0.044-0.059-0.104-0.044-0.181c0.015-0.077,0.06-0.18,0.137-0.31l3.118-5.256l-2.977-5.08
		c-0.071-0.129-0.117-0.234-0.137-0.313s-0.007-0.142,0.04-0.186c0.047-0.044,0.129-0.072,0.247-0.084s0.28-0.018,0.486-0.018
		c0.177,0,0.321,0.004,0.433,0.013c0.112,0.009,0.2,0.023,0.265,0.044c0.065,0.021,0.112,0.05,0.142,0.088
		c0.029,0.039,0.062,0.081,0.097,0.128l2.456,4.275l2.438-4.275c0.029-0.047,0.059-0.09,0.088-0.128
		c0.029-0.038,0.072-0.067,0.128-0.088c0.056-0.021,0.134-0.035,0.234-0.044s0.236-0.013,0.407-0.013
		c0.182,0,0.331,0.007,0.446,0.022s0.197,0.043,0.248,0.084c0.05,0.041,0.069,0.102,0.057,0.181s-0.053,0.184-0.124,0.313
		l-2.968,5.044L265.194,118.808z"/>
</g>
<g>
	<path d="M273.502,121.555c0.034,0.092,0.051,0.167,0.054,0.224c0.002,0.057-0.014,0.1-0.047,0.129
		c-0.034,0.03-0.089,0.048-0.167,0.057c-0.078,0.008-0.182,0.013-0.312,0.013c-0.131,0-0.235-0.003-0.313-0.01
		c-0.078-0.006-0.137-0.017-0.177-0.031c-0.04-0.015-0.069-0.035-0.088-0.06c-0.019-0.025-0.037-0.057-0.054-0.095l-0.7-1.988
		h-3.395l-0.668,1.962c-0.013,0.038-0.03,0.071-0.051,0.098s-0.051,0.05-0.091,0.069c-0.04,0.019-0.097,0.032-0.17,0.041
		c-0.074,0.008-0.169,0.013-0.287,0.013c-0.122,0-0.222-0.005-0.3-0.016c-0.078-0.01-0.132-0.03-0.164-0.06
		c-0.031-0.029-0.046-0.072-0.044-0.129c0.002-0.057,0.02-0.132,0.054-0.224l2.738-7.584c0.017-0.046,0.039-0.084,0.066-0.114
		c0.027-0.029,0.067-0.052,0.12-0.069c0.053-0.017,0.12-0.028,0.202-0.035s0.186-0.009,0.312-0.009c0.135,0,0.246,0.003,0.334,0.009
		s0.16,0.018,0.215,0.035c0.055,0.017,0.097,0.041,0.126,0.073c0.029,0.031,0.053,0.07,0.069,0.117L273.502,121.555z
		 M269.988,114.86h-0.006l-1.407,4.07h2.839L269.988,114.86z"/>
	<path d="M279.156,114.242c0,0.08-0.004,0.149-0.013,0.208s-0.023,0.106-0.044,0.142s-0.045,0.062-0.073,0.079
		c-0.027,0.017-0.056,0.025-0.085,0.025h-2.991v2.776h2.827c0.029,0,0.058,0.007,0.085,0.022s0.052,0.039,0.073,0.073
		s0.036,0.079,0.044,0.135c0.008,0.057,0.013,0.129,0.013,0.218c0,0.08-0.004,0.148-0.013,0.205
		c-0.008,0.057-0.023,0.103-0.044,0.139c-0.021,0.036-0.045,0.063-0.073,0.082c-0.027,0.019-0.056,0.028-0.085,0.028h-2.827v3.401
		c0,0.029-0.008,0.058-0.025,0.085c-0.017,0.028-0.046,0.049-0.088,0.063s-0.097,0.027-0.164,0.038
		c-0.067,0.011-0.156,0.016-0.265,0.016c-0.101,0-0.187-0.005-0.259-0.016c-0.071-0.01-0.128-0.023-0.17-0.038
		s-0.071-0.036-0.088-0.063c-0.017-0.027-0.025-0.056-0.025-0.085v-7.559c0-0.164,0.043-0.279,0.129-0.344
		c0.086-0.065,0.177-0.098,0.274-0.098h3.672c0.029,0,0.058,0.008,0.085,0.025c0.027,0.017,0.052,0.044,0.073,0.082
		c0.021,0.038,0.036,0.087,0.044,0.148C279.151,114.091,279.156,114.162,279.156,114.242z"/>
</g>
<g>
	<path d="M333.235,110.698c0,0.084-0.004,0.154-0.013,0.211c-0.008,0.057-0.022,0.105-0.041,0.145s-0.042,0.069-0.069,0.088
		s-0.06,0.028-0.098,0.028h-3.609c-0.097,0-0.188-0.033-0.274-0.098c-0.086-0.065-0.129-0.18-0.129-0.344v-7.559
		c0-0.034,0.008-0.063,0.025-0.088c0.017-0.025,0.046-0.045,0.088-0.06c0.042-0.015,0.099-0.027,0.17-0.038
		c0.072-0.011,0.158-0.016,0.259-0.016c0.105,0,0.192,0.005,0.262,0.016c0.069,0.01,0.125,0.023,0.167,0.038
		c0.042,0.015,0.071,0.035,0.088,0.06c0.017,0.025,0.025,0.055,0.025,0.088v7.061h2.928c0.038,0,0.071,0.009,0.098,0.028
		c0.027,0.019,0.05,0.046,0.069,0.082s0.033,0.083,0.041,0.142C333.231,110.542,333.235,110.614,333.235,110.698z"/>
</g>
<g>
	<path d="M382.083,28.691c0,0.112-0.006,0.208-0.018,0.287c-0.012,0.08-0.031,0.146-0.058,0.199
		c-0.026,0.053-0.059,0.092-0.097,0.115s-0.084,0.035-0.137,0.035h-6.749c-0.153,0-0.277-0.047-0.371-0.141
		s-0.142-0.245-0.142-0.451v-0.327c0-0.076,0.004-0.147,0.014-0.212c0.009-0.064,0.028-0.134,0.057-0.208s0.071-0.156,0.124-0.247
		c0.053-0.091,0.118-0.199,0.194-0.323l5.274-8.25h-5.212c-0.059,0-0.109-0.012-0.15-0.036c-0.042-0.023-0.075-0.06-0.102-0.11
		c-0.026-0.05-0.045-0.115-0.057-0.194s-0.018-0.172-0.018-0.278c0-0.118,0.006-0.218,0.018-0.3s0.031-0.15,0.057-0.203
		c0.027-0.053,0.061-0.091,0.102-0.115c0.041-0.023,0.091-0.036,0.15-0.036h6.36c0.159,0,0.284,0.046,0.375,0.137
		s0.137,0.231,0.137,0.419v0.345c0,0.094-0.006,0.178-0.018,0.251c-0.012,0.074-0.032,0.149-0.062,0.226
		c-0.03,0.077-0.069,0.159-0.12,0.247c-0.05,0.088-0.116,0.191-0.199,0.309l-5.247,8.216h5.583c0.1,0,0.177,0.05,0.229,0.15
		C382.057,28.297,382.083,28.462,382.083,28.691z"/>
</g>
<g>
	<path d="M389.218,32.731c0,0.084-0.004,0.154-0.013,0.211c-0.008,0.057-0.022,0.105-0.041,0.145s-0.042,0.069-0.069,0.088
		s-0.06,0.028-0.098,0.028h-3.609c-0.097,0-0.188-0.033-0.274-0.098c-0.086-0.065-0.129-0.18-0.129-0.344v-7.559
		c0-0.034,0.008-0.063,0.025-0.088c0.017-0.025,0.046-0.045,0.088-0.06c0.042-0.015,0.099-0.027,0.17-0.038
		c0.072-0.011,0.158-0.016,0.259-0.016c0.105,0,0.192,0.005,0.262,0.016c0.069,0.01,0.125,0.023,0.167,0.038
		c0.042,0.015,0.071,0.035,0.088,0.06c0.017,0.025,0.025,0.055,0.025,0.088v7.061h2.928c0.038,0,0.071,0.009,0.098,0.028
		c0.027,0.019,0.05,0.046,0.069,0.082s0.033,0.083,0.041,0.142C389.213,32.576,389.218,32.647,389.218,32.731z"/>
</g>
<g>
	<g>
		
			<line fill="none" stroke="#000000" stroke-width="1.25" stroke-miterlimit="10" x1="29.766" y1="124.094" x2="74.263" y2="104.229"/>
		<g>
			<polygon points="73.538,107.341 73.487,104.575 71.462,102.691 78.011,102.556 			"/>
		</g>
	</g>
</g>
<g>
	<g>
		
			<line fill="none" stroke="#000000" stroke-width="0.75" stroke-miterlimit="10" stroke-dasharray="3,3" x1="214.99" y1="99.541" x2="260.987" y2="79.006"/>
		<g>
			<polygon points="260.552,80.874 260.521,79.214 259.306,78.083 263.235,78.002 			"/>
		</g>
	</g>
</g>
<g>
	<circle fill="#FFFFFF" stroke="#000000" stroke-miterlimit="10" cx="215.165" cy="99.5" r="6.138"/>
	<circle stroke="#000000" stroke-width="0.75" stroke-miterlimit="10" cx="215.165" cy="99.5" r="1.292"/>
</g>
<g>
	<g>
		
			<line fill="none" stroke="#000000" stroke-width="0.5" stroke-miterlimit="10" x1="369.631" y1="81.879" x2="367.161" y2="82.268"/>
		
			<line fill="none" stroke="#000000" stroke-width="0.5" stroke-miterlimit="10" stroke-dasharray="4.8411,4.8411" x1="362.379" y1="83.02" x2="297.818" y2="93.176"/>
		
			<line fill="none" stroke="#000000" stroke-width="0.5" stroke-miterlimit="10" x1="295.427" y1="93.552" x2="292.957" y2="93.941"/>
	</g>
</g>
<g>
	<path d="M395.712,86.071c0.077,0.13,0.122,0.233,0.137,0.31c0.015,0.076-0.004,0.137-0.058,0.181
		c-0.053,0.044-0.14,0.074-0.261,0.088c-0.121,0.015-0.281,0.022-0.481,0.022c-0.188,0-0.335-0.004-0.441-0.014
		c-0.106-0.009-0.19-0.025-0.252-0.048c-0.062-0.023-0.109-0.052-0.141-0.084c-0.033-0.032-0.061-0.075-0.084-0.128l-2.544-4.55
		l-2.571,4.55c-0.03,0.053-0.062,0.097-0.097,0.132c-0.036,0.035-0.084,0.063-0.146,0.084c-0.062,0.021-0.146,0.035-0.251,0.044
		c-0.106,0.009-0.248,0.014-0.424,0.014c-0.194,0-0.348-0.008-0.459-0.022c-0.112-0.015-0.19-0.044-0.234-0.088
		c-0.044-0.044-0.059-0.104-0.044-0.181c0.015-0.077,0.06-0.18,0.137-0.31l3.118-5.256l-2.977-5.08
		c-0.071-0.129-0.117-0.234-0.137-0.313s-0.007-0.142,0.04-0.186c0.047-0.044,0.129-0.072,0.247-0.084s0.28-0.018,0.486-0.018
		c0.177,0,0.321,0.004,0.433,0.013c0.112,0.009,0.2,0.023,0.265,0.044c0.065,0.021,0.112,0.05,0.142,0.088
		c0.029,0.039,0.062,0.081,0.097,0.128l2.456,4.275l2.438-4.275c0.029-0.047,0.059-0.09,0.088-0.128
		c0.029-0.038,0.072-0.067,0.128-0.088c0.056-0.021,0.134-0.035,0.234-0.044s0.236-0.013,0.407-0.013
		c0.182,0,0.331,0.007,0.446,0.022s0.197,0.043,0.248,0.084c0.05,0.041,0.069,0.102,0.057,0.181s-0.053,0.184-0.124,0.313
		l-2.968,5.044L395.712,86.071z"/>
</g>
<g>
	<path d="M402.14,90.022c0,0.084-0.004,0.154-0.013,0.211c-0.008,0.057-0.022,0.105-0.041,0.145s-0.042,0.069-0.069,0.088
		s-0.06,0.028-0.098,0.028h-3.609c-0.097,0-0.188-0.033-0.274-0.098c-0.086-0.065-0.129-0.18-0.129-0.344v-7.559
		c0-0.034,0.008-0.063,0.025-0.088c0.017-0.025,0.046-0.045,0.088-0.06c0.042-0.015,0.099-0.027,0.17-0.038
		c0.072-0.011,0.158-0.016,0.259-0.016c0.105,0,0.192,0.005,0.262,0.016c0.069,0.01,0.125,0.023,0.167,0.038
		c0.042,0.015,0.071,0.035,0.088,0.06c0.017,0.025,0.025,0.055,0.025,0.088v7.061h2.928c0.038,0,0.071,0.009,0.098,0.028
		c0.027,0.019,0.05,0.046,0.069,0.082s0.033,0.083,0.041,0.142C402.135,89.867,402.14,89.938,402.14,90.022z"/>
</g>
<g>
	<path d="M217.534,119.15c0,0.112-0.006,0.208-0.018,0.287c-0.012,0.08-0.031,0.146-0.058,0.199
		c-0.026,0.053-0.059,0.092-0.097,0.115s-0.084,0.035-0.137,0.035h-6.749c-0.153,0-0.277-0.047-0.371-0.141
		s-0.142-0.245-0.142-0.451v-0.327c0-0.076,0.004-0.147,0.014-0.212c0.009-0.064,0.028-0.134,0.057-0.208s0.071-0.156,0.124-0.247
		c0.053-0.091,0.118-0.199,0.194-0.323l5.274-8.25h-5.212c-0.059,0-0.109-0.012-0.15-0.036c-0.042-0.023-0.075-0.06-0.102-0.11
		c-0.026-0.05-0.045-0.115-0.057-0.194s-0.018-0.172-0.018-0.278c0-0.118,0.006-0.218,0.018-0.3s0.031-0.15,0.057-0.203
		c0.027-0.053,0.061-0.091,0.102-0.115c0.041-0.023,0.091-0.036,0.15-0.036h6.36c0.159,0,0.284,0.046,0.375,0.137
		s0.137,0.231,0.137,0.419v0.345c0,0.094-0.006,0.178-0.018,0.251c-0.012,0.074-0.032,0.149-0.062,0.226
		c-0.03,0.077-0.069,0.159-0.12,0.247c-0.05,0.088-0.116,0.191-0.199,0.309l-5.247,8.216h5.583c0.1,0,0.177,0.05,0.229,0.15
		C217.508,118.756,217.534,118.921,217.534,119.15z"/>
</g>
<g>
	<path d="M225.256,121.986c0.034,0.092,0.051,0.167,0.054,0.224c0.002,0.057-0.014,0.1-0.047,0.129
		c-0.034,0.03-0.089,0.048-0.167,0.057c-0.078,0.008-0.182,0.013-0.312,0.013c-0.131,0-0.235-0.003-0.313-0.01
		c-0.078-0.006-0.137-0.017-0.177-0.031c-0.04-0.015-0.069-0.035-0.088-0.06c-0.019-0.025-0.037-0.057-0.054-0.095l-0.7-1.988
		h-3.395l-0.668,1.962c-0.013,0.038-0.03,0.071-0.051,0.098s-0.051,0.05-0.091,0.069c-0.04,0.019-0.097,0.032-0.17,0.041
		c-0.074,0.008-0.169,0.013-0.287,0.013c-0.122,0-0.222-0.005-0.3-0.016c-0.078-0.01-0.132-0.03-0.164-0.06
		c-0.031-0.029-0.046-0.072-0.044-0.129c0.002-0.057,0.02-0.132,0.054-0.224l2.738-7.584c0.017-0.046,0.039-0.084,0.066-0.114
		c0.027-0.029,0.067-0.052,0.12-0.069c0.053-0.017,0.12-0.028,0.202-0.035s0.186-0.009,0.312-0.009c0.135,0,0.246,0.003,0.334,0.009
		s0.16,0.018,0.215,0.035c0.055,0.017,0.097,0.041,0.126,0.073c0.029,0.031,0.053,0.07,0.069,0.117L225.256,121.986z
		 M221.742,115.291h-0.006l-1.407,4.07h2.839L221.742,115.291z"/>
	<path d="M230.91,114.672c0,0.08-0.004,0.149-0.013,0.208s-0.023,0.106-0.044,0.142s-0.045,0.062-0.073,0.079
		c-0.027,0.017-0.056,0.025-0.085,0.025h-2.991v2.776h2.827c0.029,0,0.058,0.007,0.085,0.022s0.052,0.039,0.073,0.073
		s0.036,0.079,0.044,0.135c0.008,0.057,0.013,0.129,0.013,0.218c0,0.08-0.004,0.148-0.013,0.205
		c-0.008,0.057-0.023,0.103-0.044,0.139c-0.021,0.036-0.045,0.063-0.073,0.082c-0.027,0.019-0.056,0.028-0.085,0.028h-2.827v3.401
		c0,0.029-0.008,0.058-0.025,0.085c-0.017,0.028-0.046,0.049-0.088,0.063s-0.097,0.027-0.164,0.038
		c-0.067,0.011-0.156,0.016-0.265,0.016c-0.101,0-0.187-0.005-0.259-0.016c-0.071-0.01-0.128-0.023-0.17-0.038
		s-0.071-0.036-0.088-0.063c-0.017-0.027-0.025-0.056-0.025-0.085v-7.559c0-0.164,0.043-0.279,0.129-0.344
		c0.086-0.065,0.177-0.098,0.274-0.098h3.672c0.029,0,0.058,0.008,0.085,0.025c0.027,0.017,0.052,0.044,0.073,0.082
		c0.021,0.038,0.036,0.087,0.044,0.148C230.905,114.522,230.91,114.593,230.91,114.672z"/>
</g>
<g>
	<path d="M286.834,67.932c0,0.034-0.006,0.063-0.019,0.088s-0.04,0.046-0.082,0.063s-0.101,0.029-0.177,0.038
		c-0.076,0.008-0.177,0.013-0.303,0.013c-0.109,0-0.199-0.004-0.268-0.013c-0.069-0.009-0.125-0.022-0.167-0.041
		c-0.042-0.019-0.075-0.045-0.098-0.079s-0.043-0.076-0.06-0.126l-0.75-1.925c-0.088-0.219-0.18-0.419-0.275-0.603
		c-0.094-0.183-0.207-0.341-0.337-0.473s-0.284-0.235-0.46-0.309s-0.389-0.11-0.638-0.11h-0.726v3.477
		c0,0.034-0.009,0.063-0.028,0.088s-0.048,0.045-0.088,0.06s-0.095,0.027-0.164,0.038c-0.069,0.011-0.157,0.016-0.262,0.016
		s-0.192-0.005-0.262-0.016c-0.069-0.01-0.125-0.023-0.167-0.038s-0.071-0.035-0.088-0.06c-0.017-0.025-0.025-0.055-0.025-0.088
		v-7.559c0-0.164,0.043-0.279,0.129-0.344c0.086-0.065,0.177-0.098,0.274-0.098h1.735c0.206,0,0.378,0.005,0.515,0.016
		c0.137,0.011,0.26,0.022,0.369,0.035c0.315,0.055,0.594,0.141,0.836,0.259c0.242,0.118,0.445,0.268,0.609,0.448
		s0.287,0.388,0.369,0.622s0.123,0.491,0.123,0.773c0,0.273-0.037,0.519-0.11,0.735c-0.074,0.217-0.18,0.408-0.319,0.574
		c-0.139,0.167-0.305,0.311-0.499,0.432c-0.193,0.122-0.41,0.225-0.65,0.31c0.135,0.059,0.257,0.133,0.366,0.224
		c0.109,0.091,0.211,0.199,0.306,0.325c0.095,0.126,0.184,0.271,0.269,0.436c0.084,0.164,0.168,0.349,0.252,0.555l0.732,1.798
		c0.059,0.151,0.097,0.257,0.113,0.318C286.826,67.851,286.834,67.898,286.834,67.932z M285.2,62.196
		c0-0.319-0.072-0.59-0.214-0.811c-0.143-0.221-0.383-0.38-0.72-0.477c-0.105-0.029-0.224-0.05-0.356-0.063
		c-0.132-0.013-0.306-0.019-0.521-0.019h-0.915v2.751h1.06c0.286,0,0.533-0.035,0.742-0.104c0.208-0.069,0.382-0.166,0.521-0.29
		s0.241-0.271,0.306-0.438C285.167,62.577,285.2,62.394,285.2,62.196z"/>
	<path d="M295.12,63.919c0,0.661-0.078,1.256-0.233,1.786c-0.156,0.53-0.388,0.981-0.697,1.354
		c-0.309,0.373-0.697,0.659-1.164,0.858c-0.467,0.2-1.012,0.3-1.634,0.3c-0.614,0-1.146-0.092-1.593-0.275
		c-0.448-0.183-0.818-0.449-1.111-0.798s-0.51-0.783-0.653-1.3c-0.143-0.518-0.215-1.113-0.215-1.786
		c0-0.644,0.078-1.229,0.233-1.754c0.156-0.526,0.389-0.973,0.701-1.341c0.311-0.368,0.7-0.652,1.167-0.852
		c0.467-0.2,1.011-0.299,1.634-0.299c0.601,0,1.125,0.09,1.571,0.271c0.446,0.181,0.817,0.445,1.114,0.792s0.518,0.776,0.663,1.287
		C295.047,62.673,295.12,63.259,295.12,63.919z M293.971,63.995c0-0.462-0.041-0.893-0.123-1.29
		c-0.082-0.398-0.218-0.743-0.41-1.035c-0.191-0.292-0.446-0.521-0.766-0.685s-0.714-0.246-1.185-0.246
		c-0.471,0-0.866,0.088-1.185,0.265s-0.579,0.412-0.778,0.707c-0.199,0.294-0.342,0.639-0.428,1.032
		c-0.086,0.394-0.129,0.807-0.129,1.24c0,0.48,0.04,0.921,0.12,1.325c0.08,0.404,0.214,0.752,0.403,1.044
		c0.189,0.292,0.442,0.52,0.76,0.682c0.317,0.162,0.715,0.243,1.194,0.243c0.475,0,0.874-0.088,1.198-0.265
		c0.323-0.177,0.584-0.415,0.781-0.716s0.338-0.649,0.422-1.044S293.971,64.437,293.971,63.995z"/>
	<path d="M301.606,60.398c0,0.08-0.004,0.149-0.013,0.208s-0.022,0.106-0.041,0.142s-0.042,0.062-0.069,0.079
		c-0.027,0.017-0.058,0.025-0.091,0.025h-2.297v7.08c0,0.034-0.009,0.063-0.025,0.088s-0.046,0.045-0.088,0.06
		s-0.098,0.027-0.167,0.038c-0.069,0.011-0.157,0.016-0.262,0.016c-0.101,0-0.187-0.005-0.258-0.016
		c-0.072-0.01-0.128-0.023-0.17-0.038c-0.042-0.015-0.072-0.035-0.088-0.06c-0.017-0.025-0.025-0.055-0.025-0.088v-7.08h-2.297
		c-0.034,0-0.064-0.008-0.091-0.025c-0.027-0.017-0.05-0.043-0.066-0.079s-0.03-0.083-0.041-0.142
		c-0.01-0.059-0.016-0.128-0.016-0.208c0-0.08,0.005-0.15,0.016-0.211c0.011-0.061,0.024-0.11,0.041-0.148
		c0.017-0.038,0.039-0.065,0.066-0.082c0.027-0.017,0.058-0.025,0.091-0.025h5.679c0.033,0,0.064,0.008,0.091,0.025
		c0.027,0.017,0.05,0.044,0.069,0.082c0.019,0.038,0.033,0.087,0.041,0.148C301.602,60.248,301.606,60.318,301.606,60.398z"/>
	<path d="M307.077,60.398c0,0.08-0.004,0.149-0.013,0.208s-0.023,0.106-0.044,0.142s-0.045,0.062-0.073,0.079
		c-0.027,0.017-0.056,0.025-0.085,0.025h-2.991v2.776h2.827c0.029,0,0.058,0.007,0.085,0.022s0.052,0.039,0.073,0.073
		s0.036,0.079,0.044,0.135c0.008,0.057,0.013,0.129,0.013,0.218c0,0.08-0.004,0.148-0.013,0.205
		c-0.008,0.057-0.023,0.103-0.044,0.139c-0.021,0.036-0.045,0.063-0.073,0.082c-0.027,0.019-0.056,0.028-0.085,0.028h-2.827v3.401
		c0,0.029-0.008,0.058-0.025,0.085c-0.017,0.028-0.046,0.049-0.088,0.063s-0.097,0.027-0.164,0.038
		c-0.067,0.011-0.156,0.016-0.265,0.016c-0.101,0-0.187-0.005-0.259-0.016c-0.071-0.01-0.128-0.023-0.17-0.038
		s-0.071-0.036-0.088-0.063c-0.017-0.027-0.025-0.056-0.025-0.085v-7.559c0-0.164,0.043-0.279,0.129-0.344
		c0.086-0.065,0.177-0.098,0.274-0.098h3.672c0.029,0,0.058,0.008,0.085,0.025c0.027,0.017,0.052,0.044,0.073,0.082
		c0.021,0.038,0.036,0.087,0.044,0.148C307.072,60.248,307.077,60.318,307.077,60.398z"/>
	<path d="M314.112,67.711c0.034,0.092,0.051,0.167,0.054,0.224c0.002,0.057-0.014,0.1-0.047,0.129
		c-0.034,0.03-0.089,0.048-0.167,0.057c-0.078,0.008-0.182,0.013-0.312,0.013c-0.131,0-0.235-0.003-0.313-0.01
		c-0.078-0.006-0.137-0.017-0.177-0.031c-0.04-0.015-0.069-0.035-0.088-0.06c-0.019-0.025-0.037-0.057-0.054-0.095l-0.7-1.988
		h-3.395l-0.668,1.962c-0.013,0.038-0.03,0.071-0.051,0.098s-0.051,0.05-0.091,0.069c-0.04,0.019-0.097,0.032-0.17,0.041
		c-0.074,0.008-0.169,0.013-0.287,0.013c-0.122,0-0.222-0.005-0.3-0.016c-0.078-0.01-0.132-0.03-0.164-0.06
		c-0.031-0.029-0.046-0.072-0.044-0.129c0.002-0.057,0.02-0.132,0.054-0.224l2.738-7.584c0.017-0.046,0.039-0.084,0.066-0.114
		c0.027-0.029,0.067-0.052,0.12-0.069c0.053-0.017,0.12-0.028,0.202-0.035s0.186-0.009,0.312-0.009c0.135,0,0.246,0.003,0.334,0.009
		s0.16,0.018,0.215,0.035c0.055,0.017,0.097,0.041,0.126,0.073c0.029,0.031,0.053,0.07,0.069,0.117L314.112,67.711z M310.598,61.017
		h-0.006l-1.407,4.07h2.839L310.598,61.017z"/>
	<path d="M320.674,67.705c0.055,0.092,0.087,0.166,0.098,0.221c0.011,0.055-0.003,0.098-0.041,0.129
		c-0.038,0.032-0.1,0.053-0.186,0.063c-0.086,0.011-0.201,0.016-0.344,0.016c-0.135,0-0.24-0.003-0.315-0.01
		s-0.136-0.018-0.18-0.035c-0.044-0.017-0.078-0.037-0.101-0.06c-0.023-0.023-0.043-0.054-0.06-0.091l-1.817-3.25l-1.836,3.25
		c-0.021,0.038-0.044,0.069-0.07,0.095c-0.025,0.025-0.06,0.045-0.104,0.06c-0.044,0.015-0.104,0.025-0.18,0.031
		s-0.177,0.01-0.303,0.01c-0.139,0-0.249-0.005-0.328-0.016c-0.08-0.01-0.136-0.031-0.167-0.063
		c-0.031-0.032-0.042-0.075-0.031-0.129c0.01-0.055,0.043-0.128,0.098-0.221l2.228-3.754l-2.126-3.628
		c-0.051-0.092-0.083-0.167-0.098-0.224c-0.015-0.057-0.005-0.101,0.029-0.133c0.033-0.031,0.092-0.051,0.176-0.06
		c0.084-0.008,0.2-0.012,0.347-0.012c0.126,0,0.229,0.003,0.309,0.009c0.08,0.006,0.143,0.017,0.189,0.032
		c0.046,0.015,0.08,0.036,0.101,0.063s0.044,0.058,0.069,0.091l1.754,3.054l1.742-3.054c0.021-0.034,0.042-0.064,0.063-0.091
		s0.052-0.048,0.092-0.063c0.04-0.015,0.095-0.025,0.167-0.032c0.071-0.006,0.168-0.009,0.291-0.009c0.13,0,0.236,0.005,0.318,0.016
		c0.082,0.01,0.141,0.03,0.177,0.06c0.036,0.029,0.049,0.072,0.041,0.129c-0.008,0.057-0.038,0.131-0.088,0.224l-2.12,3.603
		L320.674,67.705z"/>
</g>
<g>
	<g>
		<path fill="none" stroke="#000000" stroke-width="0.5" stroke-miterlimit="10" d="M290.647,68.957c0,0,0.139,3.22,0,5.6
			c-0.154,2.636,2.349,8.567,4.308,10.337c1.819,1.644,7.2,2.053,8.67,2.136"/>
		<g>
			<polygon points="302.368,88.374 302.147,88.102 303.487,87.014 302.305,85.757 302.56,85.518 304,87.049 			"/>
		</g>
	</g>
</g>
<g>
	<path d="M154.384,87.521c-0.433,0.916-0.755,1.856-0.967,2.82s-0.318,1.934-0.318,2.909c0,0.98,0.108,1.951,0.325,2.912
		s0.532,1.905,0.947,2.83c0.023,0.055,0.035,0.102,0.038,0.14s-0.013,0.071-0.044,0.096s-0.081,0.043-0.147,0.055
		s-0.156,0.017-0.27,0.017c-0.082,0-0.153-0.002-0.212-0.007s-0.11-0.014-0.154-0.027s-0.079-0.03-0.106-0.048
		s-0.048-0.039-0.062-0.062c-0.246-0.465-0.462-0.936-0.649-1.412s-0.344-0.96-0.472-1.453s-0.223-0.99-0.287-1.494
		s-0.096-1.013-0.096-1.528s0.035-1.023,0.106-1.524s0.171-0.999,0.301-1.494s0.288-0.981,0.475-1.459s0.396-0.953,0.629-1.422
		c0.004-0.018,0.017-0.034,0.038-0.048s0.049-0.027,0.085-0.041s0.086-0.024,0.15-0.031s0.146-0.01,0.246-0.01
		c0.105,0,0.189,0.007,0.253,0.021s0.114,0.032,0.15,0.055s0.057,0.052,0.062,0.089S154.402,87.48,154.384,87.521z"/>
	<path d="M159.237,93.502v3.261c0,0.037-0.009,0.068-0.027,0.096s-0.05,0.049-0.095,0.065c-0.045,0.016-0.106,0.03-0.183,0.041
		c-0.077,0.011-0.17,0.017-0.279,0.017c-0.113,0-0.208-0.006-0.282-0.017s-0.136-0.025-0.184-0.041
		c-0.047-0.016-0.08-0.038-0.098-0.065c-0.019-0.027-0.027-0.059-0.027-0.096v-3.261l-2.502-4.99
		c-0.05-0.105-0.081-0.187-0.092-0.246s0-0.105,0.034-0.137s0.096-0.052,0.185-0.062s0.208-0.014,0.359-0.014
		c0.137,0,0.247,0.004,0.332,0.014s0.151,0.021,0.202,0.038s0.088,0.039,0.113,0.068s0.049,0.067,0.072,0.113l1.224,2.543
		c0.114,0.242,0.227,0.495,0.34,0.759s0.229,0.531,0.347,0.8h0.014c0.104-0.26,0.211-0.519,0.323-0.776
		c0.111-0.257,0.223-0.512,0.337-0.762l1.23-2.557c0.014-0.045,0.033-0.084,0.058-0.116s0.059-0.056,0.103-0.072
		s0.104-0.028,0.181-0.038s0.175-0.014,0.294-0.014c0.164,0,0.293,0.006,0.386,0.017s0.158,0.033,0.195,0.065
		s0.049,0.078,0.038,0.137s-0.042,0.139-0.092,0.239L159.237,93.502z"/>
	<path d="M167.892,88.601c0,0.086-0.004,0.162-0.014,0.226s-0.025,0.115-0.048,0.154s-0.049,0.067-0.079,0.085
		s-0.061,0.027-0.092,0.027h-3.24v3.008h3.063c0.032,0,0.063,0.008,0.092,0.024s0.056,0.042,0.079,0.079s0.039,0.085,0.048,0.147
		s0.014,0.14,0.014,0.236c0,0.086-0.004,0.161-0.014,0.222s-0.025,0.112-0.048,0.15s-0.049,0.068-0.079,0.089
		s-0.061,0.031-0.092,0.031h-3.063v3.685c0,0.032-0.009,0.063-0.027,0.092s-0.05,0.052-0.096,0.068s-0.105,0.03-0.178,0.041
		s-0.168,0.017-0.287,0.017c-0.109,0-0.203-0.006-0.28-0.017s-0.139-0.025-0.185-0.041s-0.078-0.039-0.096-0.068
		s-0.027-0.061-0.027-0.092v-8.189c0-0.178,0.047-0.302,0.14-0.373s0.192-0.106,0.297-0.106h3.979c0.032,0,0.063,0.009,0.092,0.027
		s0.056,0.048,0.079,0.089s0.039,0.095,0.048,0.161S167.892,88.515,167.892,88.601z"/>
	<path d="M175.459,95.69c0,0.073-0.002,0.137-0.007,0.191s-0.013,0.103-0.024,0.144s-0.026,0.078-0.044,0.109
		s-0.05,0.071-0.096,0.116s-0.141,0.115-0.287,0.208s-0.327,0.185-0.543,0.273s-0.465,0.164-0.745,0.226s-0.587,0.092-0.919,0.092
		c-0.574,0-1.093-0.096-1.555-0.287s-0.857-0.474-1.183-0.848s-0.577-0.835-0.752-1.384s-0.263-1.182-0.263-1.897
		c0-0.734,0.095-1.388,0.284-1.962s0.455-1.061,0.796-1.459s0.751-0.703,1.227-0.913s1.004-0.314,1.583-0.314
		c0.255,0,0.503,0.024,0.745,0.072s0.465,0.108,0.67,0.181s0.387,0.157,0.547,0.253s0.27,0.174,0.332,0.236s0.102,0.108,0.12,0.14
		s0.033,0.069,0.044,0.113s0.021,0.095,0.027,0.154s0.01,0.13,0.01,0.212c0,0.091-0.004,0.168-0.014,0.232s-0.023,0.117-0.042,0.161
		c-0.018,0.043-0.04,0.075-0.065,0.096c-0.025,0.021-0.056,0.031-0.093,0.031c-0.064,0-0.154-0.044-0.268-0.133
		c-0.115-0.089-0.263-0.187-0.443-0.294c-0.181-0.107-0.401-0.205-0.66-0.294c-0.259-0.089-0.569-0.133-0.931-0.133
		c-0.395,0-0.753,0.079-1.076,0.236c-0.323,0.157-0.599,0.389-0.828,0.694s-0.407,0.678-0.533,1.118s-0.189,0.942-0.189,1.507
		c0,0.561,0.061,1.056,0.182,1.487c0.121,0.431,0.295,0.791,0.522,1.08c0.227,0.29,0.505,0.508,0.835,0.656
		c0.33,0.148,0.703,0.222,1.12,0.222c0.353,0,0.661-0.043,0.924-0.13c0.263-0.086,0.488-0.184,0.673-0.291s0.338-0.204,0.457-0.291
		s0.213-0.13,0.282-0.13c0.032,0,0.06,0.007,0.083,0.021s0.041,0.04,0.055,0.079c0.014,0.039,0.024,0.092,0.031,0.161
		S175.459,95.585,175.459,95.69z"/>
	<path d="M178.316,95.963c0,0.141-0.007,0.271-0.021,0.39s-0.037,0.23-0.068,0.335s-0.074,0.208-0.126,0.311
		s-0.117,0.211-0.195,0.325l-0.937,1.408c-0.023,0.032-0.049,0.059-0.079,0.082s-0.066,0.043-0.109,0.062s-0.093,0.031-0.15,0.038
		s-0.129,0.01-0.215,0.01c-0.078,0-0.143-0.003-0.195-0.01s-0.09-0.018-0.113-0.034s-0.035-0.038-0.038-0.065
		s0.006-0.059,0.024-0.096l0.909-1.88v-0.875c0-0.123,0.013-0.221,0.038-0.294s0.065-0.127,0.12-0.164s0.123-0.062,0.205-0.075
		s0.182-0.021,0.301-0.021c0.114,0,0.212,0.007,0.294,0.021s0.149,0.039,0.202,0.075s0.091,0.091,0.116,0.164
		S178.316,95.84,178.316,95.963z"/>
	<path d="M185.535,96.449c0,0.086-0.004,0.161-0.014,0.222s-0.024,0.113-0.044,0.154s-0.045,0.071-0.075,0.089
		s-0.065,0.027-0.106,0.027h-5.223c-0.119,0-0.214-0.037-0.287-0.109s-0.109-0.189-0.109-0.349V96.23
		c0-0.059,0.003-0.114,0.01-0.164s0.021-0.104,0.044-0.161s0.055-0.121,0.096-0.191s0.091-0.154,0.15-0.25l4.081-6.385h-4.033
		c-0.045,0-0.084-0.009-0.116-0.027s-0.058-0.047-0.079-0.085s-0.035-0.089-0.044-0.15s-0.014-0.133-0.014-0.215
		c0-0.091,0.004-0.168,0.014-0.232s0.024-0.116,0.044-0.157s0.047-0.071,0.079-0.089s0.071-0.027,0.116-0.027h4.922
		c0.123,0,0.22,0.035,0.291,0.106s0.106,0.179,0.106,0.325v0.267c0,0.073-0.004,0.138-0.014,0.195s-0.025,0.115-0.048,0.174
		s-0.054,0.123-0.092,0.191s-0.09,0.148-0.154,0.239l-4.061,6.357h4.32c0.078,0,0.137,0.039,0.178,0.116
		S185.535,96.271,185.535,96.449z"/>
	<path d="M191.653,88.601c0,0.086-0.004,0.162-0.014,0.226s-0.025,0.115-0.048,0.154s-0.049,0.067-0.079,0.085
		s-0.061,0.027-0.092,0.027h-3.24v3.008h3.063c0.032,0,0.063,0.008,0.092,0.024s0.056,0.042,0.079,0.079s0.039,0.085,0.048,0.147
		s0.014,0.14,0.014,0.236c0,0.086-0.004,0.161-0.014,0.222s-0.025,0.112-0.048,0.15s-0.049,0.068-0.079,0.089
		s-0.061,0.031-0.092,0.031h-3.063v3.685c0,0.032-0.009,0.063-0.027,0.092s-0.05,0.052-0.096,0.068s-0.105,0.03-0.178,0.041
		s-0.168,0.017-0.287,0.017c-0.109,0-0.203-0.006-0.28-0.017s-0.139-0.025-0.185-0.041s-0.078-0.039-0.096-0.068
		s-0.027-0.061-0.027-0.092v-8.189c0-0.178,0.047-0.302,0.14-0.373s0.192-0.106,0.297-0.106h3.979c0.032,0,0.063,0.009,0.092,0.027
		s0.056,0.048,0.079,0.089s0.039,0.095,0.048,0.161S191.653,88.515,191.653,88.601z"/>
	<path d="M199.221,95.69c0,0.073-0.002,0.137-0.007,0.191s-0.013,0.103-0.024,0.144s-0.026,0.078-0.044,0.109
		s-0.05,0.071-0.096,0.116s-0.141,0.115-0.287,0.208s-0.327,0.185-0.543,0.273s-0.465,0.164-0.745,0.226s-0.587,0.092-0.919,0.092
		c-0.574,0-1.093-0.096-1.555-0.287s-0.857-0.474-1.183-0.848s-0.577-0.835-0.752-1.384s-0.263-1.182-0.263-1.897
		c0-0.734,0.095-1.388,0.284-1.962s0.455-1.061,0.796-1.459s0.751-0.703,1.227-0.913s1.004-0.314,1.583-0.314
		c0.255,0,0.503,0.024,0.745,0.072s0.465,0.108,0.67,0.181s0.387,0.157,0.547,0.253s0.27,0.174,0.332,0.236s0.102,0.108,0.12,0.14
		s0.033,0.069,0.044,0.113s0.021,0.095,0.027,0.154s0.01,0.13,0.01,0.212c0,0.091-0.004,0.168-0.014,0.232s-0.023,0.117-0.042,0.161
		c-0.018,0.043-0.04,0.075-0.065,0.096c-0.025,0.021-0.056,0.031-0.093,0.031c-0.064,0-0.154-0.044-0.268-0.133
		c-0.115-0.089-0.263-0.187-0.443-0.294c-0.181-0.107-0.401-0.205-0.66-0.294c-0.259-0.089-0.569-0.133-0.931-0.133
		c-0.395,0-0.753,0.079-1.076,0.236c-0.323,0.157-0.599,0.389-0.828,0.694s-0.407,0.678-0.533,1.118s-0.189,0.942-0.189,1.507
		c0,0.561,0.061,1.056,0.182,1.487c0.121,0.431,0.295,0.791,0.522,1.08c0.227,0.29,0.505,0.508,0.835,0.656
		c0.33,0.148,0.703,0.222,1.12,0.222c0.353,0,0.661-0.043,0.924-0.13c0.263-0.086,0.488-0.184,0.673-0.291s0.338-0.204,0.457-0.291
		s0.213-0.13,0.282-0.13c0.032,0,0.06,0.007,0.083,0.021s0.041,0.04,0.055,0.079c0.014,0.039,0.024,0.092,0.031,0.161
		S199.221,95.585,199.221,95.69z"/>
	<path d="M202.933,93.27c0,0.515-0.032,1.024-0.096,1.528s-0.16,1.001-0.287,1.494s-0.284,0.977-0.468,1.453s-0.4,0.947-0.646,1.412
		c-0.014,0.023-0.034,0.043-0.062,0.062s-0.063,0.034-0.106,0.048s-0.095,0.023-0.154,0.027s-0.13,0.007-0.212,0.007
		c-0.119,0-0.211-0.006-0.277-0.017s-0.114-0.03-0.144-0.055s-0.043-0.057-0.041-0.096s0.015-0.085,0.038-0.14
		c0.419-0.92,0.736-1.863,0.95-2.827s0.321-1.936,0.321-2.916c0-0.975-0.107-1.945-0.321-2.909s-0.536-1.904-0.964-2.82
		c-0.018-0.041-0.025-0.08-0.021-0.116s0.025-0.066,0.062-0.089s0.086-0.041,0.15-0.055s0.148-0.021,0.253-0.021
		c0.096,0,0.175,0.003,0.239,0.01s0.115,0.017,0.154,0.031s0.067,0.027,0.085,0.041s0.032,0.03,0.041,0.048
		c0.469,0.934,0.837,1.895,1.104,2.881S202.933,92.245,202.933,93.27z"/>
</g>
<g>
	<path d="M353.289,188.587c-0.023,0.083-0.059,0.148-0.106,0.199c-0.047,0.05-0.112,0.088-0.194,0.115
		c-0.083,0.026-0.184,0.045-0.305,0.057s-0.27,0.018-0.446,0.018c-0.183,0-0.337-0.006-0.463-0.018
		c-0.127-0.012-0.231-0.031-0.314-0.057c-0.083-0.027-0.144-0.065-0.186-0.115c-0.041-0.05-0.073-0.116-0.097-0.199l-2.394-8.631
		h-0.018l-2.208,8.631c-0.018,0.083-0.047,0.148-0.088,0.199c-0.042,0.05-0.101,0.088-0.177,0.115
		c-0.077,0.026-0.175,0.045-0.296,0.057c-0.121,0.012-0.275,0.018-0.464,0.018c-0.194,0-0.356-0.006-0.486-0.018
		c-0.13-0.012-0.236-0.031-0.318-0.057c-0.083-0.027-0.146-0.065-0.19-0.115c-0.044-0.05-0.075-0.116-0.093-0.199l-3.021-10.557
		c-0.035-0.135-0.054-0.241-0.057-0.318c-0.003-0.077,0.021-0.136,0.07-0.177c0.05-0.041,0.131-0.068,0.243-0.08
		s0.262-0.018,0.451-0.018c0.182,0,0.327,0.004,0.433,0.013s0.187,0.025,0.243,0.048c0.056,0.024,0.094,0.056,0.115,0.097
		c0.021,0.042,0.037,0.095,0.048,0.159l2.571,9.576h0.009l2.438-9.558c0.018-0.064,0.04-0.119,0.066-0.163
		c0.026-0.044,0.069-0.078,0.128-0.102c0.059-0.024,0.143-0.042,0.252-0.053s0.252-0.018,0.428-0.018
		c0.165,0,0.296,0.006,0.394,0.018s0.175,0.029,0.234,0.053c0.059,0.023,0.102,0.057,0.128,0.102
		c0.027,0.044,0.049,0.099,0.066,0.163l2.624,9.558h0.018l2.518-9.567c0.018-0.059,0.035-0.11,0.053-0.154
		c0.018-0.044,0.054-0.078,0.11-0.102c0.056-0.024,0.136-0.042,0.239-0.053s0.24-0.018,0.411-0.018c0.177,0,0.316,0.007,0.419,0.022
		s0.178,0.043,0.226,0.084c0.047,0.041,0.069,0.1,0.066,0.177s-0.019,0.183-0.048,0.318L353.289,188.587z"/>
	<path d="M359.896,178.065c0,0.342-0.065,0.574-0.194,0.698c-0.13,0.124-0.368,0.185-0.716,0.185c-0.341,0-0.576-0.06-0.702-0.181
		s-0.19-0.349-0.19-0.685c0-0.342,0.065-0.574,0.194-0.698c0.129-0.124,0.368-0.186,0.716-0.186c0.341,0,0.575,0.061,0.702,0.181
		C359.833,177.502,359.896,177.73,359.896,178.065z M359.729,188.702c0,0.047-0.012,0.087-0.035,0.119
		c-0.024,0.032-0.062,0.061-0.115,0.084c-0.053,0.023-0.127,0.041-0.221,0.053s-0.215,0.018-0.362,0.018
		c-0.142,0-0.259-0.006-0.354-0.018s-0.169-0.029-0.225-0.053c-0.056-0.023-0.095-0.052-0.115-0.084s-0.031-0.072-0.031-0.119
		v-7.951c0-0.041,0.01-0.08,0.031-0.115s0.059-0.065,0.115-0.088c0.056-0.023,0.131-0.041,0.225-0.053s0.212-0.018,0.354-0.018
		c0.147,0,0.268,0.006,0.362,0.018s0.168,0.029,0.221,0.053c0.053,0.023,0.091,0.053,0.115,0.088
		c0.023,0.035,0.035,0.074,0.035,0.115V188.702z"/>
	<path d="M369.269,188.702c0,0.047-0.012,0.087-0.035,0.119c-0.024,0.032-0.062,0.061-0.115,0.084
		c-0.053,0.023-0.127,0.041-0.221,0.053s-0.212,0.018-0.353,0.018c-0.147,0-0.268-0.006-0.362-0.018s-0.168-0.029-0.221-0.053
		c-0.053-0.023-0.092-0.052-0.115-0.084s-0.035-0.072-0.035-0.119v-4.656c0-0.453-0.035-0.818-0.106-1.095s-0.174-0.515-0.309-0.715
		c-0.136-0.2-0.311-0.354-0.526-0.459s-0.464-0.159-0.747-0.159c-0.365,0-0.73,0.13-1.095,0.389
		c-0.365,0.259-0.748,0.639-1.148,1.14v5.557c0,0.047-0.012,0.087-0.035,0.119c-0.024,0.032-0.062,0.061-0.115,0.084
		c-0.053,0.023-0.127,0.041-0.221,0.053s-0.215,0.018-0.362,0.018c-0.142,0-0.259-0.006-0.354-0.018s-0.169-0.029-0.225-0.053
		c-0.056-0.023-0.095-0.052-0.115-0.084s-0.031-0.072-0.031-0.119v-7.951c0-0.047,0.009-0.087,0.026-0.119s0.053-0.062,0.106-0.088
		c0.053-0.026,0.121-0.044,0.204-0.053c0.082-0.009,0.191-0.013,0.327-0.013c0.129,0,0.237,0.004,0.322,0.013
		c0.085,0.009,0.152,0.027,0.199,0.053c0.047,0.026,0.081,0.056,0.102,0.088s0.031,0.072,0.031,0.119v1.051
		c0.447-0.5,0.894-0.867,1.338-1.1c0.444-0.233,0.894-0.349,1.347-0.349c0.53,0,0.976,0.09,1.338,0.27
		c0.362,0.18,0.655,0.419,0.879,0.72c0.224,0.3,0.384,0.652,0.481,1.056c0.097,0.404,0.146,0.888,0.146,1.453V188.702z"/>
	<path d="M378.739,188.702c0,0.047-0.01,0.088-0.031,0.124c-0.021,0.035-0.056,0.063-0.106,0.084
		c-0.05,0.021-0.116,0.037-0.199,0.048s-0.183,0.018-0.3,0.018c-0.124,0-0.227-0.006-0.309-0.018s-0.15-0.028-0.203-0.048
		c-0.053-0.021-0.091-0.049-0.115-0.084c-0.024-0.035-0.036-0.077-0.036-0.124v-1.051c-0.418,0.454-0.853,0.807-1.303,1.06
		c-0.451,0.253-0.944,0.38-1.48,0.38c-0.583,0-1.081-0.114-1.493-0.34c-0.413-0.227-0.747-0.533-1.003-0.918
		c-0.256-0.386-0.443-0.839-0.561-1.36c-0.118-0.521-0.177-1.07-0.177-1.648c0-0.683,0.073-1.3,0.221-1.851
		c0.147-0.55,0.365-1.02,0.654-1.409s0.646-0.688,1.073-0.897c0.427-0.209,0.92-0.313,1.479-0.313c0.465,0,0.891,0.102,1.277,0.305
		c0.385,0.203,0.767,0.502,1.144,0.897v-4.62c0-0.042,0.01-0.081,0.031-0.12c0.021-0.038,0.06-0.067,0.119-0.088
		c0.059-0.021,0.134-0.038,0.225-0.053s0.208-0.022,0.349-0.022c0.147,0,0.268,0.007,0.362,0.022s0.168,0.032,0.221,0.053
		c0.053,0.021,0.093,0.05,0.119,0.088c0.027,0.039,0.04,0.078,0.04,0.12V188.702z M377.272,183.11
		c-0.395-0.489-0.776-0.861-1.144-1.118c-0.368-0.256-0.752-0.384-1.153-0.384c-0.371,0-0.687,0.088-0.945,0.265
		c-0.259,0.177-0.47,0.409-0.632,0.698s-0.28,0.616-0.353,0.98c-0.074,0.365-0.111,0.736-0.111,1.113c0,0.4,0.031,0.792,0.093,1.175
		c0.062,0.383,0.169,0.723,0.323,1.021c0.153,0.297,0.356,0.536,0.609,0.715s0.571,0.27,0.954,0.27c0.194,0,0.381-0.026,0.561-0.08
		s0.363-0.141,0.552-0.265c0.188-0.124,0.385-0.284,0.592-0.481c0.206-0.197,0.424-0.44,0.653-0.729V183.11z"/>
</g>
<g>
	<path d="M120.835-112.829v11.994h-0.804v-11.994H120.835z"/>
	<path d="M127.733-109.638c-0.06,0.611-0.156,2.603-0.156,4.162c0,0.684,0.168,0.959,0.576,0.971l-0.084,0.756
		c-0.084,0.036-0.24,0.048-0.36,0.048c-0.516,0-0.936-0.336-0.996-1.223h-0.036c-0.384,0.708-1.056,1.223-1.979,1.223
		c-1.379,0-2.375-1.151-2.375-2.914c0-1.895,1.248-3.143,2.591-3.143c0.839,0,1.475,0.432,1.787,1.14h0.048
		c0.024-0.444,0.06-0.744,0.108-1.02H127.733z M123.391-106.628c0,1.08,0.564,2.087,1.571,2.087c0.731,0,1.367-0.708,1.547-1.463
		c0.06-0.264,0.072-0.492,0.072-0.815c0-0.24,0-0.432-0.048-0.636c-0.144-0.768-0.72-1.475-1.487-1.475
		c-0.971,0-1.655,0.971-1.655,2.279V-106.628z"/>
	<path d="M134.345-109.638c-0.06,0.611-0.156,2.603-0.156,4.162c0,0.684,0.168,0.959,0.576,0.971l-0.084,0.756
		c-0.084,0.036-0.24,0.048-0.36,0.048c-0.516,0-0.936-0.336-0.996-1.223h-0.036c-0.384,0.708-1.056,1.223-1.979,1.223
		c-1.379,0-2.375-1.151-2.375-2.914c0-1.895,1.248-3.143,2.591-3.143c0.839,0,1.475,0.432,1.787,1.14h0.048
		c0.024-0.444,0.06-0.744,0.108-1.02H134.345z M130.003-106.628c0,1.08,0.564,2.087,1.571,2.087c0.731,0,1.367-0.708,1.547-1.463
		c0.06-0.264,0.072-0.492,0.072-0.815c0-0.24,0-0.432-0.048-0.636c-0.144-0.768-0.72-1.475-1.487-1.475
		c-0.972,0-1.655,0.971-1.655,2.279V-106.628z"/>
	<path d="M140.957-109.638c-0.06,0.611-0.156,2.603-0.156,4.162c0,0.684,0.168,0.959,0.576,0.971l-0.084,0.756
		c-0.084,0.036-0.24,0.048-0.36,0.048c-0.516,0-0.936-0.336-0.996-1.223h-0.036c-0.384,0.708-1.056,1.223-1.979,1.223
		c-1.379,0-2.375-1.151-2.375-2.914c0-1.895,1.248-3.143,2.591-3.143c0.839,0,1.475,0.432,1.787,1.14h0.048
		c0.024-0.444,0.06-0.744,0.108-1.02H140.957z M136.615-106.628c0,1.08,0.564,2.087,1.571,2.087c0.731,0,1.367-0.708,1.547-1.463
		c0.06-0.264,0.072-0.492,0.072-0.815c0-0.24,0-0.432-0.048-0.636c-0.144-0.768-0.72-1.475-1.487-1.475
		c-0.971,0-1.655,0.971-1.655,2.279V-106.628z"/>
	<path d="M147.568-109.638c-0.06,0.611-0.156,2.603-0.156,4.162c0,0.684,0.168,0.959,0.576,0.971l-0.084,0.756
		c-0.084,0.036-0.24,0.048-0.36,0.048c-0.516,0-0.936-0.336-0.996-1.223h-0.036c-0.384,0.708-1.056,1.223-1.979,1.223
		c-1.379,0-2.375-1.151-2.375-2.914c0-1.895,1.248-3.143,2.591-3.143c0.839,0,1.475,0.432,1.787,1.14h0.048
		c0.024-0.444,0.06-0.744,0.108-1.02H147.568z M143.227-106.628c0,1.08,0.564,2.087,1.571,2.087c0.731,0,1.367-0.708,1.547-1.463
		c0.06-0.264,0.072-0.492,0.072-0.815c0-0.24,0-0.432-0.048-0.636c-0.144-0.768-0.72-1.475-1.487-1.475
		c-0.972,0-1.655,0.971-1.655,2.279V-106.628z"/>
</g>
<g>
	<path d="M265.861,84.498c-0.078,0.791-0.202,3.364-0.202,5.379c0,0.884,0.217,1.24,0.744,1.256l-0.108,0.977
		c-0.109,0.047-0.31,0.062-0.465,0.062c-0.667,0-1.209-0.434-1.287-1.581h-0.046c-0.496,0.915-1.364,1.581-2.558,1.581
		c-1.783,0-3.07-1.488-3.07-3.767c0-2.449,1.612-4.062,3.349-4.062c1.085,0,1.907,0.558,2.31,1.473h0.062
		c0.031-0.574,0.078-0.961,0.14-1.318H265.861z M260.249,88.389c0,1.396,0.729,2.698,2.031,2.698c0.945,0,1.767-0.915,2-1.892
		c0.078-0.341,0.093-0.635,0.093-1.054c0-0.31,0-0.558-0.062-0.821c-0.186-0.992-0.93-1.907-1.922-1.907
		c-1.256,0-2.14,1.256-2.14,2.946V88.389z"/>
</g>
<g>
	<path d="M77.191,112.282c-0.078,0.791-0.202,3.364-0.202,5.379c0,0.884,0.217,1.24,0.744,1.256l-0.108,0.977
		c-0.108,0.047-0.31,0.062-0.465,0.062c-0.667,0-1.209-0.434-1.287-1.581h-0.046c-0.496,0.915-1.364,1.581-2.558,1.581
		c-1.783,0-3.069-1.488-3.069-3.767c0-2.449,1.612-4.062,3.349-4.062c1.085,0,1.907,0.558,2.31,1.473h0.062
		c0.031-0.574,0.078-0.961,0.14-1.318H77.191z M71.579,116.173c0,1.396,0.729,2.698,2.031,2.698c0.946,0,1.768-0.915,2-1.892
		c0.078-0.341,0.093-0.635,0.093-1.054c0-0.31,0-0.558-0.062-0.821c-0.186-0.992-0.93-1.907-1.922-1.907
		c-1.256,0-2.14,1.256-2.14,2.946V116.173z"/>
</g>
<g>
	<g>
		<path d="M326.125,202.491c-0.139-0.697-0.265-1.395-0.37-2.092c-0.046-0.348-0.123-0.696-0.143-1.045
			c0.019-0.349,0.011-0.697,0.013-1.046v-4.183v-8.366h1v8.366v4.183c0.002,0.349-0.006,0.697,0.013,1.046
			c-0.02,0.349-0.097,0.697-0.143,1.045C326.39,201.096,326.264,201.793,326.125,202.491z"/>
		<g>
			<polygon points="331.083,187.219 326.098,178.583 321.111,187.219 			"/>
		</g>
	</g>
</g>
<line fill="none" stroke="#000000" stroke-miterlimit="10" x1="337.5" y1="-162.333" x2="338.5" y2="-162.333"/>
<line fill="none" stroke="#000000" stroke-width="3" stroke-miterlimit="10" x1="326.125" y1="202.491" x2="326.125" y2="185.691"/>
<g>
	<path d="M324.46,104.143v4.214c0,0.047-0.012,0.088-0.036,0.124c-0.023,0.035-0.064,0.063-0.123,0.084
		c-0.059,0.021-0.138,0.038-0.237,0.053s-0.22,0.022-0.36,0.022c-0.146,0-0.268-0.008-0.365-0.022s-0.176-0.032-0.237-0.053
		s-0.104-0.049-0.127-0.084s-0.035-0.077-0.035-0.124v-4.214l-3.233-6.449c-0.065-0.135-0.104-0.241-0.119-0.318
		s0-0.136,0.044-0.177c0.044-0.041,0.124-0.068,0.239-0.08s0.27-0.018,0.464-0.018c0.177,0,0.319,0.006,0.428,0.018
		s0.196,0.028,0.261,0.048c0.064,0.021,0.113,0.05,0.146,0.088c0.033,0.039,0.063,0.087,0.093,0.146l1.582,3.286
		c0.146,0.312,0.293,0.639,0.439,0.98c0.146,0.342,0.296,0.686,0.448,1.034h0.018c0.134-0.336,0.273-0.67,0.417-1.002
		c0.144-0.333,0.289-0.661,0.436-0.985l1.59-3.304c0.018-0.059,0.042-0.109,0.075-0.15c0.032-0.041,0.077-0.072,0.133-0.093
		c0.056-0.021,0.134-0.037,0.234-0.048s0.227-0.018,0.38-0.018c0.212,0,0.378,0.007,0.499,0.022s0.205,0.043,0.252,0.084
		c0.047,0.041,0.063,0.1,0.048,0.177s-0.054,0.18-0.119,0.309L324.46,104.143z"/>
</g>
</svg>
