<?xml version="1.0" encoding="UTF-8" standalone="no"?>
<!-- Created with Inkscape (http://www.inkscape.org/) -->

<svg
   xmlns:dc="http://purl.org/dc/elements/1.1/"
   xmlns:cc="http://creativecommons.org/ns#"
   xmlns:rdf="http://www.w3.org/1999/02/22-rdf-syntax-ns#"
   xmlns:svg="http://www.w3.org/2000/svg"
   xmlns="http://www.w3.org/2000/svg"
   xmlns:sodipodi="http://sodipodi.sourceforge.net/DTD/sodipodi-0.dtd"
   xmlns:inkscape="http://www.inkscape.org/namespaces/inkscape"
   width="248.03149"
   height="531.49603"
   id="svg2"
   version="1.1"
   inkscape:version="0.48.5 r10040"
   sodipodi:docname="shaft-system-1.svg">
  <defs
     id="defs4" />
  <sodipodi:namedview
     id="base"
     pagecolor="#ffffff"
     bordercolor="#666666"
     borderopacity="1.0"
     inkscape:pageopacity="0.0"
     inkscape:pageshadow="2"
     inkscape:zoom="2"
     inkscape:cx="324.96851"
     inkscape:cy="272.61217"
     inkscape:document-units="px"
     inkscape:current-layer="layer1"
     showgrid="false"
     inkscape:window-width="2560"
     inkscape:window-height="1365"
     inkscape:window-x="-9"
     inkscape:window-y="-9"
     inkscape:window-maximized="1"
     units="mm" />
  <metadata
     id="metadata7">
    <rdf:RDF>
      <cc:Work
         rdf:about="">
        <dc:format>image/svg+xml</dc:format>
        <dc:type
           rdf:resource="http://purl.org/dc/dcmitype/StillImage" />
        <dc:title />
      </cc:Work>
    </rdf:RDF>
  </metadata>
  <g
     inkscape:label="Layer 1"
     inkscape:groupmode="layer"
     id="layer1"
     transform="translate(0,-520.86614)">
    <path
       inkscape:connector-curvature="0"
       style="fill:#ffffff;fill-opacity:1;fill-rule:evenodd;stroke:none"
       d="m 163.33988,738.03125 0,307.32905 9.00385,0 0,-307.32905 -9.00385,0 z"
       id="path3088" />
    <path
       inkscape:connector-curvature="0"
       style="fill:none;stroke:#000000;stroke-width:2.05889916px;stroke-linecap:butt;stroke-linejoin:round;stroke-opacity:1;stroke-dasharray:none"
       d="m 163.33988,738.03125 9.00385,0 0,307.32905 -9.00385,0 z"
       id="path3090" />
    <path
       inkscape:connector-curvature="0"
       style="fill:#ffffff;fill-opacity:1;fill-rule:evenodd;stroke:none"
       d="m 152.7304,718.11831 55.54419,4.85531 -1.5749,17.94623 -55.5365,-4.85532 z"
       id="path3092" />
    <path
       inkscape:connector-curvature="0"
       style="fill:none;stroke:#000000;stroke-width:2.0512166px;stroke-linecap:butt;stroke-linejoin:round;stroke-opacity:1;stroke-dasharray:none"
       d="m 152.7304,718.11831 55.54419,4.85531 -1.5749,17.94623 -55.5365,-4.85532 z"
       id="path3094" />
    <path
       inkscape:connector-curvature="0"
       style="fill:#000000;fill-opacity:1;fill-rule:nonzero;stroke:#000000;stroke-width:0.00768247px;stroke-linecap:butt;stroke-linejoin:round;stroke-opacity:1;stroke-dasharray:none"
       d="m 94.766246,559.04531 4.571069,7.12164 4.378995,7.55185 4.17926,7.93599 3.96416,8.29705 3.74135,8.63509 3.51088,8.95775 3.27274,9.25735 3.04225,9.53394 2.79641,9.79514 2.5429,10.03329 2.28169,10.24072 2.02048,10.44045 1.74392,10.61716 1.47504,10.75545 1.1831,10.90141 0.89116,11.00895 -1.02177,0.0845 -0.89116,-10.97824 -1.1831,-10.87835 -1.45966,-10.7324 -1.74393,-10.58642 -2.02048,-10.40974 -2.26632,-10.20999 -2.54291,-10.00256 -2.78103,-9.76441 -3.0269,-9.5032 -3.27272,-9.22664 -3.49552,-8.92701 -3.726,-8.60436 -3.94111,-8.25095 -4.15621,-7.90526 -4.363639,-7.51344 -4.571059,-7.12163 z m -3.019205,1.94366 c -0.91421,-1.42893 -0.507046,-3.33419 0.921899,-4.2484 1.428935,-0.91421 3.334188,-0.50704 4.248397,0.9219 0.91421,1.42894 0.499356,3.33419 -0.921888,4.2484 -1.428946,0.91421 -3.334188,0.49936 -4.248408,-0.9219 z m 51.165189,148.93215 c 0.13828,1.69014 -1.12164,3.17286 -2.81179,3.31114 -1.69013,0.13829 -3.17285,-1.12164 -3.31114,-2.81177 -0.13827,-1.69015 1.12164,-3.17286 2.81179,-3.31115 1.69014,-0.13828 3.17285,1.12164 3.31114,2.81178 z"
       id="path3096" />
    <path
       inkscape:connector-curvature="0"
       style="fill:#000000;fill-opacity:1;fill-rule:nonzero;stroke:#000000;stroke-width:0.00768247px;stroke-linecap:butt;stroke-linejoin:round;stroke-opacity:1;stroke-dasharray:none"
       d="m 140.35397,710.12086 1.28297,15.65686 -1.02177,0.0845 -1.27529,-15.65685 z m -3.57235,0.29194 c -0.13828,-1.69014 1.12165,-3.17285 2.81947,-3.31114 1.69014,-0.13828 3.17285,1.12164 3.31114,2.81178 0.13828,1.69782 -1.12164,3.18054 -2.81179,3.31882 -1.69782,0.13829 -3.18053,-1.12164 -3.31882,-2.81946 z m 7.40589,15.15749 c 0.13829,1.69783 -1.12163,3.18054 -2.81178,3.31883 -1.69013,0.13829 -3.18053,-1.12164 -3.31113,-2.81946 -0.13829,-1.69015 1.12163,-3.17286 2.81177,-3.31114 1.69015,-0.13829 3.17287,1.12163 3.31114,2.81177 z"
       id="path3098" />
    <path
       inkscape:connector-curvature="0"
       style="fill:#000000;fill-opacity:1;fill-rule:nonzero;stroke:#000000;stroke-width:0.01536492px;stroke-linecap:butt;stroke-linejoin:round;stroke-opacity:1;stroke-dasharray:none"
       d="m 78.279693,892.7406 5.423814,-6.71447 5.254798,-7.19078 5.085795,-7.65173 4.870671,-8.06658 4.686309,-8.46607 4.47119,-8.85019 4.24072,-9.20358 4.01025,-9.52626 3.77977,-9.83355 3.51856,-10.12548 3.27273,-10.38669 3.01153,-10.61715 2.71958,-10.83227 2.44302,-11.032 2.13574,-11.2164 1.84379,-11.35467 -0.99873,-0.15365 -1.84379,11.32393 -2.15109,11.1703 -2.42765,11.00129 -2.7196,10.8169 -2.99615,10.58643 -3.25737,10.35595 -3.51856,10.09476 -3.74905,9.81817 -4.01024,9.49552 -4.22535,9.1575 -4.44046,8.8041 -4.670941,8.43534 -4.855314,8.03585 -5.039698,7.60563 -5.239441,7.16005 -5.408444,6.71448 z m -2.781046,-2.25864 c -1.075545,1.32138 -0.860445,3.25736 0.460939,4.33291 1.321384,1.06017 3.257364,0.86043 4.317552,-0.46095 1.060166,-1.32139 0.860435,-3.25737 -0.46095,-4.33291 -1.321384,-1.06018 -3.257364,-0.86044 -4.317541,0.46095 z M 141.58316,742.08758 c 0.27657,-1.67477 -0.86043,-3.25737 -2.5352,-3.51856 -1.67479,-0.27658 -3.25738,0.86043 -3.53395,2.53521 -0.27656,1.67477 0.86044,3.25736 2.53522,3.51856 1.67478,0.27657 3.25737,-0.86044 3.53393,-2.53521 z"
       id="path3100" />
    <path
       inkscape:connector-curvature="0"
       style="fill:#000000;fill-opacity:1;fill-rule:nonzero;stroke:#000000;stroke-width:0.00768247px;stroke-linecap:butt;stroke-linejoin:round;stroke-opacity:1;stroke-dasharray:none"
       d="m 140.61517,725.8315 -2.274,15.55697 1.01408,0.14597 2.27401,-15.55698 z m 3.5493,0.51472 c 0.24583,-1.67477 -0.91421,-3.24199 -2.59667,-3.48783 -1.68247,-0.24585 -3.242,0.92189 -3.48784,2.59666 -0.24584,1.68247 0.9219,3.242 2.59667,3.48784 1.68245,0.24584 3.242,-0.91421 3.48784,-2.59667 z m -8.35851,14.67349 c -0.24585,1.67479 0.92189,3.23433 2.59666,3.48016 1.68246,0.24585 3.242,-0.91421 3.48785,-2.59666 0.24582,-1.67479 -0.91422,-3.23432 -2.59669,-3.48017 -1.68245,-0.24583 -3.24199,0.91422 -3.48782,2.59667 z"
       id="path3102" />
    <path
       inkscape:connector-curvature="0"
       style="fill:#000000;fill-opacity:1;fill-rule:nonzero;stroke:#000000;stroke-width:0.01536492px;stroke-linecap:butt;stroke-linejoin:round;stroke-opacity:1;stroke-dasharray:none"
       d="m 25.332187,952.67915 0,61.38285 -2.043533,0 0,-61.38285 z m -5.500646,5.62356 4.47119,-7.65173 4.471199,7.65173 c 0.29193,0.49167 0.122916,1.12163 -0.368759,1.41357 -0.491677,0.27657 -1.106279,0.10751 -1.398207,-0.36876 l -3.580031,-6.14597 1.766967,0 -3.58003,6.14597 c -0.29193,0.47631 -0.921894,0.64533 -1.41357,0.36876 -0.476313,-0.29194 -0.645326,-0.9219 -0.368759,-1.41357 z"
       id="path3104" />
    <path
       inkscape:connector-curvature="0"
       style="fill:#000000;fill-opacity:1;fill-rule:nonzero;stroke:#000000;stroke-width:0.01536492px;stroke-linecap:butt;stroke-linejoin:round;stroke-opacity:1;stroke-dasharray:none"
       d="m 84.68686,1015.0914 -61.382844,0 0,-2.0435 61.382844,0 z m -5.638925,-5.5006 7.667098,4.4712 -7.667098,4.4712 c -0.476308,0.2919 -1.106273,0.1229 -1.398207,-0.3688 -0.276566,-0.4917 -0.122908,-1.1063 0.368757,-1.3982 l 0,0 6.145971,-3.58 0,1.767 -6.145971,-3.5801 c -0.491665,-0.2919 -0.645323,-0.9219 -0.368757,-1.4135 0.291934,-0.4764 0.921899,-0.6454 1.398207,-0.3688 z"
       id="path3106" />
    <path
       inkscape:connector-curvature="0"
       style="fill:none;stroke:none"
       d="M 12.041813,1001.865"
       id="path3116" />
    <path
       inkscape:connector-curvature="0"
       style="fill:none;stroke:none"
       d="M 12.041813,1001.865"
       id="path3118" />
    <text
       xml:space="preserve"
       x="14.254363"
       y="1019.1967"
       style="font-size:18.43790054px;font-style:normal;font-weight:normal;text-align:start;text-anchor:start;fill:#000000;font-family:Cambria Math"
       id="text3120">ٔ</text>
    <path
       inkscape:connector-curvature="0"
       style="fill:#000000;fill-opacity:1;fill-rule:nonzero;stroke:#000000;stroke-width:0.00768247px;stroke-linecap:butt;stroke-linejoin:round;stroke-opacity:1;stroke-dasharray:none"
       d="m 141.42183,725.31677 23.49297,2.68119 -0.12293,1.02176 -23.48527,-2.68886 z m -0.40718,3.55698 c -1.69013,-0.19206 -2.89627,-1.71319 -2.70422,-3.40332 0.19206,-1.68248 1.71319,-2.8963 3.40333,-2.70424 1.68246,0.19975 2.89629,1.72087 2.70423,3.40334 -0.19206,1.69014 -1.72086,2.89628 -3.40334,2.70422 z m 24.18439,-3.4187 c 1.69014,0.19207 2.90398,1.71319 2.70422,3.40333 -0.19206,1.68246 -1.71319,2.89629 -3.39564,2.70423 -1.69014,-0.19206 -2.89628,-1.72087 -2.70422,-3.40333 0.19205,-1.69014 1.71319,-2.89628 3.39564,-2.70423 z"
       id="path3126" />
    <path
       inkscape:connector-curvature="0"
       style="fill:#000000;fill-opacity:1;fill-rule:nonzero;stroke:#000000;stroke-width:0.00768247px;stroke-linecap:butt;stroke-linejoin:round;stroke-opacity:1;stroke-dasharray:none"
       d="m 165.46025,727.99796 23.49296,2.68885 -0.12292,1.01408 -23.48528,-2.68117 z m -0.40718,3.56465 c -1.69014,-0.19206 -2.89628,-1.72087 -2.70422,-3.40333 0.19205,-1.69014 1.71319,-2.89628 3.40333,-2.70423 1.68245,0.19207 2.89629,1.71319 2.70422,3.40333 -0.19206,1.68246 -1.72088,2.89629 -3.40333,2.70423 z m 24.18439,-3.42638 c 1.69013,0.19975 2.89628,1.72087 2.70422,3.40333 -0.19206,1.69015 -1.71319,2.89629 -3.39565,2.70423 -1.69014,-0.19207 -2.90396,-1.71319 -2.70422,-3.40333 0.19206,-1.68246 1.71319,-2.89628 3.39565,-2.70423 z"
       id="path3128" />
    <path
       inkscape:connector-curvature="0"
       style="fill:#000000;fill-opacity:1;fill-rule:nonzero;stroke:#000000;stroke-width:0.00768247px;stroke-linecap:butt;stroke-linejoin:round;stroke-opacity:1;stroke-dasharray:none"
       d="m 110.82259,554.65863 1.0525,2.8886 -0.96799,0.34571 -1.04482,-2.8886 z m 1.39821,3.84891 1.0525,2.88861 -0.96799,0.34571 -1.04482,-2.88093 z m 1.39053,3.87196 0.96799,2.91165 -0.96799,0.32267 -0.96799,-2.91166 z m 1.29065,3.88733 0.96799,2.91164 -0.96799,0.32266 -0.96799,-2.91164 z m 1.28297,3.90269 0.89117,2.94238 -0.98336,0.29961 -0.89116,-2.94238 z m 1.1831,3.92572 0.89117,2.94239 -0.97568,0.29194 -0.89116,-2.94238 z m 1.19078,3.93344 0.81434,2.95773 -0.98335,0.27657 -0.82202,-2.95774 z m 1.09091,3.94877 0.82203,2.95775 -0.99105,0.27657 -0.82202,-2.95776 z m 1.09091,3.94878 0.11524,0.40718 0.653,2.5813 -0.99104,0.25353 -0.653,-2.56595 -0.10751,-0.39948 z m 1.02177,3.97951 0.76057,2.97311 -0.99105,0.25353 -0.76056,-2.97311 z m 1.01408,3.97185 0.34571,1.35211 0.38413,1.64404 -0.99872,0.23047 -0.37645,-1.621 -0.34571,-1.35211 z m 0.96031,3.98719 0.6991,2.99615 -0.99872,0.23048 -0.69909,-2.98848 z m 0.92958,3.99487 0.60691,2.61205 0.0845,0.39179 -0.99871,0.21511 -0.0768,-0.36876 -0.61459,-2.6197 z m 0.90653,4.00257 0.64532,3.00384 -1.0064,0.21511 -0.63765,-3.00385 z m 0.86043,4.01024 0.63765,3.00384 -0.99872,0.21511 -0.64533,-3.00385 z m 0.85276,4.00256 0.0385,0.16902 0.56082,2.85788 -1.0064,0.19974 -0.56082,-2.85019 -0.0307,-0.16134 z m 0.79129,4.0333 0.59155,3.01152 -1.00641,0.19973 -0.59154,-3.0192 z m 0.7913,4.01791 0.38411,1.98208 0.18438,1.04482 -1.00639,0.18437 -0.18439,-1.03713 -0.38412,-1.97438 z m 0.75287,4.04098 0.53777,3.01922 -1.0064,0.18437 -0.54545,-3.02689 z m 0.71447,4.0333 0.53777,3.0192 -1.0064,0.18438 -0.53777,-3.02689 z m 0.72215,4.03328 0,0.008 0.49167,3.03457 -1.01407,0.16133 -0.484,-3.01921 0,-0.008 z m 0.65301,4.04867 0.49169,3.03456 -1.00642,0.16134 -0.49167,-3.03458 z m 0.66069,4.04865 0.36877,2.30474 0.1075,0.7375 -1.01409,0.14597 -0.0999,-0.72215 -0.37644,-2.30473 z m 0.62997,4.05633 0.44558,3.03458 -1.01408,0.15365 -0.44559,-3.04226 z m 0.59154,4.04866 0.44558,3.04225 -1.0064,0.14597 -0.45326,-3.03457 z m 0.59924,4.05634 0.10751,0.76057 0.30729,2.28937 -1.02176,0.13827 -0.29961,-2.28168 -0.10751,-0.76056 z m 0.54545,4.06402 0.39949,3.04994 -1.01409,0.1306 -0.39949,-3.04225 z m 0.5301,4.06402 0.40716,3.04994 -1.02177,0.1306 -0.39948,-3.04226 z m 0.53008,4.0717 0.36108,3.04993 -1.02177,0.12292 -0.35339,-3.04993 z m 0.47631,4.07171 0.36108,3.04994 -1.02177,0.12291 -0.35339,-3.05761 z m 0.47632,4.0717 0.26888,2.24328 0.0845,0.81434 -1.02176,0.10751 -0.0845,-0.80665 -0.2612,-2.24329 z m 0.45327,4.07939 0.31497,3.04993 -1.02177,0.10751 -0.30729,-3.05761 z m 0.42252,4.07169 0.3073,3.05762 -1.01408,0.10762 -0.31498,-3.05762 z m 0.41485,4.0794 0.12292,1.17541 0.16903,1.88989 -1.02177,0.0921 -0.16903,-1.8822 -0.12291,-1.17542 z m 0.37645,4.08707 0.27657,3.05761 -1.02178,0.0921 -0.26888,-3.06531 z m 0.36108,4.07938 0.27656,3.05762 -1.02177,0.0921 -0.26888,-3.05761 z m 0.36108,4.07939 0.0231,0.22279 0.20742,2.85019 -1.02176,0.0768 -0.20743,-2.84251 -0.0154,-0.21511 z m 0.30729,4.09474 0.23048,3.06531 -1.02177,0.0768 -0.23048,-3.0653 z m 0.30729,4.08707 0.22279,3.0653 -1.02176,0.0768 -0.22279,-3.0653 z M 107.45767,555.88014 c -0.58387,-1.59795 0.23816,-3.35724 1.83611,-3.93341 1.59797,-0.58387 3.35724,0.23814 3.93342,1.83609 0.58387,1.59796 -0.23815,3.35724 -1.8361,3.93343 -1.59796,0.58387 -3.35725,-0.23816 -3.93343,-1.83611 z m 35.10117,154.67095 c 0.1306,1.69014 -1.14469,3.16517 -2.83483,3.28809 -1.69015,0.1306 -3.16518,-1.14469 -3.2881,-2.83482 -0.13059,-1.69016 1.14469,-3.16519 2.83484,-3.28809 1.69013,-0.13061 3.16517,1.14467 3.28809,2.83482 z"
       id="path3130" />
    <text
       xml:space="preserve"
       x="5.4216681"
       y="578.05505"
       style="font-size:14.38156319px;font-style:normal;font-weight:normal;text-align:start;text-anchor:start;fill:#000000;font-family:Calibri"
       id="text3132"><tspan
         style="font-size:16px;font-style:normal;font-variant:normal;font-weight:normal;font-stretch:normal;font-family:Arial;-inkscape-font-specification:Arial"
         id="tspan3087">&quot;ghost&quot; rigid </tspan></text>
    <text
       xml:space="preserve"
       x="5.4216681"
       y="595.26379"
       style="font-size:14.38156319px;font-style:normal;font-weight:normal;text-align:start;text-anchor:start;fill:#000000;font-family:Calibri"
       id="text3134"><tspan
         style="font-size:16px;font-style:normal;font-variant:normal;font-weight:normal;font-stretch:normal;font-family:Arial;-inkscape-font-specification:Arial"
         id="tspan3089">blade position</tspan></text>
    <text
       xml:space="preserve"
       x="135.21198"
       y="583.86304"
       style="font-size:14.38156319px;font-style:normal;font-weight:normal;text-align:start;text-anchor:start;fill:#000000;font-family:Calibri"
       id="text3136"><tspan
         style="-inkscape-font-specification:Arial;font-family:Arial;font-weight:normal;font-style:normal;font-stretch:normal;font-variant:normal;font-size:16px"
         id="tspan3091">updated </tspan></text>
    <text
       xml:space="preserve"
       x="135.21198"
       y="601.07172"
       style="font-size:14.38156319px;font-style:normal;font-weight:normal;text-align:start;text-anchor:start;fill:#000000;font-family:Calibri"
       id="text3138"><tspan
         style="font-size:16px;-inkscape-font-specification:Arial;font-family:Arial;font-weight:normal;font-style:normal;font-stretch:normal;font-variant:normal"
         id="tspan3093">blade position</tspan></text>
    <path
       inkscape:connector-curvature="0"
       style="fill:#000000;fill-opacity:1;fill-rule:nonzero;stroke:#000000;stroke-width:0.00768247px;stroke-linecap:butt;stroke-linejoin:round;stroke-opacity:1;stroke-dasharray:none"
       d="m 94.758567,558.56131 18.991053,1.32907 -0.0768,1.02177 -18.983363,-1.32906 z m 13.359793,-2.58898 6.60693,4.50192 -7.16774,3.53393 c -0.25352,0.12292 -0.56083,0.023 -0.68375,-0.23047 -0.13059,-0.25352 -0.0231,-0.56082 0.23048,-0.69142 l 6.38413,-3.14214 -0.0692,0.87582 -5.8771,-4.00257 c -0.23047,-0.16134 -0.29192,-0.47632 -0.13828,-0.70679 0.16134,-0.23815 0.484,-0.29961 0.71447,-0.13828 z"
       id="path3140" />
    <text
       xml:space="preserve"
       x="84.855888"
       y="538.53082"
       style="font-size:12.29193401px;font-style:normal;font-weight:normal;text-align:start;text-anchor:start;fill:#000000;font-family:Calibri"
       id="text3142"><tspan
         style="font-style:normal;font-variant:normal;font-weight:normal;font-stretch:normal;font-family:Arial;-inkscape-font-specification:Arial"
         id="tspan3097" /></text>
    <text
       xml:space="preserve"
       x="30.825157"
       y="540.53082"
       style="font-size:12.29193401px;font-style:normal;font-weight:normal;text-align:start;text-anchor:start;fill:#000000;font-family:Calibri"
       id="text3144"><tspan
         style="font-size:16px;font-style:normal;font-variant:normal;font-weight:normal;font-stretch:normal;font-family:Arial;-inkscape-font-specification:Arial"
         id="tspan3095">OoP deflection (shaft system)</tspan></text>
    <text
       xml:space="preserve"
       style="font-size:40px;font-style:normal;font-weight:normal;line-height:125%;letter-spacing:0px;word-spacing:0px;fill:#000000;fill-opacity:1;stroke:none;font-family:Sans"
       x="18.5"
       y="944.36218"
       id="text3099"
       sodipodi:linespacing="125%"><tspan
         sodipodi:role="line"
         id="tspan3101"
         x="18.5"
         y="944.36218"
         style="font-size:16px;font-style:normal;font-variant:normal;font-weight:normal;font-stretch:normal;font-family:Arial;-inkscape-font-specification:Arial">Z<tspan
   style="font-size:65.00091553%;baseline-shift:sub"
   id="tspan3103">G</tspan></tspan></text>
    <text
       xml:space="preserve"
       style="font-size:40px;font-style:normal;font-weight:normal;line-height:125%;letter-spacing:0px;word-spacing:0px;fill:#000000;fill-opacity:1;stroke:none;font-family:Sans"
       x="29.729439"
       y="1000.9252"
       id="text3099-1"
       sodipodi:linespacing="125%"><tspan
         sodipodi:role="line"
         id="tspan3101-7"
         x="29.729439"
         y="1000.9252"
         style="font-size:16px;font-style:normal;font-variant:normal;font-weight:normal;font-stretch:normal;font-family:Arial;-inkscape-font-specification:Arial">Y<tspan
   style="font-size:65.00091553%;baseline-shift:sub"
   id="tspan3103-4">G</tspan></tspan></text>
    <text
       xml:space="preserve"
       style="font-size:40px;font-style:normal;font-weight:normal;line-height:125%;letter-spacing:0px;word-spacing:0px;fill:#000000;fill-opacity:1;stroke:none;font-family:Sans"
       x="91.413033"
       y="1018.4252"
       id="text3099-1-0"
       sodipodi:linespacing="125%"><tspan
         sodipodi:role="line"
         id="tspan3101-7-9"
         x="91.413033"
         y="1018.4252"
         style="font-size:16px;font-style:normal;font-variant:normal;font-weight:normal;font-stretch:normal;font-family:Arial;-inkscape-font-specification:Arial">X<tspan
   style="font-size:65.00091553%;baseline-shift:sub"
   id="tspan3103-4-4">G</tspan></tspan></text>
  </g>
</svg>
