<?xml version="1.0" encoding="UTF-8" standalone="no"?>
<!-- Created with Inkscape (http://www.inkscape.org/) -->

<svg
   xmlns:dc="http://purl.org/dc/elements/1.1/"
   xmlns:cc="http://creativecommons.org/ns#"
   xmlns:rdf="http://www.w3.org/1999/02/22-rdf-syntax-ns#"
   xmlns:svg="http://www.w3.org/2000/svg"
   xmlns="http://www.w3.org/2000/svg"
   xmlns:sodipodi="http://sodipodi.sourceforge.net/DTD/sodipodi-0.dtd"
   xmlns:inkscape="http://www.inkscape.org/namespaces/inkscape"
   width="460.62991"
   height="212.59842"
   id="svg2"
   version="1.1"
   inkscape:version="0.48.5 r10040"
   sodipodi:docname="shaft-system-2.svg">
  <defs
     id="defs4" />
  <sodipodi:namedview
     id="base"
     pagecolor="#ffffff"
     bordercolor="#666666"
     borderopacity="1.0"
     inkscape:pageopacity="0.0"
     inkscape:pageshadow="2"
     inkscape:zoom="2"
     inkscape:cx="375"
     inkscape:cy="85.71429"
     inkscape:document-units="px"
     inkscape:current-layer="layer1"
     showgrid="false"
     inkscape:window-width="2560"
     inkscape:window-height="1365"
     inkscape:window-x="-9"
     inkscape:window-y="-9"
     inkscape:window-maximized="1"
     units="mm" />
  <metadata
     id="metadata7">
    <rdf:RDF>
      <cc:Work
         rdf:about="">
        <dc:format>image/svg+xml</dc:format>
        <dc:type
           rdf:resource="http://purl.org/dc/dcmitype/StillImage" />
        <dc:title />
      </cc:Work>
    </rdf:RDF>
  </metadata>
  <g
     inkscape:label="Layer 1"
     inkscape:groupmode="layer"
     id="layer1"
     transform="translate(0,-839.76376)">
    <path
       inkscape:connector-curvature="0"
       style="fill:#ffffff;fill-opacity:1;fill-rule:evenodd;stroke:none"
       d="m 193.25591,903.39051 240.96341,21.08956 -6.81454,77.83433 -240.96342,-21.05727 z"
       id="path2993" />
    <path
       inkscape:connector-curvature="0"
       style="fill:none;stroke:#000000;stroke-width:2.16385889px;stroke-linecap:butt;stroke-linejoin:round;stroke-opacity:1;stroke-dasharray:none"
       d="m 193.25591,903.39051 240.96341,21.08956 -6.81454,77.83433 -240.96342,-21.05727 z"
       id="path2995" />
    <path
       inkscape:connector-curvature="0"
       style="fill:#000000;fill-opacity:1;fill-rule:nonzero;stroke:#000000;stroke-width:0.01614821px;stroke-linecap:butt;stroke-linejoin:round;stroke-opacity:1;stroke-dasharray:none"
       d="m 137.88373,868.84951 5.53884,67.91932 -1.08193,0.097 -5.53883,-67.93548 z m -3.76253,0.30682 c -0.14533,-1.79245 1.17882,-3.34269 2.95513,-3.48801 1.7763,-0.14533 3.34267,1.17883 3.48799,2.95511 0.14535,1.7763 -1.1788,3.34268 -2.95511,3.48802 -1.7763,0.14534 -3.34267,-1.17881 -3.48801,-2.95512 z m 11.98197,67.40258 c 0.14533,1.77631 -1.17883,3.32653 -2.95512,3.47186 -1.7763,0.14533 -3.34267,-1.17882 -3.48802,-2.95512 -0.14532,-1.7763 1.17882,-3.32652 2.95514,-3.47187 1.77628,-0.14532 3.34267,1.17884 3.488,2.95513 z"
       id="path2997" />
    <path
       inkscape:connector-curvature="0"
       style="fill:#000000;fill-opacity:1;fill-rule:nonzero;stroke:#000000;stroke-width:0.01614821px;stroke-linecap:butt;stroke-linejoin:round;stroke-opacity:1;stroke-dasharray:none"
       d="m 142.34064,937.07565 -9.86655,67.51555 1.06578,0.1616 9.86655,-67.51566 z m 3.73023,0.54905 c 0.25837,-1.76016 -0.95273,-3.40728 -2.72905,-3.66565 -1.76016,-0.25836 -3.39111,0.96889 -3.64949,2.72905 -0.25837,1.7763 0.95275,3.40727 2.72904,3.66563 1.76016,0.25838 3.39112,-0.95273 3.6495,-2.72903 z m -16.26124,66.5791 c -0.25837,1.7601 0.9689,3.4073 2.72905,3.6656 1.7763,0.2583 3.40728,-0.969 3.66564,-2.7292 0.25837,-1.7762 -0.9689,-3.4071 -2.72904,-3.6655 -1.76015,-0.2585 -3.40727,0.9689 -3.66565,2.7291 z"
       id="path2999" />
    <path
       inkscape:connector-curvature="0"
       style="fill:#000000;fill-opacity:1;fill-rule:nonzero;stroke:#000000;stroke-width:0.01614821px;stroke-linecap:butt;stroke-linejoin:round;stroke-opacity:1;stroke-dasharray:none"
       d="m 143.97161,936.28439 101.92741,11.64285 -0.11308,1.06578 -101.92742,-11.64285 z m -0.41986,3.74638 c -1.7763,-0.20992 -3.05202,-1.80859 -2.84208,-3.5849 0.20993,-1.76016 1.8086,-3.03585 3.56875,-2.84209 1.7763,0.20994 3.05201,1.8086 2.84208,3.5849 -0.19377,1.76016 -1.79245,3.03587 -3.56875,2.84209 z m 102.65409,5.23201 c 1.7763,0.1938 3.05202,1.79246 2.84209,3.56875 -0.20992,1.77631 -1.8086,3.05202 -3.56875,2.84209 -1.77631,-0.19377 -3.052,-1.8086 -2.84209,-3.56876 0.19379,-1.77629 1.79246,-3.05201 3.56875,-2.84208 z"
       id="path3001" />
    <path
       inkscape:connector-curvature="0"
       style="fill:#000000;fill-opacity:1;fill-rule:nonzero;stroke:#000000;stroke-width:0.01614821px;stroke-linecap:butt;stroke-linejoin:round;stroke-opacity:1;stroke-dasharray:none"
       d="m 246.67416,948.46014 101.92741,11.65899 -0.12917,1.06578 -101.9113,-11.659 z m -0.41987,3.74638 c -1.77631,-0.20994 -3.05201,-1.8086 -2.84207,-3.56875 0.19377,-1.77631 1.79245,-3.05202 3.56873,-2.84208 1.77632,0.19377 3.05202,1.79244 2.8421,3.56874 -0.19378,1.77631 -1.79246,3.03586 -3.56876,2.84209 z m 102.6541,5.23201 c 1.7763,0.19378 3.03585,1.8086 2.84209,3.56876 -0.20994,1.77629 -1.8086,3.05202 -3.58491,2.84208 -1.76015,-0.19379 -3.03586,-1.79245 -2.84208,-3.56875 0.20992,-1.77631 1.8086,-3.05201 3.5849,-2.84209 z"
       id="path3003" />
    <path
       inkscape:connector-curvature="0"
       style="fill:#4a7ebb;fill-opacity:1;fill-rule:nonzero;stroke:#4a7ebb;stroke-width:0.01614821px;stroke-linecap:butt;stroke-linejoin:round;stroke-opacity:1;stroke-dasharray:none"
       d="m 192.49695,879.05517 -22.39756,56.56715 1.00118,0.4037 22.39755,-56.56714 z m -23.54408,49.46194 1.25957,8.30017 6.6046,-5.18357 c 0.24223,-0.19378 0.27452,-0.53289 0.0969,-0.75896 -0.19378,-0.24223 -0.53289,-0.27453 -0.75896,-0.0969 l -5.87795,4.61838 0.85586,0.35526 -1.11424,-7.39588 c -0.0484,-0.29067 -0.32296,-0.5006 -0.61362,-0.45216 -0.30681,0.0484 -0.50059,0.32297 -0.45216,0.61364 z"
       id="path3015" />
    <path
       inkscape:connector-curvature="0"
       style="fill:#4a7ebb;fill-opacity:1;fill-rule:nonzero;stroke:#4a7ebb;stroke-width:0.01614821px;stroke-linecap:butt;stroke-linejoin:round;stroke-opacity:1;stroke-dasharray:none"
       d="m 309.82974,1027.7801 -24.27073,-65.94926 1.01732,-0.37141 24.2546,65.94927 z m -25.59488,-58.86021 1.46948,-8.28401 6.47542,5.3612 c 0.22608,0.17762 0.25838,0.51673 0.0647,0.75896 -0.17762,0.22608 -0.51673,0.25838 -0.75896,0.0647 l -5.7649,-4.76371 0.87201,-0.32297 -1.30801,7.36359 c -0.0484,0.29067 -0.32296,0.50058 -0.61363,0.43599 -0.29067,-0.0484 -0.48444,-0.32296 -0.436,-0.61363 z"
       id="path3017" />
    <path
       inkscape:connector-curvature="0"
       style="fill:#000000;fill-opacity:1;fill-rule:nonzero;stroke:#000000;stroke-width:0.01614821px;stroke-linecap:butt;stroke-linejoin:round;stroke-opacity:1;stroke-dasharray:none"
       d="m 246.75489,947.26517 53.22445,6.08786 -0.27451,2.40609 -53.22447,-6.08787 z m 47.07199,1.27571 8.39707,6.28164 -9.59203,4.21468 c -0.61363,0.27453 -1.3403,0 -1.59867,-0.61363 -0.27453,-0.61363 0,-1.32415 0.61363,-1.59867 l 7.70269,-3.39113 -0.24222,2.08312 -6.7338,-5.03823 c -0.5329,-0.40371 -0.64593,-1.16267 -0.24223,-1.69557 0.40371,-0.53288 1.16267,-0.64592 1.69556,-0.24221 z"
       id="path3023" />
    <path
       inkscape:connector-curvature="0"
       style="fill:#000000;fill-opacity:1;fill-rule:nonzero;stroke:#000000;stroke-width:0.01614821px;stroke-linecap:butt;stroke-linejoin:round;stroke-opacity:1;stroke-dasharray:none"
       d="m 244.63947,946.52234 6.08787,-53.20831 2.40609,0.27452 -6.08788,53.20831 z m 1.27572,-47.07199 6.28163,-8.39706 4.21469,9.60817 c 0.27452,0.61364 0,1.32416 -0.61364,1.59868 -0.61362,0.25837 -1.32414,-0.0161 -1.59866,-0.62978 l -3.39113,-7.70269 2.08312,0.24222 -5.03824,6.7338 c -0.4037,0.53289 -1.16266,0.64593 -1.69556,0.24221 -0.53289,-0.38755 -0.64593,-1.14652 -0.24221,-1.69555 z"
       id="path3025" />
    <path
       inkscape:connector-curvature="0"
       style="fill:#000000;fill-opacity:1;fill-rule:nonzero;stroke:#000000;stroke-width:0.01614821px;stroke-linecap:butt;stroke-linejoin:round;stroke-opacity:1;stroke-dasharray:none"
       d="m 144.95665,935.12173 53.22445,6.07171 -0.27451,2.40609 -53.22447,-6.07173 z m 47.07198,1.27569 8.41322,6.28165 -9.60817,4.21469 c -0.61364,0.27452 -1.32416,0 -1.59868,-0.61364 -0.25836,-0.61363 0.0161,-1.3403 0.62978,-1.59866 l 7.7027,-3.39112 -0.24223,2.08312 -6.7338,-5.03824 c -0.54903,-0.40372 -0.64593,-1.16269 -0.25837,-1.69556 0.40372,-0.5329 1.16268,-0.64594 1.69555,-0.24224 z"
       id="path3035" />
    <path
       inkscape:connector-curvature="0"
       style="fill:#000000;fill-opacity:1;fill-rule:nonzero;stroke:#000000;stroke-width:0.01614821px;stroke-linecap:butt;stroke-linejoin:round;stroke-opacity:1;stroke-dasharray:none"
       d="m 144.08465,936.46202 -6.08789,53.20831 -2.40608,-0.27451 6.08788,-53.20833 z m -1.27572,47.07199 -6.28164,8.3971 -4.23084,-9.60821 c -0.25835,-0.61363 0.0161,-1.32415 0.62979,-1.59866 0.61363,-0.25838 1.32415,0.0161 1.59868,0.62977 l 3.37496,7.70269 -2.06697,-0.24222 5.03825,-6.7338 c 0.38755,-0.53289 1.14652,-0.64592 1.69555,-0.24222 0.5329,0.38756 0.64593,1.14652 0.24222,1.69555 z"
       id="path3041" />
    <text
       xml:space="preserve"
       style="font-size:16px;font-style:normal;font-variant:normal;font-weight:normal;font-stretch:normal;line-height:125%;letter-spacing:0px;word-spacing:0px;fill:#000000;fill-opacity:1;stroke:none;font-family:Arial;-inkscape-font-specification:Arial"
       x="257.5"
       y="1042.3622"
       id="text3081"
       sodipodi:linespacing="125%"><tspan
         sodipodi:role="line"
         id="tspan3083"
         x="257.5"
         y="1042.3622">shaft (non-rotating)</tspan></text>
    <text
       xml:space="preserve"
       style="font-size:16px;font-style:normal;font-variant:normal;font-weight:normal;font-stretch:normal;line-height:125%;letter-spacing:0px;word-spacing:0px;fill:#000000;fill-opacity:1;stroke:none;font-family:Arial;-inkscape-font-specification:Arial"
       x="38"
       y="1003.3622"
       id="text3085"
       sodipodi:linespacing="125%"><tspan
         sodipodi:role="line"
         id="tspan3087"
         x="38"
         y="1003.3622">eccentricity </tspan><tspan
         sodipodi:role="line"
         x="38"
         y="1023.3622"
         id="tspan3089">(blade 1)</tspan></text>
    <text
       xml:space="preserve"
       style="font-size:16px;font-style:normal;font-variant:normal;font-weight:normal;font-stretch:normal;line-height:125%;letter-spacing:0px;word-spacing:0px;fill:#000000;fill-opacity:1;stroke:none;font-family:Arial;-inkscape-font-specification:Arial"
       x="173"
       y="854.86218"
       id="text3091"
       sodipodi:linespacing="125%"><tspan
         sodipodi:role="line"
         id="tspan3093"
         x="173"
         y="854.86218">shaft</tspan><tspan
         sodipodi:role="line"
         x="173"
         y="874.86218"
         id="tspan3095">(rotating)</tspan></text>
    <text
       xml:space="preserve"
       style="font-size:16px;font-style:normal;font-variant:normal;font-weight:normal;font-stretch:normal;line-height:125%;letter-spacing:0px;word-spacing:0px;fill:#000000;fill-opacity:1;stroke:none;font-family:Arial;-inkscape-font-specification:Arial"
       x="253.5"
       y="886.36218"
       id="text3097"
       sodipodi:linespacing="125%"><tspan
         sodipodi:role="line"
         id="tspan3099"
         x="253.5"
         y="886.36218">Z<tspan
   style="font-size:65.00091553%;baseline-shift:sub"
   id="tspan3101">S</tspan></tspan></text>
    <text
       xml:space="preserve"
       style="font-size:16px;font-style:normal;font-variant:normal;font-weight:normal;font-stretch:normal;line-height:125%;letter-spacing:0px;word-spacing:0px;fill:#000000;fill-opacity:1;stroke:none;font-family:Arial;-inkscape-font-specification:Arial"
       x="293.2525"
       y="942.92529"
       id="text3097-1"
       sodipodi:linespacing="125%"><tspan
         sodipodi:role="line"
         id="tspan3099-7"
         x="293.2525"
         y="942.92529">X<tspan
   style="font-size:65.00091553%;baseline-shift:sub"
   id="tspan3101-4">S</tspan></tspan></text>
    <text
       xml:space="preserve"
       style="font-size:16px;font-style:normal;font-variant:normal;font-weight:normal;font-stretch:normal;line-height:125%;letter-spacing:0px;word-spacing:0px;fill:#000000;fill-opacity:1;stroke:none;font-family:Arial;-inkscape-font-specification:Arial"
       x="165.7525"
       y="956.42529"
       id="text3097-0"
       sodipodi:linespacing="125%"><tspan
         sodipodi:role="line"
         id="tspan3099-9"
         x="165.7525"
         y="956.42529">X<tspan
   style="font-size:65.00091553%;baseline-shift:sub"
   id="tspan3101-48">R</tspan></tspan></text>
    <text
       xml:space="preserve"
       style="font-size:16px;font-style:normal;font-variant:normal;font-weight:normal;font-stretch:normal;line-height:125%;letter-spacing:0px;word-spacing:0px;fill:#000000;fill-opacity:1;stroke:none;font-family:Arial;-inkscape-font-specification:Arial"
       x="142.2525"
       y="999.92529"
       id="text3097-8"
       sodipodi:linespacing="125%"><tspan
         sodipodi:role="line"
         id="tspan3099-2"
         x="142.2525"
         y="999.92529">Z<tspan
   style="font-size:65.00091553%;baseline-shift:sub"
   id="tspan3101-45">R</tspan></tspan></text>
  </g>
</svg>
