<?xml version="1.0" encoding="utf-8"?>
<!-- Generator: Adobe Illustrator 15.0.0, SVG Export Plug-In . SVG Version: 6.00 Build 0)  -->
<!DOCTYPE svg PUBLIC "-//W3C//DTD SVG 1.1//EN" "http://www.w3.org/Graphics/SVG/1.1/DTD/svg11.dtd" [
	<!ENTITY ns_flows "http://ns.adobe.com/Flows/1.0/">
	<!ENTITY ns_extend "http://ns.adobe.com/Extensibility/1.0/">
	<!ENTITY ns_ai "http://ns.adobe.com/AdobeIllustrator/10.0/">
	<!ENTITY ns_graphs "http://ns.adobe.com/Graphs/1.0/">
]>
<svg version="1.1" id="_x3C_Layer_x3E_" xmlns:x="&ns_extend;" xmlns:i="&ns_ai;" xmlns:graph="&ns_graphs;"
	 xmlns="http://www.w3.org/2000/svg" xmlns:xlink="http://www.w3.org/1999/xlink" xmlns:a="http://ns.adobe.com/AdobeSVGViewerExtensions/3.0/"
	 x="0px" y="0px" width="715.458px" height="504px" viewBox="0 0 715.458 504" enable-background="new 0 0 715.458 504"
	 xml:space="preserve">
<path fill-rule="evenodd" clip-rule="evenodd" fill="none" stroke="#000000" stroke-width="2" stroke-linecap="round" stroke-linejoin="round" stroke-miterlimit="10" d="
	M129.847,452.997c34.283-0.458,59.4,1.971,77.412-19.938c17.921-22.275,20.396-83.05,29.654-106.608
	c9.213-23.191,24.796-19.799,28.417-18.562c3.621,1.191,8.983,8.25,12.696,26.583c3.712,18.379,2.888,34.055,9.258,42.35
	c6.462,8.159,15.446,9.167,25.942,6.097c10.541-3.025,27.087-10.359,37.354-38.134c10.449-28.233,24.383-126.866,37.445-261.066"/>
<g>
	
		<line fill-rule="evenodd" clip-rule="evenodd" fill="none" stroke="#000000" stroke-linecap="round" stroke-linejoin="round" stroke-miterlimit="10" x1="22.506" y1="114.427" x2="710.371" y2="114.427"/>
</g>
<g>
	
		<line fill-rule="evenodd" clip-rule="evenodd" fill="none" stroke="#000000" stroke-linecap="round" stroke-linejoin="round" stroke-miterlimit="10" x1="3.072" y1="454.28" x2="715.458" y2="454.28"/>
</g>
<g>
	
		<line fill-rule="evenodd" clip-rule="evenodd" fill="none" stroke="#000000" stroke-linecap="round" stroke-linejoin="round" stroke-miterlimit="10" x1="463.375" y1="114.427" x2="463.375" y2="471.651"/>
</g>
<g>
	<polyline stroke="#000000" stroke-width="0.5" stroke-linecap="round" stroke-linejoin="round" stroke-miterlimit="10" points="
		466.447,465.51 463.375,471.651 460.305,465.51 466.447,465.51 	"/>
</g>
<g>
	
		<line fill="none" stroke="#000000" stroke-width="0.5" stroke-linecap="round" stroke-linejoin="round" stroke-miterlimit="10" x1="466.447" y1="471.651" x2="460.305" y2="471.651"/>
</g>
<g>
	
		<line fill="none" stroke="#000000" stroke-linecap="round" stroke-linejoin="round" stroke-miterlimit="10" x1="493.991" y1="113.419" x2="493.991" y2="2.182"/>
</g>
<g>
	<polyline stroke="#000000" stroke-width="0.5" stroke-linecap="round" stroke-linejoin="round" stroke-miterlimit="10" points="
		490.921,8.278 493.991,2.182 497.063,8.278 490.921,8.278 	"/>
</g>
<g>
	
		<line fill="none" stroke="#000000" stroke-width="0.5" stroke-linecap="round" stroke-linejoin="round" stroke-miterlimit="10" x1="591.983" y1="114.427" x2="603.213" y2="114.427"/>
</g>
<g>
	<polyline stroke="#000000" stroke-width="0.5" stroke-linecap="round" stroke-linejoin="round" stroke-miterlimit="10" points="
		597.07,111.357 603.213,114.427 597.07,117.498 597.07,111.357 	"/>
</g>
<g>
	
		<path fill-rule="evenodd" clip-rule="evenodd" fill="#ADB0B2" stroke="#000000" stroke-width="0.5" stroke-linecap="round" stroke-linejoin="round" stroke-miterlimit="10" d="
		M380.922,203.709c-0.006-4.48-4.851-7.277-8.732-5.039c-3.881,2.252-3.875,7.846,0.008,10.085
		C376.081,210.987,380.918,208.191,380.922,203.709"/>
</g>
<g>
	
		<path fill-rule="evenodd" clip-rule="evenodd" fill="#FFFFFF" stroke="#000000" stroke-width="0.5" stroke-linecap="round" stroke-linejoin="round" stroke-miterlimit="10" d="
		M150.151,435.395c-0.008-8.714-9.432-14.153-16.982-9.801c-7.55,4.38-7.536,15.261,0.014,19.614
		c7.555,4.342,16.962-1.097,16.968-9.811"/>
</g>
<g>
	<polygon fill-rule="evenodd" clip-rule="evenodd" fill="none" stroke="#000000" stroke-miterlimit="10" points="127.51,435.397 
		127.739,437.598 128.335,439.706 129.618,441.998 131.405,443.969 133.56,445.435 136.08,446.397 138.28,446.718 140.526,446.627 
		143.093,445.894 145.018,444.885 147.035,443.235 148.593,441.127 149.509,439.201 150.014,437.093 150.151,434.848 
		149.693,432.144 148.593,429.668 147.035,427.56 145.018,425.91 142.635,424.718 140.526,424.214 138.28,424.076 135.577,424.535 
		133.56,425.36 131.405,426.872 129.939,428.385 128.564,430.631 127.831,432.647 127.51,434.848 	"/>
</g>
<g>
	<path d="M138.353,433.411h-0.023l-1.307,0.705l-0.196-0.774l1.642-0.879h0.868v7.518h-0.983V433.411z"/>
</g>
<g>
	
		<path fill-rule="evenodd" clip-rule="evenodd" fill="#FFFFFF" stroke="#000000" stroke-width="0.5" stroke-linecap="round" stroke-linejoin="round" stroke-miterlimit="10" d="
		M417.542,83.305c-0.009-8.715-9.432-14.154-16.982-9.802c-7.549,4.38-7.535,15.261,0.014,19.615
		c7.556,4.342,16.962-1.097,16.969-9.811"/>
</g>
<g>
	<polygon fill-rule="evenodd" clip-rule="evenodd" fill="none" stroke="#000000" stroke-miterlimit="10" points="394.9,83.307 
		395.13,85.506 395.727,87.569 397.009,89.907 398.383,91.511 400.492,93.069 402.967,94.169 405.671,94.627 407.917,94.49 
		410.025,93.986 412.408,92.794 414.426,91.144 415.984,89.036 417.084,86.561 417.496,84.406 417.496,82.161 417.084,80.052 
		416.26,78.036 414.792,75.881 412.821,74.094 410.988,73.04 408.421,72.169 405.671,71.986 403.471,72.307 400.95,73.269 
		398.796,74.736 397.009,76.707 395.727,78.999 395.13,81.107 	"/>
</g>
<g>
	<path d="M403.533,87.844V87.22l0.799-0.775c1.92-1.828,2.799-2.799,2.799-3.933c0-0.763-0.359-1.469-1.48-1.469
		c-0.683,0-1.249,0.347-1.596,0.636l-0.324-0.717c0.509-0.428,1.261-0.763,2.116-0.763c1.62,0,2.302,1.11,2.302,2.186
		c0,1.388-1.006,2.51-2.591,4.037l-0.59,0.555V87h3.366v0.844H403.533z"/>
</g>
<g>
	<path d="M79.6,419.227c0-0.694-0.027-1.238-0.055-1.783h1.048l0.054,1.076h0.041c0.368-0.627,0.98-1.212,2.083-1.212
		c0.885,0,1.565,0.544,1.851,1.32h0.027c0.205-0.382,0.477-0.653,0.749-0.857c0.395-0.3,0.816-0.463,1.442-0.463
		c0.885,0,2.178,0.571,2.178,2.858v3.865h-1.17v-3.716c0-1.279-0.476-2.028-1.429-2.028c-0.694,0-1.211,0.504-1.429,1.076
		c-0.054,0.176-0.095,0.381-0.095,0.598v4.07h-1.17v-3.947c0-1.048-0.463-1.797-1.375-1.797c-0.735,0-1.293,0.6-1.484,1.198
		c-0.068,0.163-0.095,0.381-0.095,0.585v3.961H79.6V419.227z"/>
</g>
<g>
	<path d="M92.553,422.885h-0.016l-0.884,0.477l-0.133-0.523l1.112-0.596h0.587v5.088h-0.666V422.885z"/>
</g>
<g>
</g>
<g>
	<path d="M79.015,438.966l5.077-7.444v-0.041H79.45v-0.994h6.193v0.722l-5.063,7.418v0.04h5.131v0.994h-6.697V438.966z"/>
</g>
<g>
	<path d="M88.749,438.514h-0.016l-0.884,0.478l-0.133-0.524l1.112-0.595h0.587v5.088h-0.666V438.514z"/>
</g>
<g>
	<path d="M420.507,204.91c0-0.694-0.027-1.239-0.055-1.783h1.048l0.055,1.075h0.041c0.367-0.626,0.98-1.212,2.082-1.212
		c0.885,0,1.565,0.545,1.852,1.32h0.027c0.204-0.381,0.477-0.652,0.748-0.857c0.395-0.299,0.816-0.463,1.443-0.463
		c0.885,0,2.178,0.572,2.178,2.858v3.866h-1.171v-3.717c0-1.279-0.477-2.027-1.429-2.027c-0.694,0-1.212,0.504-1.43,1.075
		c-0.055,0.177-0.096,0.381-0.096,0.599v4.07h-1.17v-3.947c0-1.049-0.463-1.797-1.375-1.797c-0.734,0-1.293,0.599-1.483,1.197
		c-0.067,0.164-0.095,0.381-0.095,0.586v3.961h-1.171V204.91z"/>
</g>
<g>
	<path d="M431.92,213.016v-0.424l0.54-0.523c1.3-1.237,1.894-1.895,1.894-2.662c0-0.516-0.242-0.994-1.002-0.994
		c-0.461,0-0.845,0.235-1.08,0.431l-0.219-0.485c0.344-0.289,0.854-0.517,1.433-0.517c1.096,0,1.558,0.751,1.558,1.479
		c0,0.939-0.682,1.699-1.754,2.732l-0.398,0.375v0.016h2.277v0.572H431.92z"/>
</g>
<g>
</g>
<g>
	<path d="M419.922,224.65l5.076-7.445v-0.041h-4.641v-0.993h6.192v0.722l-5.063,7.418v0.041h5.132v0.993h-6.696V224.65z"/>
</g>
<g>
	<path d="M428.161,228.645v-0.424l0.54-0.523c1.3-1.237,1.895-1.895,1.895-2.662c0-0.516-0.242-0.994-1.002-0.994
		c-0.462,0-0.846,0.235-1.08,0.431l-0.219-0.485c0.344-0.289,0.853-0.517,1.432-0.517c1.096,0,1.559,0.751,1.559,1.479
		c0,0.939-0.682,1.699-1.754,2.732l-0.399,0.375v0.016h2.278v0.572H428.161z"/>
</g>
<g>
	<path d="M505.63,21.242l5.077-7.445v-0.041h-4.642v-0.994h6.192v0.722l-5.063,7.418v0.041h5.131v0.994h-6.696V21.242z"/>
</g>
<g>
	<path d="M590.891,102.557l-1.184-2.028c-0.477-0.776-0.763-1.28-1.049-1.811h-0.027c-0.258,0.531-0.53,1.021-0.993,1.824
		l-1.103,2.015h-1.361l2.805-4.641l-2.695-4.533h1.375l1.211,2.15c0.34,0.599,0.6,1.062,0.844,1.552h0.041
		c0.259-0.544,0.49-0.966,0.83-1.552l1.238-2.15h1.375l-2.79,4.464l2.858,4.709H590.891z"/>
</g>
<g>
	<path d="M475.014,489.656l5.076-7.444v-0.041h-4.641v-0.993h6.192v0.721l-5.063,7.418v0.041h5.132v0.994h-6.696V489.656z"/>
</g>
<g>
	<path d="M483.496,488.445c0.345-0.063,0.846-0.109,1.308-0.109c0.728,0,1.205,0.141,1.526,0.431
		c0.258,0.235,0.414,0.595,0.414,1.011c0,0.688-0.438,1.15-0.986,1.338v0.023c0.4,0.141,0.643,0.517,0.768,1.064
		c0.172,0.736,0.298,1.244,0.407,1.448h-0.704c-0.086-0.157-0.204-0.603-0.345-1.261c-0.157-0.728-0.446-1.002-1.064-1.025h-0.642
		v2.286h-0.682V488.445z M484.178,490.85h0.696c0.728,0,1.19-0.4,1.19-1.002c0-0.682-0.494-0.979-1.214-0.979
		c-0.329,0-0.556,0.023-0.673,0.055V490.85z"/>
	<path d="M490.43,491.178h-2.043v1.902h2.285v0.571h-2.975v-5.276h2.857v0.572h-2.168v1.667h2.043V491.178z"/>
	<path d="M491.547,488.375h2.842v0.572h-2.152v1.753h1.988v0.563h-1.988v2.388h-0.689V488.375z"/>
</g>
</svg>
