<?xml version="1.0" encoding="utf-8"?>
<!-- Generator: Adobe Illustrator 15.0.0, SVG Export Plug-In . SVG Version: 6.00 Build 0)  -->
<!DOCTYPE svg PUBLIC "-//W3C//DTD SVG 1.1//EN" "http://www.w3.org/Graphics/SVG/1.1/DTD/svg11.dtd">
<svg version="1.1" id="_x3C_Layer_x3E_" xmlns="http://www.w3.org/2000/svg" xmlns:xlink="http://www.w3.org/1999/xlink" x="0px"
	 y="0px" width="719.5px" height="339.5px" viewBox="0 0 719.5 339.5" enable-background="new 0 0 719.5 339.5"
	 xml:space="preserve">
<g>
	
		<path fill-rule="evenodd" clip-rule="evenodd" fill="#FFFFFF" stroke="#000000" stroke-linejoin="round" stroke-miterlimit="10" d="
		M22.31,291.963c-0.029-9.995-7.508-16.211-13.463-11.206c-5.971,5.015-5.957,17.491,0.023,22.485
		C14.875,308.22,22.326,301.958,22.31,291.963"/>
</g>
<path fill-rule="evenodd" clip-rule="evenodd" fill="none" stroke="#000000" stroke-linecap="round" stroke-linejoin="round" stroke-miterlimit="10" d="
	M605.796,27.452c4.081-2.61,4.685-6.96,3.078-11.377c-1.606-4.551-10.105-6.76-15.861-7.764"/>
<path fill-rule="evenodd" clip-rule="evenodd" fill="none" stroke="#000000" stroke-linecap="round" stroke-linejoin="round" stroke-miterlimit="10" d="
	M8.524,280.748c79.97-107.542,164.827-161.815,262.933-207.791c98.375-45.64,251.155-73.747,320.954-64.78"/>
<path fill-rule="evenodd" clip-rule="evenodd" fill="none" stroke="#000000" stroke-linecap="round" stroke-linejoin="round" stroke-miterlimit="10" d="
	M20.636,300.423C100.607,192.88,185.464,138.675,283.57,92.632c98.375-45.64,251.156-73.747,320.954-64.712"/>
<path fill-rule="evenodd" clip-rule="evenodd" fill="none" stroke="#000000" stroke-linecap="round" stroke-linejoin="round" stroke-miterlimit="10" d="
	M79.528,285.366c65.381-69.465,134.913-111.157,212.809-147.695c78.7-36.473,192.265-61.835,270.295-65.851"/>
<path fill-rule="evenodd" clip-rule="evenodd" fill="none" stroke="#000000" stroke-linecap="round" stroke-linejoin="round" stroke-miterlimit="10" d="
	M95.321,301.16c64.311-67.123,132.705-107.946,209.062-143.748c74.149-34.398,179.282-58.89,256.376-64.98"/>
<g>
	
		<path fill-rule="evenodd" clip-rule="evenodd" stroke="#000000" stroke-linecap="round" stroke-linejoin="round" stroke-miterlimit="10" d="
		M564.572,82.85c-0.015-6.852-7.485-11.119-13.462-7.69c-5.97,3.438-5.954,12.005,0.03,15.421
		C557.128,93.988,564.583,89.692,564.572,82.85"/>
</g>
<g>
	
		<path fill-rule="evenodd" clip-rule="evenodd" stroke="#000000" stroke-linecap="round" stroke-linejoin="round" stroke-miterlimit="10" d="
		M450.338,100.729c-0.006-6.851-7.416-11.128-13.352-7.706c-5.936,3.443-5.924,11.998,0.011,15.42
		c5.94,3.415,13.335-0.862,13.341-7.712"/>
</g>
<g>
	
		<path fill-rule="evenodd" clip-rule="evenodd" stroke="#000000" stroke-linecap="round" stroke-linejoin="round" stroke-miterlimit="10" d="
		M350.09,130.173c-0.007-6.852-7.416-11.127-13.352-7.705c-5.936,3.443-5.925,11.998,0.011,15.42
		c5.94,3.414,13.335-0.862,13.341-7.714"/>
</g>
<g>
	
		<path fill-rule="evenodd" clip-rule="evenodd" stroke="#000000" stroke-linecap="round" stroke-linejoin="round" stroke-miterlimit="10" d="
		M258.742,172.401c-0.006-6.852-7.416-11.128-13.352-7.707c-5.936,3.444-5.924,11.998,0.011,15.421
		C251.342,183.53,258.737,179.254,258.742,172.401"/>
</g>
<g>
	
		<path fill-rule="evenodd" clip-rule="evenodd" stroke="#000000" stroke-linecap="round" stroke-linejoin="round" stroke-miterlimit="10" d="
		M174.288,225.736c-0.006-6.852-7.416-11.127-13.352-7.705c-5.936,3.444-5.924,11.998,0.011,15.422
		c5.939,3.412,13.335-0.863,13.341-7.714"/>
</g>
<g>
	
		<path fill-rule="evenodd" clip-rule="evenodd" stroke="#000000" stroke-linecap="round" stroke-linejoin="round" stroke-miterlimit="10" d="
		M97.664,291.767c-0.024-6.902-7.444-11.193-13.362-7.737c-5.926,3.466-5.914,12.083,0.021,15.533
		C90.275,303,97.674,298.672,97.664,291.767"/>
</g>
<g>
	<path d="M404.205,160.588c0.949,0.608,2.313,1.071,3.772,1.071c2.166,0,3.432-1.144,3.432-2.799c0-1.509-0.876-2.41-3.091-3.237
		c-2.678-0.973-4.332-2.385-4.332-4.673c0-2.555,2.117-4.454,5.306-4.454c1.654,0,2.896,0.39,3.602,0.803l-0.584,1.728
		c-0.511-0.316-1.606-0.779-3.091-0.779c-2.239,0-3.091,1.338-3.091,2.458c0,1.533,0.998,2.288,3.261,3.164
		c2.774,1.071,4.162,2.409,4.162,4.819c0,2.531-1.85,4.746-5.72,4.746c-1.582,0-3.31-0.487-4.186-1.071L404.205,160.588z"/>
	<path d="M418.903,148.565v2.823h3.066v1.63h-3.066v6.352c0,1.46,0.414,2.288,1.606,2.288c0.584,0,0.925-0.049,1.241-0.146
		l0.098,1.63c-0.414,0.146-1.071,0.292-1.898,0.292c-0.998,0-1.802-0.341-2.313-0.9c-0.584-0.657-0.827-1.704-0.827-3.091v-6.425
		h-1.825v-1.63h1.825v-2.19L418.903,148.565z"/>
	<path d="M426.763,148.079c0,0.73-0.512,1.314-1.363,1.314c-0.778,0-1.29-0.584-1.29-1.314s0.535-1.339,1.339-1.339
		C426.227,146.74,426.763,147.324,426.763,148.079z M424.377,163.168v-11.779h2.142v11.779H424.377z"/>
	<path d="M430.07,154.577c0-1.241-0.024-2.215-0.097-3.188h1.898l0.121,1.947h0.049c0.584-1.095,1.947-2.19,3.894-2.19
		c1.631,0,4.162,0.974,4.162,5.014v7.009h-2.142v-6.79c0-1.898-0.706-3.48-2.726-3.48c-1.388,0-2.482,0.998-2.872,2.19
		c-0.098,0.268-0.146,0.633-0.146,0.998v7.083h-2.142V154.577z"/>
	<path d="M453.651,161.44c0,2.726-0.56,4.356-1.68,5.403c-1.168,1.047-2.823,1.412-4.308,1.412c-1.411,0-2.969-0.34-3.918-0.973
		l0.535-1.655c0.779,0.511,1.996,0.949,3.456,0.949c2.19,0,3.797-1.144,3.797-4.137v-1.29h-0.049
		c-0.633,1.095-1.923,1.971-3.748,1.971c-2.921,0-5.014-2.482-5.014-5.744c0-3.991,2.604-6.23,5.33-6.23
		c2.044,0,3.14,1.046,3.675,2.02h0.049l0.073-1.776h1.898c-0.073,0.827-0.098,1.801-0.098,3.212V161.44z M451.51,156.037
		c0-0.365-0.024-0.682-0.122-0.949c-0.39-1.266-1.411-2.288-2.993-2.288c-2.045,0-3.505,1.728-3.505,4.454
		c0,2.312,1.192,4.235,3.48,4.235c1.339,0,2.531-0.828,2.969-2.19c0.122-0.365,0.171-0.779,0.171-1.144V156.037z"/>
	<path d="M458.37,157.667c0.049,2.896,1.874,4.089,4.04,4.089c1.534,0,2.483-0.268,3.262-0.608l0.39,1.533
		c-0.755,0.341-2.069,0.754-3.943,0.754c-3.626,0-5.792-2.409-5.792-5.962c0-3.554,2.093-6.328,5.524-6.328
		c3.87,0,4.868,3.359,4.868,5.525c0,0.438-0.024,0.754-0.073,0.998H458.37z M464.649,156.134c0.024-1.338-0.56-3.456-2.969-3.456
		c-2.19,0-3.115,1.972-3.286,3.456H464.649z"/>
	<path d="M469.368,155.063c0-1.387-0.024-2.58-0.097-3.675h1.874l0.097,2.336h0.073c0.535-1.582,1.85-2.58,3.286-2.58
		c0.219,0,0.389,0.024,0.584,0.049v2.02c-0.22-0.049-0.438-0.049-0.73-0.049c-1.509,0-2.58,1.12-2.872,2.726
		c-0.049,0.292-0.073,0.657-0.073,0.998v6.279h-2.142V155.063z"/>
	<path d="M477.058,153.335c0-0.9,0.608-1.533,1.436-1.533c0.876,0,1.437,0.633,1.437,1.533c0,0.852-0.561,1.509-1.461,1.509
		C477.642,154.844,477.058,154.188,477.058,153.335z M477.058,161.927c0-0.9,0.608-1.533,1.436-1.533
		c0.876,0,1.437,0.633,1.437,1.533c0,0.852-0.561,1.509-1.461,1.509C477.642,163.436,477.058,162.778,477.058,161.927z"/>
	<path d="M501.44,155.477h-6.353v5.914h7.106v1.777h-9.248v-16.404h8.884v1.777h-6.742v5.184h6.353V155.477z"/>
	<path d="M504.869,145.888h2.142v17.28h-2.142V145.888z"/>
	<path d="M518.887,160.345c0,1.022,0.049,2.02,0.17,2.823h-1.923l-0.17-1.484h-0.073c-0.657,0.925-1.923,1.752-3.602,1.752
		c-2.386,0-3.603-1.679-3.603-3.383c0-2.848,2.531-4.405,7.083-4.381v-0.243c0-0.949-0.269-2.726-2.678-2.702
		c-1.119,0-2.264,0.316-3.091,0.876l-0.486-1.436c0.973-0.608,2.409-1.022,3.894-1.022c3.603,0,4.479,2.458,4.479,4.794V160.345z
		 M516.817,157.157c-2.336-0.049-4.989,0.365-4.989,2.653c0,1.411,0.925,2.044,1.996,2.044c1.558,0,2.556-0.973,2.896-1.971
		c0.072-0.243,0.097-0.487,0.097-0.682V157.157z"/>
	<path d="M522.048,161.002c0.657,0.389,1.777,0.828,2.848,0.828c1.533,0,2.264-0.755,2.264-1.752c0-1.022-0.608-1.558-2.166-2.142
		c-2.142-0.779-3.14-1.923-3.14-3.334c0-1.898,1.558-3.456,4.064-3.456c1.192,0,2.239,0.316,2.872,0.73l-0.512,1.558
		c-0.462-0.292-1.314-0.706-2.409-0.706c-1.266,0-1.947,0.73-1.947,1.606c0,0.973,0.682,1.412,2.215,2.02
		c2.021,0.754,3.091,1.776,3.091,3.529c0,2.093-1.631,3.553-4.381,3.553c-1.29,0-2.482-0.341-3.31-0.827L522.048,161.002z"/>
	<path d="M534.556,148.565v2.823h3.066v1.63h-3.066v6.352c0,1.46,0.414,2.288,1.606,2.288c0.584,0,0.925-0.049,1.241-0.146
		l0.098,1.63c-0.414,0.146-1.071,0.292-1.898,0.292c-0.998,0-1.802-0.341-2.313-0.9c-0.584-0.657-0.827-1.704-0.827-3.091v-6.425
		h-1.825v-1.63h1.825v-2.19L534.556,148.565z"/>
	<path d="M542.415,148.079c0,0.73-0.512,1.314-1.363,1.314c-0.778,0-1.29-0.584-1.29-1.314s0.535-1.339,1.339-1.339
		C541.879,146.74,542.415,147.324,542.415,148.079z M540.029,163.168v-11.779h2.142v11.779H540.029z"/>
	<path d="M554.12,162.754c-0.56,0.268-1.801,0.681-3.383,0.681c-3.553,0-5.865-2.409-5.865-6.011c0-3.626,2.482-6.279,6.328-6.279
		c1.266,0,2.385,0.316,2.969,0.633l-0.486,1.631c-0.512-0.268-1.314-0.56-2.482-0.56c-2.702,0-4.162,2.02-4.162,4.454
		c0,2.726,1.752,4.405,4.089,4.405c1.217,0,2.02-0.292,2.629-0.56L554.12,162.754z"/>
	<path d="M570.18,162.754c-0.56,0.268-1.801,0.681-3.383,0.681c-3.553,0-5.865-2.409-5.865-6.011c0-3.626,2.482-6.279,6.328-6.279
		c1.266,0,2.385,0.316,2.969,0.633l-0.486,1.631c-0.512-0.268-1.314-0.56-2.482-0.56c-2.702,0-4.162,2.02-4.162,4.454
		c0,2.726,1.752,4.405,4.089,4.405c1.217,0,2.02-0.292,2.629-0.56L570.18,162.754z"/>
	<path d="M583.198,157.181c0,4.356-3.042,6.255-5.865,6.255c-3.164,0-5.646-2.336-5.646-6.06c0-3.918,2.604-6.23,5.841-6.23
		C580.91,151.145,583.198,153.603,583.198,157.181z M573.877,157.303c0,2.58,1.46,4.527,3.554,4.527
		c2.044,0,3.577-1.923,3.577-4.576c0-1.996-0.998-4.502-3.529-4.502C574.972,152.751,573.877,155.088,573.877,157.303z"/>
	<path d="M585.897,154.577c0-1.241-0.024-2.215-0.097-3.188h1.898l0.121,1.947h0.049c0.584-1.095,1.947-2.19,3.894-2.19
		c1.631,0,4.162,0.974,4.162,5.014v7.009h-2.142v-6.79c0-1.898-0.706-3.48-2.726-3.48c-1.388,0-2.482,0.998-2.872,2.19
		c-0.098,0.268-0.146,0.633-0.146,0.998v7.083h-2.142V154.577z"/>
	<path d="M601.885,148.565v2.823h3.066v1.63h-3.066v6.352c0,1.46,0.414,2.288,1.606,2.288c0.584,0,0.925-0.049,1.241-0.146
		l0.098,1.63c-0.414,0.146-1.071,0.292-1.898,0.292c-0.998,0-1.802-0.341-2.313-0.9c-0.584-0.657-0.827-1.704-0.827-3.091v-6.425
		h-1.825v-1.63h1.825v-2.19L601.885,148.565z"/>
	<path d="M615.634,160.345c0,1.022,0.049,2.02,0.17,2.823h-1.923l-0.17-1.484h-0.073c-0.657,0.925-1.923,1.752-3.602,1.752
		c-2.386,0-3.603-1.679-3.603-3.383c0-2.848,2.531-4.405,7.083-4.381v-0.243c0-0.949-0.269-2.726-2.678-2.702
		c-1.119,0-2.264,0.316-3.091,0.876l-0.486-1.436c0.973-0.608,2.409-1.022,3.894-1.022c3.603,0,4.479,2.458,4.479,4.794V160.345z
		 M613.564,157.157c-2.336-0.049-4.989,0.365-4.989,2.653c0,1.411,0.925,2.044,1.996,2.044c1.558,0,2.556-0.973,2.896-1.971
		c0.072-0.243,0.097-0.487,0.097-0.682V157.157z"/>
	<path d="M627.483,162.754c-0.56,0.268-1.801,0.681-3.383,0.681c-3.553,0-5.865-2.409-5.865-6.011c0-3.626,2.482-6.279,6.328-6.279
		c1.266,0,2.385,0.316,2.969,0.633l-0.486,1.631c-0.512-0.268-1.314-0.56-2.482-0.56c-2.702,0-4.162,2.02-4.162,4.454
		c0,2.726,1.752,4.405,4.089,4.405c1.217,0,2.02-0.292,2.629-0.56L627.483,162.754z"/>
	<path d="M632.885,148.565v2.823h3.066v1.63h-3.066v6.352c0,1.46,0.414,2.288,1.606,2.288c0.584,0,0.925-0.049,1.241-0.146
		l0.098,1.63c-0.414,0.146-1.071,0.292-1.898,0.292c-0.998,0-1.802-0.341-2.313-0.9c-0.584-0.657-0.827-1.704-0.827-3.091v-6.425
		h-1.825v-1.63h1.825v-2.19L632.885,148.565z"/>
	<path d="M643.225,161.002c0.657,0.389,1.777,0.828,2.848,0.828c1.533,0,2.264-0.755,2.264-1.752c0-1.022-0.608-1.558-2.166-2.142
		c-2.142-0.779-3.14-1.923-3.14-3.334c0-1.898,1.558-3.456,4.064-3.456c1.192,0,2.239,0.316,2.872,0.73l-0.512,1.558
		c-0.462-0.292-1.314-0.706-2.409-0.706c-1.266,0-1.947,0.73-1.947,1.606c0,0.973,0.682,1.412,2.215,2.02
		c2.021,0.754,3.091,1.776,3.091,3.529c0,2.093-1.631,3.553-4.381,3.553c-1.29,0-2.482-0.341-3.31-0.827L643.225,161.002z"/>
	<path d="M663.01,159.931c0,1.241,0.024,2.312,0.097,3.237h-1.898l-0.121-1.923h-0.049c-0.535,0.949-1.801,2.19-3.895,2.19
		c-1.85,0-4.063-1.046-4.063-5.16v-6.887h2.142v6.498c0,2.239,0.705,3.772,2.628,3.772c1.437,0,2.434-0.998,2.823-1.972
		c0.122-0.292,0.195-0.681,0.195-1.095v-7.204h2.142V159.931z"/>
	<path d="M666.56,155.063c0-1.387-0.024-2.58-0.097-3.675h1.874l0.097,2.336h0.073c0.535-1.582,1.85-2.58,3.286-2.58
		c0.219,0,0.389,0.024,0.584,0.049v2.02c-0.22-0.049-0.438-0.049-0.73-0.049c-1.509,0-2.58,1.12-2.872,2.726
		c-0.049,0.292-0.073,0.657-0.073,0.998v6.279h-2.142V155.063z"/>
	<path d="M675.467,163.168v-10.149h-1.631v-1.63h1.631v-0.56c0-1.655,0.389-3.164,1.362-4.113c0.804-0.779,1.874-1.095,2.872-1.095
		c0.779,0,1.411,0.17,1.825,0.34l-0.292,1.655c-0.316-0.146-0.73-0.268-1.363-0.268c-1.825,0-2.287,1.582-2.287,3.407v0.633h2.848
		v1.63h-2.848v10.149H675.467z"/>
	<path d="M690.627,160.345c0,1.022,0.049,2.02,0.17,2.823h-1.923l-0.17-1.484h-0.073c-0.657,0.925-1.923,1.752-3.602,1.752
		c-2.386,0-3.603-1.679-3.603-3.383c0-2.848,2.531-4.405,7.083-4.381v-0.243c0-0.949-0.269-2.726-2.678-2.702
		c-1.119,0-2.264,0.316-3.091,0.876l-0.486-1.436c0.973-0.608,2.409-1.022,3.894-1.022c3.603,0,4.479,2.458,4.479,4.794V160.345z
		 M688.558,157.157c-2.336-0.049-4.989,0.365-4.989,2.653c0,1.411,0.925,2.044,1.996,2.044c1.558,0,2.556-0.973,2.896-1.971
		c0.072-0.243,0.097-0.487,0.097-0.682V157.157z"/>
	<path d="M702.477,162.754c-0.56,0.268-1.801,0.681-3.383,0.681c-3.553,0-5.865-2.409-5.865-6.011c0-3.626,2.482-6.279,6.328-6.279
		c1.266,0,2.385,0.316,2.969,0.633l-0.486,1.631c-0.512-0.268-1.314-0.56-2.482-0.56c-2.702,0-4.162,2.02-4.162,4.454
		c0,2.726,1.752,4.405,4.089,4.405c1.217,0,2.02-0.292,2.629-0.56L702.477,162.754z"/>
	<path d="M706.028,157.667c0.049,2.896,1.874,4.089,4.04,4.089c1.534,0,2.483-0.268,3.262-0.608l0.39,1.533
		c-0.755,0.341-2.069,0.754-3.943,0.754c-3.626,0-5.792-2.409-5.792-5.962c0-3.554,2.093-6.328,5.524-6.328
		c3.87,0,4.868,3.359,4.868,5.525c0,0.438-0.024,0.754-0.073,0.998H706.028z M712.308,156.134c0.024-1.338-0.56-3.456-2.969-3.456
		c-2.19,0-3.115,1.972-3.286,3.456H712.308z"/>
</g>
<g>
	<path d="M165.096,290.036c1.022-0.17,2.361-0.316,4.064-0.316c2.093,0,3.626,0.486,4.6,1.363c0.876,0.778,1.436,1.971,1.436,3.432
		c0,1.484-0.438,2.652-1.266,3.504c-1.144,1.193-2.945,1.802-5.013,1.802c-0.633,0-1.217-0.024-1.704-0.146v6.571h-2.118V290.036z
		 M167.213,297.946c0.462,0.121,1.046,0.17,1.752,0.17c2.556,0,4.113-1.266,4.113-3.48c0-2.19-1.558-3.236-3.87-3.236
		c-0.925,0-1.631,0.072-1.996,0.17V297.946z"/>
	<path d="M179.964,291.155c0,0.73-0.511,1.314-1.363,1.314c-0.779,0-1.29-0.584-1.29-1.314c0-0.729,0.536-1.338,1.339-1.338
		C179.429,289.817,179.964,290.401,179.964,291.155z M177.579,306.245v-11.779h2.142v11.779H177.579z"/>
	<path d="M183.273,298.311c0-1.509-0.049-2.726-0.098-3.845h1.898l0.122,2.02h0.049c0.852-1.436,2.263-2.263,4.186-2.263
		c2.872,0,5.014,2.409,5.014,5.962c0,4.235-2.604,6.328-5.379,6.328c-1.558,0-2.92-0.682-3.626-1.85h-0.049v6.401h-2.117V298.311z
		 M185.39,301.45c0,0.316,0.024,0.608,0.097,0.877c0.39,1.484,1.68,2.507,3.213,2.507c2.263,0,3.578-1.851,3.578-4.552
		c0-2.336-1.241-4.356-3.505-4.356c-1.46,0-2.847,1.022-3.237,2.629c-0.073,0.268-0.146,0.584-0.146,0.852V301.45z"/>
	<path d="M198.311,300.745c0.049,2.896,1.874,4.089,4.04,4.089c1.533,0,2.482-0.269,3.261-0.609l0.39,1.534
		c-0.755,0.34-2.069,0.754-3.943,0.754c-3.626,0-5.792-2.409-5.792-5.963c0-3.553,2.093-6.327,5.525-6.327
		c3.87,0,4.867,3.358,4.867,5.524c0,0.438-0.024,0.754-0.073,0.998H198.311z M204.59,299.212c0.024-1.339-0.56-3.456-2.969-3.456
		c-2.19,0-3.115,1.971-3.286,3.456H204.59z"/>
	<path d="M214.175,304.079c0.657,0.39,1.777,0.827,2.848,0.827c1.533,0,2.264-0.754,2.264-1.752c0-1.022-0.608-1.558-2.166-2.142
		c-2.142-0.779-3.14-1.923-3.14-3.335c0-1.897,1.558-3.455,4.064-3.455c1.192,0,2.239,0.316,2.872,0.729l-0.511,1.558
		c-0.462-0.292-1.314-0.705-2.409-0.705c-1.266,0-1.947,0.729-1.947,1.605c0,0.974,0.682,1.412,2.215,2.021
		c2.02,0.754,3.091,1.776,3.091,3.529c0,2.093-1.63,3.553-4.381,3.553c-1.29,0-2.482-0.341-3.31-0.827L214.175,304.079z"/>
	<path d="M233.959,303.008c0,1.241,0.024,2.313,0.098,3.237h-1.898l-0.122-1.923h-0.049c-0.536,0.949-1.801,2.19-3.894,2.19
		c-1.85,0-4.064-1.046-4.064-5.159v-6.888h2.142v6.498c0,2.239,0.706,3.772,2.628,3.772c1.436,0,2.434-0.998,2.823-1.972
		c0.122-0.292,0.195-0.682,0.195-1.095v-7.204h2.142V303.008z"/>
	<path d="M237.51,298.311c0-1.509-0.049-2.726-0.098-3.845h1.898l0.122,2.02h0.049c0.852-1.436,2.263-2.263,4.186-2.263
		c2.872,0,5.014,2.409,5.014,5.962c0,4.235-2.604,6.328-5.379,6.328c-1.558,0-2.92-0.682-3.626-1.85h-0.049v6.401h-2.117V298.311z
		 M239.627,301.45c0,0.316,0.024,0.608,0.097,0.877c0.39,1.484,1.68,2.507,3.213,2.507c2.263,0,3.578-1.851,3.578-4.552
		c0-2.336-1.241-4.356-3.505-4.356c-1.46,0-2.847,1.022-3.237,2.629c-0.073,0.268-0.146,0.584-0.146,0.852V301.45z"/>
	<path d="M251.355,298.311c0-1.509-0.049-2.726-0.098-3.845h1.898l0.122,2.02h0.049c0.852-1.436,2.263-2.263,4.186-2.263
		c2.872,0,5.014,2.409,5.014,5.962c0,4.235-2.604,6.328-5.379,6.328c-1.558,0-2.92-0.682-3.626-1.85h-0.049v6.401h-2.117V298.311z
		 M253.473,301.45c0,0.316,0.024,0.608,0.097,0.877c0.39,1.484,1.68,2.507,3.213,2.507c2.263,0,3.578-1.851,3.578-4.552
		c0-2.336-1.241-4.356-3.505-4.356c-1.46,0-2.847,1.022-3.237,2.629c-0.073,0.268-0.146,0.584-0.146,0.852V301.45z"/>
	<path d="M275.86,300.258c0,4.356-3.042,6.255-5.865,6.255c-3.164,0-5.646-2.336-5.646-6.06c0-3.919,2.604-6.23,5.841-6.23
		C273.573,294.223,275.86,296.681,275.86,300.258z M266.539,300.38c0,2.58,1.46,4.526,3.553,4.526c2.044,0,3.578-1.923,3.578-4.575
		c0-1.996-0.998-4.503-3.529-4.503C267.634,295.828,266.539,298.165,266.539,300.38z"/>
	<path d="M278.56,298.141c0-1.388-0.024-2.58-0.098-3.675h1.874l0.098,2.336h0.073c0.536-1.582,1.85-2.579,3.286-2.579
		c0.219,0,0.39,0.024,0.584,0.048v2.021c-0.219-0.049-0.438-0.049-0.73-0.049c-1.509,0-2.58,1.12-2.872,2.726
		c-0.048,0.292-0.073,0.657-0.073,0.998v6.279h-2.142V298.141z"/>
	<path d="M289.68,291.643v2.823h3.066v1.631h-3.066v6.352c0,1.46,0.414,2.288,1.606,2.288c0.584,0,0.925-0.049,1.241-0.146
		l0.097,1.631c-0.414,0.146-1.071,0.292-1.898,0.292c-0.998,0-1.801-0.341-2.312-0.9c-0.584-0.657-0.828-1.704-0.828-3.091v-6.425
		h-1.825v-1.631h1.825v-2.19L289.68,291.643z"/>
	<path d="M294.667,296.413c0-0.901,0.608-1.534,1.436-1.534c0.876,0,1.436,0.633,1.436,1.534c0,0.852-0.56,1.509-1.46,1.509
		C295.251,297.922,294.667,297.265,294.667,296.413z M294.667,305.004c0-0.9,0.608-1.533,1.436-1.533
		c0.876,0,1.436,0.633,1.436,1.533c0,0.852-0.56,1.509-1.46,1.509C295.251,306.513,294.667,305.855,294.667,305.004z"/>
	<path d="M322.019,305.734c-0.754,0.389-2.336,0.778-4.332,0.778c-4.624,0-8.08-2.92-8.08-8.323c0-5.16,3.48-8.615,8.567-8.615
		c2.02,0,3.334,0.438,3.894,0.729l-0.535,1.729c-0.779-0.39-1.923-0.682-3.286-0.682c-3.845,0-6.4,2.458-6.4,6.766
		c0,4.04,2.313,6.596,6.279,6.596c1.314,0,2.628-0.268,3.48-0.682L322.019,305.734z"/>
	<path d="M335.013,300.258c0,4.356-3.042,6.255-5.865,6.255c-3.164,0-5.646-2.336-5.646-6.06c0-3.919,2.604-6.23,5.841-6.23
		C332.725,294.223,335.013,296.681,335.013,300.258z M325.691,300.38c0,2.58,1.46,4.526,3.554,4.526
		c2.044,0,3.577-1.923,3.577-4.575c0-1.996-0.998-4.503-3.529-4.503C326.786,295.828,325.691,298.165,325.691,300.38z"/>
	<path d="M337.712,297.654c0-1.241-0.024-2.215-0.097-3.188h1.898l0.121,1.947h0.049c0.584-1.096,1.947-2.19,3.894-2.19
		c1.631,0,4.162,0.973,4.162,5.014v7.009h-2.142v-6.79c0-1.898-0.706-3.48-2.726-3.48c-1.388,0-2.482,0.998-2.872,2.19
		c-0.098,0.268-0.146,0.633-0.146,0.998v7.082h-2.142V297.654z"/>
	<path d="M353.699,291.643v2.823h3.066v1.631h-3.066v6.352c0,1.46,0.414,2.288,1.606,2.288c0.584,0,0.925-0.049,1.241-0.146
		l0.098,1.631c-0.414,0.146-1.071,0.292-1.898,0.292c-0.998,0-1.802-0.341-2.313-0.9c-0.584-0.657-0.827-1.704-0.827-3.091v-6.425
		h-1.825v-1.631h1.825v-2.19L353.699,291.643z"/>
	<path d="M367.448,303.422c0,1.022,0.049,2.021,0.17,2.823h-1.923l-0.17-1.484h-0.073c-0.657,0.925-1.923,1.752-3.602,1.752
		c-2.386,0-3.603-1.679-3.603-3.383c0-2.848,2.531-4.405,7.083-4.381v-0.243c0-0.949-0.269-2.726-2.678-2.701
		c-1.119,0-2.264,0.316-3.091,0.876l-0.486-1.437c0.973-0.608,2.409-1.021,3.894-1.021c3.603,0,4.479,2.458,4.479,4.794V303.422z
		 M365.379,300.233c-2.336-0.049-4.989,0.365-4.989,2.653c0,1.411,0.925,2.044,1.996,2.044c1.558,0,2.556-0.974,2.896-1.971
		c0.072-0.244,0.097-0.487,0.097-0.682V300.233z"/>
	<path d="M379.298,305.831c-0.56,0.268-1.801,0.682-3.383,0.682c-3.553,0-5.865-2.409-5.865-6.012c0-3.626,2.482-6.278,6.328-6.278
		c1.266,0,2.385,0.316,2.969,0.633l-0.486,1.63c-0.512-0.268-1.314-0.56-2.482-0.56c-2.702,0-4.162,2.021-4.162,4.454
		c0,2.726,1.752,4.405,4.089,4.405c1.217,0,2.02-0.292,2.629-0.561L379.298,305.831z"/>
	<path d="M384.699,291.643v2.823h3.066v1.631h-3.066v6.352c0,1.46,0.414,2.288,1.606,2.288c0.584,0,0.925-0.049,1.241-0.146
		l0.098,1.631c-0.414,0.146-1.071,0.292-1.898,0.292c-0.998,0-1.802-0.341-2.313-0.9c-0.584-0.657-0.827-1.704-0.827-3.091v-6.425
		h-1.825v-1.631h1.825v-2.19L384.699,291.643z"/>
	<path d="M395.331,298.311c0-1.509-0.049-2.726-0.097-3.845h1.898l0.121,2.02h0.049c0.852-1.436,2.264-2.263,4.187-2.263
		c2.871,0,5.013,2.409,5.013,5.962c0,4.235-2.604,6.328-5.378,6.328c-1.558,0-2.921-0.682-3.627-1.85h-0.048v6.401h-2.118V298.311z
		 M397.449,301.45c0,0.316,0.023,0.608,0.097,0.877c0.39,1.484,1.68,2.507,3.213,2.507c2.264,0,3.577-1.851,3.577-4.552
		c0-2.336-1.241-4.356-3.504-4.356c-1.461,0-2.848,1.022-3.237,2.629c-0.073,0.268-0.146,0.584-0.146,0.852V301.45z"/>
	<path d="M419.837,300.258c0,4.356-3.042,6.255-5.865,6.255c-3.164,0-5.646-2.336-5.646-6.06c0-3.919,2.604-6.23,5.841-6.23
		C417.549,294.223,419.837,296.681,419.837,300.258z M410.516,300.38c0,2.58,1.46,4.526,3.554,4.526
		c2.044,0,3.577-1.923,3.577-4.575c0-1.996-0.998-4.503-3.529-4.503C411.61,295.828,410.516,298.165,410.516,300.38z"/>
	<path d="M424.921,291.155c0,0.73-0.512,1.314-1.363,1.314c-0.778,0-1.29-0.584-1.29-1.314c0-0.729,0.535-1.338,1.339-1.338
		C424.385,289.817,424.921,290.401,424.921,291.155z M422.535,306.245v-11.779h2.142v11.779H422.535z"/>
	<path d="M428.229,297.654c0-1.241-0.024-2.215-0.097-3.188h1.898l0.121,1.947h0.049c0.584-1.096,1.947-2.19,3.894-2.19
		c1.631,0,4.162,0.973,4.162,5.014v7.009h-2.142v-6.79c0-1.898-0.706-3.48-2.726-3.48c-1.388,0-2.482,0.998-2.872,2.19
		c-0.098,0.268-0.146,0.633-0.146,0.998v7.082h-2.142V297.654z"/>
	<path d="M444.217,291.643v2.823h3.066v1.631h-3.066v6.352c0,1.46,0.414,2.288,1.606,2.288c0.584,0,0.925-0.049,1.241-0.146
		l0.098,1.631c-0.414,0.146-1.071,0.292-1.898,0.292c-0.998,0-1.802-0.341-2.313-0.9c-0.584-0.657-0.827-1.704-0.827-3.091v-6.425
		h-1.825v-1.631h1.825v-2.19L444.217,291.643z"/>
	<path d="M463.245,305.831c-0.56,0.268-1.801,0.682-3.383,0.682c-3.553,0-5.865-2.409-5.865-6.012c0-3.626,2.482-6.278,6.328-6.278
		c1.266,0,2.385,0.316,2.969,0.633l-0.486,1.63c-0.512-0.268-1.314-0.56-2.482-0.56c-2.702,0-4.162,2.021-4.162,4.454
		c0,2.726,1.752,4.405,4.089,4.405c1.217,0,2.02-0.292,2.629-0.561L463.245,305.831z"/>
	<path d="M476.265,300.258c0,4.356-3.042,6.255-5.865,6.255c-3.164,0-5.646-2.336-5.646-6.06c0-3.919,2.604-6.23,5.841-6.23
		C473.977,294.223,476.265,296.681,476.265,300.258z M466.943,300.38c0,2.58,1.46,4.526,3.554,4.526
		c2.044,0,3.577-1.923,3.577-4.575c0-1.996-0.998-4.503-3.529-4.503C468.038,295.828,466.943,298.165,466.943,300.38z"/>
	<path d="M478.963,297.654c0-1.241-0.024-2.215-0.097-3.188h1.898l0.121,1.947h0.049c0.584-1.096,1.947-2.19,3.894-2.19
		c1.631,0,4.162,0.973,4.162,5.014v7.009h-2.142v-6.79c0-1.898-0.706-3.48-2.726-3.48c-1.388,0-2.482,0.998-2.872,2.19
		c-0.098,0.268-0.146,0.633-0.146,0.998v7.082h-2.142V297.654z"/>
	<path d="M492.176,304.079c0.657,0.39,1.777,0.827,2.848,0.827c1.533,0,2.264-0.754,2.264-1.752c0-1.022-0.608-1.558-2.166-2.142
		c-2.142-0.779-3.14-1.923-3.14-3.335c0-1.897,1.558-3.455,4.064-3.455c1.192,0,2.239,0.316,2.872,0.729l-0.512,1.558
		c-0.462-0.292-1.314-0.705-2.409-0.705c-1.266,0-1.947,0.729-1.947,1.605c0,0.974,0.682,1.412,2.215,2.021
		c2.021,0.754,3.091,1.776,3.091,3.529c0,2.093-1.631,3.553-4.381,3.553c-1.29,0-2.482-0.341-3.31-0.827L492.176,304.079z"/>
	<path d="M504.489,291.155c0,0.73-0.512,1.314-1.363,1.314c-0.778,0-1.29-0.584-1.29-1.314c0-0.729,0.535-1.338,1.339-1.338
		C503.953,289.817,504.489,290.401,504.489,291.155z M502.104,306.245v-11.779h2.142v11.779H502.104z"/>
	<path d="M507.506,304.079c0.657,0.39,1.777,0.827,2.848,0.827c1.533,0,2.264-0.754,2.264-1.752c0-1.022-0.608-1.558-2.166-2.142
		c-2.142-0.779-3.14-1.923-3.14-3.335c0-1.897,1.558-3.455,4.064-3.455c1.192,0,2.239,0.316,2.872,0.729l-0.512,1.558
		c-0.462-0.292-1.314-0.705-2.409-0.705c-1.266,0-1.947,0.729-1.947,1.605c0,0.974,0.682,1.412,2.215,2.021
		c2.021,0.754,3.091,1.776,3.091,3.529c0,2.093-1.631,3.553-4.381,3.553c-1.29,0-2.482-0.341-3.31-0.827L507.506,304.079z"/>
	<path d="M520.014,291.643v2.823h3.066v1.631h-3.066v6.352c0,1.46,0.414,2.288,1.606,2.288c0.584,0,0.925-0.049,1.241-0.146
		l0.098,1.631c-0.414,0.146-1.071,0.292-1.898,0.292c-0.998,0-1.802-0.341-2.313-0.9c-0.584-0.657-0.827-1.704-0.827-3.091v-6.425
		h-1.825v-1.631h1.825v-2.19L520.014,291.643z"/>
	<path d="M527.873,291.155c0,0.73-0.512,1.314-1.363,1.314c-0.778,0-1.29-0.584-1.29-1.314c0-0.729,0.535-1.338,1.339-1.338
		C527.337,289.817,527.873,290.401,527.873,291.155z M525.487,306.245v-11.779h2.142v11.779H525.487z"/>
	<path d="M531.181,297.654c0-1.241-0.024-2.215-0.097-3.188h1.898l0.121,1.947h0.049c0.584-1.096,1.947-2.19,3.894-2.19
		c1.631,0,4.162,0.973,4.162,5.014v7.009h-2.142v-6.79c0-1.898-0.706-3.48-2.726-3.48c-1.388,0-2.482,0.998-2.872,2.19
		c-0.098,0.268-0.146,0.633-0.146,0.998v7.082h-2.142V297.654z"/>
	<path d="M554.762,304.518c0,2.726-0.56,4.356-1.68,5.402c-1.168,1.047-2.823,1.412-4.308,1.412c-1.411,0-2.969-0.341-3.918-0.974
		l0.535-1.655c0.779,0.511,1.996,0.949,3.456,0.949c2.19,0,3.797-1.144,3.797-4.138v-1.29h-0.049
		c-0.633,1.096-1.923,1.972-3.748,1.972c-2.921,0-5.014-2.482-5.014-5.743c0-3.992,2.604-6.23,5.33-6.23
		c2.044,0,3.14,1.046,3.675,2.02h0.049l0.073-1.776h1.898c-0.073,0.827-0.098,1.801-0.098,3.212V304.518z M552.62,299.114
		c0-0.365-0.024-0.682-0.122-0.949c-0.39-1.266-1.411-2.288-2.993-2.288c-2.045,0-3.505,1.729-3.505,4.454
		c0,2.313,1.192,4.234,3.48,4.234c1.339,0,2.531-0.827,2.969-2.19c0.122-0.364,0.171-0.778,0.171-1.144V299.114z"/>
	<path d="M574.106,300.258c0,4.356-3.042,6.255-5.865,6.255c-3.164,0-5.646-2.336-5.646-6.06c0-3.919,2.604-6.23,5.841-6.23
		C571.818,294.223,574.106,296.681,574.106,300.258z M564.785,300.38c0,2.58,1.46,4.526,3.554,4.526
		c2.044,0,3.577-1.923,3.577-4.575c0-1.996-0.998-4.503-3.529-4.503C565.88,295.828,564.785,298.165,564.785,300.38z"/>
	<path d="M577.024,306.245v-10.148h-1.631v-1.631h1.631v-0.56c0-1.655,0.389-3.164,1.362-4.113c0.804-0.779,1.874-1.096,2.872-1.096
		c0.778,0,1.411,0.171,1.825,0.341l-0.292,1.655c-0.316-0.146-0.73-0.268-1.363-0.268c-1.825,0-2.287,1.582-2.287,3.407v0.633h2.848
		v1.631h-2.848v10.148H577.024z"/>
	<path d="M589.068,298.141c0-1.388-0.024-2.58-0.097-3.675h1.874l0.097,2.336h0.073c0.535-1.582,1.85-2.579,3.285-2.579
		c0.22,0,0.39,0.024,0.585,0.048v2.021c-0.22-0.049-0.438-0.049-0.73-0.049c-1.509,0-2.58,1.12-2.872,2.726
		c-0.049,0.292-0.073,0.657-0.073,0.998v6.279h-2.142V298.141z"/>
	<path d="M607.442,300.258c0,4.356-3.042,6.255-5.865,6.255c-3.164,0-5.646-2.336-5.646-6.06c0-3.919,2.604-6.23,5.841-6.23
		C605.154,294.223,607.442,296.681,607.442,300.258z M598.121,300.38c0,2.58,1.46,4.526,3.554,4.526
		c2.044,0,3.577-1.923,3.577-4.575c0-1.996-0.998-4.503-3.529-4.503C599.216,295.828,598.121,298.165,598.121,300.38z"/>
	<path d="M610.141,288.965h2.142v17.28h-2.142V288.965z"/>
	<path d="M615.884,288.965h2.142v17.28h-2.142V288.965z"/>
	<path d="M622.818,300.745c0.049,2.896,1.874,4.089,4.041,4.089c1.533,0,2.482-0.269,3.261-0.609l0.39,1.534
		c-0.755,0.34-2.069,0.754-3.943,0.754c-3.626,0-5.792-2.409-5.792-5.963c0-3.553,2.093-6.327,5.524-6.327
		c3.87,0,4.868,3.358,4.868,5.524c0,0.438-0.024,0.754-0.073,0.998H622.818z M629.098,299.212c0.024-1.339-0.56-3.456-2.969-3.456
		c-2.19,0-3.115,1.971-3.286,3.456H629.098z"/>
	<path d="M633.816,298.141c0-1.388-0.024-2.58-0.097-3.675h1.874l0.097,2.336h0.073c0.535-1.582,1.85-2.579,3.285-2.579
		c0.22,0,0.39,0.024,0.585,0.048v2.021c-0.22-0.049-0.438-0.049-0.73-0.049c-1.509,0-2.58,1.12-2.872,2.726
		c-0.049,0.292-0.073,0.657-0.073,0.998v6.279h-2.142V298.141z"/>
	<path d="M646.397,289.354c-1.776,2.409-3.042,5.549-3.042,9.979c0,4.332,1.339,7.423,3.042,9.857h-1.654
		c-1.533-2.021-3.188-5.136-3.188-9.882c0.024-4.77,1.655-7.909,3.188-9.954H646.397z"/>
	<path d="M648.392,304.079c0.657,0.39,1.777,0.827,2.848,0.827c1.533,0,2.264-0.754,2.264-1.752c0-1.022-0.608-1.558-2.166-2.142
		c-2.142-0.779-3.14-1.923-3.14-3.335c0-1.897,1.558-3.455,4.064-3.455c1.192,0,2.239,0.316,2.872,0.729l-0.512,1.558
		c-0.462-0.292-1.314-0.705-2.409-0.705c-1.266,0-1.947,0.729-1.947,1.605c0,0.974,0.682,1.412,2.215,2.021
		c2.021,0.754,3.091,1.776,3.091,3.529c0,2.093-1.631,3.553-4.381,3.553c-1.29,0-2.482-0.341-3.31-0.827L648.392,304.079z"/>
	<path d="M657.029,309.19c1.704-2.41,3.043-5.55,3.043-9.931s-1.314-7.472-3.043-9.905h1.655c1.533,1.996,3.188,5.136,3.188,9.905
		c-0.024,4.771-1.655,7.886-3.188,9.931H657.029z"/>
</g>
<g>
	<path d="M307.416,331.596c0,1.022,0.049,2.021,0.17,2.823h-1.923l-0.17-1.484h-0.073c-0.657,0.925-1.923,1.752-3.602,1.752
		c-2.386,0-3.602-1.679-3.602-3.383c0-2.848,2.531-4.405,7.083-4.381v-0.243c0-0.949-0.269-2.726-2.678-2.701
		c-1.119,0-2.264,0.316-3.091,0.876l-0.486-1.437c0.973-0.608,2.409-1.021,3.894-1.021c3.603,0,4.479,2.458,4.479,4.794V331.596z
		 M305.347,328.407c-2.336-0.049-4.989,0.365-4.989,2.653c0,1.411,0.925,2.044,1.996,2.044c1.558,0,2.556-0.974,2.896-1.971
		c0.072-0.244,0.097-0.487,0.097-0.682V328.407z"/>
	<path d="M310.869,325.828c0-1.241-0.024-2.215-0.097-3.188h1.898l0.121,1.947h0.049c0.584-1.096,1.947-2.19,3.894-2.19
		c1.631,0,4.162,0.973,4.162,5.014v7.009h-2.142v-6.79c0-1.898-0.706-3.48-2.726-3.48c-1.388,0-2.482,0.998-2.872,2.19
		c-0.098,0.268-0.146,0.633-0.146,0.998v7.082h-2.142V325.828z"/>
	<path d="M334.523,317.139v14.238c0,1.046,0.049,2.239,0.097,3.042h-1.897l-0.098-2.044h-0.073
		c-0.633,1.313-2.044,2.312-3.967,2.312c-2.848,0-5.063-2.409-5.063-5.987c-0.024-3.918,2.434-6.303,5.281-6.303
		c1.825,0,3.018,0.852,3.554,1.776h0.049v-7.034H334.523z M332.406,327.434c0-0.268-0.024-0.633-0.098-0.9
		c-0.316-1.338-1.484-2.458-3.091-2.458c-2.215,0-3.529,1.947-3.529,4.527c0,2.385,1.192,4.356,3.48,4.356
		c1.436,0,2.75-0.974,3.14-2.556c0.073-0.292,0.098-0.584,0.098-0.925V327.434z"/>
	<path d="M336.297,335.368l6.766-17.645h1.68l-6.814,17.645H336.297z"/>
	<path d="M357.104,328.432c0,4.356-3.042,6.255-5.865,6.255c-3.164,0-5.646-2.336-5.646-6.06c0-3.919,2.604-6.23,5.841-6.23
		C354.815,322.396,357.104,324.854,357.104,328.432z M347.782,328.554c0,2.58,1.46,4.526,3.554,4.526
		c2.044,0,3.577-1.923,3.577-4.575c0-1.996-0.998-4.503-3.529-4.503C348.877,324.002,347.782,326.339,347.782,328.554z"/>
	<path d="M359.802,326.314c0-1.388-0.024-2.58-0.097-3.675h1.874l0.097,2.336h0.073c0.535-1.582,1.85-2.579,3.286-2.579
		c0.219,0,0.389,0.024,0.584,0.048v2.021c-0.22-0.049-0.438-0.049-0.73-0.049c-1.509,0-2.58,1.12-2.872,2.726
		c-0.049,0.292-0.073,0.657-0.073,0.998v6.279h-2.142V326.314z"/>
	<path d="M375.497,319.816v2.823h3.066v1.631h-3.066v6.352c0,1.46,0.414,2.288,1.606,2.288c0.584,0,0.925-0.049,1.241-0.146
		l0.098,1.631c-0.414,0.146-1.071,0.292-1.898,0.292c-0.998,0-1.802-0.341-2.313-0.9c-0.584-0.657-0.827-1.704-0.827-3.091v-6.425
		h-1.825v-1.631h1.825v-2.19L375.497,319.816z"/>
	<path d="M382.018,328.919c0.049,2.896,1.874,4.089,4.041,4.089c1.533,0,2.482-0.269,3.261-0.609l0.39,1.534
		c-0.755,0.34-2.069,0.754-3.943,0.754c-3.626,0-5.792-2.409-5.792-5.963c0-3.553,2.093-6.327,5.524-6.327
		c3.87,0,4.868,3.358,4.868,5.524c0,0.438-0.024,0.754-0.073,0.998H382.018z M388.297,327.386c0.024-1.339-0.56-3.456-2.969-3.456
		c-2.19,0-3.115,1.971-3.286,3.456H388.297z"/>
	<path d="M393.017,325.828c0-1.241-0.024-2.215-0.097-3.188h1.898l0.121,1.947h0.049c0.584-1.096,1.947-2.19,3.894-2.19
		c1.631,0,4.162,0.973,4.162,5.014v7.009h-2.142v-6.79c0-1.898-0.706-3.48-2.726-3.48c-1.388,0-2.482,0.998-2.872,2.19
		c-0.098,0.268-0.146,0.633-0.146,0.998v7.082h-2.142V325.828z"/>
	<path d="M406.229,332.253c0.657,0.39,1.777,0.827,2.848,0.827c1.533,0,2.264-0.754,2.264-1.752c0-1.022-0.608-1.558-2.166-2.142
		c-2.142-0.779-3.14-1.923-3.14-3.335c0-1.897,1.558-3.455,4.064-3.455c1.192,0,2.239,0.316,2.872,0.729l-0.512,1.558
		c-0.462-0.292-1.314-0.705-2.409-0.705c-1.266,0-1.947,0.729-1.947,1.605c0,0.974,0.682,1.412,2.215,2.021
		c2.021,0.754,3.091,1.776,3.091,3.529c0,2.093-1.631,3.553-4.381,3.553c-1.29,0-2.482-0.341-3.31-0.827L406.229,332.253z"/>
	<path d="M418.543,319.329c0,0.73-0.512,1.314-1.363,1.314c-0.778,0-1.29-0.584-1.29-1.314c0-0.729,0.535-1.338,1.339-1.338
		C418.007,317.991,418.543,318.575,418.543,319.329z M416.157,334.419V322.64h2.142v11.779H416.157z"/>
	<path d="M432.511,328.432c0,4.356-3.042,6.255-5.865,6.255c-3.164,0-5.646-2.336-5.646-6.06c0-3.919,2.604-6.23,5.841-6.23
		C430.223,322.396,432.511,324.854,432.511,328.432z M423.189,328.554c0,2.58,1.46,4.526,3.554,4.526
		c2.044,0,3.577-1.923,3.577-4.575c0-1.996-0.998-4.503-3.529-4.503C424.284,324.002,423.189,326.339,423.189,328.554z"/>
	<path d="M435.21,325.828c0-1.241-0.024-2.215-0.097-3.188h1.898l0.121,1.947h0.049c0.584-1.096,1.947-2.19,3.894-2.19
		c1.631,0,4.162,0.973,4.162,5.014v7.009h-2.142v-6.79c0-1.898-0.706-3.48-2.726-3.48c-1.388,0-2.482,0.998-2.872,2.19
		c-0.098,0.268-0.146,0.633-0.146,0.998v7.082h-2.142V325.828z"/>
	<path d="M449.906,328.919c0.049,2.896,1.874,4.089,4.041,4.089c1.533,0,2.482-0.269,3.261-0.609l0.39,1.534
		c-0.755,0.34-2.069,0.754-3.943,0.754c-3.626,0-5.792-2.409-5.792-5.963c0-3.553,2.093-6.327,5.524-6.327
		c3.87,0,4.868,3.358,4.868,5.524c0,0.438-0.024,0.754-0.073,0.998H449.906z M456.186,327.386c0.024-1.339-0.56-3.456-2.969-3.456
		c-2.19,0-3.115,1.971-3.286,3.456H456.186z"/>
	<path d="M460.905,326.314c0-1.388-0.024-2.58-0.097-3.675h1.874l0.097,2.336h0.073c0.535-1.582,1.85-2.579,3.286-2.579
		c0.219,0,0.389,0.024,0.584,0.048v2.021c-0.22-0.049-0.438-0.049-0.73-0.049c-1.509,0-2.58,1.12-2.872,2.726
		c-0.049,0.292-0.073,0.657-0.073,0.998v6.279h-2.142V326.314z"/>
	<path d="M467.062,333.153c0-0.876,0.608-1.533,1.46-1.533c0.853,0,1.437,0.633,1.437,1.533c0,0.876-0.584,1.533-1.485,1.533
		C467.646,334.687,467.062,334.029,467.062,333.153z"/>
</g>
<path fill-rule="evenodd" clip-rule="evenodd" fill="none" stroke="#000000" stroke-linecap="round" stroke-linejoin="round" stroke-miterlimit="10" d="
	M159.565,300.423c-5.621,0.604-11.242,0.201-11.242-7.897c0-8.432,21.682-12.514,15.191-21.949
	c-6.96-9.303-69.063-8.432-83.317-10.105c-13.987-1.739-0.535,0-0.602,0s0,0,0,0s0-0.134,0,0c0,0.067,0,0.267,0,0.536"/>
<g>
	
		<polyline fill-rule="evenodd" clip-rule="evenodd" fill="none" stroke="#000000" stroke-linecap="round" stroke-linejoin="round" stroke-miterlimit="10" points="
		477.106,135.998 472.957,134.124 470.147,132.049 467.938,129.372 466.801,126.561 466.467,124.554 466.6,122.412 468.14,118.799 
		476.57,106.15 477.708,102.938 477.507,101.332 476.37,99.458 474.095,97.853 471.217,96.916 467.47,96.447 461.381,96.581 	"/>
</g>
<g>
	<path d="M141.05,157.137c0.506-0.481,1.199-1.066,2.15-1.708c1.168-0.788,2.208-1.094,3.081-0.973
		c0.782,0.106,1.544,0.561,2.094,1.375c0.559,0.829,0.755,1.646,0.613,2.433c-0.189,1.097-0.965,2.115-2.12,2.894
		c-0.354,0.238-0.688,0.444-1.006,0.56l2.475,3.668l-1.182,0.797L141.05,157.137z M145.21,160.754
		c0.304-0.106,0.648-0.299,1.042-0.565c1.427-0.962,1.82-2.256,0.986-3.492c-0.825-1.222-2.089-1.22-3.379-0.35
		c-0.517,0.349-0.883,0.655-1.05,0.848L145.21,160.754z"/>
	<path d="M149.772,152.162c0.275,0.407,0.21,0.926-0.266,1.247c-0.435,0.293-0.94,0.159-1.215-0.248
		c-0.275-0.408-0.206-0.948,0.243-1.251C148.97,151.616,149.487,151.74,149.772,152.162z M154.124,161.481l-4.436-6.575l1.195-0.807
		l4.436,6.575L154.124,161.481z"/>
	<path d="M154.314,154.908c-0.568-0.842-1.053-1.503-1.502-2.11l1.06-0.715l0.829,1.082l0.027-0.018
		c-0.065-1.122,0.411-2.116,1.484-2.84c1.603-1.082,3.706-0.543,5.044,1.44c1.595,2.364,0.93,4.514-0.619,5.559
		c-0.87,0.587-1.887,0.719-2.722,0.333l-0.027,0.019l2.411,3.573l-1.182,0.797L154.314,154.908z M156.679,155.864
		c0.119,0.177,0.243,0.331,0.384,0.453c0.777,0.681,1.882,0.767,2.737,0.189c1.264-0.853,1.3-2.38,0.283-3.887
		c-0.88-1.305-2.333-1.965-3.597-1.113c-0.815,0.55-1.204,1.644-0.817,2.686c0.06,0.178,0.139,0.381,0.239,0.531L156.679,155.864z"
		/>
	<path d="M163.626,150.603c1.118,1.599,2.586,1.577,3.795,0.762c0.856-0.578,1.285-1.085,1.591-1.568l0.795,0.709
		c-0.293,0.475-0.87,1.201-1.917,1.907c-2.024,1.366-4.141,0.835-5.479-1.148s-1.215-4.32,0.701-5.613
		c2.16-1.457,3.982,0.042,4.797,1.251c0.165,0.244,0.271,0.431,0.335,0.584L163.626,150.603z M166.554,147.382
		c-0.49-0.756-1.614-1.719-2.959-0.812c-1.223,0.825-0.996,2.275-0.532,3.167L166.554,147.382z"/>
</g>
<g>
	
		<polyline fill-rule="evenodd" clip-rule="evenodd" fill="none" stroke="#000000" stroke-linecap="round" stroke-linejoin="round" stroke-miterlimit="10" points="
		73.974,294.802 53.696,259.869 91.975,277.336 	"/>
</g>
<g>
	
		<polyline fill-rule="evenodd" clip-rule="evenodd" fill="none" stroke="#000000" stroke-linecap="round" stroke-linejoin="round" stroke-miterlimit="10" points="
		147.185,223.865 130.253,183.311 161.841,204.726 	"/>
</g>
<g>
	
		<polyline fill-rule="evenodd" clip-rule="evenodd" fill="none" stroke="#000000" stroke-linecap="round" stroke-linejoin="round" stroke-miterlimit="10" points="
		223.742,159.085 211.964,127.565 250.779,149.515 	"/>
</g>
<g>
	
		<polyline fill-rule="evenodd" clip-rule="evenodd" fill="none" stroke="#000000" stroke-linecap="round" stroke-linejoin="round" stroke-miterlimit="10" points="
		320.577,117.996 317.767,79.114 340.854,108.961 	"/>
</g>
<g>
	
		<polyline fill-rule="evenodd" clip-rule="evenodd" fill="none" stroke="#000000" stroke-linecap="round" stroke-linejoin="round" stroke-miterlimit="10" points="
		420.29,83.063 414.066,49.335 445.587,83.063 	"/>
</g>
<g>
	
		<polyline fill-rule="evenodd" clip-rule="evenodd" fill="none" stroke="#000000" stroke-linecap="round" stroke-linejoin="round" stroke-miterlimit="10" points="
		549.783,66.734 562.164,30.73 568.922,67.336 	"/>
</g>
</svg>
