<?xml version="1.0" encoding="UTF-8" standalone="no"?>
<!-- Generator: Adobe Illustrator 15.0.0, SVG Export Plug-In . SVG Version: 6.00 Build 0)  -->

<svg
   xmlns:dc="http://purl.org/dc/elements/1.1/"
   xmlns:cc="http://creativecommons.org/ns#"
   xmlns:rdf="http://www.w3.org/1999/02/22-rdf-syntax-ns#"
   xmlns:svg="http://www.w3.org/2000/svg"
   xmlns="http://www.w3.org/2000/svg"
   xmlns:sodipodi="http://sodipodi.sourceforge.net/DTD/sodipodi-0.dtd"
   xmlns:inkscape="http://www.inkscape.org/namespaces/inkscape"
   version="1.1"
   id="_x3C_Layer_x3E_"
   x="0px"
   y="0px"
   width="734.5px"
   height="637.5px"
   viewBox="0 0 734.5 637.5"
   enable-background="new 0 0 734.5 637.5"
   xml:space="preserve"
   inkscape:version="0.91 r13725"
   sodipodi:docname="um_ii_fig71.svg"><metadata
     id="metadata5283"><rdf:RDF><cc:Work
         rdf:about=""><dc:format>image/svg+xml</dc:format><dc:type
           rdf:resource="http://purl.org/dc/dcmitype/StillImage" /></cc:Work></rdf:RDF></metadata><defs
     id="defs5281" /><sodipodi:namedview
     pagecolor="#ffffff"
     bordercolor="#666666"
     borderopacity="1"
     objecttolerance="10"
     gridtolerance="10"
     guidetolerance="10"
     inkscape:pageopacity="0"
     inkscape:pageshadow="2"
     inkscape:window-width="1920"
     inkscape:window-height="1017"
     id="namedview5279"
     showgrid="false"
     inkscape:zoom="2.0941453"
     inkscape:cx="538.49987"
     inkscape:cy="426.11623"
     inkscape:window-x="-8"
     inkscape:window-y="-8"
     inkscape:window-maximized="1"
     inkscape:current-layer="g5245" /><g
     id="g5185"><line
       fill-rule="evenodd"
       clip-rule="evenodd"
       fill="none"
       stroke="#000000"
       stroke-width="2"
       stroke-linecap="round"
       stroke-linejoin="round"
       stroke-miterlimit="10"
       x1="236.225"
       y1="638.232"
       x2="236.225"
       y2="20.121"
       id="line5187" /></g><g
     id="g5189"><polyline
       fill-rule="evenodd"
       clip-rule="evenodd"
       stroke="#000000"
       stroke-width="2"
       stroke-linecap="round"
       stroke-linejoin="round"
       stroke-miterlimit="10"
       points="   215.997,60.73 236.225,20.121 256.606,60.73 215.997,60.73  "
       id="polyline5191" /></g><g
     id="g5193"><line
       fill-rule="evenodd"
       clip-rule="evenodd"
       fill="none"
       stroke="#000000"
       stroke-width="2"
       stroke-linecap="round"
       stroke-linejoin="round"
       stroke-miterlimit="10"
       x1="2"
       y1="393.817"
       x2="723.84"
       y2="393.817"
       id="line5195" /></g><g
     id="g5197"><polyline
       fill-rule="evenodd"
       clip-rule="evenodd"
       stroke="#000000"
       stroke-width="2"
       stroke-linecap="round"
       stroke-linejoin="round"
       stroke-miterlimit="10"
       points="   683.231,373.437 723.84,393.817 683.231,414.045 683.231,373.437  "
       id="polyline5199" /></g><g
     id="g5201"><polyline
       fill-rule="evenodd"
       clip-rule="evenodd"
       fill="none"
       stroke="#000000"
       stroke-width="2"
       stroke-linecap="round"
       stroke-linejoin="round"
       stroke-miterlimit="10"
       points="   238.81,395.034 313.033,183.927 422.998,158.222  "
       id="polyline5203" /></g><g
     id="g5205"><polyline
       fill-rule="evenodd"
       clip-rule="evenodd"
       fill="none"
       stroke="#000000"
       stroke-width="2"
       stroke-linecap="round"
       stroke-linejoin="round"
       stroke-miterlimit="10"
       points="   389.992,150.313 422.998,158.222 396.835,179.973  "
       id="polyline5207" /></g><g
     id="g5209"><polyline
       fill-rule="evenodd"
       clip-rule="evenodd"
       fill="none"
       stroke="#000000"
       stroke-width="2"
       stroke-linecap="round"
       stroke-linejoin="round"
       stroke-miterlimit="10"
       points="   407.636,159.591 676.387,104.533 626.5,263.167  "
       id="polyline5211" /></g><g
     id="g5213"><polyline
       fill-rule="evenodd"
       clip-rule="evenodd"
       fill="none"
       stroke="#000000"
       stroke-width="2"
       stroke-linecap="round"
       stroke-linejoin="round"
       stroke-miterlimit="10"
       points="   650.228,238.681 626.5,263.167 621.176,229.555  "
       id="polyline5215" /></g><g
     id="g5217"><polyline
       fill-rule="evenodd"
       clip-rule="evenodd"
       fill="none"
       stroke="#000000"
       stroke-width="2"
       stroke-linecap="round"
       stroke-linejoin="round"
       stroke-miterlimit="10"
       points="   631.671,242.788 524.14,551.084 361.703,585.76 416.609,430.928  "
       id="polyline5219" /></g><g
     id="g5221"><polyline
       fill-rule="evenodd"
       clip-rule="evenodd"
       stroke="#000000"
       stroke-width="2"
       stroke-linecap="round"
       stroke-linejoin="round"
       stroke-miterlimit="10"
       points="   383.91,462.259 416.609,430.928 422.237,475.947 383.91,462.259  "
       id="polyline5223" /></g><g
     id="g5225"><line
       fill-rule="evenodd"
       clip-rule="evenodd"
       fill="none"
       stroke="#000000"
       stroke-width="2"
       stroke-linecap="round"
       stroke-linejoin="round"
       stroke-miterlimit="10"
       stroke-dasharray="16,8"
       x1="238.81"
       y1="181.342"
       x2="313.033"
       y2="181.342"
       id="line5227" /></g><g
     id="g5229"><path
       d="M443.606,303.141l-4.931,6.489v0.104l7.838-1.038v3.53l-7.838-0.986v0.156l4.983,6.229l-3.271,1.869l-3.167-7.268h-0.104   l-3.322,7.319l-2.959-1.869l4.932-6.333v-0.156l-7.683,1.038v-3.53l7.631,0.986v-0.104l-4.88-6.385l3.167-1.817l3.218,7.268h0.104   l3.166-7.319L443.606,303.141z"
       id="path5235" /><path
       d="M470.083,320.531h-13.549v12.614h15.158v3.79h-19.726v-34.988h18.947v3.79h-14.38v11.057h13.549V320.531z"
       id="path5237" /><path
       d="M485.606,301.947h4.568v23.412c0,9.292-4.568,12.147-10.59,12.147c-1.713,0-3.737-0.363-4.827-0.831l0.623-3.686   c0.934,0.363,2.283,0.675,3.841,0.675c4.049,0,6.385-1.817,6.385-8.669V301.947z"
       id="path5239" /><text
       xml:space="preserve"
       style="font-style:normal;font-weight:normal;font-size:47.5px;line-height:125%;font-family:sans-serif;letter-spacing:0px;word-spacing:0px;fill:#000000;fill-opacity:1;stroke:none;stroke-width:1px;stroke-linecap:butt;stroke-linejoin:miter;stroke-opacity:1"
       x="370.55688"
       y="337.13879"
       id="text5285"
       sodipodi:linespacing="125%"><tspan
         sodipodi:role="line"
         id="tspan5287"
         x="370.55688"
         y="337.13879"
         style="font-size:47.5px">SF</tspan></text>
</g><g
     id="g5241"><path
       d="M195.433,180.729c-0.259-4.88-0.571-10.798-0.571-15.106h-0.104c-1.246,4.049-2.647,8.461-4.412,13.289l-6.178,16.975   h-3.426l-5.71-16.664c-1.661-4.983-3.011-9.447-3.997-13.6h-0.104c-0.104,4.36-0.363,10.174-0.675,15.469l-0.935,15.002h-4.309   l2.44-34.988h5.762l5.969,16.923c1.454,4.309,2.596,8.15,3.53,11.784h0.104c0.935-3.53,2.18-7.371,3.738-11.784l6.229-16.923h5.762   l2.18,34.988h-4.464L195.433,180.729z"
       id="path5243" /></g><g
     id="g5245"><text
       xml:space="preserve"
       style="font-style:normal;font-weight:normal;font-size:25px;line-height:125%;font-family:sans-serif;letter-spacing:0px;word-spacing:0px;fill:#000000;fill-opacity:1;stroke:none;stroke-width:1px;stroke-linecap:butt;stroke-linejoin:miter;stroke-opacity:1"
       x="205.33438"
       y="195.79234"
       id="text5309"
       sodipodi:linespacing="125%"><tspan
         sodipodi:role="line"
         id="tspan5311"
         x="205.33438"
         y="195.79234">f</tspan></text>
</g><g
     id="g5249"
     transform="translate(-11.938045,-1.9100872)"><path
       d="m 647.293,30.029 -13.549,0 0,12.614 15.158,0 0,3.79 -19.726,0 0,-34.988 18.947,0 0,3.79 -14.38,0 0,11.057 13.549,0 0,3.737 z"
       id="path5251"
       inkscape:connector-curvature="0" /><path
       d="m 662.816,11.445 4.568,0 0,23.412 c 0,9.292 -4.568,12.147 -10.59,12.147 -1.713,0 -3.737,-0.363 -4.827,-0.831 l 0.622,-3.686 c 0.935,0.363 2.284,0.675 3.842,0.675 4.049,0 6.385,-1.817 6.385,-8.669 l 0,-23.048 z"
       id="path5253"
       inkscape:connector-curvature="0" /></g><g
     id="g5259"><polyline
       fill-rule="evenodd"
       clip-rule="evenodd"
       fill="none"
       stroke="#000000"
       stroke-width="2"
       stroke-linecap="round"
       stroke-linejoin="round"
       stroke-miterlimit="10"
       points="   273.336,296.478 302.842,296.478 302.842,210.695  "
       id="polyline5261" /></g><g
     id="g5263"><polyline
       fill-rule="evenodd"
       clip-rule="evenodd"
       fill="none"
       stroke="#000000"
       stroke-width="2"
       stroke-linecap="round"
       stroke-linejoin="round"
       stroke-miterlimit="10"
       points="   453.72,151.834 589.39,151.834 589.39,122.48  "
       id="polyline5265" /></g><g
     id="g5267"><polyline
       fill-rule="evenodd"
       clip-rule="evenodd"
       fill="none"
       stroke="#000000"
       stroke-width="2"
       stroke-linecap="round"
       stroke-linejoin="round"
       stroke-miterlimit="10"
       points="   352.729,318.226 342.386,325.07 332.046,329.786 323.832,331.458 317.14,331.763 310.903,330.545 306.036,327.96 303.298,324.614    300.257,316.4 295.846,299.215 295.085,298.15 295.085,300.432 296.302,301.649  "
       id="polyline5269" /></g><g
     id="g5271"><polyline
       fill-rule="evenodd"
       clip-rule="evenodd"
       fill="none"
       stroke="#000000"
       stroke-width="2"
       stroke-linecap="round"
       stroke-linejoin="round"
       stroke-miterlimit="10"
       points="   584.37,139.06 594.713,137.083 602.467,134.345 607.64,130.542 609.921,127.043 610.681,123.698 610.377,120.047 608.552,114.724    604.901,109.856 595.777,101.643 560.187,75.028 549.691,65.141 546.193,59.818 545.738,56.624 546.499,54.037 549.538,49.931    556.992,44.911 570.985,38.678 592.432,30.768 599.273,26.358 593.345,29.095  "
       id="polyline5273" /></g><g
     id="g5275"><path
       d="M195.585,56.012c-0.259-4.88-0.571-10.798-0.571-15.106h-0.104c-1.246,4.049-2.647,8.461-4.412,13.289l-6.178,16.975   h-3.426l-5.71-16.664c-1.661-4.983-3.011-9.447-3.997-13.6h-0.104c-0.104,4.36-0.363,10.174-0.675,15.469l-0.935,15.002h-4.309   l2.44-34.988h5.762l5.969,16.923c1.454,4.309,2.596,8.15,3.53,11.784h0.104c0.935-3.53,2.18-7.371,3.738-11.784l6.229-16.923h5.762   l2.18,34.988h-4.464L195.585,56.012z"
       id="path5277" /></g><text
     xml:space="preserve"
     style="font-style:normal;font-weight:normal;font-size:40px;line-height:125%;font-family:sans-serif;letter-spacing:0px;word-spacing:0px;fill:#000000;fill-opacity:1;stroke:none;stroke-width:1px;stroke-linecap:butt;stroke-linejoin:miter;stroke-opacity:1"
     x="642.26678"
     y="507.61407"
     id="text5301"
     sodipodi:linespacing="125%"><tspan
       sodipodi:role="line"
       id="tspan5303"
       x="642.26678"
       y="507.61407" /></text>
<text
     xml:space="preserve"
     style="font-style:normal;font-weight:normal;font-size:45px;line-height:125%;font-family:sans-serif;letter-spacing:0px;word-spacing:0px;fill:#000000;fill-opacity:1;stroke:none;stroke-width:1px;stroke-linecap:butt;stroke-linejoin:miter;stroke-opacity:1"
     x="680.46851"
     y="449.35641"
     id="text5305"
     sodipodi:linespacing="125%"><tspan
       sodipodi:role="line"
       id="tspan5307"
       x="680.46851"
       y="449.35641">κ</tspan></text>
</svg>