<?xml version="1.0" encoding="utf-8"?>
<!-- Generator: Adobe Illustrator 15.0.0, SVG Export Plug-In . SVG Version: 6.00 Build 0)  -->
<!DOCTYPE svg PUBLIC "-//W3C//DTD SVG 1.1//EN" "http://www.w3.org/Graphics/SVG/1.1/DTD/svg11.dtd">
<svg version="1.1" id="_x3C_Layer_x3E_" xmlns="http://www.w3.org/2000/svg" xmlns:xlink="http://www.w3.org/1999/xlink" x="0px"
	 y="0px" width="732.5px" height="474.5px" viewBox="0 0 732.5 474.5" enable-background="new 0 0 732.5 474.5"
	 xml:space="preserve">
<g>
	
		<polyline fill-rule="evenodd" clip-rule="evenodd" fill="#FFFFFF" stroke="#000000" stroke-linejoin="round" stroke-miterlimit="10" points="
		207.844,274.448 378.026,334.124 392.944,291.512 222.674,231.926 207.844,274.448 	"/>
</g>
<g>
	
		<polyline fill-rule="evenodd" clip-rule="evenodd" fill="#FFFFFF" stroke="#000000" stroke-linejoin="round" stroke-miterlimit="10" points="
		131.821,47.271 171.126,223.349 215.169,213.522 175.862,37.444 131.821,47.271 	"/>
</g>
<g>
	
		<polyline fill-rule="evenodd" clip-rule="evenodd" fill="none" stroke="#000000" stroke-linecap="round" stroke-linejoin="round" stroke-miterlimit="10" stroke-dasharray="16,8" points="
		171.931,24.76 117.705,36.998 163.534,238.626 212.4,226.477 192.568,279.897 385.887,347.882 401.164,308.217 	"/>
</g>
<g>
	
		<polyline fill-rule="evenodd" clip-rule="evenodd" fill="none" stroke="#000000" stroke-linecap="round" stroke-linejoin="round" stroke-miterlimit="10" stroke-dasharray="16,8" points="
		172.735,23.239 168.895,5.642 74.2,27.081 158.978,420.511 164.16,430.783 170.771,440.521 177.648,448.205 184.617,454.101 
		192.657,459.281 201.055,463.122 209.988,465.893 219.726,467.769 228.481,468.482 	"/>
</g>
<g>
	
		<line fill-rule="evenodd" clip-rule="evenodd" fill="none" stroke="#000000" stroke-linecap="round" stroke-linejoin="round" stroke-miterlimit="10" stroke-dasharray="16,8" x1="227.23" y1="468.482" x2="401.432" y2="469.376"/>
</g>
<g>
	
		<polyline fill-rule="evenodd" clip-rule="evenodd" fill="#FFFFFF" stroke="#000000" stroke-linecap="round" stroke-linejoin="round" stroke-miterlimit="10" points="
		595.021,274.448 424.747,334.124 409.829,291.512 580.1,231.926 595.021,274.448 	"/>
</g>
<g>
	
		<polyline fill-rule="evenodd" clip-rule="evenodd" fill="#FFFFFF" stroke="#000000" stroke-linecap="round" stroke-linejoin="round" stroke-miterlimit="10" points="
		670.954,47.271 631.647,223.349 587.604,213.522 626.912,37.444 670.954,47.271 	"/>
</g>
<g>
	
		<polyline fill-rule="evenodd" clip-rule="evenodd" fill="none" stroke="#000000" stroke-linecap="round" stroke-linejoin="round" stroke-miterlimit="10" stroke-dasharray="16,8" points="
		630.844,24.76 685.07,36.998 639.24,238.626 590.375,226.477 610.207,279.897 416.887,347.882 401.61,308.217 	"/>
</g>
<g>
	
		<polyline fill-rule="evenodd" clip-rule="evenodd" fill="none" stroke="#000000" stroke-linecap="round" stroke-linejoin="round" stroke-miterlimit="10" stroke-dasharray="16,8" points="
		630.039,23.239 633.881,5.642 728.664,27.081 643.796,420.511 638.614,430.783 632.004,440.521 625.126,448.205 618.158,454.101 
		610.117,459.281 601.72,463.122 592.786,465.893 583.049,467.769 574.294,468.482 	"/>
</g>
<g>
	
		<line fill-rule="evenodd" clip-rule="evenodd" fill="none" stroke="#000000" stroke-linecap="round" stroke-linejoin="round" stroke-miterlimit="10" stroke-dasharray="16,8" x1="575.544" y1="468.482" x2="401.432" y2="469.376"/>
</g>
<g>
	
		<line fill-rule="evenodd" clip-rule="evenodd" fill="none" stroke="#000000" stroke-linecap="round" stroke-linejoin="round" stroke-miterlimit="10" x1="401.432" y1="402.732" x2="401.432" y2="4.39"/>
</g>
<g>
	
		<polyline fill-rule="evenodd" clip-rule="evenodd" stroke="#000000" stroke-linecap="round" stroke-linejoin="round" stroke-miterlimit="10" points="
		393.033,21.007 401.432,4.39 409.739,21.007 393.033,21.007 	"/>
</g>
<g>
	
		<path fill-rule="evenodd" clip-rule="evenodd" fill="#FFFFFF" stroke="#000000" stroke-linecap="round" stroke-linejoin="round" stroke-miterlimit="10" d="
		M408.936,402.731c-0.007-5.775-6.252-9.381-11.258-6.496c-5.004,2.904-4.994,10.115,0.009,13.002
		c5.011,2.877,11.243-0.727,11.249-6.504"/>
</g>
<g>
	
		<line fill-rule="evenodd" clip-rule="evenodd" fill="none" stroke="#000000" stroke-linecap="round" stroke-linejoin="round" stroke-miterlimit="10" x1="396.071" y1="408.004" x2="406.702" y2="397.372"/>
</g>
<g>
	
		<line fill-rule="evenodd" clip-rule="evenodd" fill="none" stroke="#000000" stroke-linecap="round" stroke-linejoin="round" stroke-miterlimit="10" x1="396.071" y1="397.372" x2="406.702" y2="408.004"/>
</g>
<g>
	
		<line fill-rule="evenodd" clip-rule="evenodd" fill="none" stroke="#000000" stroke-linecap="round" stroke-linejoin="round" stroke-miterlimit="10" x1="401.432" y1="402.732" x2="3" y2="402.732"/>
</g>
<g>
	
		<polyline fill-rule="evenodd" clip-rule="evenodd" stroke="#000000" stroke-linecap="round" stroke-linejoin="round" stroke-miterlimit="10" points="
		19.705,411.041 3,402.732 19.705,394.335 19.705,411.041 	"/>
</g>
<g>
	
		<line fill-rule="evenodd" clip-rule="evenodd" fill="none" stroke="#000000" stroke-linecap="round" stroke-linejoin="round" stroke-miterlimit="10" stroke-dasharray="4,8" x1="331.304" y1="355.922" x2="331.304" y2="348.417"/>
</g>
<g>
	<path d="M422.745,30.594l12.857-18.855v-0.104h-11.755V9.119h15.684v1.827l-12.822,18.786v0.104h12.995v2.516h-16.959V30.594z"/>
</g>
<g>
	<path d="M444.196,27.528h1.75v11.949h5.726v1.451h-7.476V27.528z"/>
</g>
<g>
	<path d="M436.961,400.499l-2.999-5.136c-1.206-1.965-1.93-3.24-2.654-4.584h-0.068c-0.655,1.344-1.345,2.585-2.517,4.619
		l-2.792,5.102h-3.447l7.102-11.754l-6.825-11.479h3.481l3.067,5.446c0.862,1.517,1.517,2.688,2.138,3.929h0.103
		c0.655-1.378,1.241-2.447,2.104-3.929l3.137-5.446h3.481l-7.066,11.306l7.238,11.926H436.961z"/>
</g>
<g>
	<path d="M446.072,395.676h1.75v11.949h5.726v1.451h-7.476V395.676z"/>
</g>
<g>
	<path d="M35.983,381.65v-9.858l-7.376-13.374h3.447l3.275,6.411c0.862,1.758,1.585,3.171,2.31,4.792h0.069
		c0.621-1.517,1.448-3.033,2.344-4.792l3.344-6.411h3.378l-7.756,13.34v9.893H35.983z"/>
</g>
<g>
	<path d="M52.643,376.737h1.75v11.949h5.726v1.451h-7.476V376.737z"/>
</g>
<g>
	<path d="M463.265,300.208c-0.482-1.433-0.922-2.656-1.379-3.761l1.936-0.652l0.913,2.378l0.075-0.025
		c0.003-1.819,1.014-3.307,2.496-3.806c0.227-0.076,0.41-0.111,0.62-0.153l0.702,2.086c-0.243,0.026-0.47,0.103-0.771,0.204
		c-1.559,0.524-2.275,2.053-2.019,3.813c0.052,0.318,0.153,0.704,0.272,1.057l2.184,6.483l-2.211,0.745L463.265,300.208z"/>
	<path d="M482.976,296.003c1.515,4.499-0.966,7.518-3.882,8.5c-3.267,1.1-6.643-0.448-7.938-4.294
		c-1.362-4.046,0.522-7.339,3.865-8.465C478.514,290.566,481.731,292.309,482.976,296.003z M473.392,299.37
		c0.897,2.665,3.083,4.167,5.244,3.439c2.111-0.711,3.026-3.229,2.104-5.969c-0.694-2.061-2.597-4.302-5.211-3.422
		C472.939,294.29,472.621,297.084,473.392,299.37z"/>
	<path d="M481.836,283.403l2.212-0.745l6.01,17.844l-2.211,0.745L481.836,283.403z"/>
	<path d="M487.767,281.405l2.211-0.745l6.011,17.844l-2.212,0.745L487.767,281.405z"/>
	<path d="M499.025,291.157c1.058,2.973,3.357,3.57,5.594,2.816c1.584-0.533,2.471-1.14,3.156-1.762l0.936,1.448
		c-0.66,0.615-1.874,1.499-3.809,2.15c-3.745,1.261-6.82-0.474-8.056-4.144c-1.235-3.668-0.039-7.261,3.504-8.455
		c3.997-1.346,6.194,1.775,6.948,4.011c0.152,0.453,0.237,0.788,0.271,1.057L499.025,291.157z M504.977,287.39
		c-0.44-1.391-1.78-3.375-4.269-2.537c-2.262,0.762-2.531,3.119-2.19,4.712L504.977,287.39z"/>
	<path d="M509.479,284.642c-0.482-1.433-0.924-2.656-1.379-3.761l1.935-0.652l0.913,2.378l0.075-0.025
		c0.003-1.819,1.014-3.307,2.496-3.806c0.227-0.076,0.41-0.111,0.62-0.154l0.703,2.086c-0.244,0.027-0.47,0.103-0.771,0.205
		c-1.559,0.524-2.274,2.053-2.018,3.813c0.052,0.319,0.153,0.704,0.271,1.057l2.185,6.483l-2.212,0.745L509.479,284.642z"/>
</g>
</svg>
