<?xml version="1.0" encoding="utf-8"?>
<!-- Generator: Adobe Illustrator 15.0.0, SVG Export Plug-In . SVG Version: 6.00 Build 0)  -->
<!DOCTYPE svg PUBLIC "-//W3C//DTD SVG 1.1//EN" "http://www.w3.org/Graphics/SVG/1.1/DTD/svg11.dtd">
<svg version="1.1" id="_x3C_Layer_x3E_" xmlns="http://www.w3.org/2000/svg" xmlns:xlink="http://www.w3.org/1999/xlink" x="0px"
	 y="0px" width="737.5px" height="350.5px" viewBox="0 0 737.5 350.5" enable-background="new 0 0 737.5 350.5"
	 xml:space="preserve">
<g>
	
		<polyline fill-rule="evenodd" clip-rule="evenodd" fill="none" stroke="#000000" stroke-width="2" stroke-linecap="round" stroke-linejoin="round" stroke-miterlimit="10" points="
		116.62,37.979 116.62,307.142 729.182,307.142 	"/>
</g>
<g>
	
		<polyline fill-rule="evenodd" clip-rule="evenodd" stroke="#000000" stroke-width="2" stroke-linecap="round" stroke-linejoin="round" stroke-miterlimit="10" points="
		127.495,59.547 116.62,37.979 105.836,59.547 127.495,59.547 	"/>
</g>
<g>
	
		<polyline fill-rule="evenodd" clip-rule="evenodd" stroke="#000000" stroke-width="2" stroke-linecap="round" stroke-linejoin="round" stroke-miterlimit="10" points="
		707.523,296.358 729.182,307.142 707.523,317.927 707.523,296.358 	"/>
</g>
<g>
	
		<polyline fill-rule="evenodd" clip-rule="evenodd" fill="none" stroke="#000000" stroke-width="2" stroke-linecap="round" stroke-linejoin="round" stroke-miterlimit="10" points="
		119.675,302.649 233.094,233.089 373.022,189.951 614.955,114.369 	"/>
</g>
<g>
	
		<polyline fill-rule="evenodd" clip-rule="evenodd" fill="none" stroke="#000000" stroke-width="2" stroke-linecap="round" stroke-linejoin="round" stroke-miterlimit="10" stroke-dasharray="16,8" points="
		116.62,188.423 373.022,188.423 373.022,306.423 	"/>
</g>
<g>
	
		<polyline fill-rule="evenodd" clip-rule="evenodd" fill="none" stroke="#000000" stroke-width="2" stroke-linecap="round" stroke-linejoin="round" stroke-miterlimit="10" stroke-dasharray="16,8" points="
		116.62,233.089 233.094,233.089 233.094,303.369 	"/>
</g>
<g>
	
		<path fill-rule="evenodd" clip-rule="evenodd" stroke="#000000" stroke-linecap="round" stroke-linejoin="round" stroke-miterlimit="10" d="
		M239.563,232.998c-0.004-4.98-5.391-8.09-9.706-5.602c-4.316,2.503-4.308,8.723,0.008,11.211c4.319,2.481,9.694-0.627,9.698-5.608"
		/>
</g>
<g>
	
		<path fill-rule="evenodd" clip-rule="evenodd" stroke="#000000" stroke-linecap="round" stroke-linejoin="round" stroke-miterlimit="10" d="
		M380.032,188.422c-0.004-5.467-5.916-8.876-10.649-6.147c-4.734,2.747-4.728,9.571,0.008,12.301
		C374.129,197.299,380.029,193.888,380.032,188.422"/>
</g>
<g>
	<path d="M53.551,24.262c1.145,0.733,2.788,1.291,4.548,1.291c2.611,0,4.137-1.379,4.137-3.375c0-1.819-1.057-2.905-3.727-3.902
		c-3.228-1.174-5.223-2.875-5.223-5.634c0-3.081,2.553-5.37,6.397-5.37c1.995,0,3.492,0.469,4.343,0.968l-0.705,2.083
		c-0.616-0.382-1.937-0.939-3.727-0.939c-2.699,0-3.726,1.614-3.726,2.963c0,1.849,1.203,2.758,3.932,3.814
		c3.345,1.291,5.018,2.905,5.018,5.81c0,3.051-2.23,5.722-6.896,5.722c-1.907,0-3.991-0.587-5.047-1.291L53.551,24.262z"/>
	<path d="M71.274,9.767v3.404h3.697v1.966h-3.697v7.658c0,1.761,0.499,2.758,1.937,2.758c0.704,0,1.115-0.059,1.497-0.176
		l0.117,1.966c-0.499,0.176-1.291,0.352-2.289,0.352c-1.203,0-2.171-0.411-2.788-1.085c-0.704-0.792-0.998-2.054-0.998-3.727v-7.747
		H66.55V13.17h2.201v-2.641L71.274,9.767z"/>
	<path d="M80.752,9.18c0,0.88-0.616,1.584-1.643,1.584c-0.939,0-1.555-0.704-1.555-1.584s0.646-1.614,1.614-1.614
		C80.106,7.566,80.752,8.27,80.752,9.18z M77.876,27.372V13.17h2.582v14.202H77.876z"/>
	<path d="M93.545,27.372V15.136H87.56v12.236h-2.553V15.136h-1.966V13.17h1.966v-0.44c0-1.995,0.469-3.697,1.584-4.841
		c0.821-0.822,1.995-1.32,3.58-1.32c0.822,0,1.584,0.264,2.025,0.499l-0.528,1.937c-0.381-0.205-0.939-0.381-1.526-0.381
		c-2.024,0-2.582,1.731-2.582,3.961v0.587h5.986v-0.675c0-1.995,0.44-3.814,1.643-4.958c0.968-0.939,2.259-1.321,3.433-1.321
		c0.939,0,1.731,0.206,2.201,0.411L100.5,8.622c-0.411-0.176-0.91-0.323-1.672-0.323c-2.171,0-2.729,1.907-2.729,4.108v0.763h3.404
		v1.966h-3.404v12.236H93.545z"/>
	<path d="M101.85,17.014c0-1.497-0.029-2.67-0.118-3.844h2.289l0.146,2.347h0.059c0.705-1.32,2.348-2.641,4.695-2.641
		c1.966,0,5.018,1.173,5.018,6.044v8.451h-2.582v-8.187c0-2.289-0.851-4.196-3.286-4.196c-1.673,0-2.993,1.203-3.462,2.641
		c-0.118,0.323-0.176,0.763-0.176,1.203v8.539h-2.582V17.014z"/>
	<path d="M119.573,20.741c0.059,3.492,2.26,4.93,4.871,4.93c1.849,0,2.993-0.323,3.932-0.734l0.469,1.849
		c-0.91,0.411-2.494,0.91-4.753,0.91c-4.372,0-6.983-2.905-6.983-7.189s2.523-7.629,6.661-7.629c4.666,0,5.869,4.049,5.869,6.661
		c0,0.528-0.029,0.91-0.088,1.203H119.573z M127.144,18.892c0.029-1.614-0.675-4.167-3.58-4.167c-2.641,0-3.756,2.376-3.961,4.167
		H127.144z"/>
	<path d="M132.484,24.761c0.792,0.469,2.142,0.998,3.433,0.998c1.849,0,2.729-0.91,2.729-2.113c0-1.232-0.733-1.878-2.611-2.582
		c-2.582-0.939-3.785-2.318-3.785-4.02c0-2.289,1.878-4.167,4.9-4.167c1.438,0,2.699,0.381,3.462,0.88l-0.616,1.878
		c-0.558-0.352-1.584-0.851-2.905-0.851c-1.525,0-2.347,0.88-2.347,1.937c0,1.174,0.822,1.702,2.67,2.436
		c2.436,0.91,3.727,2.142,3.727,4.254c0,2.523-1.966,4.284-5.282,4.284c-1.555,0-2.993-0.411-3.99-0.998L132.484,24.761z"/>
	<path d="M144.104,24.761c0.792,0.469,2.142,0.998,3.433,0.998c1.849,0,2.729-0.91,2.729-2.113c0-1.232-0.733-1.878-2.611-2.582
		c-2.582-0.939-3.785-2.318-3.785-4.02c0-2.289,1.878-4.167,4.9-4.167c1.438,0,2.699,0.381,3.462,0.88l-0.616,1.878
		c-0.558-0.352-1.584-0.851-2.905-0.851c-1.525,0-2.347,0.88-2.347,1.937c0,1.174,0.822,1.702,2.67,2.436
		c2.436,0.91,3.727,2.142,3.727,4.254c0,2.523-1.966,4.284-5.281,4.284c-1.555,0-2.993-0.411-3.991-0.998L144.104,24.761z"/>
</g>
<g>
	<path d="M322.32,322.11c1.232-0.206,2.846-0.382,4.899-0.382c2.523,0,4.372,0.587,5.546,1.644c1.057,0.939,1.731,2.376,1.731,4.137
		c0,1.79-0.528,3.198-1.525,4.225c-1.38,1.438-3.551,2.171-6.045,2.171c-0.763,0-1.467-0.029-2.054-0.176v7.922h-2.553V322.11z
		 M324.873,331.646c0.558,0.147,1.262,0.206,2.112,0.206c3.081,0,4.959-1.526,4.959-4.196c0-2.641-1.878-3.902-4.666-3.902
		c-1.114,0-1.966,0.088-2.405,0.205V331.646z"/>
	<path d="M337.931,322.139c1.291-0.235,3.169-0.411,4.899-0.411c2.729,0,4.52,0.528,5.723,1.614c0.968,0.88,1.555,2.23,1.555,3.786
		c0,2.582-1.644,4.313-3.697,5.018v0.088c1.496,0.528,2.406,1.937,2.876,3.991c0.646,2.758,1.114,4.666,1.525,5.428h-2.641
		c-0.323-0.587-0.763-2.259-1.291-4.724c-0.587-2.729-1.673-3.756-3.991-3.844h-2.405v8.568h-2.553V322.139z M340.483,331.147h2.611
		c2.729,0,4.46-1.496,4.46-3.756c0-2.553-1.849-3.667-4.548-3.667c-1.232,0-2.084,0.088-2.523,0.205V331.147z"/>
	<path d="M363.929,332.379h-7.658v7.13h8.567v2.142h-11.149v-19.777h10.71v2.142h-8.128v6.25h7.658V332.379z"/>
	<path d="M367.831,338.542c1.145,0.733,2.788,1.291,4.548,1.291c2.611,0,4.138-1.379,4.138-3.375c0-1.819-1.057-2.905-3.727-3.902
		c-3.228-1.174-5.223-2.875-5.223-5.634c0-3.081,2.553-5.37,6.396-5.37c1.995,0,3.491,0.469,4.343,0.968l-0.704,2.083
		c-0.616-0.382-1.937-0.939-3.727-0.939c-2.7,0-3.727,1.614-3.727,2.963c0,1.849,1.203,2.758,3.932,3.814
		c3.345,1.291,5.018,2.905,5.018,5.81c0,3.052-2.23,5.722-6.896,5.722c-1.907,0-3.99-0.587-5.047-1.291L367.831,338.542z"/>
	<path d="M382.298,338.542c1.145,0.733,2.788,1.291,4.548,1.291c2.611,0,4.138-1.379,4.138-3.375c0-1.819-1.057-2.905-3.727-3.902
		c-3.228-1.174-5.223-2.875-5.223-5.634c0-3.081,2.553-5.37,6.396-5.37c1.995,0,3.491,0.469,4.343,0.968l-0.704,2.083
		c-0.616-0.382-1.937-0.939-3.727-0.939c-2.7,0-3.727,1.614-3.727,2.963c0,1.849,1.203,2.758,3.932,3.814
		c3.345,1.291,5.018,2.905,5.018,5.81c0,3.052-2.23,5.722-6.896,5.722c-1.907,0-3.99-0.587-5.047-1.291L382.298,338.542z"/>
	<path d="M402.573,321.288c-2.142,2.905-3.668,6.69-3.668,12.03c0,5.223,1.614,8.95,3.668,11.884h-1.995
		c-1.849-2.435-3.844-6.191-3.844-11.913c0.029-5.751,1.995-9.536,3.844-12.001H402.573z"/>
	<path d="M404.51,341.652v-1.584l2.024-1.966c4.871-4.636,7.102-7.101,7.102-9.977c0-1.937-0.91-3.727-3.756-3.727
		c-1.731,0-3.169,0.88-4.05,1.614l-0.821-1.819c1.291-1.085,3.198-1.937,5.369-1.937c4.108,0,5.84,2.817,5.84,5.546
		c0,3.521-2.553,6.367-6.573,10.24l-1.496,1.409v0.059h8.539v2.142H404.51z"/>
	<path d="M418.829,345.202c2.054-2.905,3.668-6.69,3.668-11.972s-1.585-9.008-3.668-11.942h1.995
		c1.849,2.406,3.844,6.191,3.844,11.942c-0.029,5.751-1.995,9.507-3.844,11.972H418.829z"/>
</g>
<g>
	<path d="M160.82,322.11c1.232-0.206,2.846-0.382,4.9-0.382c2.523,0,4.372,0.587,5.546,1.644c1.056,0.939,1.731,2.376,1.731,4.137
		c0,1.79-0.528,3.198-1.526,4.225c-1.379,1.438-3.55,2.171-6.044,2.171c-0.763,0-1.467-0.029-2.054-0.176v7.922h-2.553V322.11z
		 M163.373,331.646c0.558,0.147,1.262,0.206,2.113,0.206c3.081,0,4.959-1.526,4.959-4.196c0-2.641-1.878-3.902-4.666-3.902
		c-1.115,0-1.966,0.088-2.406,0.205V331.646z"/>
	<path d="M176.431,322.139c1.291-0.235,3.169-0.411,4.9-0.411c2.729,0,4.519,0.528,5.722,1.614c0.968,0.88,1.555,2.23,1.555,3.786
		c0,2.582-1.643,4.313-3.697,5.018v0.088c1.497,0.528,2.406,1.937,2.875,3.991c0.646,2.758,1.115,4.666,1.526,5.428h-2.641
		c-0.323-0.587-0.763-2.259-1.291-4.724c-0.587-2.729-1.673-3.756-3.991-3.844h-2.406v8.568h-2.553V322.139z M178.984,331.147h2.612
		c2.729,0,4.46-1.496,4.46-3.756c0-2.553-1.849-3.667-4.548-3.667c-1.232,0-2.083,0.088-2.523,0.205V331.147z"/>
	<path d="M202.429,332.379h-7.659v7.13h8.568v2.142h-11.15v-19.777h10.71v2.142h-8.128v6.25h7.659V332.379z"/>
	<path d="M206.332,338.542c1.145,0.733,2.788,1.291,4.548,1.291c2.611,0,4.137-1.379,4.137-3.375c0-1.819-1.057-2.905-3.727-3.902
		c-3.228-1.174-5.223-2.875-5.223-5.634c0-3.081,2.553-5.37,6.397-5.37c1.995,0,3.492,0.469,4.343,0.968l-0.705,2.083
		c-0.616-0.382-1.937-0.939-3.727-0.939c-2.699,0-3.727,1.614-3.727,2.963c0,1.849,1.203,2.758,3.932,3.814
		c3.345,1.291,5.018,2.905,5.018,5.81c0,3.052-2.23,5.722-6.896,5.722c-1.907,0-3.991-0.587-5.047-1.291L206.332,338.542z"/>
	<path d="M220.798,338.542c1.145,0.733,2.788,1.291,4.548,1.291c2.611,0,4.137-1.379,4.137-3.375c0-1.819-1.057-2.905-3.727-3.902
		c-3.228-1.174-5.223-2.875-5.223-5.634c0-3.081,2.553-5.37,6.397-5.37c1.995,0,3.492,0.469,4.343,0.968l-0.705,2.083
		c-0.616-0.382-1.937-0.939-3.727-0.939c-2.699,0-3.726,1.614-3.726,2.963c0,1.849,1.203,2.758,3.932,3.814
		c3.345,1.291,5.018,2.905,5.018,5.81c0,3.052-2.23,5.722-6.896,5.722c-1.907,0-3.991-0.587-5.047-1.291L220.798,338.542z"/>
	<path d="M241.074,321.288c-2.142,2.905-3.668,6.69-3.668,12.03c0,5.223,1.614,8.95,3.668,11.884h-1.996
		c-1.849-2.435-3.844-6.191-3.844-11.913c0.029-5.751,1.995-9.536,3.844-12.001H241.074z"/>
	<path d="M248.615,324.985h-0.059l-3.316,1.79l-0.499-1.966l4.167-2.23h2.201v19.073h-2.494V324.985z"/>
	<path d="M257.33,345.202c2.054-2.905,3.668-6.69,3.668-11.972s-1.584-9.008-3.668-11.942h1.995
		c1.849,2.406,3.844,6.191,3.844,11.942c-0.03,5.751-1.996,9.507-3.844,11.972H257.33z"/>
</g>
<g>
	<path d="M569.736,322.11c1.232-0.206,2.846-0.382,4.899-0.382c2.523,0,4.372,0.587,5.546,1.644
		c1.057,0.939,1.731,2.376,1.731,4.137c0,1.79-0.528,3.198-1.525,4.225c-1.38,1.438-3.551,2.171-6.045,2.171
		c-0.763,0-1.467-0.029-2.054-0.176v7.922h-2.553V322.11z M572.289,331.646c0.558,0.147,1.262,0.206,2.112,0.206
		c3.081,0,4.959-1.526,4.959-4.196c0-2.641-1.878-3.902-4.666-3.902c-1.114,0-1.966,0.088-2.405,0.205V331.646z"/>
	<path d="M584.789,331.881c0-1.673-0.029-3.11-0.117-4.431h2.26l0.117,2.817h0.088c0.646-1.907,2.23-3.11,3.961-3.11
		c0.265,0,0.47,0.029,0.705,0.059v2.436c-0.265-0.059-0.528-0.059-0.881-0.059c-1.819,0-3.11,1.35-3.462,3.287
		c-0.059,0.352-0.088,0.792-0.088,1.203v7.57h-2.583V331.881z"/>
	<path d="M595.529,335.021c0.059,3.492,2.259,4.93,4.871,4.93c1.848,0,2.992-0.323,3.932-0.734l0.47,1.849
		c-0.91,0.411-2.494,0.91-4.754,0.91c-4.372,0-6.983-2.905-6.983-7.189s2.523-7.629,6.66-7.629c4.666,0,5.869,4.049,5.869,6.661
		c0,0.528-0.029,0.91-0.088,1.203H595.529z M603.1,333.172c0.029-1.614-0.675-4.167-3.58-4.167c-2.641,0-3.756,2.376-3.961,4.167
		H603.1z"/>
	<path d="M608.44,339.041c0.792,0.469,2.142,0.998,3.433,0.998c1.849,0,2.729-0.91,2.729-2.113c0-1.232-0.733-1.878-2.611-2.582
		c-2.583-0.939-3.786-2.318-3.786-4.02c0-2.289,1.878-4.167,4.9-4.167c1.438,0,2.7,0.381,3.463,0.88l-0.616,1.878
		c-0.558-0.353-1.585-0.851-2.905-0.851c-1.525,0-2.348,0.88-2.348,1.937c0,1.174,0.822,1.702,2.671,2.436
		c2.436,0.91,3.727,2.142,3.727,4.254c0,2.523-1.966,4.284-5.282,4.284c-1.555,0-2.993-0.411-3.99-0.998L608.44,339.041z"/>
	<path d="M620.06,339.041c0.792,0.469,2.142,0.998,3.433,0.998c1.849,0,2.729-0.91,2.729-2.113c0-1.232-0.733-1.878-2.611-2.582
		c-2.583-0.939-3.786-2.318-3.786-4.02c0-2.289,1.878-4.167,4.9-4.167c1.438,0,2.7,0.381,3.463,0.88l-0.616,1.878
		c-0.558-0.353-1.585-0.851-2.905-0.851c-1.525,0-2.348,0.88-2.348,1.937c0,1.174,0.822,1.702,2.671,2.436
		c2.436,0.91,3.727,2.142,3.727,4.254c0,2.523-1.966,4.284-5.282,4.284c-1.555,0-2.993-0.411-3.99-0.998L620.06,339.041z"/>
	<path d="M643.915,337.75c0,1.496,0.029,2.787,0.118,3.902h-2.289l-0.146-2.318h-0.059c-0.646,1.144-2.172,2.641-4.695,2.641
		c-2.229,0-4.9-1.262-4.9-6.221v-8.304h2.582v7.834c0,2.699,0.852,4.548,3.169,4.548c1.731,0,2.935-1.203,3.404-2.376
		c0.146-0.353,0.234-0.822,0.234-1.321v-8.685h2.582V337.75z"/>
	<path d="M648.199,331.881c0-1.673-0.029-3.11-0.117-4.431h2.26l0.117,2.817h0.088c0.646-1.907,2.23-3.11,3.961-3.11
		c0.265,0,0.47,0.029,0.705,0.059v2.436c-0.265-0.059-0.528-0.059-0.881-0.059c-1.819,0-3.11,1.35-3.462,3.287
		c-0.059,0.352-0.088,0.792-0.088,1.203v7.57h-2.583V331.881z"/>
	<path d="M658.94,335.021c0.059,3.492,2.259,4.93,4.87,4.93c1.849,0,2.993-0.323,3.933-0.734l0.47,1.849
		c-0.91,0.411-2.494,0.91-4.754,0.91c-4.372,0-6.983-2.905-6.983-7.189s2.523-7.629,6.66-7.629c4.666,0,5.869,4.049,5.869,6.661
		c0,0.528-0.029,0.91-0.088,1.203H658.94z M666.511,333.172c0.029-1.614-0.675-4.167-3.58-4.167c-2.641,0-3.756,2.376-3.961,4.167
		H666.511z"/>
</g>
<g>
	<path d="M17.441,233.072H9.783v7.13h8.568v2.142H7.201v-19.777h10.71v2.142H9.783v6.25h7.659V233.072z"/>
	<path d="M26.215,222.568h2.582v13.233c0,5.252-2.582,6.866-5.986,6.866c-0.968,0-2.113-0.206-2.729-0.469l0.353-2.083
		c0.528,0.206,1.291,0.381,2.171,0.381c2.289,0,3.609-1.027,3.609-4.9V222.568z"/>
	<path d="M37.453,242.345v-8.392l-6.279-11.385h2.935l2.787,5.458c0.734,1.497,1.35,2.7,1.966,4.079h0.059
		c0.528-1.291,1.232-2.582,1.995-4.079l2.846-5.458h2.876l-6.603,11.355v8.421H37.453z"/>
	<path d="M54.413,221.981c-2.142,2.905-3.668,6.69-3.668,12.03c0,5.223,1.614,8.95,3.668,11.884h-1.996
		c-1.849-2.435-3.844-6.191-3.844-11.913c0.029-5.751,1.995-9.536,3.844-12.001H54.413z"/>
	<path d="M61.954,225.678h-0.059l-3.316,1.79l-0.499-1.966l4.167-2.23h2.201v19.073h-2.494V225.678z"/>
	<path d="M70.669,245.895c2.054-2.905,3.668-6.69,3.668-11.972s-1.584-9.008-3.668-11.942h1.995
		c1.849,2.406,3.844,6.191,3.844,11.942c-0.03,5.751-1.996,9.507-3.844,11.972H70.669z"/>
</g>
<g>
	<path d="M17.891,189.215h-7.659v7.13h8.568v2.142H7.65v-19.777h10.71v2.142h-8.128v6.25h7.659V189.215z"/>
	<path d="M26.664,178.711h2.582v13.233c0,5.252-2.582,6.866-5.986,6.866c-0.968,0-2.113-0.206-2.729-0.469l0.353-2.083
		c0.528,0.206,1.291,0.381,2.171,0.381c2.289,0,3.609-1.027,3.609-4.9V178.711z"/>
	<path d="M37.903,198.488v-8.392l-6.279-11.385h2.934l2.788,5.458c0.734,1.497,1.35,2.7,1.966,4.079h0.059
		c0.528-1.291,1.232-2.582,1.995-4.079l2.846-5.458h2.876l-6.603,11.355v8.421H37.903z"/>
	<path d="M54.863,178.124c-2.142,2.905-3.668,6.69-3.668,12.03c0,5.223,1.614,8.95,3.668,11.884h-1.996
		c-1.849-2.435-3.844-6.191-3.844-11.913c0.029-5.751,1.995-9.536,3.844-12.001H54.863z"/>
	<path d="M56.799,198.488v-1.584l2.025-1.966c4.871-4.636,7.101-7.101,7.101-9.977c0-1.937-0.91-3.727-3.756-3.727
		c-1.731,0-3.169,0.88-4.049,1.614l-0.821-1.819c1.291-1.085,3.198-1.937,5.37-1.937c4.108,0,5.839,2.817,5.839,5.546
		c0,3.521-2.553,6.367-6.573,10.24l-1.497,1.409v0.059h8.539v2.142H56.799z"/>
	<path d="M71.119,202.038c2.054-2.905,3.668-6.69,3.668-11.972s-1.584-9.008-3.668-11.942h1.995
		c1.849,2.406,3.844,6.191,3.844,11.942c-0.03,5.751-1.996,9.507-3.844,11.972H71.119z"/>
</g>
</svg>
