<?xml version="1.0" encoding="utf-8"?>
<!-- Generator: Adobe Illustrator 15.0.0, SVG Export Plug-In . SVG Version: 6.00 Build 0)  -->
<!DOCTYPE svg PUBLIC "-//W3C//DTD SVG 1.0//EN" "http://www.w3.org/TR/2001/REC-SVG-20010904/DTD/svg10.dtd">
<svg version="1.0" id="_x3C_Layer_x3E_" xmlns="http://www.w3.org/2000/svg" xmlns:xlink="http://www.w3.org/1999/xlink" x="0px"
	 y="0px" width="742.5px" height="533.5px" viewBox="0 0 742.5 533.5" enable-background="new 0 0 742.5 533.5"
	 xml:space="preserve">
<g>
	
		<line fill-rule="evenodd" clip-rule="evenodd" fill="none" stroke="#905745" stroke-width="2" stroke-linecap="round" stroke-linejoin="round" stroke-miterlimit="10" x1="228.497" y1="400.818" x2="228.497" y2="368.122"/>
</g>
<g>
	
		<path fill-rule="evenodd" clip-rule="evenodd" fill="#952C61" stroke="#952C61" stroke-width="0.5" stroke-linecap="round" stroke-linejoin="round" stroke-miterlimit="10" d="
		M237.682,346.886c-0.008-7.07-7.652-11.482-13.778-7.952c-6.125,3.554-6.114,12.382,0.011,15.914
		C230.044,358.371,237.676,353.959,237.682,346.886"/>
</g>
<g>
	
		<path fill-rule="evenodd" clip-rule="evenodd" fill="#952C61" stroke="#952C61" stroke-width="0.5" stroke-linecap="round" stroke-linejoin="round" stroke-miterlimit="10" d="
		M237.682,363.737c-0.008-7.069-7.652-11.481-13.778-7.951c-6.125,3.554-6.114,12.382,0.011,15.915
		c6.129,3.521,13.761-0.891,13.768-7.961"/>
</g>
<g>
	
		<line fill-rule="evenodd" clip-rule="evenodd" fill="none" stroke="#145571" stroke-width="1.5" stroke-linecap="round" stroke-linejoin="round" stroke-miterlimit="10" x1="228.497" y1="337.702" x2="228.497" y2="102.599"/>
</g>
<g>
	<polyline fill-rule="evenodd" clip-rule="evenodd" fill="#343465" points="228.497,93.582 228.497,37.208 228.497,93.582 	"/>
</g>
<g>
	
		<line fill-rule="evenodd" clip-rule="evenodd" fill="none" stroke="#000000" stroke-width="0.75" stroke-linecap="round" stroke-linejoin="round" stroke-miterlimit="10" x1="228.497" y1="93.582" x2="228.497" y2="37.208"/>
</g>
<g>
	
		<polyline fill-rule="evenodd" clip-rule="evenodd" stroke="#000000" stroke-width="0" stroke-linecap="round" stroke-linejoin="round" stroke-miterlimit="10" points="
		222.851,51.87 228.497,37.208 234.143,51.87 222.851,51.87 	"/>
</g>
<g>
	
		<path fill-rule="evenodd" clip-rule="evenodd" fill="#145571" stroke="#145571" stroke-width="0.5" stroke-linecap="round" stroke-linejoin="round" stroke-miterlimit="10" d="
		M232.878,297.423c-0.003-3.438-3.721-5.584-6.699-3.868c-2.979,1.729-2.974,6.021,0.006,7.738
		C229.165,303.006,232.876,300.861,232.878,297.423"/>
</g>
<g>
	
		<path fill-rule="evenodd" clip-rule="evenodd" fill="#145571" stroke="#145571" stroke-width="0.5" stroke-linecap="round" stroke-linejoin="round" stroke-miterlimit="10" d="
		M232.878,250.57c-0.003-3.438-3.721-5.584-6.699-3.867c-2.979,1.728-2.974,6.021,0.006,7.738
		C229.165,256.153,232.876,254.009,232.878,250.57"/>
</g>
<g>
	
		<path fill-rule="evenodd" clip-rule="evenodd" fill="#145571" stroke="#145571" stroke-width="0.5" stroke-linecap="round" stroke-linejoin="round" stroke-miterlimit="10" d="
		M232.878,202.033c-0.003-3.438-3.721-5.584-6.699-3.867c-2.979,1.728-2.974,6.02,0.006,7.738
		C229.165,207.617,232.876,205.47,232.878,202.033"/>
</g>
<g>
	
		<path fill-rule="evenodd" clip-rule="evenodd" fill="#145571" stroke="#145571" stroke-width="0.5" stroke-linecap="round" stroke-linejoin="round" stroke-miterlimit="10" d="
		M232.878,159.73c-0.003-3.438-3.721-5.583-6.699-3.866c-2.979,1.728-2.974,6.021,0.006,7.739
		C229.165,165.314,232.876,163.169,232.878,159.73"/>
</g>
<g>
	
		<path fill-rule="evenodd" clip-rule="evenodd" fill="#145571" stroke="#145571" stroke-width="0.5" stroke-linecap="round" stroke-linejoin="round" stroke-miterlimit="10" d="
		M232.878,116.924c-0.003-3.438-3.721-5.584-6.699-3.867c-2.979,1.727-2.974,6.02,0.006,7.738
		C229.165,122.508,232.876,120.362,232.878,116.924"/>
</g>
<g>
	
		<line fill-rule="evenodd" clip-rule="evenodd" fill="none" stroke="#937450" stroke-width="2" stroke-linecap="round" stroke-linejoin="round" stroke-miterlimit="10" x1="228.497" y1="400.818" x2="287.398" y2="408.485"/>
</g>
<g>
	
		<line fill-rule="evenodd" clip-rule="evenodd" fill="none" stroke="#2E3192" stroke-width="1.5" stroke-linecap="round" stroke-linejoin="round" stroke-miterlimit="10" x1="287.398" y1="408.485" x2="441.775" y2="428.626"/>
</g>
<g>
	
		<line fill-rule="evenodd" clip-rule="evenodd" fill="none" stroke="#000000" stroke-width="0.75" stroke-linecap="round" stroke-linejoin="round" stroke-miterlimit="10" x1="465.537" y1="431.491" x2="554.692" y2="443.288"/>
</g>
<g>
	
		<polyline fill-rule="evenodd" clip-rule="evenodd" stroke="#000000" stroke-width="0" stroke-linecap="round" stroke-linejoin="round" stroke-miterlimit="10" points="
		544.243,436.292 554.692,443.288 542.811,447.417 544.243,436.292 	"/>
</g>
<g>
	
		<path fill-rule="evenodd" clip-rule="evenodd" fill="#7E4675" stroke="#7E4675" stroke-width="0.5" stroke-linecap="round" stroke-linejoin="round" stroke-miterlimit="10" d="
		M296.836,407.726c-0.007-7.07-7.652-11.484-13.778-7.952c-6.124,3.554-6.113,12.382,0.011,15.913
		C289.201,419.21,296.831,414.799,296.836,407.726"/>
</g>
<g>
	<path d="M340.391,74.514c0.879-0.208,2.29-0.347,3.679-0.347c2.012,0,3.308,0.347,4.256,1.134c0.81,0.602,1.318,1.526,1.318,2.752
		c0,1.527-1.018,2.845-2.637,3.424v0.069c1.48,0.347,3.215,1.573,3.215,3.886c0,1.342-0.531,2.383-1.341,3.123
		c-1.064,0.995-2.822,1.457-5.367,1.457c-1.388,0-2.452-0.092-3.123-0.185V74.514z M342.403,80.898h1.827
		c2.105,0,3.354-1.133,3.354-2.637c0-1.805-1.364-2.545-3.4-2.545c-0.925,0-1.457,0.07-1.781,0.139V80.898z M342.403,88.347
		c0.416,0.069,0.972,0.093,1.688,0.093c2.082,0,4.002-0.764,4.002-3.03c0-2.105-1.827-3.007-4.024-3.007h-1.666V88.347z"/>
	<path d="M352.861,73.45h2.036v16.424h-2.036V73.45z"/>
	<path d="M366.187,87.19c0,0.972,0.046,1.92,0.162,2.684h-1.828l-0.161-1.411h-0.069c-0.625,0.879-1.828,1.666-3.424,1.666
		c-2.268,0-3.424-1.596-3.424-3.215c0-2.707,2.406-4.187,6.731-4.164v-0.231c0-0.902-0.254-2.591-2.545-2.568
		c-1.063,0-2.15,0.301-2.938,0.833l-0.463-1.365c0.926-0.578,2.291-0.971,3.701-0.971c3.424,0,4.257,2.336,4.257,4.557V87.19z
		 M364.221,84.16c-2.221-0.046-4.742,0.347-4.742,2.521c0,1.342,0.879,1.943,1.896,1.943c1.48,0,2.429-0.925,2.753-1.874
		c0.069-0.231,0.093-0.462,0.093-0.647V84.16z"/>
	<path d="M379.119,73.45v13.532c0,0.995,0.046,2.128,0.093,2.892h-1.805l-0.093-1.943h-0.069c-0.602,1.25-1.943,2.198-3.771,2.198
		c-2.706,0-4.812-2.29-4.812-5.69c-0.023-3.724,2.313-5.991,5.02-5.991c1.735,0,2.869,0.81,3.378,1.688h0.046V73.45H379.119z
		 M377.106,83.235c0-0.254-0.023-0.601-0.093-0.856c-0.301-1.272-1.411-2.336-2.938-2.336c-2.105,0-3.354,1.851-3.354,4.302
		c0,2.267,1.134,4.141,3.309,4.141c1.364,0,2.613-0.926,2.983-2.429c0.069-0.277,0.093-0.555,0.093-0.879V83.235z"/>
	<path d="M383.655,84.646c0.046,2.753,1.781,3.886,3.84,3.886c1.457,0,2.359-0.254,3.1-0.578l0.37,1.457
		c-0.717,0.324-1.966,0.717-3.747,0.717c-3.447,0-5.506-2.29-5.506-5.667c0-3.377,1.989-6.014,5.251-6.014
		c3.678,0,4.627,3.192,4.627,5.251c0,0.417-0.023,0.717-0.069,0.948H383.655z M389.623,83.189c0.023-1.272-0.532-3.285-2.822-3.285
		c-2.082,0-2.961,1.874-3.122,3.285H389.623z"/>
</g>
<g>
	<path d="M344.717,104.409c-1.688,2.29-2.892,5.274-2.892,9.484c0,4.117,1.272,7.055,2.892,9.368h-1.573
		c-1.457-1.92-3.03-4.881-3.03-9.392c0.023-4.534,1.573-7.518,3.03-9.461H344.717z"/>
	<path d="M347.1,120.463v-9.646h-1.55v-1.55h1.55v-0.532c0-1.573,0.37-3.007,1.296-3.91c0.764-0.74,1.781-1.041,2.729-1.041
		c0.74,0,1.342,0.162,1.735,0.324l-0.278,1.573c-0.301-0.139-0.693-0.254-1.295-0.254c-1.735,0-2.175,1.504-2.175,3.239v0.601h2.707
		v1.55h-2.707v9.646H347.1z"/>
	<path d="M363.479,114.772c0,4.141-2.892,5.945-5.574,5.945c-3.008,0-5.367-2.221-5.367-5.76c0-3.725,2.476-5.922,5.552-5.922
		C361.305,109.036,363.479,111.372,363.479,114.772z M354.619,114.888c0,2.452,1.388,4.302,3.377,4.302c1.943,0,3.4-1.827,3.4-4.349
		c0-1.897-0.948-4.279-3.354-4.279C355.66,110.563,354.619,112.783,354.619,114.888z"/>
	<path d="M368.316,106.121c0,0.694-0.486,1.249-1.296,1.249c-0.74,0-1.226-0.555-1.226-1.249c0-0.694,0.509-1.272,1.271-1.272
		C367.807,104.849,368.316,105.404,368.316,106.121z M366.049,120.463v-11.196h2.036v11.196H366.049z"/>
	<path d="M371.463,104.039h2.036v16.424h-2.036V104.039z"/>
	<path d="M382.961,115.235c0.046,2.753,1.781,3.886,3.84,3.886c1.457,0,2.359-0.254,3.1-0.578l0.37,1.457
		c-0.717,0.324-1.966,0.717-3.747,0.717c-3.447,0-5.506-2.29-5.506-5.667c0-3.377,1.989-6.014,5.251-6.014
		c3.679,0,4.627,3.192,4.627,5.251c0,0.417-0.023,0.717-0.069,0.948H382.961z M388.929,113.778c0.023-1.272-0.532-3.285-2.822-3.285
		c-2.081,0-2.961,1.874-3.122,3.285H388.929z"/>
	<path d="M393.419,104.039h2.036v16.424h-2.036V104.039z"/>
	<path d="M400.013,115.235c0.046,2.753,1.781,3.886,3.84,3.886c1.457,0,2.359-0.254,3.1-0.578l0.37,1.457
		c-0.717,0.324-1.966,0.717-3.747,0.717c-3.447,0-5.506-2.29-5.506-5.667c0-3.377,1.989-6.014,5.251-6.014
		c3.678,0,4.627,3.192,4.627,5.251c0,0.417-0.023,0.717-0.069,0.948H400.013z M405.98,113.778c0.023-1.272-0.532-3.285-2.822-3.285
		c-2.082,0-2.961,1.874-3.122,3.285H405.98z"/>
	<path d="M410.47,112.297c0-1.18-0.046-2.105-0.093-3.031h1.781l0.093,1.828h0.069c0.625-1.064,1.666-2.059,3.539-2.059
		c1.504,0,2.66,0.925,3.146,2.244h0.046c0.348-0.647,0.81-1.11,1.272-1.457c0.671-0.509,1.388-0.787,2.452-0.787
		c1.504,0,3.701,0.971,3.701,4.858v6.569h-1.989v-6.315c0-2.175-0.81-3.447-2.429-3.447c-1.18,0-2.06,0.856-2.43,1.827
		c-0.092,0.301-0.161,0.648-0.161,1.018v6.917h-1.99v-6.708c0-1.781-0.786-3.053-2.336-3.053c-1.249,0-2.197,1.018-2.521,2.036
		c-0.115,0.277-0.162,0.647-0.162,0.995v6.731h-1.989V112.297z"/>
	<path d="M430.899,115.235c0.046,2.753,1.781,3.886,3.84,3.886c1.457,0,2.359-0.254,3.1-0.578l0.37,1.457
		c-0.717,0.324-1.966,0.717-3.747,0.717c-3.447,0-5.506-2.29-5.506-5.667c0-3.377,1.989-6.014,5.251-6.014
		c3.678,0,4.627,3.192,4.627,5.251c0,0.417-0.023,0.717-0.069,0.948H430.899z M436.867,113.778c0.023-1.272-0.532-3.285-2.822-3.285
		c-2.082,0-2.961,1.874-3.122,3.285H436.867z"/>
	<path d="M441.356,112.297c0-1.18-0.022-2.105-0.093-3.031h1.805l0.115,1.851h0.047c0.555-1.041,1.851-2.082,3.701-2.082
		c1.55,0,3.955,0.925,3.955,4.765v6.662h-2.035v-6.454c0-1.804-0.671-3.308-2.591-3.308c-1.318,0-2.359,0.948-2.729,2.082
		c-0.093,0.254-0.139,0.601-0.139,0.948v6.731h-2.036V112.297z"/>
	<path d="M456.557,106.583v2.683h2.915v1.55h-2.915v6.038c0,1.388,0.394,2.174,1.526,2.174c0.556,0,0.88-0.046,1.181-0.139
		l0.092,1.55c-0.393,0.139-1.018,0.277-1.804,0.277c-0.949,0-1.712-0.324-2.198-0.856c-0.555-0.625-0.786-1.619-0.786-2.938v-6.107
		h-1.735v-1.55h1.735v-2.082L456.557,106.583z"/>
	<path d="M461.485,118.404c0.624,0.37,1.688,0.786,2.706,0.786c1.458,0,2.151-0.717,2.151-1.666c0-0.971-0.578-1.48-2.059-2.036
		c-2.035-0.74-2.984-1.827-2.984-3.169c0-1.804,1.48-3.285,3.863-3.285c1.134,0,2.128,0.301,2.729,0.694l-0.485,1.48
		c-0.439-0.277-1.249-0.671-2.29-0.671c-1.203,0-1.851,0.694-1.851,1.527c0,0.925,0.647,1.342,2.104,1.92
		c1.92,0.717,2.938,1.688,2.938,3.354c0,1.99-1.55,3.377-4.164,3.377c-1.226,0-2.359-0.324-3.146-0.787L461.485,118.404z"/>
	<path d="M469.699,123.262c1.619-2.29,2.892-5.274,2.892-9.438c0-4.164-1.249-7.102-2.892-9.415h1.572
		c1.458,1.896,3.031,4.881,3.031,9.415c-0.023,4.534-1.573,7.495-3.031,9.438H469.699z"/>
</g>
<g>
	<path d="M437.903,184.303c0-1.318-0.022-2.452-0.093-3.493h1.781l0.093,2.221h0.069c0.509-1.504,1.758-2.452,3.123-2.452
		c0.208,0,0.37,0.023,0.555,0.046v1.92c-0.208-0.046-0.416-0.046-0.693-0.046c-1.435,0-2.452,1.064-2.729,2.591
		c-0.047,0.277-0.069,0.625-0.069,0.948v5.968h-2.036V184.303z"/>
	<path d="M447.829,177.664c0,0.694-0.486,1.25-1.296,1.25c-0.74,0-1.226-0.555-1.226-1.25c0-0.694,0.509-1.272,1.271-1.272
		C447.319,176.392,447.829,176.947,447.829,177.664z M445.562,192.006v-11.196h2.036v11.196H445.562z"/>
	<path d="M460.552,190.364c0,2.591-0.532,4.141-1.597,5.136c-1.11,0.995-2.683,1.341-4.094,1.341c-1.342,0-2.822-0.324-3.725-0.925
		l0.509-1.573c0.74,0.486,1.897,0.902,3.285,0.902c2.082,0,3.608-1.087,3.608-3.933v-1.226h-0.046
		c-0.602,1.041-1.828,1.874-3.563,1.874c-2.776,0-4.766-2.359-4.766-5.459c0-3.794,2.476-5.922,5.066-5.922
		c1.942,0,2.983,0.995,3.493,1.92h0.046l0.069-1.688h1.805c-0.07,0.786-0.093,1.711-0.093,3.053V190.364z M458.516,185.229
		c0-0.347-0.022-0.647-0.115-0.902c-0.37-1.203-1.342-2.174-2.846-2.174c-1.942,0-3.331,1.643-3.331,4.233
		c0,2.198,1.134,4.025,3.309,4.025c1.271,0,2.405-0.787,2.821-2.082c0.116-0.347,0.162-0.74,0.162-1.087V185.229z"/>
	<path d="M466.037,177.664c0,0.694-0.486,1.25-1.296,1.25c-0.74,0-1.226-0.555-1.226-1.25c0-0.694,0.509-1.272,1.271-1.272
		C465.527,176.392,466.037,176.947,466.037,177.664z M463.77,192.006v-11.196h2.036v11.196H463.77z"/>
	<path d="M478.829,175.583v13.532c0,0.995,0.046,2.128,0.093,2.892h-1.805l-0.093-1.943h-0.069
		c-0.602,1.249-1.943,2.197-3.771,2.197c-2.706,0-4.812-2.29-4.812-5.69c-0.023-3.725,2.313-5.991,5.02-5.991
		c1.735,0,2.869,0.81,3.378,1.688h0.046v-6.685H478.829z M476.816,185.367c0-0.254-0.023-0.601-0.093-0.855
		c-0.301-1.272-1.411-2.336-2.938-2.336c-2.105,0-3.354,1.851-3.354,4.302c0,2.267,1.134,4.141,3.309,4.141
		c1.364,0,2.613-0.925,2.983-2.429c0.069-0.277,0.093-0.555,0.093-0.879V185.367z"/>
	<path d="M486.859,189.948c0.625,0.37,1.688,0.786,2.706,0.786c1.458,0,2.151-0.717,2.151-1.666c0-0.971-0.578-1.48-2.059-2.036
		c-2.035-0.74-2.984-1.827-2.984-3.169c0-1.804,1.48-3.285,3.863-3.285c1.134,0,2.129,0.301,2.729,0.694l-0.485,1.48
		c-0.439-0.278-1.249-0.671-2.29-0.671c-1.203,0-1.851,0.694-1.851,1.527c0,0.925,0.647,1.342,2.104,1.92
		c1.921,0.717,2.938,1.688,2.938,3.354c0,1.99-1.55,3.377-4.164,3.377c-1.226,0-2.359-0.324-3.146-0.787L486.859,189.948z"/>
	<path d="M505.668,188.93c0,1.18,0.022,2.198,0.092,3.077h-1.804l-0.116-1.828h-0.046c-0.509,0.902-1.712,2.082-3.701,2.082
		c-1.758,0-3.863-0.995-3.863-4.904v-6.546h2.036v6.176c0,2.128,0.671,3.585,2.498,3.585c1.364,0,2.313-0.949,2.684-1.874
		c0.115-0.277,0.185-0.647,0.185-1.041v-6.847h2.036V188.93z"/>
	<path d="M509.047,184.465c0-1.434-0.046-2.591-0.093-3.655h1.805l0.116,1.92h0.046c0.81-1.365,2.151-2.151,3.979-2.151
		c2.729,0,4.766,2.29,4.766,5.667c0,4.025-2.476,6.014-5.112,6.014c-1.48,0-2.776-0.647-3.447-1.758h-0.046v6.083h-2.013V184.465z
		 M511.06,187.449c0,0.301,0.023,0.578,0.093,0.833c0.37,1.411,1.596,2.382,3.053,2.382c2.151,0,3.401-1.758,3.401-4.326
		c0-2.221-1.181-4.141-3.331-4.141c-1.389,0-2.707,0.972-3.077,2.498c-0.069,0.255-0.139,0.556-0.139,0.81V187.449z"/>
	<path d="M523.345,186.778c0.046,2.753,1.781,3.886,3.84,3.886c1.457,0,2.359-0.254,3.1-0.578l0.37,1.458
		c-0.717,0.324-1.966,0.717-3.747,0.717c-3.447,0-5.506-2.29-5.506-5.667s1.989-6.014,5.251-6.014c3.678,0,4.627,3.192,4.627,5.251
		c0,0.417-0.023,0.717-0.069,0.948H523.345z M529.313,185.321c0.023-1.272-0.532-3.285-2.822-3.285
		c-2.082,0-2.961,1.874-3.122,3.285H529.313z"/>
	<path d="M533.802,184.303c0-1.318-0.022-2.452-0.093-3.493h1.781l0.093,2.221h0.069c0.509-1.504,1.758-2.452,3.123-2.452
		c0.208,0,0.37,0.023,0.555,0.046v1.92c-0.208-0.046-0.416-0.046-0.693-0.046c-1.435,0-2.452,1.064-2.729,2.591
		c-0.047,0.277-0.069,0.625-0.069,0.948v5.968h-2.036V184.303z"/>
	<path d="M541.46,183.841c0-1.18-0.022-2.105-0.093-3.03h1.805l0.115,1.851h0.047c0.555-1.041,1.851-2.082,3.701-2.082
		c1.55,0,3.955,0.925,3.955,4.765v6.662h-2.035v-6.454c0-1.804-0.671-3.308-2.591-3.308c-1.318,0-2.359,0.948-2.729,2.082
		c-0.093,0.255-0.139,0.602-0.139,0.949v6.731h-2.036V183.841z"/>
	<path d="M564.433,186.316c0,4.141-2.892,5.945-5.574,5.945c-3.008,0-5.367-2.221-5.367-5.76c0-3.725,2.476-5.922,5.552-5.922
		C562.259,180.579,564.433,182.916,564.433,186.316z M555.573,186.432c0,2.452,1.388,4.302,3.377,4.302c1.943,0,3.4-1.827,3.4-4.349
		c0-1.897-0.948-4.28-3.354-4.28C556.614,182.105,555.573,184.326,555.573,186.432z"/>
	<path d="M576.648,175.583v13.532c0,0.995,0.046,2.128,0.093,2.892h-1.805l-0.093-1.943h-0.069
		c-0.602,1.249-1.943,2.197-3.771,2.197c-2.706,0-4.812-2.29-4.812-5.69c-0.023-3.725,2.313-5.991,5.02-5.991
		c1.735,0,2.869,0.81,3.378,1.688h0.046v-6.685H576.648z M574.636,185.367c0-0.254-0.023-0.601-0.093-0.855
		c-0.301-1.272-1.411-2.336-2.938-2.336c-2.105,0-3.354,1.851-3.354,4.302c0,2.267,1.134,4.141,3.309,4.141
		c1.364,0,2.613-0.925,2.983-2.429c0.069-0.277,0.093-0.555,0.093-0.879V185.367z"/>
	<path d="M581.185,186.778c0.046,2.753,1.781,3.886,3.84,3.886c1.457,0,2.359-0.254,3.1-0.578l0.37,1.458
		c-0.717,0.324-1.966,0.717-3.747,0.717c-3.447,0-5.506-2.29-5.506-5.667s1.989-6.014,5.251-6.014c3.678,0,4.627,3.192,4.627,5.251
		c0,0.417-0.023,0.717-0.069,0.948H581.185z M587.152,185.321c0.023-1.272-0.532-3.285-2.822-3.285
		c-2.082,0-2.961,1.874-3.122,3.285H587.152z"/>
	<path d="M604.527,191.613c-0.531,0.254-1.711,0.647-3.215,0.647c-3.378,0-5.575-2.29-5.575-5.714c0-3.446,2.359-5.968,6.015-5.968
		c1.203,0,2.267,0.301,2.822,0.602l-0.463,1.55c-0.485-0.255-1.249-0.532-2.359-0.532c-2.567,0-3.956,1.92-3.956,4.233
		c0,2.591,1.666,4.187,3.887,4.187c1.156,0,1.92-0.277,2.498-0.532L604.527,191.613z"/>
	<path d="M616.905,186.316c0,4.141-2.892,5.945-5.574,5.945c-3.008,0-5.367-2.221-5.367-5.76c0-3.725,2.476-5.922,5.552-5.922
		C614.731,180.579,616.905,182.916,616.905,186.316z M608.046,186.432c0,2.452,1.388,4.302,3.377,4.302c1.943,0,3.4-1.827,3.4-4.349
		c0-1.897-0.948-4.28-3.354-4.28C609.087,182.105,608.046,184.326,608.046,186.432z"/>
	<path d="M619.475,183.841c0-1.18-0.023-2.105-0.093-3.03h1.805l0.116,1.851h0.046c0.555-1.041,1.851-2.082,3.701-2.082
		c1.55,0,3.955,0.925,3.955,4.765v6.662h-2.035v-6.454c0-1.804-0.671-3.308-2.591-3.308c-1.318,0-2.359,0.948-2.729,2.082
		c-0.093,0.255-0.139,0.602-0.139,0.949v6.731h-2.036V183.841z"/>
	<path d="M632.315,183.841c0-1.18-0.022-2.105-0.093-3.03h1.805l0.115,1.851h0.047c0.555-1.041,1.851-2.082,3.701-2.082
		c1.55,0,3.955,0.925,3.955,4.765v6.662h-2.035v-6.454c0-1.804-0.671-3.308-2.591-3.308c-1.318,0-2.359,0.948-2.729,2.082
		c-0.093,0.255-0.139,0.602-0.139,0.949v6.731h-2.036V183.841z"/>
	<path d="M646.29,186.778c0.046,2.753,1.781,3.886,3.84,3.886c1.457,0,2.359-0.254,3.1-0.578l0.37,1.458
		c-0.717,0.324-1.966,0.717-3.747,0.717c-3.447,0-5.506-2.29-5.506-5.667s1.989-6.014,5.251-6.014c3.678,0,4.627,3.192,4.627,5.251
		c0,0.417-0.023,0.717-0.069,0.948H646.29z M652.258,185.321c0.023-1.272-0.532-3.285-2.822-3.285c-2.082,0-2.961,1.874-3.122,3.285
		H652.258z"/>
	<path d="M664.728,191.613c-0.531,0.254-1.712,0.647-3.215,0.647c-3.378,0-5.575-2.29-5.575-5.714c0-3.446,2.359-5.968,6.015-5.968
		c1.203,0,2.267,0.301,2.822,0.602l-0.463,1.55c-0.485-0.255-1.249-0.532-2.359-0.532c-2.567,0-3.956,1.92-3.956,4.233
		c0,2.591,1.666,4.187,3.887,4.187c1.156,0,1.92-0.277,2.498-0.532L664.728,191.613z"/>
	<path d="M669.864,178.127v2.684h2.915v1.55h-2.915v6.037c0,1.388,0.394,2.175,1.526,2.175c0.556,0,0.88-0.046,1.18-0.139
		l0.093,1.55c-0.393,0.139-1.018,0.277-1.804,0.277c-0.949,0-1.712-0.324-2.198-0.856c-0.555-0.625-0.786-1.619-0.786-2.938v-6.107
		h-1.735v-1.55h1.735v-2.082L669.864,178.127z"/>
	<path d="M677.338,177.664c0,0.694-0.486,1.25-1.296,1.25c-0.74,0-1.226-0.555-1.226-1.25c0-0.694,0.509-1.272,1.271-1.272
		C676.828,176.392,677.338,176.947,677.338,177.664z M675.07,192.006v-11.196h2.036v11.196H675.07z"/>
	<path d="M690.616,186.316c0,4.141-2.892,5.945-5.574,5.945c-3.008,0-5.367-2.221-5.367-5.76c0-3.725,2.476-5.922,5.552-5.922
		C688.442,180.579,690.616,182.916,690.616,186.316z M681.757,186.432c0,2.452,1.388,4.302,3.377,4.302c1.943,0,3.4-1.827,3.4-4.349
		c0-1.897-0.948-4.28-3.354-4.28C682.798,182.105,681.757,184.326,681.757,186.432z"/>
	<path d="M693.186,183.841c0-1.18-0.023-2.105-0.093-3.03h1.805l0.116,1.851h0.046c0.555-1.041,1.851-2.082,3.701-2.082
		c1.55,0,3.955,0.925,3.955,4.765v6.662h-2.035v-6.454c0-1.804-0.671-3.308-2.591-3.308c-1.318,0-2.359,0.948-2.729,2.082
		c-0.093,0.255-0.139,0.602-0.139,0.949v6.731h-2.036V183.841z"/>
</g>
<g>
	<path d="M442.299,206.457c-1.688,2.29-2.892,5.274-2.892,9.484c0,4.118,1.272,7.056,2.892,9.369h-1.573
		c-1.457-1.92-3.03-4.881-3.03-9.392c0.023-4.534,1.573-7.518,3.03-9.461H442.299z"/>
	<path d="M444.474,214.969c0-1.434-0.046-2.591-0.093-3.655h1.805l0.115,1.92h0.047c0.81-1.365,2.151-2.151,3.979-2.151
		c2.729,0,4.766,2.29,4.766,5.667c0,4.025-2.476,6.014-5.112,6.014c-1.48,0-2.776-0.647-3.447-1.758h-0.046v6.083h-2.013V214.969z
		 M446.486,217.953c0,0.301,0.023,0.578,0.093,0.833c0.37,1.411,1.596,2.382,3.054,2.382c2.15,0,3.4-1.758,3.4-4.326
		c0-2.221-1.18-4.141-3.331-4.141c-1.389,0-2.707,0.972-3.077,2.498c-0.069,0.255-0.139,0.556-0.139,0.81V217.953z"/>
	<path d="M459.906,208.168c0,0.694-0.486,1.25-1.296,1.25c-0.74,0-1.226-0.555-1.226-1.25c0-0.694,0.509-1.272,1.271-1.272
		C459.396,206.896,459.906,207.451,459.906,208.168z M457.639,222.51v-11.196h2.036v11.196H457.639z"/>
	<path d="M465.504,208.631v2.684h2.915v1.55h-2.915v6.037c0,1.388,0.394,2.175,1.526,2.175c0.556,0,0.88-0.046,1.181-0.139
		l0.092,1.55c-0.393,0.139-1.018,0.277-1.804,0.277c-0.949,0-1.712-0.324-2.198-0.856c-0.555-0.625-0.786-1.619-0.786-2.938v-6.107
		h-1.735v-1.55h1.735v-2.082L465.504,208.631z"/>
	<path d="M478.552,222.117c-0.531,0.254-1.712,0.647-3.215,0.647c-3.378,0-5.575-2.29-5.575-5.714c0-3.446,2.359-5.968,6.015-5.968
		c1.203,0,2.267,0.301,2.822,0.602l-0.463,1.55c-0.485-0.255-1.249-0.532-2.359-0.532c-2.567,0-3.956,1.92-3.956,4.233
		c0,2.591,1.666,4.187,3.887,4.187c1.156,0,1.92-0.277,2.498-0.532L478.552,222.117z"/>
	<path d="M480.937,206.086h2.036v7.009h0.046c0.324-0.578,0.833-1.11,1.457-1.457c0.602-0.347,1.319-0.555,2.082-0.555
		c1.504,0,3.909,0.925,3.909,4.765v6.662h-2.035v-6.431c0-1.804-0.671-3.308-2.591-3.308c-1.318,0-2.337,0.925-2.729,2.013
		c-0.116,0.301-0.139,0.602-0.139,0.972v6.754h-2.036V206.086z"/>
	<path d="M506.662,222.117c-0.531,0.254-1.711,0.647-3.215,0.647c-3.378,0-5.575-2.29-5.575-5.714c0-3.446,2.359-5.968,6.015-5.968
		c1.203,0,2.267,0.301,2.822,0.602l-0.463,1.55c-0.485-0.255-1.249-0.532-2.359-0.532c-2.567,0-3.956,1.92-3.956,4.233
		c0,2.591,1.666,4.187,3.887,4.187c1.156,0,1.92-0.277,2.498-0.532L506.662,222.117z"/>
	<path d="M519.04,216.82c0,4.141-2.892,5.945-5.574,5.945c-3.008,0-5.367-2.221-5.367-5.76c0-3.725,2.476-5.922,5.552-5.922
		C516.866,211.083,519.04,213.419,519.04,216.82z M510.181,216.936c0,2.452,1.388,4.302,3.377,4.302c1.943,0,3.4-1.827,3.4-4.349
		c0-1.897-0.948-4.28-3.354-4.28C511.222,212.609,510.181,214.83,510.181,216.936z"/>
	<path d="M521.609,214.345c0-1.18-0.023-2.105-0.093-3.03h1.805l0.116,1.851h0.046c0.555-1.041,1.851-2.082,3.701-2.082
		c1.55,0,3.955,0.925,3.955,4.765v6.662h-2.035v-6.454c0-1.804-0.671-3.308-2.591-3.308c-1.318,0-2.359,0.948-2.729,2.082
		c-0.093,0.255-0.139,0.602-0.139,0.949v6.731h-2.036V214.345z"/>
	<path d="M536.81,208.631v2.684h2.915v1.55h-2.915v6.037c0,1.388,0.394,2.175,1.526,2.175c0.556,0,0.88-0.046,1.18-0.139l0.093,1.55
		c-0.393,0.139-1.018,0.277-1.804,0.277c-0.949,0-1.712-0.324-2.198-0.856c-0.555-0.625-0.786-1.619-0.786-2.938v-6.107h-1.735
		v-1.55h1.735v-2.082L536.81,208.631z"/>
	<path d="M542.016,214.807c0-1.318-0.023-2.452-0.093-3.493h1.781l0.093,2.221h0.069c0.509-1.504,1.758-2.452,3.123-2.452
		c0.208,0,0.37,0.023,0.556,0.046v1.92c-0.209-0.046-0.417-0.046-0.694-0.046c-1.435,0-2.452,1.064-2.729,2.591
		c-0.047,0.277-0.069,0.625-0.069,0.948v5.968h-2.036V214.807z"/>
	<path d="M559.481,216.82c0,4.141-2.892,5.945-5.574,5.945c-3.008,0-5.367-2.221-5.367-5.76c0-3.725,2.476-5.922,5.552-5.922
		C557.308,211.083,559.481,213.419,559.481,216.82z M550.622,216.936c0,2.452,1.388,4.302,3.377,4.302c1.943,0,3.4-1.827,3.4-4.349
		c0-1.897-0.948-4.28-3.354-4.28C551.663,212.609,550.622,214.83,550.622,216.936z"/>
	<path d="M562.052,206.086h2.036v16.424h-2.036V206.086z"/>
	<path d="M566.286,225.309c1.619-2.29,2.892-5.274,2.892-9.438c0-4.164-1.249-7.102-2.892-9.415h1.573
		c1.457,1.897,3.03,4.881,3.03,9.415c-0.023,4.534-1.573,7.495-3.03,9.438H566.286z"/>
</g>
<g>
	<path d="M531.063,277.365h8.396v1.689h-6.361v5.182h5.876v1.666h-5.876v7.055h-2.035V277.365z"/>
	<path d="M541.89,276.532h2.036v16.424h-2.036V276.532z"/>
	<path d="M548.483,287.728c0.046,2.753,1.781,3.886,3.84,3.886c1.457,0,2.359-0.254,3.1-0.578l0.37,1.457
		c-0.717,0.324-1.966,0.717-3.747,0.717c-3.447,0-5.506-2.29-5.506-5.667c0-3.377,1.989-6.014,5.251-6.014
		c3.678,0,4.627,3.192,4.627,5.251c0,0.417-0.023,0.717-0.069,0.948H548.483z M554.451,286.271c0.023-1.272-0.532-3.285-2.822-3.285
		c-2.082,0-2.961,1.874-3.122,3.285H554.451z"/>
	<path d="M559.82,281.76l1.597,2.406c0.439,0.625,0.786,1.18,1.156,1.804h0.047c0.37-0.648,0.74-1.226,1.133-1.828l1.55-2.383h2.221
		l-3.816,5.413l3.909,5.783h-2.29l-1.666-2.521c-0.439-0.647-0.81-1.272-1.202-1.943h-0.047c-0.37,0.67-0.74,1.272-1.18,1.943
		l-1.619,2.521h-2.243l3.979-5.714l-3.794-5.482H559.82z"/>
	<path d="M571.735,296.241c0.949-0.069,1.735-0.324,2.221-0.879c0.556-0.625,0.787-1.503,0.787-4.187v-9.415h2.035v10.202
		c0,2.174-0.347,3.585-1.342,4.603c-0.901,0.902-2.382,1.272-3.47,1.272L571.735,296.241z M577.01,278.614
		c0,0.67-0.463,1.249-1.295,1.249c-0.74,0-1.227-0.579-1.227-1.249c0-0.694,0.509-1.272,1.272-1.272S577.01,277.92,577.01,278.614z"
		/>
	<path d="M590.242,287.266c0,4.141-2.892,5.945-5.574,5.945c-3.008,0-5.367-2.221-5.367-5.76c0-3.725,2.476-5.922,5.552-5.922
		C588.068,281.529,590.242,283.865,590.242,287.266z M581.383,287.381c0,2.452,1.388,4.302,3.377,4.302c1.943,0,3.4-1.827,3.4-4.349
		c0-1.897-0.948-4.279-3.354-4.279C582.424,283.056,581.383,285.276,581.383,287.381z"/>
	<path d="M595.08,278.614c0,0.694-0.486,1.249-1.296,1.249c-0.74,0-1.226-0.555-1.226-1.249c0-0.694,0.509-1.272,1.271-1.272
		C594.57,277.342,595.08,277.897,595.08,278.614z M592.813,292.956V281.76h2.036v11.196H592.813z"/>
	<path d="M598.226,284.791c0-1.18-0.022-2.105-0.093-3.031h1.805l0.115,1.851h0.047c0.555-1.041,1.851-2.082,3.701-2.082
		c1.55,0,3.955,0.925,3.955,4.765v6.662h-2.035v-6.454c0-1.804-0.671-3.308-2.591-3.308c-1.318,0-2.359,0.948-2.729,2.082
		c-0.093,0.254-0.139,0.601-0.139,0.948v6.731h-2.036V284.791z"/>
	<path d="M613.426,279.077v2.683h2.915v1.55h-2.915v6.038c0,1.388,0.394,2.174,1.526,2.174c0.556,0,0.88-0.046,1.181-0.139
		l0.092,1.55c-0.393,0.139-1.018,0.277-1.804,0.277c-0.949,0-1.712-0.324-2.198-0.856c-0.555-0.625-0.786-1.619-0.786-2.938v-6.107
		h-1.735v-1.55h1.735v-2.082L613.426,279.077z"/>
</g>
<g>
	<path d="M535.411,307.407c-1.688,2.29-2.892,5.274-2.892,9.484c0,4.117,1.272,7.055,2.892,9.368h-1.573
		c-1.457-1.92-3.03-4.881-3.03-9.392c0.023-4.534,1.573-7.518,3.03-9.461H535.411z"/>
	<path d="M547.163,321.818c0,2.591-0.532,4.141-1.597,5.136c-1.11,0.995-2.683,1.341-4.094,1.341c-1.342,0-2.822-0.324-3.725-0.925
		l0.509-1.573c0.74,0.486,1.897,0.902,3.285,0.902c2.082,0,3.608-1.087,3.608-3.932v-1.226h-0.046
		c-0.602,1.041-1.828,1.874-3.563,1.874c-2.776,0-4.766-2.359-4.766-5.459c0-3.794,2.476-5.922,5.066-5.922
		c1.942,0,2.983,0.995,3.493,1.92h0.046l0.069-1.689h1.805c-0.07,0.787-0.093,1.712-0.093,3.054V321.818z M545.127,316.683
		c0-0.347-0.022-0.647-0.115-0.902c-0.37-1.203-1.342-2.175-2.846-2.175c-1.942,0-3.331,1.643-3.331,4.233
		c0,2.197,1.134,4.025,3.309,4.025c1.271,0,2.405-0.787,2.821-2.082c0.116-0.347,0.162-0.74,0.162-1.087V316.683z"/>
	<path d="M551.653,318.233c0.046,2.753,1.781,3.886,3.84,3.886c1.457,0,2.359-0.254,3.1-0.578l0.37,1.457
		c-0.717,0.324-1.966,0.717-3.747,0.717c-3.447,0-5.506-2.29-5.506-5.667c0-3.377,1.989-6.014,5.251-6.014
		c3.678,0,4.627,3.192,4.627,5.251c0,0.417-0.023,0.717-0.069,0.948H551.653z M557.621,316.776c0.023-1.272-0.532-3.285-2.822-3.285
		c-2.082,0-2.961,1.874-3.122,3.285H557.621z"/>
	<path d="M562.11,315.295c0-1.18-0.022-2.105-0.093-3.031h1.805l0.115,1.851h0.047c0.555-1.041,1.851-2.082,3.701-2.082
		c1.55,0,3.955,0.925,3.955,4.765v6.662h-2.035v-6.454c0-1.804-0.671-3.308-2.591-3.308c-1.318,0-2.359,0.948-2.729,2.082
		c-0.093,0.254-0.139,0.601-0.139,0.948v6.731h-2.036V315.295z"/>
	<path d="M576.085,318.233c0.046,2.753,1.781,3.886,3.84,3.886c1.457,0,2.359-0.254,3.1-0.578l0.37,1.457
		c-0.717,0.324-1.966,0.717-3.747,0.717c-3.447,0-5.506-2.29-5.506-5.667c0-3.377,1.989-6.014,5.251-6.014
		c3.678,0,4.627,3.192,4.627,5.251c0,0.417-0.023,0.717-0.069,0.948H576.085z M582.053,316.776c0.023-1.272-0.532-3.285-2.822-3.285
		c-2.082,0-2.961,1.874-3.122,3.285H582.053z"/>
	<path d="M586.542,315.758c0-1.318-0.022-2.452-0.093-3.493h1.781l0.093,2.221h0.069c0.509-1.503,1.758-2.452,3.123-2.452
		c0.208,0,0.37,0.023,0.555,0.046V314c-0.208-0.046-0.416-0.046-0.693-0.046c-1.435,0-2.452,1.064-2.729,2.591
		c-0.047,0.277-0.069,0.625-0.069,0.948v5.968h-2.036V315.758z"/>
	<path d="M601.857,320.777c0,0.972,0.046,1.92,0.162,2.684h-1.828l-0.161-1.411h-0.069c-0.625,0.879-1.828,1.666-3.424,1.666
		c-2.268,0-3.424-1.596-3.424-3.215c0-2.707,2.406-4.187,6.731-4.164v-0.231c0-0.902-0.254-2.591-2.544-2.568
		c-1.064,0-2.151,0.301-2.938,0.833l-0.463-1.365c0.926-0.578,2.29-0.971,3.701-0.971c3.424,0,4.257,2.336,4.257,4.557V320.777z
		 M599.891,317.747c-2.221-0.046-4.741,0.347-4.741,2.521c0,1.342,0.879,1.943,1.896,1.943c1.48,0,2.429-0.925,2.753-1.874
		c0.069-0.231,0.092-0.462,0.092-0.647V317.747z"/>
	<path d="M607.503,309.582v2.683h2.915v1.55h-2.915v6.038c0,1.388,0.394,2.174,1.526,2.174c0.556,0,0.88-0.046,1.18-0.139
		l0.093,1.55c-0.393,0.139-1.018,0.277-1.804,0.277c-0.949,0-1.712-0.324-2.198-0.856c-0.555-0.625-0.786-1.619-0.786-2.938v-6.107
		h-1.735v-1.55h1.735v-2.082L607.503,309.582z"/>
	<path d="M622.702,317.771c0,4.141-2.892,5.945-5.574,5.945c-3.008,0-5.367-2.221-5.367-5.76c0-3.725,2.476-5.922,5.552-5.922
		C620.528,312.034,622.702,314.37,622.702,317.771z M613.843,317.886c0,2.452,1.388,4.302,3.377,4.302c1.943,0,3.4-1.827,3.4-4.349
		c0-1.897-0.948-4.279-3.354-4.279C614.884,313.561,613.843,315.781,613.843,317.886z"/>
	<path d="M625.272,315.758c0-1.318-0.022-2.452-0.093-3.493h1.781l0.093,2.221h0.069c0.509-1.503,1.758-2.452,3.123-2.452
		c0.208,0,0.37,0.023,0.555,0.046V314c-0.208-0.046-0.416-0.046-0.693-0.046c-1.435,0-2.452,1.064-2.729,2.591
		c-0.047,0.277-0.069,0.625-0.069,0.948v5.968h-2.036V315.758z"/>
	<path d="M640.194,309.582v2.683h2.915v1.55h-2.915v6.038c0,1.388,0.394,2.174,1.526,2.174c0.556,0,0.88-0.046,1.18-0.139
		l0.093,1.55c-0.393,0.139-1.018,0.277-1.804,0.277c-0.949,0-1.712-0.324-2.198-0.856c-0.555-0.625-0.786-1.619-0.786-2.938v-6.107
		h-1.735v-1.55h1.735v-2.082L640.194,309.582z"/>
	<path d="M655.394,317.771c0,4.141-2.892,5.945-5.574,5.945c-3.008,0-5.367-2.221-5.367-5.76c0-3.725,2.476-5.922,5.552-5.922
		C653.22,312.034,655.394,314.37,655.394,317.771z M646.534,317.886c0,2.452,1.388,4.302,3.377,4.302c1.943,0,3.4-1.827,3.4-4.349
		c0-1.897-0.948-4.279-3.354-4.279C647.575,313.561,646.534,315.781,646.534,317.886z"/>
	<path d="M657.964,315.758c0-1.318-0.022-2.452-0.093-3.493h1.781l0.093,2.221h0.069c0.509-1.503,1.758-2.452,3.123-2.452
		c0.208,0,0.37,0.023,0.555,0.046V314c-0.208-0.046-0.416-0.046-0.693-0.046c-1.435,0-2.452,1.064-2.729,2.591
		c-0.047,0.277-0.069,0.625-0.069,0.948v5.968h-2.036V315.758z"/>
	<path d="M672.932,321.749h-0.046c-0.625,1.087-1.851,1.966-3.655,1.966c-2.614,0-4.742-2.244-4.742-5.644
		c0-4.21,2.707-6.038,5.066-6.038c1.734,0,2.892,0.856,3.446,1.92h0.046l0.07-1.689h1.92c-0.047,0.926-0.093,1.92-0.093,3.077v12.7
		h-2.013V321.749z M672.932,316.799c0-0.277-0.023-0.578-0.093-0.833c-0.323-1.249-1.388-2.313-2.914-2.313
		c-2.105,0-3.378,1.781-3.378,4.279c0,2.244,1.064,4.164,3.309,4.164c1.318,0,2.451-0.81,2.914-2.198
		c0.093-0.301,0.162-0.694,0.162-0.995V316.799z"/>
	<path d="M687.692,320.384c0,1.18,0.022,2.198,0.092,3.077h-1.804l-0.116-1.828h-0.046c-0.509,0.902-1.712,2.082-3.701,2.082
		c-1.758,0-3.863-0.995-3.863-4.904v-6.547h2.036v6.177c0,2.128,0.671,3.585,2.498,3.585c1.364,0,2.313-0.949,2.684-1.874
		c0.115-0.277,0.185-0.647,0.185-1.041v-6.848h2.036V320.384z"/>
	<path d="M692.205,318.233c0.046,2.753,1.781,3.886,3.84,3.886c1.457,0,2.359-0.254,3.1-0.578l0.37,1.457
		c-0.717,0.324-1.966,0.717-3.747,0.717c-3.447,0-5.506-2.29-5.506-5.667c0-3.377,1.989-6.014,5.251-6.014
		c3.679,0,4.627,3.192,4.627,5.251c0,0.417-0.023,0.717-0.069,0.948H692.205z M698.173,316.776c0.023-1.272-0.532-3.285-2.822-3.285
		c-2.081,0-2.961,1.874-3.122,3.285H698.173z"/>
	<path d="M701.437,326.26c1.619-2.29,2.892-5.274,2.892-9.438c0-4.164-1.249-7.102-2.892-9.415h1.573
		c1.457,1.896,3.03,4.881,3.03,9.415c-0.023,4.534-1.573,7.495-3.03,9.438H701.437z"/>
</g>
<g>
	<path d="M349.744,491.901c0.902,0.578,2.197,1.018,3.585,1.018c2.059,0,3.262-1.087,3.262-2.66c0-1.434-0.833-2.29-2.938-3.076
		c-2.545-0.926-4.118-2.267-4.118-4.441c0-2.429,2.013-4.233,5.043-4.233c1.573,0,2.753,0.37,3.424,0.764l-0.555,1.643
		c-0.486-0.301-1.527-0.74-2.938-0.74c-2.128,0-2.938,1.271-2.938,2.336c0,1.457,0.948,2.175,3.1,3.007
		c2.638,1.019,3.956,2.29,3.956,4.581c0,2.405-1.759,4.511-5.437,4.511c-1.504,0-3.146-0.463-3.979-1.019L349.744,491.901z"/>
	<path d="M361.335,477.93h2.036v7.009h0.046c0.324-0.578,0.833-1.11,1.457-1.457c0.602-0.347,1.319-0.556,2.082-0.556
		c1.504,0,3.909,0.926,3.909,4.766v6.662h-2.035v-6.431c0-1.805-0.671-3.308-2.591-3.308c-1.318,0-2.337,0.925-2.729,2.012
		c-0.116,0.301-0.139,0.602-0.139,0.972v6.755h-2.036V477.93z"/>
	<path d="M382.041,491.67c0,0.972,0.046,1.92,0.162,2.684h-1.828l-0.161-1.411h-0.069c-0.625,0.879-1.828,1.666-3.424,1.666
		c-2.268,0-3.424-1.597-3.424-3.216c0-2.706,2.406-4.187,6.731-4.164v-0.231c0-0.901-0.254-2.591-2.544-2.567
		c-1.064,0-2.151,0.301-2.938,0.833l-0.463-1.365c0.926-0.578,2.29-0.972,3.701-0.972c3.424,0,4.257,2.337,4.257,4.558V491.67z
		 M380.074,488.64c-2.221-0.046-4.741,0.347-4.741,2.521c0,1.342,0.879,1.943,1.896,1.943c1.48,0,2.429-0.926,2.753-1.874
		c0.069-0.231,0.092-0.463,0.092-0.647V488.64z"/>
	<path d="M385.535,494.354v-9.646h-1.55v-1.55h1.55v-0.532c0-1.572,0.37-3.007,1.296-3.909c0.764-0.74,1.781-1.041,2.729-1.041
		c0.74,0,1.342,0.162,1.735,0.324l-0.278,1.573c-0.301-0.139-0.693-0.255-1.295-0.255c-1.735,0-2.175,1.504-2.175,3.238v0.602h2.707
		v1.55h-2.707v9.646H385.535z"/>
	<path d="M394.789,480.475v2.683h2.915v1.55h-2.915v6.038c0,1.388,0.394,2.174,1.526,2.174c0.556,0,0.88-0.046,1.181-0.139
		l0.092,1.55c-0.393,0.139-1.018,0.278-1.804,0.278c-0.949,0-1.712-0.324-2.198-0.856c-0.555-0.624-0.786-1.619-0.786-2.938v-6.107
		h-1.735v-1.55h1.735v-2.082L394.789,480.475z"/>
</g>
<g>
	<path d="M354.324,508.803c-1.688,2.29-2.892,5.274-2.892,9.484c0,4.117,1.272,7.055,2.892,9.368h-1.573
		c-1.457-1.92-3.03-4.881-3.03-9.392c0.023-4.534,1.573-7.518,3.03-9.461H354.324z"/>
	<path d="M356.499,516.69c0-1.18-0.022-2.104-0.093-3.03h1.805l0.115,1.851h0.047c0.555-1.041,1.851-2.082,3.701-2.082
		c1.55,0,3.955,0.926,3.955,4.766v6.662h-2.035v-6.454c0-1.804-0.671-3.308-2.591-3.308c-1.318,0-2.359,0.948-2.729,2.082
		c-0.093,0.254-0.139,0.602-0.139,0.948v6.731h-2.036V516.69z"/>
	<path d="M379.472,519.166c0,4.141-2.892,5.945-5.574,5.945c-3.008,0-5.367-2.221-5.367-5.761c0-3.724,2.476-5.922,5.552-5.922
		C377.298,513.429,379.472,515.766,379.472,519.166z M370.612,519.281c0,2.452,1.388,4.303,3.377,4.303c1.943,0,3.4-1.827,3.4-4.349
		c0-1.896-0.948-4.279-3.354-4.279C371.653,514.956,370.612,517.177,370.612,519.281z"/>
	<path d="M382.042,516.69c0-1.18-0.022-2.104-0.093-3.03h1.805l0.115,1.851h0.047c0.555-1.041,1.851-2.082,3.701-2.082
		c1.55,0,3.955,0.926,3.955,4.766v6.662h-2.035v-6.454c0-1.804-0.671-3.308-2.591-3.308c-1.318,0-2.359,0.948-2.729,2.082
		c-0.093,0.254-0.139,0.602-0.139,0.948v6.731h-2.036V516.69z"/>
	<path d="M399.601,517.87v1.48h-5.713v-1.48H399.601z"/>
	<path d="M401.984,517.153c0-1.318-0.023-2.452-0.093-3.493h1.781l0.093,2.221h0.069c0.509-1.503,1.758-2.452,3.123-2.452
		c0.208,0,0.37,0.023,0.556,0.047v1.92c-0.209-0.047-0.417-0.047-0.694-0.047c-1.435,0-2.452,1.064-2.729,2.591
		c-0.047,0.278-0.069,0.625-0.069,0.949v5.968h-2.036V517.153z"/>
	<path d="M419.451,519.166c0,4.141-2.892,5.945-5.574,5.945c-3.008,0-5.367-2.221-5.367-5.761c0-3.724,2.476-5.922,5.552-5.922
		C417.277,513.429,419.451,515.766,419.451,519.166z M410.592,519.281c0,2.452,1.388,4.303,3.377,4.303c1.943,0,3.4-1.827,3.4-4.349
		c0-1.896-0.948-4.279-3.354-4.279C411.633,514.956,410.592,517.177,410.592,519.281z"/>
	<path d="M424.473,510.977v2.684h2.915v1.55h-2.915v6.038c0,1.388,0.394,2.174,1.526,2.174c0.556,0,0.88-0.046,1.181-0.139
		l0.092,1.55c-0.393,0.139-1.018,0.278-1.804,0.278c-0.949,0-1.712-0.324-2.198-0.856c-0.555-0.624-0.786-1.619-0.786-2.938v-6.107
		h-1.735v-1.55h1.735v-2.082L424.473,510.977z"/>
	<path d="M437.544,522.173c0,0.972,0.046,1.92,0.162,2.684h-1.828l-0.161-1.411h-0.069c-0.625,0.879-1.828,1.666-3.424,1.666
		c-2.268,0-3.424-1.597-3.424-3.216c0-2.706,2.406-4.187,6.731-4.164V517.5c0-0.901-0.254-2.591-2.545-2.567
		c-1.063,0-2.15,0.301-2.938,0.833l-0.463-1.365c0.926-0.578,2.291-0.972,3.701-0.972c3.424,0,4.257,2.337,4.257,4.558V522.173z
		 M435.578,519.143c-2.221-0.046-4.742,0.348-4.742,2.521c0,1.342,0.879,1.943,1.896,1.943c1.48,0,2.429-0.926,2.753-1.874
		c0.069-0.231,0.093-0.463,0.093-0.647V519.143z"/>
	<path d="M443.19,510.977v2.684h2.915v1.55h-2.915v6.038c0,1.388,0.394,2.174,1.526,2.174c0.556,0,0.88-0.046,1.18-0.139l0.093,1.55
		c-0.393,0.139-1.018,0.278-1.804,0.278c-0.949,0-1.712-0.324-2.198-0.856c-0.555-0.624-0.786-1.619-0.786-2.938v-6.107h-1.735
		v-1.55h1.735v-2.082L443.19,510.977z"/>
	<path d="M450.663,510.515c0,0.693-0.486,1.249-1.296,1.249c-0.74,0-1.226-0.556-1.226-1.249c0-0.694,0.509-1.272,1.271-1.272
		C450.153,509.242,450.663,509.797,450.663,510.515z M448.396,524.856V513.66h2.036v11.196H448.396z"/>
	<path d="M453.81,516.69c0-1.18-0.022-2.104-0.093-3.03h1.805l0.115,1.851h0.047c0.555-1.041,1.851-2.082,3.701-2.082
		c1.55,0,3.955,0.926,3.955,4.766v6.662h-2.035v-6.454c0-1.804-0.671-3.308-2.591-3.308c-1.318,0-2.359,0.948-2.729,2.082
		c-0.093,0.254-0.139,0.602-0.139,0.948v6.731h-2.036V516.69z"/>
	<path d="M476.228,523.214c0,2.591-0.532,4.141-1.597,5.136c-1.11,0.994-2.683,1.342-4.094,1.342c-1.342,0-2.822-0.324-3.725-0.926
		l0.509-1.573c0.74,0.486,1.897,0.902,3.285,0.902c2.082,0,3.608-1.087,3.608-3.933v-1.226h-0.046
		c-0.602,1.041-1.828,1.874-3.563,1.874c-2.776,0-4.766-2.359-4.766-5.46c0-3.793,2.476-5.922,5.066-5.922
		c1.942,0,2.983,0.995,3.493,1.92h0.046l0.069-1.688h1.805c-0.07,0.787-0.093,1.712-0.093,3.054V523.214z M474.191,518.079
		c0-0.348-0.022-0.648-0.115-0.902c-0.37-1.203-1.342-2.175-2.846-2.175c-1.942,0-3.331,1.643-3.331,4.233
		c0,2.197,1.134,4.025,3.309,4.025c1.271,0,2.405-0.787,2.821-2.082c0.116-0.348,0.162-0.74,0.162-1.088V518.079z"/>
	<path d="M478.357,527.655c1.619-2.29,2.892-5.274,2.892-9.438c0-4.164-1.249-7.102-2.892-9.415h1.572
		c1.458,1.896,3.031,4.881,3.031,9.415c-0.023,4.533-1.573,7.494-3.031,9.438H478.357z"/>
</g>
<g>
	<path d="M175.122,476.487h2.036v13.902h6.662v1.688h-8.698V476.487z"/>
	<path d="M195.804,486.388c0,4.141-2.892,5.945-5.575,5.945c-3.007,0-5.367-2.221-5.367-5.761c0-3.724,2.475-5.922,5.552-5.922
		C193.629,480.65,195.804,482.987,195.804,486.388z M186.944,486.503c0,2.452,1.388,4.303,3.377,4.303c1.943,0,3.4-1.827,3.4-4.349
		c0-1.896-0.948-4.279-3.354-4.279C187.985,482.178,186.944,484.398,186.944,486.503z"/>
	<path d="M199.021,480.882l1.503,5.69c0.301,1.25,0.602,2.406,0.81,3.563h0.069c0.254-1.133,0.625-2.336,0.995-3.539l1.828-5.714
		h1.712l1.735,5.599c0.416,1.342,0.74,2.521,0.995,3.654h0.069c0.185-1.133,0.486-2.313,0.856-3.632l1.596-5.621h2.012
		l-3.608,11.196h-1.851l-1.712-5.344c-0.393-1.249-0.717-2.359-0.995-3.678h-0.046c-0.277,1.342-0.625,2.498-1.018,3.701
		l-1.805,5.32h-1.851l-3.377-11.196H199.021z"/>
	<path d="M219.867,485.092v1.48h-5.714v-1.48H219.867z"/>
	<path d="M221.973,490.02c0.625,0.37,1.688,0.786,2.707,0.786c1.457,0,2.151-0.717,2.151-1.665c0-0.972-0.579-1.48-2.059-2.036
		c-2.036-0.74-2.984-1.827-2.984-3.169c0-1.805,1.48-3.285,3.863-3.285c1.134,0,2.128,0.301,2.73,0.694l-0.486,1.48
		c-0.439-0.277-1.249-0.671-2.29-0.671c-1.203,0-1.851,0.694-1.851,1.526c0,0.926,0.647,1.342,2.105,1.921
		c1.92,0.717,2.938,1.688,2.938,3.354c0,1.989-1.55,3.378-4.164,3.378c-1.226,0-2.359-0.324-3.146-0.787L221.973,490.02z"/>
	<path d="M231.412,484.537c0-1.435-0.046-2.591-0.092-3.655h1.804l0.116,1.92h0.046c0.81-1.364,2.151-2.151,3.979-2.151
		c2.73,0,4.765,2.29,4.765,5.668c0,4.024-2.475,6.015-5.112,6.015c-1.48,0-2.776-0.648-3.447-1.759h-0.046v6.084h-2.013V484.537z
		 M233.424,487.521c0,0.301,0.023,0.578,0.092,0.832c0.37,1.411,1.596,2.383,3.054,2.383c2.151,0,3.4-1.758,3.4-4.325
		c0-2.221-1.18-4.142-3.331-4.142c-1.388,0-2.707,0.972-3.077,2.499c-0.069,0.254-0.139,0.555-0.139,0.81V487.521z"/>
	<path d="M245.71,486.851c0.046,2.752,1.781,3.886,3.84,3.886c1.458,0,2.359-0.254,3.1-0.578l0.37,1.457
		c-0.717,0.324-1.966,0.718-3.747,0.718c-3.447,0-5.506-2.29-5.506-5.668c0-3.377,1.989-6.015,5.251-6.015
		c3.678,0,4.626,3.192,4.626,5.251c0,0.417-0.023,0.718-0.069,0.949H245.71z M251.678,485.393c0.023-1.271-0.532-3.284-2.822-3.284
		c-2.082,0-2.961,1.873-3.123,3.284H251.678z"/>
	<path d="M257.301,486.851c0.046,2.752,1.781,3.886,3.84,3.886c1.458,0,2.359-0.254,3.1-0.578l0.37,1.457
		c-0.717,0.324-1.966,0.718-3.747,0.718c-3.447,0-5.506-2.29-5.506-5.668c0-3.377,1.989-6.015,5.251-6.015
		c3.678,0,4.626,3.192,4.626,5.251c0,0.417-0.023,0.718-0.069,0.949H257.301z M263.269,485.393c0.023-1.271-0.532-3.284-2.822-3.284
		c-2.082,0-2.961,1.873-3.123,3.284H263.269z"/>
	<path d="M277.405,475.654v13.532c0,0.995,0.046,2.128,0.092,2.892h-1.804l-0.092-1.943h-0.07c-0.601,1.249-1.943,2.198-3.771,2.198
		c-2.707,0-4.812-2.29-4.812-5.691c-0.023-3.724,2.313-5.991,5.02-5.991c1.735,0,2.868,0.81,3.377,1.689h0.046v-6.686H277.405z
		 M275.392,485.439c0-0.255-0.023-0.602-0.092-0.856c-0.301-1.272-1.411-2.336-2.938-2.336c-2.105,0-3.354,1.851-3.354,4.303
		c0,2.267,1.133,4.141,3.308,4.141c1.365,0,2.614-0.926,2.984-2.429c0.069-0.278,0.092-0.556,0.092-0.88V485.439z"/>
</g>
<g>
	<path d="M174.798,520.522c0.625,0.37,1.688,0.786,2.707,0.786c1.457,0,2.151-0.717,2.151-1.665c0-0.972-0.579-1.48-2.059-2.036
		c-2.036-0.74-2.984-1.827-2.984-3.169c0-1.805,1.48-3.285,3.863-3.285c1.134,0,2.128,0.301,2.73,0.694l-0.486,1.48
		c-0.439-0.277-1.249-0.671-2.29-0.671c-1.203,0-1.851,0.694-1.851,1.526c0,0.926,0.647,1.342,2.105,1.92
		c1.92,0.718,2.938,1.689,2.938,3.354c0,1.989-1.55,3.378-4.164,3.378c-1.226,0-2.359-0.324-3.146-0.787L174.798,520.522z"/>
	<path d="M184.237,506.157h2.036v7.009h0.046c0.324-0.578,0.833-1.11,1.458-1.457c0.601-0.347,1.318-0.556,2.082-0.556
		c1.504,0,3.91,0.926,3.91,4.766v6.662h-2.036v-6.431c0-1.805-0.671-3.308-2.591-3.308c-1.318,0-2.336,0.925-2.729,2.012
		c-0.116,0.301-0.139,0.602-0.139,0.972v6.755h-2.036V506.157z"/>
	<path d="M204.943,519.897c0,0.972,0.046,1.92,0.162,2.684h-1.827l-0.162-1.411h-0.069c-0.625,0.879-1.827,1.666-3.423,1.666
		c-2.267,0-3.424-1.597-3.424-3.216c0-2.706,2.406-4.187,6.731-4.164v-0.231c0-0.901-0.254-2.591-2.544-2.567
		c-1.064,0-2.151,0.301-2.938,0.833l-0.462-1.365c0.925-0.578,2.29-0.972,3.701-0.972c3.423,0,4.256,2.337,4.256,4.558V519.897z
		 M202.977,516.867c-2.221-0.046-4.742,0.348-4.742,2.521c0,1.342,0.879,1.943,1.897,1.943c1.48,0,2.429-0.926,2.752-1.874
		c0.07-0.231,0.093-0.463,0.093-0.647V516.867z"/>
	<path d="M208.438,522.581v-9.646h-1.55v-1.55h1.55v-0.532c0-1.572,0.37-3.007,1.295-3.909c0.763-0.74,1.781-1.041,2.729-1.041
		c0.74,0,1.342,0.162,1.735,0.324l-0.277,1.573c-0.301-0.139-0.694-0.255-1.295-0.255c-1.735,0-2.175,1.504-2.175,3.238v0.602h2.707
		v1.55h-2.707v9.646H208.438z"/>
	<path d="M217.691,508.701v2.684h2.915v1.55h-2.915v6.038c0,1.388,0.394,2.174,1.527,2.174c0.555,0,0.879-0.046,1.18-0.139
		l0.092,1.55c-0.393,0.139-1.018,0.278-1.804,0.278c-0.948,0-1.711-0.324-2.197-0.856c-0.555-0.624-0.787-1.619-0.787-2.938v-6.107
		h-1.735v-1.55h1.735v-2.082L217.691,508.701z"/>
</g>
<g>
	<path d="M6.192,319.841l-0.394,5.552H4.55l-0.37-5.552H6.192z M9.639,319.841l-0.394,5.552H8.02l-0.393-5.552H9.639z"/>
	<path d="M12.485,328.146c0-1.318-0.023-2.452-0.092-3.493h1.781l0.092,2.221h0.069c0.509-1.503,1.758-2.452,3.123-2.452
		c0.208,0,0.37,0.023,0.555,0.046v1.92c-0.208-0.046-0.417-0.046-0.694-0.046c-1.435,0-2.452,1.064-2.729,2.591
		c-0.046,0.277-0.07,0.625-0.07,0.948v5.968h-2.036V328.146z"/>
	<path d="M22.41,321.507c0,0.694-0.486,1.249-1.295,1.249c-0.74,0-1.226-0.555-1.226-1.249c0-0.694,0.509-1.272,1.272-1.272
		C21.901,320.234,22.41,320.79,22.41,321.507z M20.143,335.849v-11.196h2.036v11.196H20.143z"/>
	<path d="M35.134,334.206c0,2.591-0.532,4.141-1.596,5.136c-1.11,0.994-2.684,1.342-4.095,1.342c-1.341,0-2.822-0.324-3.724-0.926
		l0.509-1.573c0.74,0.486,1.897,0.902,3.285,0.902c2.082,0,3.609-1.087,3.609-3.932v-1.226h-0.046
		c-0.602,1.041-1.827,1.874-3.563,1.874c-2.775,0-4.765-2.359-4.765-5.459c0-3.794,2.475-5.922,5.066-5.922
		c1.943,0,2.984,0.995,3.493,1.92h0.046l0.069-1.689h1.804c-0.069,0.787-0.092,1.712-0.092,3.054V334.206z M33.099,329.071
		c0-0.347-0.023-0.647-0.116-0.902c-0.37-1.203-1.342-2.175-2.845-2.175c-1.943,0-3.331,1.643-3.331,4.233
		c0,2.197,1.133,4.025,3.308,4.025c1.272,0,2.406-0.787,2.822-2.082c0.116-0.347,0.162-0.74,0.162-1.087V329.071z"/>
	<path d="M40.618,321.507c0,0.694-0.486,1.249-1.295,1.249c-0.74,0-1.226-0.555-1.226-1.249c0-0.694,0.509-1.272,1.272-1.272
		C40.109,320.234,40.618,320.79,40.618,321.507z M38.351,335.849v-11.196h2.036v11.196H38.351z"/>
	<path d="M53.412,319.425v13.532c0,0.995,0.046,2.128,0.092,2.892H51.7l-0.092-1.943h-0.07c-0.601,1.25-1.943,2.198-3.771,2.198
		c-2.707,0-4.812-2.29-4.812-5.69c-0.023-3.724,2.313-5.991,5.02-5.991c1.735,0,2.868,0.81,3.377,1.688h0.046v-6.685H53.412z
		 M51.399,329.209c0-0.254-0.023-0.601-0.092-0.856c-0.301-1.272-1.411-2.336-2.938-2.336c-2.105,0-3.354,1.851-3.354,4.302
		c0,2.267,1.133,4.141,3.308,4.141c1.365,0,2.614-0.926,2.984-2.429c0.069-0.277,0.092-0.555,0.092-0.879V329.209z"/>
	<path d="M58.318,319.841l-0.394,5.552h-1.249l-0.37-5.552H58.318z M61.765,319.841l-0.394,5.552h-1.226l-0.393-5.552H61.765z"/>
	<path d="M77.496,335.456c-0.532,0.254-1.712,0.647-3.215,0.647c-3.377,0-5.575-2.29-5.575-5.713c0-3.447,2.36-5.968,6.015-5.968
		c1.203,0,2.267,0.301,2.822,0.601l-0.462,1.55c-0.486-0.254-1.249-0.532-2.359-0.532c-2.568,0-3.956,1.92-3.956,4.233
		c0,2.591,1.666,4.187,3.886,4.187c1.156,0,1.92-0.278,2.498-0.532L77.496,335.456z"/>
	<path d="M89.874,330.158c0,4.141-2.892,5.945-5.575,5.945c-3.007,0-5.367-2.221-5.367-5.76c0-3.725,2.475-5.922,5.552-5.922
		C87.699,324.421,89.874,326.758,89.874,330.158z M81.014,330.274c0,2.452,1.388,4.302,3.377,4.302c1.943,0,3.4-1.827,3.4-4.349
		c0-1.897-0.948-4.279-3.354-4.279C82.055,325.948,81.014,328.169,81.014,330.274z"/>
	<path d="M92.443,327.683c0-1.18-0.023-2.105-0.092-3.031h1.804l0.116,1.851h0.046c0.555-1.041,1.851-2.082,3.701-2.082
		c1.55,0,3.956,0.925,3.956,4.765v6.662h-2.036v-6.454c0-1.804-0.671-3.308-2.591-3.308c-1.318,0-2.359,0.948-2.729,2.082
		c-0.093,0.254-0.139,0.601-0.139,0.948v6.731h-2.036V327.683z"/>
	<path d="M105.284,327.683c0-1.18-0.023-2.105-0.092-3.031h1.804l0.116,1.851h0.046c0.555-1.041,1.851-2.082,3.701-2.082
		c1.55,0,3.956,0.925,3.956,4.765v6.662h-2.036v-6.454c0-1.804-0.671-3.308-2.591-3.308c-1.319,0-2.359,0.948-2.729,2.082
		c-0.093,0.254-0.139,0.601-0.139,0.948v6.731h-2.036V327.683z"/>
	<path d="M119.258,330.621c0.046,2.753,1.781,3.886,3.84,3.886c1.458,0,2.359-0.254,3.1-0.578l0.37,1.457
		c-0.717,0.324-1.966,0.717-3.748,0.717c-3.446,0-5.505-2.29-5.505-5.667c0-3.377,1.99-6.014,5.251-6.014
		c3.678,0,4.626,3.192,4.626,5.251c0,0.417-0.023,0.717-0.069,0.948H119.258z M125.227,329.164c0.023-1.272-0.532-3.285-2.822-3.285
		c-2.082,0-2.961,1.874-3.123,3.285H125.227z"/>
	<path d="M137.696,335.456c-0.532,0.254-1.712,0.647-3.215,0.647c-3.377,0-5.575-2.29-5.575-5.713c0-3.447,2.36-5.968,6.015-5.968
		c1.203,0,2.267,0.301,2.822,0.601l-0.462,1.55c-0.486-0.254-1.249-0.532-2.359-0.532c-2.568,0-3.956,1.92-3.956,4.233
		c0,2.591,1.666,4.187,3.886,4.187c1.156,0,1.92-0.278,2.498-0.532L137.696,335.456z"/>
	<path d="M142.833,321.969v2.683h2.915v1.55h-2.915v6.038c0,1.388,0.394,2.174,1.527,2.174c0.555,0,0.879-0.046,1.18-0.139
		l0.092,1.55c-0.393,0.139-1.018,0.277-1.804,0.277c-0.948,0-1.711-0.324-2.197-0.856c-0.555-0.625-0.787-1.619-0.787-2.938v-6.107
		h-1.735v-1.55h1.735v-2.082L142.833,321.969z"/>
	<path d="M150.306,321.507c0,0.694-0.486,1.249-1.295,1.249c-0.74,0-1.226-0.555-1.226-1.249c0-0.694,0.509-1.272,1.272-1.272
		C149.797,320.234,150.306,320.79,150.306,321.507z M148.039,335.849v-11.196h2.036v11.196H148.039z"/>
	<path d="M163.585,330.158c0,4.141-2.892,5.945-5.575,5.945c-3.007,0-5.367-2.221-5.367-5.76c0-3.725,2.475-5.922,5.552-5.922
		C161.41,324.421,163.585,326.758,163.585,330.158z M154.725,330.274c0,2.452,1.388,4.302,3.377,4.302c1.943,0,3.4-1.827,3.4-4.349
		c0-1.897-0.948-4.279-3.354-4.279C155.766,325.948,154.725,328.169,154.725,330.274z"/>
	<path d="M166.154,327.683c0-1.18-0.023-2.105-0.092-3.031h1.804l0.116,1.851h0.046c0.555-1.041,1.851-2.082,3.701-2.082
		c1.55,0,3.956,0.925,3.956,4.765v6.662h-2.036v-6.454c0-1.804-0.671-3.308-2.591-3.308c-1.318,0-2.359,0.948-2.729,2.082
		c-0.093,0.254-0.139,0.601-0.139,0.948v6.731h-2.036V327.683z"/>
</g>
<g>
	<path d="M7.141,352.473v2.684h2.915v1.55H7.141v6.038c0,1.388,0.394,2.174,1.527,2.174c0.555,0,0.879-0.046,1.18-0.139l0.092,1.55
		c-0.393,0.139-1.018,0.278-1.804,0.278c-0.948,0-1.711-0.324-2.197-0.856c-0.555-0.624-0.787-1.619-0.787-2.938v-6.107H3.417v-1.55
		h1.735v-2.082L7.141,352.473z"/>
	<path d="M22.34,360.662c0,4.141-2.892,5.945-5.575,5.945c-3.007,0-5.367-2.221-5.367-5.761c0-3.724,2.475-5.922,5.552-5.922
		C20.165,354.925,22.34,357.262,22.34,360.662z M13.48,360.777c0,2.452,1.388,4.303,3.377,4.303c1.943,0,3.4-1.827,3.4-4.349
		c0-1.896-0.948-4.279-3.354-4.279C14.521,356.452,13.48,358.673,13.48,360.777z"/>
	<path d="M29.814,349.929h2.013v7.032h0.046c0.717-1.249,2.012-2.036,3.817-2.036c2.799,0,4.742,2.313,4.742,5.69
		c0,4.002-2.544,5.992-5.042,5.992c-1.62,0-2.915-0.625-3.771-2.082h-0.046l-0.116,1.827h-1.735
		c0.046-0.764,0.092-1.896,0.092-2.892V349.929z M31.827,361.865c0,0.254,0.023,0.509,0.092,0.74
		c0.37,1.411,1.573,2.382,3.054,2.382c2.151,0,3.4-1.734,3.4-4.302c0-2.244-1.157-4.164-3.354-4.164
		c-1.365,0-2.66,0.972-3.077,2.498c-0.069,0.255-0.116,0.532-0.116,0.855V361.865z"/>
	<path d="M42.979,349.929h2.036v16.424h-2.036V349.929z"/>
	<path d="M56.304,363.669c0,0.972,0.046,1.92,0.162,2.684h-1.828l-0.162-1.411h-0.069c-0.625,0.879-1.828,1.666-3.423,1.666
		c-2.267,0-3.424-1.597-3.424-3.216c0-2.706,2.406-4.187,6.731-4.164v-0.231c0-0.901-0.254-2.591-2.544-2.567
		c-1.064,0-2.151,0.301-2.938,0.833l-0.462-1.365c0.925-0.578,2.29-0.972,3.701-0.972c3.423,0,4.256,2.337,4.256,4.558V363.669z
		 M54.337,360.639c-2.221-0.046-4.742,0.348-4.742,2.521c0,1.342,0.879,1.943,1.897,1.943c1.48,0,2.429-0.926,2.753-1.874
		c0.069-0.231,0.092-0.463,0.092-0.647V360.639z"/>
	<path d="M69.236,349.929v13.532c0,0.995,0.046,2.128,0.092,2.892h-1.804l-0.093-1.943h-0.069c-0.601,1.249-1.943,2.198-3.771,2.198
		c-2.707,0-4.812-2.291-4.812-5.691c-0.023-3.724,2.313-5.991,5.02-5.991c1.735,0,2.868,0.81,3.377,1.689h0.046v-6.686H69.236z
		 M67.224,359.714c0-0.255-0.023-0.602-0.092-0.856c-0.301-1.272-1.411-2.336-2.938-2.336c-2.105,0-3.354,1.851-3.354,4.303
		c0,2.267,1.133,4.141,3.308,4.141c1.365,0,2.614-0.926,2.984-2.429c0.069-0.278,0.092-0.556,0.092-0.88V359.714z"/>
	<path d="M73.772,361.125c0.046,2.752,1.781,3.886,3.84,3.886c1.458,0,2.359-0.254,3.1-0.578l0.37,1.457
		c-0.717,0.324-1.966,0.718-3.747,0.718c-3.447,0-5.506-2.291-5.506-5.668s1.989-6.015,5.251-6.015c3.678,0,4.626,3.192,4.626,5.251
		c0,0.417-0.023,0.718-0.069,0.949H73.772z M79.74,359.667c0.023-1.272-0.532-3.284-2.822-3.284c-2.082,0-2.961,1.873-3.123,3.284
		H79.74z"/>
	<path d="M89.135,358.649c0-1.318-0.023-2.452-0.092-3.493h1.781l0.092,2.221h0.069c0.509-1.503,1.758-2.452,3.123-2.452
		c0.208,0,0.37,0.023,0.555,0.047v1.92c-0.208-0.047-0.417-0.047-0.694-0.047c-1.435,0-2.452,1.064-2.729,2.591
		c-0.046,0.278-0.07,0.625-0.07,0.949v5.968h-2.036V358.649z"/>
	<path d="M106.601,360.662c0,4.141-2.892,5.945-5.575,5.945c-3.007,0-5.367-2.221-5.367-5.761c0-3.724,2.475-5.922,5.552-5.922
		C104.426,354.925,106.601,357.262,106.601,360.662z M97.741,360.777c0,2.452,1.388,4.303,3.377,4.303c1.943,0,3.4-1.827,3.4-4.349
		c0-1.896-0.949-4.279-3.354-4.279C98.782,356.452,97.741,358.673,97.741,360.777z"/>
	<path d="M119.303,360.662c0,4.141-2.892,5.945-5.575,5.945c-3.007,0-5.367-2.221-5.367-5.761c0-3.724,2.475-5.922,5.552-5.922
		C117.128,354.925,119.303,357.262,119.303,360.662z M110.443,360.777c0,2.452,1.388,4.303,3.377,4.303c1.943,0,3.4-1.827,3.4-4.349
		c0-1.896-0.948-4.279-3.354-4.279C111.484,356.452,110.443,358.673,110.443,360.777z"/>
	<path d="M124.325,352.473v2.684h2.915v1.55h-2.915v6.038c0,1.388,0.393,2.174,1.527,2.174c0.555,0,0.879-0.046,1.18-0.139
		l0.093,1.55c-0.394,0.139-1.018,0.278-1.805,0.278c-0.948,0-1.712-0.324-2.197-0.856c-0.555-0.624-0.787-1.619-0.787-2.938v-6.107
		h-1.735v-1.55h1.735v-2.082L124.325,352.473z"/>
</g>
<g>
	<path d="M9.084,380.804c-1.689,2.29-2.892,5.274-2.892,9.484c0,4.117,1.272,7.055,2.892,9.368H7.511
		c-1.457-1.92-3.03-4.881-3.03-9.392c0.023-4.534,1.573-7.518,3.03-9.461H9.084z"/>
	<path d="M12.393,391.63c0.046,2.752,1.781,3.886,3.84,3.886c1.458,0,2.359-0.254,3.1-0.578l0.37,1.457
		c-0.717,0.324-1.966,0.718-3.748,0.718c-3.446,0-5.505-2.29-5.505-5.668c0-3.377,1.99-6.015,5.251-6.015
		c3.678,0,4.626,3.192,4.626,5.251c0,0.417-0.023,0.718-0.069,0.949H12.393z M18.361,390.172c0.023-1.271-0.532-3.284-2.822-3.284
		c-2.082,0-2.961,1.873-3.123,3.284H18.361z"/>
	<path d="M30.831,396.464c-0.532,0.255-1.712,0.648-3.215,0.648c-3.377,0-5.575-2.29-5.575-5.714c0-3.447,2.36-5.969,6.015-5.969
		c1.203,0,2.267,0.301,2.822,0.602l-0.462,1.55c-0.486-0.254-1.249-0.532-2.359-0.532c-2.568,0-3.956,1.921-3.956,4.233
		c0,2.591,1.666,4.188,3.886,4.188c1.156,0,1.92-0.278,2.498-0.532L30.831,396.464z"/>
	<path d="M41.058,396.464c-0.532,0.255-1.712,0.648-3.215,0.648c-3.377,0-5.575-2.29-5.575-5.714c0-3.447,2.36-5.969,6.015-5.969
		c1.203,0,2.267,0.301,2.822,0.602l-0.462,1.55c-0.486-0.254-1.249-0.532-2.359-0.532c-2.568,0-3.956,1.921-3.956,4.233
		c0,2.591,1.666,4.188,3.886,4.188c1.156,0,1.92-0.278,2.498-0.532L41.058,396.464z"/>
	<path d="M44.437,391.63c0.046,2.752,1.781,3.886,3.84,3.886c1.458,0,2.359-0.254,3.1-0.578l0.37,1.457
		c-0.717,0.324-1.966,0.718-3.747,0.718c-3.447,0-5.506-2.29-5.506-5.668c0-3.377,1.989-6.015,5.251-6.015
		c3.678,0,4.626,3.192,4.626,5.251c0,0.417-0.023,0.718-0.069,0.949H44.437z M50.404,390.172c0.023-1.271-0.532-3.284-2.822-3.284
		c-2.082,0-2.961,1.873-3.123,3.284H50.404z"/>
	<path d="M54.894,388.691c0-1.18-0.023-2.104-0.092-3.03h1.804l0.116,1.851h0.046c0.555-1.041,1.851-2.082,3.701-2.082
		c1.55,0,3.956,0.926,3.956,4.766v6.662h-2.036v-6.454c0-1.804-0.671-3.308-2.591-3.308c-1.319,0-2.359,0.948-2.729,2.082
		c-0.093,0.254-0.139,0.602-0.139,0.948v6.731h-2.036V388.691z"/>
	<path d="M70.094,382.979v2.683h2.915v1.55h-2.915v6.038c0,1.388,0.393,2.174,1.527,2.174c0.555,0,0.879-0.046,1.18-0.139
		l0.093,1.55c-0.394,0.139-1.018,0.278-1.805,0.278c-0.948,0-1.712-0.324-2.197-0.856c-0.555-0.624-0.787-1.619-0.787-2.938v-6.107
		H66.37v-1.55h1.735v-2.082L70.094,382.979z"/>
	<path d="M75.3,389.154c0-1.318-0.023-2.452-0.092-3.493h1.781l0.092,2.221h0.069c0.509-1.503,1.758-2.452,3.123-2.452
		c0.208,0,0.37,0.023,0.555,0.047v1.92c-0.208-0.047-0.417-0.047-0.694-0.047c-1.435,0-2.452,1.064-2.729,2.591
		c-0.046,0.278-0.07,0.625-0.07,0.949v5.968H75.3V389.154z"/>
	<path d="M85.225,382.516c0,0.693-0.486,1.249-1.295,1.249c-0.74,0-1.226-0.556-1.226-1.249c0-0.694,0.509-1.272,1.272-1.272
		C84.716,381.243,85.225,381.798,85.225,382.516z M82.958,396.857v-11.196h2.036v11.196H82.958z"/>
	<path d="M96.353,396.464c-0.532,0.255-1.712,0.648-3.215,0.648c-3.377,0-5.575-2.29-5.575-5.714c0-3.447,2.36-5.969,6.015-5.969
		c1.203,0,2.267,0.301,2.822,0.602l-0.462,1.55c-0.486-0.254-1.249-0.532-2.359-0.532c-2.568,0-3.956,1.921-3.956,4.233
		c0,2.591,1.666,4.188,3.886,4.188c1.156,0,1.92-0.278,2.498-0.532L96.353,396.464z"/>
	<path d="M101.004,382.516c0,0.693-0.486,1.249-1.295,1.249c-0.74,0-1.226-0.556-1.226-1.249c0-0.694,0.509-1.272,1.272-1.272
		C100.495,381.243,101.004,381.798,101.004,382.516z M98.737,396.857v-11.196h2.036v11.196H98.737z"/>
	<path d="M106.603,382.979v2.683h2.915v1.55h-2.915v6.038c0,1.388,0.394,2.174,1.527,2.174c0.555,0,0.879-0.046,1.18-0.139
		l0.092,1.55c-0.393,0.139-1.018,0.278-1.804,0.278c-0.948,0-1.711-0.324-2.197-0.856c-0.555-0.624-0.787-1.619-0.787-2.938v-6.107
		h-1.735v-1.55h1.735v-2.082L106.603,382.979z"/>
	<path d="M112.757,385.661l2.429,6.616c0.277,0.74,0.555,1.619,0.74,2.29h0.046c0.208-0.671,0.439-1.526,0.717-2.337l2.221-6.569
		h2.151l-3.054,7.98c-1.457,3.841-2.452,5.783-3.84,7.01c-1.018,0.855-1.989,1.202-2.498,1.295l-0.509-1.688
		c0.509-0.162,1.18-0.485,1.781-0.994c0.555-0.44,1.226-1.227,1.712-2.268c0.093-0.208,0.162-0.37,0.162-0.485
		c0-0.116-0.046-0.278-0.162-0.532l-4.118-10.317H112.757z"/>
	<path d="M121.688,399.656c1.62-2.29,2.892-5.274,2.892-9.438c0-4.164-1.249-7.102-2.892-9.415h1.573
		c1.458,1.896,3.03,4.881,3.03,9.415c-0.023,4.533-1.573,7.494-3.03,9.438H121.688z"/>
</g>
<g>
	<path d="M581.202,443.791h2.035v13.902h6.662v1.688h-8.697V443.791z"/>
	<path d="M594.343,445.04c0,0.693-0.486,1.249-1.296,1.249c-0.74,0-1.226-0.556-1.226-1.249c0-0.694,0.509-1.272,1.271-1.272
		C593.833,443.768,594.343,444.322,594.343,445.04z M592.075,459.382v-11.196h2.036v11.196H592.075z"/>
	<path d="M597.489,451.216c0-1.18-0.022-2.104-0.093-3.03h1.805l0.115,1.851h0.047c0.555-1.041,1.851-2.082,3.701-2.082
		c1.55,0,3.955,0.926,3.955,4.766v6.662h-2.035v-6.454c0-1.804-0.671-3.308-2.591-3.308c-1.318,0-2.359,0.948-2.729,2.082
		c-0.093,0.254-0.139,0.602-0.139,0.948v6.731h-2.036V451.216z"/>
	<path d="M611.463,454.154c0.046,2.752,1.781,3.886,3.84,3.886c1.457,0,2.359-0.254,3.1-0.578l0.37,1.457
		c-0.717,0.324-1.966,0.718-3.747,0.718c-3.447,0-5.506-2.291-5.506-5.668s1.989-6.015,5.251-6.015c3.679,0,4.627,3.192,4.627,5.251
		c0,0.417-0.023,0.718-0.069,0.949H611.463z M617.431,452.696c0.023-1.272-0.532-3.284-2.822-3.284
		c-2.081,0-2.961,1.873-3.122,3.284H617.431z"/>
	<path d="M627.773,448.186l1.597,2.406c0.439,0.624,0.786,1.18,1.156,1.804h0.047c0.37-0.647,0.74-1.226,1.133-1.827l1.55-2.383
		h2.221l-3.816,5.413l3.909,5.783h-2.29l-1.666-2.521c-0.439-0.647-0.81-1.272-1.202-1.943h-0.047
		c-0.37,0.671-0.74,1.272-1.18,1.943l-1.619,2.521h-2.243l3.979-5.714l-3.794-5.482H627.773z"/>
	<path d="M642.117,452.396v1.48h-5.713v-1.48H642.117z"/>
	<path d="M654.564,442.958v13.532c0,0.995,0.046,2.128,0.093,2.892h-1.805l-0.093-1.943h-0.069
		c-0.602,1.249-1.943,2.198-3.771,2.198c-2.706,0-4.812-2.291-4.812-5.691c-0.023-3.724,2.313-5.991,5.02-5.991
		c1.735,0,2.869,0.81,3.378,1.689h0.046v-6.686H654.564z M652.552,452.743c0-0.255-0.023-0.602-0.093-0.856
		c-0.301-1.272-1.411-2.336-2.938-2.336c-2.105,0-3.354,1.851-3.354,4.303c0,2.267,1.134,4.141,3.309,4.141
		c1.364,0,2.613-0.926,2.983-2.429c0.069-0.278,0.093-0.556,0.093-0.88V452.743z"/>
	<path d="M660.234,445.04c0,0.693-0.486,1.249-1.296,1.249c-0.74,0-1.226-0.556-1.226-1.249c0-0.694,0.509-1.272,1.271-1.272
		C659.725,443.768,660.234,444.322,660.234,445.04z M657.967,459.382v-11.196h2.036v11.196H657.967z"/>
	<path d="M663.38,451.679c0-1.318-0.022-2.452-0.093-3.493h1.781l0.093,2.221h0.069c0.509-1.503,1.758-2.452,3.123-2.452
		c0.208,0,0.37,0.023,0.555,0.047v1.92c-0.208-0.047-0.416-0.047-0.693-0.047c-1.435,0-2.452,1.064-2.729,2.591
		c-0.047,0.278-0.069,0.625-0.069,0.949v5.968h-2.036V451.679z"/>
	<path d="M671.849,454.154c0.046,2.752,1.781,3.886,3.84,3.886c1.457,0,2.359-0.254,3.1-0.578l0.37,1.457
		c-0.717,0.324-1.966,0.718-3.747,0.718c-3.447,0-5.506-2.291-5.506-5.668s1.989-6.015,5.251-6.015c3.678,0,4.627,3.192,4.627,5.251
		c0,0.417-0.023,0.718-0.069,0.949H671.849z M677.816,452.696c0.023-1.272-0.532-3.284-2.822-3.284
		c-2.082,0-2.961,1.873-3.122,3.284H677.816z"/>
	<path d="M690.286,458.988c-0.531,0.255-1.712,0.648-3.215,0.648c-3.378,0-5.575-2.291-5.575-5.714c0-3.447,2.359-5.969,6.015-5.969
		c1.203,0,2.267,0.301,2.822,0.602l-0.463,1.55c-0.485-0.254-1.249-0.531-2.359-0.531c-2.567,0-3.956,1.92-3.956,4.232
		c0,2.591,1.666,4.188,3.887,4.188c1.156,0,1.92-0.277,2.498-0.532L690.286,458.988z"/>
	<path d="M695.423,445.502v2.684h2.915v1.55h-2.915v6.038c0,1.388,0.394,2.174,1.526,2.174c0.556,0,0.88-0.046,1.18-0.139
		l0.093,1.55c-0.393,0.139-1.018,0.278-1.804,0.278c-0.949,0-1.712-0.324-2.198-0.856c-0.555-0.624-0.786-1.619-0.786-2.938v-6.107
		h-1.735v-1.55h1.735v-2.082L695.423,445.502z"/>
	<path d="M702.896,445.04c0,0.693-0.486,1.249-1.296,1.249c-0.74,0-1.226-0.556-1.226-1.249c0-0.694,0.509-1.272,1.271-1.272
		C702.387,443.768,702.896,444.322,702.896,445.04z M700.629,459.382v-11.196h2.036v11.196H700.629z"/>
	<path d="M716.175,453.691c0,4.141-2.892,5.945-5.574,5.945c-3.008,0-5.367-2.221-5.367-5.761c0-3.724,2.476-5.922,5.552-5.922
		C714.001,447.954,716.175,450.291,716.175,453.691z M707.315,453.807c0,2.452,1.388,4.303,3.377,4.303c1.943,0,3.4-1.827,3.4-4.349
		c0-1.896-0.948-4.279-3.354-4.279C708.356,449.481,707.315,451.702,707.315,453.807z"/>
	<path d="M718.744,451.216c0-1.18-0.023-2.104-0.093-3.03h1.805l0.116,1.851h0.046c0.555-1.041,1.851-2.082,3.701-2.082
		c1.55,0,3.955,0.926,3.955,4.766v6.662h-2.035v-6.454c0-1.804-0.671-3.308-2.591-3.308c-1.318,0-2.359,0.948-2.729,2.082
		c-0.093,0.254-0.139,0.602-0.139,0.948v6.731h-2.036V451.216z"/>
</g>
<g>
	<path d="M230.399,9.397h2.036V23.3h6.662v1.688h-8.698V9.397z"/>
	<path d="M243.54,10.646c0,0.694-0.486,1.249-1.295,1.249c-0.74,0-1.226-0.555-1.226-1.249c0-0.694,0.509-1.272,1.272-1.272
		C243.031,9.374,243.54,9.929,243.54,10.646z M241.273,24.988V13.792h2.036v11.196H241.273z"/>
	<path d="M246.687,16.823c0-1.18-0.023-2.105-0.092-3.031h1.804l0.116,1.851h0.046c0.555-1.041,1.851-2.082,3.701-2.082
		c1.55,0,3.956,0.925,3.956,4.765v6.662h-2.036v-6.454c0-1.804-0.671-3.308-2.591-3.308c-1.319,0-2.359,0.948-2.729,2.082
		c-0.093,0.254-0.139,0.601-0.139,0.948v6.731h-2.036V16.823z"/>
	<path d="M260.661,19.76c0.046,2.753,1.781,3.886,3.84,3.886c1.458,0,2.359-0.254,3.1-0.578l0.37,1.457
		c-0.717,0.324-1.966,0.717-3.747,0.717c-3.447,0-5.506-2.29-5.506-5.667c0-3.377,1.989-6.014,5.251-6.014
		c3.678,0,4.626,3.192,4.626,5.251c0,0.417-0.023,0.717-0.069,0.948H260.661z M266.629,18.303c0.023-1.272-0.532-3.285-2.822-3.285
		c-2.082,0-2.961,1.874-3.123,3.285H266.629z"/>
	<path d="M276.972,13.792l1.596,2.406c0.439,0.625,0.786,1.18,1.156,1.804h0.046c0.37-0.648,0.74-1.226,1.134-1.828l1.55-2.383
		h2.221l-3.817,5.413l3.909,5.783h-2.29l-1.666-2.521c-0.439-0.647-0.81-1.272-1.203-1.943h-0.046c-0.37,0.67-0.74,1.272-1.18,1.943
		l-1.62,2.521h-2.244l3.979-5.714l-3.793-5.482H276.972z"/>
	<path d="M291.316,18.002v1.48h-5.714v-1.48H291.316z"/>
	<path d="M303.762,8.564v13.532c0,0.995,0.046,2.128,0.093,2.892h-1.805l-0.093-1.943h-0.069c-0.602,1.25-1.943,2.198-3.771,2.198
		c-2.707,0-4.812-2.29-4.812-5.69c-0.023-3.724,2.313-5.991,5.02-5.991c1.735,0,2.869,0.81,3.377,1.688h0.046V8.564H303.762z
		 M301.749,18.349c0-0.254-0.023-0.601-0.093-0.856c-0.301-1.272-1.411-2.336-2.938-2.336c-2.105,0-3.354,1.851-3.354,4.302
		c0,2.267,1.133,4.141,3.308,4.141c1.364,0,2.613-0.926,2.983-2.429c0.069-0.277,0.093-0.555,0.093-0.879V18.349z"/>
	<path d="M309.432,10.646c0,0.694-0.486,1.249-1.296,1.249c-0.74,0-1.226-0.555-1.226-1.249c0-0.694,0.509-1.272,1.271-1.272
		C308.922,9.374,309.432,9.929,309.432,10.646z M307.164,24.988V13.792h2.036v11.196H307.164z"/>
	<path d="M312.578,17.285c0-1.318-0.023-2.452-0.093-3.493h1.781l0.093,2.221h0.069c0.509-1.503,1.758-2.452,3.123-2.452
		c0.208,0,0.37,0.023,0.556,0.046v1.92c-0.209-0.046-0.417-0.046-0.694-0.046c-1.435,0-2.452,1.064-2.729,2.591
		c-0.047,0.277-0.069,0.625-0.069,0.948v5.968h-2.036V17.285z"/>
	<path d="M321.046,19.76c0.046,2.753,1.781,3.886,3.84,3.886c1.457,0,2.359-0.254,3.1-0.578l0.37,1.457
		c-0.717,0.324-1.966,0.717-3.747,0.717c-3.447,0-5.506-2.29-5.506-5.667c0-3.377,1.989-6.014,5.251-6.014
		c3.678,0,4.627,3.192,4.627,5.251c0,0.417-0.023,0.717-0.069,0.948H321.046z M327.014,18.303c0.023-1.272-0.532-3.285-2.822-3.285
		c-2.082,0-2.961,1.874-3.122,3.285H327.014z"/>
	<path d="M339.483,24.595c-0.531,0.254-1.712,0.647-3.215,0.647c-3.378,0-5.575-2.29-5.575-5.713c0-3.447,2.359-5.968,6.015-5.968
		c1.203,0,2.267,0.301,2.822,0.601l-0.463,1.55c-0.485-0.254-1.249-0.532-2.359-0.532c-2.567,0-3.956,1.92-3.956,4.233
		c0,2.591,1.666,4.187,3.887,4.187c1.156,0,1.92-0.278,2.498-0.532L339.483,24.595z"/>
	<path d="M344.621,11.109v2.683h2.915v1.55h-2.915v6.038c0,1.388,0.394,2.174,1.526,2.174c0.556,0,0.88-0.046,1.181-0.139
		l0.092,1.55c-0.393,0.139-1.018,0.277-1.804,0.277c-0.949,0-1.712-0.324-2.198-0.856c-0.555-0.625-0.786-1.619-0.786-2.938v-6.107
		h-1.735v-1.55h1.735V11.71L344.621,11.109z"/>
	<path d="M352.095,10.646c0,0.694-0.486,1.249-1.296,1.249c-0.74,0-1.226-0.555-1.226-1.249c0-0.694,0.509-1.272,1.271-1.272
		C351.585,9.374,352.095,9.929,352.095,10.646z M349.827,24.988V13.792h2.036v11.196H349.827z"/>
	<path d="M365.372,19.298c0,4.141-2.892,5.945-5.574,5.945c-3.008,0-5.367-2.221-5.367-5.76c0-3.725,2.476-5.922,5.552-5.922
		C363.198,13.561,365.372,15.897,365.372,19.298z M356.513,19.414c0,2.452,1.388,4.302,3.377,4.302c1.943,0,3.4-1.827,3.4-4.349
		c0-1.897-0.948-4.279-3.354-4.279C357.554,15.088,356.513,17.309,356.513,19.414z"/>
	<path d="M367.942,16.823c0-1.18-0.022-2.105-0.093-3.031h1.805l0.115,1.851h0.047c0.555-1.041,1.851-2.082,3.701-2.082
		c1.55,0,3.955,0.925,3.955,4.765v6.662h-2.035v-6.454c0-1.804-0.671-3.308-2.591-3.308c-1.318,0-2.359,0.948-2.729,2.082
		c-0.093,0.254-0.139,0.601-0.139,0.948v6.731h-2.036V16.823z"/>
</g>
<g>
	
		<polyline fill-rule="evenodd" clip-rule="evenodd" fill="none" stroke="#000000" stroke-width="0.5" stroke-linecap="round" stroke-linejoin="round" stroke-miterlimit="10" points="
		189.735,470.927 199.931,468.989 207.852,466.376 216.278,462.586 224.283,457.696 232.963,450.872 240.042,443.709 
		248.047,433.85 255.377,422.474 259.675,414.553 	"/>
</g>
<g>
	
		<polyline fill-rule="evenodd" clip-rule="evenodd" stroke="#000000" stroke-width="0.5" stroke-linecap="round" stroke-linejoin="round" stroke-miterlimit="10" points="
		249.226,421.547 259.675,414.553 259.086,427.11 249.226,421.547 	"/>
</g>
<g>
	
		<line fill-rule="evenodd" clip-rule="evenodd" fill="none" stroke="#000000" stroke-width="0.5" stroke-linecap="round" stroke-linejoin="round" stroke-miterlimit="10" x1="365.767" y1="466.461" x2="374.783" y2="432.585"/>
</g>
<g>
	
		<polyline fill-rule="evenodd" clip-rule="evenodd" stroke="#000000" stroke-width="0.5" stroke-linecap="round" stroke-linejoin="round" stroke-miterlimit="10" points="
		366.44,442.023 374.783,432.585 377.311,444.889 366.44,442.023 	"/>
</g>
<g>
	
		<polyline fill-rule="evenodd" clip-rule="evenodd" fill="none" stroke="#000000" stroke-width="0.5" stroke-linecap="round" stroke-linejoin="round" stroke-miterlimit="10" points="
		433.434,211.471 413.799,218.213 395.006,225.459 372.17,235.655 350.852,246.779 335.262,256.133 319.504,266.75 303.916,278.716 
		289.422,291.523 277.792,303.238 267.007,315.539 255.715,330.287 245.688,345.791 245.013,346.887 	"/>
</g>
<g>
	
		<polyline fill-rule="evenodd" clip-rule="evenodd" stroke="#000000" stroke-width="0.5" stroke-linecap="round" stroke-linejoin="round" stroke-miterlimit="10" points="
		255.967,340.651 245.013,346.887 246.615,334.332 255.967,340.651 	"/>
</g>
<g>
	
		<polyline fill-rule="evenodd" clip-rule="evenodd" fill="none" stroke="#000000" stroke-width="0.5" stroke-linecap="round" stroke-linejoin="round" stroke-miterlimit="10" points="
		524.777,309.642 488.206,317.899 451.128,327.337 419.781,336.27 387.171,346.887 365.767,354.724 343.941,363.656 
		320.516,374.778 304.928,383.375 294.646,389.694 	"/>
</g>
<g>
	
		<polyline fill-rule="evenodd" clip-rule="evenodd" stroke="#000000" stroke-width="0.5" stroke-linecap="round" stroke-linejoin="round" stroke-miterlimit="10" points="
		307.203,388.768 294.646,389.694 301.472,379.161 307.203,388.768 	"/>
</g>
<g>
	
		<line fill-rule="evenodd" clip-rule="evenodd" fill="none" stroke="#000000" stroke-width="0.5" stroke-linecap="round" stroke-linejoin="round" stroke-miterlimit="10" x1="327.342" y1="90.801" x2="241.643" y2="140.434"/>
</g>
<g>
	
		<polyline fill-rule="evenodd" clip-rule="evenodd" stroke="#000000" stroke-width="0.5" stroke-linecap="round" stroke-linejoin="round" stroke-miterlimit="10" points="
		254.198,139.591 241.643,140.434 248.552,129.902 254.198,139.591 	"/>
</g>
<g>
	
		<polyline fill-rule="evenodd" clip-rule="evenodd" fill="none" stroke="#000000" stroke-width="0.5" stroke-linecap="round" stroke-linejoin="round" stroke-miterlimit="10" points="
		154.933,359.863 163.696,367.111 171.364,372.421 179.791,377.139 188.724,381.1 198.245,383.965 207.177,385.65 214.678,386.239 
		222.007,386.155 	"/>
</g>
<g>
	
		<polyline fill-rule="evenodd" clip-rule="evenodd" stroke="#000000" stroke-width="0.5" stroke-linecap="round" stroke-linejoin="round" stroke-miterlimit="10" points="
		210.717,380.51 222.007,386.155 210.717,391.801 210.717,380.51 	"/>
</g>
<g>
	
		<path fill-rule="evenodd" clip-rule="evenodd" fill="#C04E37" stroke="#C04E37" stroke-width="0.5" stroke-linecap="round" stroke-linejoin="round" stroke-miterlimit="10" d="
		M235.66,400.81c-0.013-5.451-5.979-8.846-10.753-6.118c-4.77,2.735-4.756,9.549,0.023,12.266
		C229.714,409.666,235.668,406.25,235.66,400.81"/>
</g>
</svg>
