<?xml version="1.0" encoding="utf-8"?>
<!-- Generator: Adobe Illustrator 15.0.0, SVG Export Plug-In . SVG Version: 6.00 Build 0)  -->
<!DOCTYPE svg PUBLIC "-//W3C//DTD SVG 1.1//EN" "http://www.w3.org/Graphics/SVG/1.1/DTD/svg11.dtd">
<svg version="1.1" id="_x3C_Layer_x3E_" xmlns="http://www.w3.org/2000/svg" xmlns:xlink="http://www.w3.org/1999/xlink" x="0px"
	 y="0px" width="718.5px" height="517.5px" viewBox="0 0 718.5 517.5" enable-background="new 0 0 718.5 517.5"
	 xml:space="preserve">
<g>
	
		<polyline fill-rule="evenodd" clip-rule="evenodd" fill="none" stroke="#636467" stroke-width="2" stroke-linecap="round" stroke-linejoin="round" stroke-miterlimit="10" points="
		326.861,476.731 457.983,476.731 523.63,443.008 585.506,379.22 579.875,257.33 549.867,217.976 486.135,184.196 326.861,184.196 	
		"/>
</g>
<g>
	
		<line fill-rule="evenodd" clip-rule="evenodd" fill="none" stroke="#636467" stroke-width="2" stroke-linecap="round" stroke-linejoin="round" stroke-miterlimit="10" x1="2.348" y1="319.203" x2="679.243" y2="319.203"/>
</g>
<g>
	
		<polyline fill="#636467" stroke="#636467" stroke-width="2" stroke-linecap="round" stroke-linejoin="round" stroke-miterlimit="10" points="
		665.901,312.56 679.243,319.203 665.901,325.903 665.901,312.56 	"/>
</g>
<g>
	
		<line fill="none" stroke="#636467" stroke-width="2" stroke-linecap="round" stroke-linejoin="round" stroke-miterlimit="10" x1="326.749" y1="516.085" x2="326.749" y2="49.188"/>
</g>
<g>
	
		<polyline fill="#636467" stroke="#636467" stroke-width="2" stroke-linecap="round" stroke-linejoin="round" stroke-miterlimit="10" points="
		320.049,62.587 326.749,49.188 333.448,62.587 320.049,62.587 	"/>
</g>
<g>
	
		<path fill-rule="evenodd" clip-rule="evenodd" stroke="#636467" stroke-width="2" stroke-linecap="round" stroke-linejoin="round" stroke-miterlimit="10" d="
		M336.151,181.379c-0.007-7.237-7.834-11.754-14.104-8.14c-6.27,3.638-6.259,12.674,0.011,16.29
		c6.276,3.607,14.088-0.911,14.094-8.148"/>
</g>
<g>
	
		<path fill-rule="evenodd" clip-rule="evenodd" stroke="#636467" stroke-width="2" stroke-linecap="round" stroke-linejoin="round" stroke-miterlimit="10" d="
		M424.26,183.237c-0.006-7.238-7.833-11.756-14.104-8.141c-6.271,3.638-6.258,12.675,0.011,16.29
		C416.442,194.993,424.256,190.477,424.26,183.237"/>
</g>
<g>
	
		<path fill-rule="evenodd" clip-rule="evenodd" stroke="#636467" stroke-width="2" stroke-linecap="round" stroke-linejoin="round" stroke-miterlimit="10" d="
		M499.253,185.151c-0.007-7.238-7.833-11.755-14.105-8.14c-6.269,3.637-6.257,12.675,0.013,16.291
		c6.273,3.606,14.087-0.911,14.093-8.148"/>
</g>
<g>
	
		<path fill-rule="evenodd" clip-rule="evenodd" stroke="#636467" stroke-width="2" stroke-linecap="round" stroke-linejoin="round" stroke-miterlimit="10" d="
		M559.269,217.017c-0.007-7.237-7.834-11.754-14.104-8.14c-6.27,3.638-6.258,12.674,0.012,16.29
		c6.275,3.606,14.087-0.911,14.093-8.148"/>
</g>
<g>
	
		<path fill-rule="evenodd" clip-rule="evenodd" stroke="#636467" stroke-width="2" stroke-linecap="round" stroke-linejoin="round" stroke-miterlimit="10" d="
		M591.135,254.514c-0.007-7.238-7.834-11.755-14.104-8.141c-6.271,3.637-6.26,12.674,0.011,16.29
		C583.317,266.269,591.129,261.751,591.135,254.514"/>
</g>
<g>
	
		<path fill-rule="evenodd" clip-rule="evenodd" stroke="#636467" stroke-width="2" stroke-linecap="round" stroke-linejoin="round" stroke-miterlimit="10" d="
		M594.906,320.159c-0.006-7.238-7.834-11.755-14.104-8.14c-6.269,3.637-6.258,12.675,0.011,16.291
		c6.276,3.605,14.089-0.911,14.094-8.148"/>
</g>
<g>
	
		<path fill-rule="evenodd" clip-rule="evenodd" stroke="#636467" stroke-width="2" stroke-linecap="round" stroke-linejoin="round" stroke-miterlimit="10" d="
		M594.906,382.033c-0.006-7.238-7.834-11.755-14.104-8.141c-6.269,3.638-6.258,12.675,0.011,16.291
		C587.089,393.789,594.901,389.272,594.906,382.033"/>
</g>
<g>
	
		<path fill-rule="evenodd" clip-rule="evenodd" stroke="#636467" stroke-width="2" stroke-linecap="round" stroke-linejoin="round" stroke-miterlimit="10" d="
		M534.89,438.276c-0.007-7.237-7.833-11.755-14.104-8.14c-6.268,3.637-6.258,12.674,0.013,16.29
		c6.275,3.605,14.086-0.911,14.092-8.148"/>
</g>
<g>
	
		<path fill-rule="evenodd" clip-rule="evenodd" stroke="#636467" stroke-width="2" stroke-linecap="round" stroke-linejoin="round" stroke-miterlimit="10" d="
		M471.102,477.63c-0.006-7.237-7.834-11.755-14.104-8.14c-6.271,3.638-6.259,12.675,0.011,16.29
		c6.275,3.606,14.089-0.91,14.093-8.148"/>
</g>
<g>
	
		<path fill-rule="evenodd" clip-rule="evenodd" stroke="#636467" stroke-width="2" stroke-linecap="round" stroke-linejoin="round" stroke-miterlimit="10" d="
		M399.883,479.545c-0.007-7.238-7.833-11.755-14.104-8.141c-6.27,3.638-6.259,12.675,0.011,16.29
		C392.065,491.301,399.877,486.784,399.883,479.545"/>
</g>
<g>
	
		<path fill-rule="evenodd" clip-rule="evenodd" stroke="#636467" stroke-width="2" stroke-linecap="round" stroke-linejoin="round" stroke-miterlimit="10" d="
		M339.867,477.63c-0.007-7.237-7.834-11.755-14.105-8.14c-6.269,3.638-6.257,12.675,0.013,16.29
		c6.274,3.606,14.086-0.91,14.093-8.148"/>
</g>
<g>
	<path d="M696.033,325.284v-6.214l-4.649-8.431h2.173l2.064,4.042c0.543,1.108,0.999,1.999,1.455,3.02h0.044
		c0.392-0.956,0.913-1.912,1.478-3.02l2.107-4.042h2.13l-4.89,8.409v6.236H696.033z"/>
	<path d="M704.375,310.856c0.826-0.196,2.151-0.326,3.455-0.326c1.891,0,3.107,0.326,3.998,1.064
		c0.76,0.565,1.238,1.434,1.238,2.586c0,1.434-0.956,2.672-2.477,3.216v0.065c1.391,0.326,3.02,1.478,3.02,3.65
		c0,1.26-0.5,2.238-1.26,2.933c-1,0.935-2.651,1.369-5.041,1.369c-1.304,0-2.304-0.087-2.934-0.174V310.856z M706.266,316.853h1.717
		c1.977,0,3.15-1.065,3.15-2.477c0-1.695-1.282-2.39-3.194-2.39c-0.869,0-1.369,0.065-1.673,0.13V316.853z M706.266,323.85
		c0.391,0.065,0.912,0.087,1.586,0.087c1.955,0,3.759-0.717,3.759-2.847c0-1.977-1.716-2.824-3.78-2.824h-1.564V323.85z"/>
</g>
<g>
	<path d="M307.865,20.38l8.104-11.885V8.43h-7.409V6.843h9.886v1.152l-8.083,11.842v0.065h8.191v1.586h-10.689V20.38z"/>
	<path d="M320.878,7.061c0.825-0.195,2.151-0.326,3.455-0.326c1.89,0,3.106,0.326,3.998,1.065c0.761,0.565,1.238,1.434,1.238,2.585
		c0,1.435-0.956,2.673-2.478,3.216v0.065c1.391,0.326,3.021,1.478,3.021,3.65c0,1.26-0.499,2.238-1.26,2.934
		c-1,0.934-2.651,1.369-5.041,1.369c-1.304,0-2.304-0.087-2.934-0.174V7.061z M322.769,13.058h1.716
		c1.978,0,3.151-1.064,3.151-2.477c0-1.695-1.282-2.39-3.194-2.39c-0.869,0-1.369,0.065-1.673,0.13V13.058z M322.769,20.054
		c0.391,0.065,0.912,0.087,1.586,0.087c1.956,0,3.759-0.717,3.759-2.846c0-1.978-1.717-2.825-3.78-2.825h-1.564V20.054z"/>
</g>
<g>
	
		<polyline fill-rule="evenodd" clip-rule="evenodd" fill="none" stroke="#636467" stroke-width="2" stroke-linecap="round" stroke-linejoin="round" stroke-miterlimit="10" points="
		323.54,476.731 192.417,476.731 126.828,443.008 64.897,379.22 70.526,257.33 100.535,217.976 164.324,184.196 323.54,184.196 	"/>
</g>
</svg>
