<?xml version="1.0" encoding="utf-8"?>
<!-- Generator: Adobe Illustrator 15.0.0, SVG Export Plug-In . SVG Version: 6.00 Build 0)  -->
<!DOCTYPE svg PUBLIC "-//W3C//DTD SVG 1.1//EN" "http://www.w3.org/Graphics/SVG/1.1/DTD/svg11.dtd">
<svg version="1.1" id="_x3C_Layer_x3E_" xmlns="http://www.w3.org/2000/svg" xmlns:xlink="http://www.w3.org/1999/xlink" x="0px"
	 y="0px" width="661px" height="515px" viewBox="0 0 661 515" enable-background="new 0 0 661 515" xml:space="preserve">
<g>
	
		<line fill-rule="evenodd" clip-rule="evenodd" fill="none" stroke="#000000" stroke-linecap="round" stroke-linejoin="round" stroke-miterlimit="10" stroke-dasharray="16,8" x1="61.56" y1="220.579" x2="468.285" y2="220.579"/>
</g>
<g>
	
		<polyline fill-rule="evenodd" clip-rule="evenodd" stroke="#000000" stroke-linecap="round" stroke-linejoin="round" stroke-miterlimit="10" stroke-dasharray="16,8" points="
		448.161,210.516 468.285,220.579 448.161,230.641 448.161,210.516 	"/>
</g>
<g>
	
		<line fill-rule="evenodd" clip-rule="evenodd" fill="none" stroke="#000000" stroke-linecap="round" stroke-linejoin="round" stroke-miterlimit="10" x1="61.56" y1="220.579" x2="349.16" y2="508.18"/>
</g>
<g>
	
		<polyline fill-rule="evenodd" clip-rule="evenodd" stroke="#000000" stroke-linecap="round" stroke-linejoin="round" stroke-miterlimit="10" points="
		342.051,486.849 349.16,508.18 327.83,501.068 342.051,486.849 	"/>
</g>
<g>
	
		<line fill-rule="evenodd" clip-rule="evenodd" fill="none" stroke="#000000" stroke-width="2" stroke-linecap="round" stroke-linejoin="round" stroke-miterlimit="10" x1="61.56" y1="220.579" x2="264.922" y2="220.579"/>
</g>
<g>
	
		<polyline fill-rule="evenodd" clip-rule="evenodd" stroke="#000000" stroke-width="2" stroke-linecap="round" stroke-linejoin="round" stroke-miterlimit="10" points="
		247.026,211.601 264.922,220.579 247.026,229.497 247.026,211.601 	"/>
</g>
<g>
	
		<line fill-rule="evenodd" clip-rule="evenodd" fill="none" stroke="#000000" stroke-width="2" stroke-linecap="round" stroke-linejoin="round" stroke-miterlimit="10" x1="264.922" y1="423.941" x2="264.922" y2="220.579"/>
</g>
<g>
	
		<polyline fill-rule="evenodd" clip-rule="evenodd" stroke="#000000" stroke-width="2" stroke-linecap="round" stroke-linejoin="round" stroke-miterlimit="10" points="
		256.005,406.046 264.922,423.941 273.9,406.046 256.005,406.046 	"/>
</g>
<g>
	
		<line fill-rule="evenodd" clip-rule="evenodd" fill="none" stroke="#000000" stroke-linecap="round" stroke-linejoin="round" stroke-miterlimit="10" x1="61.077" y1="219.314" x2="204.848" y2="75.484"/>
</g>
<g>
	
		<polyline fill-rule="evenodd" clip-rule="evenodd" stroke="#000000" stroke-linecap="round" stroke-linejoin="round" stroke-miterlimit="10" points="
		194.182,79.039 204.848,75.484 201.293,86.148 194.182,79.039 	"/>
</g>
<g>
	
		<line fill-rule="evenodd" clip-rule="evenodd" fill="none" stroke="#000000" stroke-linecap="round" stroke-linejoin="round" stroke-miterlimit="10" stroke-dasharray="16,8" x1="60.173" y1="218.953" x2="60.173" y2="15.589"/>
</g>
<g>
	
		<polyline fill-rule="evenodd" clip-rule="evenodd" stroke="#000000" stroke-linecap="round" stroke-linejoin="round" stroke-miterlimit="10" stroke-dasharray="16,8" points="
		55.112,25.652 60.173,15.589 65.175,25.652 55.112,25.652 	"/>
</g>
<g>
	<path d="M75.171,13.714l6.67-9.782V3.878h-6.098V2.573h8.137v0.948l-6.652,9.746v0.054h6.742v1.306h-8.798V13.714z"/>
</g>
<g>
	<path d="M216.953,90.178l6.67-9.782v-0.054h-6.098v-1.305h8.137v0.948l-6.652,9.746v0.054h6.742v1.306h-8.798V90.178z"/>
</g>
<g>
	<path d="M227.991,94.037c0.401,0.257,0.977,0.453,1.594,0.453c0.915,0,1.45-0.483,1.45-1.183c0-0.638-0.371-1.018-1.306-1.368
		c-1.131-0.412-1.831-1.008-1.831-1.975c0-1.08,0.895-1.882,2.242-1.882c0.699,0,1.224,0.165,1.522,0.339l-0.247,0.73
		c-0.216-0.134-0.679-0.329-1.306-0.329c-0.946,0-1.306,0.565-1.306,1.039c0,0.648,0.422,0.967,1.378,1.337
		c1.172,0.453,1.759,1.018,1.759,2.036c0,1.07-0.782,2.006-2.417,2.006c-0.668,0-1.398-0.206-1.769-0.453L227.991,94.037z"/>
	<path d="M233.174,88.195h0.895v3.342h0.031c0.185-0.267,0.371-0.514,0.545-0.74l2.119-2.602h1.11l-2.509,2.941l2.705,3.99h-1.06
		l-2.273-3.404l-0.668,0.761v2.643h-0.895V88.195z"/>
	<path d="M242.327,91.877h-2.685v2.499h3.003v0.751h-3.908v-6.932h3.753v0.75h-2.849v2.191h2.685V91.877z"/>
	<path d="M245.031,95.127l-1.759-6.932h0.946l0.823,3.507c0.206,0.864,0.391,1.728,0.514,2.396h0.021
		c0.113-0.689,0.329-1.512,0.565-2.407l0.926-3.497h0.936l0.843,3.517c0.195,0.823,0.38,1.646,0.483,2.376h0.021
		c0.144-0.761,0.339-1.533,0.555-2.396l0.916-3.497h0.915l-1.964,6.932h-0.936l-0.875-3.61c-0.216-0.884-0.36-1.563-0.452-2.263
		h-0.021c-0.113,0.689-0.278,1.368-0.535,2.263l-0.987,3.61H245.031z"/>
</g>
<g>
	<path d="M282.22,353.865l-1.556-2.665c-0.626-1.019-1.001-1.681-1.377-2.378h-0.036c-0.339,0.697-0.697,1.341-1.305,2.396
		l-1.449,2.646h-1.788l3.684-6.099l-3.541-5.955h1.806l1.591,2.826c0.447,0.786,0.787,1.395,1.109,2.038h0.054
		c0.34-0.715,0.644-1.27,1.091-2.038l1.627-2.826h1.806l-3.666,5.866l3.755,6.188H282.22z"/>
	<path d="M285.011,352.953l6.67-9.782v-0.054h-6.098v-1.306h8.137v0.948l-6.652,9.746v0.054h6.742v1.306h-8.798V352.953z"/>
</g>
<g>
	<path d="M483.714,245.947l-1.556-2.665c-0.626-1.02-1.002-1.681-1.377-2.378h-0.036c-0.34,0.697-0.697,1.341-1.306,2.396
		l-1.448,2.646h-1.788l3.684-6.098l-3.541-5.955h1.807l1.592,2.826c0.447,0.787,0.786,1.395,1.108,2.039h0.054
		c0.34-0.715,0.644-1.27,1.091-2.039l1.628-2.826h1.806l-3.666,5.866l3.756,6.188H483.714z"/>
</g>
<g>
	<path d="M254.261,201.177l-1.556-2.665c-0.626-1.02-1.001-1.681-1.377-2.378h-0.036c-0.339,0.697-0.697,1.341-1.305,2.396
		l-1.449,2.646h-1.788l3.684-6.098l-3.541-5.955h1.806l1.591,2.826c0.447,0.787,0.787,1.395,1.109,2.039h0.054
		c0.34-0.715,0.644-1.27,1.091-2.039l1.627-2.826h1.806l-3.666,5.866l3.755,6.188H254.261z"/>
	<path d="M264.206,201.177l-1.556-2.665c-0.626-1.02-1.001-1.681-1.377-2.378h-0.036c-0.339,0.697-0.697,1.341-1.305,2.396
		l-1.449,2.646h-1.788l3.684-6.098l-3.541-5.955h1.806l1.591,2.826c0.447,0.787,0.787,1.395,1.109,2.039h0.054
		c0.34-0.715,0.644-1.27,1.091-2.039l1.627-2.826h1.806l-3.666,5.866l3.755,6.188H264.206z"/>
</g>
<g>
	<path d="M371.76,499.685l-1.556-2.665c-0.626-1.019-1.002-1.681-1.377-2.378h-0.036c-0.34,0.697-0.697,1.341-1.306,2.396
		l-1.448,2.646h-1.788l3.684-6.099l-3.541-5.955h1.807l1.592,2.826c0.446,0.787,0.786,1.395,1.108,2.038h0.054
		c0.34-0.715,0.644-1.27,1.091-2.038l1.627-2.826h1.807l-3.666,5.866l3.756,6.188H371.76z"/>
</g>
<g>
	<path d="M376.401,502.631c0.4,0.257,0.977,0.452,1.594,0.452c0.915,0,1.45-0.483,1.45-1.183c0-0.638-0.37-1.019-1.307-1.368
		c-1.131-0.411-1.83-1.008-1.83-1.975c0-1.079,0.895-1.882,2.242-1.882c0.699,0,1.224,0.165,1.521,0.34l-0.247,0.729
		c-0.216-0.134-0.679-0.329-1.306-0.329c-0.946,0-1.307,0.566-1.307,1.039c0,0.647,0.422,0.967,1.379,1.337
		c1.172,0.452,1.759,1.019,1.759,2.036c0,1.07-0.782,2.006-2.417,2.006c-0.669,0-1.399-0.206-1.77-0.453L376.401,502.631z"/>
	<path d="M381.584,496.789h0.896v3.343h0.03c0.186-0.268,0.37-0.515,0.545-0.741l2.119-2.602h1.11l-2.509,2.941l2.704,3.99h-1.059
		l-2.273-3.404l-0.668,0.761v2.644h-0.896V496.789z"/>
	<path d="M390.736,500.471h-2.684v2.499h3.003v0.751h-3.908v-6.932h3.754v0.751h-2.849v2.19h2.684V500.471z"/>
	<path d="M393.441,503.721l-1.759-6.932h0.946l0.822,3.507c0.206,0.864,0.392,1.728,0.515,2.396h0.021
		c0.113-0.689,0.329-1.512,0.565-2.406l0.926-3.497h0.936l0.844,3.518c0.195,0.822,0.381,1.646,0.483,2.375h0.021
		c0.144-0.761,0.339-1.532,0.556-2.396l0.915-3.497h0.915l-1.964,6.932h-0.937l-0.874-3.609c-0.216-0.885-0.359-1.563-0.452-2.263
		h-0.021c-0.113,0.688-0.278,1.367-0.535,2.263l-0.987,3.609H393.441z"/>
</g>
<g>
	<path d="M103.812,236.81v1.145h-4.417v-1.145H103.812z"/>
	<path d="M110.018,242.211v-3.183h-5.401v-1.02l5.187-7.421h1.699v7.225h1.627v1.216h-1.627v3.183H110.018z M110.018,237.812v-3.88
		c0-0.608,0.018-1.216,0.054-1.824h-0.054c-0.357,0.68-0.644,1.18-0.966,1.717l-2.843,3.952v0.036H110.018z"/>
	<path d="M121.267,231.91h-4.435l-0.447,2.986c0.268-0.036,0.519-0.054,0.948-0.054c0.912,0,1.789,0.179,2.504,0.626
		c0.912,0.501,1.663,1.521,1.663,2.969c0,2.271-1.806,3.97-4.328,3.97c-1.27,0-2.325-0.358-2.897-0.715l0.394-1.198
		c0.483,0.286,1.431,0.644,2.504,0.644c1.466,0,2.754-0.965,2.736-2.521c0-1.502-1.019-2.557-3.326-2.557
		c-0.68,0-1.198,0.054-1.627,0.107l0.751-5.58h5.562V231.91z"/>
</g>
<g>
	<path d="M129.902,234.378c0,1.841-1.286,2.643-2.479,2.643c-1.337,0-2.386-0.987-2.386-2.561c0-1.656,1.101-2.633,2.468-2.633
		C128.935,231.828,129.902,232.866,129.902,234.378z M125.963,234.43c0,1.09,0.617,1.913,1.501,1.913
		c0.864,0,1.512-0.813,1.512-1.934c0-0.843-0.421-1.903-1.491-1.903C126.426,232.506,125.963,233.494,125.963,234.43z"/>
</g>
<g>
	<path d="M539.377,41.813h-4.667v4.346h5.222v1.306h-6.796V35.411h6.528v1.305h-4.954v3.81h4.667V41.813z"/>
	<path d="M542.634,38.809l1.233,1.859c0.34,0.483,0.608,0.912,0.895,1.395h0.035c0.286-0.5,0.572-0.948,0.877-1.413l1.198-1.842
		h1.717l-2.951,4.185l3.022,4.471h-1.771l-1.288-1.949c-0.339-0.501-0.625-0.983-0.93-1.502h-0.035
		c-0.286,0.519-0.572,0.984-0.912,1.502l-1.252,1.949h-1.734l3.075-4.417l-2.933-4.238H542.634z"/>
	<path d="M556.261,45.39c0,0.751,0.036,1.484,0.125,2.074h-1.412l-0.126-1.091h-0.054c-0.482,0.68-1.412,1.288-2.646,1.288
		c-1.752,0-2.646-1.234-2.646-2.486c0-2.092,1.859-3.237,5.204-3.219v-0.179c0-0.697-0.197-2.003-1.967-1.985
		c-0.823,0-1.664,0.232-2.271,0.644l-0.357-1.055c0.715-0.447,1.77-0.751,2.861-0.751c2.646,0,3.29,1.806,3.29,3.523V45.39z
		 M554.74,43.047c-1.717-0.036-3.666,0.268-3.666,1.949c0,1.037,0.68,1.502,1.467,1.502c1.145,0,1.878-0.715,2.128-1.448
		c0.054-0.179,0.071-0.358,0.071-0.501V43.047z"/>
	<path d="M558.802,41.151c0-0.912-0.036-1.627-0.071-2.342h1.377l0.071,1.413h0.054c0.482-0.823,1.287-1.592,2.736-1.592
		c1.162,0,2.057,0.715,2.432,1.735h0.036c0.268-0.501,0.626-0.858,0.983-1.127c0.519-0.393,1.073-0.608,1.896-0.608
		c1.162,0,2.861,0.751,2.861,3.755v5.079h-1.538v-4.882c0-1.681-0.626-2.665-1.878-2.665c-0.912,0-1.591,0.662-1.877,1.413
		c-0.072,0.232-0.126,0.5-0.126,0.787v5.347h-1.537v-5.186c0-1.377-0.608-2.361-1.807-2.361c-0.966,0-1.699,0.787-1.949,1.574
		c-0.09,0.215-0.125,0.501-0.125,0.769v5.204h-1.538V41.151z"/>
	<path d="M573.718,41.634c0-1.108-0.036-2.003-0.071-2.825h1.395l0.09,1.484h0.035c0.626-1.055,1.663-1.663,3.076-1.663
		c2.11,0,3.684,1.771,3.684,4.381c0,3.112-1.913,4.65-3.952,4.65c-1.145,0-2.146-0.501-2.664-1.359h-0.036v4.704h-1.556V41.634z
		 M575.273,43.941c0,0.232,0.018,0.447,0.071,0.644c0.286,1.091,1.234,1.842,2.36,1.842c1.664,0,2.629-1.359,2.629-3.344
		c0-1.717-0.912-3.201-2.575-3.201c-1.072,0-2.092,0.751-2.378,1.931c-0.054,0.197-0.107,0.43-0.107,0.626V43.941z"/>
	<path d="M583.895,34.767h1.573v12.697h-1.573V34.767z"/>
	<path d="M588.991,43.422c0.036,2.128,1.377,3.004,2.969,3.004c1.127,0,1.824-0.197,2.396-0.447l0.286,1.127
		c-0.555,0.25-1.521,0.554-2.897,0.554c-2.664,0-4.256-1.771-4.256-4.381c0-2.611,1.538-4.65,4.06-4.65
		c2.844,0,3.576,2.468,3.576,4.06c0,0.322-0.018,0.554-0.054,0.733H588.991z M593.605,42.295c0.018-0.983-0.411-2.539-2.182-2.539
		c-1.609,0-2.289,1.448-2.415,2.539H593.605z"/>
	<path d="M596.718,40.239c0-0.662,0.446-1.127,1.055-1.127c0.644,0,1.055,0.465,1.055,1.127c0,0.625-0.411,1.108-1.072,1.108
		C597.146,41.348,596.718,40.865,596.718,40.239z M596.718,46.552c0-0.662,0.446-1.126,1.055-1.126c0.644,0,1.055,0.465,1.055,1.126
		c0,0.626-0.411,1.109-1.072,1.109C597.146,47.661,596.718,47.178,596.718,46.552z"/>
</g>
<g>
	<path d="M539.753,88.559l-1.556-2.665c-0.626-1.02-1.002-1.681-1.377-2.378h-0.036c-0.34,0.697-0.697,1.341-1.306,2.396
		l-1.448,2.646h-1.788l3.684-6.098l-3.541-5.955h1.807l1.592,2.826c0.447,0.787,0.786,1.395,1.108,2.039h0.054
		c0.34-0.715,0.644-1.27,1.091-2.039l1.628-2.826h1.806l-3.666,5.866l3.756,6.188H539.753z"/>
	<path d="M549.697,88.559l-1.556-2.665c-0.626-1.02-1.002-1.681-1.377-2.378h-0.036c-0.34,0.697-0.697,1.341-1.306,2.396
		l-1.448,2.646h-1.788l3.684-6.098l-3.541-5.955h1.807l1.592,2.826c0.446,0.787,0.786,1.395,1.108,2.039h0.054
		c0.34-0.715,0.644-1.27,1.091-2.039l1.627-2.826h1.807l-3.666,5.866l3.756,6.188H549.697z"/>
	<path d="M556.459,82.532v-1.073h9.228v1.073H556.459z M556.459,86.037v-1.073h9.228v1.073H556.459z"/>
	<path d="M578.206,78.401h-0.036l-2.021,1.091l-0.304-1.198l2.539-1.359h1.341v11.624h-1.52V78.401z"/>
	<path d="M584.091,87.629c0-0.644,0.447-1.127,1.073-1.127s1.055,0.465,1.055,1.127c0,0.644-0.429,1.126-1.091,1.126
		C584.521,88.755,584.091,88.272,584.091,87.629z"/>
	<path d="M595.41,82.621c0,3.953-1.484,6.134-4.041,6.134c-2.271,0-3.827-2.128-3.863-5.973c0-3.917,1.699-6.044,4.06-6.044
		C593.998,76.738,595.41,78.919,595.41,82.621z M589.098,82.8c0,3.022,0.93,4.739,2.36,4.739c1.592,0,2.361-1.877,2.361-4.846
		c0-2.861-0.716-4.739-2.361-4.739C590.1,77.954,589.098,79.635,589.098,82.8z"/>
</g>
<g>
	<path d="M539.753,109.166l-1.556-2.665c-0.626-1.02-1.002-1.681-1.377-2.378h-0.036c-0.34,0.697-0.697,1.341-1.306,2.396
		l-1.448,2.646h-1.788l3.684-6.098l-3.541-5.955h1.807l1.592,2.826c0.447,0.787,0.786,1.395,1.108,2.039h0.054
		c0.34-0.715,0.644-1.27,1.091-2.039l1.628-2.826h1.806l-3.666,5.866l3.756,6.188H539.753z"/>
	<path d="M546.139,109.166v-5.115l-3.827-6.938h1.788l1.699,3.326c0.447,0.912,0.822,1.645,1.198,2.486h0.035
		c0.322-0.787,0.751-1.574,1.216-2.486l1.735-3.326h1.752l-4.023,6.921v5.132H546.139z"/>
	<path d="M556.279,103.139v-1.073h9.228v1.073H556.279z M556.279,106.645v-1.073h9.228v1.073H556.279z"/>
	<path d="M582.354,103.229c0,3.953-1.484,6.134-4.041,6.134c-2.271,0-3.827-2.128-3.863-5.973c0-3.917,1.699-6.044,4.06-6.044
		C580.942,97.345,582.354,99.527,582.354,103.229z M576.042,103.408c0,3.022,0.93,4.739,2.36,4.739c1.592,0,2.361-1.877,2.361-4.846
		c0-2.861-0.716-4.739-2.361-4.739C577.044,98.561,576.042,100.242,576.042,103.408z"/>
	<path d="M583.911,108.236c0-0.644,0.447-1.127,1.073-1.127s1.055,0.465,1.055,1.127c0,0.644-0.429,1.126-1.091,1.126
		C584.341,109.363,583.911,108.88,583.911,108.236z"/>
	<path d="M595.231,103.229c0,3.953-1.484,6.134-4.041,6.134c-2.271,0-3.827-2.128-3.863-5.973c0-3.917,1.699-6.044,4.06-6.044
		C593.819,97.345,595.231,99.527,595.231,103.229z M588.919,103.408c0,3.022,0.93,4.739,2.36,4.739c1.592,0,2.361-1.877,2.361-4.846
		c0-2.861-0.716-4.739-2.361-4.739C589.921,98.561,588.919,100.242,588.919,103.408z"/>
</g>
<g>
	<path d="M539.753,129.714l-1.556-2.665c-0.626-1.02-1.002-1.681-1.377-2.378h-0.036c-0.34,0.697-0.697,1.341-1.306,2.396
		l-1.448,2.646h-1.788l3.684-6.098l-3.541-5.955h1.807l1.592,2.826c0.447,0.787,0.786,1.395,1.108,2.039h0.054
		c0.34-0.715,0.644-1.27,1.091-2.039l1.628-2.826h1.806l-3.666,5.866l3.756,6.188H539.753z"/>
	<path d="M542.544,128.802l6.671-9.782v-0.054h-6.099v-1.305h8.138v0.948l-6.653,9.746v0.054h6.742v1.306h-8.799V128.802z"/>
	<path d="M556.404,123.687v-1.073h9.229v1.073H556.404z M556.404,127.192v-1.073h9.229v1.073H556.404z"/>
	<path d="M575.095,124.313v1.145h-4.418v-1.145H575.095z"/>
	<path d="M579.852,119.556h-0.036l-2.021,1.091l-0.305-1.198l2.54-1.359h1.341v11.624h-1.52V119.556z"/>
	<path d="M585.735,128.784c0-0.644,0.447-1.127,1.073-1.127s1.055,0.465,1.055,1.127c0,0.644-0.429,1.126-1.091,1.126
		C586.165,129.911,585.735,129.428,585.735,128.784z"/>
	<path d="M597.056,123.776c0,3.953-1.484,6.134-4.041,6.134c-2.271,0-3.827-2.128-3.863-5.973c0-3.917,1.699-6.044,4.06-6.044
		C595.644,117.893,597.056,120.075,597.056,123.776z M590.743,123.956c0,3.022,0.93,4.739,2.36,4.739
		c1.592,0,2.361-1.877,2.361-4.846c0-2.861-0.716-4.739-2.361-4.739C591.745,119.109,590.743,120.79,590.743,123.956z"/>
</g>
<g>
	<path d="M539.753,170.809l-1.556-2.665c-0.626-1.02-1.002-1.681-1.377-2.378h-0.036c-0.34,0.697-0.697,1.341-1.306,2.396
		l-1.448,2.646h-1.788l3.684-6.098l-3.541-5.955h1.807l1.592,2.826c0.447,0.787,0.786,1.395,1.108,2.039h0.054
		c0.34-0.715,0.644-1.27,1.091-2.039l1.628-2.826h1.806l-3.666,5.866l3.756,6.188H539.753z"/>
	<path d="M543.367,158.898c0.751-0.125,1.734-0.232,2.986-0.232c1.538,0,2.664,0.357,3.38,1.001
		c0.644,0.572,1.055,1.448,1.055,2.521c0,1.091-0.321,1.949-0.93,2.575c-0.841,0.876-2.164,1.323-3.684,1.323
		c-0.465,0-0.895-0.018-1.252-0.107v4.829h-1.556V158.898z M544.923,164.71c0.34,0.089,0.769,0.125,1.287,0.125
		c1.878,0,3.022-0.93,3.022-2.557c0-1.609-1.145-2.378-2.843-2.378c-0.68,0-1.198,0.054-1.467,0.125V164.71z"/>
	<path d="M556.029,164.782v-1.073h9.228v1.073H556.029z M556.029,168.287v-1.073h9.228v1.073H556.029z"/>
	<path d="M582.104,164.871c0,3.953-1.484,6.134-4.041,6.134c-2.271,0-3.827-2.128-3.863-5.973c0-3.917,1.699-6.044,4.06-6.044
		C580.692,158.988,582.104,161.169,582.104,164.871z M575.792,165.05c0,3.022,0.93,4.739,2.36,4.739
		c1.592,0,2.361-1.877,2.361-4.846c0-2.861-0.716-4.739-2.361-4.739C576.794,160.204,575.792,161.885,575.792,165.05z"/>
	<path d="M583.661,169.879c0-0.644,0.447-1.127,1.073-1.127s1.055,0.465,1.055,1.127c0,0.644-0.429,1.126-1.091,1.126
		C584.091,171.005,583.661,170.522,583.661,169.879z"/>
	<path d="M594.981,164.871c0,3.953-1.484,6.134-4.041,6.134c-2.271,0-3.827-2.128-3.863-5.973c0-3.917,1.699-6.044,4.06-6.044
		C593.569,158.988,594.981,161.169,594.981,164.871z M588.669,165.05c0,3.022,0.93,4.739,2.36,4.739
		c1.592,0,2.361-1.877,2.361-4.846c0-2.861-0.716-4.739-2.361-4.739C589.671,160.204,588.669,161.885,588.669,165.05z"/>
</g>
<g>
	<path d="M535.837,191.415V186.3l-3.827-6.938h1.788l1.699,3.326c0.446,0.912,0.822,1.645,1.198,2.486h0.035
		c0.322-0.787,0.751-1.574,1.217-2.486l1.734-3.326h1.752l-4.023,6.921v5.132H535.837z"/>
	<path d="M542.705,179.505c0.751-0.125,1.734-0.232,2.986-0.232c1.538,0,2.664,0.357,3.38,1.001
		c0.644,0.572,1.055,1.448,1.055,2.521c0,1.091-0.321,1.949-0.93,2.575c-0.841,0.876-2.164,1.323-3.684,1.323
		c-0.465,0-0.895-0.018-1.252-0.107v4.829h-1.556V179.505z M544.261,185.317c0.34,0.089,0.769,0.125,1.287,0.125
		c1.878,0,3.022-0.93,3.022-2.557c0-1.609-1.145-2.378-2.843-2.378c-0.68,0-1.198,0.054-1.467,0.125V185.317z"/>
	<path d="M555.367,185.388v-1.073h9.229v1.073H555.367z M555.367,188.894v-1.073h9.229v1.073H555.367z"/>
	<path d="M577.115,181.257h-0.036l-2.021,1.091l-0.305-1.198l2.54-1.359h1.341v11.624h-1.52V181.257z"/>
	<path d="M582.999,190.485c0-0.644,0.447-1.127,1.073-1.127s1.055,0.465,1.055,1.127c0,0.644-0.429,1.126-1.091,1.126
		C583.429,191.612,582.999,191.129,582.999,190.485z"/>
	<path d="M594.319,185.478c0,3.953-1.484,6.134-4.041,6.134c-2.271,0-3.827-2.128-3.863-5.973c0-3.917,1.699-6.044,4.06-6.044
		C592.907,179.594,594.319,181.776,594.319,185.478z M588.007,185.657c0,3.022,0.93,4.739,2.36,4.739
		c1.592,0,2.361-1.877,2.361-4.846c0-2.861-0.716-4.739-2.361-4.739C589.009,180.81,588.007,182.491,588.007,185.657z"/>
</g>
<g>
	<path d="M532.331,211.049l6.671-9.782v-0.054h-6.099v-1.305h8.138v0.948l-6.653,9.747v0.053h6.742v1.306h-8.799V211.049z"/>
	<path d="M543.045,200.051c0.751-0.125,1.734-0.232,2.986-0.232c1.538,0,2.664,0.357,3.38,1.001
		c0.644,0.572,1.055,1.448,1.055,2.521c0,1.091-0.321,1.949-0.93,2.575c-0.841,0.876-2.164,1.323-3.684,1.323
		c-0.465,0-0.895-0.018-1.252-0.107v4.829h-1.556V200.051z M544.601,205.863c0.34,0.089,0.769,0.125,1.287,0.125
		c1.878,0,3.022-0.93,3.022-2.557c0-1.609-1.145-2.378-2.843-2.378c-0.68,0-1.198,0.054-1.467,0.125V205.863z"/>
	<path d="M555.707,205.935v-1.073h9.229v1.073H555.707z M555.707,209.44v-1.073h9.229v1.073H555.707z"/>
	<path d="M581.782,206.024c0,3.952-1.484,6.134-4.041,6.134c-2.271,0-3.827-2.128-3.863-5.973c0-3.917,1.699-6.044,4.06-6.044
		C580.37,200.141,581.782,202.322,581.782,206.024z M575.47,206.203c0,3.022,0.93,4.739,2.36,4.739c1.592,0,2.361-1.877,2.361-4.846
		c0-2.861-0.716-4.739-2.361-4.739C576.472,201.356,575.47,203.038,575.47,206.203z"/>
	<path d="M583.339,211.031c0-0.644,0.447-1.126,1.073-1.126s1.055,0.465,1.055,1.126c0,0.644-0.429,1.127-1.091,1.127
		C583.769,212.158,583.339,211.675,583.339,211.031z"/>
	<path d="M594.659,206.024c0,3.952-1.484,6.134-4.041,6.134c-2.271,0-3.827-2.128-3.863-5.973c0-3.917,1.699-6.044,4.06-6.044
		C593.247,200.141,594.659,202.322,594.659,206.024z M588.347,206.203c0,3.022,0.93,4.739,2.36,4.739
		c1.592,0,2.361-1.877,2.361-4.846c0-2.861-0.716-4.739-2.361-4.739C589.349,201.356,588.347,203.038,588.347,206.203z"/>
</g>
<path fill-rule="evenodd" clip-rule="evenodd" fill="none" stroke="#000000" stroke-width="0" stroke-linecap="round" stroke-linejoin="round" stroke-miterlimit="10" d="
	M185.686,219.494c4.339,8.917,6.809,18.981,6.809,29.586c0,27.175-16.088,50.615-39.226,61.34"/>
<g>
	
		<polyline fill-rule="evenodd" clip-rule="evenodd" fill="#FFFFFF" stroke="#000000" stroke-width="0.5" stroke-linecap="round" stroke-linejoin="round" stroke-miterlimit="10" points="
		45.954,270.591 59.873,221.724 10.583,234.137 45.954,270.591 	"/>
</g>
<g>
	
		<line fill-rule="evenodd" clip-rule="evenodd" fill="none" stroke="#000000" stroke-width="0.5" stroke-linecap="round" stroke-linejoin="round" stroke-miterlimit="10" x1="6.606" y1="235.221" x2="44.025" y2="274.086"/>
</g>
<g>
	<path d="M393.542,5.56c-1.632,2.213-2.794,5.097-2.794,9.165c0,3.979,1.229,6.818,2.794,9.054h-1.52
		c-1.408-1.855-2.929-4.717-2.929-9.076c0.022-4.381,1.521-7.265,2.929-9.143H393.542z"/>
	<path d="M404.205,21.073l-1.944-3.331c-0.782-1.274-1.252-2.102-1.722-2.973h-0.045c-0.424,0.872-0.871,1.676-1.632,2.995
		l-1.811,3.309h-2.235l4.605-7.623l-4.427-7.444h2.258l1.99,3.532c0.559,0.983,0.983,1.744,1.386,2.548h0.066
		c0.425-0.894,0.806-1.587,1.364-2.548l2.034-3.532h2.258l-4.583,7.333l4.694,7.734H404.205z"/>
	<path d="M407.381,23.845c0.492-1.341,1.096-3.733,1.342-5.365l2.19-0.223c-0.536,1.9-1.521,4.381-2.146,5.432L407.381,23.845z"/>
	<path d="M420.414,21.073V14.68l-4.783-8.674h2.235l2.123,4.158c0.56,1.14,1.028,2.057,1.498,3.107h0.045
		c0.402-0.983,0.938-1.967,1.52-3.107l2.169-4.158h2.19l-5.029,8.651v6.416H420.414z"/>
	<path d="M425.69,23.845c0.492-1.341,1.096-3.733,1.342-5.365l2.19-0.223c-0.536,1.9-1.521,4.381-2.146,5.432L425.69,23.845z"/>
	<path d="M435.371,19.933l8.338-12.228V7.638h-7.623V6.006h10.171v1.185l-8.315,12.183v0.067h8.428v1.632h-10.998V19.933z"/>
	<path d="M447.511,23.778c1.564-2.213,2.794-5.097,2.794-9.121c0-4.024-1.207-6.863-2.794-9.098h1.52
		c1.408,1.833,2.929,4.717,2.929,9.098c-0.022,4.381-1.521,7.243-2.929,9.121H447.511z"/>
	<path d="M459.784,13.786c0-1.386-0.045-2.503-0.09-3.532h1.744l0.111,1.855h0.045c0.782-1.319,2.079-2.079,3.845-2.079
		c2.638,0,4.605,2.213,4.605,5.477c0,3.89-2.392,5.813-4.94,5.813c-1.431,0-2.683-0.626-3.331-1.699h-0.045V25.5h-1.944V13.786z
		 M461.729,16.669c0,0.291,0.022,0.559,0.09,0.805c0.357,1.364,1.543,2.303,2.951,2.303c2.078,0,3.286-1.699,3.286-4.18
		c0-2.146-1.141-4.001-3.22-4.001c-1.341,0-2.615,0.939-2.973,2.414c-0.067,0.246-0.135,0.537-0.135,0.782V16.669z"/>
	<path d="M480.104,18.48c0,0.939,0.045,1.855,0.156,2.593h-1.766l-0.157-1.364h-0.066c-0.604,0.85-1.767,1.61-3.309,1.61
		c-2.19,0-3.309-1.542-3.309-3.107c0-2.615,2.325-4.046,6.505-4.024v-0.223c0-0.872-0.245-2.504-2.459-2.481
		c-1.028,0-2.078,0.291-2.839,0.805l-0.447-1.319c0.895-0.559,2.214-0.939,3.577-0.939c3.309,0,4.113,2.258,4.113,4.404V18.48z
		 M478.204,15.552c-2.146-0.045-4.582,0.335-4.582,2.437c0,1.297,0.849,1.878,1.833,1.878c1.431,0,2.347-0.894,2.66-1.811
		c0.066-0.224,0.089-0.447,0.089-0.626V15.552z"/>
	<path d="M483.28,13.629c0-1.274-0.022-2.37-0.09-3.375h1.722l0.09,2.146h0.066c0.492-1.453,1.699-2.37,3.018-2.37
		c0.202,0,0.358,0.022,0.537,0.045v1.855c-0.201-0.044-0.402-0.044-0.671-0.044c-1.386,0-2.369,1.028-2.638,2.503
		c-0.045,0.269-0.067,0.604-0.067,0.917v5.768h-1.967V13.629z"/>
	<path d="M491.463,16.021c0.044,2.66,1.721,3.756,3.711,3.756c1.408,0,2.279-0.246,2.995-0.559l0.357,1.408
		c-0.693,0.313-1.9,0.693-3.621,0.693c-3.331,0-5.32-2.213-5.32-5.477s1.922-5.812,5.074-5.812c3.555,0,4.471,3.085,4.471,5.074
		c0,0.402-0.022,0.693-0.067,0.917H491.463z M497.229,14.613c0.022-1.229-0.514-3.174-2.727-3.174c-2.012,0-2.861,1.811-3.018,3.174
		H497.229z"/>
	<path d="M501.567,5.202h1.967v15.872h-1.967V5.202z"/>
	<path d="M506.844,5.202h1.967v15.872h-1.967V5.202z"/>
	<path d="M513.216,16.021c0.044,2.66,1.721,3.756,3.71,3.756c1.409,0,2.28-0.246,2.996-0.559l0.357,1.408
		c-0.693,0.313-1.9,0.693-3.621,0.693c-3.331,0-5.32-2.213-5.32-5.477s1.922-5.812,5.074-5.812c3.555,0,4.471,3.085,4.471,5.074
		c0,0.402-0.022,0.693-0.067,0.917H513.216z M518.982,14.613c0.022-1.229-0.514-3.174-2.727-3.174c-2.012,0-2.861,1.811-3.018,3.174
		H518.982z"/>
	<path d="M523.32,5.202h1.967v15.872h-1.967V5.202z"/>
	<path d="M542.591,19.486c0,2.503-0.515,4.001-1.543,4.962c-1.072,0.961-2.593,1.296-3.956,1.296c-1.297,0-2.728-0.313-3.6-0.894
		l0.492-1.52c0.715,0.469,1.833,0.872,3.174,0.872c2.012,0,3.487-1.05,3.487-3.8v-1.185h-0.045
		c-0.581,1.006-1.766,1.811-3.442,1.811c-2.683,0-4.604-2.28-4.604-5.275c0-3.666,2.392-5.723,4.896-5.723
		c1.878,0,2.884,0.961,3.375,1.855h0.045l0.067-1.632h1.743c-0.066,0.76-0.089,1.654-0.089,2.951V19.486z M540.623,14.523
		c0-0.335-0.022-0.626-0.111-0.872c-0.357-1.163-1.297-2.102-2.75-2.102c-1.877,0-3.219,1.587-3.219,4.091
		c0,2.124,1.096,3.89,3.196,3.89c1.229,0,2.325-0.76,2.728-2.012c0.112-0.335,0.156-0.715,0.156-1.051V14.523z"/>
	<path d="M545.833,5.202h1.967v15.872h-1.967V5.202z"/>
	<path d="M560.899,15.574c0,4.001-2.794,5.745-5.388,5.745c-2.905,0-5.186-2.146-5.186-5.566c0-3.599,2.392-5.723,5.365-5.723
		C558.798,10.03,560.899,12.288,560.899,15.574z M552.338,15.686c0,2.37,1.341,4.158,3.264,4.158c1.878,0,3.286-1.766,3.286-4.203
		c0-1.833-0.917-4.135-3.241-4.135C553.344,11.506,552.338,13.652,552.338,15.686z"/>
	<path d="M563.383,5.202h1.945v6.796h0.044c0.693-1.207,1.945-1.967,3.688-1.967c2.705,0,4.583,2.235,4.583,5.499
		c0,3.867-2.459,5.79-4.873,5.79c-1.565,0-2.817-0.604-3.645-2.012h-0.044l-0.112,1.766h-1.677c0.045-0.738,0.09-1.833,0.09-2.794
		V5.202z M565.328,16.736c0,0.246,0.021,0.492,0.089,0.715c0.357,1.364,1.521,2.303,2.951,2.303c2.078,0,3.286-1.677,3.286-4.158
		c0-2.168-1.118-4.024-3.242-4.024c-1.318,0-2.57,0.939-2.973,2.414c-0.067,0.246-0.111,0.514-0.111,0.827V16.736z"/>
	<path d="M583.704,18.48c0,0.939,0.045,1.855,0.156,2.593h-1.766l-0.157-1.364h-0.066c-0.604,0.85-1.767,1.61-3.309,1.61
		c-2.19,0-3.309-1.542-3.309-3.107c0-2.615,2.325-4.046,6.505-4.024v-0.223c0-0.872-0.245-2.504-2.459-2.481
		c-1.028,0-2.078,0.291-2.839,0.805l-0.447-1.319c0.895-0.559,2.214-0.939,3.577-0.939c3.309,0,4.113,2.258,4.113,4.404V18.48z
		 M581.804,15.552c-2.146-0.045-4.582,0.335-4.582,2.437c0,1.297,0.849,1.878,1.833,1.878c1.431,0,2.347-0.894,2.66-1.811
		c0.066-0.224,0.089-0.447,0.089-0.626V15.552z"/>
	<path d="M586.879,5.202h1.967v15.872h-1.967V5.202z"/>
	<path d="M596.626,19.083c0.604,0.358,1.632,0.76,2.616,0.76c1.408,0,2.078-0.693,2.078-1.609c0-0.939-0.559-1.431-1.989-1.967
		c-1.967-0.715-2.884-1.766-2.884-3.063c0-1.744,1.431-3.174,3.733-3.174c1.096,0,2.057,0.291,2.638,0.671l-0.47,1.431
		c-0.425-0.269-1.207-0.648-2.213-0.648c-1.162,0-1.788,0.67-1.788,1.475c0,0.895,0.626,1.297,2.034,1.855
		c1.855,0.693,2.839,1.632,2.839,3.242c0,1.922-1.498,3.264-4.023,3.264c-1.185,0-2.28-0.313-3.04-0.76L596.626,19.083z"/>
	<path d="M606.463,10.254l2.347,6.393c0.269,0.715,0.536,1.565,0.716,2.213h0.044c0.201-0.648,0.425-1.476,0.693-2.258l2.146-6.349
		h2.079l-2.95,7.712c-1.408,3.711-2.37,5.589-3.711,6.773c-0.983,0.827-1.923,1.163-2.414,1.252l-0.492-1.632
		c0.492-0.157,1.14-0.47,1.722-0.961c0.536-0.425,1.185-1.185,1.654-2.19c0.089-0.201,0.156-0.358,0.156-0.47
		s-0.045-0.268-0.156-0.514l-3.979-9.97H606.463z"/>
	<path d="M615.875,19.083c0.604,0.358,1.632,0.76,2.616,0.76c1.408,0,2.078-0.693,2.078-1.609c0-0.939-0.559-1.431-1.989-1.967
		c-1.967-0.715-2.884-1.766-2.884-3.063c0-1.744,1.431-3.174,3.733-3.174c1.096,0,2.057,0.291,2.638,0.671l-0.47,1.431
		c-0.425-0.269-1.207-0.648-2.213-0.648c-1.162,0-1.788,0.67-1.788,1.475c0,0.895,0.626,1.297,2.034,1.855
		c1.855,0.693,2.839,1.632,2.839,3.242c0,1.922-1.498,3.264-4.023,3.264c-1.185,0-2.28-0.313-3.04-0.76L615.875,19.083z"/>
	<path d="M627.365,7.661v2.593h2.817v1.498h-2.817v5.834c0,1.341,0.381,2.102,1.476,2.102c0.537,0,0.85-0.045,1.141-0.134
		l0.089,1.498c-0.38,0.134-0.983,0.269-1.743,0.269c-0.917,0-1.654-0.313-2.124-0.827c-0.536-0.604-0.76-1.565-0.76-2.839v-5.901
		h-1.677v-1.498h1.677V8.242L627.365,7.661z"/>
	<path d="M633.357,16.021c0.044,2.66,1.721,3.756,3.711,3.756c1.408,0,2.279-0.246,2.995-0.559l0.357,1.408
		c-0.693,0.313-1.9,0.693-3.621,0.693c-3.331,0-5.32-2.213-5.32-5.477s1.922-5.812,5.074-5.812c3.555,0,4.471,3.085,4.471,5.074
		c0,0.402-0.022,0.693-0.067,0.917H633.357z M639.124,14.613c0.022-1.229-0.514-3.174-2.727-3.174c-2.012,0-2.861,1.811-3.018,3.174
		H639.124z"/>
	<path d="M643.463,13.182c0-1.14-0.045-2.034-0.09-2.928h1.722l0.09,1.766h0.066c0.604-1.028,1.609-1.99,3.421-1.99
		c1.452,0,2.57,0.894,3.04,2.168h0.044c0.336-0.626,0.783-1.073,1.229-1.408c0.648-0.492,1.342-0.76,2.37-0.76
		c1.453,0,3.576,0.939,3.576,4.694v6.349h-1.922v-6.103c0-2.102-0.782-3.331-2.348-3.331c-1.14,0-1.989,0.827-2.347,1.766
		c-0.09,0.291-0.157,0.626-0.157,0.983v6.684h-1.922V14.59c0-1.721-0.76-2.951-2.258-2.951c-1.207,0-2.124,0.984-2.437,1.967
		c-0.112,0.268-0.156,0.626-0.156,0.961v6.505h-1.923V13.182z"/>
</g>
<g>
	
		<path fill-rule="evenodd" clip-rule="evenodd" stroke="#000000" stroke-width="0" stroke-linecap="round" stroke-linejoin="round" stroke-miterlimit="10" d="
		M69.514,221.301c-0.006-6.447-6.979-10.471-12.564-7.251c-5.585,3.24-5.575,11.29,0.01,14.511
		c5.59,3.213,12.549-0.811,12.555-7.258"/>
</g>
</svg>
