<?xml version="1.0" encoding="utf-8"?>
<!-- Generator: Adobe Illustrator 15.0.0, SVG Export Plug-In . SVG Version: 6.00 Build 0)  -->
<!DOCTYPE svg PUBLIC "-//W3C//DTD SVG 1.1//EN" "http://www.w3.org/Graphics/SVG/1.1/DTD/svg11.dtd">
<svg version="1.1" id="_x3C_Layer_x3E_" xmlns="http://www.w3.org/2000/svg" xmlns:xlink="http://www.w3.org/1999/xlink" x="0px"
	 y="0px" width="738.5px" height="240.5px" viewBox="0 0 738.5 240.5" enable-background="new 0 0 738.5 240.5"
	 xml:space="preserve">
<g>
	<path d="M112.591,103.959l4.557-5.958c0.46-0.564,0.878-1.045,1.338-1.589v-0.042h-5.477v-1.463h7.693v1.149l-4.516,5.875
		c-0.439,0.564-0.836,1.087-1.296,1.589v0.042h5.895v1.463h-8.194V103.959z"/>
</g>
<g>
	<path d="M5.195,195.896l2.195,5.979c0.25,0.669,0.501,1.463,0.669,2.07h0.042c0.188-0.606,0.397-1.38,0.648-2.112l2.007-5.937H12.7
		l-2.759,7.212c-1.317,3.47-2.216,5.226-3.47,6.334c-0.92,0.773-1.798,1.087-2.258,1.171l-0.46-1.526
		c0.46-0.146,1.066-0.439,1.61-0.898c0.501-0.397,1.108-1.108,1.547-2.049c0.083-0.188,0.146-0.334,0.146-0.439
		s-0.042-0.251-0.146-0.481l-3.721-9.323H5.195z"/>
</g>
<g>
	<path d="M328.801,65.041l1.442,2.174c0.397,0.564,0.711,1.066,1.046,1.631h0.041c0.335-0.585,0.669-1.108,1.024-1.652l1.401-2.153
		h2.007l-3.449,4.892l3.532,5.226h-2.069l-1.505-2.279c-0.397-0.585-0.731-1.149-1.087-1.756h-0.042
		c-0.335,0.606-0.669,1.15-1.066,1.756l-1.463,2.279h-2.028l3.596-5.164l-3.429-4.954H328.801z"/>
</g>
<g>
	<path d="M725.65,30.044l1.442,2.174c0.397,0.564,0.711,1.066,1.046,1.631h0.041c0.335-0.585,0.669-1.108,1.024-1.652l1.401-2.153
		h2.007l-3.449,4.892l3.532,5.226h-2.069l-1.505-2.279c-0.397-0.585-0.731-1.149-1.087-1.756h-0.042
		c-0.335,0.606-0.669,1.15-1.066,1.756l-1.463,2.279h-2.028l3.596-5.164l-3.429-4.954H725.65z"/>
</g>
<g>
	
		<polyline fill-rule="evenodd" clip-rule="evenodd" fill="#FFFFFF" stroke="#000000" stroke-linejoin="round" stroke-miterlimit="10" points="
		398.439,174.285 526.308,89.359 529.013,88.289 531.663,87.557 534.142,86.993 536.565,86.711 538.817,86.655 541.016,86.768 
		543.102,87.106 545.075,87.557 546.935,88.176 548.683,88.966 550.315,89.867 551.78,90.826 553.19,91.952 554.487,93.079 
		555.614,94.264 556.684,95.503 557.586,96.798 558.431,98.207 559.106,99.673 559.669,101.193 560.121,102.829 560.401,104.519 
		560.571,106.266 560.629,108.07 560.516,109.93 560.234,111.79 559.783,113.705 559.219,115.621 558.488,117.593 557.586,119.509 
		556.513,121.482 555.273,123.455 422.953,217.848 398.439,174.285 	"/>
</g>
<g>
	
		<path fill-rule="evenodd" clip-rule="evenodd" fill="#C7C9CB" stroke="#000000" stroke-linejoin="round" stroke-miterlimit="10" d="
		M432.705,198.457c-0.02-19.477-21.083-31.634-37.959-21.906c-16.873,9.789-16.843,34.109,0.032,43.841
		c16.886,9.704,37.91-2.451,37.927-21.93"/>
</g>
<g>
	
		<path fill-rule="evenodd" clip-rule="evenodd" fill="#949698" stroke="#000000" stroke-linejoin="round" stroke-miterlimit="10" d="
		M416.191,198.45c-0.014-6.724-7.337-10.913-13.197-7.547c-5.853,3.374-5.837,11.782,0.029,15.135
		C408.894,209.381,416.202,205.165,416.191,198.45"/>
</g>
<g>
	
		<polyline fill-rule="evenodd" clip-rule="evenodd" fill="#FFFFFF" stroke="#000000" stroke-linejoin="round" stroke-miterlimit="10" points="
		450.513,166.904 577.084,84.063 580.467,82.598 584.073,81.414 587.849,80.455 591.737,79.723 595.625,79.215 599.627,78.934 
		603.515,78.934 607.402,79.159 611.18,79.61 614.785,80.287 618.167,81.188 619.801,81.695 621.32,82.315 622.844,82.992 
		624.197,83.668 625.549,84.457 626.789,85.302 627.916,86.204 628.93,87.106 629.833,88.12 630.677,89.191 632.141,91.388 
		633.607,93.756 634.904,96.179 636.144,98.714 637.271,101.306 638.228,104.068 639.019,106.886 639.638,109.761 640.032,112.748 
		640.201,115.79 640.145,118.945 639.809,122.102 639.187,125.37 638.735,127.062 638.228,128.752 637.666,130.442 636.988,132.133 
		636.256,133.824 635.41,135.569 493.173,231.88 450.513,166.904 	"/>
</g>
<g>
	
		<path fill-rule="evenodd" clip-rule="evenodd" fill="#C7C9CB" stroke="#000000" stroke-linejoin="round" stroke-miterlimit="10" d="
		M510.417,199.491c-0.1-29.585-32.091-47.974-57.61-33.162c-25.552,14.847-25.507,51.787,0.086,66.569
		c25.67,14.732,57.57-3.815,57.524-33.401"/>
</g>
<g>
	
		<path fill-rule="evenodd" clip-rule="evenodd" fill="#949698" stroke="#000000" stroke-linejoin="round" stroke-miterlimit="10" d="
		M485.339,199.586c-0.01-10.237-11.081-16.627-19.951-11.514c-8.868,5.145-8.852,17.928,0.016,23.043
		c8.876,5.1,19.928-1.29,19.936-11.526"/>
</g>
<g>
	
		<polyline fill-rule="evenodd" clip-rule="evenodd" fill="#FFFFFF" stroke="#000000" stroke-linejoin="round" stroke-miterlimit="10" points="
		526.93,176.201 654.854,91.275 657.559,90.205 660.151,89.473 662.688,88.909 665.053,88.628 667.364,88.57 669.506,88.683 
		671.591,89.022 673.563,89.473 675.423,90.093 677.168,90.881 678.803,91.784 680.27,92.742 681.677,93.868 682.975,94.995 
		684.101,96.179 685.174,97.418 686.074,98.714 686.92,100.123 687.596,101.589 688.159,103.111 688.611,104.744 688.892,106.435 
		689.062,108.182 689.117,109.986 689.006,111.846 688.725,113.761 688.271,115.678 687.708,117.593 686.977,119.565 
		686.074,121.482 685.004,123.455 683.763,125.426 551.442,219.764 526.93,176.201 	"/>
</g>
<g>
	
		<path fill-rule="evenodd" clip-rule="evenodd" fill="#C7C9CB" stroke="#000000" stroke-linejoin="round" stroke-miterlimit="10" d="
		M561.192,200.373c-0.02-19.477-21.084-31.634-37.957-21.906c-16.876,9.79-16.844,34.109,0.027,43.841
		c16.891,9.705,37.913-2.451,37.93-21.929"/>
</g>
<g>
	
		<path fill-rule="evenodd" clip-rule="evenodd" fill="#949698" stroke="#000000" stroke-linejoin="round" stroke-miterlimit="10" d="
		M544.68,200.366c-0.013-6.724-7.337-10.913-13.196-7.547c-5.853,3.375-5.838,11.782,0.028,15.135
		C537.382,211.297,544.69,207.082,544.68,200.366"/>
</g>
<g>
	
		<polyline fill-rule="evenodd" clip-rule="evenodd" fill="none" stroke="#000000" stroke-width="2" stroke-linecap="round" stroke-linejoin="round" stroke-miterlimit="10" points="
		706.529,37.175 472.096,199.589 472.096,24.834 	"/>
</g>
<g>
	
		<polyline fill-rule="evenodd" clip-rule="evenodd" stroke="#000000" stroke-width="2" stroke-linecap="round" stroke-linejoin="round" stroke-miterlimit="10" points="
		699.259,50.475 706.529,37.175 691.54,39.317 699.259,50.475 	"/>
</g>
<g>
	
		<polyline fill-rule="evenodd" clip-rule="evenodd" stroke="#000000" stroke-width="2" stroke-linecap="round" stroke-linejoin="round" stroke-miterlimit="10" points="
		465.275,38.415 472.096,24.834 478.856,38.415 465.275,38.415 	"/>
</g>
<g>
	
		<line fill-rule="evenodd" clip-rule="evenodd" fill="none" stroke="#000000" stroke-width="2" stroke-linecap="round" stroke-linejoin="round" stroke-miterlimit="10" x1="472.096" y1="199.589" x2="296.383" y2="199.589"/>
</g>
<g>
	
		<polyline fill-rule="evenodd" clip-rule="evenodd" stroke="#000000" stroke-width="2" stroke-linecap="round" stroke-linejoin="round" stroke-miterlimit="10" points="
		309.906,206.409 296.383,199.589 309.906,192.826 309.906,206.409 	"/>
</g>
<g>
	
		<polyline fill-rule="evenodd" clip-rule="evenodd" fill="#FFFFFF" stroke="#000000" stroke-linecap="round" stroke-linejoin="round" stroke-miterlimit="10" points="
		82.122,180.146 248.312,78.313 251.58,76.849 254.849,75.666 258.005,74.708 261.16,73.975 264.26,73.468 267.246,73.242 
		270.177,73.242 272.995,73.468 275.643,73.919 278.235,74.596 280.716,75.496 282.971,76.68 285.111,78.033 287.139,79.666 
		288.886,81.47 290.521,83.555 291.986,85.696 293.339,87.783 294.635,89.754 295.762,91.784 296.721,93.756 297.565,95.784 
		298.185,97.813 298.692,99.899 298.918,102.096 298.975,104.407 298.749,106.83 298.299,109.366 297.96,110.718 297.565,112.071 
		297.115,113.535 296.607,115.001 295.987,116.523 295.311,118.1 294.522,119.79 293.677,121.482 151.438,217.792 82.122,180.146 	
		"/>
</g>
<g>
	
		<path fill-rule="evenodd" clip-rule="evenodd" fill="#C7C9CB" stroke="#000000" stroke-linecap="round" stroke-linejoin="round" stroke-miterlimit="10" d="
		M162.089,198.2c-0.044-21.418-37.815-34.792-68.065-24.047c-30.22,10.776-30.187,37.65,0.06,48.342
		c30.275,10.663,68.013-2.816,68.005-24.288"/>
</g>
<g>
	
		<path fill-rule="evenodd" clip-rule="evenodd" fill="#949698" stroke="#000000" stroke-linecap="round" stroke-linejoin="round" stroke-miterlimit="10" d="
		M144.281,198.798c-0.028-13.458-23.769-21.86-42.783-15.108c-18.997,6.77-18.977,23.654,0.036,30.372
		c19.03,6.7,42.75-1.769,42.747-15.26"/>
</g>
<g>
	
		<polyline fill-rule="evenodd" clip-rule="evenodd" fill="none" stroke="#000000" stroke-width="2" stroke-linecap="round" stroke-linejoin="round" stroke-miterlimit="10" points="
		116.78,115.113 116.78,198.969 20.244,198.969 	"/>
</g>
<g>
	
		<polyline fill-rule="evenodd" clip-rule="evenodd" stroke="#000000" stroke-width="2" stroke-linecap="round" stroke-linejoin="round" stroke-miterlimit="10" points="
		123.542,128.695 116.78,115.113 110.017,128.695 123.542,128.695 	"/>
</g>
<g>
	
		<polyline fill-rule="evenodd" clip-rule="evenodd" stroke="#000000" stroke-width="2" stroke-linecap="round" stroke-linejoin="round" stroke-miterlimit="10" points="
		33.826,205.732 20.244,198.969 33.826,192.207 33.826,205.732 	"/>
</g>
<g>
	
		<line fill-rule="evenodd" clip-rule="evenodd" fill="none" stroke="#000000" stroke-width="2" stroke-linecap="round" stroke-linejoin="round" stroke-miterlimit="10" x1="116.78" y1="198.969" x2="319.939" y2="71.496"/>
</g>
<g>
	
		<polyline fill-rule="evenodd" clip-rule="evenodd" stroke="#000000" stroke-width="2" stroke-linecap="round" stroke-linejoin="round" stroke-miterlimit="10" points="
		304.892,72.96 319.939,71.496 312.048,84.457 304.892,72.96 	"/>
</g>
<g>
	<path d="M281.446,197.417l2.195,5.979c0.25,0.669,0.501,1.463,0.669,2.07h0.042c0.188-0.606,0.397-1.38,0.648-2.111l2.007-5.937
		h1.944l-2.759,7.212c-1.317,3.47-2.216,5.226-3.47,6.334c-0.92,0.773-1.798,1.087-2.258,1.171l-0.46-1.526
		c0.46-0.146,1.066-0.439,1.61-0.899c0.501-0.397,1.108-1.108,1.547-2.048c0.083-0.188,0.146-0.334,0.146-0.439
		s-0.042-0.251-0.146-0.481l-3.721-9.323H281.446z"/>
</g>
<g>
	<path d="M469.257,19.823l4.558-5.958c0.46-0.564,0.878-1.045,1.338-1.589v-0.042h-5.478v-1.463h7.693v1.149l-4.516,5.875
		c-0.438,0.564-0.836,1.087-1.296,1.589v0.042h5.896v1.463h-8.195V19.823z"/>
</g>
</svg>
