<?xml version="1.0" encoding="utf-8"?>
<!-- Generator: Adobe Illustrator 15.0.0, SVG Export Plug-In . SVG Version: 6.00 Build 0)  -->
<!DOCTYPE svg PUBLIC "-//W3C//DTD SVG 1.1//EN" "http://www.w3.org/Graphics/SVG/1.1/DTD/svg11.dtd">
<svg version="1.1" id="_x3C_Layer_x3E_" xmlns="http://www.w3.org/2000/svg" xmlns:xlink="http://www.w3.org/1999/xlink" x="0px"
	 y="0px" width="733.5px" height="345.5px" viewBox="0 0 733.5 345.5" enable-background="new 0 0 733.5 345.5"
	 xml:space="preserve">
<g>
	
		<polyline fill-rule="evenodd" clip-rule="evenodd" fill="none" stroke="#000000" stroke-linecap="round" stroke-linejoin="round" stroke-miterlimit="10" points="
		155.955,108.618 158.774,112.681 161.594,115.418 164.661,117.076 167.646,117.739 170.714,117.574 175.193,116.081 
		180.334,112.847 185.226,108.618 	"/>
</g>
<g>
	
		<polyline fill-rule="evenodd" clip-rule="evenodd" fill="none" stroke="#000000" stroke-linecap="round" stroke-linejoin="round" stroke-miterlimit="10" points="
		155.955,108.618 158.774,112.681 161.594,115.418 164.661,117.076 167.646,117.739 170.714,117.574 175.193,116.081 
		180.334,112.847 185.226,108.618 	"/>
</g>
<g>
	
		<polyline fill-rule="evenodd" clip-rule="evenodd" fill="none" stroke="#000000" stroke-linecap="round" stroke-linejoin="round" stroke-miterlimit="10" points="
		155.955,108.618 158.774,112.681 161.594,115.418 164.661,117.076 167.646,117.739 170.714,117.574 175.193,116.081 
		180.334,112.847 185.226,108.618 	"/>
</g>
<g>
	
		<polyline fill-rule="evenodd" clip-rule="evenodd" fill="none" stroke="#000000" stroke-linecap="round" stroke-linejoin="round" stroke-miterlimit="10" points="
		155.955,108.618 158.774,112.681 161.594,115.418 164.661,117.076 167.646,117.739 170.714,117.574 175.193,116.081 
		180.334,112.847 185.226,108.618 	"/>
</g>
<g>
	
		<polyline fill-rule="evenodd" clip-rule="evenodd" fill="none" stroke="#000000" stroke-linecap="round" stroke-linejoin="round" stroke-miterlimit="10" points="
		186.636,108.287 189.455,112.35 192.274,115.086 195.342,116.745 198.328,117.408 201.396,117.242 205.874,115.749 
		211.015,112.515 215.908,108.287 	"/>
</g>
<g>
	
		<polyline fill-rule="evenodd" clip-rule="evenodd" fill="none" stroke="#000000" stroke-linecap="round" stroke-linejoin="round" stroke-miterlimit="10" points="
		186.636,108.287 189.455,112.35 192.274,115.086 195.342,116.745 198.328,117.408 201.396,117.242 205.874,115.749 
		211.015,112.515 215.908,108.287 	"/>
</g>
<g>
	
		<polyline fill-rule="evenodd" clip-rule="evenodd" fill="none" stroke="#000000" stroke-linecap="round" stroke-linejoin="round" stroke-miterlimit="10" points="
		186.636,108.287 189.455,112.35 192.274,115.086 195.342,116.745 198.328,117.408 201.396,117.242 205.874,115.749 
		211.015,112.515 215.908,108.287 	"/>
</g>
<g>
	
		<polyline fill-rule="evenodd" clip-rule="evenodd" fill="none" stroke="#000000" stroke-linecap="round" stroke-linejoin="round" stroke-miterlimit="10" points="
		186.636,108.287 189.455,112.35 192.274,115.086 195.342,116.745 198.328,117.408 201.396,117.242 205.874,115.749 
		211.015,112.515 215.908,108.287 	"/>
</g>
<g>
	
		<polyline fill-rule="evenodd" clip-rule="evenodd" fill="none" stroke="#000000" stroke-linecap="round" stroke-linejoin="round" stroke-miterlimit="10" points="
		216.487,108.287 219.306,112.35 222.126,115.086 225.194,116.745 228.18,117.408 231.248,117.242 235.726,115.749 240.867,112.515 
		245.76,108.287 	"/>
</g>
<g>
	
		<polyline fill-rule="evenodd" clip-rule="evenodd" fill="none" stroke="#000000" stroke-linecap="round" stroke-linejoin="round" stroke-miterlimit="10" points="
		247.334,108.287 250.154,112.35 252.973,115.086 256.041,116.745 259.027,117.408 262.095,117.242 266.573,115.749 
		271.714,112.515 276.605,108.287 	"/>
</g>
<g>
	
		<polyline fill-rule="evenodd" clip-rule="evenodd" fill="none" stroke="#000000" stroke-linecap="round" stroke-linejoin="round" stroke-miterlimit="10" points="
		216.487,108.287 219.306,112.35 222.126,115.086 225.194,116.745 228.18,117.408 231.248,117.242 235.726,115.749 240.867,112.515 
		245.76,108.287 	"/>
</g>
<g>
	
		<polyline fill-rule="evenodd" clip-rule="evenodd" fill="none" stroke="#000000" stroke-linecap="round" stroke-linejoin="round" stroke-miterlimit="10" points="
		247.334,108.287 250.154,112.35 252.973,115.086 256.041,116.745 259.027,117.408 262.095,117.242 266.573,115.749 
		271.714,112.515 276.605,108.287 	"/>
</g>
<g>
	
		<polyline fill-rule="evenodd" clip-rule="evenodd" fill="none" stroke="#000000" stroke-linecap="round" stroke-linejoin="round" stroke-miterlimit="10" points="
		216.487,108.287 219.306,112.35 222.126,115.086 225.194,116.745 228.18,117.408 231.248,117.242 235.726,115.749 240.867,112.515 
		245.76,108.287 	"/>
</g>
<g>
	
		<polyline fill-rule="evenodd" clip-rule="evenodd" fill="none" stroke="#000000" stroke-linecap="round" stroke-linejoin="round" stroke-miterlimit="10" points="
		247.334,108.287 250.154,112.35 252.973,115.086 256.041,116.745 259.027,117.408 262.095,117.242 266.573,115.749 
		271.714,112.515 276.605,108.287 	"/>
</g>
<g>
	
		<polyline fill-rule="evenodd" clip-rule="evenodd" fill="none" stroke="#000000" stroke-linecap="round" stroke-linejoin="round" stroke-miterlimit="10" points="
		216.487,108.287 219.306,112.35 222.126,115.086 225.194,116.745 228.18,117.408 231.248,117.242 235.726,115.749 240.867,112.515 
		245.76,108.287 	"/>
</g>
<g>
	
		<polyline fill-rule="evenodd" clip-rule="evenodd" fill="none" stroke="#000000" stroke-linecap="round" stroke-linejoin="round" stroke-miterlimit="10" points="
		247.334,108.287 250.154,112.35 252.973,115.086 256.041,116.745 259.027,117.408 262.095,117.242 266.573,115.749 
		271.714,112.515 276.605,108.287 	"/>
</g>
<g>
	
		<polyline fill-rule="evenodd" clip-rule="evenodd" fill="none" stroke="#000000" stroke-linecap="round" stroke-linejoin="round" stroke-miterlimit="10" points="
		216.487,108.287 219.306,112.35 222.126,115.086 225.194,116.745 228.18,117.408 231.248,117.242 235.726,115.749 240.867,112.515 
		245.76,108.287 	"/>
</g>
<g>
	
		<polyline fill-rule="evenodd" clip-rule="evenodd" fill="none" stroke="#000000" stroke-linecap="round" stroke-linejoin="round" stroke-miterlimit="10" points="
		247.334,108.287 250.154,112.35 252.973,115.086 256.041,116.745 259.027,117.408 262.095,117.242 266.573,115.749 
		271.714,112.515 276.605,108.287 	"/>
</g>
<g>
	
		<polyline fill-rule="evenodd" clip-rule="evenodd" fill="none" stroke="#000000" stroke-linecap="round" stroke-linejoin="round" stroke-miterlimit="10" points="
		216.487,108.287 219.306,112.35 222.126,115.086 225.194,116.745 228.18,117.408 231.248,117.242 235.726,115.749 240.867,112.515 
		245.76,108.287 	"/>
</g>
<g>
	
		<polyline fill-rule="evenodd" clip-rule="evenodd" fill="none" stroke="#000000" stroke-linecap="round" stroke-linejoin="round" stroke-miterlimit="10" points="
		247.334,108.287 250.154,112.35 252.973,115.086 256.041,116.745 259.027,117.408 262.095,117.242 266.573,115.749 
		271.714,112.515 276.605,108.287 	"/>
</g>
<g>
	
		<polyline fill-rule="evenodd" clip-rule="evenodd" fill="none" stroke="#000000" stroke-linecap="round" stroke-linejoin="round" stroke-miterlimit="10" points="
		216.487,108.287 219.306,112.35 222.126,115.086 225.194,116.745 228.18,117.408 231.248,117.242 235.726,115.749 240.867,112.515 
		245.76,108.287 	"/>
</g>
<g>
	
		<polyline fill-rule="evenodd" clip-rule="evenodd" fill="none" stroke="#000000" stroke-linecap="round" stroke-linejoin="round" stroke-miterlimit="10" points="
		247.334,108.287 250.154,112.35 252.973,115.086 256.041,116.745 259.027,117.408 262.095,117.242 266.573,115.749 
		271.714,112.515 276.605,108.287 	"/>
</g>
<g>
	
		<polyline fill-rule="evenodd" clip-rule="evenodd" fill="none" stroke="#000000" stroke-linecap="round" stroke-linejoin="round" stroke-miterlimit="10" points="
		216.487,108.287 219.306,112.35 222.126,115.086 225.194,116.745 228.18,117.408 231.248,117.242 235.726,115.749 240.867,112.515 
		245.76,108.287 	"/>
</g>
<g>
	
		<polyline fill-rule="evenodd" clip-rule="evenodd" fill="none" stroke="#000000" stroke-linecap="round" stroke-linejoin="round" stroke-miterlimit="10" points="
		247.334,108.287 250.154,112.35 252.973,115.086 256.041,116.745 259.027,117.408 262.095,117.242 266.573,115.749 
		271.714,112.515 276.605,108.287 	"/>
</g>
<g>
	
		<polyline fill-rule="evenodd" clip-rule="evenodd" fill="none" stroke="#000000" stroke-linecap="round" stroke-linejoin="round" stroke-miterlimit="10" points="
		216.487,108.287 219.306,112.35 222.126,115.086 225.194,116.745 228.18,117.408 231.248,117.242 235.726,115.749 240.867,112.515 
		245.76,108.287 	"/>
</g>
<g>
	
		<polyline fill-rule="evenodd" clip-rule="evenodd" fill="none" stroke="#000000" stroke-linecap="round" stroke-linejoin="round" stroke-miterlimit="10" points="
		247.334,108.287 250.154,112.35 252.973,115.086 256.041,116.745 259.027,117.408 262.095,117.242 266.573,115.749 
		271.714,112.515 276.605,108.287 	"/>
</g>
<g>
	
		<polyline fill-rule="evenodd" clip-rule="evenodd" fill="none" stroke="#000000" stroke-linecap="round" stroke-linejoin="round" stroke-miterlimit="10" points="
		277.85,108.287 280.669,112.35 283.488,115.086 286.557,116.745 289.542,117.408 292.61,117.242 297.088,115.749 302.229,112.515 
		307.121,108.287 	"/>
</g>
<g>
	
		<polyline fill-rule="evenodd" clip-rule="evenodd" fill="none" stroke="#000000" stroke-linecap="round" stroke-linejoin="round" stroke-miterlimit="10" points="
		308.696,108.287 312.014,112.93 315.248,115.667 318.647,117.076 320.473,117.408 323.54,117.242 328.019,115.749 333.16,112.515 
		338.051,108.287 	"/>
</g>
<g>
	
		<polyline fill-rule="evenodd" clip-rule="evenodd" fill="none" stroke="#000000" stroke-linecap="round" stroke-linejoin="round" stroke-miterlimit="10" points="
		277.85,108.287 280.669,112.35 283.488,115.086 286.557,116.745 289.542,117.408 292.61,117.242 297.088,115.749 302.229,112.515 
		307.121,108.287 	"/>
</g>
<g>
	
		<polyline fill-rule="evenodd" clip-rule="evenodd" fill="none" stroke="#000000" stroke-linecap="round" stroke-linejoin="round" stroke-miterlimit="10" points="
		308.696,108.287 312.014,112.93 315.248,115.667 318.647,117.076 320.473,117.408 323.54,117.242 328.019,115.749 333.16,112.515 
		338.051,108.287 	"/>
</g>
<g>
	
		<polyline fill-rule="evenodd" clip-rule="evenodd" fill="none" stroke="#000000" stroke-linecap="round" stroke-linejoin="round" stroke-miterlimit="10" points="
		277.85,108.287 280.669,112.35 283.488,115.086 286.557,116.745 289.542,117.408 292.61,117.242 297.088,115.749 302.229,112.515 
		307.121,108.287 	"/>
</g>
<g>
	
		<polyline fill-rule="evenodd" clip-rule="evenodd" fill="none" stroke="#000000" stroke-linecap="round" stroke-linejoin="round" stroke-miterlimit="10" points="
		308.696,108.287 312.014,112.93 315.248,115.667 318.647,117.076 320.473,117.408 323.54,117.242 328.019,115.749 333.16,112.515 
		338.051,108.287 	"/>
</g>
<g>
	
		<polyline fill-rule="evenodd" clip-rule="evenodd" fill="none" stroke="#000000" stroke-linecap="round" stroke-linejoin="round" stroke-miterlimit="10" points="
		277.85,108.287 280.669,112.35 283.488,115.086 286.557,116.745 289.542,117.408 292.61,117.242 297.088,115.749 302.229,112.515 
		307.121,108.287 	"/>
</g>
<g>
	
		<polyline fill-rule="evenodd" clip-rule="evenodd" fill="none" stroke="#000000" stroke-linecap="round" stroke-linejoin="round" stroke-miterlimit="10" points="
		308.696,108.287 312.014,112.93 315.248,115.667 318.647,117.076 320.473,117.408 323.54,117.242 328.019,115.749 333.16,112.515 
		338.051,108.287 	"/>
</g>
<g>
	
		<polyline fill-rule="evenodd" clip-rule="evenodd" fill="none" stroke="#000000" stroke-linecap="round" stroke-linejoin="round" stroke-miterlimit="10" points="
		277.85,108.287 280.669,112.35 283.488,115.086 286.557,116.745 289.542,117.408 292.61,117.242 297.088,115.749 302.229,112.515 
		307.121,108.287 	"/>
</g>
<g>
	
		<polyline fill-rule="evenodd" clip-rule="evenodd" fill="none" stroke="#000000" stroke-linecap="round" stroke-linejoin="round" stroke-miterlimit="10" points="
		308.696,108.287 312.014,112.93 315.248,115.667 318.647,117.076 320.473,117.408 323.54,117.242 328.019,115.749 333.16,112.515 
		338.051,108.287 	"/>
</g>
<g>
	
		<polyline fill-rule="evenodd" clip-rule="evenodd" fill="none" stroke="#000000" stroke-linecap="round" stroke-linejoin="round" stroke-miterlimit="10" points="
		277.85,108.287 280.669,112.35 283.488,115.086 286.557,116.745 289.542,117.408 292.61,117.242 297.088,115.749 302.229,112.515 
		307.121,108.287 	"/>
</g>
<g>
	
		<polyline fill-rule="evenodd" clip-rule="evenodd" fill="none" stroke="#000000" stroke-linecap="round" stroke-linejoin="round" stroke-miterlimit="10" points="
		308.696,108.287 312.014,112.93 315.248,115.667 318.647,117.076 320.473,117.408 323.54,117.242 328.019,115.749 333.16,112.515 
		338.051,108.287 	"/>
</g>
<g>
	
		<polyline fill-rule="evenodd" clip-rule="evenodd" fill="none" stroke="#000000" stroke-linecap="round" stroke-linejoin="round" stroke-miterlimit="10" points="
		277.85,108.287 280.669,112.35 283.488,115.086 286.557,116.745 289.542,117.408 292.61,117.242 297.088,115.749 302.229,112.515 
		307.121,108.287 	"/>
</g>
<g>
	
		<polyline fill-rule="evenodd" clip-rule="evenodd" fill="none" stroke="#000000" stroke-linecap="round" stroke-linejoin="round" stroke-miterlimit="10" points="
		308.696,108.287 312.014,112.93 315.248,115.667 318.647,117.076 320.473,117.408 323.54,117.242 328.019,115.749 333.16,112.515 
		338.051,108.287 	"/>
</g>
<g>
	
		<polyline fill-rule="evenodd" clip-rule="evenodd" fill="none" stroke="#000000" stroke-linecap="round" stroke-linejoin="round" stroke-miterlimit="10" points="
		277.85,108.287 280.669,112.35 283.488,115.086 286.557,116.745 289.542,117.408 292.61,117.242 297.088,115.749 302.229,112.515 
		307.121,108.287 	"/>
</g>
<g>
	
		<polyline fill-rule="evenodd" clip-rule="evenodd" fill="none" stroke="#000000" stroke-linecap="round" stroke-linejoin="round" stroke-miterlimit="10" points="
		308.696,108.287 312.014,112.93 315.248,115.667 318.647,117.076 320.473,117.408 323.54,117.242 328.019,115.749 333.16,112.515 
		338.051,108.287 	"/>
</g>
<g>
	
		<polyline fill-rule="evenodd" clip-rule="evenodd" fill="none" stroke="#000000" stroke-linecap="round" stroke-linejoin="round" stroke-miterlimit="10" points="
		277.85,108.287 280.669,112.35 283.488,115.086 286.557,116.745 289.542,117.408 292.61,117.242 297.088,115.749 302.229,112.515 
		307.121,108.287 	"/>
</g>
<g>
	
		<polyline fill-rule="evenodd" clip-rule="evenodd" fill="none" stroke="#000000" stroke-linecap="round" stroke-linejoin="round" stroke-miterlimit="10" points="
		308.696,108.287 312.014,112.93 315.248,115.667 318.647,117.076 320.473,117.408 323.54,117.242 328.019,115.749 333.16,112.515 
		338.051,108.287 	"/>
</g>
<g>
	
		<polyline fill-rule="evenodd" clip-rule="evenodd" fill="none" stroke="#000000" stroke-linecap="round" stroke-linejoin="round" stroke-miterlimit="10" points="
		338.715,108.287 341.534,112.35 344.354,115.086 347.422,116.745 350.407,117.408 353.476,117.242 357.953,115.749 
		363.094,112.515 367.986,108.287 	"/>
</g>
<g>
	
		<polyline fill-rule="evenodd" clip-rule="evenodd" fill="none" stroke="#000000" stroke-linecap="round" stroke-linejoin="round" stroke-miterlimit="10" points="
		369.562,108.287 372.878,112.93 376.112,115.667 379.512,117.076 381.337,117.408 384.405,117.242 388.882,115.749 
		394.022,112.515 398.916,108.287 	"/>
</g>
<g>
	
		<polyline fill-rule="evenodd" clip-rule="evenodd" fill="none" stroke="#000000" stroke-linecap="round" stroke-linejoin="round" stroke-miterlimit="10" points="
		338.715,108.287 341.534,112.35 344.354,115.086 347.422,116.745 350.407,117.408 353.476,117.242 357.953,115.749 
		363.094,112.515 367.986,108.287 	"/>
</g>
<g>
	
		<polyline fill-rule="evenodd" clip-rule="evenodd" fill="none" stroke="#000000" stroke-linecap="round" stroke-linejoin="round" stroke-miterlimit="10" points="
		369.562,108.287 372.878,112.93 376.112,115.667 379.512,117.076 381.337,117.408 384.405,117.242 388.882,115.749 
		394.022,112.515 398.916,108.287 	"/>
</g>
<g>
	
		<polyline fill-rule="evenodd" clip-rule="evenodd" fill="none" stroke="#000000" stroke-linecap="round" stroke-linejoin="round" stroke-miterlimit="10" points="
		338.715,108.287 341.534,112.35 344.354,115.086 347.422,116.745 350.407,117.408 353.476,117.242 357.953,115.749 
		363.094,112.515 367.986,108.287 	"/>
</g>
<g>
	
		<polyline fill-rule="evenodd" clip-rule="evenodd" fill="none" stroke="#000000" stroke-linecap="round" stroke-linejoin="round" stroke-miterlimit="10" points="
		369.562,108.287 372.878,112.93 376.112,115.667 379.512,117.076 381.337,117.408 384.405,117.242 388.882,115.749 
		394.022,112.515 398.916,108.287 	"/>
</g>
<g>
	
		<polyline fill-rule="evenodd" clip-rule="evenodd" fill="none" stroke="#000000" stroke-linecap="round" stroke-linejoin="round" stroke-miterlimit="10" points="
		338.715,108.287 341.534,112.35 344.354,115.086 347.422,116.745 350.407,117.408 353.476,117.242 357.953,115.749 
		363.094,112.515 367.986,108.287 	"/>
</g>
<g>
	
		<polyline fill-rule="evenodd" clip-rule="evenodd" fill="none" stroke="#000000" stroke-linecap="round" stroke-linejoin="round" stroke-miterlimit="10" points="
		369.562,108.287 372.878,112.93 376.112,115.667 379.512,117.076 381.337,117.408 384.405,117.242 388.882,115.749 
		394.022,112.515 398.916,108.287 	"/>
</g>
<g>
	
		<polyline fill-rule="evenodd" clip-rule="evenodd" fill="none" stroke="#000000" stroke-linecap="round" stroke-linejoin="round" stroke-miterlimit="10" points="
		338.715,108.287 341.534,112.35 344.354,115.086 347.422,116.745 350.407,117.408 353.476,117.242 357.953,115.749 
		363.094,112.515 367.986,108.287 	"/>
</g>
<g>
	
		<polyline fill-rule="evenodd" clip-rule="evenodd" fill="none" stroke="#000000" stroke-linecap="round" stroke-linejoin="round" stroke-miterlimit="10" points="
		369.562,108.287 372.878,112.93 376.112,115.667 379.512,117.076 381.337,117.408 384.405,117.242 388.882,115.749 
		394.022,112.515 398.916,108.287 	"/>
</g>
<g>
	
		<polyline fill-rule="evenodd" clip-rule="evenodd" fill="none" stroke="#000000" stroke-linecap="round" stroke-linejoin="round" stroke-miterlimit="10" points="
		338.715,108.287 341.534,112.35 344.354,115.086 347.422,116.745 350.407,117.408 353.476,117.242 357.953,115.749 
		363.094,112.515 367.986,108.287 	"/>
</g>
<g>
	
		<polyline fill-rule="evenodd" clip-rule="evenodd" fill="none" stroke="#000000" stroke-linecap="round" stroke-linejoin="round" stroke-miterlimit="10" points="
		369.562,108.287 372.878,112.93 376.112,115.667 379.512,117.076 381.337,117.408 384.405,117.242 388.882,115.749 
		394.022,112.515 398.916,108.287 	"/>
</g>
<g>
	
		<polyline fill-rule="evenodd" clip-rule="evenodd" fill="none" stroke="#000000" stroke-linecap="round" stroke-linejoin="round" stroke-miterlimit="10" points="
		338.715,108.287 341.534,112.35 344.354,115.086 347.422,116.745 350.407,117.408 353.476,117.242 357.953,115.749 
		363.094,112.515 367.986,108.287 	"/>
</g>
<g>
	
		<polyline fill-rule="evenodd" clip-rule="evenodd" fill="none" stroke="#000000" stroke-linecap="round" stroke-linejoin="round" stroke-miterlimit="10" points="
		369.562,108.287 372.878,112.93 376.112,115.667 379.512,117.076 381.337,117.408 384.405,117.242 388.882,115.749 
		394.022,112.515 398.916,108.287 	"/>
</g>
<g>
	
		<polyline fill-rule="evenodd" clip-rule="evenodd" fill="none" stroke="#000000" stroke-linecap="round" stroke-linejoin="round" stroke-miterlimit="10" points="
		338.715,108.287 341.534,112.35 344.354,115.086 347.422,116.745 350.407,117.408 353.476,117.242 357.953,115.749 
		363.094,112.515 367.986,108.287 	"/>
</g>
<g>
	
		<polyline fill-rule="evenodd" clip-rule="evenodd" fill="none" stroke="#000000" stroke-linecap="round" stroke-linejoin="round" stroke-miterlimit="10" points="
		369.562,108.287 372.878,112.93 376.112,115.667 379.512,117.076 381.337,117.408 384.405,117.242 388.882,115.749 
		394.022,112.515 398.916,108.287 	"/>
</g>
<g>
	
		<polyline fill-rule="evenodd" clip-rule="evenodd" fill="none" stroke="#000000" stroke-linecap="round" stroke-linejoin="round" stroke-miterlimit="10" points="
		338.715,108.287 341.534,112.35 344.354,115.086 347.422,116.745 350.407,117.408 353.476,117.242 357.953,115.749 
		363.094,112.515 367.986,108.287 	"/>
</g>
<g>
	
		<polyline fill-rule="evenodd" clip-rule="evenodd" fill="none" stroke="#000000" stroke-linecap="round" stroke-linejoin="round" stroke-miterlimit="10" points="
		369.562,108.287 372.878,112.93 376.112,115.667 379.512,117.076 381.337,117.408 384.405,117.242 388.882,115.749 
		394.022,112.515 398.916,108.287 	"/>
</g>
<g>
	
		<polyline fill-rule="evenodd" clip-rule="evenodd" fill="none" stroke="#000000" stroke-linecap="round" stroke-linejoin="round" stroke-miterlimit="10" points="
		399.994,108.287 403.312,112.93 406.545,115.667 409.944,117.076 411.77,117.408 414.838,117.242 419.314,115.749 424.456,112.515 
		429.349,108.287 	"/>
</g>
<g>
	
		<polyline fill-rule="evenodd" clip-rule="evenodd" fill="none" stroke="#000000" stroke-linecap="round" stroke-linejoin="round" stroke-miterlimit="10" points="
		430.924,108.287 433.744,112.35 436.563,115.086 439.632,116.745 442.616,117.408 445.685,117.242 450.161,115.749 
		455.302,112.515 460.195,108.287 	"/>
</g>
<g>
	
		<polyline fill-rule="evenodd" clip-rule="evenodd" fill="none" stroke="#000000" stroke-linecap="round" stroke-linejoin="round" stroke-miterlimit="10" points="
		399.994,108.287 403.312,112.93 406.545,115.667 409.944,117.076 411.77,117.408 414.838,117.242 419.314,115.749 424.456,112.515 
		429.349,108.287 	"/>
</g>
<g>
	
		<polyline fill-rule="evenodd" clip-rule="evenodd" fill="none" stroke="#000000" stroke-linecap="round" stroke-linejoin="round" stroke-miterlimit="10" points="
		430.924,108.287 433.744,112.35 436.563,115.086 439.632,116.745 442.616,117.408 445.685,117.242 450.161,115.749 
		455.302,112.515 460.195,108.287 	"/>
</g>
<g>
	
		<polyline fill-rule="evenodd" clip-rule="evenodd" fill="none" stroke="#000000" stroke-linecap="round" stroke-linejoin="round" stroke-miterlimit="10" points="
		399.994,108.287 403.312,112.93 406.545,115.667 409.944,117.076 411.77,117.408 414.838,117.242 419.314,115.749 424.456,112.515 
		429.349,108.287 	"/>
</g>
<g>
	
		<polyline fill-rule="evenodd" clip-rule="evenodd" fill="none" stroke="#000000" stroke-linecap="round" stroke-linejoin="round" stroke-miterlimit="10" points="
		430.924,108.287 433.744,112.35 436.563,115.086 439.632,116.745 442.616,117.408 445.685,117.242 450.161,115.749 
		455.302,112.515 460.195,108.287 	"/>
</g>
<g>
	
		<polyline fill-rule="evenodd" clip-rule="evenodd" fill="none" stroke="#000000" stroke-linecap="round" stroke-linejoin="round" stroke-miterlimit="10" points="
		399.994,108.287 403.312,112.93 406.545,115.667 409.944,117.076 411.77,117.408 414.838,117.242 419.314,115.749 424.456,112.515 
		429.349,108.287 	"/>
</g>
<g>
	
		<polyline fill-rule="evenodd" clip-rule="evenodd" fill="none" stroke="#000000" stroke-linecap="round" stroke-linejoin="round" stroke-miterlimit="10" points="
		430.924,108.287 433.744,112.35 436.563,115.086 439.632,116.745 442.616,117.408 445.685,117.242 450.161,115.749 
		455.302,112.515 460.195,108.287 	"/>
</g>
<g>
	
		<polyline fill-rule="evenodd" clip-rule="evenodd" fill="none" stroke="#000000" stroke-linecap="round" stroke-linejoin="round" stroke-miterlimit="10" points="
		399.994,108.287 403.312,112.93 406.545,115.667 409.944,117.076 411.77,117.408 414.838,117.242 419.314,115.749 424.456,112.515 
		429.349,108.287 	"/>
</g>
<g>
	
		<polyline fill-rule="evenodd" clip-rule="evenodd" fill="none" stroke="#000000" stroke-linecap="round" stroke-linejoin="round" stroke-miterlimit="10" points="
		430.924,108.287 433.744,112.35 436.563,115.086 439.632,116.745 442.616,117.408 445.685,117.242 450.161,115.749 
		455.302,112.515 460.195,108.287 	"/>
</g>
<g>
	
		<polyline fill-rule="evenodd" clip-rule="evenodd" fill="none" stroke="#000000" stroke-linecap="round" stroke-linejoin="round" stroke-miterlimit="10" points="
		399.994,108.287 403.312,112.93 406.545,115.667 409.944,117.076 411.77,117.408 414.838,117.242 419.314,115.749 424.456,112.515 
		429.349,108.287 	"/>
</g>
<g>
	
		<polyline fill-rule="evenodd" clip-rule="evenodd" fill="none" stroke="#000000" stroke-linecap="round" stroke-linejoin="round" stroke-miterlimit="10" points="
		430.924,108.287 433.744,112.35 436.563,115.086 439.632,116.745 442.616,117.408 445.685,117.242 450.161,115.749 
		455.302,112.515 460.195,108.287 	"/>
</g>
<g>
	
		<polyline fill-rule="evenodd" clip-rule="evenodd" fill="none" stroke="#000000" stroke-linecap="round" stroke-linejoin="round" stroke-miterlimit="10" points="
		399.994,108.287 403.312,112.93 406.545,115.667 409.944,117.076 411.77,117.408 414.838,117.242 419.314,115.749 424.456,112.515 
		429.349,108.287 	"/>
</g>
<g>
	
		<polyline fill-rule="evenodd" clip-rule="evenodd" fill="none" stroke="#000000" stroke-linecap="round" stroke-linejoin="round" stroke-miterlimit="10" points="
		430.924,108.287 433.744,112.35 436.563,115.086 439.632,116.745 442.616,117.408 445.685,117.242 450.161,115.749 
		455.302,112.515 460.195,108.287 	"/>
</g>
<g>
	
		<polyline fill-rule="evenodd" clip-rule="evenodd" fill="none" stroke="#000000" stroke-linecap="round" stroke-linejoin="round" stroke-miterlimit="10" points="
		399.994,108.287 403.312,112.93 406.545,115.667 409.944,117.076 411.77,117.408 414.838,117.242 419.314,115.749 424.456,112.515 
		429.349,108.287 	"/>
</g>
<g>
	
		<polyline fill-rule="evenodd" clip-rule="evenodd" fill="none" stroke="#000000" stroke-linecap="round" stroke-linejoin="round" stroke-miterlimit="10" points="
		430.924,108.287 433.744,112.35 436.563,115.086 439.632,116.745 442.616,117.408 445.685,117.242 450.161,115.749 
		455.302,112.515 460.195,108.287 	"/>
</g>
<g>
	
		<polyline fill-rule="evenodd" clip-rule="evenodd" fill="none" stroke="#000000" stroke-linecap="round" stroke-linejoin="round" stroke-miterlimit="10" points="
		399.994,108.287 403.312,112.93 406.545,115.667 409.944,117.076 411.77,117.408 414.838,117.242 419.314,115.749 424.456,112.515 
		429.349,108.287 	"/>
</g>
<g>
	
		<polyline fill-rule="evenodd" clip-rule="evenodd" fill="none" stroke="#000000" stroke-linecap="round" stroke-linejoin="round" stroke-miterlimit="10" points="
		430.924,108.287 433.744,112.35 436.563,115.086 439.632,116.745 442.616,117.408 445.685,117.242 450.161,115.749 
		455.302,112.515 460.195,108.287 	"/>
</g>
<g>
	
		<polyline fill-rule="evenodd" clip-rule="evenodd" fill="none" stroke="#000000" stroke-linecap="round" stroke-linejoin="round" stroke-miterlimit="10" points="
		462.021,108.452 465.337,113.096 468.571,115.832 471.971,117.242 473.796,117.574 476.863,117.408 481.34,115.915 
		486.481,112.681 491.374,108.452 	"/>
</g>
<g>
	
		<polyline fill-rule="evenodd" clip-rule="evenodd" fill="none" stroke="#000000" stroke-linecap="round" stroke-linejoin="round" stroke-miterlimit="10" points="
		492.866,108.452 496.185,113.096 499.419,115.832 502.818,117.242 504.642,117.574 507.709,117.408 512.188,115.915 
		517.329,112.681 522.221,108.452 	"/>
</g>
<g>
	
		<polyline fill-rule="evenodd" clip-rule="evenodd" fill="none" stroke="#000000" stroke-linecap="round" stroke-linejoin="round" stroke-miterlimit="10" points="
		462.021,108.452 465.337,113.096 468.571,115.832 471.971,117.242 473.796,117.574 476.863,117.408 481.34,115.915 
		486.481,112.681 491.374,108.452 	"/>
</g>
<g>
	
		<polyline fill-rule="evenodd" clip-rule="evenodd" fill="none" stroke="#000000" stroke-linecap="round" stroke-linejoin="round" stroke-miterlimit="10" points="
		492.866,108.452 496.185,113.096 499.419,115.832 502.818,117.242 504.642,117.574 507.709,117.408 512.188,115.915 
		517.329,112.681 522.221,108.452 	"/>
</g>
<g>
	
		<polyline fill-rule="evenodd" clip-rule="evenodd" fill="none" stroke="#000000" stroke-linecap="round" stroke-linejoin="round" stroke-miterlimit="10" points="
		462.021,108.452 465.337,113.096 468.571,115.832 471.971,117.242 473.796,117.574 476.863,117.408 481.34,115.915 
		486.481,112.681 491.374,108.452 	"/>
</g>
<g>
	
		<polyline fill-rule="evenodd" clip-rule="evenodd" fill="none" stroke="#000000" stroke-linecap="round" stroke-linejoin="round" stroke-miterlimit="10" points="
		492.866,108.452 496.185,113.096 499.419,115.832 502.818,117.242 504.642,117.574 507.709,117.408 512.188,115.915 
		517.329,112.681 522.221,108.452 	"/>
</g>
<g>
	
		<polyline fill-rule="evenodd" clip-rule="evenodd" fill="none" stroke="#000000" stroke-linecap="round" stroke-linejoin="round" stroke-miterlimit="10" points="
		462.021,108.452 465.337,113.096 468.571,115.832 471.971,117.242 473.796,117.574 476.863,117.408 481.34,115.915 
		486.481,112.681 491.374,108.452 	"/>
</g>
<g>
	
		<polyline fill-rule="evenodd" clip-rule="evenodd" fill="none" stroke="#000000" stroke-linecap="round" stroke-linejoin="round" stroke-miterlimit="10" points="
		492.866,108.452 496.185,113.096 499.419,115.832 502.818,117.242 504.642,117.574 507.709,117.408 512.188,115.915 
		517.329,112.681 522.221,108.452 	"/>
</g>
<g>
	
		<polyline fill-rule="evenodd" clip-rule="evenodd" fill="none" stroke="#000000" stroke-linecap="round" stroke-linejoin="round" stroke-miterlimit="10" points="
		462.021,108.452 465.337,113.096 468.571,115.832 471.971,117.242 473.796,117.574 476.863,117.408 481.34,115.915 
		486.481,112.681 491.374,108.452 	"/>
</g>
<g>
	
		<polyline fill-rule="evenodd" clip-rule="evenodd" fill="none" stroke="#000000" stroke-linecap="round" stroke-linejoin="round" stroke-miterlimit="10" points="
		492.866,108.452 496.185,113.096 499.419,115.832 502.818,117.242 504.642,117.574 507.709,117.408 512.188,115.915 
		517.329,112.681 522.221,108.452 	"/>
</g>
<g>
	
		<polyline fill-rule="evenodd" clip-rule="evenodd" fill="none" stroke="#000000" stroke-linecap="round" stroke-linejoin="round" stroke-miterlimit="10" points="
		462.021,108.452 465.337,113.096 468.571,115.832 471.971,117.242 473.796,117.574 476.863,117.408 481.34,115.915 
		486.481,112.681 491.374,108.452 	"/>
</g>
<g>
	
		<polyline fill-rule="evenodd" clip-rule="evenodd" fill="none" stroke="#000000" stroke-linecap="round" stroke-linejoin="round" stroke-miterlimit="10" points="
		492.866,108.452 496.185,113.096 499.419,115.832 502.818,117.242 504.642,117.574 507.709,117.408 512.188,115.915 
		517.329,112.681 522.221,108.452 	"/>
</g>
<g>
	
		<polyline fill-rule="evenodd" clip-rule="evenodd" fill="none" stroke="#000000" stroke-linecap="round" stroke-linejoin="round" stroke-miterlimit="10" points="
		462.021,108.452 465.337,113.096 468.571,115.832 471.971,117.242 473.796,117.574 476.863,117.408 481.34,115.915 
		486.481,112.681 491.374,108.452 	"/>
</g>
<g>
	
		<polyline fill-rule="evenodd" clip-rule="evenodd" fill="none" stroke="#000000" stroke-linecap="round" stroke-linejoin="round" stroke-miterlimit="10" points="
		492.866,108.452 496.185,113.096 499.419,115.832 502.818,117.242 504.642,117.574 507.709,117.408 512.188,115.915 
		517.329,112.681 522.221,108.452 	"/>
</g>
<g>
	
		<polyline fill-rule="evenodd" clip-rule="evenodd" fill="none" stroke="#000000" stroke-linecap="round" stroke-linejoin="round" stroke-miterlimit="10" points="
		462.021,108.452 465.337,113.096 468.571,115.832 471.971,117.242 473.796,117.574 476.863,117.408 481.34,115.915 
		486.481,112.681 491.374,108.452 	"/>
</g>
<g>
	
		<polyline fill-rule="evenodd" clip-rule="evenodd" fill="none" stroke="#000000" stroke-linecap="round" stroke-linejoin="round" stroke-miterlimit="10" points="
		492.866,108.452 496.185,113.096 499.419,115.832 502.818,117.242 504.642,117.574 507.709,117.408 512.188,115.915 
		517.329,112.681 522.221,108.452 	"/>
</g>
<g>
	
		<polyline fill-rule="evenodd" clip-rule="evenodd" fill="none" stroke="#000000" stroke-linecap="round" stroke-linejoin="round" stroke-miterlimit="10" points="
		462.021,108.452 465.337,113.096 468.571,115.832 471.971,117.242 473.796,117.574 476.863,117.408 481.34,115.915 
		486.481,112.681 491.374,108.452 	"/>
</g>
<g>
	
		<polyline fill-rule="evenodd" clip-rule="evenodd" fill="none" stroke="#000000" stroke-linecap="round" stroke-linejoin="round" stroke-miterlimit="10" points="
		492.866,108.452 496.185,113.096 499.419,115.832 502.818,117.242 504.642,117.574 507.709,117.408 512.188,115.915 
		517.329,112.681 522.221,108.452 	"/>
</g>
<g>
	
		<polyline fill-rule="evenodd" clip-rule="evenodd" fill="none" stroke="#000000" stroke-linecap="round" stroke-linejoin="round" stroke-miterlimit="10" points="
		522.719,108.452 526.036,113.096 529.27,115.832 532.669,117.242 534.495,117.574 537.562,117.408 542.04,115.915 547.182,112.681 
		552.073,108.452 	"/>
</g>
<g>
	
		<polyline fill-rule="evenodd" clip-rule="evenodd" fill="none" stroke="#000000" stroke-linecap="round" stroke-linejoin="round" stroke-miterlimit="10" points="
		553.566,108.452 556.883,113.096 560.117,115.832 563.517,117.242 565.34,117.574 568.409,117.408 572.886,115.915 
		578.028,112.681 582.921,108.452 	"/>
</g>
<g>
	
		<polyline fill-rule="evenodd" clip-rule="evenodd" fill="none" stroke="#000000" stroke-linecap="round" stroke-linejoin="round" stroke-miterlimit="10" points="
		522.719,108.452 526.036,113.096 529.27,115.832 532.669,117.242 534.495,117.574 537.562,117.408 542.04,115.915 547.182,112.681 
		552.073,108.452 	"/>
</g>
<g>
	
		<polyline fill-rule="evenodd" clip-rule="evenodd" fill="none" stroke="#000000" stroke-linecap="round" stroke-linejoin="round" stroke-miterlimit="10" points="
		553.566,108.452 556.883,113.096 560.117,115.832 563.517,117.242 565.34,117.574 568.409,117.408 572.886,115.915 
		578.028,112.681 582.921,108.452 	"/>
</g>
<g>
	
		<polyline fill-rule="evenodd" clip-rule="evenodd" fill="none" stroke="#000000" stroke-linecap="round" stroke-linejoin="round" stroke-miterlimit="10" points="
		522.719,108.452 526.036,113.096 529.27,115.832 532.669,117.242 534.495,117.574 537.562,117.408 542.04,115.915 547.182,112.681 
		552.073,108.452 	"/>
</g>
<g>
	
		<polyline fill-rule="evenodd" clip-rule="evenodd" fill="none" stroke="#000000" stroke-linecap="round" stroke-linejoin="round" stroke-miterlimit="10" points="
		553.566,108.452 556.883,113.096 560.117,115.832 563.517,117.242 565.34,117.574 568.409,117.408 572.886,115.915 
		578.028,112.681 582.921,108.452 	"/>
</g>
<g>
	
		<polyline fill-rule="evenodd" clip-rule="evenodd" fill="none" stroke="#000000" stroke-linecap="round" stroke-linejoin="round" stroke-miterlimit="10" points="
		522.719,108.452 526.036,113.096 529.27,115.832 532.669,117.242 534.495,117.574 537.562,117.408 542.04,115.915 547.182,112.681 
		552.073,108.452 	"/>
</g>
<g>
	
		<polyline fill-rule="evenodd" clip-rule="evenodd" fill="none" stroke="#000000" stroke-linecap="round" stroke-linejoin="round" stroke-miterlimit="10" points="
		553.566,108.452 556.883,113.096 560.117,115.832 563.517,117.242 565.34,117.574 568.409,117.408 572.886,115.915 
		578.028,112.681 582.921,108.452 	"/>
</g>
<g>
	
		<polyline fill-rule="evenodd" clip-rule="evenodd" fill="none" stroke="#000000" stroke-linecap="round" stroke-linejoin="round" stroke-miterlimit="10" points="
		522.719,108.452 526.036,113.096 529.27,115.832 532.669,117.242 534.495,117.574 537.562,117.408 542.04,115.915 547.182,112.681 
		552.073,108.452 	"/>
</g>
<g>
	
		<polyline fill-rule="evenodd" clip-rule="evenodd" fill="none" stroke="#000000" stroke-linecap="round" stroke-linejoin="round" stroke-miterlimit="10" points="
		553.566,108.452 556.883,113.096 560.117,115.832 563.517,117.242 565.34,117.574 568.409,117.408 572.886,115.915 
		578.028,112.681 582.921,108.452 	"/>
</g>
<g>
	
		<polyline fill-rule="evenodd" clip-rule="evenodd" fill="none" stroke="#000000" stroke-linecap="round" stroke-linejoin="round" stroke-miterlimit="10" points="
		522.719,108.452 526.036,113.096 529.27,115.832 532.669,117.242 534.495,117.574 537.562,117.408 542.04,115.915 547.182,112.681 
		552.073,108.452 	"/>
</g>
<g>
	
		<polyline fill-rule="evenodd" clip-rule="evenodd" fill="none" stroke="#000000" stroke-linecap="round" stroke-linejoin="round" stroke-miterlimit="10" points="
		553.566,108.452 556.883,113.096 560.117,115.832 563.517,117.242 565.34,117.574 568.409,117.408 572.886,115.915 
		578.028,112.681 582.921,108.452 	"/>
</g>
<g>
	
		<polyline fill-rule="evenodd" clip-rule="evenodd" fill="none" stroke="#000000" stroke-linecap="round" stroke-linejoin="round" stroke-miterlimit="10" points="
		522.719,108.452 526.036,113.096 529.27,115.832 532.669,117.242 534.495,117.574 537.562,117.408 542.04,115.915 547.182,112.681 
		552.073,108.452 	"/>
</g>
<g>
	
		<polyline fill-rule="evenodd" clip-rule="evenodd" fill="none" stroke="#000000" stroke-linecap="round" stroke-linejoin="round" stroke-miterlimit="10" points="
		553.566,108.452 556.883,113.096 560.117,115.832 563.517,117.242 565.34,117.574 568.409,117.408 572.886,115.915 
		578.028,112.681 582.921,108.452 	"/>
</g>
<g>
	
		<polyline fill-rule="evenodd" clip-rule="evenodd" fill="none" stroke="#000000" stroke-linecap="round" stroke-linejoin="round" stroke-miterlimit="10" points="
		522.719,108.452 526.036,113.096 529.27,115.832 532.669,117.242 534.495,117.574 537.562,117.408 542.04,115.915 547.182,112.681 
		552.073,108.452 	"/>
</g>
<g>
	
		<polyline fill-rule="evenodd" clip-rule="evenodd" fill="none" stroke="#000000" stroke-linecap="round" stroke-linejoin="round" stroke-miterlimit="10" points="
		553.566,108.452 556.883,113.096 560.117,115.832 563.517,117.242 565.34,117.574 568.409,117.408 572.886,115.915 
		578.028,112.681 582.921,108.452 	"/>
</g>
<g>
	
		<polyline fill-rule="evenodd" clip-rule="evenodd" fill="none" stroke="#000000" stroke-linecap="round" stroke-linejoin="round" stroke-miterlimit="10" points="
		522.719,108.452 526.036,113.096 529.27,115.832 532.669,117.242 534.495,117.574 537.562,117.408 542.04,115.915 547.182,112.681 
		552.073,108.452 	"/>
</g>
<g>
	
		<polyline fill-rule="evenodd" clip-rule="evenodd" fill="none" stroke="#000000" stroke-linecap="round" stroke-linejoin="round" stroke-miterlimit="10" points="
		553.566,108.452 556.883,113.096 560.117,115.832 563.517,117.242 565.34,117.574 568.409,117.408 572.886,115.915 
		578.028,112.681 582.921,108.452 	"/>
</g>
<g>
	
		<path fill-rule="evenodd" clip-rule="evenodd" fill="none" stroke="#000000" stroke-linecap="round" stroke-linejoin="round" stroke-miterlimit="10" d="
		M313.34,137.805c-0.007-7.149-7.738-11.612-13.931-8.042c-6.193,3.594-6.182,12.52,0.011,16.091
		C305.619,149.417,313.334,144.957,313.34,137.805z"/>
</g>
<g>
	
		<polyline fill-rule="evenodd" clip-rule="evenodd" fill="none" stroke="#000000" stroke-linecap="round" stroke-linejoin="round" stroke-miterlimit="10" points="
		23.362,48.333 23.362,114.754 137.048,114.754 	"/>
</g>
<g>
	
		<polyline fill-rule="evenodd" clip-rule="evenodd" stroke="#000000" stroke-linecap="round" stroke-linejoin="round" stroke-miterlimit="10" points="
		27.425,56.377 23.362,48.333 19.381,56.377 27.425,56.377 	"/>
</g>
<g>
	
		<polyline fill-rule="evenodd" clip-rule="evenodd" stroke="#000000" stroke-linecap="round" stroke-linejoin="round" stroke-miterlimit="10" points="
		129.088,110.691 137.048,114.754 129.088,118.735 129.088,110.691 	"/>
</g>
<g>
	<path d="M5.136,63.501l3.22-4.209c0.325-0.399,0.621-0.738,0.945-1.123v-0.03h-3.87v-1.034h5.436v0.813l-3.19,4.15
		c-0.311,0.399-0.591,0.768-0.916,1.123v0.029h4.165v1.034h-5.79V63.501z"/>
</g>
<g>
	<path d="M110.207,119.878l1.02,1.536c0.28,0.399,0.502,0.753,0.738,1.152h0.03c0.236-0.414,0.473-0.783,0.724-1.167l0.99-1.521
		h1.418l-2.438,3.456l2.497,3.693h-1.462l-1.063-1.61c-0.281-0.414-0.517-0.813-0.768-1.241h-0.03
		c-0.236,0.428-0.473,0.812-0.753,1.241l-1.034,1.61h-1.433l2.541-3.648l-2.422-3.5H110.207z"/>
</g>
<g>
	
		<rect x="571.561" y="77.19" fill-rule="evenodd" clip-rule="evenodd" fill="none" stroke="#000000" stroke-linecap="round" stroke-linejoin="round" stroke-miterlimit="10" width="18.99" height="18.741"/>
	
		<path fill-rule="evenodd" clip-rule="evenodd" stroke="#000000" stroke-linecap="round" stroke-linejoin="round" stroke-miterlimit="10" d="
		M581.055,86.561"/>
</g>
<g>
	<rect x="571.561" y="77.19" fill-rule="evenodd" clip-rule="evenodd" fill="none" width="18.99" height="18.741"/>
</g>
<g>
	<path d="M584.702,83.984h-3.966l-0.399,2.67c0.24-0.032,0.464-0.048,0.848-0.048c0.815,0,1.599,0.16,2.238,0.56
		c0.815,0.448,1.487,1.359,1.487,2.655c0,2.031-1.615,3.55-3.869,3.55c-1.136,0-2.079-0.32-2.591-0.64l0.352-1.071
		c0.432,0.256,1.279,0.576,2.239,0.576c1.311,0,2.462-0.864,2.446-2.255c0-1.343-0.911-2.287-2.975-2.287
		c-0.607,0-1.071,0.048-1.455,0.096l0.672-4.989h4.973V83.984z"/>
</g>
<g>
	
		<path fill-rule="evenodd" clip-rule="evenodd" fill="none" stroke="#000000" stroke-linecap="round" stroke-linejoin="round" stroke-miterlimit="10" d="
		M509.12,203.81c-0.01-8.808-9.535-14.306-17.167-9.908c-7.631,4.428-7.616,15.427,0.014,19.828
		C499.605,218.119,509.114,212.621,509.12,203.81z"/>
</g>
<g>
	<polygon fill-rule="evenodd" clip-rule="evenodd" fill="none" points="485.901,199.252 486.399,202.569 488.058,205.969 
		491.126,208.872 494.608,210.364 497.345,210.696 500.164,210.364 503.563,208.872 506.299,206.384 508.124,203.066 
		508.705,200.994 508.705,197.594 507.461,193.944 504.891,190.627 502.155,188.886 499.087,187.974 496.268,187.891 
		493.53,188.471 490.296,190.296 488.058,192.618 486.399,195.935 	"/>
</g>
<g>
	<path d="M498.323,210.861v-2.738h-4.646v-0.876l4.461-6.383h1.461v6.214h1.399v1.046H499.6v2.738H498.323z M498.323,207.078v-3.337
		c0-0.523,0.015-1.046,0.046-1.569h-0.046c-0.308,0.585-0.554,1.016-0.831,1.477l-2.445,3.399v0.031H498.323z"/>
</g>
<g>
	
		<path fill-rule="evenodd" clip-rule="evenodd" fill="none" stroke="#000000" stroke-linecap="round" stroke-linejoin="round" stroke-miterlimit="10" d="
		M334.901,276.368c-0.01-8.81-9.535-14.308-17.167-9.908c-7.631,4.428-7.617,15.425,0.014,19.827
		C325.385,290.676,334.894,285.178,334.901,276.368z"/>
</g>
<g>
	<polygon fill-rule="evenodd" clip-rule="evenodd" fill="none" points="311.766,271.81 311.931,274.047 313.009,277.115 
		314.916,279.769 317.818,282.008 322.048,283.252 324.867,283.169 328.434,282.008 331.832,279.354 333.49,276.618 
		334.402,274.047 334.568,270.731 333.906,267.995 332.744,265.59 330.258,262.854 327.023,261.029 323.706,260.448 
		320.887,260.614 317.818,261.692 314.916,263.932 312.76,267 311.848,270.151 	"/>
</g>
<g>
	<path d="M320.326,281.88c0.385,0.23,1.262,0.615,2.215,0.615c1.723,0,2.277-1.092,2.262-1.938
		c-0.016-1.399-1.277-1.999-2.584-1.999h-0.754v-1.015h0.754c0.984,0,2.23-0.508,2.23-1.692c0-0.8-0.508-1.507-1.754-1.507
		c-0.8,0-1.568,0.354-2,0.661l-0.369-0.984c0.539-0.385,1.554-0.77,2.631-0.77c1.969,0,2.86,1.169,2.86,2.384
		c0,1.047-0.63,1.923-1.846,2.369v0.031c1.23,0.23,2.215,1.153,2.23,2.553c0,1.6-1.261,2.999-3.646,2.999
		c-1.123,0-2.107-0.354-2.6-0.677L320.326,281.88z"/>
</g>
<g>
	
		<path fill-rule="evenodd" clip-rule="evenodd" fill="none" stroke="#000000" stroke-linecap="round" stroke-linejoin="round" stroke-miterlimit="10" d="
		M181.992,292.345c-0.03-8.81-9.499-14.285-17.054-9.874c-7.564,4.421-7.55,15.419,0.025,19.82
		C172.563,306.679,182.005,301.155,181.992,292.345z"/>
</g>
<g>
	<polygon fill-rule="evenodd" clip-rule="evenodd" fill="none" points="158.94,287.813 159.272,290.632 160.765,294.032 
		163.251,296.769 166.568,298.591 169.222,299.174 172.041,299.174 175.69,297.93 179.007,295.359 180.749,292.622 181.661,289.555 
		181.827,287.232 181.164,283.998 179.339,280.764 177.017,278.525 173.7,276.867 170.383,276.369 167.066,276.867 163.666,278.525 
		160.765,281.594 159.272,285.076 	"/>
</g>
<g>
	<path d="M170.114,290.686h-0.031l-1.738,0.938l-0.262-1.03l2.184-1.17h1.154v9.998h-1.308V290.686z"/>
</g>
<g>
	
		<rect x="42.269" y="295.525" fill-rule="evenodd" clip-rule="evenodd" fill="none" stroke="#000000" stroke-linecap="round" stroke-linejoin="round" stroke-miterlimit="10" width="18.905" height="18.739"/>
	
		<path fill-rule="evenodd" clip-rule="evenodd" stroke="#000000" stroke-linecap="round" stroke-linejoin="round" stroke-miterlimit="10" d="
		M51.721,304.895"/>
</g>
<g>
	<rect x="42.269" y="295.525" fill-rule="evenodd" clip-rule="evenodd" fill="none" width="18.905" height="18.739"/>
</g>
<g>
	<path d="M52.177,302.445h-0.032l-1.807,0.976l-0.272-1.071l2.271-1.216h1.2v10.395h-1.359V302.445z"/>
</g>
<g>
	
		<path fill-rule="evenodd" clip-rule="evenodd" fill="none" stroke="#000000" stroke-linecap="round" stroke-linejoin="round" stroke-miterlimit="10" d="
		M294.352,177.594c-0.02-8.746-9.552-14.192-17.178-9.816c-7.62,4.388-7.599,15.323,0.036,19.683
		C284.854,191.809,294.365,186.328,294.352,177.594z"/>
</g>
<g>
	<polygon fill-rule="evenodd" clip-rule="evenodd" fill="none" points="271.134,173.049 271.631,176.366 272.958,179.268 
		275.114,181.673 277.767,183.415 281.415,184.492 284.815,184.327 288.381,182.917 290.869,181.01 293.191,177.444 293.937,174.21 
		293.937,171.971 293.191,168.736 291.532,166 289.21,163.761 285.894,162.103 283.157,161.688 280.337,161.854 277.269,162.932 
		274.285,165.17 272.212,168.239 271.299,171.39 	"/>
</g>
<g>
	<path d="M279.371,184.659v-0.831l1.061-1.03c2.553-2.431,3.722-3.723,3.722-5.229c0-1.016-0.477-1.954-1.969-1.954
		c-0.907,0-1.661,0.461-2.123,0.846l-0.431-0.954c0.677-0.569,1.676-1.015,2.815-1.015c2.153,0,3.061,1.477,3.061,2.907
		c0,1.846-1.338,3.337-3.445,5.368l-0.784,0.738v0.031h4.476v1.123H279.371z"/>
</g>
<g>
	
		<rect x="314.17" y="192.535" fill-rule="evenodd" clip-rule="evenodd" fill="none" stroke="#000000" stroke-linecap="round" stroke-linejoin="round" stroke-miterlimit="10" width="18.907" height="18.741"/>
	
		<path fill-rule="evenodd" clip-rule="evenodd" stroke="#000000" stroke-linecap="round" stroke-linejoin="round" stroke-miterlimit="10" d="
		M323.623,201.905"/>
</g>
<g>
	<rect x="314.17" y="192.535" fill-rule="evenodd" clip-rule="evenodd" fill="none" width="18.907" height="18.741"/>
</g>
<g>
	<path d="M321.025,208.623v-0.864l1.104-1.071c2.654-2.526,3.869-3.87,3.869-5.437c0-1.055-0.495-2.031-2.047-2.031
		c-0.943,0-1.727,0.479-2.206,0.879l-0.448-0.991c0.704-0.592,1.743-1.056,2.927-1.056c2.238,0,3.183,1.535,3.183,3.022
		c0,1.919-1.392,3.47-3.582,5.581l-0.816,0.768v0.032h4.654v1.167H321.025z"/>
</g>
<g>
	
		<rect x="317.818" y="134.655" fill-rule="evenodd" clip-rule="evenodd" fill="none" stroke="#000000" stroke-linecap="round" stroke-linejoin="round" stroke-miterlimit="10" width="18.989" height="18.741"/>
	
		<path fill-rule="evenodd" clip-rule="evenodd" stroke="#000000" stroke-linecap="round" stroke-linejoin="round" stroke-miterlimit="10" d="
		M327.313,144.026"/>
</g>
<g>
	<rect x="317.818" y="134.655" fill-rule="evenodd" clip-rule="evenodd" fill="none" width="18.989" height="18.741"/>
</g>
<g>
	<path d="M325.094,149.061c0.399,0.24,1.311,0.64,2.303,0.64c1.791,0,2.366-1.135,2.351-2.015c-0.017-1.455-1.327-2.079-2.687-2.079
		h-0.783v-1.055h0.783c1.023,0,2.318-0.528,2.318-1.759c0-0.832-0.527-1.567-1.822-1.567c-0.832,0-1.632,0.368-2.079,0.688
		l-0.384-1.023c0.56-0.4,1.615-0.8,2.734-0.8c2.047,0,2.975,1.215,2.975,2.479c0,1.088-0.656,1.999-1.919,2.463v0.032
		c1.279,0.24,2.303,1.199,2.318,2.654c0,1.663-1.312,3.118-3.79,3.118c-1.167,0-2.19-0.368-2.702-0.704L325.094,149.061z"/>
</g>
<g>
	
		<polyline fill-rule="evenodd" clip-rule="evenodd" fill="none" stroke="#000000" stroke-linecap="round" stroke-linejoin="round" stroke-miterlimit="10" points="
		584.164,108.452 586.984,112.515 589.804,115.252 592.871,116.911 595.855,117.574 598.924,117.408 603.402,115.915 
		608.544,112.681 613.436,108.452 	"/>
</g>
<g>
	
		<polyline fill-rule="evenodd" clip-rule="evenodd" fill="none" stroke="#000000" stroke-linecap="round" stroke-linejoin="round" stroke-miterlimit="10" points="
		584.164,108.452 586.984,112.515 589.804,115.252 592.871,116.911 595.855,117.574 598.924,117.408 603.402,115.915 
		608.544,112.681 613.436,108.452 	"/>
</g>
<g>
	
		<polyline fill-rule="evenodd" clip-rule="evenodd" fill="none" stroke="#000000" stroke-linecap="round" stroke-linejoin="round" stroke-miterlimit="10" points="
		584.164,108.452 586.984,112.515 589.804,115.252 592.871,116.911 595.855,117.574 598.924,117.408 603.402,115.915 
		608.544,112.681 613.436,108.452 	"/>
</g>
<g>
	
		<polyline fill-rule="evenodd" clip-rule="evenodd" fill="none" stroke="#000000" stroke-linecap="round" stroke-linejoin="round" stroke-miterlimit="10" points="
		584.164,108.452 586.984,112.515 589.804,115.252 592.871,116.911 595.855,117.574 598.924,117.408 603.402,115.915 
		608.544,112.681 613.436,108.452 	"/>
</g>
<g>
	
		<polyline fill-rule="evenodd" clip-rule="evenodd" fill="none" stroke="#000000" stroke-linecap="round" stroke-linejoin="round" stroke-miterlimit="10" points="
		584.164,108.452 586.984,112.515 589.804,115.252 592.871,116.911 595.855,117.574 598.924,117.408 603.402,115.915 
		608.544,112.681 613.436,108.452 	"/>
</g>
<g>
	
		<polyline fill-rule="evenodd" clip-rule="evenodd" fill="none" stroke="#000000" stroke-linecap="round" stroke-linejoin="round" stroke-miterlimit="10" points="
		584.164,108.452 586.984,112.515 589.804,115.252 592.871,116.911 595.855,117.574 598.924,117.408 603.402,115.915 
		608.544,112.681 613.436,108.452 	"/>
</g>
<g>
	
		<polyline fill-rule="evenodd" clip-rule="evenodd" fill="none" stroke="#000000" stroke-linecap="round" stroke-linejoin="round" stroke-miterlimit="10" points="
		584.164,108.452 586.984,112.515 589.804,115.252 592.871,116.911 595.855,117.574 598.924,117.408 603.402,115.915 
		608.544,112.681 613.436,108.452 	"/>
</g>
<g>
	
		<polyline fill-rule="evenodd" clip-rule="evenodd" fill="none" stroke="#000000" stroke-linecap="round" stroke-linejoin="round" stroke-miterlimit="10" points="
		584.164,108.452 586.984,112.515 589.804,115.252 592.871,116.911 595.855,117.574 598.924,117.408 603.402,115.915 
		608.544,112.681 613.436,108.452 	"/>
</g>
<g>
	
		<polyline fill-rule="evenodd" clip-rule="evenodd" fill="none" stroke="#000000" stroke-linecap="round" stroke-linejoin="round" stroke-miterlimit="10" points="
		584.164,108.452 586.984,112.515 589.804,115.252 592.871,116.911 595.855,117.574 598.924,117.408 603.402,115.915 
		608.544,112.681 613.436,108.452 	"/>
</g>
<g>
	
		<line fill-rule="evenodd" clip-rule="evenodd" fill="none" stroke="#000000" stroke-linecap="round" stroke-linejoin="round" stroke-miterlimit="10" x1="36.63" y1="316.919" x2="435.733" y2="316.919"/>
</g>
<g>
	
		<line fill-rule="evenodd" clip-rule="evenodd" fill="none" stroke="#000000" stroke-linecap="round" stroke-linejoin="round" stroke-miterlimit="10" x1="29.665" y1="335.741" x2="48.487" y2="316.919"/>
</g>
<g>
	
		<line fill-rule="evenodd" clip-rule="evenodd" fill="none" stroke="#000000" stroke-linecap="round" stroke-linejoin="round" stroke-miterlimit="10" x1="47.906" y1="335.741" x2="66.73" y2="316.919"/>
</g>
<g>
	
		<line fill-rule="evenodd" clip-rule="evenodd" fill="none" stroke="#000000" stroke-linecap="round" stroke-linejoin="round" stroke-miterlimit="10" x1="63.497" y1="335.741" x2="82.32" y2="316.919"/>
</g>
<g>
	
		<line fill-rule="evenodd" clip-rule="evenodd" fill="none" stroke="#000000" stroke-linecap="round" stroke-linejoin="round" stroke-miterlimit="10" x1="79.998" y1="335.741" x2="98.905" y2="316.919"/>
</g>
<g>
	
		<line fill-rule="evenodd" clip-rule="evenodd" fill="none" stroke="#000000" stroke-linecap="round" stroke-linejoin="round" stroke-miterlimit="10" x1="98.573" y1="335.741" x2="117.396" y2="316.919"/>
</g>
<g>
	
		<line fill-rule="evenodd" clip-rule="evenodd" fill="none" stroke="#000000" stroke-linecap="round" stroke-linejoin="round" stroke-miterlimit="10" x1="115.572" y1="335.741" x2="134.478" y2="316.919"/>
</g>
<g>
	
		<line fill-rule="evenodd" clip-rule="evenodd" fill="none" stroke="#000000" stroke-linecap="round" stroke-linejoin="round" stroke-miterlimit="10" x1="130.83" y1="335.741" x2="149.653" y2="316.919"/>
</g>
<g>
	
		<line fill-rule="evenodd" clip-rule="evenodd" fill="none" stroke="#000000" stroke-linecap="round" stroke-linejoin="round" stroke-miterlimit="10" x1="149.072" y1="335.741" x2="167.895" y2="316.919"/>
</g>
<g>
	
		<polyline fill-rule="evenodd" clip-rule="evenodd" fill="none" stroke="#000000" stroke-linecap="round" stroke-linejoin="round" stroke-miterlimit="10" points="
		164.661,335.741 183.485,316.919 195.259,313.52 206.703,309.373 217.732,304.729 232.906,297.018 242.028,291.711 
		253.637,283.667 259.856,278.525 265.164,273.218 270.222,267.082 277.435,256.303 284.649,243.533 294.766,222.802 
		300.322,210.862 315.828,221.724 330.341,230.597 339.461,235.406 352.48,240.962 360.771,243.616 368.898,245.44 376.776,246.6 
		384.405,246.932 392.033,246.517 399.497,245.44 407.043,243.699 414.506,241.294 425.866,236.484 433.578,232.503 
		441.539,227.362 449.581,220.895 457.708,213.183 469.981,199.667 482.087,184.243 490.131,173.297 505.472,150.163 
		519.816,126.613 535.57,98.668 548.922,73.211 	"/>
</g>
<g>
	
		<line fill-rule="evenodd" clip-rule="evenodd" fill="none" stroke="#000000" stroke-linecap="round" stroke-linejoin="round" stroke-miterlimit="10" x1="181.164" y1="335.741" x2="200.069" y2="316.919"/>
</g>
<g>
	
		<line fill-rule="evenodd" clip-rule="evenodd" fill="none" stroke="#000000" stroke-linecap="round" stroke-linejoin="round" stroke-miterlimit="10" x1="199.737" y1="335.741" x2="218.561" y2="316.919"/>
</g>
<g>
	
		<line fill-rule="evenodd" clip-rule="evenodd" fill="none" stroke="#000000" stroke-linecap="round" stroke-linejoin="round" stroke-miterlimit="10" x1="216.737" y1="335.741" x2="235.643" y2="316.919"/>
</g>
<g>
	
		<line fill-rule="evenodd" clip-rule="evenodd" fill="none" stroke="#000000" stroke-linecap="round" stroke-linejoin="round" stroke-miterlimit="10" x1="238.047" y1="335.741" x2="256.954" y2="316.919"/>
</g>
<g>
	
		<line fill-rule="evenodd" clip-rule="evenodd" fill="none" stroke="#000000" stroke-linecap="round" stroke-linejoin="round" stroke-miterlimit="10" x1="256.373" y1="335.741" x2="275.197" y2="316.919"/>
</g>
<g>
	
		<line fill-rule="evenodd" clip-rule="evenodd" fill="none" stroke="#000000" stroke-linecap="round" stroke-linejoin="round" stroke-miterlimit="10" x1="324.038" y1="335.741" x2="342.86" y2="316.919"/>
</g>
<g>
	
		<line fill-rule="evenodd" clip-rule="evenodd" fill="none" stroke="#000000" stroke-linecap="round" stroke-linejoin="round" stroke-miterlimit="10" x1="346.261" y1="335.741" x2="365.084" y2="316.919"/>
</g>
<g>
	
		<line fill-rule="evenodd" clip-rule="evenodd" fill="none" stroke="#000000" stroke-linecap="round" stroke-linejoin="round" stroke-miterlimit="10" x1="364.504" y1="335.741" x2="383.326" y2="316.919"/>
</g>
<g>
	
		<line fill-rule="evenodd" clip-rule="evenodd" fill="none" stroke="#000000" stroke-linecap="round" stroke-linejoin="round" stroke-miterlimit="10" x1="380.093" y1="335.741" x2="398.916" y2="316.919"/>
</g>
<g>
	
		<line fill-rule="evenodd" clip-rule="evenodd" fill="none" stroke="#000000" stroke-linecap="round" stroke-linejoin="round" stroke-miterlimit="10" x1="396.595" y1="335.741" x2="415.501" y2="316.919"/>
</g>
<g>
	
		<line fill-rule="evenodd" clip-rule="evenodd" fill="none" stroke="#000000" stroke-linecap="round" stroke-linejoin="round" stroke-miterlimit="10" x1="415.17" y1="335.741" x2="433.993" y2="316.919"/>
</g>
<g>
	<path d="M557.374,237.807h1.841v12.573h6.024v1.527h-7.865V237.807z"/>
	<path d="M569.257,238.937c0,0.627-0.439,1.129-1.171,1.129c-0.67,0-1.109-0.502-1.109-1.129s0.46-1.151,1.15-1.151
		C568.797,237.786,569.257,238.289,569.257,238.937z M567.207,251.907v-10.125h1.841v10.125H567.207z"/>
	<path d="M572.102,244.522c0-1.067-0.021-1.904-0.084-2.74h1.632l0.104,1.673h0.042c0.502-0.941,1.674-1.883,3.347-1.883
		c1.402,0,3.578,0.837,3.578,4.31v6.025h-1.842v-5.836c0-1.632-0.606-2.992-2.343-2.992c-1.192,0-2.134,0.858-2.469,1.883
		c-0.083,0.23-0.125,0.544-0.125,0.857v6.088h-1.841V244.522z"/>
	<path d="M584.737,247.179c0.042,2.49,1.611,3.515,3.474,3.515c1.317,0,2.134-0.23,2.803-0.523l0.335,1.318
		c-0.648,0.292-1.778,0.648-3.39,0.648c-3.116,0-4.979-2.071-4.979-5.125c0-3.055,1.799-5.439,4.749-5.439
		c3.326,0,4.184,2.887,4.184,4.749c0,0.376-0.021,0.648-0.063,0.857H584.737z M590.135,245.861c0.021-1.15-0.48-2.971-2.552-2.971
		c-1.883,0-2.678,1.695-2.824,2.971H590.135z"/>
	<path d="M598.63,244.522c0-1.067-0.021-1.904-0.084-2.74h1.632l0.104,1.673h0.042c0.502-0.941,1.674-1.883,3.347-1.883
		c1.402,0,3.578,0.837,3.578,4.31v6.025h-1.842v-5.836c0-1.632-0.606-2.992-2.343-2.992c-1.192,0-2.134,0.858-2.469,1.883
		c-0.083,0.23-0.125,0.544-0.125,0.857v6.088h-1.841V244.522z"/>
	<path d="M618.714,249.125c0,1.066,0.021,1.987,0.083,2.782h-1.632l-0.104-1.652h-0.042c-0.46,0.815-1.548,1.883-3.347,1.883
		c-1.59,0-3.493-0.899-3.493-4.436v-5.92h1.841v5.585c0,1.924,0.606,3.243,2.259,3.243c1.234,0,2.092-0.857,2.427-1.694
		c0.104-0.251,0.168-0.586,0.168-0.942v-6.192h1.841V249.125z"/>
	<path d="M621.769,244.522c0-1.067-0.042-1.904-0.084-2.74h1.611l0.083,1.652h0.063c0.564-0.962,1.506-1.862,3.2-1.862
		c1.36,0,2.406,0.837,2.845,2.029h0.042c0.314-0.586,0.732-1.004,1.151-1.318c0.606-0.46,1.255-0.711,2.217-0.711
		c1.36,0,3.348,0.879,3.348,4.393v5.941h-1.8v-5.711c0-1.967-0.731-3.117-2.196-3.117c-1.066,0-1.861,0.774-2.196,1.653
		c-0.084,0.272-0.146,0.585-0.146,0.92v6.255h-1.799v-6.067c0-1.611-0.712-2.761-2.113-2.761c-1.13,0-1.987,0.92-2.28,1.841
		c-0.104,0.251-0.146,0.586-0.146,0.899v6.088h-1.799V244.522z"/>
	<path d="M639.217,237.054h1.82v6.359h0.041c0.648-1.129,1.82-1.841,3.452-1.841c2.531,0,4.288,2.092,4.288,5.146
		c0,3.619-2.301,5.418-4.561,5.418c-1.464,0-2.636-0.565-3.409-1.883h-0.042l-0.104,1.652h-1.569
		c0.042-0.69,0.084-1.716,0.084-2.615V237.054z M641.037,247.849c0,0.23,0.021,0.46,0.083,0.67c0.335,1.275,1.423,2.154,2.762,2.154
		c1.945,0,3.075-1.569,3.075-3.891c0-2.029-1.046-3.766-3.033-3.766c-1.234,0-2.406,0.879-2.782,2.26
		c-0.063,0.23-0.104,0.481-0.104,0.774V247.849z"/>
	<path d="M652.145,247.179c0.042,2.49,1.611,3.515,3.473,3.515c1.318,0,2.135-0.23,2.804-0.523l0.335,1.318
		c-0.648,0.292-1.778,0.648-3.39,0.648c-3.116,0-4.979-2.071-4.979-5.125c0-3.055,1.799-5.439,4.749-5.439
		c3.326,0,4.184,2.887,4.184,4.749c0,0.376-0.021,0.648-0.063,0.857H652.145z M657.542,245.861c0.021-1.15-0.48-2.971-2.552-2.971
		c-1.883,0-2.678,1.695-2.824,2.971H657.542z"/>
	<path d="M661.602,244.941c0-1.192-0.021-2.217-0.084-3.159h1.611l0.083,2.008h0.063c0.46-1.36,1.59-2.218,2.824-2.218
		c0.188,0,0.334,0.021,0.502,0.042v1.736c-0.188-0.042-0.377-0.042-0.628-0.042c-1.297,0-2.218,0.962-2.469,2.343
		c-0.042,0.251-0.063,0.564-0.063,0.857v5.397h-1.841V244.941z"/>
</g>
<g>
	
		<path fill-rule="evenodd" clip-rule="evenodd" fill="none" stroke="#000000" stroke-linecap="round" stroke-linejoin="round" stroke-miterlimit="10" d="
		M542.703,243.503c-0.029-8.808-9.5-14.284-17.054-9.873c-7.563,4.42-7.551,15.419,0.026,19.819
		C533.274,257.836,542.717,252.313,542.703,243.503z"/>
</g>
<g>
	<path d="M554.76,277.054c0.816,0.523,1.988,0.921,3.243,0.921c1.861,0,2.949-0.983,2.949-2.406c0-1.297-0.753-2.07-2.656-2.782
		c-2.302-0.837-3.724-2.05-3.724-4.017c0-2.196,1.819-3.828,4.561-3.828c1.422,0,2.489,0.335,3.096,0.69l-0.502,1.485
		c-0.439-0.272-1.381-0.67-2.657-0.67c-1.924,0-2.656,1.151-2.656,2.113c0,1.318,0.857,1.967,2.803,2.72
		c2.385,0.92,3.577,2.071,3.577,4.142c0,2.176-1.59,4.08-4.916,4.08c-1.359,0-2.845-0.419-3.598-0.921L554.76,277.054z"/>
	<path d="M573.715,276.489c0,1.066,0.021,1.987,0.083,2.782h-1.632l-0.104-1.652h-0.042c-0.46,0.815-1.548,1.883-3.347,1.883
		c-1.59,0-3.493-0.9-3.493-4.436v-5.92h1.841v5.585c0,1.925,0.606,3.243,2.259,3.243c1.234,0,2.092-0.857,2.427-1.694
		c0.104-0.251,0.168-0.586,0.168-0.941v-6.192h1.841V276.489z"/>
	<path d="M576.77,272.451c0-1.297-0.042-2.343-0.084-3.305h1.632l0.104,1.736h0.042c0.732-1.234,1.945-1.945,3.599-1.945
		c2.468,0,4.309,2.07,4.309,5.125c0,3.64-2.238,5.439-4.623,5.439c-1.339,0-2.51-0.586-3.117-1.59h-0.041v5.502h-1.82V272.451z
		 M578.59,275.15c0,0.271,0.021,0.522,0.083,0.753c0.335,1.276,1.443,2.155,2.762,2.155c1.945,0,3.075-1.591,3.075-3.912
		c0-2.009-1.067-3.745-3.013-3.745c-1.255,0-2.447,0.879-2.782,2.26c-0.063,0.229-0.125,0.502-0.125,0.731V275.15z"/>
	<path d="M589.697,274.544c0.042,2.489,1.611,3.515,3.473,3.515c1.318,0,2.135-0.23,2.804-0.523l0.335,1.318
		c-0.648,0.292-1.778,0.648-3.39,0.648c-3.116,0-4.979-2.071-4.979-5.126c0-3.054,1.799-5.438,4.749-5.438
		c3.326,0,4.184,2.887,4.184,4.748c0,0.377-0.021,0.648-0.063,0.858H589.697z M595.095,273.226c0.021-1.15-0.48-2.971-2.552-2.971
		c-1.883,0-2.678,1.694-2.824,2.971H595.095z"/>
	<path d="M599.154,272.306c0-1.193-0.021-2.218-0.084-3.159h1.611l0.083,2.008h0.063c0.46-1.359,1.59-2.217,2.824-2.217
		c0.188,0,0.334,0.021,0.502,0.041v1.736c-0.188-0.041-0.377-0.041-0.628-0.041c-1.297,0-2.218,0.962-2.469,2.343
		c-0.042,0.251-0.063,0.564-0.063,0.857v5.397h-1.841V272.306z"/>
	<path d="M610.431,271.887c0-1.066-0.021-1.903-0.084-2.74h1.632l0.104,1.674h0.042c0.502-0.941,1.674-1.883,3.347-1.883
		c1.402,0,3.578,0.836,3.578,4.309v6.025h-1.842v-5.837c0-1.632-0.606-2.991-2.343-2.991c-1.192,0-2.134,0.857-2.469,1.883
		c-0.083,0.23-0.125,0.544-0.125,0.857v6.088h-1.841V271.887z"/>
	<path d="M631.205,274.125c0,3.745-2.615,5.377-5.042,5.377c-2.72,0-4.854-2.009-4.854-5.209c0-3.368,2.238-5.355,5.021-5.355
		C629.238,268.938,631.205,271.05,631.205,274.125z M623.192,274.229c0,2.218,1.255,3.892,3.055,3.892
		c1.757,0,3.075-1.653,3.075-3.934c0-1.715-0.858-3.87-3.034-3.87C624.134,270.317,623.192,272.326,623.192,274.229z"/>
	<path d="M642.251,264.418v12.238c0,0.899,0.042,1.925,0.083,2.615h-1.631l-0.084-1.757h-0.063c-0.544,1.129-1.758,1.987-3.41,1.987
		c-2.448,0-4.352-2.071-4.352-5.146c-0.021-3.368,2.092-5.418,4.54-5.418c1.568,0,2.594,0.731,3.054,1.526h0.042v-6.046H642.251z
		 M640.431,273.268c0-0.23-0.021-0.544-0.084-0.774c-0.271-1.15-1.275-2.112-2.656-2.112c-1.904,0-3.033,1.673-3.033,3.891
		c0,2.051,1.024,3.745,2.991,3.745c1.234,0,2.364-0.837,2.698-2.197c0.063-0.251,0.084-0.502,0.084-0.795V273.268z"/>
	<path d="M646.352,274.544c0.042,2.489,1.611,3.515,3.473,3.515c1.318,0,2.135-0.23,2.804-0.523l0.335,1.318
		c-0.648,0.292-1.778,0.648-3.39,0.648c-3.116,0-4.979-2.071-4.979-5.126c0-3.054,1.799-5.438,4.749-5.438
		c3.326,0,4.184,2.887,4.184,4.748c0,0.377-0.021,0.648-0.063,0.858H646.352z M651.749,273.226c0.021-1.15-0.48-2.971-2.552-2.971
		c-1.883,0-2.678,1.694-2.824,2.971H651.749z"/>
	<path d="M660.244,271.887c0-1.066-0.021-1.903-0.084-2.74h1.632l0.104,1.674h0.042c0.502-0.941,1.674-1.883,3.347-1.883
		c1.402,0,3.578,0.836,3.578,4.309v6.025h-1.842v-5.837c0-1.632-0.606-2.991-2.343-2.991c-1.192,0-2.134,0.857-2.469,1.883
		c-0.083,0.23-0.125,0.544-0.125,0.857v6.088h-1.841V271.887z"/>
	<path d="M680.327,276.489c0,1.066,0.021,1.987,0.083,2.782h-1.632l-0.104-1.652h-0.042c-0.46,0.815-1.548,1.883-3.347,1.883
		c-1.59,0-3.493-0.9-3.493-4.436v-5.92h1.841v5.585c0,1.925,0.606,3.243,2.259,3.243c1.234,0,2.092-0.857,2.427-1.694
		c0.104-0.251,0.168-0.586,0.168-0.941v-6.192h1.841V276.489z"/>
	<path d="M683.383,271.887c0-1.066-0.042-1.903-0.084-2.74h1.611l0.083,1.652h0.063c0.564-0.962,1.506-1.861,3.2-1.861
		c1.36,0,2.406,0.836,2.845,2.029h0.042c0.314-0.586,0.732-1.005,1.151-1.318c0.606-0.46,1.255-0.711,2.217-0.711
		c1.36,0,3.348,0.878,3.348,4.393v5.941h-1.8v-5.711c0-1.967-0.731-3.117-2.196-3.117c-1.066,0-1.861,0.774-2.196,1.652
		c-0.084,0.272-0.146,0.586-0.146,0.921v6.255h-1.799v-6.066c0-1.611-0.712-2.762-2.113-2.762c-1.13,0-1.987,0.921-2.28,1.841
		c-0.104,0.251-0.146,0.586-0.146,0.899v6.088h-1.799V271.887z"/>
	<path d="M700.831,264.418h1.819v6.36h0.042c0.648-1.13,1.82-1.841,3.452-1.841c2.531,0,4.288,2.092,4.288,5.146
		c0,3.619-2.301,5.419-4.561,5.419c-1.464,0-2.636-0.565-3.409-1.883h-0.042l-0.104,1.652h-1.569
		c0.042-0.69,0.084-1.716,0.084-2.615V264.418z M702.65,275.213c0,0.23,0.021,0.46,0.084,0.67c0.335,1.275,1.423,2.154,2.762,2.154
		c1.945,0,3.075-1.569,3.075-3.891c0-2.029-1.046-3.766-3.033-3.766c-1.234,0-2.406,0.878-2.782,2.259
		c-0.063,0.23-0.105,0.481-0.105,0.774V275.213z"/>
	<path d="M713.759,274.544c0.042,2.489,1.611,3.515,3.474,3.515c1.317,0,2.134-0.23,2.803-0.523l0.335,1.318
		c-0.648,0.292-1.778,0.648-3.39,0.648c-3.116,0-4.979-2.071-4.979-5.126c0-3.054,1.799-5.438,4.749-5.438
		c3.326,0,4.184,2.887,4.184,4.748c0,0.377-0.021,0.648-0.063,0.858H713.759z M719.156,273.226c0.021-1.15-0.48-2.971-2.552-2.971
		c-1.883,0-2.678,1.694-2.824,2.971H719.156z"/>
	<path d="M723.216,272.306c0-1.193-0.021-2.218-0.084-3.159h1.611l0.083,2.008h0.063c0.46-1.359,1.59-2.217,2.823-2.217
		c0.188,0,0.335,0.021,0.503,0.041v1.736c-0.188-0.041-0.377-0.041-0.628-0.041c-1.297,0-2.218,0.962-2.469,2.343
		c-0.042,0.251-0.063,0.564-0.063,0.857v5.397h-1.841V272.306z"/>
</g>
<g>
	
		<rect x="520.646" y="264.761" fill-rule="evenodd" clip-rule="evenodd" fill="none" stroke="#000000" stroke-linecap="round" stroke-linejoin="round" stroke-miterlimit="10" width="20.481" height="20.232"/>
	
		<path fill-rule="evenodd" clip-rule="evenodd" stroke="#000000" stroke-linecap="round" stroke-linejoin="round" stroke-miterlimit="10" d="
		M530.887,274.877"/>
</g>
<g>
	
		<rect x="293.688" y="322.89" fill-rule="evenodd" clip-rule="evenodd" fill="none" stroke="#000000" stroke-linecap="round" stroke-linejoin="round" stroke-miterlimit="10" width="18.905" height="18.74"/>
	
		<path fill-rule="evenodd" clip-rule="evenodd" stroke="#000000" stroke-linecap="round" stroke-linejoin="round" stroke-miterlimit="10" d="
		M303.143,332.258"/>
</g>
<g>
	<rect x="293.688" y="322.89" fill-rule="evenodd" clip-rule="evenodd" fill="none" width="18.905" height="18.74"/>
</g>
<g>
	<path d="M304.894,338.893v-2.847h-4.829v-0.911l4.637-6.637h1.52v6.461h1.455v1.087h-1.455v2.847H304.894z M304.894,334.959v-3.471
		c0-0.543,0.016-1.087,0.048-1.631h-0.048c-0.32,0.607-0.576,1.056-0.863,1.535l-2.543,3.534v0.032H304.894z"/>
</g>
<line fill-rule="evenodd" clip-rule="evenodd" fill="none" stroke="#000000" stroke-linecap="round" stroke-linejoin="round" stroke-miterlimit="10" x1="526.201" y1="70.474" x2="573.799" y2="70.474"/>
<g>
	
		<line fill-rule="evenodd" clip-rule="evenodd" fill="none" stroke="#000000" stroke-linecap="round" stroke-linejoin="round" stroke-miterlimit="10" x1="548.673" y1="63.343" x2="548.673" y2="10.937"/>
</g>
<g>
	
		<line fill-rule="evenodd" clip-rule="evenodd" fill="none" stroke="#000000" stroke-linecap="round" stroke-linejoin="round" stroke-miterlimit="10" x1="552.819" y1="64.006" x2="574.131" y2="5.38"/>
</g>
<g>
	
		<line fill-rule="evenodd" clip-rule="evenodd" fill="none" stroke="#000000" stroke-linecap="round" stroke-linejoin="round" stroke-miterlimit="10" x1="549.337" y1="17.984" x2="570.315" y2="17.984"/>
</g>
<g>
	
		<polyline fill-rule="evenodd" clip-rule="evenodd" stroke="#000000" stroke-linecap="round" stroke-linejoin="round" stroke-miterlimit="10" points="
		559.205,12.429 570.315,17.984 559.205,23.457 559.205,12.429 	"/>
</g>
<g>
	<path d="M582.664,32.502l-1.724,5.218h-2.215l5.661-16.589h2.56l5.661,16.589h-2.289l-1.772-5.218H582.664z M588.128,30.828
		l-1.649-4.775c-0.369-1.083-0.615-2.067-0.861-3.027h-0.049c-0.246,0.96-0.493,1.994-0.837,3.003l-1.625,4.799H588.128z"/>
	<path d="M595.02,21.131h2.166v14.792h7.089v1.797h-9.255V21.131z"/>
	<path d="M606.637,21.131h8.935v1.797h-6.769v5.513h6.252v1.772h-6.252v7.507h-2.166V21.131z"/>
	<path d="M620.789,21.131v9.845c0,3.692,1.649,5.267,3.864,5.267c2.437,0,4.036-1.625,4.036-5.267v-9.845h2.166v9.697
		c0,5.095-2.683,7.162-6.276,7.162c-3.396,0-5.956-1.919-5.956-7.088v-9.771H620.789z"/>
</g>
<g>
	
		<line fill-rule="evenodd" clip-rule="evenodd" fill="none" stroke="#000000" stroke-linecap="round" stroke-linejoin="round" stroke-miterlimit="10" x1="536.897" y1="68.567" x2="545.938" y2="59.445"/>
</g>
<g>
	
		<line fill-rule="evenodd" clip-rule="evenodd" fill="none" stroke="#000000" stroke-linecap="round" stroke-linejoin="round" stroke-miterlimit="10" x1="546.435" y1="69.064" x2="555.557" y2="60.026"/>
</g>
<g>
	
		<line fill-rule="evenodd" clip-rule="evenodd" fill="none" stroke="#000000" stroke-linecap="round" stroke-linejoin="round" stroke-miterlimit="10" x1="556.054" y1="68.899" x2="565.093" y2="59.777"/>
</g>
<g>
	
		<line fill-rule="evenodd" clip-rule="evenodd" fill="none" stroke="#000000" stroke-linecap="round" stroke-linejoin="round" stroke-miterlimit="10" x1="565.34" y1="69.811" x2="574.379" y2="60.689"/>
</g>
<g>
	
		<line fill-rule="evenodd" clip-rule="evenodd" fill="none" stroke="#000000" stroke-linecap="round" stroke-linejoin="round" stroke-miterlimit="10" x1="304.054" y1="147.094" x2="304.054" y2="315.509"/>
</g>
<g>
	
		<path fill-rule="evenodd" clip-rule="evenodd" stroke="#000000" stroke-linecap="round" stroke-linejoin="round" stroke-miterlimit="10" d="
		M307.37,211.52c-0.005-2.681-2.976-4.351-5.353-3.009c-2.374,1.345-2.368,4.698,0.012,6.034
		C304.411,215.878,307.375,214.197,307.37,211.52"/>
</g>
</svg>
