<?xml version="1.0" encoding="utf-8"?>
<!-- Generator: Adobe Illustrator 15.0.0, SVG Export Plug-In . SVG Version: 6.00 Build 0)  -->
<!DOCTYPE svg PUBLIC "-//W3C//DTD SVG 1.1//EN" "http://www.w3.org/Graphics/SVG/1.1/DTD/svg11.dtd">
<svg version="1.1" xmlns="http://www.w3.org/2000/svg" xmlns:xlink="http://www.w3.org/1999/xlink" x="0px" y="0px" width="739px"
	 height="176px" viewBox="0 0 739 176" enable-background="new 0 0 739 176" xml:space="preserve">
<g>
	
		<polyline fill-rule="evenodd" clip-rule="evenodd" fill="none" stroke="#000000" stroke-linecap="round" stroke-linejoin="round" stroke-miterlimit="10" points="
		327.898,127.01 7.611,127.01 7.611,12.713 	"/>
</g>
<g>
	<polyline stroke="#000000" stroke-linecap="round" stroke-linejoin="round" stroke-miterlimit="10" points="317.27,132.246 
		327.898,127.01 317.27,121.696 317.27,132.246 	"/>
</g>
<g>
	<polyline stroke="#000000" stroke-linecap="round" stroke-linejoin="round" stroke-miterlimit="10" points="2.375,23.262 
		7.611,12.713 12.926,23.262 2.375,23.262 	"/>
</g>
<g>
	<polyline fill="none" stroke="#000000" stroke-linecap="round" stroke-linejoin="round" stroke-miterlimit="10" points="
		722.983,128.915 402.775,128.915 402.775,14.616 	"/>
</g>
<g>
	<polyline stroke="#000000" stroke-linecap="round" stroke-linejoin="round" stroke-miterlimit="10" points="712.435,134.229 
		722.983,128.915 712.435,123.679 712.435,134.229 	"/>
</g>
<g>
	<polyline stroke="#000000" stroke-linecap="round" stroke-linejoin="round" stroke-miterlimit="10" points="397.46,25.246 
		402.775,14.616 408.09,25.246 397.46,25.246 	"/>
</g>
<path fill="none" stroke="#000000" stroke-linecap="round" stroke-linejoin="round" stroke-miterlimit="10" d="M7.611,127.01
	c5.553,3.093,21.337-0.873,35.693-5.314c14.437-4.601,37.518-25.937,61.155-17.053c23.875,8.884,72.417,65.278,99.623,67.896
	c26.89,2.618,52.588-36.962,61.71-46.561"/>
<path fill="none" stroke="#000000" stroke-linecap="round" stroke-linejoin="round" stroke-miterlimit="10" d="M399.603,128.439
	c39.5-1.032,75.353-5.632,90.661-22.369c15.308-16.735,28.316-54.888,65.12-67.975c37.279-12.929,125.006-4.125,155.781-7.773
	c30.141-3.65,30.141-3.65,0,0"/>
<g>
	
		<line fill="none" stroke="#000000" stroke-linecap="round" stroke-linejoin="round" stroke-miterlimit="10" x1="612.969" y1="23.579" x2="612.969" y2="36.35"/>
</g>
<path fill="none" stroke="#000000" stroke-linecap="round" stroke-linejoin="round" stroke-miterlimit="10" stroke-dasharray="16,8" d="
	M7.849,123.838c31.648-39.817,59.568-50.128,77.89-44.815c18.482,5.315,85.03,89.947,114.139,92.804
	c28.793,2.854,50.686-24.748,65.915-45.847"/>
<g>
	<path d="M295.183,143.449v1.775h1.928v1.025h-1.928v3.994c0,0.918,0.26,1.439,1.01,1.439c0.367,0,0.582-0.031,0.781-0.092
		l0.061,1.025c-0.26,0.092-0.673,0.184-1.194,0.184c-0.627,0-1.132-0.214-1.454-0.566c-0.368-0.413-0.521-1.071-0.521-1.944v-4.04
		h-1.148v-1.025h1.148v-1.377L295.183,143.449z"/>
	<path d="M300.127,143.143c0,0.459-0.321,0.826-0.857,0.826c-0.49,0-0.812-0.367-0.812-0.826s0.337-0.842,0.842-0.842
		C299.79,142.301,300.127,142.668,300.127,143.143z M298.627,152.631v-7.407h1.347v7.407H298.627z"/>
	<path d="M302.209,147.229c0-0.781-0.031-1.393-0.061-2.005h1.178l0.062,1.209h0.046c0.413-0.704,1.102-1.362,2.341-1.362
		c0.995,0,1.76,0.612,2.082,1.485h0.031c0.229-0.429,0.536-0.735,0.842-0.964c0.444-0.337,0.918-0.521,1.622-0.521
		c0.995,0,2.449,0.643,2.449,3.214v4.347h-1.316v-4.178c0-1.438-0.536-2.28-1.607-2.28c-0.78,0-1.362,0.566-1.607,1.209
		c-0.061,0.199-0.107,0.429-0.107,0.673v4.576h-1.316v-4.438c0-1.178-0.52-2.02-1.545-2.02c-0.827,0-1.454,0.673-1.668,1.347
		c-0.077,0.184-0.107,0.429-0.107,0.658v4.454h-1.316V147.229z"/>
	<path d="M315.725,149.172c0.031,1.821,1.178,2.571,2.541,2.571c0.964,0,1.561-0.168,2.051-0.383l0.245,0.964
		c-0.475,0.214-1.301,0.475-2.479,0.475c-2.28,0-3.643-1.515-3.643-3.75c0-2.235,1.316-3.979,3.474-3.979
		c2.434,0,3.061,2.112,3.061,3.474c0,0.275-0.016,0.475-0.046,0.627H315.725z M319.674,148.208c0.015-0.842-0.352-2.173-1.867-2.173
		c-1.377,0-1.959,1.24-2.066,2.173H319.674z"/>
</g>
<g>
	<path d="M370.059,29.48h-0.031l-1.729,0.934l-0.26-1.025l2.173-1.163h1.147v9.948h-1.301V29.48z"/>
	<path d="M375.095,37.377c0-0.551,0.382-0.964,0.918-0.964c0.536,0,0.903,0.398,0.903,0.964c0,0.551-0.367,0.964-0.934,0.964
		C375.462,38.342,375.095,37.929,375.095,37.377z"/>
	<path d="M384.783,33.092c0,3.382-1.27,5.25-3.458,5.25c-1.944,0-3.275-1.821-3.306-5.112c0-3.352,1.454-5.173,3.474-5.173
		C383.574,28.057,384.783,29.924,384.783,33.092z M379.38,33.245c0,2.586,0.796,4.056,2.02,4.056c1.362,0,2.021-1.607,2.021-4.147
		c0-2.449-0.612-4.056-2.021-4.056C380.237,29.098,379.38,30.536,379.38,33.245z"/>
</g>
<g>
	<path d="M583.992,152.631v-10.315h1.469l3.291,5.219c0.75,1.209,1.362,2.295,1.836,3.352l0.046-0.016
		c-0.122-1.377-0.153-2.632-0.153-4.239v-4.316h1.255v10.315h-1.347l-3.275-5.234c-0.719-1.147-1.408-2.326-1.913-3.443
		l-0.046,0.015c0.077,1.301,0.092,2.541,0.092,4.255v4.408H583.992z"/>
	<path d="M596.022,143.449h-3.137v-1.133h7.637v1.133h-3.153v9.183h-1.347V143.449z"/>
	<path d="M601.671,142.454c0.673-0.122,1.653-0.214,2.556-0.214c1.423,0,2.356,0.275,2.984,0.841
		c0.505,0.459,0.811,1.164,0.811,1.975c0,1.347-0.857,2.25-1.929,2.617v0.046c0.781,0.275,1.255,1.01,1.5,2.081
		c0.337,1.439,0.582,2.434,0.796,2.832h-1.377c-0.168-0.306-0.398-1.178-0.673-2.464c-0.306-1.423-0.873-1.959-2.082-2.005h-1.255
		v4.469h-1.332V142.454z M603.003,147.152h1.362c1.423,0,2.326-0.781,2.326-1.959c0-1.332-0.964-1.913-2.372-1.913
		c-0.643,0-1.087,0.046-1.316,0.107V147.152z"/>
	<path d="M611.651,149.387l-1.071,3.245h-1.377l3.52-10.315h1.591l3.52,10.315h-1.423l-1.102-3.245H611.651z M615.049,148.346
		l-1.025-2.969c-0.229-0.673-0.383-1.286-0.536-1.882h-0.031c-0.153,0.597-0.306,1.24-0.521,1.867l-1.01,2.984H615.049z"/>
	<path d="M627.982,148.101c-0.076-1.438-0.168-3.183-0.168-4.454h-0.031c-0.367,1.194-0.781,2.495-1.301,3.918l-1.821,5.005h-1.01
		l-1.684-4.913c-0.49-1.469-0.888-2.785-1.178-4.01h-0.031c-0.031,1.286-0.107,3-0.199,4.561l-0.276,4.423h-1.27l0.719-10.315h1.699
		l1.76,4.989c0.428,1.271,0.765,2.403,1.041,3.474h0.031c0.275-1.041,0.643-2.173,1.102-3.474l1.836-4.989h1.699l0.643,10.315
		h-1.316L627.982,148.101z"/>
	<path d="M631.596,142.438c0.643-0.107,1.484-0.199,2.556-0.199c1.316,0,2.28,0.306,2.893,0.857c0.551,0.49,0.903,1.24,0.903,2.158
		c0,0.934-0.275,1.668-0.796,2.204c-0.719,0.75-1.852,1.132-3.153,1.132c-0.398,0-0.765-0.015-1.071-0.092v4.132h-1.332V142.438z
		 M632.928,147.413c0.291,0.077,0.658,0.107,1.102,0.107c1.607,0,2.586-0.796,2.586-2.188c0-1.377-0.979-2.036-2.434-2.036
		c-0.582,0-1.025,0.046-1.255,0.107V147.413z"/>
</g>
<g>
	<path d="M408.313,110.591v-6.382h-1.025v-1.025h1.025v-0.352c0-1.041,0.245-1.99,0.857-2.586c0.505-0.49,1.179-0.689,1.806-0.689
		c0.49,0,0.888,0.107,1.148,0.214l-0.184,1.041c-0.199-0.092-0.459-0.168-0.857-0.168c-1.147,0-1.438,0.995-1.438,2.143v0.398h1.791
		v1.025h-1.791v6.382H408.313z"/>
</g>
<g>
	<path d="M414.22,100.893h-0.018l-0.999,0.539l-0.15-0.592l1.254-0.671h0.663v5.743h-0.751V100.893z"/>
</g>
<g>
	<path d="M420.989,105.434v-0.918h7.897v0.918H420.989z M420.989,108.434v-0.918h7.897v0.918H420.989z"/>
	<path d="M433.999,110.591v-6.382h-1.025v-1.025h1.025v-0.352c0-1.041,0.245-1.99,0.857-2.586c0.505-0.49,1.179-0.689,1.806-0.689
		c0.49,0,0.888,0.107,1.148,0.214l-0.184,1.041c-0.199-0.092-0.459-0.168-0.857-0.168c-1.147,0-1.438,0.995-1.438,2.143v0.398h1.791
		v1.025h-1.791v6.382H433.999z"/>
</g>
<g>
	<path d="M440.304,102.792c0-0.451-0.009-0.804-0.036-1.157h0.689l0.044,0.707h0.018c0.212-0.397,0.707-0.795,1.414-0.795
		c0.592,0,1.511,0.353,1.511,1.82v2.544h-0.777v-2.465c0-0.689-0.256-1.264-0.989-1.264c-0.504,0-0.901,0.362-1.042,0.795
		c-0.036,0.097-0.053,0.229-0.053,0.362v2.571h-0.777V102.792z"/>
</g>
<g>
	<path d="M448.909,105.434v-0.918h7.897v0.918H448.909z M448.909,108.434v-0.918h7.897v0.918H448.909z"/>
	<path d="M467.979,105.51c0,3.382-1.27,5.25-3.458,5.25c-1.944,0-3.275-1.821-3.306-5.112c0-3.352,1.454-5.173,3.474-5.173
		C466.771,100.475,467.979,102.342,467.979,105.51z M462.577,105.663c0,2.586,0.796,4.056,2.02,4.056
		c1.362,0,2.021-1.607,2.021-4.147c0-2.449-0.612-4.056-2.021-4.056C463.434,101.516,462.577,102.954,462.577,105.663z"/>
</g>
<g>
	<path d="M667.467,143.342c0-0.781-0.015-1.393-0.061-2.005h1.194l0.076,1.224h0.031c0.367-0.688,1.224-1.377,2.449-1.377
		c1.025,0,2.617,0.612,2.617,3.153v4.408h-1.347v-4.27c0-1.194-0.444-2.188-1.714-2.188c-0.873,0-1.561,0.627-1.806,1.377
		c-0.061,0.168-0.092,0.398-0.092,0.627v4.454h-1.347V143.342z"/>
	<path d="M682.16,146.708c0,0.781,0.016,1.454,0.062,2.036h-1.194l-0.077-1.209h-0.031c-0.336,0.597-1.132,1.377-2.449,1.377
		c-1.163,0-2.556-0.658-2.556-3.245v-4.331h1.347v4.086c0,1.408,0.444,2.373,1.653,2.373c0.903,0,1.531-0.627,1.775-1.24
		c0.077-0.184,0.123-0.429,0.123-0.689v-4.53h1.347V146.708z"/>
	<path d="M684.396,143.342c0-0.781-0.031-1.393-0.061-2.005h1.178l0.062,1.209h0.046c0.413-0.704,1.102-1.362,2.341-1.362
		c0.995,0,1.76,0.612,2.082,1.485h0.031c0.229-0.429,0.536-0.735,0.842-0.964c0.444-0.337,0.918-0.521,1.622-0.521
		c0.995,0,2.449,0.643,2.449,3.214v4.347h-1.316v-4.178c0-1.438-0.536-2.28-1.607-2.28c-0.78,0-1.362,0.566-1.607,1.209
		c-0.061,0.199-0.107,0.429-0.107,0.673v4.576h-1.316v-4.438c0-1.178-0.52-2.02-1.545-2.02c-0.827,0-1.454,0.673-1.668,1.347
		c-0.077,0.184-0.107,0.429-0.107,0.658v4.454h-1.316V143.342z"/>
	<path d="M697.163,137.878h1.332v4.652h0.031c0.474-0.826,1.332-1.347,2.525-1.347c1.852,0,3.138,1.531,3.138,3.765
		c0,2.647-1.684,3.964-3.336,3.964c-1.071,0-1.928-0.414-2.495-1.377h-0.031l-0.077,1.209h-1.147
		c0.03-0.505,0.061-1.255,0.061-1.913V137.878z M698.494,145.775c0,0.168,0.015,0.337,0.061,0.49
		c0.245,0.934,1.041,1.577,2.021,1.577c1.423,0,2.25-1.148,2.25-2.847c0-1.485-0.765-2.755-2.219-2.755
		c-0.903,0-1.76,0.643-2.035,1.653c-0.046,0.168-0.077,0.352-0.077,0.566V145.775z"/>
	<path d="M706.622,145.285c0.031,1.821,1.178,2.571,2.541,2.571c0.964,0,1.561-0.168,2.051-0.383l0.245,0.964
		c-0.475,0.214-1.301,0.475-2.479,0.475c-2.28,0-3.643-1.515-3.643-3.75c0-2.235,1.316-3.979,3.474-3.979
		c2.434,0,3.061,2.112,3.061,3.474c0,0.275-0.015,0.475-0.046,0.627H706.622z M710.571,144.321c0.015-0.842-0.352-2.173-1.867-2.173
		c-1.377,0-1.959,1.24-2.066,2.173H710.571z"/>
	<path d="M713.541,143.648c0-0.873-0.015-1.623-0.061-2.311h1.178l0.062,1.469h0.046c0.336-0.995,1.163-1.623,2.066-1.623
		c0.138,0,0.245,0.016,0.367,0.031v1.27c-0.138-0.03-0.275-0.03-0.459-0.03c-0.949,0-1.622,0.704-1.806,1.714
		c-0.03,0.184-0.046,0.413-0.046,0.627v3.949h-1.347V143.648z"/>
	<path d="M728.495,144.979c0,2.74-1.913,3.934-3.688,3.934c-1.99,0-3.551-1.469-3.551-3.811c0-2.464,1.638-3.918,3.673-3.918
		C727.056,141.184,728.495,142.729,728.495,144.979z M722.633,145.056c0,1.623,0.918,2.847,2.234,2.847
		c1.286,0,2.25-1.209,2.25-2.877c0-1.255-0.627-2.831-2.219-2.831C723.321,142.194,722.633,143.663,722.633,145.056z"/>
	<path d="M730.333,148.744v-6.382h-1.025v-1.025h1.025v-0.352c0-1.041,0.245-1.99,0.857-2.586c0.505-0.49,1.179-0.689,1.806-0.689
		c0.49,0,0.888,0.107,1.148,0.214l-0.184,1.041c-0.199-0.092-0.459-0.168-0.857-0.168c-1.147,0-1.438,0.995-1.438,2.143v0.398h1.791
		v1.025h-1.791v6.382H730.333z"/>
</g>
<g>
	<path d="M669.089,157.169v1.775h1.928v1.025h-1.928v3.994c0,0.918,0.26,1.439,1.01,1.439c0.367,0,0.582-0.031,0.781-0.092
		l0.061,1.025c-0.26,0.092-0.673,0.184-1.194,0.184c-0.627,0-1.132-0.214-1.454-0.566c-0.368-0.413-0.521-1.071-0.521-1.944v-4.04
		h-1.148v-1.025h1.148v-1.377L669.089,157.169z"/>
	<path d="M674.033,156.863c0,0.459-0.321,0.826-0.857,0.826c-0.49,0-0.812-0.367-0.812-0.826s0.337-0.842,0.842-0.842
		C673.696,156.021,674.033,156.389,674.033,156.863z M672.533,166.352v-7.407h1.347v7.407H672.533z"/>
	<path d="M676.115,160.95c0-0.781-0.031-1.393-0.061-2.005h1.178l0.062,1.209h0.046c0.413-0.704,1.102-1.362,2.341-1.362
		c0.995,0,1.76,0.612,2.082,1.485h0.031c0.229-0.429,0.536-0.735,0.842-0.964c0.444-0.337,0.918-0.521,1.622-0.521
		c0.995,0,2.449,0.643,2.449,3.214v4.347h-1.316v-4.178c0-1.438-0.536-2.28-1.607-2.28c-0.78,0-1.362,0.566-1.607,1.209
		c-0.061,0.199-0.107,0.429-0.107,0.673v4.576h-1.316v-4.438c0-1.178-0.52-2.02-1.545-2.02c-0.827,0-1.454,0.673-1.668,1.347
		c-0.077,0.184-0.107,0.429-0.107,0.658v4.454h-1.316V160.95z"/>
	<path d="M689.631,162.893c0.031,1.821,1.178,2.571,2.541,2.571c0.964,0,1.561-0.168,2.051-0.383l0.245,0.964
		c-0.475,0.214-1.301,0.475-2.479,0.475c-2.28,0-3.643-1.515-3.643-3.75c0-2.235,1.316-3.979,3.474-3.979
		c2.434,0,3.061,2.112,3.061,3.474c0,0.275-0.016,0.475-0.046,0.627H689.631z M693.58,161.929c0.015-0.842-0.352-2.173-1.867-2.173
		c-1.377,0-1.959,1.24-2.066,2.173H693.58z"/>
	<path d="M699.611,164.99c0.413,0.245,1.117,0.521,1.791,0.521c0.964,0,1.423-0.475,1.423-1.102c0-0.643-0.382-0.979-1.362-1.347
		c-1.347-0.49-1.975-1.209-1.975-2.097c0-1.194,0.979-2.173,2.556-2.173c0.75,0,1.408,0.199,1.806,0.459l-0.321,0.979
		c-0.291-0.184-0.827-0.444-1.515-0.444c-0.796,0-1.225,0.459-1.225,1.01c0,0.612,0.429,0.888,1.393,1.271
		c1.27,0.474,1.943,1.117,1.943,2.219c0,1.316-1.025,2.234-2.755,2.234c-0.811,0-1.561-0.214-2.081-0.521L699.611,164.99z"/>
	<path d="M707.479,157.169v1.775h1.928v1.025h-1.928v3.994c0,0.918,0.26,1.439,1.01,1.439c0.367,0,0.582-0.031,0.781-0.092
		l0.061,1.025c-0.26,0.092-0.673,0.184-1.194,0.184c-0.627,0-1.132-0.214-1.454-0.566c-0.368-0.413-0.521-1.071-0.521-1.944v-4.04
		h-1.148v-1.025h1.148v-1.377L707.479,157.169z"/>
	<path d="M711.582,162.893c0.031,1.821,1.178,2.571,2.541,2.571c0.964,0,1.561-0.168,2.051-0.383l0.245,0.964
		c-0.475,0.214-1.301,0.475-2.479,0.475c-2.28,0-3.643-1.515-3.643-3.75c0-2.235,1.316-3.979,3.474-3.979
		c2.434,0,3.061,2.112,3.061,3.474c0,0.275-0.016,0.475-0.046,0.627H711.582z M715.53,161.929c0.015-0.842-0.352-2.173-1.867-2.173
		c-1.377,0-1.959,1.24-2.066,2.173H715.53z"/>
	<path d="M718.5,161.363c0-0.949-0.031-1.714-0.061-2.418h1.194l0.076,1.27h0.031c0.536-0.903,1.423-1.423,2.632-1.423
		c1.806,0,3.153,1.515,3.153,3.75c0,2.663-1.638,3.979-3.382,3.979c-0.979,0-1.836-0.429-2.28-1.163h-0.031v4.025H718.5V161.363z
		 M719.832,163.337c0,0.199,0.015,0.383,0.061,0.551c0.245,0.934,1.056,1.576,2.021,1.576c1.423,0,2.25-1.163,2.25-2.862
		c0-1.469-0.78-2.74-2.204-2.74c-0.918,0-1.791,0.643-2.036,1.653c-0.046,0.168-0.092,0.368-0.092,0.536V163.337z"/>
	<path d="M727.026,164.99c0.413,0.245,1.117,0.521,1.791,0.521c0.964,0,1.423-0.475,1.423-1.102c0-0.643-0.382-0.979-1.362-1.347
		c-1.347-0.49-1.975-1.209-1.975-2.097c0-1.194,0.979-2.173,2.556-2.173c0.75,0,1.408,0.199,1.806,0.459l-0.321,0.979
		c-0.291-0.184-0.827-0.444-1.515-0.444c-0.796,0-1.225,0.459-1.225,1.01c0,0.612,0.429,0.888,1.393,1.271
		c1.27,0.474,1.943,1.117,1.943,2.219c0,1.316-1.025,2.234-2.754,2.234c-0.812,0-1.562-0.214-2.082-0.521L727.026,164.99z"/>
</g>
<g>
	
		<line fill-rule="evenodd" clip-rule="evenodd" fill="none" stroke="#000000" stroke-linecap="round" stroke-linejoin="round" stroke-miterlimit="10" stroke-dasharray="16,8" x1="612.969" y1="130.341" x2="612.969" y2="135.577"/>
</g>
<g>
	<path d="M581.386,15.171V8.79h-1.025V7.764h1.025V7.412c0-1.041,0.245-1.99,0.857-2.586c0.505-0.49,1.179-0.689,1.806-0.689
		c0.49,0,0.888,0.107,1.148,0.214l-0.184,1.041c-0.199-0.092-0.459-0.168-0.857-0.168c-1.147,0-1.438,0.995-1.438,2.143v0.398h1.791
		V8.79h-1.791v6.382H581.386z"/>
</g>
<g>
	<path d="M587.372,5.554h-0.018l-0.999,0.539l-0.15-0.592l1.254-0.671h0.663v5.743h-0.751V5.554z"/>
</g>
<g>
	<path d="M594.063,10.014V9.096h7.897v0.918H594.063z M594.063,13.014v-0.918h7.897v0.918H594.063z"/>
	<path d="M607.073,15.171V8.79h-1.025V7.764h1.025V7.412c0-1.041,0.245-1.99,0.857-2.586c0.505-0.49,1.179-0.689,1.806-0.689
		c0.49,0,0.888,0.107,1.148,0.214L610.7,5.392c-0.199-0.092-0.459-0.168-0.857-0.168c-1.147,0-1.438,0.995-1.438,2.143v0.398h1.791
		V8.79h-1.791v6.382H607.073z"/>
</g>
<g>
	<path d="M613.376,7.454c0-0.451-0.009-0.804-0.036-1.157h0.689l0.044,0.707h0.018c0.212-0.397,0.707-0.795,1.414-0.795
		c0.592,0,1.511,0.353,1.511,1.82v2.544h-0.777V8.107c0-0.689-0.256-1.264-0.989-1.264c-0.504,0-0.901,0.362-1.042,0.795
		c-0.036,0.097-0.053,0.229-0.053,0.362v2.571h-0.777V7.454z"/>
</g>
<g>
	<path d="M621.982,10.014V9.096h7.897v0.918H621.982z M621.982,13.014v-0.918h7.897v0.918H621.982z"/>
	<path d="M641.053,10.09c0,3.382-1.27,5.25-3.458,5.25c-1.944,0-3.275-1.821-3.306-5.112c0-3.352,1.454-5.173,3.474-5.173
		C639.844,5.055,641.053,6.922,641.053,10.09z M635.65,10.243c0,2.586,0.796,4.056,2.02,4.056c1.362,0,2.021-1.607,2.021-4.147
		c0-2.449-0.612-4.056-2.021-4.056C636.507,6.096,635.65,7.534,635.65,10.243z"/>
</g>
<g>
	<path d="M416.086,21.914v-6.382h-1.025v-1.025h1.025v-0.352c0-1.041,0.245-1.99,0.857-2.586c0.505-0.49,1.179-0.689,1.806-0.689
		c0.49,0,0.888,0.107,1.148,0.214l-0.184,1.041c-0.199-0.092-0.459-0.168-0.857-0.168c-1.147,0-1.438,0.995-1.438,2.143v0.398h1.791
		v1.025h-1.791v6.382H416.086z"/>
</g>
<g>
	<path d="M18.564,26.911h1.347v10.866h-1.347V26.911z"/>
	<path d="M28.88,34.012c0,2.74-1.913,3.934-3.688,3.934c-1.99,0-3.551-1.469-3.551-3.811c0-2.464,1.638-3.918,3.673-3.918
		C27.441,30.217,28.88,31.763,28.88,34.012z M23.018,34.089c0,1.623,0.918,2.847,2.234,2.847c1.286,0,2.25-1.209,2.25-2.877
		c0-1.255-0.627-2.831-2.219-2.831C23.707,31.227,23.018,32.696,23.018,34.089z"/>
	<path d="M35.784,36.002c0,0.643,0.031,1.271,0.107,1.775h-1.209l-0.107-0.934h-0.046c-0.413,0.582-1.209,1.102-2.265,1.102
		c-1.5,0-2.265-1.056-2.265-2.127c0-1.791,1.592-2.77,4.454-2.755v-0.153c0-0.597-0.168-1.714-1.684-1.699
		c-0.704,0-1.423,0.199-1.944,0.551l-0.306-0.903c0.612-0.383,1.515-0.643,2.449-0.643c2.265,0,2.816,1.546,2.816,3.015V36.002z
		 M34.483,33.997c-1.469-0.031-3.137,0.229-3.137,1.668c0,0.887,0.582,1.285,1.255,1.285c0.979,0,1.607-0.612,1.821-1.239
		c0.046-0.153,0.061-0.306,0.061-0.429V33.997z"/>
	<path d="M44.34,26.911v8.953c0,0.658,0.031,1.408,0.061,1.913h-1.194l-0.061-1.286H43.1c-0.398,0.827-1.286,1.454-2.495,1.454
		c-1.791,0-3.183-1.515-3.183-3.765c-0.015-2.464,1.531-3.964,3.321-3.964c1.148,0,1.898,0.536,2.235,1.117h0.031v-4.423H44.34z
		 M43.009,33.385c0-0.168-0.015-0.398-0.061-0.566c-0.199-0.842-0.934-1.546-1.944-1.546c-1.393,0-2.219,1.224-2.219,2.847
		c0,1.5,0.75,2.739,2.189,2.739c0.903,0,1.729-0.612,1.974-1.607c0.046-0.184,0.061-0.367,0.061-0.582V33.385z"/>
</g>
<g>
	
		<line fill-rule="evenodd" clip-rule="evenodd" fill="none" stroke="#000000" stroke-linecap="round" stroke-linejoin="round" stroke-miterlimit="10" stroke-dasharray="16,8" x1="401.03" y1="30.956" x2="395.716" y2="30.956"/>
</g>
</svg>
