<?xml version="1.0" encoding="utf-8"?>
<!-- Generator: Adobe Illustrator 15.0.0, SVG Export Plug-In . SVG Version: 6.00 Build 0)  -->
<!DOCTYPE svg PUBLIC "-//W3C//DTD SVG 1.1//EN" "http://www.w3.org/Graphics/SVG/1.1/DTD/svg11.dtd">
<svg version="1.1" xmlns="http://www.w3.org/2000/svg" xmlns:xlink="http://www.w3.org/1999/xlink" x="0px" y="0px" width="733px"
	 height="196.356px" viewBox="0 0 733 196.356" enable-background="new 0 0 733 196.356" xml:space="preserve">
<g>
	
		<polygon fill-rule="evenodd" clip-rule="evenodd" fill="none" stroke="#48484A" stroke-linejoin="round" stroke-miterlimit="10" points="
		125.997,58.336 125.997,132.151 346.444,132.151 346.444,156.091 357.985,156.091 361.406,155.877 361.548,31.404 346.016,31.404 
		346.016,58.336 	"/>
</g>
<g>
	
		<polygon fill-rule="evenodd" clip-rule="evenodd" fill="none" stroke="#48484A" stroke-linejoin="round" stroke-miterlimit="10" points="
		610.637,58.336 610.637,132.151 390.19,132.151 390.19,156.091 378.649,156.091 375.229,155.877 375.086,31.404 390.618,31.404 
		390.618,58.336 	"/>
</g>
<g>
	
		<polyline fill-rule="evenodd" clip-rule="evenodd" fill="#FFFFFF" stroke="#48484A" stroke-linejoin="round" stroke-miterlimit="10" points="
		137.683,71.161 596.744,71.161 596.744,120.395 137.683,120.395 137.683,71.161 	"/>
	
		<path fill-rule="evenodd" clip-rule="evenodd" fill="#FFFFFF" stroke="#48484A" stroke-linejoin="round" stroke-miterlimit="10" d="
		M367.212,95.778"/>
</g>
<g>
	
		<line fill-rule="evenodd" clip-rule="evenodd" fill="none" stroke="#48484A" stroke-linecap="round" stroke-linejoin="round" stroke-miterlimit="10" x1="232.729" y1="10.741" x2="232.729" y2="48.79"/>
</g>
<g>
	<polyline fill="#48484A" stroke="#48484A" stroke-linecap="round" stroke-linejoin="round" stroke-miterlimit="10" points="
		237.432,39.241 232.729,48.79 227.955,39.241 237.432,39.241 	"/>
</g>
<g>
	
		<line fill="none" stroke="#48484A" stroke-linecap="round" stroke-linejoin="round" stroke-miterlimit="10" x1="196.178" y1="9.958" x2="196.178" y2="48.005"/>
</g>
<g>
	<polyline fill="#48484A" stroke="#48484A" stroke-linecap="round" stroke-linejoin="round" stroke-miterlimit="10" points="
		200.952,38.528 196.178,48.005 191.475,38.528 200.952,38.528 	"/>
</g>
<g>
	
		<line fill="none" stroke="#48484A" stroke-linecap="round" stroke-linejoin="round" stroke-miterlimit="10" x1="234.225" y1="179.248" x2="234.225" y2="145.047"/>
</g>
<g>
	<polyline fill="#48484A" stroke="#48484A" stroke-linecap="round" stroke-linejoin="round" stroke-miterlimit="10" points="
		229.523,154.595 234.225,145.047 238.999,154.595 229.523,154.595 	"/>
</g>
<g>
	
		<line fill="none" stroke="#48484A" stroke-linecap="round" stroke-linejoin="round" stroke-miterlimit="10" x1="196.961" y1="181.599" x2="196.961" y2="145.047"/>
</g>
<g>
	<polyline fill="#48484A" stroke="#48484A" stroke-linecap="round" stroke-linejoin="round" stroke-miterlimit="10" points="
		192.259,154.595 196.961,145.047 201.736,154.595 192.259,154.595 	"/>
</g>
<g>
	
		<line fill="none" stroke="#48484A" stroke-linecap="round" stroke-linejoin="round" stroke-miterlimit="10" x1="67.429" y1="96.17" x2="3.375" y2="96.17"/>
</g>
<g>
	<polyline fill="#48484A" stroke="#48484A" stroke-linecap="round" stroke-linejoin="round" stroke-miterlimit="10" points="
		12.853,100.944 3.375,96.17 12.853,91.396 12.853,100.944 	"/>
</g>
<g>
	
		<line fill="none" stroke="#48484A" stroke-linecap="round" stroke-linejoin="round" stroke-miterlimit="10" x1="62.728" y1="63.538" x2="98.852" y2="63.538"/>
</g>
<g>
	<polyline fill="#48484A" stroke="#48484A" stroke-linecap="round" stroke-linejoin="round" stroke-miterlimit="10" points="
		89.375,58.765 98.852,63.538 89.375,68.312 89.375,58.765 	"/>
</g>
<g>
	
		<line fill="none" stroke="#48484A" stroke-linecap="round" stroke-linejoin="round" stroke-miterlimit="10" x1="62.728" y1="126.451" x2="100.062" y2="126.451"/>
</g>
<g>
	<polyline fill="#48484A" stroke="#48484A" stroke-linecap="round" stroke-linejoin="round" stroke-miterlimit="10" points="
		90.515,121.678 100.062,126.451 90.515,131.225 90.515,121.678 	"/>
</g>
<g>
	
		<line fill="none" stroke="#48484A" stroke-linecap="round" stroke-linejoin="round" stroke-miterlimit="10" x1="114.027" y1="56.911" x2="114.027" y2="134.574"/>
</g>
<g>
	<polyline fill="#48484A" stroke="#48484A" stroke-linecap="round" stroke-linejoin="round" stroke-miterlimit="10" points="
		116.876,62.683 114.027,56.911 111.177,62.683 116.876,62.683 	"/>
</g>
<g>
	
		<line fill="none" stroke="#48484A" stroke-linecap="round" stroke-linejoin="round" stroke-miterlimit="10" x1="116.876" y1="56.911" x2="111.177" y2="56.911"/>
</g>
<g>
	<polyline fill="#48484A" stroke="#48484A" stroke-linecap="round" stroke-linejoin="round" stroke-miterlimit="10" points="
		116.876,128.874 114.027,134.574 111.177,128.874 116.876,128.874 	"/>
</g>
<g>
	
		<line fill="none" stroke="#48484A" stroke-linecap="round" stroke-linejoin="round" stroke-miterlimit="10" x1="116.876" y1="134.574" x2="111.177" y2="134.574"/>
</g>
<g>
	
		<line fill="none" stroke="#48484A" stroke-linecap="round" stroke-linejoin="round" stroke-miterlimit="10" x1="653.672" y1="70.947" x2="617.62" y2="70.947"/>
</g>
<g>
	<polyline fill="#48484A" stroke="#48484A" stroke-linecap="round" stroke-linejoin="round" stroke-miterlimit="10" points="
		627.097,75.65 617.62,70.947 627.097,66.174 627.097,75.65 	"/>
</g>
<g>
	
		<line fill="none" stroke="#48484A" stroke-linecap="round" stroke-linejoin="round" stroke-miterlimit="10" x1="653.316" y1="119.826" x2="617.62" y2="119.826"/>
</g>
<g>
	<polyline fill="#48484A" stroke="#48484A" stroke-linecap="round" stroke-linejoin="round" stroke-miterlimit="10" points="
		627.097,124.599 617.62,119.826 627.097,115.051 627.097,124.599 	"/>
</g>
<g>
	
		<line fill="none" stroke="#48484A" stroke-linecap="round" stroke-linejoin="round" stroke-miterlimit="10" x1="663.718" y1="96.17" x2="733.258" y2="96.17"/>
</g>
<g>
	<polyline fill="#48484A" stroke="#48484A" stroke-linecap="round" stroke-linejoin="round" stroke-miterlimit="10" points="
		723.711,91.396 733.258,96.17 723.711,100.944 723.711,91.396 	"/>
</g>
<g>
	<path d="M353.688,6.771h1.84V13.2h0.042c0.655-1.142,1.84-1.861,3.489-1.861c2.559,0,4.335,2.115,4.335,5.202
		c0,3.659-2.326,5.478-4.61,5.478c-1.48,0-2.665-0.571-3.447-1.903h-0.042l-0.106,1.671h-1.586c0.042-0.698,0.084-1.734,0.084-2.644
		V6.771z M355.528,17.683c0,0.233,0.021,0.465,0.084,0.677c0.338,1.29,1.438,2.179,2.792,2.179c1.967,0,3.109-1.586,3.109-3.934
		c0-2.051-1.057-3.807-3.066-3.807c-1.248,0-2.432,0.888-2.813,2.284c-0.063,0.232-0.106,0.486-0.106,0.782V17.683z"/>
	<path d="M364.541,24.345c1.48-2.094,2.644-4.822,2.644-8.629c0-3.807-1.142-6.493-2.644-8.607h1.438
		c1.333,1.734,2.771,4.462,2.771,8.607c-0.021,4.146-1.438,6.853-2.771,8.629H364.541z"/>
</g>
<g>
	<path d="M369.429,176.439c0,0.888,0.042,1.755,0.148,2.453h-1.67l-0.148-1.29h-0.063c-0.571,0.804-1.67,1.522-3.13,1.522
		c-2.072,0-3.13-1.459-3.13-2.939c0-2.475,2.199-3.828,6.154-3.807v-0.211c0-0.825-0.233-2.369-2.326-2.348
		c-0.973,0-1.967,0.275-2.686,0.761l-0.423-1.248c0.846-0.529,2.093-0.888,3.384-0.888c3.13,0,3.891,2.136,3.891,4.166V176.439z
		 M367.631,173.668c-2.03-0.042-4.335,0.317-4.335,2.305c0,1.227,0.804,1.776,1.734,1.776c1.354,0,2.221-0.846,2.517-1.713
		c0.063-0.211,0.084-0.423,0.084-0.592V173.668z"/>
	<path d="M371.313,181.451c1.48-2.094,2.644-4.822,2.644-8.629c0-3.807-1.142-6.493-2.644-8.607h1.438
		c1.332,1.734,2.77,4.462,2.77,8.607c-0.021,4.146-1.438,6.853-2.77,8.629H371.313z"/>
</g>
<g>
	<path d="M633.272,57.855c0-1.311-0.042-2.369-0.084-3.341h1.649l0.105,1.755h0.042c0.74-1.248,1.967-1.967,3.638-1.967
		c2.496,0,4.356,2.094,4.356,5.181c0,3.68-2.263,5.499-4.674,5.499c-1.354,0-2.538-0.592-3.151-1.607h-0.042v5.562h-1.84V57.855z
		 M635.112,60.583c0,0.275,0.021,0.529,0.084,0.762c0.338,1.29,1.459,2.178,2.792,2.178c1.967,0,3.108-1.607,3.108-3.955
		c0-2.03-1.078-3.785-3.045-3.785c-1.269,0-2.474,0.888-2.813,2.284c-0.063,0.233-0.127,0.508-0.127,0.74V60.583z"/>
</g>
<g>
	<path d="M649.527,68.695h-0.024c-0.328,0.572-0.973,1.034-1.921,1.034c-1.374,0-2.493-1.18-2.493-2.967
		c0-2.213,1.423-3.174,2.664-3.174c0.912,0,1.52,0.45,1.812,1.01h0.024l0.036-0.888h1.01c-0.024,0.487-0.049,1.01-0.049,1.618v6.676
		h-1.058V68.695z M649.527,66.092c0-0.146-0.012-0.304-0.048-0.438c-0.17-0.657-0.73-1.216-1.533-1.216
		c-1.106,0-1.775,0.937-1.775,2.25c0,1.18,0.56,2.189,1.739,2.189c0.693,0,1.289-0.426,1.532-1.156
		c0.048-0.158,0.085-0.365,0.085-0.523V66.092z"/>
</g>
<g>
	<path d="M416.459,15.034c0-1.311-0.042-2.369-0.084-3.341h1.649l0.105,1.755h0.042c0.74-1.248,1.967-1.967,3.638-1.967
		c2.496,0,4.356,2.094,4.356,5.181c0,3.68-2.263,5.499-4.674,5.499c-1.354,0-2.538-0.592-3.151-1.607h-0.042v5.562h-1.84V15.034z
		 M418.299,17.762c0,0.275,0.021,0.529,0.084,0.762c0.338,1.29,1.459,2.178,2.792,2.178c1.967,0,3.108-1.607,3.108-3.955
		c0-2.03-1.078-3.786-3.045-3.786c-1.269,0-2.474,0.889-2.813,2.284c-0.063,0.233-0.127,0.508-0.127,0.74V17.762z"/>
	<path d="M432.282,14.801v-1.269h10.913v1.269H432.282z M432.282,18.946v-1.269h10.913v1.269H432.282z"/>
	<path d="M450.072,15.034c0-1.311-0.042-2.369-0.084-3.341h1.649l0.106,1.755h0.042c0.74-1.248,1.967-1.967,3.638-1.967
		c2.496,0,4.356,2.094,4.356,5.181c0,3.68-2.263,5.499-4.674,5.499c-1.354,0-2.538-0.592-3.151-1.607h-0.042v5.562h-1.84V15.034z
		 M451.912,17.762c0,0.275,0.021,0.529,0.084,0.762c0.338,1.29,1.459,2.178,2.792,2.178c1.967,0,3.109-1.607,3.109-3.955
		c0-2.03-1.079-3.786-3.045-3.786c-1.269,0-2.474,0.889-2.813,2.284c-0.063,0.233-0.127,0.508-0.127,0.74V17.762z"/>
</g>
<g>
	<path d="M469.69,25.874h-0.024c-0.328,0.572-0.973,1.034-1.921,1.034c-1.374,0-2.493-1.18-2.493-2.967
		c0-2.213,1.423-3.174,2.664-3.174c0.912,0,1.52,0.45,1.812,1.01h0.024l0.036-0.888h1.01c-0.024,0.487-0.049,1.01-0.049,1.618v6.676
		h-1.058V25.874z M469.69,23.271c0-0.146-0.012-0.304-0.048-0.438c-0.17-0.657-0.73-1.216-1.533-1.216
		c-1.106,0-1.775,0.937-1.775,2.25c0,1.18,0.56,2.189,1.739,2.189c0.693,0,1.289-0.426,1.532-1.156
		c0.049-0.158,0.085-0.365,0.085-0.523V23.271z"/>
</g>
<g>
	<path d="M206.486,21.375c0-1.311-0.042-2.369-0.084-3.341h1.649l0.106,1.755h0.042c0.74-1.248,1.967-1.967,3.638-1.967
		c2.496,0,4.356,2.094,4.356,5.181c0,3.68-2.263,5.499-4.674,5.499c-1.354,0-2.538-0.592-3.151-1.607h-0.042v5.562h-1.84V21.375z
		 M208.326,24.103c0,0.275,0.021,0.529,0.084,0.762c0.338,1.29,1.459,2.178,2.792,2.178c1.967,0,3.109-1.607,3.109-3.955
		c0-2.03-1.079-3.785-3.045-3.785c-1.269,0-2.474,0.888-2.813,2.284c-0.063,0.233-0.127,0.508-0.127,0.74V24.103z"/>
</g>
<g>
	<path d="M222.739,32.214h-0.024c-0.328,0.572-0.973,1.034-1.921,1.034c-1.374,0-2.493-1.18-2.493-2.967
		c0-2.213,1.423-3.174,2.664-3.174c0.912,0,1.52,0.45,1.812,1.01h0.024l0.036-0.888h1.01c-0.024,0.487-0.049,1.01-0.049,1.618v6.676
		h-1.058V32.214z M222.739,29.612c0-0.146-0.012-0.304-0.048-0.438c-0.17-0.657-0.73-1.216-1.533-1.216
		c-1.106,0-1.775,0.937-1.775,2.25c0,1.18,0.56,2.189,1.739,2.189c0.693,0,1.289-0.426,1.532-1.156
		c0.049-0.158,0.085-0.365,0.085-0.523V29.612z"/>
</g>
<g>
	<path d="M208.054,173.707c0-1.311-0.042-2.369-0.084-3.341h1.649l0.106,1.755h0.042c0.74-1.248,1.967-1.967,3.638-1.967
		c2.496,0,4.356,2.094,4.356,5.181c0,3.68-2.263,5.499-4.674,5.499c-1.354,0-2.538-0.592-3.151-1.607h-0.042v5.562h-1.84V173.707z
		 M209.894,176.435c0,0.275,0.021,0.529,0.084,0.762c0.338,1.29,1.459,2.178,2.792,2.178c1.967,0,3.109-1.607,3.109-3.955
		c0-2.03-1.079-3.785-3.045-3.785c-1.269,0-2.474,0.888-2.813,2.284c-0.063,0.233-0.127,0.508-0.127,0.74V176.435z"/>
</g>
<g>
	<path d="M224.307,184.547h-0.024c-0.328,0.572-0.973,1.034-1.921,1.034c-1.374,0-2.493-1.18-2.493-2.967
		c0-2.213,1.423-3.174,2.664-3.174c0.912,0,1.52,0.45,1.812,1.01h0.024l0.036-0.888h1.01c-0.024,0.487-0.049,1.01-0.049,1.618v6.676
		h-1.058V184.547z M224.307,181.944c0-0.146-0.012-0.304-0.048-0.438c-0.17-0.657-0.73-1.216-1.533-1.216
		c-1.106,0-1.775,0.937-1.775,2.25c0,1.18,0.56,2.189,1.739,2.189c0.693,0,1.289-0.426,1.532-1.156
		c0.048-0.158,0.085-0.365,0.085-0.523V181.944z"/>
</g>
<g>
	<path d="M66.836,51.514c0-1.311-0.042-2.369-0.084-3.341h1.649l0.105,1.755h0.042c0.74-1.248,1.967-1.967,3.638-1.967
		c2.496,0,4.356,2.094,4.356,5.181c0,3.68-2.263,5.499-4.674,5.499c-1.354,0-2.538-0.592-3.151-1.607h-0.042v5.562h-1.84V51.514z
		 M68.676,54.242c0,0.275,0.021,0.529,0.084,0.762c0.338,1.29,1.459,2.178,2.792,2.178c1.967,0,3.108-1.607,3.108-3.955
		c0-2.03-1.078-3.786-3.045-3.786c-1.269,0-2.474,0.889-2.813,2.284c-0.063,0.233-0.127,0.508-0.127,0.74V54.242z"/>
</g>
<g>
	<path d="M83.089,62.353h-0.024c-0.328,0.572-0.973,1.034-1.921,1.034c-1.374,0-2.493-1.18-2.493-2.967
		c0-2.213,1.423-3.174,2.664-3.174c0.912,0,1.52,0.45,1.812,1.01h0.024l0.036-0.888h1.01c-0.024,0.487-0.049,1.01-0.049,1.618v6.676
		h-1.058V62.353z M83.089,59.75c0-0.146-0.012-0.304-0.048-0.438c-0.17-0.657-0.73-1.216-1.533-1.216
		c-1.106,0-1.775,0.937-1.775,2.25c0,1.18,0.56,2.189,1.739,2.189c0.693,0,1.289-0.426,1.532-1.156
		c0.048-0.158,0.085-0.365,0.085-0.523V59.75z"/>
</g>
<g>
	<path d="M688.34,74.29h-4.335v-1.565h10.553v1.565h-4.357v12.689h-1.861V74.29z"/>
</g>
<g>
	<path d="M701.894,90.924h-0.024c-0.328,0.572-0.973,1.034-1.921,1.034c-1.374,0-2.493-1.18-2.493-2.967
		c0-2.213,1.423-3.174,2.664-3.174c0.912,0,1.52,0.45,1.812,1.01h0.024l0.036-0.888h1.01c-0.024,0.487-0.049,1.01-0.049,1.618v6.676
		h-1.058V90.924z M701.894,88.322c0-0.146-0.012-0.304-0.048-0.438c-0.17-0.657-0.73-1.216-1.533-1.216
		c-1.106,0-1.775,0.937-1.775,2.25c0,1.18,0.56,2.189,1.739,2.189c0.693,0,1.289-0.426,1.532-1.156
		c0.048-0.158,0.085-0.365,0.085-0.523V88.322z"/>
</g>
<g>
	<path d="M39.468,71.085h-4.335V69.52h10.553v1.565h-4.357v12.689h-1.861V71.085z"/>
</g>
<g>
	<path d="M52.951,87.718h-0.024c-0.328,0.572-0.973,1.034-1.921,1.034c-1.374,0-2.493-1.18-2.493-2.967
		c0-2.213,1.423-3.174,2.664-3.174c0.912,0,1.52,0.45,1.812,1.01h0.024l0.036-0.888h1.01c-0.024,0.487-0.049,1.01-0.049,1.618v6.676
		h-1.058V87.718z M52.951,85.116c0-0.146-0.012-0.304-0.048-0.438c-0.17-0.657-0.73-1.216-1.533-1.216
		c-1.106,0-1.775,0.937-1.775,2.25c0,1.18,0.56,2.189,1.739,2.189c0.693,0,1.289-0.426,1.532-1.156
		c0.049-0.158,0.085-0.365,0.085-0.523V85.116z"/>
</g>
<g>
	<path d="M411.763,171.791l2.009,5.731c0.338,0.952,0.613,1.798,0.825,2.644h0.063c0.233-0.846,0.529-1.692,0.867-2.644l1.988-5.731
		h1.946l-4.018,10.236h-1.776l-3.892-10.236H411.763z"/>
	<path d="M428.325,179.574c0,0.888,0.042,1.755,0.148,2.453h-1.67l-0.148-1.29h-0.063c-0.571,0.804-1.67,1.522-3.13,1.522
		c-2.072,0-3.13-1.459-3.13-2.939c0-2.475,2.199-3.828,6.154-3.807v-0.211c0-0.825-0.233-2.369-2.326-2.348
		c-0.973,0-1.967,0.275-2.686,0.761l-0.423-1.248c0.846-0.529,2.093-0.888,3.384-0.888c3.13,0,3.891,2.136,3.891,4.166V179.574z
		 M426.527,176.803c-2.03-0.042-4.335,0.317-4.335,2.305c0,1.227,0.804,1.776,1.734,1.776c1.354,0,2.221-0.846,2.517-1.713
		c0.063-0.211,0.084-0.423,0.084-0.592V176.803z"/>
	<path d="M438.627,181.667c-0.487,0.232-1.565,0.592-2.94,0.592c-3.087,0-5.097-2.093-5.097-5.224c0-3.151,2.157-5.456,5.499-5.456
		c1.1,0,2.073,0.275,2.58,0.55l-0.423,1.417c-0.444-0.233-1.142-0.487-2.157-0.487c-2.348,0-3.616,1.755-3.616,3.871
		c0,2.369,1.522,3.828,3.553,3.828c1.058,0,1.755-0.254,2.284-0.486L438.627,181.667z"/>
	<path d="M449.373,179.214c0,1.079,0.021,2.009,0.085,2.813h-1.65l-0.105-1.671h-0.042c-0.465,0.825-1.565,1.903-3.384,1.903
		c-1.607,0-3.532-0.909-3.532-4.483v-5.985h1.861v5.646c0,1.946,0.613,3.278,2.284,3.278c1.248,0,2.115-0.867,2.453-1.713
		c0.106-0.253,0.169-0.592,0.169-0.952v-6.26h1.861V179.214z"/>
	<path d="M461.028,179.214c0,1.079,0.021,2.009,0.085,2.813h-1.65l-0.105-1.671h-0.042c-0.465,0.825-1.565,1.903-3.384,1.903
		c-1.607,0-3.532-0.909-3.532-4.483v-5.985h1.861v5.646c0,1.946,0.613,3.278,2.284,3.278c1.248,0,2.115-0.867,2.453-1.713
		c0.106-0.253,0.169-0.592,0.169-0.952v-6.26h1.861V179.214z"/>
	<path d="M464.119,174.562c0-1.079-0.042-1.925-0.084-2.771h1.628l0.084,1.67h0.063c0.571-0.973,1.522-1.882,3.236-1.882
		c1.375,0,2.432,0.846,2.876,2.051h0.042c0.317-0.592,0.74-1.015,1.163-1.333c0.613-0.465,1.269-0.719,2.242-0.719
		c1.375,0,3.384,0.888,3.384,4.441v6.006h-1.819v-5.773c0-1.988-0.74-3.151-2.221-3.151c-1.079,0-1.882,0.783-2.22,1.671
		c-0.085,0.275-0.148,0.592-0.148,0.931v6.323h-1.818v-6.133c0-1.628-0.719-2.792-2.136-2.792c-1.142,0-2.009,0.931-2.305,1.861
		c-0.106,0.253-0.148,0.592-0.148,0.909v6.154h-1.819V174.562z"/>
</g>
<g>
	<path d="M88.657,99.953l-1.48,4.483h-1.903l4.864-14.254h2.199l4.864,14.254h-1.967l-1.522-4.483H88.657z M93.352,98.515
		l-1.417-4.103c-0.317-0.931-0.529-1.776-0.74-2.602h-0.042c-0.211,0.825-0.423,1.713-0.719,2.581l-1.396,4.124H93.352z"/>
</g>
<g>
	<path d="M104.892,108.381h-0.024c-0.328,0.572-0.973,1.034-1.921,1.034c-1.374,0-2.493-1.18-2.493-2.967
		c0-2.213,1.423-3.174,2.664-3.174c0.912,0,1.52,0.45,1.812,1.01h0.024l0.036-0.888h1.01c-0.024,0.487-0.049,1.01-0.049,1.618v6.676
		h-1.058V108.381z M104.892,105.779c0-0.146-0.012-0.304-0.048-0.438c-0.17-0.657-0.73-1.216-1.533-1.216
		c-1.106,0-1.775,0.937-1.775,2.25c0,1.18,0.56,2.189,1.739,2.189c0.693,0,1.289-0.426,1.532-1.156
		c0.048-0.158,0.085-0.365,0.085-0.523V105.779z"/>
</g>
<g>
	<polyline fill-rule="evenodd" clip-rule="evenodd" fill="#C7C9CB" points="361.548,31.404 373.875,31.404 373.875,70.021 
		361.548,70.021 361.548,31.404 	"/>
	<path fill-rule="evenodd" clip-rule="evenodd" fill="#C7C9CB" d="M367.711,50.713"/>
</g>
<g>
	<polyline fill-rule="evenodd" clip-rule="evenodd" fill="#C7C9CB" points="362.76,120.181 375.086,120.181 375.086,157.445 
		362.76,157.445 362.76,120.181 	"/>
	<path fill-rule="evenodd" clip-rule="evenodd" fill="#C7C9CB" d="M368.923,138.813"/>
</g>
<g>
	
		<line fill-rule="evenodd" clip-rule="evenodd" fill="none" stroke="#48484A" stroke-linecap="round" stroke-linejoin="round" stroke-miterlimit="10" x1="178.722" y1="95.742" x2="143.025" y2="95.742"/>
</g>
<g>
	<polyline fill="#48484A" stroke="#48484A" stroke-linecap="round" stroke-linejoin="round" stroke-miterlimit="10" points="
		152.573,100.516 143.025,95.742 152.573,91.041 152.573,100.516 	"/>
</g>
<g>
	<path d="M185.468,93.908c0-1.311-0.042-2.369-0.084-3.341h1.649l0.106,1.755h0.042c0.74-1.248,1.967-1.967,3.638-1.967
		c2.496,0,4.356,2.094,4.356,5.181c0,3.68-2.263,5.499-4.674,5.499c-1.354,0-2.538-0.592-3.151-1.607h-0.042v5.562h-1.84V93.908z
		 M187.308,96.636c0,0.275,0.021,0.529,0.084,0.762c0.338,1.29,1.459,2.178,2.792,2.178c1.967,0,3.109-1.607,3.109-3.955
		c0-2.03-1.079-3.785-3.045-3.785c-1.269,0-2.474,0.888-2.813,2.284c-0.063,0.233-0.127,0.508-0.127,0.74V96.636z"/>
</g>
<g>
	<path d="M198.899,98.393c0,0.365-0.255,0.657-0.681,0.657c-0.389,0-0.645-0.292-0.645-0.657s0.268-0.669,0.669-0.669
		C198.632,97.724,198.899,98.016,198.899,98.393z M197.708,105.933v-5.886h1.07v5.886H197.708z"/>
</g>
<g>
	<path d="M221.181,97.459l-1.48,4.483h-1.903l4.864-14.254h2.199l4.864,14.254h-1.967l-1.522-4.483H221.181z M225.875,96.021
		l-1.417-4.103c-0.317-0.931-0.529-1.776-0.74-2.602h-0.042c-0.211,0.825-0.423,1.713-0.719,2.581l-1.396,4.124H225.875z"/>
</g>
<g>
	<path d="M234.596,99.532c0,0.365-0.255,0.657-0.681,0.657c-0.389,0-0.645-0.292-0.645-0.657s0.268-0.669,0.669-0.669
		C234.328,98.863,234.596,99.155,234.596,99.532z M233.404,107.072v-5.886h1.07v5.886H233.404z"/>
</g>
<g>
	
		<path fill-rule="evenodd" clip-rule="evenodd" fill="#48484A" stroke="#48484A" stroke-linecap="round" stroke-linejoin="round" stroke-miterlimit="10" d="
		M373.304,126.022c-0.003-3.784-4.096-6.146-7.375-4.256c-3.279,1.903-3.272,6.627,0.006,8.519c3.282,1.885,7.366-0.477,7.369-4.261
		"/>
</g>
<g>
	
		<path fill-rule="evenodd" clip-rule="evenodd" fill="#48484A" stroke="#48484A" stroke-linecap="round" stroke-linejoin="round" stroke-miterlimit="10" d="
		M373.661,145.046c-0.004-3.784-4.097-6.146-7.375-4.255c-3.278,1.901-3.273,6.627,0.006,8.518
		C369.574,151.194,373.658,148.832,373.661,145.046"/>
</g>
<g>
	
		<path fill-rule="evenodd" clip-rule="evenodd" fill="#48484A" stroke="#48484A" stroke-linecap="round" stroke-linejoin="round" stroke-miterlimit="10" d="
		M372.521,64.677c-0.003-3.785-4.095-6.146-7.375-4.257c-3.278,1.902-3.273,6.627,0.005,8.519
		C368.433,70.823,372.519,68.462,372.521,64.677"/>
</g>
<g>
	
		<polyline fill-rule="evenodd" clip-rule="evenodd" fill="none" stroke="#48484A" stroke-linecap="round" stroke-linejoin="round" stroke-miterlimit="10" points="
		409.571,174.901 407.932,175.115 406.079,174.473 403.444,172.194 400.095,167.491 397.957,162.503 393.113,148.609 
		390.689,143.409 388.481,140.417 385.346,137.638 382.283,135.927 378.934,134.93 375.442,134.787 372.378,135.286 	"/>
</g>
<path fill-rule="evenodd" clip-rule="evenodd" fill="none" stroke="#48484A" stroke-linecap="round" stroke-linejoin="round" stroke-miterlimit="10" d="
	M370.099,51.782c6.27,3.705,11.97,2.422,17.456-3.848c5.486-6.412,6.911-23.157,11.257-29.141
	c4.347-5.913,12.541-5.984,14.393-6.198c1.709-0.285,0,0,0,0l0,0"/>
</svg>
