<?xml version="1.0" encoding="utf-8"?>
<!-- Generator: Adobe Illustrator 15.0.0, SVG Export Plug-In . SVG Version: 6.00 Build 0)  -->
<!DOCTYPE svg PUBLIC "-//W3C//DTD SVG 1.1//EN" "http://www.w3.org/Graphics/SVG/1.1/DTD/svg11.dtd">
<svg version="1.1" id="_x3C_Layer_x3E_" xmlns="http://www.w3.org/2000/svg" xmlns:xlink="http://www.w3.org/1999/xlink" x="0px"
	 y="0px" width="733.5px" height="372.5px" viewBox="0 0 733.5 372.5" enable-background="new 0 0 733.5 372.5"
	 xml:space="preserve">
<g>
	
		<line fill-rule="evenodd" clip-rule="evenodd" fill="none" stroke="#000000" stroke-width="0.5" stroke-linecap="round" stroke-linejoin="round" stroke-miterlimit="10" x1="231.399" y1="182.044" x2="269.851" y2="220.496"/>
</g>
<g>
	
		<line fill-rule="evenodd" clip-rule="evenodd" fill="none" stroke="#000000" stroke-width="0.5" stroke-linecap="round" stroke-linejoin="round" stroke-miterlimit="10" x1="214.867" y1="179.871" x2="272.024" y2="237.028"/>
</g>
<g>
	
		<line fill-rule="evenodd" clip-rule="evenodd" fill="none" stroke="#000000" stroke-width="0.5" stroke-linecap="round" stroke-linejoin="round" stroke-miterlimit="10" x1="202.396" y1="181.572" x2="270.323" y2="249.499"/>
</g>
<g>
	
		<line fill-rule="evenodd" clip-rule="evenodd" fill="none" stroke="#000000" stroke-width="0.5" stroke-linecap="round" stroke-linejoin="round" stroke-miterlimit="10" x1="191.814" y1="185.351" x2="266.544" y2="260.08"/>
</g>
<g>
	
		<line fill-rule="evenodd" clip-rule="evenodd" fill="none" stroke="#000000" stroke-width="0.5" stroke-linecap="round" stroke-linejoin="round" stroke-miterlimit="10" x1="182.935" y1="190.736" x2="261.253" y2="269.055"/>
</g>
<g>
	
		<line fill-rule="evenodd" clip-rule="evenodd" fill="none" stroke="#000000" stroke-width="0.5" stroke-linecap="round" stroke-linejoin="round" stroke-miterlimit="10" x1="175.376" y1="197.443" x2="254.451" y2="276.519"/>
</g>
<g>
	
		<line fill-rule="evenodd" clip-rule="evenodd" fill="none" stroke="#000000" stroke-width="0.5" stroke-linecap="round" stroke-linejoin="round" stroke-miterlimit="10" x1="169.046" y1="205.379" x2="246.516" y2="282.849"/>
</g>
<g>
	
		<line fill-rule="evenodd" clip-rule="evenodd" fill="none" stroke="#000000" stroke-width="0.5" stroke-linecap="round" stroke-linejoin="round" stroke-miterlimit="10" x1="164.133" y1="214.732" x2="237.163" y2="287.76"/>
</g>
<g>
	
		<line fill-rule="evenodd" clip-rule="evenodd" fill="none" stroke="#000000" stroke-width="0.5" stroke-linecap="round" stroke-linejoin="round" stroke-miterlimit="10" x1="160.921" y1="225.88" x2="226.109" y2="291.069"/>
</g>
<g>
	
		<line fill-rule="evenodd" clip-rule="evenodd" fill="none" stroke="#000000" stroke-width="0.5" stroke-linecap="round" stroke-linejoin="round" stroke-miterlimit="10" x1="160.071" y1="239.201" x2="212.694" y2="291.823"/>
</g>
<g>
	
		<line fill-rule="evenodd" clip-rule="evenodd" fill="none" stroke="#000000" stroke-width="0.5" stroke-linecap="round" stroke-linejoin="round" stroke-miterlimit="10" x1="164.512" y1="258.002" x2="193.893" y2="287.384"/>
</g>
<g>
	
		<path fill-rule="evenodd" clip-rule="evenodd" fill="none" stroke="#000000" stroke-linecap="round" stroke-linejoin="round" stroke-miterlimit="10" d="
		M272.024,235.885c-0.042-43.126-46.679-70.042-84.041-48.505c-37.36,21.674-37.292,75.521,0.066,97.066
		C225.44,305.934,271.99,279.02,272.024,235.885z"/>
</g>
<g>
	
		<path fill-rule="evenodd" clip-rule="evenodd" fill="none" stroke="#000000" stroke-linecap="round" stroke-linejoin="round" stroke-miterlimit="10" d="
		M431.12,175.42c-0.043-43.125-46.681-70.042-84.042-48.503c-37.36,21.673-37.292,75.521,0.066,97.066
		C384.536,245.47,431.084,218.557,431.12,175.42z"/>
</g>
<g>
	
		<path fill-rule="evenodd" clip-rule="evenodd" fill="none" stroke="#000000" stroke-linecap="round" stroke-linejoin="round" stroke-miterlimit="10" stroke-dasharray="16,8" d="
		M136.547,286.522c-0.042-43.125-46.679-70.042-84.041-48.504c-37.361,21.675-37.292,75.521,0.065,97.067
		C89.963,356.573,136.513,329.658,136.547,286.522z"/>
</g>
<g>
	
		<path fill-rule="evenodd" clip-rule="evenodd" fill="none" stroke="#000000" stroke-linecap="round" stroke-linejoin="round" stroke-miterlimit="10" stroke-dasharray="16,8" d="
		M384.638,171.247c-0.027-8.654-8.613-14.034-15.458-9.701c-6.857,4.343-6.844,15.148,0.023,19.472
		C376.093,185.326,384.65,179.903,384.638,171.247z"/>
</g>
<g>
	
		<polyline fill-rule="evenodd" clip-rule="evenodd" fill="#636467" stroke="#000000" stroke-linecap="round" stroke-linejoin="round" stroke-miterlimit="10" points="
		362.437,119.408 204.286,179.021 362.437,119.408 	"/>
</g>
<g>
	
		<line fill-rule="evenodd" clip-rule="evenodd" fill="none" stroke="#000000" stroke-width="0" stroke-linecap="round" stroke-linejoin="round" stroke-miterlimit="10" x1="381.332" y1="231.549" x2="383.504" y2="233.721"/>
</g>
<g>
	
		<line fill-rule="evenodd" clip-rule="evenodd" fill="none" stroke="#000000" stroke-width="0" stroke-linecap="round" stroke-linejoin="round" stroke-miterlimit="10" x1="355.822" y1="241.752" x2="357.995" y2="243.925"/>
</g>
<g>
	
		<line fill-rule="evenodd" clip-rule="evenodd" fill="none" stroke="#000000" stroke-width="0" stroke-linecap="round" stroke-linejoin="round" stroke-miterlimit="10" x1="330.314" y1="251.956" x2="332.582" y2="254.224"/>
</g>
<g>
	
		<line fill-rule="evenodd" clip-rule="evenodd" fill="none" stroke="#000000" stroke-width="0" stroke-linecap="round" stroke-linejoin="round" stroke-miterlimit="10" x1="304.901" y1="262.253" x2="307.074" y2="264.425"/>
</g>
<g>
	
		<line fill-rule="evenodd" clip-rule="evenodd" fill="none" stroke="#000000" stroke-width="0" stroke-linecap="round" stroke-linejoin="round" stroke-miterlimit="10" x1="279.393" y1="272.457" x2="281.566" y2="274.629"/>
</g>
<g>
	
		<line fill-rule="evenodd" clip-rule="evenodd" fill="none" stroke="#000000" stroke-width="0" stroke-linecap="round" stroke-linejoin="round" stroke-miterlimit="10" x1="253.885" y1="282.66" x2="256.153" y2="284.927"/>
</g>
<g>
	
		<line fill-rule="evenodd" clip-rule="evenodd" fill="none" stroke="#000000" stroke-linecap="round" stroke-linejoin="round" stroke-miterlimit="10" x1="82.319" y1="267.543" x2="82.319" y2="98.622"/>
</g>
<g>
	
		<polyline fill-rule="evenodd" clip-rule="evenodd" fill="none" stroke="#000000" stroke-linecap="round" stroke-linejoin="round" stroke-miterlimit="10" points="
		373.301,6.793 373.301,171.746 373.301,19.17 	"/>
</g>
<g>
	
		<polyline fill-rule="evenodd" clip-rule="evenodd" fill="#FFFFFF" stroke="#000000" stroke-linecap="round" stroke-linejoin="round" stroke-miterlimit="10" points="
		84.114,270.662 90.823,289.933 217.701,243.169 210.994,223.897 84.114,270.662 	"/>
</g>
<g>
	
		<line fill-rule="evenodd" clip-rule="evenodd" fill="none" stroke="#000000" stroke-width="0" stroke-linecap="round" stroke-linejoin="round" stroke-miterlimit="10" x1="212.789" y1="155.309" x2="215.623" y2="158.143"/>
</g>
<g>
	
		<line fill-rule="evenodd" clip-rule="evenodd" fill="none" stroke="#000000" stroke-width="0" stroke-linecap="round" stroke-linejoin="round" stroke-miterlimit="10" x1="212.789" y1="191.02" x2="215.623" y2="193.853"/>
</g>
<g>
	
		<line fill-rule="evenodd" clip-rule="evenodd" fill="none" stroke="#000000" stroke-width="0" stroke-linecap="round" stroke-linejoin="round" stroke-miterlimit="10" x1="212.789" y1="226.73" x2="215.623" y2="229.564"/>
</g>
<g>
	
		<line fill-rule="evenodd" clip-rule="evenodd" fill="none" stroke="#000000" stroke-linecap="round" stroke-linejoin="round" stroke-miterlimit="10" x1="405.8" y1="223.235" x2="229.604" y2="291.917"/>
</g>
<g>
	
		<path fill-rule="evenodd" clip-rule="evenodd" fill="#FFFFFF" stroke="#000000" stroke-linecap="round" stroke-linejoin="round" stroke-miterlimit="10" d="
		M223.841,233.6c-0.028-8.655-8.612-14.034-15.459-9.702c-6.856,4.343-6.842,15.147,0.025,19.472
		c6.89,4.309,15.448-1.115,15.434-9.768"/>
</g>
<g>
	
		<path fill-rule="evenodd" clip-rule="evenodd" fill="#FFFFFF" stroke="#000000" stroke-linecap="round" stroke-linejoin="round" stroke-miterlimit="10" d="
		M97.34,280.554c-0.028-8.655-8.613-14.035-15.458-9.703c-6.857,4.343-6.843,15.149,0.023,19.473
		C88.796,294.634,97.354,289.209,97.34,280.554"/>
</g>
<g>
	
		<line fill-rule="evenodd" clip-rule="evenodd" fill="none" stroke="#000000" stroke-linecap="round" stroke-linejoin="round" stroke-miterlimit="10" stroke-dasharray="16,8" x1="213.545" y1="222.386" x2="369.616" y2="161.826"/>
</g>
<g>
	
		<line fill-rule="evenodd" clip-rule="evenodd" fill="none" stroke="#000000" stroke-linecap="round" stroke-linejoin="round" stroke-miterlimit="10" stroke-dasharray="16,8" x1="221.479" y1="241.374" x2="379.631" y2="181.667"/>
</g>
<g>
	
		<line fill-rule="evenodd" clip-rule="evenodd" fill="none" stroke="#000000" stroke-linecap="round" stroke-linejoin="round" stroke-miterlimit="10" x1="85.06" y1="117.519" x2="373.301" y2="5.471"/>
</g>
<g>
	<polyline stroke="#000000" stroke-linecap="round" stroke-linejoin="round" stroke-miterlimit="10" points="94.506,107.125 
		85.06,117.519 99.041,118.841 94.506,107.125 	"/>
</g>
<g>
	<polyline stroke="#000000" stroke-linecap="round" stroke-linejoin="round" stroke-miterlimit="10" points="359.224,4.148 
		373.301,5.471 363.759,15.958 359.224,4.148 	"/>
</g>
<g>
	
		<line fill="none" stroke="#000000" stroke-linecap="round" stroke-linejoin="round" stroke-miterlimit="10" x1="213.355" y1="132.917" x2="372.355" y2="75.099"/>
</g>
<g>
	<polyline stroke="#000000" stroke-linecap="round" stroke-linejoin="round" stroke-miterlimit="10" points="222.992,122.715 
		213.355,132.917 227.337,134.523 222.992,122.715 	"/>
</g>
<g>
	<polyline stroke="#000000" stroke-linecap="round" stroke-linejoin="round" stroke-miterlimit="10" points="358.373,73.492 
		372.355,75.099 362.625,85.303 358.373,73.492 	"/>
</g>
<g>
	<polyline fill="none" stroke="#000000" stroke-linecap="round" stroke-linejoin="round" stroke-miterlimit="10" points="
		221.479,277.463 201.546,303.727 218.741,307.318 	"/>
</g>
<g>
	
		<line fill="none" stroke="#000000" stroke-linecap="round" stroke-linejoin="round" stroke-miterlimit="10" stroke-dasharray="16,8" x1="53.41" y1="232.304" x2="2.771" y2="252.239"/>
</g>
<g>
	
		<line fill="none" stroke="#000000" stroke-linecap="round" stroke-linejoin="round" stroke-miterlimit="10" stroke-dasharray="16,8" x1="19.021" y1="368.726" x2="111.228" y2="334.432"/>
</g>
<path fill="none" stroke="#FFFFFF" stroke-linecap="round" stroke-linejoin="round" stroke-miterlimit="10" stroke-dasharray="16,8" d="
	M207.875,224.18c-5.574,5.667-4.535,10.297-4.157,11.998c0.284,1.605,2.93,9.637,11.999,8.503"/>
<g>
	
		<line fill="none" stroke="#000000" stroke-linecap="round" stroke-linejoin="round" stroke-miterlimit="10" x1="213.545" y1="233.627" x2="213.545" y2="132.917"/>
</g>
<g>
	<path d="M468.912,33.62h9.162v1.842h-6.94v5.653h6.41v1.817h-6.41v7.698h-2.222V33.62z"/>
	<path d="M481.229,33.847c1.11-0.202,2.726-0.354,4.215-0.354c2.348,0,3.887,0.455,4.922,1.388c0.832,0.757,1.337,1.918,1.337,3.256
		c0,2.221-1.413,3.71-3.18,4.315v0.076c1.287,0.455,2.069,1.666,2.474,3.433c0.555,2.372,0.959,4.013,1.313,4.669h-2.271
		c-0.278-0.505-0.656-1.943-1.111-4.063c-0.504-2.347-1.438-3.23-3.432-3.306h-2.069v7.37h-2.196V33.847z M483.425,41.595h2.246
		c2.347,0,3.836-1.287,3.836-3.23c0-2.196-1.59-3.155-3.912-3.155c-1.06,0-1.792,0.076-2.17,0.177V41.595z"/>
	<path d="M497.684,45.279l-1.767,5.351h-2.271l5.805-17.01h2.625l5.805,17.01h-2.347l-1.817-5.351H497.684z M503.286,43.563
		l-1.69-4.896c-0.379-1.11-0.631-2.12-0.884-3.104h-0.05c-0.253,0.984-0.505,2.044-0.858,3.079l-1.666,4.922H503.286z"/>
	<path d="M521.861,50.1c-0.782,0.404-2.423,0.808-4.492,0.808c-4.796,0-8.38-3.029-8.38-8.632c0-5.35,3.609-8.934,8.884-8.934
		c2.095,0,3.458,0.454,4.038,0.757l-0.555,1.792c-0.808-0.403-1.994-0.707-3.407-0.707c-3.987,0-6.638,2.549-6.638,7.016
		c0,4.189,2.397,6.84,6.512,6.84c1.362,0,2.726-0.278,3.608-0.707L521.861,50.1z"/>
	<path d="M523.729,42.125V40.61h13.022v1.514H523.729z M523.729,47.071v-1.514h13.022v1.514H523.729z"/>
</g>
<g>
	<path d="M560.784,10.32h2.221v17.919h-2.221V10.32z"/>
</g>
<g>
	<path d="M567.73,31.146c0.029,1.752,1.134,2.474,2.443,2.474c0.928,0,1.502-0.162,1.974-0.368l0.235,0.928
		c-0.456,0.206-1.251,0.457-2.385,0.457c-2.194,0-3.505-1.458-3.505-3.608c0-2.149,1.267-3.828,3.343-3.828
		c2.341,0,2.944,2.032,2.944,3.342c0,0.265-0.015,0.457-0.044,0.604H567.73z M571.529,30.219c0.015-0.81-0.339-2.091-1.797-2.091
		c-1.325,0-1.885,1.192-1.987,2.091H571.529z"/>
</g>
<g>
	<path d="M560.029,44.993h2.221v17.919h-2.221V44.993z"/>
</g>
<g>
	<path d="M566.076,67.931c0.397,0.236,1.074,0.5,1.723,0.5c0.928,0,1.369-0.456,1.369-1.06c0-0.618-0.368-0.942-1.311-1.296
		c-1.296-0.471-1.899-1.163-1.899-2.017c0-1.148,0.942-2.091,2.459-2.091c0.722,0,1.354,0.191,1.737,0.442l-0.309,0.942
		c-0.28-0.177-0.795-0.427-1.458-0.427c-0.766,0-1.178,0.442-1.178,0.972c0,0.589,0.412,0.854,1.34,1.222
		c1.222,0.457,1.87,1.075,1.87,2.135c0,1.266-0.986,2.15-2.65,2.15c-0.78,0-1.502-0.206-2.003-0.501L566.076,67.931z"/>
</g>
<g>
	<path d="M358.035,325.245l-2.16,6.541h-2.776l7.096-20.795h3.209l7.097,20.795h-2.869l-2.222-6.541H358.035z M364.885,323.147
		l-2.067-5.986c-0.463-1.357-0.771-2.592-1.08-3.795h-0.062c-0.309,1.203-0.617,2.499-1.049,3.764l-2.036,6.017H364.885z"/>
	<path d="M390.951,322.653c-0.154-2.9-0.339-6.417-0.339-8.978h-0.062c-0.741,2.407-1.574,5.029-2.623,7.898l-3.671,10.089h-2.037
		l-3.394-9.904c-0.987-2.962-1.789-5.615-2.376-8.083h-0.062c-0.062,2.592-0.216,6.047-0.401,9.194l-0.555,8.917h-2.562l1.45-20.795
		h3.425l3.549,10.058c0.863,2.561,1.542,4.844,2.098,7.003h0.062c0.556-2.098,1.296-4.381,2.222-7.003l3.702-10.058h3.425
		l1.296,20.795h-2.653L390.951,322.653z"/>
	<path d="M397.888,328.516c1.203,0.771,2.931,1.357,4.782,1.357c2.745,0,4.35-1.45,4.35-3.548c0-1.913-1.11-3.055-3.918-4.104
		c-3.394-1.234-5.492-3.023-5.492-5.924c0-3.24,2.685-5.646,6.727-5.646c2.098,0,3.671,0.494,4.566,1.018l-0.741,2.19
		c-0.647-0.401-2.036-0.987-3.918-0.987c-2.839,0-3.919,1.697-3.919,3.116c0,1.944,1.266,2.9,4.135,4.011
		c3.518,1.358,5.276,3.055,5.276,6.109c0,3.208-2.346,6.016-7.251,6.016c-2.006,0-4.196-0.617-5.307-1.357L397.888,328.516z"/>
	<path d="M418.863,321.389v-1.851h15.92v1.851H418.863z M418.863,327.436v-1.852h15.92v1.852H418.863z"/>
	<path d="M448.26,325.245l-2.16,6.541h-2.776l7.096-20.795h3.209l7.097,20.795h-2.869l-2.222-6.541H448.26z M455.109,323.147
		l-2.067-5.986c-0.463-1.357-0.771-2.592-1.08-3.795H451.9c-0.309,1.203-0.617,2.499-1.049,3.764l-2.036,6.017H455.109z"/>
</g>
<g>
	<path d="M491.249,322.037h-8.053v7.497h9.009v2.252h-11.724v-20.795h11.261v2.252h-8.546v6.572h8.053V322.037z"/>
</g>
<path fill-rule="evenodd" clip-rule="evenodd" stroke="#000000" stroke-linecap="round" stroke-linejoin="round" stroke-miterlimit="10" d="
	M499.708,321.206c0-1.04,0.377-1.889,1.038-2.55c0.758-0.756,1.607-1.04,2.552-1.04c1.038,0,1.89,0.283,2.551,1.04
	c0.756,0.661,1.04,1.511,1.04,2.55c0,0.945-0.284,1.794-1.04,2.549c-0.661,0.662-1.513,1.04-2.551,1.04
	c-0.944,0-1.794-0.378-2.552-1.04C500.085,323,499.708,322.15,499.708,321.206L499.708,321.206L499.708,321.206"/>
<g>
	<path d="M510.544,319.414c0-2.118-0.037-3.938-0.148-5.61h2.861l0.148,3.567h0.111c0.817-2.415,2.824-3.938,5.017-3.938
		c0.334,0,0.594,0.037,0.892,0.074v3.084c-0.335-0.075-0.669-0.075-1.115-0.075c-2.304,0-3.938,1.709-4.384,4.162
		c-0.074,0.446-0.111,1.003-0.111,1.523v9.586h-3.271V319.414z"/>
</g>
<g>
	<path d="M537.924,334.273h-5.671v5.28h6.345v1.586h-8.257v-14.645h7.931v1.586h-6.019v4.628h5.671V334.273z"/>
	<path d="M549.072,341.139l-1.891-3.238c-0.76-1.238-1.217-2.042-1.673-2.89h-0.043c-0.413,0.848-0.848,1.63-1.587,2.912
		l-1.76,3.216h-2.173l4.477-7.41l-4.303-7.235h2.194l1.935,3.433c0.543,0.956,0.956,1.695,1.347,2.477h0.065
		c0.413-0.869,0.782-1.543,1.325-2.477l1.978-3.433h2.194l-4.454,7.127l4.563,7.518H549.072z"/>
	<path d="M556.419,328.102h-4.454v-1.608h10.842v1.608h-4.476v13.037h-1.912V328.102z"/>
	<path d="M572,334.273h-5.671v5.28h6.345v1.586h-8.257v-14.645h7.931v1.586h-6.019v4.628H572V334.273z"/>
	<path d="M575.131,326.689c0.956-0.174,2.347-0.304,3.629-0.304c2.021,0,3.346,0.391,4.236,1.195
		c0.718,0.652,1.152,1.651,1.152,2.803c0,1.912-1.217,3.194-2.738,3.715v0.065c1.108,0.392,1.782,1.435,2.13,2.955
		c0.478,2.043,0.825,3.455,1.13,4.02h-1.956c-0.239-0.435-0.564-1.673-0.956-3.499c-0.435-2.021-1.238-2.781-2.955-2.846h-1.781
		v6.345h-1.891V326.689z M577.021,333.36h1.934c2.021,0,3.303-1.108,3.303-2.781c0-1.891-1.369-2.716-3.368-2.716
		c-0.912,0-1.542,0.065-1.868,0.152V333.36z"/>
	<path d="M586.823,341.139v-14.645h2.086l4.672,7.409c1.064,1.717,1.934,3.26,2.607,4.759l0.065-0.021
		c-0.174-1.956-0.218-3.737-0.218-6.019v-6.127h1.782v14.645h-1.912l-4.65-7.431c-1.021-1.63-1.999-3.303-2.716-4.889l-0.065,0.021
		c0.108,1.847,0.131,3.607,0.131,6.041v6.258H586.823z"/>
	<path d="M603.491,336.533l-1.521,4.606h-1.956l4.998-14.645h2.26l4.997,14.645h-2.021l-1.564-4.606H603.491z M608.315,335.055
		l-1.456-4.215c-0.326-0.956-0.543-1.825-0.761-2.673h-0.043c-0.218,0.848-0.435,1.76-0.739,2.651l-1.434,4.237H608.315z"/>
	<path d="M614.402,326.494h1.912v13.059h6.258v1.586h-8.17V326.494z"/>
	<path d="M630.896,341.139l-3.716-14.645h1.999l1.738,7.409c0.435,1.825,0.825,3.65,1.086,5.063h0.044
		c0.239-1.456,0.695-3.194,1.194-5.084l1.956-7.388h1.978l1.781,7.431c0.413,1.738,0.805,3.477,1.021,5.019h0.043
		c0.305-1.607,0.718-3.237,1.174-5.063l1.934-7.388h1.934l-4.149,14.645h-1.978l-1.847-7.626c-0.456-1.869-0.761-3.303-0.956-4.78
		h-0.044c-0.239,1.456-0.587,2.89-1.13,4.78l-2.086,7.626H630.896z"/>
	<path d="M646.892,326.689c0.956-0.174,2.347-0.304,3.629-0.304c2.021,0,3.346,0.391,4.237,1.195
		c0.717,0.652,1.151,1.651,1.151,2.803c0,1.912-1.217,3.194-2.738,3.715v0.065c1.108,0.392,1.782,1.435,2.13,2.955
		c0.478,2.043,0.825,3.455,1.13,4.02h-1.956c-0.238-0.435-0.564-1.673-0.956-3.499c-0.435-2.021-1.238-2.781-2.955-2.846h-1.781
		v6.345h-1.891V326.689z M648.782,333.36h1.934c2.021,0,3.303-1.108,3.303-2.781c0-1.891-1.369-2.716-3.368-2.716
		c-0.912,0-1.543,0.065-1.868,0.152V333.36z"/>
	<path d="M661.061,336.533l-1.521,4.606h-1.956l4.998-14.645h2.26l4.997,14.645h-2.021l-1.564-4.606H661.061z M665.885,335.055
		l-1.456-4.215c-0.326-0.956-0.543-1.825-0.761-2.673h-0.043c-0.218,0.848-0.435,1.76-0.739,2.651l-1.434,4.237H665.885z"/>
	<path d="M671.993,326.668c0.913-0.152,2.107-0.282,3.629-0.282c1.868,0,3.237,0.435,4.106,1.217
		c0.782,0.695,1.282,1.76,1.282,3.063c0,1.325-0.392,2.368-1.13,3.129c-1.021,1.064-2.629,1.608-4.477,1.608
		c-0.564,0-1.086-0.022-1.521-0.13v5.867h-1.891V326.668z M673.884,333.729c0.413,0.109,0.935,0.152,1.564,0.152
		c2.281,0,3.672-1.13,3.672-3.107c0-1.955-1.391-2.89-3.455-2.89c-0.825,0-1.456,0.065-1.781,0.152V333.729z"/>
	<path d="M683.555,326.668c0.912-0.152,2.107-0.282,3.629-0.282c1.868,0,3.237,0.435,4.106,1.217
		c0.782,0.695,1.282,1.76,1.282,3.063c0,1.325-0.392,2.368-1.13,3.129c-1.021,1.064-2.63,1.608-4.477,1.608
		c-0.564,0-1.086-0.022-1.521-0.13v5.867h-1.891V326.668z M685.445,333.729c0.412,0.109,0.934,0.152,1.564,0.152
		c2.281,0,3.672-1.13,3.672-3.107c0-1.955-1.391-2.89-3.455-2.89c-0.825,0-1.455,0.065-1.781,0.152V333.729z"/>
	<path d="M697.007,326.494v14.645h-1.912v-14.645H697.007z"/>
	<path d="M700.311,341.139v-14.645h2.086l4.672,7.409c1.064,1.717,1.934,3.26,2.607,4.759l0.064-0.021
		c-0.174-1.956-0.217-3.737-0.217-6.019v-6.127h1.781v14.645h-1.912l-4.649-7.431c-1.021-1.63-1.999-3.303-2.716-4.889l-0.065,0.021
		c0.108,1.847,0.13,3.607,0.13,6.041v6.258H700.311z"/>
	<path d="M725.779,340.487c-0.848,0.326-2.543,0.804-4.52,0.804c-2.217,0-4.042-0.564-5.477-1.934
		c-1.26-1.217-2.042-3.172-2.042-5.454c0-4.367,3.021-7.562,7.931-7.562c1.695,0,3.042,0.37,3.672,0.674l-0.478,1.543
		c-0.782-0.37-1.76-0.63-3.237-0.63c-3.563,0-5.889,2.216-5.889,5.888c0,3.716,2.217,5.91,5.649,5.91
		c1.238,0,2.086-0.174,2.521-0.391v-4.368h-2.955v-1.521h4.824V340.487z"/>
</g>
<g>
	<path d="M229.809,311.778l-1.865,5.648h-2.398l6.127-17.957h2.771l6.127,17.957h-2.478l-1.918-5.648H229.809z M235.723,309.966
		l-1.785-5.168c-0.399-1.172-0.666-2.238-0.932-3.277h-0.054c-0.266,1.039-0.533,2.158-0.906,3.25l-1.758,5.195H235.723z"/>
	<path d="M252.479,309.007h-6.953v6.474h7.779v1.945h-10.124v-17.957h9.725v1.945h-7.38v5.675h6.953V309.007z"/>
</g>
<g>
	
		<line fill-rule="evenodd" clip-rule="evenodd" fill="none" stroke="#000000" stroke-linecap="round" stroke-linejoin="round" stroke-miterlimit="10" x1="546.757" y1="38.631" x2="600.512" y2="38.631"/>
</g>
<g>
	<path d="M283.605,75.079h2.345v18.916h-2.345V75.079z"/>
</g>
<g>
	<path d="M290.91,97.025c0.031,1.835,1.188,2.592,2.561,2.592c0.972,0,1.574-0.17,2.067-0.386l0.247,0.972
		c-0.478,0.216-1.311,0.479-2.499,0.479c-2.299,0-3.671-1.527-3.671-3.78s1.327-4.011,3.501-4.011c2.453,0,3.085,2.129,3.085,3.501
		c0,0.278-0.015,0.479-0.046,0.633H290.91z M294.891,96.053c0.015-0.848-0.355-2.19-1.882-2.19c-1.388,0-1.975,1.25-2.083,2.19
		H294.891z"/>
</g>
<g>
	<path d="M174.392,41.068h2.345v18.916h-2.345V41.068z"/>
</g>
<g>
	<path d="M180.852,65.223c0.417,0.247,1.126,0.524,1.805,0.524c0.972,0,1.435-0.478,1.435-1.11c0-0.648-0.386-0.987-1.373-1.358
		c-1.357-0.494-1.99-1.219-1.99-2.113c0-1.203,0.987-2.19,2.577-2.19c0.756,0,1.419,0.2,1.82,0.462l-0.324,0.987
		c-0.293-0.185-0.833-0.447-1.527-0.447c-0.802,0-1.234,0.463-1.234,1.018c0,0.617,0.432,0.895,1.404,1.281
		c1.28,0.478,1.959,1.126,1.959,2.237c0,1.327-1.033,2.252-2.776,2.252c-0.818,0-1.574-0.216-2.098-0.525L180.852,65.223z"/>
</g>
</svg>
