<?xml version="1.0" encoding="utf-8"?>
<!-- Generator: Adobe Illustrator 15.0.0, SVG Export Plug-In . SVG Version: 6.00 Build 0)  -->
<!DOCTYPE svg PUBLIC "-//W3C//DTD SVG 1.1//EN" "http://www.w3.org/Graphics/SVG/1.1/DTD/svg11.dtd">
<svg version="1.1" xmlns="http://www.w3.org/2000/svg" xmlns:xlink="http://www.w3.org/1999/xlink" x="0px" y="0px" width="738px"
	 height="372px" viewBox="0 0 738 372" enable-background="new 0 0 738 372" xml:space="preserve">
<g>
	
		<polyline fill-rule="evenodd" clip-rule="evenodd" fill="none" stroke="#48484A" stroke-width="2" stroke-linecap="round" stroke-linejoin="round" stroke-miterlimit="10" points="
		733.111,331.384 93.567,331.384 93.567,8.611 	"/>
</g>
<g>
	<polyline fill="#48484A" stroke="#48484A" stroke-linecap="round" stroke-linejoin="round" stroke-miterlimit="10" points="
		711.522,339.805 733.111,331.384 711.522,323.053 711.522,339.805 	"/>
</g>
<g>
	<polyline fill="#48484A" stroke="#48484A" stroke-linecap="round" stroke-linejoin="round" stroke-miterlimit="10" points="
		85.146,30.112 93.567,8.611 101.9,30.112 85.146,30.112 	"/>
</g>
<g>
	
		<line fill="none" stroke="#48484A" stroke-width="2" stroke-linecap="round" stroke-linejoin="round" stroke-miterlimit="10" x1="459.072" y1="241.53" x2="459.072" y2="330.488"/>
</g>
<g>
	
		<line fill="none" stroke="#48484A" stroke-width="2" stroke-linecap="round" stroke-linejoin="round" stroke-miterlimit="10" x1="276.767" y1="169.952" x2="276.767" y2="330.488"/>
</g>
<g>
	
		<path fill-rule="evenodd" clip-rule="evenodd" stroke="#48484A" stroke-linecap="round" stroke-linejoin="round" stroke-miterlimit="10" d="
		M283.935,169.951c-0.007-5.517-5.971-8.96-10.752-6.205c-4.779,2.772-4.77,9.661,0.009,12.418
		C277.975,178.912,283.93,175.469,283.935,169.951"/>
</g>
<g>
	
		<path fill-rule="evenodd" clip-rule="evenodd" stroke="#48484A" stroke-linecap="round" stroke-linejoin="round" stroke-miterlimit="10" d="
		M464.537,239.738c-0.006-5.517-5.972-8.961-10.751-6.205c-4.779,2.773-4.77,9.661,0.009,12.417
		C458.578,248.7,464.533,245.255,464.537,239.738"/>
</g>
<g>
	<path d="M4.312,44.016h2.341v18.883H4.312V44.016z"/>
	<path d="M22.238,56.357c0,4.761-3.324,6.835-6.41,6.835c-3.458,0-6.17-2.553-6.17-6.622c0-4.282,2.846-6.809,6.383-6.809
		C19.738,49.761,22.238,52.447,22.238,56.357z M12.052,56.49c0,2.819,1.596,4.947,3.883,4.947c2.234,0,3.91-2.101,3.91-5
		c0-2.181-1.091-4.92-3.856-4.92C13.249,51.516,12.052,54.07,12.052,56.49z"/>
	<path d="M36.202,61.011c0,2.979-0.612,4.761-1.835,5.905c-1.277,1.144-3.085,1.542-4.708,1.542c-1.542,0-3.245-0.372-4.282-1.064
		l0.585-1.808c0.851,0.558,2.181,1.037,3.777,1.037c2.394,0,4.149-1.25,4.149-4.521v-1.41h-0.053
		c-0.691,1.197-2.101,2.154-4.096,2.154c-3.192,0-5.479-2.713-5.479-6.277c0-4.362,2.846-6.809,5.824-6.809
		c2.234,0,3.431,1.144,4.016,2.208h0.053l0.08-1.942h2.074c-0.08,0.904-0.106,1.968-0.106,3.511V61.011z M33.861,55.107
		c0-0.399-0.027-0.745-0.133-1.037c-0.426-1.383-1.542-2.5-3.271-2.5c-2.234,0-3.83,1.888-3.83,4.867
		c0,2.527,1.303,4.628,3.803,4.628c1.463,0,2.766-0.904,3.245-2.394c0.133-0.399,0.186-0.851,0.186-1.25V55.107z"/>
</g>
<g>
	<path d="M51.552,45.675c1.375-0.233,3.009-0.389,4.799-0.389c3.242,0,5.551,0.778,7.082,2.179c1.582,1.427,2.49,3.45,2.49,6.278
		c0,2.853-0.908,5.188-2.516,6.796c-1.66,1.634-4.358,2.516-7.756,2.516c-1.634,0-2.957-0.078-4.098-0.208V45.675z M53.809,61.135
		c0.571,0.078,1.401,0.104,2.283,0.104c4.851,0,7.445-2.698,7.445-7.419c0.026-4.124-2.309-6.744-7.082-6.744
		c-1.167,0-2.049,0.104-2.646,0.233V61.135z"/>
</g>
<g>
	<path d="M67.615,60.08c1.037,0.665,2.527,1.17,4.122,1.17c2.367,0,3.75-1.25,3.75-3.059c0-1.649-0.958-2.633-3.378-3.537
		c-2.926-1.064-4.734-2.606-4.734-5.106c0-2.792,2.314-4.867,5.798-4.867c1.809,0,3.165,0.426,3.936,0.878l-0.638,1.888
		c-0.559-0.346-1.755-0.851-3.378-0.851c-2.447,0-3.378,1.463-3.378,2.686c0,1.676,1.09,2.5,3.564,3.458
		c3.032,1.17,4.548,2.633,4.548,5.266c0,2.766-2.021,5.186-6.25,5.186c-1.729,0-3.617-0.532-4.575-1.17L67.615,60.08z"/>
</g>
<g>
	<path d="M372.046,167.765c1.17-0.212,2.872-0.372,4.441-0.372c2.474,0,4.096,0.479,5.186,1.463c0.878,0.798,1.41,2.021,1.41,3.431
		c0,2.34-1.489,3.91-3.351,4.548v0.08c1.356,0.479,2.181,1.755,2.606,3.617c0.585,2.5,1.011,4.229,1.383,4.92h-2.394
		c-0.292-0.532-0.691-2.048-1.17-4.282c-0.532-2.474-1.516-3.404-3.617-3.484h-2.181v7.766h-2.313V167.765z M374.359,175.93h2.367
		c2.474,0,4.042-1.356,4.042-3.404c0-2.314-1.675-3.324-4.122-3.324c-1.117,0-1.889,0.08-2.288,0.186V175.93z"/>
	<path d="M401.461,177.579c-0.133-2.5-0.292-5.532-0.292-7.739h-0.053c-0.638,2.074-1.356,4.335-2.261,6.809l-3.165,8.697h-1.755
		l-2.925-8.537c-0.851-2.553-1.543-4.841-2.048-6.968h-0.053c-0.053,2.234-0.187,5.213-0.346,7.926l-0.479,7.686h-2.208l1.25-17.926
		h2.952l3.059,8.67c0.745,2.208,1.33,4.175,1.809,6.037h0.053c0.479-1.809,1.117-3.776,1.915-6.037l3.191-8.67h2.952l1.117,17.926
		h-2.288L401.461,177.579z"/>
	<path d="M406.915,185.451v-1.436l1.835-1.782c4.415-4.202,6.437-6.436,6.437-9.042c0-1.755-0.825-3.378-3.404-3.378
		c-1.569,0-2.873,0.798-3.67,1.463l-0.745-1.649c1.17-0.984,2.899-1.755,4.867-1.755c3.723,0,5.292,2.553,5.292,5.027
		c0,3.191-2.314,5.771-5.958,9.282l-1.356,1.277v0.053h7.74v1.941H406.915z"/>
</g>
<g>
	<path d="M231.669,92.872c1.17-0.213,2.872-0.373,4.441-0.373c2.474,0,4.096,0.479,5.186,1.463c0.878,0.798,1.41,2.021,1.41,3.431
		c0,2.34-1.489,3.91-3.351,4.548v0.08c1.356,0.479,2.181,1.755,2.606,3.617c0.585,2.5,1.011,4.229,1.383,4.92h-2.394
		c-0.292-0.532-0.691-2.048-1.17-4.282c-0.532-2.474-1.516-3.404-3.617-3.484h-2.181v7.766h-2.313V92.872z M233.982,101.037h2.367
		c2.474,0,4.042-1.356,4.042-3.404c0-2.314-1.675-3.324-4.122-3.324c-1.117,0-1.889,0.08-2.288,0.186V101.037z"/>
	<path d="M261.084,102.686c-0.133-2.5-0.292-5.532-0.292-7.739h-0.053c-0.638,2.074-1.356,4.335-2.261,6.809l-3.165,8.697h-1.755
		l-2.925-8.537c-0.851-2.553-1.543-4.841-2.048-6.968h-0.053c-0.053,2.234-0.187,5.213-0.346,7.926l-0.479,7.686h-2.208l1.25-17.926
		h2.952l3.059,8.67c0.745,2.208,1.33,4.175,1.809,6.037h0.053c0.479-1.809,1.117-3.776,1.915-6.037l3.191-8.67h2.952l1.117,17.926
		h-2.288L261.084,102.686z"/>
	<path d="M271.618,95.452h-0.053l-3.005,1.622l-0.452-1.782l3.776-2.021h1.995v17.287h-2.26V95.452z"/>
	<path d="M279.41,113.856c0.585-1.596,1.303-4.441,1.596-6.383l2.606-0.266c-0.639,2.261-1.809,5.213-2.553,6.463L279.41,113.856z"
		/>
	<path d="M286.512,92.872c1.17-0.213,2.872-0.373,4.441-0.373c2.474,0,4.096,0.479,5.186,1.463c0.878,0.798,1.41,2.021,1.41,3.431
		c0,2.34-1.489,3.91-3.351,4.548v0.08c1.356,0.479,2.181,1.755,2.606,3.617c0.585,2.5,1.011,4.229,1.383,4.92h-2.394
		c-0.292-0.532-0.691-2.048-1.17-4.282c-0.532-2.474-1.516-3.404-3.617-3.484h-2.181v7.766h-2.313V92.872z M288.825,101.037h2.367
		c2.474,0,4.042-1.356,4.042-3.404c0-2.314-1.675-3.324-4.122-3.324c-1.117,0-1.889,0.08-2.288,0.186V101.037z"/>
	<path d="M313.4,110c-0.825,0.426-2.553,0.851-4.734,0.851c-5.053,0-8.83-3.191-8.83-9.096c0-5.638,3.803-9.415,9.362-9.415
		c2.208,0,3.644,0.479,4.255,0.798l-0.585,1.888c-0.851-0.425-2.101-0.745-3.591-0.745c-4.202,0-6.995,2.686-6.995,7.394
		c0,4.415,2.527,7.208,6.862,7.208c1.436,0,2.873-0.292,3.803-0.745L313.4,110z"/>
	<path d="M320.582,95.452h-0.053l-3.005,1.622l-0.452-1.782l3.776-2.021h1.995v17.287h-2.26V95.452z"/>
</g>
<g>
	<path d="M632.03,345.29h2.34v18.883h-2.34V345.29z"/>
	<path d="M649.957,357.63c0,4.761-3.325,6.835-6.41,6.835c-3.458,0-6.17-2.553-6.17-6.623c0-4.282,2.846-6.809,6.383-6.809
		C647.456,351.034,649.957,353.721,649.957,357.63z M639.77,357.763c0,2.819,1.596,4.947,3.883,4.947c2.234,0,3.91-2.101,3.91-5
		c0-2.181-1.09-4.92-3.856-4.92C640.967,352.79,639.77,355.343,639.77,357.763z"/>
	<path d="M663.92,362.285c0,2.979-0.611,4.761-1.835,5.904c-1.277,1.144-3.085,1.542-4.708,1.542c-1.542,0-3.245-0.373-4.282-1.064
		l0.585-1.809c0.851,0.559,2.181,1.038,3.776,1.038c2.394,0,4.149-1.25,4.149-4.521v-1.41h-0.053
		c-0.692,1.197-2.101,2.154-4.096,2.154c-3.191,0-5.479-2.713-5.479-6.277c0-4.361,2.846-6.809,5.824-6.809
		c2.234,0,3.431,1.144,4.016,2.208h0.053l0.08-1.941h2.074c-0.08,0.904-0.106,1.968-0.106,3.511V362.285z M661.58,356.38
		c0-0.399-0.026-0.745-0.133-1.038c-0.426-1.383-1.542-2.5-3.271-2.5c-2.234,0-3.83,1.889-3.83,4.867
		c0,2.527,1.303,4.628,3.803,4.628c1.462,0,2.766-0.904,3.245-2.394c0.133-0.399,0.186-0.851,0.186-1.25V356.38z"/>
	<path d="M673.495,364.173v-17.926h2.553l5.718,9.069c1.303,2.101,2.367,3.989,3.192,5.825l0.08-0.027
		c-0.213-2.394-0.266-4.575-0.266-7.367v-7.5h2.181v17.926h-2.34l-5.692-9.096c-1.25-1.995-2.447-4.043-3.324-5.984l-0.08,0.027
		c0.133,2.261,0.16,4.415,0.16,7.394v7.66H673.495z"/>
</g>
<g>
	<path d="M246.45,346.486c1.17-0.212,2.872-0.372,4.441-0.372c2.474,0,4.096,0.479,5.186,1.463c0.878,0.798,1.41,2.021,1.41,3.431
		c0,2.34-1.489,3.91-3.351,4.548v0.08c1.356,0.479,2.181,1.755,2.606,3.617c0.585,2.5,1.011,4.229,1.383,4.92h-2.394
		c-0.292-0.532-0.691-2.048-1.17-4.282c-0.532-2.474-1.516-3.404-3.617-3.484h-2.181v7.766h-2.313V346.486z M248.764,354.651h2.367
		c2.474,0,4.042-1.356,4.042-3.404c0-2.314-1.675-3.324-4.122-3.324c-1.117,0-1.889,0.08-2.288,0.186V354.651z"/>
	<path d="M260.759,364.173v-17.926h2.553l5.718,9.069c1.303,2.101,2.367,3.989,3.192,5.825l0.08-0.027
		c-0.213-2.394-0.266-4.575-0.266-7.367v-7.5h2.181v17.926h-2.34l-5.692-9.096c-1.25-1.995-2.447-4.043-3.324-5.984l-0.08,0.027
		c0.133,2.261,0.16,4.415,0.16,7.394v7.66H260.759z"/>
	<path d="M290.76,363.614c-0.825,0.426-2.553,0.851-4.734,0.851c-5.054,0-8.83-3.191-8.83-9.096c0-5.639,3.803-9.415,9.362-9.415
		c2.208,0,3.644,0.479,4.255,0.798l-0.585,1.888c-0.851-0.425-2.101-0.745-3.591-0.745c-4.202,0-6.995,2.686-6.995,7.394
		c0,4.415,2.527,7.208,6.862,7.208c1.436,0,2.873-0.292,3.803-0.745L290.76,363.614z"/>
	<path d="M292.862,364.173v-1.436l1.835-1.782c4.415-4.202,6.437-6.436,6.437-9.042c0-1.755-0.825-3.378-3.404-3.378
		c-1.569,0-2.873,0.798-3.67,1.463l-0.745-1.649c1.17-0.984,2.899-1.755,4.867-1.755c3.723,0,5.292,2.553,5.292,5.027
		c0,3.191-2.314,5.771-5.958,9.282l-1.356,1.277v0.053h7.74v1.941H292.862z"/>
</g>
<g>
	
		<line fill-rule="evenodd" clip-rule="evenodd" fill="none" stroke="#48484A" stroke-width="3" stroke-linecap="round" stroke-linejoin="round" stroke-miterlimit="10" x1="150.096" y1="116.918" x2="597.211" y2="290.534"/>
</g>
<g>
	<path d="M546.826,229.041c1.17-0.212,2.872-0.372,4.441-0.372c2.474,0,4.096,0.479,5.186,1.462c0.878,0.798,1.41,2.021,1.41,3.431
		c0,2.34-1.489,3.91-3.351,4.548v0.08c1.356,0.479,2.181,1.755,2.606,3.617c0.585,2.5,1.011,4.229,1.383,4.92h-2.394
		c-0.292-0.532-0.691-2.048-1.17-4.282c-0.532-2.474-1.516-3.404-3.617-3.484h-2.181v7.766h-2.313V229.041z M549.14,237.206h2.367
		c2.474,0,4.042-1.356,4.042-3.404c0-2.314-1.675-3.324-4.122-3.324c-1.117,0-1.889,0.08-2.288,0.186V237.206z"/>
	<path d="M576.242,238.854c-0.133-2.5-0.292-5.532-0.292-7.739h-0.053c-0.638,2.074-1.356,4.335-2.261,6.809l-3.165,8.697h-1.755
		l-2.925-8.537c-0.851-2.553-1.543-4.841-2.048-6.968h-0.053c-0.053,2.234-0.187,5.213-0.346,7.926l-0.479,7.686h-2.208l1.25-17.926
		h2.952l3.059,8.67c0.745,2.208,1.33,4.175,1.809,6.037h0.053c0.479-1.809,1.117-3.776,1.915-6.037l3.191-8.67h2.952l1.117,17.926
		h-2.288L576.242,238.854z"/>
	<path d="M582.253,244.067c0.665,0.399,2.181,1.064,3.83,1.064c2.979,0,3.937-1.888,3.91-3.351c-0.026-2.42-2.208-3.458-4.468-3.458
		h-1.303v-1.755h1.303c1.702,0,3.856-0.878,3.856-2.926c0-1.383-0.878-2.606-3.032-2.606c-1.383,0-2.713,0.612-3.458,1.144
		l-0.638-1.702c0.931-0.665,2.686-1.33,4.548-1.33c3.404,0,4.947,2.021,4.947,4.123c0,1.809-1.09,3.324-3.191,4.096v0.053
		c2.128,0.399,3.83,1.995,3.856,4.415c0,2.766-2.181,5.186-6.303,5.186c-1.941,0-3.644-0.612-4.495-1.17L582.253,244.067z"/>
</g>
<g>
	<path d="M428.037,346.486c1.17-0.212,2.872-0.372,4.441-0.372c2.474,0,4.096,0.479,5.186,1.463c0.878,0.798,1.41,2.021,1.41,3.431
		c0,2.34-1.489,3.91-3.351,4.548v0.08c1.356,0.479,2.181,1.755,2.606,3.617c0.585,2.5,1.011,4.229,1.383,4.92h-2.394
		c-0.292-0.532-0.691-2.048-1.17-4.282c-0.532-2.474-1.516-3.404-3.617-3.484h-2.181v7.766h-2.313V346.486z M430.351,354.651h2.367
		c2.474,0,4.042-1.356,4.042-3.404c0-2.314-1.675-3.324-4.122-3.324c-1.117,0-1.889,0.08-2.288,0.186V354.651z"/>
	<path d="M442.346,364.173v-17.926h2.553l5.718,9.069c1.303,2.101,2.367,3.989,3.192,5.825l0.08-0.027
		c-0.213-2.394-0.266-4.575-0.266-7.367v-7.5h2.181v17.926h-2.34l-5.692-9.096c-1.25-1.995-2.447-4.043-3.324-5.984l-0.08,0.027
		c0.133,2.261,0.16,4.415,0.16,7.394v7.66H442.346z"/>
	<path d="M472.347,363.614c-0.825,0.426-2.553,0.851-4.734,0.851c-5.054,0-8.83-3.191-8.83-9.096c0-5.639,3.803-9.415,9.362-9.415
		c2.208,0,3.644,0.479,4.255,0.798l-0.585,1.888c-0.851-0.425-2.101-0.745-3.591-0.745c-4.202,0-6.995,2.686-6.995,7.394
		c0,4.415,2.527,7.208,6.862,7.208c1.436,0,2.873-0.292,3.803-0.745L472.347,363.614z"/>
	<path d="M475.007,361.513c0.665,0.399,2.181,1.064,3.83,1.064c2.979,0,3.937-1.888,3.91-3.351c-0.026-2.42-2.208-3.458-4.468-3.458
		h-1.303v-1.755h1.303c1.702,0,3.856-0.878,3.856-2.926c0-1.383-0.878-2.606-3.032-2.606c-1.383,0-2.713,0.612-3.458,1.144
		l-0.638-1.702c0.931-0.665,2.686-1.33,4.548-1.33c3.404,0,4.947,2.021,4.947,4.123c0,1.809-1.09,3.324-3.191,4.096v0.053
		c2.128,0.399,3.83,1.995,3.856,4.415c0,2.766-2.181,5.186-6.303,5.186c-1.941,0-3.644-0.612-4.495-1.17L475.007,361.513z"/>
</g>
</svg>
