<?xml version="1.0" encoding="utf-8"?>
<!-- Generator: Adobe Illustrator 15.0.0, SVG Export Plug-In . SVG Version: 6.00 Build 0)  -->
<!DOCTYPE svg PUBLIC "-//W3C//DTD SVG 1.1//EN" "http://www.w3.org/Graphics/SVG/1.1/DTD/svg11.dtd">
<svg version="1.1" id="_x3C_Layer_x3E_" xmlns="http://www.w3.org/2000/svg" xmlns:xlink="http://www.w3.org/1999/xlink" x="0px"
	 y="0px" width="719.138px" height="347.5px" viewBox="0 0 719.138 347.5" enable-background="new 0 0 719.138 347.5"
	 xml:space="preserve">
<g>
	
		<polyline fill-rule="evenodd" clip-rule="evenodd" fill="none" stroke="#000000" stroke-width="2" stroke-linecap="round" stroke-linejoin="round" stroke-miterlimit="10" points="
		112.277,36.555 112.277,302.482 717.474,302.482 	"/>
</g>
<g>
	
		<polyline fill-rule="evenodd" clip-rule="evenodd" stroke="#000000" stroke-width="2" stroke-linecap="round" stroke-linejoin="round" stroke-miterlimit="10" points="
		123.021,57.865 112.277,36.555 101.623,57.865 123.021,57.865 	"/>
</g>
<g>
	
		<polyline fill-rule="evenodd" clip-rule="evenodd" stroke="#000000" stroke-width="2" stroke-linecap="round" stroke-linejoin="round" stroke-miterlimit="10" points="
		696.076,291.829 717.474,302.482 696.076,313.138 696.076,291.829 	"/>
</g>
<g>
	
		<polyline fill-rule="evenodd" clip-rule="evenodd" fill="none" stroke="#000000" stroke-width="2" stroke-linecap="round" stroke-linejoin="round" stroke-miterlimit="10" points="
		115.296,298.044 227.351,229.32 365.597,186.7 604.621,112.028 	"/>
</g>
<g>
	
		<polyline fill-rule="evenodd" clip-rule="evenodd" fill="none" stroke="#000000" stroke-width="2" stroke-linecap="round" stroke-linejoin="round" stroke-miterlimit="10" stroke-dasharray="16,8" points="
		112.277,185.19 365.597,185.19 365.597,301.772 	"/>
</g>
<g>
	
		<polyline fill-rule="evenodd" clip-rule="evenodd" fill="none" stroke="#000000" stroke-width="2" stroke-linecap="round" stroke-linejoin="round" stroke-miterlimit="10" stroke-dasharray="16,8" points="
		112.277,229.32 227.351,229.32 227.351,298.755 	"/>
</g>
<g>
	
		<path fill-rule="evenodd" clip-rule="evenodd" stroke="#000000" stroke-linecap="round" stroke-linejoin="round" stroke-miterlimit="10" d="
		M233.743,229.23c-0.003-4.921-5.326-7.993-9.59-5.535c-4.263,2.473-4.255,8.619,0.008,11.076c4.267,2.452,9.579-0.619,9.582-5.539"
		/>
</g>
<g>
	
		<path fill-rule="evenodd" clip-rule="evenodd" stroke="#000000" stroke-linecap="round" stroke-linejoin="round" stroke-miterlimit="10" d="
		M372.522,185.189c-0.005-5.4-5.844-8.769-10.522-6.073c-4.678,2.714-4.668,9.456,0.008,12.153
		C366.691,193.96,372.52,190.59,372.522,185.189"/>
</g>
<g>
	<path d="M49.966,23.004c1.131,0.725,2.754,1.276,4.494,1.276c2.581,0,4.088-1.363,4.088-3.334c0-1.798-1.043-2.871-3.682-3.856
		c-3.189-1.16-5.161-2.841-5.161-5.566c0-3.044,2.522-5.306,6.32-5.306c1.971,0,3.45,0.464,4.291,0.957l-0.696,2.058
		c-0.609-0.377-1.914-0.928-3.682-0.928c-2.667,0-3.682,1.595-3.682,2.928c0,1.827,1.188,2.725,3.885,3.769
		c3.305,1.275,4.958,2.87,4.958,5.74c0,3.015-2.203,5.653-6.813,5.653c-1.884,0-3.943-0.58-4.986-1.275L49.966,23.004z"/>
	<path d="M67.477,8.682v3.363h3.653v1.943h-3.653v7.567c0,1.739,0.493,2.725,1.914,2.725c0.696,0,1.102-0.058,1.479-0.174
		l0.116,1.943c-0.493,0.174-1.276,0.348-2.262,0.348c-1.188,0-2.146-0.406-2.754-1.073c-0.696-0.783-0.986-2.029-0.986-3.682v-7.654
		H62.81v-1.943h2.174V9.436L67.477,8.682z"/>
	<path d="M76.841,8.103c0,0.87-0.609,1.565-1.624,1.565c-0.928,0-1.537-0.696-1.537-1.565c0-0.87,0.638-1.595,1.595-1.595
		C76.203,6.508,76.841,7.204,76.841,8.103z M74,26.077V12.045h2.551v14.032H74z"/>
	<path d="M89.481,26.077V13.988h-5.915v12.089h-2.522V13.988h-1.942v-1.943h1.942V11.61c0-1.972,0.464-3.653,1.565-4.784
		c0.812-0.812,1.971-1.305,3.537-1.305c0.812,0,1.565,0.261,2,0.493l-0.522,1.914c-0.377-0.203-0.928-0.377-1.508-0.377
		c-2,0-2.551,1.71-2.551,3.914v0.58h5.915v-0.667c0-1.972,0.435-3.769,1.624-4.9c0.957-0.928,2.232-1.304,3.392-1.304
		c0.928,0,1.71,0.203,2.174,0.406l-0.319,1.971c-0.406-0.174-0.899-0.319-1.653-0.319c-2.145,0-2.696,1.885-2.696,4.059v0.753h3.363
		v1.943h-3.363v12.089H89.481z"/>
	<path d="M97.685,15.843c0-1.479-0.029-2.638-0.116-3.798h2.261l0.145,2.319h0.058c0.696-1.304,2.319-2.609,4.639-2.609
		c1.942,0,4.958,1.16,4.958,5.972v8.35h-2.551v-8.089c0-2.261-0.841-4.146-3.247-4.146c-1.652,0-2.957,1.188-3.421,2.609
		c-0.116,0.319-0.174,0.753-0.174,1.188v8.437h-2.551V15.843z"/>
	<path d="M115.195,19.525c0.058,3.45,2.232,4.871,4.813,4.871c1.827,0,2.957-0.319,3.885-0.725l0.464,1.826
		c-0.898,0.406-2.464,0.899-4.696,0.899c-4.32,0-6.9-2.87-6.9-7.103c0-4.232,2.493-7.538,6.581-7.538c4.61,0,5.798,4,5.798,6.581
		c0,0.522-0.029,0.899-0.087,1.188H115.195z M122.675,17.699c0.029-1.595-0.667-4.117-3.537-4.117c-2.609,0-3.711,2.349-3.914,4.117
		H122.675z"/>
	<path d="M127.951,23.497c0.783,0.464,2.116,0.985,3.392,0.985c1.826,0,2.696-0.898,2.696-2.087c0-1.217-0.725-1.855-2.581-2.551
		c-2.551-0.928-3.74-2.29-3.74-3.972c0-2.261,1.855-4.117,4.842-4.117c1.42,0,2.667,0.377,3.421,0.87l-0.609,1.855
		c-0.551-0.348-1.565-0.841-2.87-0.841c-1.508,0-2.319,0.87-2.319,1.914c0,1.16,0.812,1.682,2.638,2.406
		c2.406,0.899,3.682,2.116,3.682,4.204c0,2.494-1.942,4.233-5.218,4.233c-1.537,0-2.957-0.406-3.943-0.986L127.951,23.497z"/>
	<path d="M139.431,23.497c0.783,0.464,2.116,0.985,3.392,0.985c1.826,0,2.696-0.898,2.696-2.087c0-1.217-0.725-1.855-2.581-2.551
		c-2.551-0.928-3.74-2.29-3.74-3.972c0-2.261,1.855-4.117,4.841-4.117c1.421,0,2.667,0.377,3.421,0.87l-0.609,1.855
		c-0.551-0.348-1.565-0.841-2.87-0.841c-1.508,0-2.319,0.87-2.319,1.914c0,1.16,0.812,1.682,2.638,2.406
		c2.406,0.899,3.682,2.116,3.682,4.204c0,2.494-1.943,4.233-5.219,4.233c-1.537,0-2.957-0.406-3.943-0.986L139.431,23.497z"/>
</g>
<g>
	<path d="M315.503,317.27c1.218-0.203,2.813-0.377,4.842-0.377c2.493,0,4.319,0.58,5.479,1.624c1.044,0.928,1.711,2.349,1.711,4.088
		c0,1.769-0.522,3.16-1.508,4.175c-1.363,1.421-3.508,2.146-5.973,2.146c-0.754,0-1.449-0.029-2.029-0.174v7.828h-2.522V317.27z
		 M318.025,326.692c0.551,0.145,1.247,0.203,2.088,0.203c3.044,0,4.899-1.508,4.899-4.146c0-2.609-1.855-3.856-4.61-3.856
		c-1.102,0-1.942,0.087-2.377,0.203V326.692z"/>
	<path d="M330.926,317.299c1.275-0.232,3.131-0.406,4.842-0.406c2.696,0,4.465,0.522,5.653,1.595c0.957,0.87,1.537,2.203,1.537,3.74
		c0,2.551-1.624,4.262-3.653,4.958v0.087c1.479,0.521,2.377,1.913,2.841,3.943c0.638,2.725,1.102,4.609,1.508,5.363h-2.609
		c-0.318-0.58-0.754-2.232-1.275-4.667c-0.58-2.696-1.652-3.711-3.943-3.798h-2.377v8.466h-2.522V317.299z M333.448,326.199h2.58
		c2.696,0,4.407-1.479,4.407-3.711c0-2.522-1.827-3.624-4.494-3.624c-1.218,0-2.059,0.087-2.493,0.203V326.199z"/>
	<path d="M356.611,327.417h-7.566v7.045h8.466v2.116h-11.017v-19.541h10.582v2.117h-8.031v6.175h7.566V327.417z"/>
	<path d="M360.468,333.505c1.13,0.725,2.754,1.276,4.493,1.276c2.58,0,4.088-1.363,4.088-3.334c0-1.798-1.044-2.871-3.682-3.856
		c-3.189-1.16-5.16-2.841-5.16-5.566c0-3.044,2.521-5.306,6.319-5.306c1.972,0,3.45,0.464,4.291,0.957l-0.695,2.058
		c-0.609-0.377-1.914-0.928-3.683-0.928c-2.667,0-3.682,1.595-3.682,2.928c0,1.827,1.188,2.725,3.885,3.769
		c3.305,1.275,4.958,2.87,4.958,5.74c0,3.015-2.204,5.653-6.813,5.653c-1.885,0-3.942-0.58-4.986-1.275L360.468,333.505z"/>
	<path d="M374.76,333.505c1.131,0.725,2.754,1.276,4.493,1.276c2.58,0,4.088-1.363,4.088-3.334c0-1.798-1.044-2.871-3.682-3.856
		c-3.189-1.16-5.161-2.841-5.161-5.566c0-3.044,2.522-5.306,6.32-5.306c1.972,0,3.45,0.464,4.291,0.957l-0.695,2.058
		c-0.609-0.377-1.914-0.928-3.683-0.928c-2.667,0-3.682,1.595-3.682,2.928c0,1.827,1.188,2.725,3.885,3.769
		c3.306,1.275,4.958,2.87,4.958,5.74c0,3.015-2.204,5.653-6.813,5.653c-1.885,0-3.942-0.58-4.986-1.275L374.76,333.505z"/>
	<path d="M394.792,316.458c-2.116,2.87-3.624,6.61-3.624,11.887c0,5.16,1.595,8.842,3.624,11.741h-1.972
		c-1.826-2.406-3.798-6.117-3.798-11.771c0.029-5.682,1.972-9.422,3.798-11.857H394.792z"/>
	<path d="M396.705,336.578v-1.565l2-1.942c4.813-4.581,7.017-7.016,7.017-9.857c0-1.914-0.899-3.682-3.711-3.682
		c-1.711,0-3.132,0.87-4.001,1.594l-0.812-1.797c1.275-1.073,3.16-1.914,5.305-1.914c4.06,0,5.77,2.783,5.77,5.479
		c0,3.479-2.522,6.291-6.494,10.118l-1.479,1.392v0.058h8.437v2.116H396.705z"/>
	<path d="M410.853,340.086c2.029-2.87,3.624-6.61,3.624-11.829c0-5.218-1.565-8.9-3.624-11.799h1.972
		c1.826,2.377,3.798,6.117,3.798,11.799c-0.029,5.683-1.972,9.394-3.798,11.829H410.853z"/>
</g>
<g>
	<path d="M155.946,317.27c1.218-0.203,2.813-0.377,4.842-0.377c2.493,0,4.32,0.58,5.479,1.624c1.044,0.928,1.71,2.349,1.71,4.088
		c0,1.769-0.522,3.16-1.507,4.175c-1.363,1.421-3.508,2.146-5.973,2.146c-0.753,0-1.449-0.029-2.029-0.174v7.828h-2.522V317.27z
		 M158.469,326.692c0.551,0.145,1.247,0.203,2.087,0.203c3.044,0,4.9-1.508,4.9-4.146c0-2.609-1.855-3.856-4.61-3.856
		c-1.102,0-1.942,0.087-2.377,0.203V326.692z"/>
	<path d="M171.369,317.299c1.276-0.232,3.131-0.406,4.842-0.406c2.696,0,4.465,0.522,5.653,1.595c0.957,0.87,1.537,2.203,1.537,3.74
		c0,2.551-1.624,4.262-3.653,4.958v0.087c1.479,0.521,2.377,1.913,2.841,3.943c0.638,2.725,1.102,4.609,1.507,5.363h-2.609
		c-0.319-0.58-0.753-2.232-1.275-4.667c-0.58-2.696-1.652-3.711-3.943-3.798h-2.377v8.466h-2.522V317.299z M173.892,326.199h2.58
		c2.696,0,4.407-1.479,4.407-3.711c0-2.522-1.827-3.624-4.494-3.624c-1.217,0-2.058,0.087-2.493,0.203V326.199z"/>
	<path d="M197.056,327.417h-7.567v7.045h8.466v2.116h-11.017v-19.541h10.582v2.117h-8.031v6.175h7.567V327.417z"/>
	<path d="M200.91,333.505c1.131,0.725,2.754,1.276,4.494,1.276c2.58,0,4.087-1.363,4.087-3.334c0-1.798-1.043-2.871-3.682-3.856
		c-3.189-1.16-5.161-2.841-5.161-5.566c0-3.044,2.522-5.306,6.32-5.306c1.971,0,3.45,0.464,4.291,0.957l-0.696,2.058
		c-0.609-0.377-1.913-0.928-3.682-0.928c-2.667,0-3.682,1.595-3.682,2.928c0,1.827,1.188,2.725,3.885,3.769
		c3.305,1.275,4.958,2.87,4.958,5.74c0,3.015-2.203,5.653-6.813,5.653c-1.884,0-3.943-0.58-4.986-1.275L200.91,333.505z"/>
	<path d="M215.203,333.505c1.131,0.725,2.754,1.276,4.494,1.276c2.581,0,4.088-1.363,4.088-3.334c0-1.798-1.043-2.871-3.682-3.856
		c-3.189-1.16-5.161-2.841-5.161-5.566c0-3.044,2.522-5.306,6.32-5.306c1.971,0,3.45,0.464,4.291,0.957l-0.696,2.058
		c-0.609-0.377-1.914-0.928-3.682-0.928c-2.667,0-3.682,1.595-3.682,2.928c0,1.827,1.188,2.725,3.885,3.769
		c3.305,1.275,4.958,2.87,4.958,5.74c0,3.015-2.203,5.653-6.813,5.653c-1.884,0-3.943-0.58-4.986-1.275L215.203,333.505z"/>
	<path d="M235.236,316.458c-2.117,2.87-3.624,6.61-3.624,11.887c0,5.16,1.594,8.842,3.624,11.741h-1.972
		c-1.827-2.406-3.798-6.117-3.798-11.771c0.029-5.682,1.971-9.422,3.798-11.857H235.236z"/>
	<path d="M242.686,320.111h-0.058l-3.276,1.769l-0.493-1.942l4.117-2.204h2.174v18.845h-2.464V320.111z"/>
	<path d="M251.296,340.086c2.029-2.87,3.624-6.61,3.624-11.829c0-5.218-1.565-8.9-3.624-11.799h1.971
		c1.827,2.377,3.798,6.117,3.798,11.799c-0.029,5.683-1.971,9.394-3.798,11.829H251.296z"/>
</g>
<g>
	<path d="M559.943,317.27c1.218-0.203,2.813-0.377,4.842-0.377c2.493,0,4.32,0.58,5.479,1.624c1.044,0.928,1.711,2.349,1.711,4.088
		c0,1.769-0.522,3.16-1.508,4.175c-1.362,1.421-3.508,2.146-5.973,2.146c-0.754,0-1.449-0.029-2.029-0.174v7.828h-2.522V317.27z
		 M562.466,326.692c0.551,0.145,1.247,0.203,2.088,0.203c3.044,0,4.899-1.508,4.899-4.146c0-2.609-1.855-3.856-4.61-3.856
		c-1.102,0-1.942,0.087-2.377,0.203V326.692z"/>
	<path d="M574.815,326.924c0-1.652-0.028-3.073-0.116-4.378h2.232l0.116,2.783h0.087c0.638-1.884,2.203-3.073,3.914-3.073
		c0.261,0,0.464,0.029,0.695,0.058v2.406c-0.261-0.058-0.521-0.058-0.869-0.058c-1.798,0-3.073,1.333-3.421,3.247
		c-0.059,0.348-0.087,0.783-0.087,1.188v7.48h-2.552V326.924z"/>
	<path d="M585.427,330.026c0.058,3.45,2.232,4.871,4.813,4.871c1.826,0,2.957-0.319,3.885-0.725l0.464,1.826
		c-0.898,0.406-2.464,0.899-4.696,0.899c-4.32,0-6.9-2.87-6.9-7.103c0-4.232,2.493-7.538,6.581-7.538c4.609,0,5.799,4,5.799,6.581
		c0,0.522-0.029,0.899-0.087,1.188H585.427z M592.906,328.2c0.029-1.595-0.667-4.117-3.537-4.117c-2.609,0-3.711,2.349-3.913,4.117
		H592.906z"/>
	<path d="M598.183,333.998c0.782,0.464,2.116,0.985,3.392,0.985c1.827,0,2.696-0.898,2.696-2.087c0-1.217-0.725-1.855-2.58-2.551
		c-2.551-0.928-3.74-2.29-3.74-3.972c0-2.261,1.855-4.117,4.842-4.117c1.421,0,2.667,0.377,3.421,0.87l-0.608,1.855
		c-0.551-0.348-1.565-0.841-2.87-0.841c-1.508,0-2.319,0.87-2.319,1.914c0,1.16,0.812,1.682,2.638,2.406
		c2.406,0.899,3.683,2.116,3.683,4.204c0,2.494-1.942,4.233-5.219,4.233c-1.536,0-2.957-0.406-3.942-0.986L598.183,333.998z"/>
	<path d="M609.662,333.998c0.783,0.464,2.116,0.985,3.392,0.985c1.827,0,2.696-0.898,2.696-2.087c0-1.217-0.725-1.855-2.58-2.551
		c-2.551-0.928-3.74-2.29-3.74-3.972c0-2.261,1.855-4.117,4.842-4.117c1.421,0,2.668,0.377,3.421,0.87l-0.608,1.855
		c-0.551-0.348-1.565-0.841-2.87-0.841c-1.508,0-2.319,0.87-2.319,1.914c0,1.16,0.812,1.682,2.638,2.406
		c2.407,0.899,3.683,2.116,3.683,4.204c0,2.494-1.942,4.233-5.219,4.233c-1.536,0-2.957-0.406-3.943-0.986L609.662,333.998z"/>
	<path d="M633.232,332.722c0,1.479,0.028,2.754,0.115,3.856h-2.261l-0.146-2.291h-0.058c-0.638,1.131-2.146,2.609-4.639,2.609
		c-2.203,0-4.842-1.247-4.842-6.146v-8.205h2.552v7.741c0,2.667,0.841,4.494,3.131,4.494c1.71,0,2.899-1.189,3.363-2.349
		c0.145-0.348,0.231-0.812,0.231-1.304v-8.582h2.552V332.722z"/>
	<path d="M637.464,326.924c0-1.652-0.028-3.073-0.116-4.378h2.232l0.116,2.783h0.087c0.638-1.884,2.203-3.073,3.914-3.073
		c0.261,0,0.464,0.029,0.695,0.058v2.406c-0.261-0.058-0.521-0.058-0.869-0.058c-1.798,0-3.073,1.333-3.421,3.247
		c-0.059,0.348-0.087,0.783-0.087,1.188v7.48h-2.552V326.924z"/>
	<path d="M648.075,330.026c0.058,3.45,2.232,4.871,4.813,4.871c1.826,0,2.957-0.319,3.885-0.725l0.464,1.826
		c-0.898,0.406-2.464,0.899-4.696,0.899c-4.32,0-6.9-2.87-6.9-7.103c0-4.232,2.493-7.538,6.581-7.538c4.609,0,5.799,4,5.799,6.581
		c0,0.522-0.029,0.899-0.087,1.188H648.075z M655.555,328.2c0.029-1.595-0.667-4.117-3.537-4.117c-2.609,0-3.711,2.349-3.913,4.117
		H655.555z"/>
</g>
<g>
	<path d="M14.292,229.303H6.726v7.045h8.466v2.116H4.174v-19.541h10.582v2.117H6.726v6.175h7.567V229.303z"/>
	<path d="M22.96,218.923h2.551v13.075c0,5.19-2.551,6.784-5.915,6.784c-0.957,0-2.087-0.203-2.696-0.464l0.348-2.058
		c0.522,0.203,1.276,0.376,2.146,0.376c2.261,0,3.566-1.015,3.566-4.841V218.923z"/>
	<path d="M34.063,238.464v-8.292l-6.204-11.249h2.899l2.754,5.393c0.725,1.479,1.333,2.667,1.942,4.03h0.058
		c0.522-1.275,1.218-2.551,1.972-4.03l2.812-5.393h2.841l-6.523,11.22v8.321H34.063z"/>
	<path d="M50.82,218.344c-2.117,2.87-3.624,6.61-3.624,11.887c0,5.16,1.594,8.842,3.624,11.741h-1.972
		c-1.827-2.406-3.798-6.117-3.798-11.771c0.029-5.682,1.971-9.422,3.798-11.857H50.82z"/>
	<path d="M58.27,221.997h-0.058l-3.276,1.769l-0.493-1.942l4.117-2.204h2.174v18.845H58.27V221.997z"/>
	<path d="M66.88,241.972c2.029-2.87,3.624-6.61,3.624-11.829c0-5.218-1.565-8.9-3.624-11.799h1.971
		c1.827,2.377,3.798,6.117,3.798,11.799c-0.029,5.683-1.971,9.394-3.798,11.829H66.88z"/>
</g>
<g>
	<path d="M14.736,185.974H7.169v7.045h8.466v2.116H4.618v-19.541H15.2v2.117H7.169v6.175h7.567V185.974z"/>
	<path d="M23.403,175.594h2.551v13.075c0,5.19-2.551,6.784-5.915,6.784c-0.957,0-2.087-0.203-2.696-0.464l0.348-2.058
		c0.522,0.203,1.276,0.376,2.146,0.376c2.261,0,3.566-1.015,3.566-4.841V175.594z"/>
	<path d="M34.507,195.135v-8.292l-6.204-11.249h2.899l2.754,5.393c0.725,1.479,1.333,2.667,1.942,4.03h0.058
		c0.522-1.275,1.218-2.551,1.972-4.03l2.812-5.393h2.841l-6.523,11.22v8.321H34.507z"/>
	<path d="M51.263,175.015c-2.117,2.87-3.624,6.61-3.624,11.887c0,5.16,1.594,8.842,3.624,11.741h-1.972
		c-1.827-2.406-3.798-6.117-3.798-11.771c0.029-5.682,1.971-9.422,3.798-11.857H51.263z"/>
	<path d="M53.176,195.135v-1.565l2-1.942c4.813-4.581,7.016-7.016,7.016-9.857c0-1.914-0.899-3.682-3.711-3.682
		c-1.711,0-3.131,0.87-4.001,1.594l-0.812-1.797c1.276-1.073,3.16-1.914,5.306-1.914c4.059,0,5.769,2.783,5.769,5.479
		c0,3.479-2.522,6.291-6.494,10.118l-1.479,1.392v0.058h8.437v2.116H53.176z"/>
	<path d="M67.323,198.643c2.029-2.87,3.624-6.61,3.624-11.829c0-5.218-1.565-8.9-3.624-11.799h1.971
		c1.827,2.377,3.798,6.117,3.798,11.799c-0.029,5.683-1.971,9.394-3.798,11.829H67.323z"/>
</g>
</svg>
