<?xml version="1.0" encoding="utf-8"?>
<!-- Generator: Adobe Illustrator 15.0.0, SVG Export Plug-In . SVG Version: 6.00 Build 0)  -->
<!DOCTYPE svg PUBLIC "-//W3C//DTD SVG 1.1//EN" "http://www.w3.org/Graphics/SVG/1.1/DTD/svg11.dtd">
<svg version="1.1" id="_x3C_Layer_x3E_" xmlns="http://www.w3.org/2000/svg" xmlns:xlink="http://www.w3.org/1999/xlink" x="0px"
	 y="0px" width="735.5px" height="449px" viewBox="0 0 735.5 449" enable-background="new 0 0 735.5 449" xml:space="preserve">
<g>
	<polyline fill-rule="evenodd" clip-rule="evenodd" fill="#48484A" points="615.025,14.502 615.025,14.619 607.45,14.968 
		598.826,15.9 595.099,18.465 418.678,133.942 690.301,133.942 695.078,125.202 699.158,115.18 701.954,105.042 703.235,97.236 
		703.934,87.681 703.466,76.377 703.352,76.377 702.651,70.434 702.534,70.434 701.136,63.677 701.021,63.677 699.273,57.967 
		699.041,57.734 697.642,54.122 697.293,53.655 694.146,47.712 688.204,40.255 680.745,33.146 675.617,29.417 668.626,25.107 
		658.138,20.446 646.837,17.183 636.348,15.435 626.677,14.502 615.025,14.502 	"/>
</g>
<g>
	<polyline fill-rule="evenodd" clip-rule="evenodd" fill="#48484A" points="418.447,133.942 414.718,136.505 265.097,234.27 
		277.332,253.381 523.552,253.264 685.873,140.351 690.184,133.942 418.447,133.942 	"/>
</g>
<g>
	<polyline fill-rule="evenodd" clip-rule="evenodd" fill="#48484A" points="277.449,253.381 353.539,371.538 353.307,371.538 
		353.89,372.005 353.657,371.422 523.436,253.381 277.449,253.381 	"/>
</g>
<g>
	<polyline fill-rule="evenodd" clip-rule="evenodd" fill="#626366" points="615.025,14.502 615.025,14.619 610.131,14.736 
		433.594,133.942 690.301,133.942 695.078,125.202 699.158,115.18 701.954,105.042 703.235,97.236 703.934,87.681 703.466,76.377 
		703.352,76.377 702.651,70.434 702.534,70.434 701.136,63.677 701.021,63.677 699.273,57.967 699.041,57.734 697.642,54.122 
		697.293,53.655 694.146,47.712 688.204,40.255 680.745,33.146 675.617,29.417 668.626,25.107 658.138,20.446 646.837,17.183 
		636.348,15.435 626.677,14.502 615.025,14.502 	"/>
</g>
<g>
	<polyline fill-rule="evenodd" clip-rule="evenodd" fill="#626366" points="433.359,133.942 271.039,243.476 277.332,253.381 
		523.552,253.264 685.873,140.351 690.184,133.942 433.359,133.942 	"/>
</g>
<g>
	<polyline fill-rule="evenodd" clip-rule="evenodd" fill="#626366" points="277.449,253.381 353.539,371.538 353.307,371.538 
		353.89,372.005 353.657,371.422 523.436,253.381 277.449,253.381 	"/>
</g>
<g>
	<polyline fill-rule="evenodd" clip-rule="evenodd" fill="#7A7B7E" points="629.591,14.852 452.703,134.292 690.067,134.292 
		694.728,125.901 699.041,115.53 701.721,105.974 703.235,97.236 703.934,87.681 703.466,76.377 703.352,76.377 702.651,70.434 
		702.534,70.434 701.136,63.677 701.021,63.677 699.273,57.967 699.041,57.734 697.642,54.122 697.293,53.655 694.146,47.712 
		688.204,40.255 680.745,33.146 675.617,29.417 668.626,25.107 658.138,20.446 646.837,17.183 636.348,15.435 630.522,14.852 
		629.591,14.852 	"/>
</g>
<g>
	<polyline fill-rule="evenodd" clip-rule="evenodd" fill="#7A7B7E" points="452.472,134.292 276.982,252.682 277.564,253.73 
		523.086,253.614 685.873,140.351 690.067,134.292 452.472,134.292 	"/>
</g>
<g>
	<polyline fill-rule="evenodd" clip-rule="evenodd" fill="#7A7B7E" points="277.681,253.73 353.539,371.538 353.307,371.538 
		353.89,372.005 353.657,371.422 522.853,253.73 277.681,253.73 	"/>
</g>
<g>
	<polyline fill-rule="evenodd" clip-rule="evenodd" fill="#909294" points="645.789,17.066 642.058,19.63 468.9,136.505 
		688.669,136.505 694.146,127.066 698.923,115.879 701.604,106.442 703.235,97.236 703.934,87.681 703.466,76.377 703.352,76.377 
		702.651,70.434 702.534,70.434 701.136,63.677 701.021,63.677 699.273,57.967 699.041,57.734 697.642,54.122 697.293,53.655 
		694.146,47.712 688.204,40.255 680.745,33.146 675.617,29.417 668.626,25.107 658.138,20.446 646.254,17.066 645.789,17.066 	"/>
</g>
<g>
	<polyline fill-rule="evenodd" clip-rule="evenodd" fill="#909294" points="468.666,136.505 291.898,255.944 520.055,255.828 
		685.873,140.351 688.553,136.505 468.666,136.505 	"/>
</g>
<g>
	<polyline fill-rule="evenodd" clip-rule="evenodd" fill="#909294" points="291.665,255.944 282.925,261.888 353.539,371.538 
		353.307,371.538 353.89,372.005 353.657,371.422 519.705,255.944 291.665,255.944 	"/>
</g>
<g>
	<polyline fill-rule="evenodd" clip-rule="evenodd" fill="#A6A8AB" points="659.536,21.029 482.65,140.468 685.756,140.468 
		691.466,132.077 697.407,119.958 700.903,109.239 703.119,98.867 703.934,87.681 703.466,76.377 703.352,76.377 702.651,70.434 
		702.534,70.434 701.136,63.677 701.021,63.677 699.273,57.967 699.041,57.734 697.642,54.122 697.293,53.655 694.146,47.712 
		688.204,40.255 680.745,33.146 675.617,29.417 668.626,25.107 660.004,21.029 659.536,21.029 	"/>
</g>
<g>
	<polyline fill-rule="evenodd" clip-rule="evenodd" fill="#A6A8AB" points="482.417,140.468 305.53,259.906 514.346,259.79 
		685.64,140.468 482.417,140.468 	"/>
</g>
<g>
	<polyline fill-rule="evenodd" clip-rule="evenodd" fill="#A6A8AB" points="305.414,259.906 288.869,271.092 353.539,371.538 
		353.307,371.538 353.89,372.005 353.657,371.422 513.996,259.906 305.414,259.906 	"/>
</g>
<g>
	<polyline fill-rule="evenodd" clip-rule="evenodd" fill="#BFC1C3" points="670.957,26.506 494.071,145.944 678.181,145.826 
		685.873,140.351 691.815,131.495 697.293,120.191 700.788,109.704 703.119,98.867 703.934,87.681 703.466,76.377 703.352,76.377 
		702.651,70.434 702.534,70.434 701.136,63.677 701.021,63.677 699.273,57.967 699.041,57.734 697.642,54.122 697.293,53.655 
		694.146,47.712 688.204,40.255 680.745,33.146 675.617,29.417 671.307,26.506 670.957,26.506 	"/>
</g>
<g>
	<polyline fill-rule="evenodd" clip-rule="evenodd" fill="#BFC1C3" points="493.954,145.944 317.067,265.382 506.305,265.267 
		677.832,145.944 493.954,145.944 	"/>
</g>
<g>
	<polyline fill-rule="evenodd" clip-rule="evenodd" fill="#BFC1C3" points="316.834,265.382 294.812,280.531 297.024,283.793 
		353.539,371.538 353.307,371.538 353.89,372.005 353.657,371.422 506.072,265.382 316.834,265.382 	"/>
</g>
<g>
	<polyline fill-rule="evenodd" clip-rule="evenodd" fill="#D7D8DA" points="680.512,33.262 503.74,152.701 668.277,152.585 
		685.873,140.351 691.815,131.495 697.293,120.191 700.788,109.704 703.119,98.867 703.934,87.681 703.466,76.377 703.352,76.377 
		702.651,70.434 702.534,70.434 701.136,63.677 701.021,63.677 699.273,57.967 699.041,57.734 697.642,54.122 697.293,53.655 
		694.146,47.712 688.204,40.255 680.861,33.262 680.512,33.262 	"/>
</g>
<g>
	<polyline fill-rule="evenodd" clip-rule="evenodd" fill="#D7D8DA" points="503.509,152.701 326.739,272.141 496.635,272.024 
		668.159,152.701 503.509,152.701 	"/>
</g>
<g>
	<polyline fill-rule="evenodd" clip-rule="evenodd" fill="#D7D8DA" points="326.507,272.141 300.753,289.737 302.967,293 
		353.539,371.538 353.307,371.538 353.89,372.005 353.657,371.422 496.402,272.141 326.507,272.141 	"/>
</g>
<g>
	<polyline fill-rule="evenodd" clip-rule="evenodd" fill="#EFF0F0" points="688.669,40.954 511.782,160.393 657.44,160.276 
		685.873,140.351 691.815,131.495 697.293,120.191 700.788,109.704 703.119,98.867 703.934,87.681 703.466,76.377 703.352,76.377 
		702.651,70.434 702.534,70.434 701.136,63.677 701.021,63.677 699.273,57.967 699.041,57.734 697.642,54.122 697.293,53.655 
		694.146,47.712 688.902,40.954 688.669,40.954 	"/>
</g>
<g>
	<polyline fill-rule="evenodd" clip-rule="evenodd" fill="#EFF0F0" points="511.665,160.393 334.779,279.832 485.564,279.714 
		657.093,160.393 511.665,160.393 	"/>
</g>
<g>
	<polyline fill-rule="evenodd" clip-rule="evenodd" fill="#EFF0F0" points="334.663,279.832 306.696,298.942 308.909,302.205 
		353.539,371.538 353.307,371.538 353.89,372.005 353.657,371.422 485.33,279.832 334.663,279.832 	"/>
</g>
<g>
	<polyline fill-rule="evenodd" clip-rule="evenodd" fill="#D7D8DA" points="695.196,49.81 518.308,169.249 644.505,169.132 
		685.873,140.351 691.815,131.495 697.293,120.191 700.788,109.704 703.119,98.867 703.934,87.681 703.466,76.377 703.352,76.377 
		702.651,70.434 702.534,70.434 701.136,63.677 701.021,63.677 699.273,57.967 699.041,57.734 697.642,54.122 697.293,53.655 
		695.312,49.81 695.196,49.81 	"/>
</g>
<g>
	<polyline fill-rule="evenodd" clip-rule="evenodd" fill="#D7D8DA" points="518.191,169.249 341.304,288.688 472.979,288.571 
		644.272,169.249 518.191,169.249 	"/>
</g>
<g>
	<polyline fill-rule="evenodd" clip-rule="evenodd" fill="#D7D8DA" points="341.188,288.688 312.639,308.149 315.318,312.109 
		353.539,371.538 353.307,371.538 353.89,372.005 353.657,371.422 472.629,288.688 341.188,288.688 	"/>
</g>
<g>
	<polyline fill-rule="evenodd" clip-rule="evenodd" fill="#BFC1C3" points="699.854,59.948 522.97,179.387 629.939,179.271 
		685.873,140.351 691.815,131.495 697.293,120.191 700.788,109.704 703.119,98.867 703.934,87.681 703.466,76.377 703.352,76.377 
		702.651,70.434 702.534,70.434 701.136,63.677 701.021,63.677 699.972,59.948 699.854,59.948 	"/>
</g>
<g>
	<polyline fill-rule="evenodd" clip-rule="evenodd" fill="#BFC1C3" points="522.735,179.387 345.848,298.827 458.414,298.709 
		629.706,179.387 522.735,179.387 	"/>
</g>
<g>
	<polyline fill-rule="evenodd" clip-rule="evenodd" fill="#BFC1C3" points="345.732,298.827 318.583,317.354 320.68,320.383 
		353.539,371.538 353.307,371.538 353.89,372.005 353.657,371.422 458.063,298.827 345.732,298.827 	"/>
</g>
<g>
	<polyline fill-rule="evenodd" clip-rule="evenodd" fill="#A6A8AB" points="702.651,71.25 525.765,190.688 613.86,190.572 
		685.873,140.351 691.815,131.495 697.293,120.191 700.788,109.704 703.119,98.867 703.934,87.681 703.466,76.377 703.352,76.377 
		702.769,71.25 702.651,71.25 	"/>
</g>
<g>
	<polyline fill-rule="evenodd" clip-rule="evenodd" fill="#A6A8AB" points="525.533,190.688 348.762,310.128 441.983,310.011 
		613.511,190.688 525.533,190.688 	"/>
</g>
<g>
	<polyline fill-rule="evenodd" clip-rule="evenodd" fill="#A6A8AB" points="348.528,310.128 324.525,326.326 353.539,371.538 
		353.307,371.538 353.89,372.005 353.657,371.422 441.749,310.128 348.528,310.128 	"/>
</g>
<g>
	<polyline fill-rule="evenodd" clip-rule="evenodd" fill="#909294" points="703.816,83.719 700.088,86.283 526.815,203.158 
		595.797,203.041 685.873,140.351 691.815,131.495 697.293,120.191 700.788,109.704 703.119,98.867 703.934,87.681 703.934,83.719 
		703.816,83.719 	"/>
</g>
<g>
	<polyline fill-rule="evenodd" clip-rule="evenodd" fill="#909294" points="526.698,203.158 349.811,322.597 424.271,322.479 
		595.564,203.158 526.698,203.158 	"/>
</g>
<g>
	<polyline fill-rule="evenodd" clip-rule="evenodd" fill="#909294" points="349.577,322.597 330.469,335.532 353.89,372.005 
		353.657,371.422 423.921,322.597 349.577,322.597 	"/>
</g>
<g>
	<polyline fill-rule="evenodd" clip-rule="evenodd" fill="#7A7B7E" points="702.884,97.353 525.999,216.792 576.338,216.675 
		685.873,140.351 691.815,131.495 697.293,120.191 700.788,109.704 703.119,98.867 703.119,97.353 702.884,97.353 	"/>
</g>
<g>
	<polyline fill-rule="evenodd" clip-rule="evenodd" fill="#7A7B7E" points="525.882,216.792 348.995,336.23 404.463,336.115 
		575.989,216.792 525.882,216.792 	"/>
</g>
<g>
	<polyline fill-rule="evenodd" clip-rule="evenodd" fill="#7A7B7E" points="348.762,336.23 336.295,344.854 338.51,348.115 
		353.89,372.005 353.657,371.422 404.229,336.23 348.762,336.23 	"/>
</g>
<g>
	<polyline fill-rule="evenodd" clip-rule="evenodd" fill="#626366" points="699.854,112.5 522.97,231.939 554.548,231.822 
		685.873,140.351 691.815,131.495 697.293,120.191 699.972,112.5 699.854,112.5 	"/>
</g>
<g>
	<polyline fill-rule="evenodd" clip-rule="evenodd" fill="#626366" points="522.735,231.939 345.848,351.379 382.67,351.262 
		554.199,231.939 522.735,231.939 	"/>
</g>
<g>
	<polyline fill-rule="evenodd" clip-rule="evenodd" fill="#626366" points="345.732,351.379 342.702,353.476 342.237,354.06 
		344.917,358.021 353.89,372.005 353.657,371.422 382.555,351.379 345.732,351.379 	"/>
</g>
<g>
	<polyline fill-rule="evenodd" clip-rule="evenodd" fill="#48484A" points="692.049,130.795 515.16,250.235 528.096,250.118 
		685.873,140.351 691.815,131.495 692.164,130.795 692.049,130.795 	"/>
</g>
<g>
	<polyline fill-rule="evenodd" clip-rule="evenodd" fill="#48484A" points="515.045,250.235 511.315,252.798 348.063,362.798 
		352.374,369.674 356.569,369.557 527.863,250.235 515.045,250.235 	"/>
</g>
<g>
	<polyline fill-rule="evenodd" clip-rule="evenodd" fill="#48484A" points="352.374,369.674 352.607,369.906 352.724,370.372 
		352.841,370.372 353.074,370.84 353.189,370.84 353.189,371.071 353.307,371.071 353.539,371.538 353.307,371.538 353.657,372.005 
		353.89,372.005 353.772,371.538 353.657,371.538 353.657,371.422 353.89,371.422 353.89,371.306 354.355,371.071 354.355,370.955 
		354.588,370.955 354.588,370.84 354.822,370.606 355.055,370.606 355.055,370.49 355.521,370.256 355.521,370.14 355.754,370.14 
		355.754,370.024 355.986,369.791 356.22,369.791 356.22,369.674 352.374,369.674 	"/>
</g>
<g>
	
		<polygon fill-rule="evenodd" clip-rule="evenodd" fill="none" stroke="#000000" stroke-linejoin="round" stroke-miterlimit="10" points="
		265.097,234.27 599.06,15.785 603.722,15.318 608.267,14.852 612.694,14.619 617.121,14.502 625.396,14.502 633.086,15.085 
		640.428,16.018 647.302,17.299 653.828,19.047 659.772,21.029 665.363,23.475 670.607,26.154 675.385,29.184 679.814,32.446 
		683.892,35.942 687.621,39.672 690.883,43.517 693.913,47.596 696.478,52.024 698.689,56.802 700.557,62.045 701.954,67.521 
		703.001,73.348 703.585,79.291 703.816,85.466 703.585,91.759 703.001,98.168 701.838,104.578 700.322,110.869 698.341,117.162 
		695.777,123.337 692.864,129.281 689.486,134.991 685.521,140.468 353.307,371.538 353.772,371.888 	"/>
</g>
<g>
	
		<path fill-rule="evenodd" clip-rule="evenodd" fill="#C7C9CB" stroke="#000000" stroke-linejoin="round" stroke-miterlimit="10" d="
		M393.391,302.19c-0.06-62.791-67.963-101.979-122.36-70.621c-54.394,31.558-54.294,109.955,0.097,141.327
		c54.442,31.282,122.216-7.902,122.264-70.691"/>
</g>
<g>
	
		<path fill-rule="evenodd" clip-rule="evenodd" fill="#636467" stroke="#000000" stroke-width="0.5" stroke-linejoin="round" stroke-miterlimit="10" d="
		M357.037,302.197c-0.035-34.804-37.672-56.526-67.824-39.145c-30.151,17.491-30.095,60.947,0.054,78.336
		c30.174,17.339,67.742-4.381,67.77-39.184"/>
</g>
<g>
	
		<path fill-rule="evenodd" clip-rule="evenodd" fill="#FFFFFF" stroke="#000000" stroke-width="0.5" stroke-linejoin="round" stroke-miterlimit="10" d="
		M340.021,302.133c-0.072-21.796-23.577-35.344-42.329-24.431c-18.777,10.938-18.742,38.152,0.063,49.042
		c18.862,10.854,42.301-2.81,42.266-24.606"/>
</g>
<g>
	
		<polyline fill-rule="evenodd" clip-rule="evenodd" fill="none" stroke="#000000" stroke-linecap="round" stroke-linejoin="round" stroke-miterlimit="10" points="
		0,302.205 311.939,302.205 732.366,8.792 	"/>
</g>
<g>
	<polyline stroke="#000000" stroke-linecap="round" stroke-linejoin="round" stroke-miterlimit="10" points="15.615,294.398 
		0,302.205 15.615,310.011 15.615,294.398 	"/>
</g>
<g>
	<polyline stroke="#000000" stroke-linecap="round" stroke-linejoin="round" stroke-miterlimit="10" points="715.119,11.24 
		732.366,8.792 724.092,24.058 715.119,11.24 	"/>
</g>
<g>
	
		<line fill="none" stroke="#000000" stroke-linecap="round" stroke-linejoin="round" stroke-miterlimit="10" x1="311.939" y1="302.205" x2="311.939" y2="109.937"/>
</g>
<g>
	<polyline stroke="#000000" stroke-linecap="round" stroke-linejoin="round" stroke-miterlimit="10" points="304.132,125.552 
		311.939,109.937 319.63,125.552 304.132,125.552 	"/>
</g>
<g>
	
		<line fill="none" stroke="#000000" stroke-width="0.5" stroke-linecap="round" stroke-linejoin="round" stroke-miterlimit="10" x1="215.107" y1="205.954" x2="279.197" y2="270.043"/>
</g>
<g>
	<polyline stroke="#000000" stroke-width="0.5" stroke-linecap="round" stroke-linejoin="round" stroke-miterlimit="10" points="
		275.817,262.354 279.197,270.043 271.505,266.664 275.817,262.354 	"/>
</g>
<g>
	
		<line fill="none" stroke="#000000" stroke-width="0.5" stroke-linecap="round" stroke-linejoin="round" stroke-miterlimit="10" x1="302.85" y1="291.368" x2="293.529" y2="282.046"/>
</g>
<g>
	<polyline stroke="#000000" stroke-width="0.5" stroke-linecap="round" stroke-linejoin="round" stroke-miterlimit="10" points="
		296.793,289.737 293.529,282.046 301.22,285.425 296.793,289.737 	"/>
</g>
<g>
	
		<line fill="none" stroke="#000000" stroke-width="0.5" stroke-linecap="round" stroke-linejoin="round" stroke-miterlimit="10" x1="293.88" y1="315.372" x2="278.147" y2="331.103"/>
</g>
<g>
	<polyline stroke="#000000" stroke-width="0.5" stroke-linecap="round" stroke-linejoin="round" stroke-miterlimit="10" points="
		285.839,327.841 278.147,331.103 281.411,323.412 285.839,327.841 	"/>
</g>
<g>
	
		<line fill="none" stroke="#000000" stroke-width="0.5" stroke-linecap="round" stroke-linejoin="round" stroke-miterlimit="10" x1="265.795" y1="329.589" x2="265.795" y2="273.422"/>
</g>
<g>
	
		<line fill="none" stroke="#000000" stroke-width="0.5" stroke-linecap="round" stroke-linejoin="round" stroke-miterlimit="10" x1="357.152" y1="332.968" x2="357.152" y2="271.441"/>
</g>
<g>
	
		<line fill="none" stroke="#000000" stroke-width="0.5" stroke-linecap="round" stroke-linejoin="round" stroke-miterlimit="10" x1="265.795" y1="439.355" x2="355.986" y2="439.355"/>
</g>
<g>
	<polyline stroke="#000000" stroke-width="0.5" stroke-linecap="round" stroke-linejoin="round" stroke-miterlimit="10" points="
		273.603,436.209 265.795,439.355 273.603,442.502 273.603,436.209 	"/>
</g>
<g>
	<polyline stroke="#000000" stroke-width="0.5" stroke-linecap="round" stroke-linejoin="round" stroke-miterlimit="10" points="
		348.179,436.209 355.986,439.355 348.179,442.502 348.179,436.209 	"/>
</g>
<g>
	<path d="M277.773,413.021c1.284-0.218,2.809-0.363,4.48-0.363c3.027,0,5.182,0.727,6.611,2.034c1.477,1.332,2.325,3.221,2.325,5.86
		c0,2.663-0.848,4.843-2.349,6.344c-1.55,1.526-4.068,2.35-7.24,2.35c-1.525,0-2.761-0.073-3.826-0.194V413.021z M279.88,427.454
		c0.533,0.072,1.308,0.097,2.131,0.097c4.528,0,6.95-2.519,6.95-6.926c0.024-3.851-2.155-6.296-6.611-6.296
		c-1.089,0-1.913,0.097-2.47,0.218V427.454z"/>
	<path d="M296.004,412.779v16.321h-2.131v-16.321H296.004z"/>
	<path d="M302.323,423.967l-1.694,5.134h-2.18l5.569-16.321h2.519l5.569,16.321h-2.252l-1.743-5.134H302.323z M307.699,422.32
		l-1.622-4.698c-0.363-1.065-0.605-2.034-0.848-2.979h-0.049c-0.242,0.944-0.483,1.962-0.823,2.954l-1.598,4.723H307.699z"/>
	<path d="M314.235,426.534c0.944,0.604,2.3,1.065,3.753,1.065c2.155,0,3.415-1.139,3.415-2.785c0-1.501-0.872-2.397-3.076-3.221
		c-2.663-0.969-4.31-2.373-4.31-4.649c0-2.543,2.106-4.432,5.278-4.432c1.647,0,2.882,0.388,3.584,0.799l-0.581,1.72
		c-0.509-0.314-1.598-0.774-3.075-0.774c-2.228,0-3.075,1.331-3.075,2.445c0,1.525,0.992,2.276,3.245,3.148
		c2.76,1.065,4.141,2.396,4.141,4.794c0,2.519-1.841,4.723-5.69,4.723c-1.574,0-3.294-0.484-4.166-1.065L314.235,426.534z"/>
	<path d="M329.537,414.571h-4.965v-1.792h12.084v1.792h-4.988v14.529h-2.131V414.571z"/>
</g>
<g>
	<path d="M161.784,399.657h-4.964v-1.792h12.084v1.792h-4.989v14.529h-2.131V399.657z"/>
	<path d="M172.824,397.865v6.829h7.894v-6.829h2.131v16.321h-2.131v-7.652h-7.894v7.652h-2.131v-16.321H172.824z"/>
	<path d="M194.93,406.534h-6.32v5.885h7.071v1.768h-9.202v-16.321h8.838v1.768h-6.708v5.158h6.32V406.534z"/>
	<path d="M207.35,414.187l-2.106-3.608c-0.848-1.38-1.356-2.276-1.865-3.221h-0.048c-0.46,0.944-0.945,1.816-1.768,3.245
		l-1.961,3.584h-2.421l4.988-8.258l-4.794-8.063h2.446l2.155,3.826c0.605,1.065,1.066,1.889,1.501,2.761h0.073
		c0.46-0.969,0.872-1.72,1.477-2.761l2.204-3.826h2.446l-4.964,7.942l5.085,8.379H207.35z"/>
</g>
<g>
	
		<line fill="none" stroke="#000000" stroke-width="0.5" stroke-linecap="round" stroke-linejoin="round" stroke-miterlimit="10" x1="217.438" y1="393.328" x2="252.629" y2="358.137"/>
</g>
<g>
	<polyline stroke="#000000" stroke-width="0.5" stroke-linecap="round" stroke-linejoin="round" stroke-miterlimit="10" points="
		244.821,361.399 252.629,358.137 249.25,365.829 244.821,361.399 	"/>
</g>
<g>
	
		<line fill="none" stroke="#000000" stroke-width="0.5" stroke-linecap="round" stroke-linejoin="round" stroke-miterlimit="10" x1="264.63" y1="445.531" x2="264.63" y2="389.366"/>
</g>
<g>
	
		<line fill="none" stroke="#000000" stroke-width="0.5" stroke-linecap="round" stroke-linejoin="round" stroke-miterlimit="10" x1="355.871" y1="444.716" x2="355.871" y2="387.386"/>
</g>
<g>
	<path d="M176.117,182.802h-4.964v-1.792h12.084v1.792h-4.989v14.529h-2.131V182.802z"/>
	<path d="M187.157,181.01v6.829h7.894v-6.829h2.131v16.321h-2.131v-7.652h-7.894v7.652h-2.131V181.01H187.157z"/>
	<path d="M200.569,194.764c0.944,0.605,2.3,1.065,3.753,1.065c2.155,0,3.414-1.138,3.414-2.785c0-1.501-0.872-2.397-3.075-3.221
		c-2.664-0.969-4.311-2.373-4.311-4.649c0-2.542,2.107-4.432,5.279-4.432c1.646,0,2.881,0.388,3.584,0.799l-0.582,1.719
		c-0.508-0.315-1.598-0.775-3.075-0.775c-2.228,0-3.075,1.332-3.075,2.446c0,1.525,0.993,2.276,3.245,3.148
		c2.761,1.065,4.141,2.397,4.141,4.795c0,2.518-1.841,4.722-5.691,4.722c-1.574,0-3.293-0.484-4.165-1.066L200.569,194.764z"/>
	<path d="M215.872,182.802h-4.964v-1.792h12.084v1.792h-4.989v14.529h-2.131V182.802z"/>
</g>
<g>
	<path d="M9.534,270.559l2.543,6.925c0.291,0.775,0.581,1.695,0.775,2.397H12.9c0.218-0.702,0.46-1.598,0.75-2.446l2.325-6.877
		h2.252l-3.197,8.354c-1.525,4.02-2.567,6.054-4.02,7.337c-1.066,0.896-2.083,1.259-2.616,1.356l-0.533-1.768
		c0.533-0.169,1.235-0.508,1.865-1.041c0.581-0.46,1.284-1.284,1.792-2.373c0.097-0.218,0.169-0.388,0.169-0.509
		s-0.048-0.291-0.169-0.557l-4.311-10.8H9.534z"/>
</g>
<g>
	<path d="M282.428,165.101l5.279-6.902c0.533-0.654,1.017-1.21,1.55-1.84v-0.048h-6.344v-1.695h8.911v1.332l-5.23,6.805
		c-0.509,0.654-0.969,1.259-1.501,1.84v0.048h6.829v1.695h-9.492V165.101z"/>
</g>
<g>
	<path d="M722.075,39.955l1.671,2.518c0.46,0.654,0.823,1.235,1.211,1.889h0.048c0.388-0.678,0.775-1.284,1.187-1.913l1.623-2.494
		h2.324l-3.995,5.667l4.092,6.054h-2.397l-1.743-2.64c-0.46-0.678-0.848-1.332-1.259-2.034h-0.049
		c-0.388,0.703-0.774,1.332-1.235,2.034l-1.694,2.64h-2.35l4.165-5.981l-3.971-5.739H722.075z"/>
</g>
<g>
	<path d="M423.61,398.343c0.049,2.882,1.865,4.068,4.021,4.068c1.525,0,2.47-0.267,3.244-0.605l0.388,1.525
		c-0.751,0.339-2.059,0.751-3.923,0.751c-3.608,0-5.764-2.397-5.764-5.933c0-3.536,2.083-6.297,5.497-6.297
		c3.851,0,4.844,3.342,4.844,5.497c0,0.437-0.024,0.751-0.073,0.993H423.61z M429.858,396.817c0.024-1.332-0.558-3.438-2.954-3.438
		c-2.18,0-3.1,1.961-3.27,3.438H429.858z"/>
	<path d="M435.475,392.095l1.671,2.519c0.46,0.654,0.823,1.235,1.211,1.889h0.048c0.388-0.678,0.775-1.283,1.187-1.913l1.623-2.494
		h2.324l-3.995,5.667l4.092,6.054h-2.396l-1.744-2.64c-0.46-0.678-0.848-1.332-1.259-2.034h-0.049
		c-0.388,0.702-0.774,1.332-1.235,2.034l-1.694,2.64h-2.35l4.165-5.981l-3.971-5.739H435.475z"/>
	<path d="M448.572,389.286v2.809h3.051v1.623h-3.051v6.32c0,1.452,0.411,2.276,1.598,2.276c0.581,0,0.921-0.049,1.235-0.146
		l0.097,1.622c-0.411,0.146-1.065,0.291-1.889,0.291c-0.993,0-1.792-0.339-2.301-0.896c-0.581-0.653-0.823-1.695-0.823-3.075v-6.393
		h-1.816v-1.623h1.816v-2.179L448.572,389.286z"/>
	<path d="M455.061,398.343c0.049,2.882,1.865,4.068,4.02,4.068c1.526,0,2.471-0.267,3.245-0.605l0.388,1.525
		c-0.751,0.339-2.059,0.751-3.923,0.751c-3.608,0-5.764-2.397-5.764-5.933c0-3.536,2.083-6.297,5.497-6.297
		c3.851,0,4.844,3.342,4.844,5.497c0,0.437-0.024,0.751-0.073,0.993H455.061z M461.309,396.817c0.024-1.332-0.558-3.438-2.954-3.438
		c-2.18,0-3.1,1.961-3.27,3.438H461.309z"/>
	<path d="M466.004,395.752c0-1.381-0.024-2.567-0.097-3.657h1.864l0.098,2.325h0.072c0.532-1.574,1.84-2.567,3.27-2.567
		c0.218,0,0.387,0.024,0.581,0.049v2.01c-0.219-0.049-0.437-0.049-0.727-0.049c-1.502,0-2.567,1.114-2.857,2.713
		c-0.049,0.29-0.073,0.653-0.073,0.992v6.248h-2.131V395.752z"/>
	<path d="M474.018,395.268c0-1.235-0.024-2.204-0.097-3.173h1.889l0.121,1.938h0.049c0.581-1.09,1.937-2.18,3.874-2.18
		c1.623,0,4.141,0.969,4.141,4.989v6.974h-2.131v-6.756c0-1.889-0.702-3.463-2.712-3.463c-1.38,0-2.47,0.992-2.857,2.179
		c-0.097,0.267-0.146,0.63-0.146,0.993v7.047h-2.131V395.268z"/>
	<path d="M495.688,401.007c0,1.017,0.049,2.01,0.17,2.809h-1.913l-0.17-1.478h-0.072c-0.654,0.921-1.913,1.744-3.584,1.744
		c-2.373,0-3.584-1.671-3.584-3.366c0-2.833,2.519-4.383,7.047-4.358v-0.242c0-0.944-0.267-2.713-2.664-2.688
		c-1.114,0-2.252,0.315-3.075,0.872l-0.484-1.429c0.969-0.605,2.397-1.018,3.874-1.018c3.584,0,4.456,2.446,4.456,4.771V401.007z
		 M493.63,397.834c-2.324-0.048-4.964,0.363-4.964,2.64c0,1.404,0.92,2.034,1.985,2.034c1.55,0,2.543-0.969,2.882-1.962
		c0.073-0.242,0.097-0.484,0.097-0.678V397.834z"/>
	<path d="M499.124,386.622h2.131v17.193h-2.131V386.622z"/>
	<path d="M518.325,403.403c-0.557,0.267-1.792,0.679-3.366,0.679c-3.535,0-5.836-2.397-5.836-5.981c0-3.608,2.471-6.248,6.296-6.248
		c1.26,0,2.374,0.315,2.955,0.63l-0.484,1.622c-0.509-0.266-1.308-0.557-2.471-0.557c-2.688,0-4.141,2.01-4.141,4.432
		c0,2.712,1.744,4.383,4.068,4.383c1.211,0,2.01-0.29,2.615-0.557L518.325,403.403z"/>
	<path d="M531.278,397.858c0,4.335-3.026,6.224-5.836,6.224c-3.147,0-5.618-2.325-5.618-6.03c0-3.898,2.592-6.199,5.813-6.199
		C529.002,391.853,531.278,394.299,531.278,397.858z M522.004,397.979c0,2.566,1.453,4.504,3.535,4.504
		c2.034,0,3.56-1.913,3.56-4.553c0-1.985-0.992-4.479-3.511-4.479C523.094,393.451,522.004,395.775,522.004,397.979z"/>
	<path d="M542.197,401.007c0,1.017,0.049,2.01,0.17,2.809h-1.913l-0.17-1.478h-0.072c-0.654,0.921-1.913,1.744-3.584,1.744
		c-2.373,0-3.584-1.671-3.584-3.366c0-2.833,2.519-4.383,7.047-4.358v-0.242c0-0.944-0.267-2.713-2.664-2.688
		c-1.114,0-2.252,0.315-3.075,0.872l-0.484-1.429c0.969-0.605,2.397-1.018,3.874-1.018c3.584,0,4.456,2.446,4.456,4.771V401.007z
		 M540.139,397.834c-2.324-0.048-4.964,0.363-4.964,2.64c0,1.404,0.92,2.034,1.985,2.034c1.55,0,2.543-0.969,2.882-1.962
		c0.073-0.242,0.097-0.484,0.097-0.678V397.834z"/>
	<path d="M548.104,389.286v2.809h3.051v1.623h-3.051v6.32c0,1.452,0.411,2.276,1.598,2.276c0.581,0,0.921-0.049,1.235-0.146
		l0.097,1.622c-0.411,0.146-1.065,0.291-1.889,0.291c-0.993,0-1.792-0.339-2.301-0.896c-0.581-0.653-0.823-1.695-0.823-3.075v-6.393
		h-1.816v-1.623h1.816v-2.179L548.104,389.286z"/>
	<path d="M555.924,388.802c0,0.727-0.508,1.308-1.355,1.308c-0.775,0-1.284-0.581-1.284-1.308s0.533-1.332,1.332-1.332
		C555.392,387.47,555.924,388.051,555.924,388.802z M553.551,403.815v-11.721h2.131v11.721H553.551z"/>
	<path d="M559.216,395.268c0-1.235-0.024-2.204-0.097-3.173h1.889l0.121,1.938h0.049c0.581-1.09,1.937-2.18,3.874-2.18
		c1.623,0,4.141,0.969,4.141,4.989v6.974h-2.131v-6.756c0-1.889-0.702-3.463-2.712-3.463c-1.38,0-2.47,0.992-2.857,2.179
		c-0.097,0.267-0.146,0.63-0.146,0.993v7.047h-2.131V395.268z"/>
	<path d="M582.679,402.096c0,2.713-0.557,4.335-1.671,5.376c-1.162,1.042-2.809,1.405-4.286,1.405c-1.404,0-2.954-0.34-3.898-0.969
		l0.532-1.647c0.775,0.509,1.986,0.945,3.438,0.945c2.18,0,3.778-1.139,3.778-4.117v-1.283h-0.049
		c-0.63,1.09-1.913,1.961-3.729,1.961c-2.905,0-4.988-2.47-4.988-5.715c0-3.971,2.592-6.199,5.304-6.199
		c2.034,0,3.124,1.042,3.656,2.01h0.049l0.072-1.768h1.889c-0.072,0.823-0.097,1.792-0.097,3.196V402.096z M580.548,396.721
		c0-0.363-0.024-0.679-0.121-0.945c-0.388-1.259-1.404-2.275-2.979-2.275c-2.034,0-3.487,1.719-3.487,4.431
		c0,2.301,1.187,4.214,3.463,4.214c1.332,0,2.519-0.823,2.954-2.18c0.121-0.363,0.17-0.774,0.17-1.138V396.721z"/>
</g>
<path fill-rule="evenodd" clip-rule="evenodd" fill="none" stroke="#000000" stroke-width="0.5" stroke-linecap="round" stroke-linejoin="round" stroke-miterlimit="10" d="
	M399.218,396.009c-11.77-6.527-16.779-11.652-15.615-15.614c1.398-3.846,27.968-2.098,23.424-7.808
	c-4.895-5.594-6.876-5.477-51.972-25.868"/>
</svg>
