<?xml version="1.0" encoding="utf-8"?>
<!-- Generator: Adobe Illustrator 15.0.0, SVG Export Plug-In . SVG Version: 6.00 Build 0)  -->
<!DOCTYPE svg PUBLIC "-//W3C//DTD SVG 1.1//EN" "http://www.w3.org/Graphics/SVG/1.1/DTD/svg11.dtd">
<svg version="1.1" id="_x3C_Layer_x3E_" xmlns="http://www.w3.org/2000/svg" xmlns:xlink="http://www.w3.org/1999/xlink" x="0px"
	 y="0px" width="734.5px" height="603.5px" viewBox="0 0 734.5 603.5" enable-background="new 0 0 734.5 603.5"
	 xml:space="preserve">
<g>
	<polygon fill-rule="evenodd" clip-rule="evenodd" fill="none" stroke="#000000" stroke-width="2" stroke-miterlimit="10" points="
		548.821,442.758 161.937,302.709 196.949,206.014 583.834,346.063 	"/>
</g>
<g>
	
		<line fill-rule="evenodd" clip-rule="evenodd" fill="none" stroke="#000000" stroke-width="2" stroke-linecap="round" stroke-linejoin="round" stroke-miterlimit="10" stroke-dasharray="8,4,2,4" x1="566.532" y1="394.154" x2="4.073" y2="191.597"/>
</g>
<path fill-rule="evenodd" clip-rule="evenodd" stroke="#000000" stroke-width="0.5" stroke-linecap="round" stroke-linejoin="round" stroke-miterlimit="10" stroke-dasharray="8,4,2,4" d="
	M562.722,392.712c0.721-2.06,3.089-3.193,5.251-2.472c2.164,0.824,3.194,3.192,2.473,5.252c-0.722,2.163-3.192,3.296-5.252,2.575
	C563.031,397.243,561.898,394.875,562.722,392.712L562.722,392.712"/>
<g>
	
		<polyline fill-rule="evenodd" clip-rule="evenodd" stroke="#000000" stroke-width="0.5" stroke-linecap="round" stroke-linejoin="round" stroke-miterlimit="10" stroke-dasharray="8,4,2,4" points="
		25.285,213.841 4.073,191.597 34.554,187.995 25.285,213.841 	"/>
</g>
<g>
	<polyline fill-rule="evenodd" clip-rule="evenodd" fill="none" stroke="#000000" stroke-width="2" stroke-miterlimit="10" points="
		313.827,303.121 316.813,294.987 311.562,283.865 330.818,281.6 317.432,267.594 328.553,262.445 331.437,254.208 	"/>
</g>
<g>
	<path fill-rule="evenodd" clip-rule="evenodd" stroke="#000000" stroke-miterlimit="10" d="M315.681,303.12
		c-0.003-1.348-1.547-2.188-2.782-1.514c-1.234,0.676-1.23,2.362,0.006,3.034C314.142,305.311,315.683,304.464,315.681,303.12"/>
</g>
<g>
	
		<line fill-rule="evenodd" clip-rule="evenodd" fill="none" stroke="#000000" stroke-miterlimit="10" x1="329.171" y1="253.384" x2="333.805" y2="255.032"/>
</g>
<g>
	<polyline fill-rule="evenodd" clip-rule="evenodd" fill="none" stroke="#000000" stroke-width="2" stroke-miterlimit="10" points="
		370.877,323.717 376.745,307.446 376.745,307.446 	"/>
</g>
<g>
	<path fill-rule="evenodd" clip-rule="evenodd" stroke="#000000" stroke-miterlimit="10" d="M372.627,323.713
		c-0.006-1.427-1.463-2.315-2.628-1.6c-1.166,0.716-1.164,2.497,0.003,3.211C371.174,326.034,372.629,325.14,372.627,323.713"/>
</g>
<g>
	
		<polyline fill-rule="evenodd" clip-rule="evenodd" fill="#FFFFFF" stroke="#000000" stroke-width="2" stroke-miterlimit="10" points="
		374.479,288.19 368.61,304.46 384.881,310.33 390.75,294.061 374.479,288.19 	"/>
</g>
<g>
	
		<line fill-rule="evenodd" clip-rule="evenodd" fill="none" stroke="#000000" stroke-width="2" stroke-miterlimit="10" x1="382.614" y1="291.073" x2="388.484" y2="274.803"/>
</g>
<g>
	
		<line fill-rule="evenodd" clip-rule="evenodd" fill="none" stroke="#000000" stroke-width="2" stroke-linecap="round" stroke-linejoin="round" stroke-miterlimit="10" x1="662.095" y1="466.855" x2="662.095" y2="7.682"/>
</g>
<g>
	
		<polyline fill-rule="evenodd" clip-rule="evenodd" stroke="#000000" stroke-width="0.5" stroke-linecap="round" stroke-linejoin="round" stroke-miterlimit="10" points="
		648.399,35.176 662.095,7.682 675.893,35.176 648.399,35.176 	"/>
</g>
<g>
	
		<path fill-rule="evenodd" clip-rule="evenodd" fill="#FFFFFF" stroke="#000000" stroke-width="2" stroke-linecap="round" stroke-linejoin="round" stroke-miterlimit="10" d="
		M670.744,466.854c-0.006-6.66-7.207-10.814-12.976-7.49c-5.768,3.347-5.758,11.661,0.011,14.987
		C663.552,477.668,670.739,473.514,670.744,466.854"/>
</g>
<g>
	
		<line fill-rule="evenodd" clip-rule="evenodd" fill="none" stroke="#000000" stroke-width="2" stroke-linecap="round" stroke-linejoin="round" stroke-miterlimit="10" x1="656.021" y1="473.034" x2="668.272" y2="460.779"/>
</g>
<g>
	
		<line fill-rule="evenodd" clip-rule="evenodd" fill="none" stroke="#000000" stroke-width="2" stroke-linecap="round" stroke-linejoin="round" stroke-miterlimit="10" x1="656.021" y1="460.779" x2="668.272" y2="473.034"/>
</g>
<g>
	
		<line fill-rule="evenodd" clip-rule="evenodd" fill="none" stroke="#000000" stroke-width="2" stroke-linecap="round" stroke-linejoin="round" stroke-miterlimit="10" x1="662.095" y1="466.855" x2="202.92" y2="466.855"/>
</g>
<g>
	
		<polyline fill-rule="evenodd" clip-rule="evenodd" stroke="#000000" stroke-width="0.5" stroke-linecap="round" stroke-linejoin="round" stroke-miterlimit="10" points="
		230.417,480.653 202.92,466.855 230.417,453.159 230.417,480.653 	"/>
</g>
<g>
	<path d="M695.259,45.666v-3.224l13.45-16.817c0.955-1.194,1.863-2.233,2.723-3.116h-14.65V19.41h18.806v3.099l-14.74,18.214
		l-1.594,1.845h16.764v3.098H695.259z"/>
</g>
<g>
	<path d="M718.438,54.11V38.794h2.027v13.509h7.543v1.807H718.438z"/>
</g>
<g>
	<path d="M692.834,514.523l10.154-13.684l-8.955-12.572h4.138l4.764,6.733c0.991,1.397,1.695,2.472,2.113,3.225
		c0.585-0.955,1.277-1.952,2.078-2.991l5.283-6.967h3.778l-9.223,12.375l9.939,13.881h-4.298l-6.609-9.367
		c-0.37-0.537-0.752-1.122-1.146-1.755c-0.585,0.955-1.003,1.611-1.253,1.97l-6.591,9.152H692.834z"/>
</g>
<g>
	<path d="M718.645,522.863v-15.316h2.027v13.509h7.543v1.808H718.645z"/>
</g>
<g>
	<path d="M202.943,525.646v-11.122l-10.119-15.134h4.227l5.176,7.916c0.955,1.48,1.845,2.961,2.668,4.441
		c0.788-1.373,1.743-2.919,2.866-4.639l5.086-7.719h4.047l-10.477,15.134v11.122H202.943z"/>
</g>
<g>
	<path d="M218.688,533.985v-15.316h2.027v13.509h7.543v1.808H218.688z"/>
</g>
<g>
	<path d="M569.106,410.333c-1.896,2.573-3.248,5.925-3.248,10.654c0,4.625,1.43,7.925,3.248,10.524h-1.767
		c-1.638-2.157-3.404-5.483-3.404-10.55c0.026-5.093,1.767-8.445,3.404-10.628H569.106z"/>
	<path d="M576.589,428.366v-7.432l-5.562-10.082h2.599l2.469,4.833c0.649,1.325,1.195,2.391,1.741,3.612h0.052
		c0.468-1.144,1.092-2.287,1.768-3.612l2.521-4.833h2.546l-5.847,10.056v7.458H576.589z"/>
	<path d="M586.564,411.086c1.144-0.208,2.807-0.364,4.34-0.364c2.417,0,4.002,0.468,5.067,1.429c0.857,0.78,1.377,1.975,1.377,3.353
		c0,2.287-1.455,3.82-3.274,4.443v0.078c1.326,0.468,2.131,1.715,2.547,3.534c0.572,2.442,0.987,4.131,1.352,4.807h-2.339
		c-0.286-0.52-0.676-2.001-1.144-4.184c-0.52-2.417-1.481-3.326-3.534-3.404h-2.131v7.587h-2.261V411.086z M588.825,419.064h2.313
		c2.416,0,3.949-1.325,3.949-3.326c0-2.261-1.637-3.249-4.027-3.249c-1.092,0-1.846,0.078-2.235,0.182V419.064z"/>
	<path d="M598.983,431.589c0.571-1.56,1.273-4.34,1.559-6.236l2.547-0.261c-0.624,2.209-1.767,5.094-2.494,6.315L598.983,431.589z"
		/>
	<path d="M610.232,427.041l9.693-14.214v-0.078h-8.861v-1.897h11.823v1.377l-9.667,14.162v0.078h9.797v1.896h-12.785V427.041z"/>
	<path d="M625.795,411.086c1.144-0.208,2.807-0.364,4.34-0.364c2.417,0,4.002,0.468,5.067,1.429c0.857,0.78,1.377,1.975,1.377,3.353
		c0,2.287-1.455,3.82-3.274,4.443v0.078c1.326,0.468,2.131,1.715,2.547,3.534c0.572,2.442,0.987,4.131,1.352,4.807h-2.339
		c-0.286-0.52-0.676-2.001-1.144-4.184c-0.52-2.417-1.481-3.326-3.534-3.404h-2.131v7.587h-2.261V411.086z M628.056,419.064h2.313
		c2.416,0,3.949-1.325,3.949-3.326c0-2.261-1.637-3.249-4.027-3.249c-1.092,0-1.846,0.078-2.235,0.182V419.064z"/>
	<path d="M638.318,431.511c1.819-2.572,3.248-5.925,3.248-10.602s-1.403-7.978-3.248-10.576h1.768
		c1.637,2.131,3.403,5.483,3.403,10.576c-0.025,5.093-1.767,8.419-3.403,10.602H638.318z"/>
</g>
<g>
	<path d="M381.113,347.396c0.947,0.138,2.285,0.454,3.481,0.856c1.886,0.635,2.999,1.417,3.577,2.447
		c0.466,0.833,0.557,1.903,0.194,2.977c-0.601,1.784-2.14,2.598-3.722,2.606l-0.021,0.061c0.911,0.713,1.211,1.898,1.059,3.426
		c-0.196,2.056-0.316,3.483-0.21,4.106l-1.825-0.615c-0.086-0.48,0-1.739,0.208-3.564c0.229-2.022-0.281-2.984-1.862-3.585
		l-1.662-0.56l-1.994,5.92l-1.765-0.594L381.113,347.396z M380.781,354.213l1.804,0.608c1.886,0.635,3.43,0.004,3.956-1.557
		c0.594-1.765-0.424-2.965-2.289-3.593c-0.852-0.287-1.461-0.425-1.79-0.446L380.781,354.213z"/>
	<path d="M401.568,361.531c-1.577,4.684-5.282,6.234-8.77,5.06c-3.629-1.222-5.193-4.887-3.8-9.023
		c1.461-4.339,5.093-6.275,8.742-5.046C401.491,353.785,402.941,357.456,401.568,361.531z M390.877,358.156
		c-0.989,2.939-0.289,6.087,2.509,7.029s5.247-1.1,6.292-4.201c0.922-2.737,0.457-6.054-2.482-7.044
		S391.881,355.176,390.877,358.156z"/>
	<path d="M407.697,357.817l-4.156-1.4l0.506-1.5l10.117,3.407l-0.506,1.5l-4.176-1.407l-4.097,12.164l-1.785-0.601L407.697,357.817z
		"/>
	<path d="M419.01,375.171l-0.746-3.615c-0.32-1.394-0.493-2.288-0.652-3.222l-0.04-0.014c-0.652,0.662-1.304,1.254-2.396,2.219
		l-2.653,2.447l-2.026-0.683l6.504-5.507l-1.739-8.103l2.047,0.689l0.726,3.812c0.207,1.063,0.359,1.882,0.479,2.734l0.061,0.021
		c0.659-0.681,1.215-1.193,2.015-1.895l2.925-2.582l2.047,0.689l-6.395,5.25l1.895,8.449L419.01,375.171z"/>
</g>
<g>
	
		<polyline fill-rule="evenodd" clip-rule="evenodd" fill="none" stroke="#000000" stroke-width="2" stroke-linecap="round" stroke-linejoin="round" stroke-miterlimit="10" points="
		358.828,392.712 360.682,379.838 363.668,367.172 367.891,355.125 372.523,345.342 378.187,336.383 384.881,328.249 	"/>
</g>
<g>
	
		<polyline fill-rule="evenodd" clip-rule="evenodd" stroke="#000000" stroke-width="0.5" stroke-linecap="round" stroke-linejoin="round" stroke-miterlimit="10" points="
		383.027,329.073 384.881,328.249 384.365,330.205 383.027,329.073 	"/>
</g>
<g>
	<path d="M539.48,542.382c-0.844,0.404-2.715,1.027-5.099,1.027c-5.355,0-8.841-3.632-8.841-9.061c0-5.466,3.742-9.464,9.538-9.464
		c1.907,0,3.595,0.477,4.475,0.954l-0.733,2.457c-0.771-0.403-1.98-0.843-3.741-0.843c-4.072,0-6.273,3.044-6.273,6.712
		c0,4.108,2.642,6.64,6.163,6.64c1.834,0,3.045-0.439,3.962-0.844L539.48,542.382z"/>
	<path d="M559.104,533.982c0,6.565-4.585,9.427-8.84,9.427c-4.769,0-8.511-3.521-8.511-9.134c0-5.905,3.926-9.391,8.804-9.391
		C555.656,524.885,559.104,528.59,559.104,533.982z M545.055,534.165c0,3.889,2.201,6.823,5.355,6.823
		c3.081,0,5.393-2.897,5.393-6.896c0-3.008-1.504-6.786-5.319-6.786C546.705,527.306,545.055,530.827,545.055,534.165z"/>
	<path d="M563.175,530.057c0-1.87-0.036-3.338-0.146-4.805h2.861l0.183,2.935h0.074c0.88-1.651,2.935-3.302,5.869-3.302
		c2.457,0,6.272,1.468,6.272,7.557v10.564h-3.229v-10.234c0-2.861-1.063-5.245-4.108-5.245c-2.091,0-3.741,1.504-4.328,3.301
		c-0.146,0.403-0.22,0.954-0.22,1.504v10.675h-3.229V530.057z"/>
	<path d="M587.273,520.996v4.256h4.622v2.457h-4.622v9.574c0,2.201,0.623,3.448,2.421,3.448c0.88,0,1.394-0.073,1.87-0.22
		l0.147,2.457c-0.624,0.221-1.614,0.44-2.861,0.44c-1.504,0-2.715-0.514-3.485-1.357c-0.88-0.99-1.247-2.567-1.247-4.658v-9.685
		h-2.751v-2.457h2.751v-3.302L587.273,520.996z"/>
	<path d="M607.997,538.751c0,1.54,0.073,3.044,0.257,4.255h-2.897l-0.257-2.237h-0.11c-0.99,1.394-2.897,2.641-5.429,2.641
		c-3.595,0-5.429-2.531-5.429-5.099c0-4.292,3.814-6.64,10.674-6.603v-0.367c0-1.431-0.403-4.108-4.034-4.071
		c-1.688,0-3.412,0.477-4.659,1.32l-0.733-2.164c1.467-0.917,3.631-1.541,5.869-1.541c5.429,0,6.749,3.705,6.749,7.227V538.751z
		 M604.879,533.945c-3.521-0.073-7.52,0.551-7.52,3.998c0,2.128,1.395,3.082,3.008,3.082c2.348,0,3.852-1.468,4.365-2.972
		c0.11-0.367,0.146-0.733,0.146-1.027V533.945z"/>
	<path d="M625.859,542.382c-0.844,0.404-2.715,1.027-5.099,1.027c-5.355,0-8.841-3.632-8.841-9.061c0-5.466,3.742-9.464,9.538-9.464
		c1.907,0,3.595,0.477,4.475,0.954l-0.733,2.457c-0.771-0.403-1.98-0.843-3.741-0.843c-4.072,0-6.273,3.044-6.273,6.712
		c0,4.108,2.642,6.64,6.163,6.64c1.834,0,3.045-0.439,3.962-0.844L625.859,542.382z"/>
	<path d="M634.002,520.996v4.256h4.622v2.457h-4.622v9.574c0,2.201,0.623,3.448,2.421,3.448c0.88,0,1.394-0.073,1.87-0.22
		l0.147,2.457c-0.624,0.221-1.614,0.44-2.861,0.44c-1.504,0-2.715-0.514-3.485-1.357c-0.88-0.99-1.247-2.567-1.247-4.658v-9.685
		h-2.751v-2.457h2.751v-3.302L634.002,520.996z"/>
</g>
<g>
	<path d="M529.72,571.268c0-2.274-0.073-4.108-0.146-5.796h2.861l0.184,3.044h0.073c1.283-2.164,3.411-3.411,6.309-3.411
		c4.329,0,7.557,3.632,7.557,8.987c0,6.383-3.925,9.537-8.106,9.537c-2.348,0-4.402-1.027-5.466-2.788h-0.073v9.647h-3.191V571.268z
		 M532.911,575.999c0,0.478,0.037,0.917,0.146,1.32c0.587,2.238,2.531,3.778,4.842,3.778c3.412,0,5.393-2.787,5.393-6.859
		c0-3.521-1.871-6.566-5.282-6.566c-2.201,0-4.292,1.541-4.879,3.962c-0.109,0.403-0.22,0.881-0.22,1.284V575.999z"/>
	<path d="M566.656,574.202c0,6.565-4.585,9.427-8.84,9.427c-4.769,0-8.511-3.521-8.511-9.134c0-5.905,3.926-9.391,8.804-9.391
		C563.209,565.104,566.656,568.81,566.656,574.202z M552.607,574.385c0,3.889,2.201,6.823,5.355,6.823
		c3.081,0,5.393-2.897,5.393-6.896c0-3.008-1.504-6.786-5.319-6.786C554.258,567.525,552.607,571.047,552.607,574.385z"/>
	<path d="M574.321,560.482c0,1.101-0.771,1.981-2.054,1.981c-1.174,0-1.944-0.881-1.944-1.981s0.807-2.018,2.018-2.018
		C573.515,558.465,574.321,559.346,574.321,560.482z M570.727,583.226v-17.754h3.229v17.754H570.727z"/>
	<path d="M579.31,570.276c0-1.87-0.037-3.338-0.146-4.805h2.861l0.184,2.935h0.073c0.88-1.651,2.935-3.302,5.869-3.302
		c2.457,0,6.272,1.468,6.272,7.557v10.564h-3.229v-10.234c0-2.861-1.063-5.245-4.108-5.245c-2.091,0-3.741,1.504-4.328,3.301
		c-0.146,0.403-0.22,0.954-0.22,1.504v10.675h-3.229V570.276z"/>
	<path d="M603.408,561.217v4.255h4.622v2.457h-4.622v9.574c0,2.201,0.623,3.448,2.421,3.448c0.88,0,1.394-0.073,1.871-0.22
		l0.146,2.457c-0.624,0.221-1.614,0.44-2.861,0.44c-1.504,0-2.715-0.514-3.485-1.357c-0.88-0.99-1.247-2.567-1.247-4.658v-9.685
		h-2.751v-2.457h2.751v-3.302L603.408,561.217z"/>
</g>
<g>
	
		<polyline fill-rule="evenodd" clip-rule="evenodd" fill="none" stroke="#000000" stroke-width="2" stroke-linecap="round" stroke-linejoin="round" stroke-miterlimit="10" points="
		592.79,518.857 614.313,516.077 628.729,513.297 635.012,511.033 636.248,510.003 636.145,509.488 633.467,508.458 
		616.786,505.678 611.533,503.927 610.195,502.691 610.092,501.559 612.049,497.851 616.889,493.012 627.391,485.494 
		642.632,476.637 644.796,475.504 	"/>
</g>
<g>
	
		<line fill-rule="evenodd" clip-rule="evenodd" fill="none" stroke="#000000" stroke-width="2" stroke-linecap="round" stroke-linejoin="round" stroke-miterlimit="10" x1="565.399" y1="393.227" x2="236.079" y2="393.227"/>
</g>
</svg>
