<?xml version="1.0" encoding="utf-8"?>
<!-- Generator: Adobe Illustrator 15.0.0, SVG Export Plug-In . SVG Version: 6.00 Build 0)  -->
<!DOCTYPE svg PUBLIC "-//W3C//DTD SVG 1.1//EN" "http://www.w3.org/Graphics/SVG/1.1/DTD/svg11.dtd">
<svg version="1.1" xmlns="http://www.w3.org/2000/svg" xmlns:xlink="http://www.w3.org/1999/xlink" x="0px" y="0px" width="737px"
	 height="333px" viewBox="0 0 737 333" enable-background="new 0 0 737 333" xml:space="preserve">
<g>
	
		<polyline fill-rule="evenodd" clip-rule="evenodd" fill="none" stroke="#48484A" stroke-linecap="round" stroke-linejoin="round" stroke-miterlimit="10" points="
		731.585,297.119 152.598,297.119 152.598,4.829 	"/>
</g>
<g>
	<polyline fill="#48484A" stroke="#48484A" stroke-linecap="round" stroke-linejoin="round" stroke-miterlimit="10" points="
		712.12,304.662 731.585,297.119 712.12,289.496 712.12,304.662 	"/>
</g>
<g>
	<polyline fill="#48484A" stroke="#48484A" stroke-linecap="round" stroke-linejoin="round" stroke-miterlimit="10" points="
		145.056,24.374 152.598,4.829 160.221,24.374 145.056,24.374 	"/>
</g>
<g>
	
		<polyline fill="none" stroke="#48484A" stroke-width="0.5" stroke-linecap="round" stroke-linejoin="round" stroke-miterlimit="10" points="
		150.245,215.773 483.575,215.773 483.575,296.308 	"/>
</g>
<g>
	
		<line fill="none" stroke="#48484A" stroke-width="0.5" stroke-linecap="round" stroke-linejoin="round" stroke-miterlimit="10" x1="318.533" y1="150.974" x2="318.533" y2="296.308"/>
</g>
<g>
	<polyline fill="none" stroke="#48484A" stroke-linecap="round" stroke-linejoin="round" stroke-miterlimit="10" points="
		246.595,83.821 318.533,150.974 483.575,215.773 602.065,215.773 	"/>
</g>
<g>
	
		<path fill-rule="evenodd" clip-rule="evenodd" stroke="#48484A" stroke-linecap="round" stroke-linejoin="round" stroke-miterlimit="10" d="
		M324.939,150.972c-0.005-4.994-5.406-8.111-9.732-5.617c-4.327,2.51-4.319,8.747,0.008,11.241c4.331,2.488,9.721-0.629,9.725-5.623
		"/>
</g>
<g>
	
		<path fill-rule="evenodd" clip-rule="evenodd" stroke="#48484A" stroke-linecap="round" stroke-linejoin="round" stroke-miterlimit="10" d="
		M488.441,214.151c-0.006-4.995-5.406-8.113-9.733-5.618c-4.327,2.511-4.32,8.747,0.007,11.241
		C483.046,222.264,488.437,219.147,488.441,214.151"/>
</g>
<g>
	<path d="M71.875,36.88h2.119v17.096h-2.119V36.88z"/>
	<path d="M88.103,48.052c0,4.31-3.01,6.188-5.803,6.188c-3.13,0-5.586-2.312-5.586-5.996c0-3.876,2.577-6.164,5.779-6.164
		C85.84,42.081,88.103,44.512,88.103,48.052z M78.881,48.172c0,2.552,1.445,4.479,3.516,4.479c2.022,0,3.54-1.902,3.54-4.527
		c0-1.974-0.987-4.454-3.491-4.454C79.965,43.67,78.881,45.981,78.881,48.172z"/>
	<path d="M100.745,52.266c0,2.697-0.554,4.31-1.661,5.345c-1.156,1.035-2.793,1.396-4.262,1.396c-1.396,0-2.938-0.337-3.876-0.963
		l0.53-1.637c0.771,0.506,1.975,0.939,3.419,0.939c2.167,0,3.756-1.131,3.756-4.093v-1.276h-0.048
		c-0.626,1.083-1.902,1.95-3.708,1.95c-2.889,0-4.96-2.456-4.96-5.683c0-3.949,2.576-6.164,5.273-6.164
		c2.023,0,3.106,1.035,3.636,1.999h0.048l0.072-1.758h1.878c-0.072,0.819-0.096,1.782-0.096,3.178V52.266z M98.626,46.92
		c0-0.361-0.024-0.674-0.121-0.939c-0.385-1.252-1.396-2.263-2.961-2.263c-2.023,0-3.467,1.709-3.467,4.406
		c0,2.287,1.18,4.19,3.443,4.19c1.325,0,2.504-0.819,2.938-2.167c0.121-0.361,0.169-0.771,0.169-1.132V46.92z"/>
</g>
<g>
	<path d="M114.643,38.382c1.245-0.211,2.724-0.352,4.344-0.352c2.936,0,5.026,0.704,6.411,1.972
		c1.433,1.292,2.254,3.123,2.254,5.683c0,2.583-0.822,4.697-2.278,6.153c-1.503,1.479-3.945,2.278-7.021,2.278
		c-1.479,0-2.677-0.07-3.71-0.188V38.382z M116.686,52.378c0.517,0.071,1.268,0.094,2.067,0.094c4.391,0,6.739-2.442,6.739-6.716
		c0.024-3.734-2.09-6.105-6.411-6.105c-1.057,0-1.855,0.094-2.396,0.211V52.378z"/>
</g>
<g>
	<path d="M129.184,51.423c0.939,0.602,2.288,1.059,3.732,1.059c2.143,0,3.395-1.132,3.395-2.769c0-1.493-0.867-2.384-3.058-3.202
		c-2.648-0.963-4.286-2.36-4.286-4.623c0-2.528,2.095-4.406,5.249-4.406c1.637,0,2.865,0.385,3.563,0.795l-0.578,1.709
		c-0.505-0.313-1.589-0.771-3.058-0.771c-2.215,0-3.058,1.324-3.058,2.432c0,1.517,0.987,2.263,3.227,3.13
		c2.745,1.06,4.117,2.384,4.117,4.768c0,2.504-1.83,4.695-5.658,4.695c-1.565,0-3.275-0.482-4.142-1.06L129.184,51.423z"/>
</g>
<g>
	<path d="M422.227,153.047c1.06-0.192,2.601-0.337,4.021-0.337c2.239,0,3.708,0.433,4.695,1.324c0.794,0.722,1.276,1.83,1.276,3.106
		c0,2.119-1.348,3.54-3.034,4.118v0.072c1.228,0.433,1.975,1.589,2.36,3.274c0.53,2.264,0.915,3.829,1.252,4.455h-2.167
		c-0.265-0.481-0.626-1.854-1.06-3.876c-0.481-2.239-1.373-3.082-3.274-3.154h-1.975v7.031h-2.095V153.047z M424.321,160.439h2.143
		c2.239,0,3.66-1.228,3.66-3.082c0-2.095-1.517-3.01-3.732-3.01c-1.011,0-1.709,0.072-2.071,0.168V160.439z"/>
	<path d="M448.857,161.933c-0.12-2.264-0.265-5.009-0.265-7.007h-0.048c-0.578,1.878-1.228,3.925-2.046,6.164l-2.866,7.874h-1.589
		l-2.649-7.729c-0.771-2.312-1.396-4.382-1.854-6.308h-0.048c-0.048,2.022-0.168,4.719-0.313,7.175l-0.434,6.958h-1.999
		l1.132-16.229h2.672l2.769,7.85c0.674,1.999,1.204,3.78,1.638,5.466h0.048c0.434-1.637,1.011-3.419,1.734-5.466l2.889-7.85h2.673
		l1.011,16.229h-2.071L448.857,161.933z"/>
	<path d="M453.793,169.06v-1.3l1.662-1.613c3.997-3.804,5.827-5.827,5.827-8.187c0-1.589-0.746-3.058-3.082-3.058
		c-1.42,0-2.6,0.723-3.323,1.324l-0.674-1.493c1.06-0.891,2.625-1.589,4.407-1.589c3.371,0,4.792,2.312,4.792,4.551
		c0,2.89-2.095,5.225-5.394,8.404l-1.228,1.156v0.048h7.007v1.758H453.793z"/>
</g>
<g>
	<path d="M277.702,81.191c1.06-0.192,2.601-0.337,4.021-0.337c2.239,0,3.708,0.433,4.695,1.324c0.794,0.722,1.276,1.83,1.276,3.106
		c0,2.119-1.348,3.54-3.034,4.118v0.072c1.228,0.433,1.975,1.589,2.36,3.274c0.53,2.264,0.915,3.829,1.252,4.455h-2.167
		c-0.265-0.481-0.626-1.854-1.06-3.876c-0.481-2.239-1.373-3.082-3.274-3.154h-1.975v7.031h-2.095V81.191z M279.797,88.583h2.143
		c2.239,0,3.66-1.228,3.66-3.082c0-2.095-1.517-3.01-3.732-3.01c-1.011,0-1.709,0.072-2.071,0.168V88.583z"/>
	<path d="M304.333,90.076c-0.12-2.264-0.265-5.009-0.265-7.007h-0.048c-0.578,1.878-1.228,3.925-2.046,6.164l-2.866,7.874h-1.589
		l-2.649-7.729c-0.771-2.312-1.396-4.382-1.854-6.308h-0.048c-0.048,2.022-0.168,4.719-0.313,7.175l-0.434,6.958h-1.999
		l1.132-16.229h2.672l2.769,7.85c0.674,1.999,1.204,3.78,1.638,5.466h0.048c0.434-1.637,1.011-3.419,1.734-5.466l2.889-7.85h2.673
		l1.011,16.229h-2.071L304.333,90.076z"/>
	<path d="M313.868,83.526h-0.048l-2.721,1.469l-0.41-1.613l3.419-1.83h1.806v15.651h-2.046V83.526z"/>
	<path d="M320.923,100.189c0.53-1.445,1.18-4.021,1.445-5.779l2.359-0.241c-0.578,2.046-1.637,4.719-2.312,5.851L320.923,100.189z"
		/>
	<path d="M327.352,81.191c1.059-0.192,2.6-0.337,4.021-0.337c2.239,0,3.708,0.433,4.695,1.324c0.794,0.722,1.276,1.83,1.276,3.106
		c0,2.119-1.348,3.54-3.034,4.118v0.072c1.228,0.433,1.975,1.589,2.36,3.274c0.53,2.264,0.915,3.829,1.252,4.455h-2.167
		c-0.265-0.481-0.626-1.854-1.06-3.876c-0.481-2.239-1.373-3.082-3.274-3.154h-1.975v7.031h-2.095V81.191z M329.447,88.583h2.143
		c2.239,0,3.66-1.228,3.66-3.082c0-2.095-1.517-3.01-3.732-3.01c-1.011,0-1.709,0.072-2.071,0.168V88.583z"/>
	<path d="M351.695,96.697c-0.747,0.385-2.312,0.771-4.286,0.771c-4.575,0-7.994-2.889-7.994-8.234c0-5.105,3.443-8.524,8.476-8.524
		c1.999,0,3.299,0.434,3.853,0.722l-0.53,1.71c-0.771-0.386-1.902-0.674-3.25-0.674c-3.804,0-6.333,2.432-6.333,6.694
		c0,3.997,2.288,6.525,6.212,6.525c1.3,0,2.6-0.265,3.443-0.674L351.695,96.697z"/>
	<path d="M358.196,83.526h-0.048l-2.721,1.469l-0.41-1.613l3.419-1.83h1.806v15.651h-2.046V83.526z"/>
</g>
<g>
	<path d="M640.155,310.762h2.119v17.096h-2.119V310.762z"/>
	<path d="M656.384,321.934c0,4.31-3.01,6.188-5.803,6.188c-3.13,0-5.586-2.312-5.586-5.995c0-3.877,2.576-6.164,5.779-6.164
		C654.121,315.963,656.384,318.395,656.384,321.934z M647.162,322.055c0,2.552,1.445,4.479,3.516,4.479
		c2.022,0,3.54-1.902,3.54-4.527c0-1.975-0.987-4.455-3.492-4.455C648.246,317.552,647.162,319.863,647.162,322.055z"/>
	<path d="M669.025,326.148c0,2.697-0.554,4.31-1.661,5.345c-1.156,1.036-2.793,1.396-4.262,1.396c-1.396,0-2.938-0.337-3.876-0.963
		l0.53-1.637c0.771,0.505,1.974,0.939,3.419,0.939c2.167,0,3.756-1.132,3.756-4.093v-1.276h-0.048
		c-0.626,1.083-1.902,1.95-3.708,1.95c-2.889,0-4.96-2.456-4.96-5.682c0-3.949,2.576-6.164,5.273-6.164
		c2.023,0,3.106,1.035,3.636,1.999h0.048l0.072-1.758h1.878c-0.072,0.818-0.096,1.782-0.096,3.178V326.148z M666.907,320.802
		c0-0.361-0.024-0.674-0.121-0.939c-0.385-1.252-1.396-2.263-2.961-2.263c-2.023,0-3.467,1.709-3.467,4.406
		c0,2.288,1.18,4.189,3.443,4.189c1.325,0,2.504-0.818,2.938-2.167c0.12-0.361,0.168-0.771,0.168-1.131V320.802z"/>
	<path d="M677.694,327.857v-16.229h2.312l5.177,8.211c1.18,1.902,2.143,3.612,2.889,5.273l0.072-0.024
		c-0.192-2.167-0.241-4.142-0.241-6.669v-6.791h1.975v16.229h-2.119l-5.153-8.235c-1.131-1.806-2.215-3.66-3.01-5.417l-0.072,0.024
		c0.121,2.047,0.145,3.997,0.145,6.694v6.935H677.694z"/>
</g>
<g>
	<path d="M5.128,212.79h2.119v17.096H5.128V212.79z"/>
	<path d="M21.357,223.962c0,4.31-3.01,6.188-5.803,6.188c-3.13,0-5.586-2.312-5.586-5.995c0-3.877,2.576-6.164,5.779-6.164
		C19.094,217.991,21.357,220.423,21.357,223.962z M12.135,224.083c0,2.552,1.445,4.479,3.515,4.479c2.023,0,3.54-1.902,3.54-4.527
		c0-1.975-0.987-4.455-3.491-4.455C13.218,219.58,12.135,221.892,12.135,224.083z"/>
	<path d="M33.998,228.176c0,2.697-0.554,4.31-1.661,5.345c-1.156,1.036-2.793,1.396-4.262,1.396c-1.397,0-2.938-0.337-3.877-0.963
		l0.53-1.637c0.771,0.505,1.974,0.939,3.419,0.939c2.167,0,3.756-1.132,3.756-4.093v-1.276h-0.048
		c-0.626,1.083-1.902,1.95-3.708,1.95c-2.889,0-4.96-2.456-4.96-5.682c0-3.949,2.576-6.164,5.273-6.164
		c2.022,0,3.106,1.035,3.636,1.999h0.048l0.072-1.758h1.878c-0.072,0.818-0.096,1.782-0.096,3.178V228.176z M31.879,222.831
		c0-0.361-0.024-0.674-0.12-0.939c-0.385-1.252-1.396-2.263-2.962-2.263c-2.022,0-3.467,1.709-3.467,4.406
		c0,2.288,1.18,4.189,3.443,4.189c1.324,0,2.504-0.818,2.938-2.167c0.12-0.361,0.168-0.771,0.168-1.131V222.831z"/>
	<path d="M42.064,213.175c-1.758,2.384-3.01,5.49-3.01,9.872c0,4.286,1.324,7.344,3.01,9.752h-1.637
		c-1.517-1.999-3.154-5.081-3.154-9.776c0.024-4.719,1.637-7.826,3.154-9.848H42.064z"/>
	<path d="M44.376,213.657h8.74v1.758h-6.622v5.394h6.116v1.734h-6.116v7.344h-2.119V213.657z"/>
	<path d="M56.874,224.781l-1.686,5.104h-2.167l5.538-16.229h2.504l5.538,16.229h-2.239l-1.734-5.104H56.874z M62.219,223.144
		l-1.613-4.671c-0.361-1.06-0.602-2.022-0.843-2.962h-0.048c-0.241,0.939-0.481,1.951-0.819,2.938l-1.589,4.695H62.219z"/>
	<path d="M70.213,215.438h-4.936v-1.782h12.015v1.782h-4.96v14.447h-2.119V215.438z"/>
	<path d="M79.074,213.657h2.119v14.471h6.935v1.758h-9.054V213.657z"/>
	<path d="M92.558,213.657v16.229h-2.119v-16.229H92.558z"/>
	<path d="M109.895,222.759c-0.12-2.264-0.265-5.009-0.265-7.007h-0.048c-0.578,1.878-1.228,3.925-2.046,6.164l-2.866,7.874h-1.589
		l-2.649-7.729c-0.771-2.312-1.396-4.382-1.854-6.308H98.53c-0.048,2.022-0.168,4.719-0.313,7.175l-0.434,6.958h-1.999l1.132-16.229
		h2.672l2.769,7.85c0.674,1.999,1.204,3.78,1.638,5.466h0.048c0.434-1.637,1.011-3.419,1.734-5.466l2.889-7.85h2.673l1.011,16.229
		h-2.071L109.895,222.759z"/>
	<path d="M114.229,232.799c1.686-2.384,3.01-5.49,3.01-9.824c0-4.334-1.3-7.392-3.01-9.8h1.638c1.517,1.975,3.154,5.081,3.154,9.8
		c-0.024,4.72-1.637,7.802-3.154,9.824H114.229z"/>
</g>
<g>
	<path d="M443.531,311.628h8.741v1.758h-6.622v5.394h6.116v1.734h-6.116v7.344h-2.119V311.628z"/>
	<path d="M456.029,322.753l-1.686,5.104h-2.167l5.538-16.229h2.504l5.538,16.229h-2.239l-1.734-5.104H456.029z M461.374,321.115
		l-1.613-4.671c-0.361-1.06-0.602-2.022-0.843-2.962h-0.048c-0.241,0.939-0.482,1.951-0.819,2.938l-1.589,4.695H461.374z"/>
	<path d="M469.369,313.41h-4.936v-1.782h12.015v1.782h-4.96v14.447h-2.119V313.41z"/>
	<path d="M478.229,311.628h2.119V326.1h6.935v1.758h-9.054V311.628z"/>
	<path d="M491.713,311.628v16.229h-2.119v-16.229H491.713z"/>
	<path d="M509.05,320.73c-0.12-2.264-0.265-5.009-0.265-7.007h-0.048c-0.578,1.878-1.228,3.925-2.046,6.164l-2.866,7.874h-1.589
		l-2.649-7.729c-0.771-2.312-1.396-4.382-1.854-6.308h-0.048c-0.048,2.022-0.168,4.719-0.313,7.175l-0.434,6.958h-1.999
		l1.132-16.229h2.672l2.769,7.85c0.674,1.999,1.204,3.78,1.638,5.466h0.048c0.434-1.637,1.011-3.419,1.734-5.466l2.889-7.85h2.673
		l1.011,16.229h-2.071L509.05,320.73z"/>
</g>
<g>
	<path d="M291.085,311.845c1.06-0.192,2.601-0.337,4.021-0.337c2.239,0,3.708,0.433,4.695,1.324c0.794,0.722,1.276,1.83,1.276,3.106
		c0,2.119-1.348,3.54-3.034,4.118v0.072c1.228,0.433,1.975,1.589,2.36,3.274c0.53,2.264,0.915,3.829,1.252,4.455h-2.167
		c-0.265-0.481-0.626-1.854-1.06-3.876c-0.481-2.239-1.373-3.082-3.274-3.154h-1.975v7.031h-2.095V311.845z M293.18,319.237h2.143
		c2.239,0,3.66-1.228,3.66-3.082c0-2.095-1.517-3.01-3.732-3.01c-1.011,0-1.709,0.072-2.071,0.168V319.237z"/>
	<path d="M304.04,327.857v-16.229h2.312l5.177,8.211c1.18,1.902,2.143,3.612,2.889,5.273l0.072-0.024
		c-0.192-2.167-0.241-4.142-0.241-6.669v-6.791h1.975v16.229h-2.119l-5.153-8.235c-1.131-1.806-2.215-3.66-3.01-5.417l-0.072,0.024
		c0.121,2.047,0.145,3.997,0.145,6.694v6.935H304.04z"/>
	<path d="M331.2,327.352c-0.747,0.385-2.312,0.771-4.286,0.771c-4.575,0-7.994-2.889-7.994-8.234c0-5.105,3.443-8.524,8.476-8.524
		c1.999,0,3.299,0.434,3.853,0.722l-0.53,1.71c-0.771-0.386-1.902-0.674-3.25-0.674c-3.804,0-6.333,2.432-6.333,6.694
		c0,3.997,2.288,6.525,6.212,6.525c1.3,0,2.6-0.265,3.443-0.674L331.2,327.352z"/>
	<path d="M333.102,327.857v-1.3l1.662-1.613c3.997-3.804,5.827-5.827,5.827-8.187c0-1.589-0.746-3.058-3.082-3.058
		c-1.42,0-2.6,0.723-3.323,1.324l-0.674-1.493c1.06-0.891,2.625-1.589,4.407-1.589c3.371,0,4.792,2.312,4.792,4.551
		c0,2.89-2.095,5.225-5.394,8.404l-1.228,1.156v0.048h7.007v1.758H333.102z"/>
</g>
</svg>
