<?xml version="1.0" encoding="utf-8"?>
<!-- Generator: Adobe Illustrator 15.0.0, SVG Export Plug-In . SVG Version: 6.00 Build 0)  -->
<!DOCTYPE svg PUBLIC "-//W3C//DTD SVG 1.1//EN" "http://www.w3.org/Graphics/SVG/1.1/DTD/svg11.dtd">
<svg version="1.1" id="_x3C_Layer_x3E_" xmlns="http://www.w3.org/2000/svg" xmlns:xlink="http://www.w3.org/1999/xlink" x="0px"
	 y="0px" width="518.5px" height="860.5px" viewBox="0 0 518.5 860.5" enable-background="new 0 0 518.5 860.5"
	 xml:space="preserve">
<g>
	<polyline fill-rule="evenodd" clip-rule="evenodd" fill="#EFF0F0" points="304.957,106.615 304.957,143.982 307.72,145.153 
		311.231,146.043 313.619,146.324 316.242,146.184 319.474,145.575 319.474,145.528 322.985,144.357 323.172,144.217 
		323.735,143.982 323.735,106.615 304.957,106.615 	"/>
</g>
<g>
	<polyline fill-rule="evenodd" clip-rule="evenodd" fill="#CBCDCF" points="304.957,106.615 304.957,143.982 307.72,145.153 
		311.231,146.043 313.619,146.324 316.242,146.184 319.474,145.575 319.474,145.528 319.941,145.388 319.941,106.615 
		304.957,106.615 	"/>
</g>
<g>
	<polyline fill-rule="evenodd" clip-rule="evenodd" fill="#A7A9AC" points="304.957,106.615 304.957,143.982 307.72,145.153 
		311.231,146.043 313.619,146.324 316.195,146.231 316.195,106.615 304.957,106.615 	"/>
</g>
<g>
	<polyline fill-rule="evenodd" clip-rule="evenodd" fill="#85878A" points="304.957,106.615 304.957,143.982 307.72,145.153 
		311.231,146.043 312.45,146.231 312.45,106.615 304.957,106.615 	"/>
</g>
<g>
	<polyline fill-rule="evenodd" clip-rule="evenodd" fill="#636467" points="304.957,106.615 304.957,143.982 307.72,145.153 
		308.703,145.435 308.703,106.615 304.957,106.615 	"/>
</g>
<g>
	
		<polygon fill-rule="evenodd" clip-rule="evenodd" fill="none" stroke="#000000" stroke-linejoin="round" stroke-miterlimit="10" points="
		304.957,106.615 304.957,143.936 305.004,143.982 305.144,144.03 305.425,144.17 305.753,144.311 306.175,144.498 306.643,144.686 
		307.813,145.106 309.218,145.528 310.764,145.903 312.45,146.184 314.182,146.277 315.961,146.184 317.646,145.903 
		319.285,145.528 320.691,145.106 321.908,144.686 322.423,144.498 322.845,144.311 323.219,144.17 323.453,144.03 323.642,143.982 
		323.688,143.936 323.688,106.615 	"/>
</g>
<g>
	
		<path fill-rule="evenodd" clip-rule="evenodd" fill="#E2E3E4" stroke="#000000" stroke-linejoin="round" stroke-miterlimit="10" d="
		M321.814,105.709c-0.006-3.306-7.139-5.372-12.854-3.712c-5.71,1.664-5.708,5.817,0.003,7.467
		C314.683,111.109,321.813,109.026,321.814,105.709"/>
</g>
<g>
	<polyline fill-rule="evenodd" clip-rule="evenodd" fill="#95979A" points="213.69,110.643 214.252,124.362 214.299,124.362 
		214.44,125.159 214.486,125.159 214.814,126.048 215.611,127.078 216.781,128.202 263.515,147.542 367.658,147.495 
		406.807,131.199 407.789,130.169 408.212,128.67 407.93,114.95 325.981,145.668 321.674,146.793 317.413,147.448 314.276,147.495 
		314.276,147.448 311.372,147.214 311.372,147.167 309.499,146.886 309.499,146.839 306.643,146.184 306.502,146.09 
		304.067,145.341 303.973,145.247 301.351,144.311 301.351,144.264 213.784,110.643 213.69,110.643 	"/>
</g>
<g>
	<polyline fill-rule="evenodd" clip-rule="evenodd" fill="#95979A" points="263.608,147.542 263.749,147.636 301.959,163.369 
		305.612,164.587 310.154,165.57 314.042,165.992 318.35,165.852 318.35,165.805 320.926,165.523 320.926,165.477 324.437,164.868 
		324.437,164.821 328.558,163.791 328.558,163.744 367.518,147.542 263.608,147.542 	"/>
</g>
<g>
	<polyline fill-rule="evenodd" clip-rule="evenodd" fill="#949698" points="217.952,112.281 214.159,122.021 214.206,123.801 
		214.486,125.346 214.533,125.346 214.814,126.048 215.611,127.078 216.781,128.202 263.515,147.542 367.658,147.495 
		406.807,131.199 407.789,130.169 408.212,128.67 407.93,114.95 325.981,145.668 321.674,146.793 317.413,147.448 314.276,147.495 
		314.276,147.448 311.372,147.214 311.372,147.167 309.499,146.886 309.499,146.839 306.643,146.184 306.502,146.09 
		304.067,145.341 303.973,145.247 301.351,144.311 301.351,144.264 218.045,112.281 217.952,112.281 	"/>
</g>
<g>
	<polyline fill-rule="evenodd" clip-rule="evenodd" fill="#949698" points="263.608,147.542 263.749,147.636 301.959,163.369 
		305.612,164.587 310.154,165.57 314.042,165.992 318.35,165.852 318.35,165.805 320.926,165.523 320.926,165.477 324.437,164.868 
		324.437,164.821 328.558,163.791 328.558,163.744 367.518,147.542 263.608,147.542 	"/>
</g>
<g>
	<polyline fill-rule="evenodd" clip-rule="evenodd" fill="#95979A" points="222.259,113.919 216.734,128.155 263.515,147.542 
		367.658,147.495 406.807,131.199 407.789,130.169 408.212,128.67 407.93,114.95 325.981,145.668 321.674,146.793 317.413,147.448 
		314.276,147.495 314.276,147.448 311.372,147.214 311.372,147.167 309.499,146.886 309.499,146.839 306.643,146.184 
		306.502,146.09 304.067,145.341 303.973,145.247 301.351,144.311 301.351,144.264 222.306,113.919 222.259,113.919 	"/>
</g>
<g>
	<polyline fill-rule="evenodd" clip-rule="evenodd" fill="#95979A" points="263.608,147.542 263.749,147.636 301.959,163.369 
		305.612,164.587 310.154,165.57 314.042,165.992 318.35,165.852 318.35,165.805 320.926,165.523 320.926,165.477 324.437,164.868 
		324.437,164.821 328.558,163.791 328.558,163.744 367.518,147.542 263.608,147.542 	"/>
</g>
<g>
	<polyline fill-rule="evenodd" clip-rule="evenodd" fill="#989A9C" points="407.837,114.95 407.837,114.997 325.981,145.668 
		321.674,146.793 317.413,147.448 313.715,147.448 313.715,147.401 311.372,147.214 311.372,147.167 309.499,146.886 
		309.499,146.839 306.83,146.231 306.83,146.184 303.833,145.247 303.692,145.153 226.521,115.559 220.948,129.935 263.515,147.542 
		367.658,147.495 406.807,131.199 407.789,130.169 408.212,128.67 407.93,114.95 407.837,114.95 	"/>
</g>
<g>
	<polyline fill-rule="evenodd" clip-rule="evenodd" fill="#989A9C" points="263.608,147.542 263.749,147.636 301.959,163.369 
		305.612,164.587 310.154,165.57 314.042,165.992 318.35,165.852 318.35,165.805 320.926,165.523 320.926,165.477 324.437,164.868 
		324.437,164.821 328.558,163.791 328.558,163.744 367.518,147.542 263.608,147.542 	"/>
</g>
<g>
	<polyline fill-rule="evenodd" clip-rule="evenodd" fill="#999B9E" points="407.837,114.95 407.837,114.997 325.981,145.668 
		321.674,146.793 317.413,147.448 313.715,147.448 313.715,147.401 311.372,147.214 311.372,147.167 309.499,146.886 
		309.499,146.839 306.83,146.231 306.83,146.184 303.833,145.247 303.692,145.153 230.83,117.198 225.209,131.714 263.515,147.542 
		367.658,147.495 406.807,131.199 407.789,130.169 408.212,128.67 407.93,114.95 407.837,114.95 	"/>
</g>
<g>
	<polyline fill-rule="evenodd" clip-rule="evenodd" fill="#999B9E" points="263.608,147.542 263.749,147.636 301.959,163.369 
		305.612,164.587 310.154,165.57 314.042,165.992 318.35,165.852 318.35,165.805 320.926,165.523 320.926,165.477 324.437,164.868 
		324.437,164.821 328.558,163.791 328.558,163.744 367.518,147.542 263.608,147.542 	"/>
</g>
<g>
	<polyline fill-rule="evenodd" clip-rule="evenodd" fill="#9B9DA0" points="407.837,114.95 407.837,114.997 325.981,145.668 
		321.674,146.793 317.413,147.448 314.276,147.495 314.276,147.448 311.372,147.214 311.372,147.167 309.499,146.886 
		309.499,146.839 306.643,146.184 306.502,146.09 304.067,145.341 303.973,145.247 301.351,144.311 301.351,144.264 
		235.091,118.837 229.425,133.447 263.515,147.542 367.658,147.495 406.807,131.199 407.789,130.169 408.212,128.67 407.93,114.95 
		407.837,114.95 	"/>
</g>
<g>
	<polyline fill-rule="evenodd" clip-rule="evenodd" fill="#9B9DA0" points="263.608,147.542 263.749,147.636 301.959,163.369 
		305.612,164.587 310.154,165.57 314.042,165.992 318.35,165.852 318.35,165.805 320.926,165.523 320.926,165.477 324.437,164.868 
		324.437,164.821 328.558,163.791 328.558,163.744 367.518,147.542 263.608,147.542 	"/>
</g>
<g>
	<polyline fill-rule="evenodd" clip-rule="evenodd" fill="#9D9FA2" points="407.837,114.95 407.837,114.997 325.981,145.668 
		321.674,146.793 317.413,147.448 314.276,147.495 314.276,147.448 311.372,147.214 311.372,147.167 309.499,146.886 
		309.499,146.839 306.643,146.184 306.502,146.09 304.067,145.341 303.973,145.247 301.351,144.311 301.351,144.264 
		239.352,120.523 233.639,135.18 263.515,147.542 367.658,147.495 406.807,131.199 407.789,130.169 408.212,128.67 407.93,114.95 
		407.837,114.95 	"/>
</g>
<g>
	<polyline fill-rule="evenodd" clip-rule="evenodd" fill="#9D9FA2" points="263.608,147.542 263.749,147.636 301.959,163.369 
		305.612,164.587 310.154,165.57 314.042,165.992 318.35,165.852 318.35,165.805 320.926,165.523 320.926,165.477 324.437,164.868 
		324.437,164.821 328.558,163.791 328.558,163.744 367.518,147.542 263.608,147.542 	"/>
</g>
<g>
	<polyline fill-rule="evenodd" clip-rule="evenodd" fill="#9FA1A4" points="407.837,114.95 407.837,114.997 325.981,145.668 
		321.674,146.793 317.413,147.448 314.276,147.495 314.276,147.448 311.372,147.214 311.372,147.167 309.499,146.886 
		309.499,146.839 306.643,146.184 306.502,146.09 304.067,145.341 303.973,145.247 301.351,144.311 301.351,144.264 243.66,122.162 
		237.9,136.959 263.515,147.542 367.658,147.495 406.807,131.199 407.789,130.169 408.212,128.67 407.93,114.95 407.837,114.95 	"/>
</g>
<g>
	<polyline fill-rule="evenodd" clip-rule="evenodd" fill="#9FA1A4" points="263.608,147.542 263.749,147.636 301.959,163.369 
		305.612,164.587 310.154,165.57 314.042,165.992 318.35,165.852 318.35,165.805 320.926,165.523 320.926,165.477 324.437,164.868 
		324.437,164.821 328.558,163.791 328.558,163.744 367.518,147.542 263.608,147.542 	"/>
</g>
<g>
	<polyline fill-rule="evenodd" clip-rule="evenodd" fill="#A1A3A6" points="407.837,114.95 407.837,114.997 325.981,145.668 
		321.674,146.793 317.413,147.448 313.715,147.448 313.715,147.401 311.372,147.214 311.372,147.167 309.499,146.886 
		309.499,146.839 306.83,146.231 306.83,146.184 303.833,145.247 303.692,145.153 247.968,123.801 242.162,138.692 263.515,147.542 
		367.658,147.495 406.807,131.199 407.789,130.169 408.212,128.67 407.93,114.95 407.837,114.95 	"/>
</g>
<g>
	<polyline fill-rule="evenodd" clip-rule="evenodd" fill="#A1A3A6" points="263.608,147.542 263.749,147.636 301.959,163.369 
		305.612,164.587 310.154,165.57 314.042,165.992 318.35,165.852 318.35,165.805 320.926,165.523 320.926,165.477 324.437,164.868 
		324.437,164.821 328.558,163.791 328.558,163.744 367.518,147.542 263.608,147.542 	"/>
</g>
<g>
	<polyline fill-rule="evenodd" clip-rule="evenodd" fill="#A3A5A8" points="407.837,114.95 407.837,114.997 325.981,145.668 
		321.674,146.793 317.413,147.448 313.715,147.448 313.715,147.401 311.372,147.214 311.372,147.167 309.499,146.886 
		309.499,146.839 306.83,146.231 306.83,146.184 303.833,145.247 303.692,145.153 252.229,125.439 246.423,140.472 263.515,147.542 
		367.658,147.495 406.807,131.199 407.789,130.169 408.212,128.67 407.93,114.95 407.837,114.95 	"/>
</g>
<g>
	<polyline fill-rule="evenodd" clip-rule="evenodd" fill="#A3A5A8" points="263.608,147.542 263.749,147.636 301.959,163.369 
		305.612,164.587 310.154,165.57 314.042,165.992 318.35,165.852 318.35,165.805 320.926,165.523 320.926,165.477 324.437,164.868 
		324.437,164.821 328.558,163.791 328.558,163.744 367.518,147.542 263.608,147.542 	"/>
</g>
<g>
	<polyline fill-rule="evenodd" clip-rule="evenodd" fill="#A5A7A9" points="407.837,114.95 407.837,114.997 325.981,145.668 
		321.674,146.793 317.413,147.448 313.715,147.448 313.715,147.401 311.372,147.214 311.372,147.167 309.499,146.886 
		309.499,146.839 306.83,146.231 306.83,146.184 303.833,145.247 303.692,145.153 256.491,127.078 250.59,142.203 263.515,147.542 
		367.658,147.495 406.807,131.199 407.789,130.169 408.212,128.67 407.93,114.95 407.837,114.95 	"/>
</g>
<g>
	<polyline fill-rule="evenodd" clip-rule="evenodd" fill="#A5A7A9" points="263.608,147.542 263.749,147.636 301.959,163.369 
		305.612,164.587 310.154,165.57 314.042,165.992 318.35,165.852 318.35,165.805 320.926,165.523 320.926,165.477 324.437,164.868 
		324.437,164.821 328.558,163.791 328.558,163.744 367.518,147.542 263.608,147.542 	"/>
</g>
<g>
	<polyline fill-rule="evenodd" clip-rule="evenodd" fill="#A7A9AC" points="407.837,114.95 407.837,114.997 325.981,145.668 
		321.674,146.793 317.413,147.448 314.276,147.495 314.276,147.448 311.372,147.214 311.372,147.167 309.499,146.886 
		309.499,146.839 306.643,146.184 306.502,146.09 304.067,145.341 303.973,145.247 301.351,144.311 301.351,144.264 
		260.799,128.717 254.898,143.982 263.515,147.542 367.658,147.495 406.807,131.199 407.789,130.169 408.212,128.67 407.93,114.95 
		407.837,114.95 	"/>
</g>
<g>
	<polyline fill-rule="evenodd" clip-rule="evenodd" fill="#A7A9AC" points="263.608,147.542 263.749,147.636 301.959,163.369 
		305.612,164.587 310.154,165.57 314.042,165.992 318.35,165.852 318.35,165.805 320.926,165.523 320.926,165.477 324.437,164.868 
		324.437,164.821 328.558,163.791 328.558,163.744 367.518,147.542 263.608,147.542 	"/>
</g>
<g>
	<polyline fill-rule="evenodd" clip-rule="evenodd" fill="#A9ABAD" points="407.837,114.95 407.837,114.997 325.981,145.668 
		321.674,146.793 317.413,147.448 314.276,147.495 314.276,147.448 311.372,147.214 311.372,147.167 309.499,146.886 
		309.499,146.839 306.643,146.184 306.502,146.09 304.067,145.341 303.973,145.247 301.351,144.311 301.351,144.264 265.06,130.403 
		259.113,145.715 263.515,147.542 367.658,147.495 406.807,131.199 407.789,130.169 408.212,128.67 407.93,114.95 407.837,114.95 	
		"/>
</g>
<g>
	<polyline fill-rule="evenodd" clip-rule="evenodd" fill="#A9ABAD" points="263.608,147.542 263.749,147.636 301.959,163.369 
		305.612,164.587 310.154,165.57 314.042,165.992 318.35,165.852 318.35,165.805 320.926,165.523 320.926,165.477 324.437,164.868 
		324.437,164.821 328.558,163.791 328.558,163.744 367.518,147.542 263.608,147.542 	"/>
</g>
<g>
	<polyline fill-rule="evenodd" clip-rule="evenodd" fill="#ABADB0" points="407.837,114.95 407.837,114.997 325.981,145.668 
		321.674,146.793 317.413,147.448 313.715,147.448 313.715,147.401 311.372,147.214 311.372,147.167 309.499,146.886 
		309.499,146.839 306.83,146.231 306.83,146.184 303.833,145.247 303.692,145.153 269.321,132.042 263.327,147.448 263.515,147.542 
		367.658,147.495 406.807,131.199 407.789,130.169 408.212,128.67 407.93,114.95 407.837,114.95 	"/>
</g>
<g>
	<polyline fill-rule="evenodd" clip-rule="evenodd" fill="#ABADB0" points="263.608,147.542 263.749,147.636 301.959,163.369 
		305.612,164.587 310.154,165.57 314.042,165.992 318.35,165.852 318.35,165.805 320.926,165.523 320.926,165.477 324.437,164.868 
		324.437,164.821 328.558,163.791 328.558,163.744 367.518,147.542 263.608,147.542 	"/>
</g>
<g>
	<polyline fill-rule="evenodd" clip-rule="evenodd" fill="#ADAFB1" points="407.837,114.95 407.837,114.997 325.981,145.668 
		321.674,146.793 317.413,147.448 313.715,147.448 313.715,147.401 311.372,147.214 311.372,147.167 309.499,146.886 
		309.499,146.839 306.83,146.231 306.83,146.184 303.833,145.247 303.692,145.153 273.676,133.681 267.636,149.134 363.913,149.087 
		363.913,149.041 406.807,131.199 407.789,130.169 408.212,128.67 407.93,114.95 407.837,114.95 	"/>
</g>
<g>
	<polyline fill-rule="evenodd" clip-rule="evenodd" fill="#ADAFB1" points="267.636,149.134 267.729,149.274 301.959,163.369 
		305.612,164.587 310.154,165.57 314.042,165.992 318.35,165.852 318.35,165.805 320.926,165.523 320.926,165.477 324.437,164.868 
		324.437,164.821 328.558,163.791 328.558,163.744 363.68,149.134 267.636,149.134 	"/>
</g>
<g>
	<polyline fill-rule="evenodd" clip-rule="evenodd" fill="#AEB0B3" points="407.837,114.95 407.837,114.997 325.981,145.668 
		321.674,146.793 317.413,147.448 313.715,147.448 313.715,147.401 311.372,147.214 311.372,147.167 309.499,146.886 
		309.499,146.839 306.83,146.231 306.83,146.184 303.833,145.247 303.692,145.153 277.938,135.32 271.896,150.773 359.886,150.726 
		406.807,131.199 407.789,130.169 408.212,128.67 407.93,114.95 407.837,114.95 	"/>
</g>
<g>
	<polyline fill-rule="evenodd" clip-rule="evenodd" fill="#AEB0B3" points="271.896,150.773 271.85,150.96 301.959,163.369 
		305.612,164.587 310.154,165.57 314.042,165.992 318.35,165.852 318.35,165.805 320.926,165.523 320.926,165.477 324.437,164.868 
		324.437,164.821 328.558,163.791 328.558,163.744 359.745,150.773 271.896,150.773 	"/>
</g>
<g>
	<polyline fill-rule="evenodd" clip-rule="evenodd" fill="#B1B3B5" points="407.837,114.95 407.837,114.997 325.981,145.668 
		321.674,146.793 317.413,147.448 314.276,147.495 314.276,147.448 311.372,147.214 311.372,147.167 309.499,146.886 
		309.499,146.839 306.643,146.184 306.502,146.09 304.067,145.341 303.973,145.247 301.351,144.311 301.351,144.264 
		282.199,136.959 276.205,152.412 355.952,152.366 406.807,131.199 407.789,130.169 408.212,128.67 407.93,114.95 407.837,114.95 	
		"/>
</g>
<g>
	<polyline fill-rule="evenodd" clip-rule="evenodd" fill="#B1B3B5" points="276.158,152.412 276.111,152.74 301.959,163.369 
		305.612,164.587 310.154,165.57 314.042,165.992 318.35,165.852 318.35,165.805 320.926,165.523 320.926,165.477 324.437,164.868 
		324.437,164.821 328.558,163.791 328.558,163.744 355.812,152.412 276.158,152.412 	"/>
</g>
<g>
	<polyline fill-rule="evenodd" clip-rule="evenodd" fill="#B2B4B7" points="407.837,114.95 407.837,114.997 325.981,145.668 
		321.674,146.793 317.413,147.448 314.276,147.495 314.276,147.448 311.372,147.214 311.372,147.167 309.499,146.886 
		309.499,146.839 306.643,146.184 306.502,146.09 304.067,145.341 303.973,145.247 301.351,144.311 301.351,144.264 
		286.507,138.598 280.513,154.051 352.111,154.004 352.205,153.911 406.807,131.199 407.789,130.169 408.212,128.67 407.93,114.95 
		407.837,114.95 	"/>
</g>
<g>
	<polyline fill-rule="evenodd" clip-rule="evenodd" fill="#B2B4B7" points="280.513,154.051 280.373,154.52 301.959,163.369 
		305.612,164.587 310.154,165.57 314.042,165.992 318.35,165.852 318.35,165.805 320.926,165.523 320.926,165.477 324.437,164.868 
		324.437,164.821 328.558,163.791 328.558,163.744 351.877,154.051 280.513,154.051 	"/>
</g>
<g>
	<polyline fill-rule="evenodd" clip-rule="evenodd" fill="#B5B7B9" points="407.837,114.95 407.837,114.997 325.981,145.668 
		321.674,146.793 317.413,147.448 313.715,147.448 313.715,147.401 311.372,147.214 311.372,147.167 309.499,146.886 
		309.499,146.839 306.83,146.231 306.83,146.184 303.833,145.247 303.692,145.153 290.768,140.237 284.774,155.69 348.178,155.643 
		348.272,155.549 406.807,131.199 407.789,130.169 408.212,128.67 407.93,114.95 407.837,114.95 	"/>
</g>
<g>
	<polyline fill-rule="evenodd" clip-rule="evenodd" fill="#B5B7B9" points="284.774,155.69 284.586,156.251 301.959,163.369 
		305.612,164.587 310.154,165.57 314.042,165.992 318.35,165.852 318.35,165.805 320.926,165.523 320.926,165.477 324.437,164.868 
		324.437,164.821 328.558,163.791 328.558,163.744 347.944,155.69 284.774,155.69 	"/>
</g>
<g>
	<polyline fill-rule="evenodd" clip-rule="evenodd" fill="#B7B9BB" points="407.837,114.95 407.837,114.997 325.981,145.668 
		321.674,146.793 317.413,147.448 313.715,147.448 313.715,147.401 311.372,147.214 311.372,147.167 309.499,146.886 
		309.499,146.839 306.83,146.231 306.83,146.184 303.833,145.247 303.692,145.153 295.076,141.876 289.035,157.329 344.244,157.282 
		344.433,157.142 406.807,131.199 407.789,130.169 408.212,128.67 407.93,114.95 407.837,114.95 	"/>
</g>
<g>
	<polyline fill-rule="evenodd" clip-rule="evenodd" fill="#B7B9BB" points="289.035,157.329 288.801,157.984 301.959,163.369 
		305.612,164.587 310.154,165.57 314.042,165.992 318.35,165.852 318.35,165.805 320.926,165.523 320.926,165.477 324.437,164.868 
		324.437,164.821 328.558,163.791 328.558,163.744 344.011,157.329 289.035,157.329 	"/>
</g>
<g>
	<polyline fill-rule="evenodd" clip-rule="evenodd" fill="#B9BBBD" points="407.837,114.95 407.837,114.997 325.981,145.668 
		321.674,146.793 317.413,147.448 313.715,147.448 313.715,147.401 311.372,147.214 311.372,147.167 309.499,146.886 
		309.499,146.839 306.83,146.231 306.83,146.184 303.833,145.247 303.692,145.153 299.338,143.515 293.297,158.967 340.265,158.921 
		340.265,158.874 406.807,131.199 407.789,130.169 408.212,128.67 407.93,114.95 407.837,114.95 	"/>
</g>
<g>
	<polyline fill-rule="evenodd" clip-rule="evenodd" fill="#B9BBBD" points="293.297,158.967 293.063,159.764 303.271,163.885 
		307.907,165.149 311.7,165.805 314.042,165.992 318.35,165.852 318.35,165.805 320.926,165.523 320.926,165.477 324.437,164.868 
		324.437,164.821 328.558,163.791 328.558,163.744 340.076,158.967 293.297,158.967 	"/>
</g>
<g>
	<polyline fill-rule="evenodd" clip-rule="evenodd" fill="#BBBDBF" points="407.837,114.95 407.837,114.997 325.981,145.668 
		321.674,146.793 317.413,147.448 314.276,147.495 314.276,147.448 311.372,147.214 311.372,147.167 309.499,146.886 
		309.499,146.839 306.643,146.184 306.502,146.09 304.067,145.341 303.973,145.247 303.646,145.153 297.652,160.606 336.331,160.56 
		336.331,160.513 406.807,131.199 407.789,130.169 408.212,128.67 407.93,114.95 407.837,114.95 	"/>
</g>
<g>
	<polyline fill-rule="evenodd" clip-rule="evenodd" fill="#BBBDBF" points="297.605,160.606 297.277,161.496 301.959,163.369 
		305.612,164.587 310.154,165.57 314.042,165.992 318.35,165.852 318.35,165.805 320.926,165.523 320.926,165.477 324.437,164.868 
		324.437,164.821 328.558,163.791 328.558,163.744 336.144,160.606 297.605,160.606 	"/>
</g>
<g>
	<polyline fill-rule="evenodd" clip-rule="evenodd" fill="#BDBFC1" points="407.837,114.95 407.837,114.997 325.981,145.668 
		321.674,146.793 317.413,147.448 314.276,147.495 314.276,147.448 311.372,147.214 311.372,147.167 309.499,146.886 
		309.499,146.839 308.047,146.559 302.007,162.012 332.96,161.965 332.96,161.917 406.807,131.199 407.789,130.169 408.212,128.67 
		407.93,114.95 407.837,114.95 	"/>
</g>
<g>
	<polyline fill-rule="evenodd" clip-rule="evenodd" fill="#BDBFC1" points="302.007,162.012 301.538,163.229 305.612,164.587 
		310.154,165.57 314.042,165.992 318.35,165.852 318.35,165.805 320.926,165.523 320.926,165.477 324.437,164.868 324.437,164.821 
		328.558,163.791 328.558,163.744 332.726,162.012 302.007,162.012 	"/>
</g>
<g>
	<polyline fill-rule="evenodd" clip-rule="evenodd" fill="#BFC1C3" points="407.837,114.95 407.837,114.997 325.981,145.668 
		321.674,146.793 317.413,147.448 313.715,147.448 313.715,147.401 312.637,147.354 306.596,162.808 331.04,162.761 331.04,162.714 
		406.807,131.199 407.789,130.169 408.212,128.67 407.93,114.95 407.837,114.95 	"/>
</g>
<g>
	<polyline fill-rule="evenodd" clip-rule="evenodd" fill="#BFC1C3" points="306.596,162.808 305.894,164.634 309.827,165.523 
		314.042,165.992 318.35,165.852 318.35,165.805 320.926,165.523 320.926,165.477 324.437,164.868 324.437,164.821 328.558,163.791 
		328.558,163.744 330.853,162.808 306.596,162.808 	"/>
</g>
<g>
	<polyline fill-rule="evenodd" clip-rule="evenodd" fill="#C1C3C5" points="407.837,114.95 407.837,114.997 325.981,145.668 
		321.674,146.793 317.787,147.401 317.554,147.401 311.513,162.948 330.712,162.901 330.712,162.854 406.807,131.199 
		407.789,130.169 408.212,128.67 407.93,114.95 407.837,114.95 	"/>
</g>
<g>
	<polyline fill-rule="evenodd" clip-rule="evenodd" fill="#C1C3C5" points="311.513,162.948 310.482,165.617 314.042,165.992 
		318.35,165.852 318.35,165.805 320.926,165.523 320.926,165.477 324.437,164.868 324.437,164.821 328.558,163.791 328.558,163.744 
		330.479,162.948 311.513,162.948 	"/>
</g>
<g>
	<polyline fill-rule="evenodd" clip-rule="evenodd" fill="#C3C5C7" points="407.837,114.95 407.837,114.997 325.981,145.668 
		322.798,146.512 316.429,162.948 330.712,162.901 330.712,162.854 406.807,131.199 407.789,130.169 408.212,128.67 407.93,114.95 
		407.837,114.95 	"/>
</g>
<g>
	<polyline fill-rule="evenodd" clip-rule="evenodd" fill="#C3C5C7" points="316.382,162.948 315.213,165.992 318.35,165.852 
		318.35,165.805 320.926,165.523 320.926,165.477 324.437,164.868 324.437,164.821 328.558,163.791 328.558,163.744 
		330.479,162.948 316.382,162.948 	"/>
</g>
<g>
	<polyline fill-rule="evenodd" clip-rule="evenodd" fill="#C5C7C9" points="407.837,114.95 407.837,114.997 328.418,144.779 
		321.347,162.948 330.712,162.901 330.712,162.854 406.807,131.199 407.789,130.169 408.212,128.67 407.93,114.95 407.837,114.95 	
		"/>
</g>
<g>
	<polyline fill-rule="evenodd" clip-rule="evenodd" fill="#C5C7C9" points="321.3,162.948 320.316,165.617 324.25,164.915 
		324.25,164.868 328.558,163.791 328.558,163.744 330.479,162.948 321.3,162.948 	"/>
</g>
<g>
	<polyline fill-rule="evenodd" clip-rule="evenodd" fill="#C7C9CB" points="407.837,114.95 407.837,114.997 334.223,142.625 
		326.311,162.948 330.712,162.901 330.712,162.854 406.807,131.199 407.789,130.169 408.212,128.67 407.93,114.95 407.837,114.95 	
		"/>
</g>
<g>
	<polyline fill-rule="evenodd" clip-rule="evenodd" fill="#C7C9CB" points="326.264,162.948 325.701,164.54 329.167,163.557 
		329.354,163.416 330.479,162.948 326.264,162.948 	"/>
</g>
<g>
	<polyline fill-rule="evenodd" clip-rule="evenodd" fill="#C9CBCC" points="407.837,114.95 407.837,114.997 339.937,140.472 
		331.32,162.62 406.807,131.199 407.789,130.169 408.212,128.67 407.93,114.95 407.837,114.95 	"/>
</g>
<g>
	<polyline fill-rule="evenodd" clip-rule="evenodd" fill="#CBCDCF" points="407.837,114.95 407.837,114.997 345.744,138.27 
		337.221,160.185 406.807,131.199 407.789,130.169 408.212,128.67 407.93,114.95 407.837,114.95 	"/>
</g>
<g>
	<polyline fill-rule="evenodd" clip-rule="evenodd" fill="#CDCFD0" points="407.837,114.95 407.837,114.997 351.503,136.116 
		343.074,157.75 406.807,131.199 407.789,130.169 408.212,128.67 407.93,114.95 407.837,114.95 	"/>
</g>
<g>
	<polyline fill-rule="evenodd" clip-rule="evenodd" fill="#CFD1D3" points="407.837,114.95 407.837,114.997 357.263,133.962 
		348.975,155.269 406.807,131.199 407.789,130.169 408.212,128.67 407.93,114.95 407.837,114.95 	"/>
</g>
<g>
	<polyline fill-rule="evenodd" clip-rule="evenodd" fill="#D1D3D4" points="407.837,114.95 407.837,114.997 363.07,131.761 
		354.874,152.833 406.807,131.199 407.789,130.169 408.212,128.67 407.93,114.95 407.837,114.95 	"/>
</g>
<g>
	<polyline fill-rule="evenodd" clip-rule="evenodd" fill="#D4D5D7" points="407.837,114.95 407.837,114.997 368.829,129.607 
		360.728,150.398 406.807,131.199 407.789,130.169 408.212,128.67 407.93,114.95 407.837,114.95 	"/>
</g>
<g>
	<polyline fill-rule="evenodd" clip-rule="evenodd" fill="#D5D7D8" points="407.837,114.95 407.837,114.997 374.589,127.5 
		366.628,147.916 406.807,131.199 407.789,130.169 408.212,128.67 407.93,114.95 407.837,114.95 	"/>
</g>
<g>
	<polyline fill-rule="evenodd" clip-rule="evenodd" fill="#D8D9DA" points="407.837,114.95 407.837,114.997 380.396,125.253 
		372.482,145.481 406.807,131.199 407.789,130.169 408.212,128.67 407.93,114.95 407.837,114.95 	"/>
</g>
<g>
	<polyline fill-rule="evenodd" clip-rule="evenodd" fill="#D9DBDC" points="407.837,114.95 407.837,114.997 386.155,123.099 
		378.383,143.046 406.807,131.199 407.789,130.169 408.212,128.67 407.93,114.95 407.837,114.95 	"/>
</g>
<g>
	<polyline fill-rule="evenodd" clip-rule="evenodd" fill="#DCDDDE" points="407.837,114.95 407.837,114.997 391.916,120.991 
		384.281,140.565 406.807,131.199 407.789,130.169 408.212,128.67 407.93,114.95 407.837,114.95 	"/>
</g>
<g>
	<polyline fill-rule="evenodd" clip-rule="evenodd" fill="#DEDFE0" points="407.837,114.95 407.837,114.997 397.629,118.79 
		390.088,138.177 406.807,131.199 407.789,130.169 408.212,128.67 407.93,114.95 407.837,114.95 	"/>
</g>
<g>
	<polyline fill-rule="evenodd" clip-rule="evenodd" fill="#E0E1E2" points="407.837,114.95 407.837,114.997 403.341,116.636 
		395.896,135.742 406.807,131.199 407.789,130.169 408.212,128.67 407.93,114.95 407.837,114.95 	"/>
</g>
<g>
	<polyline fill-rule="evenodd" clip-rule="evenodd" fill="#E2E3E4" points="407.93,117.385 401.702,133.353 406.807,131.199 
		407.789,130.169 408.212,128.67 407.977,117.385 407.93,117.385 	"/>
</g>
<g>
	
		<polygon fill-rule="evenodd" clip-rule="evenodd" fill="none" stroke="#000000" stroke-linejoin="round" stroke-miterlimit="10" points="
		214.674,125.813 214.299,124.643 214.159,122.302 213.69,110.643 305.284,145.762 310.482,147.074 314.79,147.495 317.038,147.448 
		321.252,146.839 325.326,145.856 407.883,114.95 408.163,128.389 407.883,129.794 407.087,130.918 405.496,131.714 
		327.856,163.931 321.954,165.29 317.085,165.898 314.51,165.945 309.546,165.43 304.395,164.166 301.211,163.042 216.641,128.015 
		215.33,126.797 	"/>
</g>
<g>
	<polyline fill-rule="evenodd" clip-rule="evenodd" fill="#EFF0F0" points="215.423,69.387 215.423,110.548 218.514,111.906 
		221.697,112.796 224.086,113.077 226.942,112.937 226.942,112.89 229.472,112.375 229.472,112.328 232.515,111.344 232.609,111.25 
		234.201,110.548 234.201,69.387 215.423,69.387 	"/>
</g>
<g>
	<polyline fill-rule="evenodd" clip-rule="evenodd" fill="#CBCDCF" points="215.423,69.387 215.423,110.548 218.514,111.906 
		221.697,112.796 224.086,113.077 226.942,112.937 226.942,112.89 229.472,112.375 229.472,112.328 230.408,112.094 230.408,69.387 
		215.423,69.387 	"/>
</g>
<g>
	<polyline fill-rule="evenodd" clip-rule="evenodd" fill="#A7A9AC" points="215.423,69.387 215.423,110.548 218.514,111.906 
		221.697,112.796 224.086,113.077 226.662,112.983 226.662,69.387 215.423,69.387 	"/>
</g>
<g>
	<polyline fill-rule="evenodd" clip-rule="evenodd" fill="#85878A" points="215.423,69.387 215.423,110.548 218.514,111.906 
		221.697,112.796 222.915,112.983 222.915,69.387 215.423,69.387 	"/>
</g>
<g>
	<polyline fill-rule="evenodd" clip-rule="evenodd" fill="#636467" points="215.423,69.387 215.423,110.548 218.514,111.906 
		219.169,112.094 219.169,69.387 215.423,69.387 	"/>
</g>
<g>
	
		<polygon fill-rule="evenodd" clip-rule="evenodd" fill="none" stroke="#000000" stroke-linejoin="round" stroke-miterlimit="10" points="
		215.423,69.387 215.423,110.501 215.47,110.548 215.611,110.596 215.892,110.736 216.22,110.876 216.641,111.11 217.109,111.298 
		218.28,111.766 219.685,112.234 221.229,112.656 222.915,112.937 224.648,113.03 226.427,112.937 228.113,112.656 229.752,112.234 
		231.157,111.766 232.375,111.298 232.89,111.11 233.311,110.876 233.686,110.736 233.92,110.596 234.107,110.548 234.154,110.501 
		234.154,69.387 	"/>
</g>
<g>
	
		<path fill-rule="evenodd" clip-rule="evenodd" fill="#E2E3E4" stroke="#000000" stroke-linejoin="round" stroke-miterlimit="10" d="
		M232.562,68.763c-0.006-3.307-7.138-5.372-12.854-3.712c-5.71,1.664-5.708,5.816,0.004,7.467
		C225.429,74.163,232.56,72.08,232.562,68.763"/>
</g>
<g>
	<polyline fill-rule="evenodd" clip-rule="evenodd" fill="#636467" points="388.824,78.658 388.824,115.043 392.383,116.402 
		395.474,117.104 398.658,117.292 398.658,117.245 401.046,117.058 401.046,117.011 402.873,116.683 402.873,116.636 
		405.963,115.746 406.058,115.652 407.649,115.043 407.649,78.658 388.824,78.658 	"/>
</g>
<g>
	<polyline fill-rule="evenodd" clip-rule="evenodd" fill="#858789" points="392.57,78.658 392.57,116.449 395.474,117.104 
		398.658,117.292 398.658,117.245 401.046,117.058 401.046,117.011 402.873,116.683 402.873,116.636 405.963,115.746 
		406.058,115.652 407.649,115.043 407.649,78.658 392.57,78.658 	"/>
</g>
<g>
	<polyline fill-rule="evenodd" clip-rule="evenodd" fill="#A6A8AB" points="396.363,78.658 396.363,117.198 398.658,117.292 
		398.658,117.245 401.046,117.058 401.046,117.011 402.873,116.683 402.873,116.636 405.963,115.746 406.058,115.652 
		407.649,115.043 407.649,78.658 396.363,78.658 	"/>
</g>
<g>
	<polyline fill-rule="evenodd" clip-rule="evenodd" fill="#CBCCCE" points="400.109,78.658 400.109,117.151 402.497,116.776 
		402.497,116.729 405.12,116.027 405.12,115.98 407.649,115.043 407.649,78.658 400.109,78.658 	"/>
</g>
<g>
	<polyline fill-rule="evenodd" clip-rule="evenodd" fill="#EFF0F0" points="403.855,78.658 403.855,116.402 403.949,116.355 
		404.231,116.308 404.231,116.261 404.512,116.214 404.512,116.167 404.887,116.121 404.887,116.074 405.026,116.074 
		405.026,116.027 405.12,116.027 405.12,115.98 405.4,115.934 405.4,115.886 405.496,115.886 405.496,115.84 405.776,115.793 
		405.776,115.746 405.963,115.746 405.963,115.699 406.058,115.699 406.058,115.652 406.197,115.652 406.197,115.605 
		406.291,115.605 406.291,115.559 406.479,115.559 406.479,115.512 406.571,115.512 406.571,115.465 406.712,115.465 
		406.712,115.418 406.807,115.418 406.807,115.372 406.947,115.372 406.947,115.325 407.134,115.278 407.134,115.231 
		407.321,115.184 407.321,115.137 407.602,115.09 407.602,115.043 407.649,115.043 407.649,78.658 403.855,78.658 	"/>
</g>
<g>
	
		<polygon fill-rule="evenodd" clip-rule="evenodd" fill="none" stroke="#000000" stroke-linejoin="round" stroke-miterlimit="10" points="
		388.824,78.658 388.824,114.997 388.871,115.043 389.012,115.09 389.293,115.184 389.621,115.372 390.041,115.512 390.511,115.699 
		391.682,116.121 393.087,116.542 394.631,116.917 396.317,117.151 398.05,117.245 399.828,117.151 401.562,116.917 
		403.154,116.542 404.605,116.121 405.823,115.699 406.338,115.512 406.759,115.372 407.134,115.184 407.368,115.09 
		407.556,115.043 407.602,114.997 407.602,78.658 	"/>
</g>
<g>
	
		<path fill-rule="evenodd" clip-rule="evenodd" fill="#E2E3E4" stroke="#000000" stroke-linejoin="round" stroke-miterlimit="10" d="
		M405.683,77.52c-0.004-2.909-7.136-4.728-12.852-3.267c-5.711,1.465-5.713,5.123-0.001,6.575
		c5.715,1.448,12.849-0.387,12.853-3.307"/>
</g>
<g>
	
		<polyline fill-rule="evenodd" clip-rule="evenodd" fill="#ADB0B2" stroke="#000000" stroke-linejoin="round" stroke-miterlimit="10" points="
		302.896,133.072 234.81,106.146 302.896,133.072 	"/>
</g>
<g>
	
		<line fill-rule="evenodd" clip-rule="evenodd" fill="none" stroke="#000000" stroke-linecap="round" stroke-linejoin="round" stroke-miterlimit="10" x1="324.671" y1="134.243" x2="388.028" y2="111.298"/>
</g>
<g>
	
		<polyline fill-rule="evenodd" clip-rule="evenodd" fill="#ADB0B2" stroke="#000000" stroke-linecap="round" stroke-linejoin="round" stroke-miterlimit="10" points="
		233.546,83.904 235.465,79.127 304.161,106.989 302.241,111.813 233.546,83.904 	"/>
</g>
<g>
	
		<polyline fill-rule="evenodd" clip-rule="evenodd" fill="#ADB0B2" stroke="#000000" stroke-linecap="round" stroke-linejoin="round" stroke-miterlimit="10" points="
		324.297,108.722 323.126,104.555 387.795,86.245 389.012,90.413 324.297,108.722 	"/>
</g>
<g>
	
		<polyline fill-rule="evenodd" clip-rule="evenodd" fill="none" stroke="#000000" stroke-linecap="round" stroke-linejoin="round" stroke-miterlimit="10" points="
		232.047,66.156 315.961,45.177 397.16,73.742 	"/>
</g>
<g>
	
		<polyline fill-rule="evenodd" clip-rule="evenodd" fill="none" stroke="#000000" stroke-linecap="round" stroke-linejoin="round" stroke-miterlimit="10" points="
		368.221,87.931 316.758,70.136 316.758,13.522 	"/>
</g>
<g>
	<polyline stroke="#000000" stroke-linecap="round" stroke-linejoin="round" stroke-miterlimit="10" points="359.886,89.007 
		368.221,87.931 362.367,81.937 359.886,89.007 	"/>
</g>
<g>
	<polyline stroke="#000000" stroke-linecap="round" stroke-linejoin="round" stroke-miterlimit="10" points="313.011,21.015 
		316.758,13.522 320.503,21.015 313.011,21.015 	"/>
</g>
<g>
	
		<line fill="none" stroke="#000000" stroke-linecap="round" stroke-linejoin="round" stroke-miterlimit="10" x1="316.758" y1="70.136" x2="264.498" y2="85.964"/>
</g>
<g>
	<polyline stroke="#000000" stroke-linecap="round" stroke-linejoin="round" stroke-miterlimit="10" points="272.786,87.369 
		264.498,85.964 270.585,80.204 272.786,87.369 	"/>
</g>
<g>
	<polyline fill="none" stroke="#000000" stroke-linecap="round" stroke-linejoin="round" stroke-miterlimit="10" points="
		286.554,402.891 213.737,459.739 273.302,535.553 349.396,473.882 	"/>
</g>
<g>
	
		<line fill="none" stroke="#000000" stroke-linecap="round" stroke-linejoin="round" stroke-miterlimit="10" x1="281.731" y1="415.254" x2="281.731" y2="405.935"/>
</g>
<g>
	
		<line fill="none" stroke="#000000" stroke-linecap="round" stroke-linejoin="round" stroke-miterlimit="10" x1="274.8" y1="422.138" x2="274.8" y2="412.819"/>
</g>
<g>
	
		<line fill="none" stroke="#000000" stroke-linecap="round" stroke-linejoin="round" stroke-miterlimit="10" x1="266.98" y1="427.851" x2="266.98" y2="418.531"/>
</g>
<g>
	
		<line fill="none" stroke="#000000" stroke-linecap="round" stroke-linejoin="round" stroke-miterlimit="10" x1="258.879" y1="434.499" x2="258.879" y2="425.181"/>
</g>
<g>
	
		<line fill="none" stroke="#000000" stroke-linecap="round" stroke-linejoin="round" stroke-miterlimit="10" x1="252.229" y1="439.604" x2="252.229" y2="430.285"/>
</g>
<g>
	
		<line fill="none" stroke="#000000" stroke-linecap="round" stroke-linejoin="round" stroke-miterlimit="10" x1="244.128" y1="446.207" x2="244.128" y2="436.888"/>
</g>
<g>
	
		<line fill="none" stroke="#000000" stroke-linecap="round" stroke-linejoin="round" stroke-miterlimit="10" x1="237.198" y1="451.639" x2="237.198" y2="442.319"/>
</g>
<g>
	
		<line fill="none" stroke="#000000" stroke-linecap="round" stroke-linejoin="round" stroke-miterlimit="10" x1="229.097" y1="457.352" x2="229.097" y2="448.032"/>
</g>
<g>
	
		<line fill="none" stroke="#000000" stroke-linecap="round" stroke-linejoin="round" stroke-miterlimit="10" x1="221.885" y1="462.783" x2="221.885" y2="453.464"/>
</g>
<g>
	
		<line fill="none" stroke="#000000" stroke-linecap="round" stroke-linejoin="round" stroke-miterlimit="10" x1="226.989" y1="475.381" x2="226.989" y2="466.061"/>
</g>
<g>
	
		<line fill="none" stroke="#000000" stroke-linecap="round" stroke-linejoin="round" stroke-miterlimit="10" x1="231.813" y1="481.14" x2="231.813" y2="471.82"/>
</g>
<g>
	
		<line fill="none" stroke="#000000" stroke-linecap="round" stroke-linejoin="round" stroke-miterlimit="10" x1="236.917" y1="488.632" x2="236.917" y2="479.314"/>
</g>
<g>
	
		<line fill="none" stroke="#000000" stroke-linecap="round" stroke-linejoin="round" stroke-miterlimit="10" x1="242.911" y1="496.172" x2="242.911" y2="486.853"/>
</g>
<g>
	
		<line fill="none" stroke="#000000" stroke-linecap="round" stroke-linejoin="round" stroke-miterlimit="10" x1="247.125" y1="501.604" x2="247.125" y2="492.237"/>
</g>
<g>
	
		<line fill="none" stroke="#000000" stroke-linecap="round" stroke-linejoin="round" stroke-miterlimit="10" x1="252.558" y1="508.815" x2="252.558" y2="499.495"/>
</g>
<g>
	
		<line fill="none" stroke="#000000" stroke-linecap="round" stroke-linejoin="round" stroke-miterlimit="10" x1="258.598" y1="515.698" x2="258.598" y2="506.379"/>
</g>
<g>
	
		<line fill="none" stroke="#000000" stroke-linecap="round" stroke-linejoin="round" stroke-miterlimit="10" x1="264.592" y1="524.454" x2="264.592" y2="515.137"/>
</g>
<g>
	
		<line fill="none" stroke="#000000" stroke-linecap="round" stroke-linejoin="round" stroke-miterlimit="10" x1="269.415" y1="530.449" x2="269.415" y2="521.13"/>
</g>
<g>
	
		<line fill="none" stroke="#000000" stroke-linecap="round" stroke-linejoin="round" stroke-miterlimit="10" x1="277.516" y1="530.167" x2="277.516" y2="520.85"/>
</g>
<g>
	
		<line fill="none" stroke="#000000" stroke-linecap="round" stroke-linejoin="round" stroke-miterlimit="10" x1="285.945" y1="523.236" x2="285.945" y2="513.919"/>
</g>
<g>
	
		<line fill="none" stroke="#000000" stroke-linecap="round" stroke-linejoin="round" stroke-miterlimit="10" x1="293.156" y1="517.196" x2="293.156" y2="507.878"/>
</g>
<g>
	
		<line fill="none" stroke="#000000" stroke-linecap="round" stroke-linejoin="round" stroke-miterlimit="10" x1="303.411" y1="509.096" x2="303.411" y2="499.775"/>
</g>
<g>
	
		<line fill="none" stroke="#000000" stroke-linecap="round" stroke-linejoin="round" stroke-miterlimit="10" x1="311.84" y1="502.165" x2="311.84" y2="492.848"/>
</g>
<g>
	
		<line fill="none" stroke="#000000" stroke-linecap="round" stroke-linejoin="round" stroke-miterlimit="10" x1="319.941" y1="497.06" x2="319.941" y2="487.742"/>
</g>
<g>
	
		<line fill="none" stroke="#000000" stroke-linecap="round" stroke-linejoin="round" stroke-miterlimit="10" x1="328.37" y1="488.96" x2="328.37" y2="479.642"/>
</g>
<g>
	
		<line fill="none" stroke="#000000" stroke-linecap="round" stroke-linejoin="round" stroke-miterlimit="10" x1="336.799" y1="483.247" x2="336.472" y2="475.707"/>
</g>
<g>
	<polyline fill="none" stroke="#000000" stroke-linecap="round" stroke-linejoin="round" stroke-miterlimit="10" points="
		33.265,389.827 33.265,507.598 457.566,507.598 	"/>
</g>
<g>
	<polyline stroke="#000000" stroke-linecap="round" stroke-linejoin="round" stroke-miterlimit="10" points="38.884,401.064 
		33.265,389.827 27.646,401.064 38.884,401.064 	"/>
</g>
<g>
	<polyline stroke="#000000" stroke-linecap="round" stroke-linejoin="round" stroke-miterlimit="10" points="446.328,501.979 
		457.566,507.598 446.328,513.215 446.328,501.979 	"/>
</g>
<g>
	
		<line fill="none" stroke="#000000" stroke-linecap="round" stroke-linejoin="round" stroke-miterlimit="10" x1="33.265" y1="507.598" x2="109.359" y2="366.88"/>
</g>
<g>
	<polyline stroke="#000000" stroke-linecap="round" stroke-linejoin="round" stroke-miterlimit="10" points="99.057,374.092 
		109.359,366.88 108.984,379.431 99.057,374.092 	"/>
</g>
<g>
	<polyline fill="none" stroke="#000000" stroke-linecap="round" stroke-linejoin="round" stroke-miterlimit="10" points="
		195.896,536.817 319.941,434.641 365.552,493.596 	"/>
</g>
<g>
	<polyline stroke="#000000" stroke-linecap="round" stroke-linejoin="round" stroke-miterlimit="10" points="201,525.298 
		195.896,536.817 208.165,533.96 201,525.298 	"/>
</g>
<g>
	<polyline stroke="#000000" stroke-linecap="round" stroke-linejoin="round" stroke-miterlimit="10" points="363.116,481.233 
		365.552,493.596 354.219,488.116 363.116,481.233 	"/>
</g>
<g>
	<polyline fill="none" stroke="#000000" stroke-linecap="round" stroke-linejoin="round" stroke-miterlimit="10" points="
		423.992,434.641 319.941,434.641 406.479,267.841 	"/>
</g>
<g>
	<polyline stroke="#000000" stroke-linecap="round" stroke-linejoin="round" stroke-miterlimit="10" points="396.317,275.24 
		406.479,267.841 406.291,280.438 396.317,275.24 	"/>
</g>
<g>
	<polyline fill="none" stroke="#000000" stroke-linecap="round" stroke-linejoin="round" stroke-miterlimit="10" points="
		473.207,122.911 32.235,122.911 32.235,47.893 	"/>
</g>
<g>
	<polyline stroke="#000000" stroke-linecap="round" stroke-linejoin="round" stroke-miterlimit="10" points="461.969,128.576 
		473.207,122.911 461.969,117.292 461.969,128.576 	"/>
</g>
<g>
	<polyline stroke="#000000" stroke-linecap="round" stroke-linejoin="round" stroke-miterlimit="10" points="26.616,59.132 
		32.235,47.893 37.854,59.132 26.616,59.132 	"/>
</g>
<g>
	
		<line fill="none" stroke="#000000" stroke-linecap="round" stroke-linejoin="round" stroke-miterlimit="10" x1="32.235" y1="122.911" x2="91.659" y2="71.869"/>
</g>
<g>
	<polyline stroke="#000000" stroke-linecap="round" stroke-linejoin="round" stroke-miterlimit="10" points="79.437,74.913 
		91.659,71.869 86.789,83.435 79.437,74.913 	"/>
</g>
<path fill="none" stroke="#000000" stroke-linecap="round" stroke-linejoin="round" stroke-miterlimit="10" d="M297.058,453.492
	c8.145,16.702,26.677,25.622,44.81,21.571c18.129-4.078,31.055-20.009,31.313-38.588c0.229-18.58-12.319-34.876-30.338-39.406"/>
<g>
	<polyline stroke="#000000" stroke-linecap="round" stroke-linejoin="round" stroke-miterlimit="10" points="351.831,405.935 
		342.887,397.084 355.296,395.258 351.831,405.935 	"/>
</g>
<g>
	
		<line fill="none" stroke="#000000" stroke-width="0.5" stroke-linecap="round" stroke-linejoin="round" stroke-miterlimit="10" stroke-dasharray="8,4" x1="222.962" y1="782.052" x2="412.474" y2="782.052"/>
</g>
<path fill="none" stroke="#000000" stroke-linecap="round" stroke-linejoin="round" stroke-miterlimit="10" d="M356.045,433.563
	c-0.327-15.781-13.813-26.223-29.641-26.223c-16.016,0-28.986,12.971-28.986,28.987c0,4.496,0.188,5.572,1.686,9.787"/>
<g>
	<polyline stroke="#000000" stroke-linecap="round" stroke-linejoin="round" stroke-miterlimit="10" points="300.602,433.609 
		299.104,446.113 290.019,437.402 300.602,433.609 	"/>
</g>
<g>
	<polyline fill="none" stroke="#000000" stroke-linecap="round" stroke-linejoin="round" stroke-miterlimit="10" points="
		389.808,435.67 389.667,428.459 389.059,422.793 387.888,417.267 386.202,412.022 383.533,406.076 380.771,401.393 
		376.884,396.195 372.388,391.465 367.331,387.25 361.711,383.552 355.624,380.46 351.268,378.729 350.192,378.354 	"/>
</g>
<g>
	<polyline stroke="#000000" stroke-linecap="round" stroke-linejoin="round" stroke-miterlimit="10" points="358.995,387.298 
		350.192,378.354 362.648,376.668 358.995,387.298 	"/>
</g>
<path fill="none" stroke="#000000" stroke-linecap="round" stroke-linejoin="round" stroke-miterlimit="10" d="M108.29,508.521
	c-1.055-26.033-21.935-46.863-47.97-47.856"/>
<g>
	<polyline stroke="#000000" stroke-linecap="round" stroke-linejoin="round" stroke-miterlimit="10" points="70.961,467.513 
		60.377,460.676 72.178,456.321 70.961,467.513 	"/>
</g>
<g>
	
		<line fill="none" stroke="#000000" stroke-linecap="round" stroke-linejoin="round" stroke-miterlimit="10" x1="323.406" y1="779.944" x2="323.406" y2="713.59"/>
</g>
<g>
	<polyline stroke="#000000" stroke-linecap="round" stroke-linejoin="round" stroke-miterlimit="10" points="320.316,721.738 
		323.406,713.59 326.544,721.738 320.316,721.738 	"/>
</g>
<g>
	<polyline fill="none" stroke="#000000" stroke-linecap="round" stroke-linejoin="round" stroke-miterlimit="10" points="
		453.914,799.144 35.888,799.144 35.888,676.128 	"/>
</g>
<g>
	<polyline stroke="#000000" stroke-linecap="round" stroke-linejoin="round" stroke-miterlimit="10" points="442.629,804.763 
		453.914,799.144 442.629,793.524 442.629,804.763 	"/>
</g>
<g>
	<polyline stroke="#000000" stroke-linecap="round" stroke-linejoin="round" stroke-miterlimit="10" points="30.221,687.368 
		35.888,676.128 41.507,687.368 30.221,687.368 	"/>
</g>
<g>
	<polyline fill="#FFFFFF" points="338.953,735.131 338.953,735.179 286.319,735.318 286.319,735.365 260.003,735.411 
		260.003,796.335 277.797,796.335 277.797,750.536 281.871,750.536 281.871,750.491 286.038,750.491 286.038,750.443 
		294.28,750.396 294.28,750.35 298.448,750.35 298.448,750.304 314.931,750.162 314.931,750.116 319.098,750.116 319.098,750.069 
		327.34,750.022 327.34,749.975 331.461,749.975 331.461,749.93 335.628,749.93 335.628,749.882 352.111,749.742 352.111,735.131 
		338.953,735.131 	"/>
</g>
<g>
	
		<line fill="none" stroke="#000000" stroke-width="0.25" stroke-linecap="round" stroke-linejoin="round" stroke-miterlimit="10" x1="260.003" y1="740.47" x2="265.716" y2="735.411"/>
</g>
<g>
	
		<line fill="none" stroke="#000000" stroke-width="0.25" stroke-linecap="round" stroke-linejoin="round" stroke-miterlimit="10" x1="260.003" y1="745.761" x2="271.756" y2="735.411"/>
</g>
<g>
	
		<line fill="none" stroke="#000000" stroke-width="0.25" stroke-linecap="round" stroke-linejoin="round" stroke-miterlimit="10" x1="260.003" y1="751.099" x2="277.797" y2="735.365"/>
</g>
<g>
	
		<line fill="none" stroke="#000000" stroke-width="0.25" stroke-linecap="round" stroke-linejoin="round" stroke-miterlimit="10" x1="260.003" y1="756.343" x2="283.791" y2="735.365"/>
</g>
<g>
	
		<line fill="none" stroke="#000000" stroke-width="0.25" stroke-linecap="round" stroke-linejoin="round" stroke-miterlimit="10" x1="260.003" y1="761.682" x2="289.878" y2="735.318"/>
</g>
<g>
	
		<line fill="none" stroke="#000000" stroke-width="0.25" stroke-linecap="round" stroke-linejoin="round" stroke-miterlimit="10" x1="260.003" y1="766.973" x2="277.75" y2="751.334"/>
</g>
<g>
	
		<line fill="none" stroke="#000000" stroke-width="0.25" stroke-linecap="round" stroke-linejoin="round" stroke-miterlimit="10" x1="278.687" y1="750.491" x2="295.873" y2="735.318"/>
</g>
<g>
	
		<line fill="none" stroke="#000000" stroke-width="0.25" stroke-linecap="round" stroke-linejoin="round" stroke-miterlimit="10" x1="260.003" y1="772.265" x2="277.75" y2="756.624"/>
</g>
<g>
	
		<line fill="none" stroke="#000000" stroke-width="0.25" stroke-linecap="round" stroke-linejoin="round" stroke-miterlimit="10" x1="284.727" y1="750.443" x2="301.959" y2="735.271"/>
</g>
<g>
	
		<line fill="none" stroke="#000000" stroke-width="0.25" stroke-linecap="round" stroke-linejoin="round" stroke-miterlimit="10" x1="260.003" y1="777.604" x2="277.75" y2="761.915"/>
</g>
<g>
	
		<line fill="none" stroke="#000000" stroke-width="0.25" stroke-linecap="round" stroke-linejoin="round" stroke-miterlimit="10" x1="290.862" y1="750.35" x2="307.954" y2="735.271"/>
</g>
<g>
	
		<line fill="none" stroke="#000000" stroke-width="0.25" stroke-linecap="round" stroke-linejoin="round" stroke-miterlimit="10" x1="260.003" y1="782.895" x2="277.75" y2="767.254"/>
</g>
<g>
	
		<line fill="none" stroke="#000000" stroke-width="0.25" stroke-linecap="round" stroke-linejoin="round" stroke-miterlimit="10" x1="296.95" y1="750.304" x2="314.042" y2="735.224"/>
</g>
<g>
	
		<line fill="none" stroke="#000000" stroke-width="0.25" stroke-linecap="round" stroke-linejoin="round" stroke-miterlimit="10" x1="260.003" y1="788.186" x2="277.75" y2="772.546"/>
</g>
<g>
	
		<line fill="none" stroke="#000000" stroke-width="0.25" stroke-linecap="round" stroke-linejoin="round" stroke-miterlimit="10" x1="303.037" y1="750.21" x2="320.035" y2="735.224"/>
</g>
<g>
	
		<line fill="none" stroke="#000000" stroke-width="0.25" stroke-linecap="round" stroke-linejoin="round" stroke-miterlimit="10" x1="260.003" y1="793.477" x2="277.75" y2="777.838"/>
</g>
<g>
	
		<line fill="none" stroke="#000000" stroke-width="0.25" stroke-linecap="round" stroke-linejoin="round" stroke-miterlimit="10" x1="309.078" y1="750.162" x2="326.076" y2="735.179"/>
</g>
<g>
	
		<line fill="none" stroke="#000000" stroke-width="0.25" stroke-linecap="round" stroke-linejoin="round" stroke-miterlimit="10" x1="262.859" y1="796.287" x2="277.75" y2="783.177"/>
</g>
<g>
	
		<line fill="none" stroke="#000000" stroke-width="0.25" stroke-linecap="round" stroke-linejoin="round" stroke-miterlimit="10" x1="315.26" y1="750.069" x2="332.117" y2="735.179"/>
</g>
<g>
	
		<line fill="none" stroke="#000000" stroke-width="0.25" stroke-linecap="round" stroke-linejoin="round" stroke-miterlimit="10" x1="268.9" y1="796.287" x2="277.75" y2="788.467"/>
</g>
<g>
	
		<line fill="none" stroke="#000000" stroke-width="0.25" stroke-linecap="round" stroke-linejoin="round" stroke-miterlimit="10" x1="321.3" y1="750.022" x2="338.157" y2="735.179"/>
</g>
<g>
	
		<polyline fill="none" stroke="#000000" stroke-width="0.25" stroke-linecap="round" stroke-linejoin="round" stroke-miterlimit="10" points="
		274.894,796.287 274.987,796.193 275.034,796.147 275.081,796.147 275.127,796.1 275.362,795.866 275.409,795.818 275.456,795.818 
		275.502,795.773 275.783,795.491 275.83,795.443 275.877,795.443 275.924,795.397 276.158,795.163 276.205,795.117 
		276.251,795.117 276.298,795.069 276.579,794.788 276.626,794.742 276.673,794.742 276.72,794.695 276.954,794.461 
		277.001,794.414 277.048,794.414 277.095,794.368 277.376,794.086 277.422,794.038 277.469,794.038 277.516,793.993 
		277.75,793.758 	"/>
</g>
<g>
	
		<line fill="none" stroke="#000000" stroke-width="0.25" stroke-linecap="round" stroke-linejoin="round" stroke-miterlimit="10" x1="327.387" y1="749.93" x2="344.198" y2="735.131"/>
</g>
<g>
	
		<line fill="none" stroke="#000000" stroke-width="0.25" stroke-linecap="round" stroke-linejoin="round" stroke-miterlimit="10" x1="333.475" y1="749.882" x2="350.192" y2="735.131"/>
</g>
<g>
	
		<line fill="none" stroke="#000000" stroke-width="0.25" stroke-linecap="round" stroke-linejoin="round" stroke-miterlimit="10" x1="339.562" y1="749.835" x2="352.064" y2="738.783"/>
</g>
<g>
	
		<line fill="none" stroke="#000000" stroke-width="0.25" stroke-linecap="round" stroke-linejoin="round" stroke-miterlimit="10" x1="345.649" y1="749.742" x2="352.064" y2="744.121"/>
</g>
<g>
	
		<polyline fill="none" stroke="#000000" stroke-width="0.25" stroke-linecap="round" stroke-linejoin="round" stroke-miterlimit="10" points="
		351.737,749.693 351.784,749.647 351.831,749.6 351.877,749.6 351.924,749.554 352.064,749.412 	"/>
</g>
<g>
	
		<polygon fill-rule="evenodd" clip-rule="evenodd" fill="none" stroke="#000000" stroke-linecap="round" stroke-linejoin="round" stroke-miterlimit="10" points="
		352.064,735.131 260.003,735.411 260.003,796.287 277.75,796.287 277.75,750.491 352.064,749.693 	"/>
</g>
<g>
	<polyline fill-rule="evenodd" clip-rule="evenodd" fill="#FFFFFF" points="349.677,728.294 355.952,728.294 355.952,754.377 
		349.677,754.377 349.677,728.294 	"/>
	<path fill-rule="evenodd" clip-rule="evenodd" fill="#FFFFFF" d="M352.814,741.335"/>
</g>
<g>
	
		<polyline fill-rule="evenodd" clip-rule="evenodd" fill="none" stroke="#000000" stroke-linecap="round" stroke-linejoin="round" stroke-miterlimit="10" points="
		362.929,779.383 372.903,743.092 462.952,743.092 	"/>
</g>
<g>
	
		<line fill-rule="evenodd" clip-rule="evenodd" fill="none" stroke="#000000" stroke-linecap="round" stroke-linejoin="round" stroke-miterlimit="10" x1="306.033" y1="795.726" x2="306.033" y2="779.944"/>
</g>
<g>
	<polyline stroke="#000000" stroke-linecap="round" stroke-linejoin="round" stroke-miterlimit="10" points="302.943,788.045 
		306.033,779.944 309.171,788.045 302.943,788.045 	"/>
</g>
<path fill="none" stroke="#000000" stroke-linecap="round" stroke-linejoin="round" stroke-miterlimit="10" d="M57.569,480.436
	c-11.333-10.909-13.674-25.379-7.352-36.852c6.322-11.613,29.969-9.506,34.184-18.966c4.215-9.412,1.873-22.898,1.592-27.393
	c-0.281-4.356-0.281-4.543,0-0.516"/>
<g>
	
		<line fill="none" stroke="#000000" stroke-linecap="round" stroke-linejoin="round" stroke-miterlimit="10" stroke-dasharray="16,8" x1="331.32" y1="454.636" x2="236.027" y2="533.586"/>
</g>
<g>
	
		<line fill="none" stroke="#000000" stroke-linecap="round" stroke-linejoin="round" stroke-miterlimit="10" stroke-dasharray="16,8" x1="273.302" y1="535.553" x2="314.463" y2="589.405"/>
</g>
<g>
	
		<line fill="none" stroke="#000000" stroke-linecap="round" stroke-linejoin="round" stroke-miterlimit="10" stroke-dasharray="16,8" x1="348.693" y1="472.008" x2="392.899" y2="529.371"/>
</g>
<g>
	
		<line fill="none" stroke="#000000" stroke-linecap="round" stroke-linejoin="round" stroke-miterlimit="10" stroke-dasharray="16,8" x1="372.903" y1="505.677" x2="297.09" y2="565.195"/>
</g>
<g>
	
		<polyline stroke="#000000" stroke-linecap="round" stroke-linejoin="round" stroke-miterlimit="10" stroke-dasharray="16,8" points="
		303.739,563.555 297.09,565.195 300.274,559.106 303.739,563.555 	"/>
</g>
<g>
	
		<line fill="none" stroke="#000000" stroke-linecap="round" stroke-linejoin="round" stroke-miterlimit="10" x1="230.783" y1="508.347" x2="242.864" y2="526.234"/>
</g>
<g>
	
		<line fill="none" stroke="#000000" stroke-linecap="round" stroke-linejoin="round" stroke-miterlimit="10" x1="226.568" y1="534.147" x2="233.92" y2="515.698"/>
</g>
<g>
	<polyline fill="none" stroke="#000000" stroke-linecap="round" stroke-linejoin="round" stroke-miterlimit="10" points="
		366.582,354.659 363.96,349.507 362.367,345.294 361.431,341.922 360.868,338.082 360.821,335.6 361.244,331.994 362.227,328.623 
		363.96,325.157 365.552,323.145 368.502,320.896 373.793,318.087 388.309,311.953 392.524,309.751 395.146,307.784 
		396.645,305.911 398.002,303.336 398.752,300.714 398.892,298.045 398.564,295.75 397.815,293.456 396.083,290.224 
		393.087,286.432 392.383,285.683 	"/>
</g>
<g>
	<polyline fill="none" stroke="#000000" stroke-linecap="round" stroke-linejoin="round" stroke-miterlimit="10" points="
		380.817,399.941 386.998,396.335 390.838,393.619 393.835,390.622 396.551,387.111 395.567,387.813 	"/>
</g>
<g>
	<polyline fill="none" stroke="#000000" stroke-linecap="round" stroke-linejoin="round" stroke-miterlimit="10" points="
		372.388,450.467 381.52,454.775 382.456,455.057 382.315,454.822 381.333,454.168 	"/>
</g>
<g>
	
		<line fill="none" stroke="#000000" stroke-linecap="round" stroke-linejoin="round" stroke-miterlimit="10" x1="313.433" y1="409.4" x2="308.703" y2="398.35"/>
</g>
<g>
	
		<line fill="none" stroke="#000000" stroke-linecap="round" stroke-linejoin="round" stroke-miterlimit="10" stroke-dasharray="16,8" x1="31.767" y1="341.547" x2="31.767" y2="127.781"/>
</g>
<g>
	
		<line fill="none" stroke="#000000" stroke-linecap="round" stroke-linejoin="round" stroke-miterlimit="10" x1="3.857" y1="342.062" x2="58.083" y2="342.062"/>
</g>
<g>
	
		<line fill="none" stroke="#000000" stroke-linecap="round" stroke-linejoin="round" stroke-miterlimit="10" x1="3.342" y1="351.521" x2="9.664" y2="342.062"/>
</g>
<g>
	
		<line fill="none" stroke="#000000" stroke-linecap="round" stroke-linejoin="round" stroke-miterlimit="10" x1="10.18" y1="352.598" x2="16.5" y2="343.092"/>
</g>
<g>
	
		<line fill="none" stroke="#000000" stroke-linecap="round" stroke-linejoin="round" stroke-miterlimit="10" x1="15.985" y1="353.114" x2="22.308" y2="343.654"/>
</g>
<g>
	
		<line fill="none" stroke="#000000" stroke-linecap="round" stroke-linejoin="round" stroke-miterlimit="10" x1="23.338" y1="352.598" x2="29.659" y2="343.092"/>
</g>
<g>
	
		<line fill="none" stroke="#000000" stroke-linecap="round" stroke-linejoin="round" stroke-miterlimit="10" x1="30.736" y1="352.598" x2="37.058" y2="343.092"/>
</g>
<g>
	
		<line fill="none" stroke="#000000" stroke-linecap="round" stroke-linejoin="round" stroke-miterlimit="10" x1="39.119" y1="352.598" x2="45.44" y2="343.092"/>
</g>
<g>
	
		<line fill="none" stroke="#000000" stroke-linecap="round" stroke-linejoin="round" stroke-miterlimit="10" x1="46.517" y1="352.036" x2="52.838" y2="342.578"/>
</g>
<g>
	<path d="M12.87,57.147l4.923-7.22v-0.04h-4.501v-0.963h6.005v0.7l-4.91,7.193v0.04h4.976v0.963H12.87V57.147z"/>
</g>
<g>
	<path d="M93.003,93.129v-3.775l-2.825-5.121h1.32l1.253,2.455c0.33,0.673,0.607,1.214,0.885,1.834h0.026
		c0.237-0.581,0.554-1.162,0.897-1.834l1.28-2.455h1.293l-2.97,5.108v3.788H93.003z"/>
</g>
<g>
	<path d="M323.955,88.914v-3.775l-2.825-5.121h1.32l1.254,2.455c0.33,0.673,0.606,1.214,0.884,1.834h0.026
		c0.238-0.581,0.555-1.162,0.897-1.834l1.28-2.455h1.294l-2.97,5.108v3.788H323.955z"/>
	<path d="M331.455,88.914l-2.917-8.896h1.254l1.386,4.382c0.369,1.201,0.699,2.284,0.95,3.326h0.026
		c0.251-1.029,0.607-2.151,1.017-3.313l1.504-4.395h1.228l-3.181,8.896H331.455z"/>
</g>
<g>
	<path d="M465.454,143.141l-1.147-1.967c-0.462-0.752-0.739-1.241-1.017-1.755h-0.026c-0.251,0.515-0.515,0.99-0.964,1.769
		l-1.069,1.954h-1.319l2.719-4.501l-2.613-4.395h1.333l1.175,2.085c0.33,0.581,0.581,1.029,0.818,1.504h0.04
		c0.25-0.528,0.475-0.937,0.805-1.504l1.201-2.085h1.333l-2.706,4.329l2.772,4.567H465.454z"/>
</g>
<g>
	<path d="M287.324,89.944l-1.148-1.967c-0.462-0.752-0.739-1.241-1.016-1.755h-0.026c-0.251,0.515-0.515,0.99-0.964,1.769
		l-1.069,1.954h-1.32l2.719-4.501l-2.613-4.395h1.333l1.175,2.085c0.33,0.581,0.581,1.029,0.818,1.504h0.04
		c0.251-0.528,0.475-0.937,0.805-1.504l1.201-2.085h1.333l-2.706,4.329l2.772,4.567H287.324z"/>
	<path d="M292.065,89.944l-2.917-8.896h1.254l1.386,4.382c0.37,1.201,0.7,2.284,0.951,3.326h0.026
		c0.25-1.029,0.607-2.151,1.016-3.313l1.505-4.395h1.228l-3.181,8.896H292.065z"/>
</g>
<g>
	<path d="M322.772,12.427l4.924-7.22v-0.04h-4.501V4.205h6.006v0.7l-4.91,7.193v0.04h4.976v0.963h-6.494V12.427z"/>
	<path d="M332.635,13.101l-2.916-8.896h1.254l1.386,4.382c0.369,1.201,0.699,2.284,0.95,3.326h0.026
		c0.251-1.029,0.607-2.151,1.017-3.313l1.504-4.395h1.228l-3.181,8.896H332.635z"/>
</g>
<g>
	<path d="M412.727,289.804l-2.257-8.896h1.214l1.056,4.501c0.265,1.108,0.502,2.217,0.66,3.075h0.026
		c0.146-0.884,0.423-1.94,0.727-3.088l1.188-4.488h1.201l1.082,4.514c0.251,1.056,0.488,2.112,0.62,3.049h0.026
		c0.186-0.977,0.436-1.967,0.713-3.075l1.175-4.488h1.175l-2.521,8.896h-1.201l-1.122-4.633c-0.277-1.135-0.462-2.006-0.581-2.904
		h-0.026c-0.146,0.884-0.356,1.755-0.687,2.904l-1.267,4.633H412.727z"/>
	<path d="M426.458,288.272c0,0.555,0.026,1.096,0.093,1.531h-1.043l-0.093-0.805h-0.039c-0.356,0.501-1.043,0.95-1.954,0.95
		c-1.293,0-1.953-0.911-1.953-1.834c0-1.544,1.373-2.389,3.841-2.376v-0.132c0-0.515-0.146-1.478-1.452-1.465
		c-0.606,0-1.228,0.171-1.676,0.475l-0.264-0.779c0.527-0.33,1.307-0.554,2.111-0.554c1.953,0,2.429,1.333,2.429,2.6V288.272z
		 M425.336,286.543c-1.267-0.026-2.706,0.198-2.706,1.439c0,0.766,0.502,1.108,1.083,1.108c0.845,0,1.386-0.528,1.57-1.069
		c0.04-0.132,0.053-0.264,0.053-0.37V286.543z"/>
	<path d="M428.678,283.416l1.254,3.577c0.211,0.594,0.383,1.122,0.515,1.65h0.04c0.145-0.528,0.33-1.056,0.541-1.65l1.24-3.577
		h1.215l-2.508,6.388h-1.108l-2.429-6.388H428.678z"/>
	<path d="M435.096,286.821c0.026,1.571,1.017,2.217,2.191,2.217c0.831,0,1.346-0.145,1.769-0.33l0.211,0.832
		c-0.409,0.185-1.122,0.409-2.139,0.409c-1.967,0-3.141-1.307-3.141-3.233c0-1.927,1.135-3.432,2.996-3.432
		c2.099,0,2.64,1.821,2.64,2.996c0,0.237-0.014,0.409-0.04,0.541H435.096z M438.501,285.989c0.013-0.726-0.304-1.874-1.61-1.874
		c-1.188,0-1.689,1.069-1.782,1.874H438.501z"/>
	<path d="M443.863,285.501c0-0.818-0.026-1.479-0.053-2.085h1.029l0.065,1.095h0.026c0.462-0.778,1.228-1.227,2.271-1.227
		c1.558,0,2.719,1.307,2.719,3.233c0,2.297-1.412,3.432-2.917,3.432c-0.845,0-1.584-0.37-1.966-1.003h-0.026v3.471h-1.148V285.501z
		 M445.012,287.204c0,0.171,0.013,0.33,0.053,0.475c0.211,0.805,0.91,1.359,1.742,1.359c1.228,0,1.939-1.003,1.939-2.468
		c0-1.267-0.673-2.362-1.9-2.362c-0.792,0-1.544,0.554-1.755,1.425c-0.04,0.145-0.079,0.317-0.079,0.462V287.204z"/>
	<path d="M451.376,285.409c0-0.752-0.014-1.399-0.053-1.993h1.016l0.053,1.267h0.04c0.29-0.858,1.003-1.399,1.781-1.399
		c0.119,0,0.212,0.013,0.317,0.026v1.095c-0.119-0.026-0.237-0.026-0.396-0.026c-0.818,0-1.398,0.607-1.557,1.479
		c-0.026,0.158-0.04,0.356-0.04,0.541v3.405h-1.161V285.409z"/>
	<path d="M461.343,286.557c0,2.363-1.649,3.392-3.181,3.392c-1.716,0-3.062-1.267-3.062-3.286c0-2.125,1.412-3.379,3.167-3.379
		C460.103,283.284,461.343,284.617,461.343,286.557z M456.288,286.623c0,1.399,0.792,2.455,1.927,2.455
		c1.109,0,1.94-1.042,1.94-2.481c0-1.082-0.541-2.441-1.914-2.441C456.882,284.155,456.288,285.422,456.288,286.623z"/>
	<path d="M462.812,285.501c0-0.818-0.026-1.479-0.053-2.085h1.029l0.065,1.095h0.026c0.462-0.778,1.228-1.227,2.271-1.227
		c1.558,0,2.719,1.307,2.719,3.233c0,2.297-1.412,3.432-2.917,3.432c-0.845,0-1.584-0.37-1.966-1.003h-0.027v3.471h-1.147V285.501z
		 M463.959,287.204c0,0.171,0.014,0.33,0.054,0.475c0.211,0.805,0.91,1.359,1.742,1.359c1.228,0,1.939-1.003,1.939-2.468
		c0-1.267-0.673-2.362-1.9-2.362c-0.792,0-1.544,0.554-1.755,1.425c-0.04,0.145-0.08,0.317-0.08,0.462V287.204z"/>
	<path d="M474.812,288.272c0,0.555,0.026,1.096,0.093,1.531h-1.043l-0.093-0.805h-0.039c-0.356,0.501-1.043,0.95-1.954,0.95
		c-1.293,0-1.953-0.911-1.953-1.834c0-1.544,1.373-2.389,3.841-2.376v-0.132c0-0.515-0.146-1.478-1.452-1.465
		c-0.606,0-1.228,0.171-1.676,0.475l-0.264-0.779c0.527-0.33,1.307-0.554,2.111-0.554c1.953,0,2.429,1.333,2.429,2.6V288.272z
		 M473.689,286.543c-1.267-0.026-2.706,0.198-2.706,1.439c0,0.766,0.502,1.108,1.083,1.108c0.845,0,1.386-0.528,1.57-1.069
		c0.04-0.132,0.053-0.264,0.053-0.37V286.543z"/>
	<path d="M482.153,288.867c0,1.478-0.304,2.362-0.91,2.93c-0.634,0.567-1.531,0.766-2.337,0.766c-0.766,0-1.61-0.185-2.125-0.528
		l0.291-0.897c0.422,0.277,1.082,0.515,1.874,0.515c1.188,0,2.059-0.62,2.059-2.244v-0.7h-0.026
		c-0.343,0.594-1.043,1.069-2.032,1.069c-1.584,0-2.719-1.346-2.719-3.115c0-2.165,1.412-3.379,2.891-3.379
		c1.108,0,1.702,0.567,1.992,1.095h0.026l0.04-0.963h1.029c-0.039,0.449-0.053,0.977-0.053,1.742V288.867z M480.992,285.937
		c0-0.198-0.014-0.37-0.066-0.515c-0.211-0.687-0.766-1.241-1.623-1.241c-1.109,0-1.901,0.937-1.901,2.415
		c0,1.254,0.647,2.297,1.888,2.297c0.727,0,1.373-0.449,1.61-1.188c0.066-0.198,0.093-0.422,0.093-0.62V285.937z"/>
	<path d="M488.558,288.272c0,0.555,0.026,1.096,0.093,1.531h-1.043l-0.093-0.805h-0.039c-0.356,0.501-1.043,0.95-1.954,0.95
		c-1.293,0-1.953-0.911-1.953-1.834c0-1.544,1.373-2.389,3.841-2.376v-0.132c0-0.515-0.146-1.478-1.452-1.465
		c-0.606,0-1.228,0.171-1.676,0.475l-0.264-0.779c0.527-0.33,1.307-0.554,2.111-0.554c1.953,0,2.429,1.333,2.429,2.6V288.272z
		 M487.436,286.543c-1.267-0.026-2.706,0.198-2.706,1.439c0,0.766,0.502,1.108,1.083,1.108c0.845,0,1.386-0.528,1.57-1.069
		c0.04-0.132,0.053-0.264,0.053-0.37V286.543z"/>
	<path d="M491.78,281.884v1.531h1.663v0.884h-1.663v3.445c0,0.792,0.225,1.241,0.871,1.241c0.317,0,0.502-0.026,0.674-0.079
		l0.053,0.884c-0.225,0.079-0.581,0.158-1.03,0.158c-0.541,0-0.977-0.185-1.254-0.488c-0.316-0.356-0.448-0.924-0.448-1.676V284.3
		h-0.99v-0.884h0.99v-1.188L491.78,281.884z"/>
	<path d="M496.046,281.621c0,0.396-0.277,0.712-0.739,0.712c-0.422,0-0.699-0.316-0.699-0.712s0.29-0.726,0.726-0.726
		C495.756,280.895,496.046,281.211,496.046,281.621z M494.753,289.804v-6.388h1.161v6.388H494.753z"/>
	<path d="M503.623,286.557c0,2.363-1.649,3.392-3.181,3.392c-1.716,0-3.062-1.267-3.062-3.286c0-2.125,1.412-3.379,3.167-3.379
		C502.383,283.284,503.623,284.617,503.623,286.557z M498.568,286.623c0,1.399,0.792,2.455,1.927,2.455
		c1.109,0,1.94-1.042,1.94-2.481c0-1.082-0.541-2.441-1.914-2.441C499.162,284.155,498.568,285.422,498.568,286.623z"/>
	<path d="M505.092,285.145c0-0.673-0.014-1.201-0.053-1.729h1.029l0.065,1.056h0.026c0.317-0.594,1.057-1.188,2.112-1.188
		c0.884,0,2.257,0.528,2.257,2.719v3.801h-1.161v-3.683c0-1.029-0.383-1.887-1.479-1.887c-0.752,0-1.347,0.541-1.558,1.188
		c-0.053,0.145-0.079,0.343-0.079,0.541v3.841h-1.161V285.145z"/>
</g>
<g>
	<path d="M416.739,295.604v7.721c0,0.567,0.026,1.214,0.053,1.65h-1.03l-0.053-1.109h-0.039c-0.344,0.713-1.108,1.254-2.151,1.254
		c-1.544,0-2.745-1.307-2.745-3.247c-0.014-2.125,1.319-3.418,2.863-3.418c0.99,0,1.637,0.462,1.928,0.963h0.026v-3.814H416.739z
		 M415.591,301.187c0-0.145-0.014-0.343-0.053-0.488c-0.172-0.726-0.806-1.333-1.677-1.333c-1.201,0-1.914,1.056-1.914,2.455
		c0,1.293,0.647,2.362,1.888,2.362c0.779,0,1.491-0.528,1.703-1.386c0.039-0.159,0.053-0.317,0.053-0.501V301.187z"/>
	<path d="M419.976,296.792c0,0.396-0.277,0.712-0.739,0.712c-0.422,0-0.699-0.316-0.699-0.712s0.29-0.726,0.726-0.726
		C419.686,296.066,419.976,296.383,419.976,296.792z M418.683,304.975v-6.388h1.161v6.388H418.683z"/>
	<path d="M421.772,300.58c0-0.752-0.014-1.399-0.053-1.993h1.016l0.053,1.267h0.04c0.29-0.858,1.003-1.399,1.781-1.399
		c0.119,0,0.212,0.013,0.317,0.026v1.095c-0.119-0.026-0.237-0.026-0.396-0.026c-0.818,0-1.398,0.607-1.557,1.479
		c-0.026,0.158-0.04,0.356-0.04,0.541v3.405h-1.161V300.58z"/>
	<path d="M426.604,301.992c0.026,1.571,1.017,2.217,2.19,2.217c0.832,0,1.347-0.145,1.77-0.33l0.211,0.832
		c-0.409,0.185-1.122,0.409-2.139,0.409c-1.967,0-3.141-1.307-3.141-3.233c0-1.927,1.135-3.432,2.996-3.432
		c2.099,0,2.64,1.821,2.64,2.996c0,0.237-0.014,0.409-0.04,0.541H426.604z M430.01,301.161c0.013-0.726-0.304-1.874-1.61-1.874
		c-1.188,0-1.689,1.069-1.782,1.874H430.01z"/>
	<path d="M437.127,304.75c-0.304,0.146-0.978,0.37-1.835,0.37c-1.927,0-3.181-1.307-3.181-3.26c0-1.967,1.346-3.405,3.432-3.405
		c0.686,0,1.293,0.171,1.61,0.343l-0.265,0.884c-0.277-0.145-0.713-0.303-1.346-0.303c-1.466,0-2.258,1.095-2.258,2.415
		c0,1.479,0.951,2.389,2.218,2.389c0.66,0,1.096-0.158,1.426-0.304L437.127,304.75z"/>
	<path d="M440.059,297.056v1.531h1.663v0.884h-1.663v3.445c0,0.792,0.225,1.241,0.871,1.241c0.317,0,0.502-0.026,0.674-0.079
		l0.053,0.884c-0.225,0.079-0.581,0.158-1.03,0.158c-0.541,0-0.977-0.185-1.254-0.488c-0.316-0.356-0.448-0.924-0.448-1.676v-3.484
		h-0.99v-0.884h0.99v-1.188L440.059,297.056z"/>
	<path d="M444.324,296.792c0,0.396-0.277,0.712-0.739,0.712c-0.422,0-0.699-0.316-0.699-0.712s0.29-0.726,0.726-0.726
		C444.034,296.066,444.324,296.383,444.324,296.792z M443.031,304.975v-6.388h1.161v6.388H443.031z"/>
	<path d="M451.901,301.728c0,2.363-1.649,3.392-3.181,3.392c-1.716,0-3.062-1.267-3.062-3.286c0-2.125,1.412-3.379,3.167-3.379
		C450.661,298.455,451.901,299.788,451.901,301.728z M446.847,301.794c0,1.399,0.792,2.455,1.927,2.455
		c1.109,0,1.94-1.042,1.94-2.481c0-1.082-0.541-2.441-1.914-2.441C447.44,299.326,446.847,300.593,446.847,301.794z"/>
	<path d="M453.37,300.316c0-0.673-0.014-1.201-0.053-1.729h1.029l0.065,1.056h0.026c0.317-0.594,1.057-1.188,2.112-1.188
		c0.884,0,2.257,0.528,2.257,2.719v3.801h-1.161v-3.683c0-1.029-0.383-1.887-1.479-1.887c-0.752,0-1.347,0.541-1.558,1.188
		c-0.053,0.145-0.079,0.343-0.079,0.541v3.841h-1.161V300.316z"/>
</g>
<g>
	<path d="M404.017,388.937l-2.257-8.896h1.214l1.056,4.501c0.265,1.108,0.502,2.217,0.66,3.075h0.026
		c0.146-0.884,0.423-1.94,0.727-3.088l1.188-4.488h1.201l1.082,4.514c0.251,1.056,0.488,2.112,0.62,3.049h0.026
		c0.186-0.977,0.436-1.967,0.713-3.075l1.175-4.488h1.175l-2.521,8.896H408.9l-1.122-4.633c-0.277-1.135-0.462-2.006-0.581-2.904
		h-0.026c-0.146,0.884-0.356,1.755-0.687,2.904l-1.267,4.633H404.017z"/>
	<path d="M414.421,386.138l-0.924,2.798h-1.188l3.035-8.896h1.373l3.036,8.896h-1.228l-0.95-2.798H414.421z M417.352,385.241
		l-0.885-2.561c-0.197-0.581-0.33-1.108-0.462-1.624h-0.026c-0.132,0.515-0.264,1.069-0.448,1.61l-0.871,2.574H417.352z"/>
	<path d="M422.318,388.937l-2.917-8.896h1.254l1.386,4.382c0.369,1.201,0.699,2.284,0.95,3.326h0.026
		c0.251-1.029,0.607-2.151,1.017-3.313l1.504-4.395h1.228l-3.181,8.896H422.318z"/>
	<path d="M427.732,380.172c0.7-0.119,1.531-0.198,2.442-0.198c1.649,0,2.824,0.396,3.603,1.108c0.806,0.726,1.268,1.756,1.268,3.194
		c0,1.452-0.462,2.64-1.28,3.458c-0.845,0.832-2.218,1.28-3.946,1.28c-0.832,0-1.505-0.04-2.086-0.105V380.172z M428.881,388.039
		c0.29,0.04,0.713,0.053,1.161,0.053c2.469,0,3.788-1.373,3.788-3.775c0.014-2.099-1.174-3.432-3.603-3.432
		c-0.595,0-1.043,0.053-1.347,0.119V388.039z"/>
	<path d="M437.675,380.041v8.896h-1.161v-8.896H437.675z"/>
	<path d="M439.682,380.159c0.581-0.105,1.426-0.185,2.204-0.185c1.228,0,2.033,0.237,2.574,0.726
		c0.436,0.396,0.699,1.003,0.699,1.703c0,1.161-0.739,1.94-1.663,2.257v0.04c0.674,0.238,1.082,0.871,1.294,1.795
		c0.29,1.241,0.501,2.099,0.687,2.442h-1.188c-0.146-0.264-0.343-1.016-0.581-2.125c-0.264-1.228-0.752-1.689-1.795-1.729h-1.082
		v3.854h-1.148V380.159z M440.83,384.211h1.175c1.228,0,2.006-0.673,2.006-1.689c0-1.148-0.831-1.65-2.046-1.65
		c-0.554,0-0.937,0.04-1.135,0.092V384.211z"/>
</g>
<g>
	<path d="M386.855,451.124v3.723h4.303v-3.723h1.162v8.896h-1.162v-4.171h-4.303v4.171h-1.161v-8.896H386.855z"/>
	<path d="M398.91,455.85h-3.445v3.207h3.854v0.964h-5.016v-8.896h4.817v0.964h-3.656v2.812h3.445V455.85z"/>
	<path d="M402.251,457.223l-0.924,2.798h-1.188l3.035-8.896h1.373l3.036,8.896h-1.228l-0.95-2.798H402.251z M405.182,456.325
		l-0.885-2.561c-0.197-0.581-0.33-1.109-0.462-1.624h-0.026c-0.132,0.515-0.264,1.069-0.448,1.61l-0.871,2.574H405.182z"/>
	<path d="M408.894,451.257c0.7-0.119,1.531-0.198,2.442-0.198c1.649,0,2.824,0.396,3.603,1.108c0.806,0.727,1.268,1.756,1.268,3.194
		c0,1.452-0.462,2.64-1.28,3.458c-0.845,0.832-2.218,1.28-3.946,1.28c-0.832,0-1.505-0.039-2.086-0.105V451.257z M410.042,459.123
		c0.29,0.039,0.713,0.053,1.161,0.053c2.469,0,3.788-1.373,3.788-3.774c0.014-2.099-1.174-3.433-3.603-3.433
		c-0.595,0-1.043,0.054-1.347,0.119V459.123z"/>
</g>
<g>
	<path d="M372.937,490.037v-3.774l-2.825-5.122h1.32l1.254,2.455c0.33,0.674,0.606,1.215,0.884,1.835h0.026
		c0.238-0.581,0.555-1.161,0.897-1.835l1.28-2.455h1.294l-2.97,5.108v3.788H372.937z"/>
	<path d="M380.436,490.037l-2.916-8.896h1.254l1.386,4.383c0.369,1.201,0.699,2.283,0.95,3.326h0.026
		c0.251-1.03,0.607-2.151,1.017-3.313l1.504-4.396h1.228l-3.181,8.896H380.436z"/>
</g>
<g>
	<path d="M259.818,381.489h1.119v3.91h0.026c0.398-0.694,1.119-1.132,2.122-1.132c1.557,0,2.637,1.287,2.637,3.165
		c0,2.225-1.415,3.332-2.804,3.332c-0.9,0-1.621-0.348-2.097-1.158h-0.026l-0.064,1.016h-0.964c0.025-0.424,0.051-1.055,0.051-1.608
		V381.489z M260.938,388.126c0,0.142,0.013,0.283,0.051,0.412c0.206,0.785,0.875,1.325,1.698,1.325c1.196,0,1.891-0.965,1.891-2.393
		c0-1.248-0.643-2.315-1.865-2.315c-0.759,0-1.479,0.54-1.71,1.389c-0.039,0.142-0.064,0.296-0.064,0.476V388.126z"/>
</g>
<g>
	<path d="M266.696,390.968c0-0.39-0.008-0.695-0.031-1.001h0.596l0.039,0.612h0.015c0.184-0.344,0.612-0.688,1.223-0.688
		c0.512,0,1.307,0.306,1.307,1.575v2.202h-0.672v-2.133c0-0.596-0.222-1.093-0.856-1.093c-0.436,0-0.78,0.313-0.902,0.688
		c-0.031,0.084-0.046,0.199-0.046,0.313v2.225h-0.673V390.968z"/>
</g>
<g>
	<path d="M270.851,389.89c0-0.475,0.33-0.832,0.792-0.832c0.462,0,0.778,0.343,0.778,0.832c0,0.476-0.316,0.832-0.805,0.832
		C271.167,390.721,270.851,390.365,270.851,389.89z"/>
	<path d="M276.699,381.812c0.7-0.119,1.531-0.198,2.442-0.198c1.65,0,2.825,0.396,3.604,1.108c0.805,0.726,1.267,1.756,1.267,3.194
		c0,1.452-0.462,2.64-1.28,3.458c-0.845,0.832-2.218,1.28-3.947,1.28c-0.832,0-1.504-0.04-2.085-0.105V381.812z M277.848,389.679
		c0.291,0.04,0.713,0.053,1.162,0.053c2.468,0,3.788-1.373,3.788-3.775c0.013-2.099-1.175-3.432-3.604-3.432
		c-0.594,0-1.042,0.053-1.346,0.119V389.679z"/>
	<path d="M286.642,381.68v8.896h-1.162v-8.896H286.642z"/>
	<path d="M288.649,381.799c0.581-0.105,1.426-0.185,2.205-0.185c1.227,0,2.032,0.237,2.574,0.726
		c0.436,0.396,0.699,1.003,0.699,1.703c0,1.161-0.739,1.94-1.663,2.257v0.04c0.673,0.238,1.083,0.871,1.293,1.795
		c0.291,1.241,0.502,2.099,0.687,2.442h-1.188c-0.145-0.264-0.343-1.016-0.581-2.125c-0.264-1.228-0.752-1.689-1.795-1.729h-1.083
		v3.854h-1.148V381.799z M289.798,385.851h1.175c1.228,0,2.006-0.673,2.006-1.689c0-1.148-0.832-1.65-2.046-1.65
		c-0.555,0-0.937,0.04-1.135,0.092V385.851z"/>
	<path d="M300.689,390.576l-1.148-1.967c-0.462-0.752-0.739-1.241-1.017-1.755h-0.026c-0.251,0.515-0.515,0.99-0.964,1.769
		l-1.069,1.954h-1.32l2.719-4.501l-2.613-4.395h1.333l1.175,2.085c0.33,0.581,0.581,1.029,0.818,1.504h0.04
		c0.251-0.528,0.476-0.937,0.805-1.504l1.201-2.085h1.333l-2.705,4.329l2.771,4.567H300.689z"/>
</g>
<g>
	<path d="M178.965,527.406l-1.148-1.967c-0.462-0.752-0.739-1.24-1.016-1.755h-0.026c-0.251,0.515-0.515,0.989-0.964,1.769
		l-1.069,1.953h-1.32l2.719-4.501l-2.613-4.396h1.333l1.175,2.086c0.33,0.581,0.581,1.029,0.818,1.505h0.04
		c0.251-0.528,0.475-0.938,0.805-1.505l1.201-2.086h1.333l-2.706,4.33l2.771,4.566H178.965z"/>
	<path d="M183.706,527.406l-2.917-8.896h1.254l1.386,4.383c0.37,1.201,0.7,2.283,0.951,3.326h0.026
		c0.25-1.03,0.607-2.151,1.016-3.313l1.505-4.396h1.228l-3.181,8.896H183.706z"/>
</g>
<g>
	<path d="M434.268,524.783l-1.147-1.967c-0.462-0.752-0.739-1.24-1.017-1.755h-0.026c-0.251,0.515-0.515,0.989-0.964,1.769
		l-1.069,1.953h-1.319l2.719-4.501l-2.613-4.396h1.333l1.175,2.086c0.33,0.581,0.581,1.029,0.818,1.505h0.039
		c0.251-0.528,0.476-0.938,0.806-1.505l1.201-2.086h1.333l-2.706,4.33l2.772,4.566H434.268z"/>
</g>
<g>
	<path d="M92.616,462.081l-2.257-8.896h1.214l1.056,4.501c0.264,1.109,0.501,2.218,0.66,3.075h0.026
		c0.146-0.884,0.422-1.939,0.726-3.088l1.188-4.488h1.201l1.082,4.515c0.251,1.056,0.489,2.111,0.621,3.049h0.026
		c0.185-0.977,0.436-1.967,0.713-3.075l1.174-4.488h1.175l-2.521,8.896h-1.201l-1.122-4.633c-0.277-1.135-0.462-2.006-0.581-2.903
		H95.77c-0.145,0.884-0.356,1.755-0.686,2.903l-1.267,4.633H92.616z"/>
	<path d="M103.021,459.283l-0.924,2.798h-1.188l3.036-8.896h1.373l3.036,8.896h-1.227l-0.951-2.798H103.021z M105.951,458.386
		l-0.884-2.561c-0.198-0.581-0.33-1.109-0.462-1.624h-0.027c-0.132,0.515-0.264,1.069-0.449,1.61l-0.871,2.574H105.951z"/>
	<path d="M110.917,462.081L108,453.185h1.254l1.386,4.383c0.37,1.201,0.7,2.283,0.951,3.326h0.026
		c0.25-1.03,0.607-2.151,1.016-3.313l1.505-4.396h1.228l-3.181,8.896H110.917z"/>
	<path d="M116.332,453.317c0.7-0.119,1.531-0.198,2.442-0.198c1.65,0,2.825,0.396,3.604,1.108c0.805,0.727,1.267,1.756,1.267,3.194
		c0,1.452-0.462,2.64-1.28,3.458c-0.845,0.832-2.218,1.28-3.947,1.28c-0.832,0-1.504-0.039-2.085-0.105V453.317z M117.48,461.184
		c0.291,0.039,0.713,0.053,1.162,0.053c2.468,0,3.788-1.373,3.788-3.774c0.013-2.099-1.175-3.433-3.604-3.433
		c-0.594,0-1.042,0.054-1.346,0.119V461.184z"/>
	<path d="M126.274,453.185v8.896h-1.162v-8.896H126.274z"/>
	<path d="M128.281,453.304c0.581-0.105,1.426-0.185,2.205-0.185c1.227,0,2.032,0.237,2.574,0.726
		c0.436,0.396,0.699,1.003,0.699,1.703c0,1.161-0.739,1.94-1.663,2.257v0.039c0.673,0.238,1.083,0.872,1.293,1.796
		c0.291,1.24,0.502,2.099,0.687,2.441h-1.188c-0.145-0.264-0.343-1.017-0.581-2.125c-0.264-1.228-0.752-1.689-1.795-1.729h-1.083
		v3.854h-1.148V453.304z M129.43,457.355h1.175c1.228,0,2.006-0.673,2.006-1.689c0-1.147-0.832-1.649-2.046-1.649
		c-0.555,0-0.937,0.04-1.135,0.093V457.355z"/>
</g>
<g>
	<path d="M386.926,739.064l-1.147-1.967c-0.462-0.752-0.739-1.24-1.017-1.755h-0.026c-0.251,0.515-0.515,0.989-0.964,1.769
		l-1.069,1.953h-1.319l2.719-4.501l-2.613-4.396h1.333l1.175,2.086c0.33,0.581,0.581,1.029,0.818,1.505h0.039
		c0.251-0.528,0.476-0.938,0.806-1.505l1.201-2.086h1.333l-2.706,4.33l2.772,4.566H386.926z"/>
	<path d="M391.668,739.064l-2.917-8.896h1.254l1.386,4.383c0.369,1.201,0.699,2.283,0.95,3.326h0.026
		c0.251-1.03,0.607-2.151,1.017-3.313l1.504-4.396h1.228l-3.181,8.896H391.668z"/>
	<path d="M401.255,739.064v-3.774l-2.825-5.122h1.32l1.254,2.455c0.33,0.674,0.606,1.215,0.884,1.835h0.026
		c0.238-0.581,0.555-1.161,0.897-1.835l1.28-2.455h1.294l-2.97,5.108v3.788H401.255z"/>
	<path d="M408.754,739.064l-2.916-8.896h1.254l1.386,4.383c0.369,1.201,0.699,2.283,0.95,3.326h0.026
		c0.251-1.03,0.607-2.151,1.017-3.313l1.504-4.396h1.228l-3.181,8.896H408.754z"/>
	<path d="M416.929,734.762c0-0.818-0.026-1.479-0.053-2.086h1.029l0.065,1.096h0.026c0.462-0.778,1.228-1.228,2.271-1.228
		c1.558,0,2.719,1.307,2.719,3.234c0,2.296-1.412,3.432-2.917,3.432c-0.845,0-1.584-0.37-1.966-1.004h-0.027v3.472h-1.147V734.762z
		 M418.076,736.464c0,0.172,0.014,0.33,0.054,0.476c0.211,0.805,0.91,1.359,1.742,1.359c1.228,0,1.939-1.003,1.939-2.468
		c0-1.268-0.673-2.363-1.9-2.363c-0.792,0-1.544,0.555-1.755,1.426c-0.04,0.146-0.08,0.316-0.08,0.462V736.464z"/>
	<path d="M424.441,729.693h1.161v9.371h-1.161V729.693z"/>
	<path d="M432.045,737.533c0,0.555,0.026,1.096,0.093,1.531h-1.043l-0.093-0.805h-0.039c-0.356,0.501-1.043,0.95-1.954,0.95
		c-1.293,0-1.953-0.911-1.953-1.835c0-1.544,1.373-2.389,3.841-2.376v-0.132c0-0.515-0.146-1.479-1.452-1.465
		c-0.606,0-1.228,0.172-1.676,0.475l-0.264-0.778c0.527-0.33,1.307-0.555,2.111-0.555c1.953,0,2.429,1.333,2.429,2.601V737.533z
		 M430.923,735.805c-1.267-0.026-2.706,0.197-2.706,1.438c0,0.766,0.502,1.108,1.083,1.108c0.845,0,1.386-0.527,1.57-1.069
		c0.04-0.132,0.053-0.264,0.053-0.369V735.805z"/>
	<path d="M433.923,734.405c0-0.673-0.014-1.201-0.053-1.729h1.029l0.065,1.057h0.026c0.317-0.595,1.057-1.188,2.112-1.188
		c0.884,0,2.257,0.528,2.257,2.72v3.801h-1.161v-3.683c0-1.029-0.383-1.888-1.479-1.888c-0.752,0-1.347,0.542-1.558,1.188
		c-0.053,0.145-0.079,0.343-0.079,0.541v3.841h-1.161V734.405z"/>
	<path d="M441.897,736.081c0.026,1.571,1.017,2.218,2.19,2.218c0.832,0,1.347-0.146,1.77-0.33l0.211,0.832
		c-0.409,0.185-1.122,0.409-2.139,0.409c-1.967,0-3.141-1.307-3.141-3.234c0-1.927,1.135-3.432,2.996-3.432
		c2.099,0,2.64,1.821,2.64,2.996c0,0.238-0.014,0.409-0.04,0.541H441.897z M445.303,735.25c0.013-0.726-0.304-1.874-1.61-1.874
		c-1.188,0-1.689,1.069-1.782,1.874H445.303z"/>
</g>
<g>
	<path d="M328.767,716.804l4.924-7.22v-0.04h-4.501v-0.964h6.006v0.7l-4.91,7.193v0.039h4.976v0.964h-6.494V716.804z"/>
	<path d="M338.629,717.477l-2.916-8.896h1.254l1.386,4.383c0.369,1.201,0.699,2.283,0.95,3.326h0.026
		c0.251-1.03,0.607-2.151,1.017-3.313l1.504-4.396h1.228l-3.181,8.896H338.629z"/>
</g>
<g>
	<path d="M433.237,813.802l-1.147-1.967c-0.462-0.752-0.739-1.24-1.017-1.755h-0.026c-0.251,0.515-0.515,0.989-0.964,1.769
		l-1.069,1.953h-1.319l2.719-4.501l-2.613-4.396h1.333l1.175,2.086c0.33,0.581,0.581,1.029,0.818,1.505h0.04
		c0.25-0.528,0.475-0.938,0.805-1.505l1.201-2.086h1.333l-2.706,4.33l2.772,4.566H433.237z"/>
</g>
<g>
	<path d="M295.613,824.272l4.923-7.22v-0.04h-4.5v-0.964h6.005v0.7l-4.91,7.193v0.039h4.976v0.964h-6.494V824.272z"/>
	<path d="M310.029,824.55c-0.515,0.197-1.544,0.488-2.745,0.488c-1.347,0-2.455-0.344-3.326-1.175
		c-0.766-0.739-1.24-1.928-1.24-3.313c0-2.652,1.834-4.593,4.817-4.593c1.029,0,1.848,0.225,2.23,0.409l-0.29,0.937
		c-0.476-0.224-1.069-0.383-1.967-0.383c-2.165,0-3.577,1.347-3.577,3.577c0,2.257,1.347,3.59,3.432,3.59
		c0.752,0,1.268-0.105,1.531-0.237v-2.652H307.1v-0.925h2.93V824.55z"/>
	<path d="M317.228,820.959v0.845h-3.261v-0.845H317.228z"/>
	<path d="M322.575,816.049v3.723h4.303v-3.723h1.162v8.896h-1.162v-4.171h-4.303v4.171h-1.161v-8.896H322.575z"/>
	<path d="M330.644,821.962c0.026,1.571,1.017,2.218,2.19,2.218c0.832,0,1.347-0.146,1.77-0.33l0.211,0.832
		c-0.409,0.185-1.122,0.409-2.139,0.409c-1.967,0-3.141-1.307-3.141-3.234c0-1.927,1.135-3.432,2.996-3.432
		c2.099,0,2.64,1.821,2.64,2.996c0,0.238-0.014,0.409-0.04,0.541H330.644z M334.049,821.131c0.013-0.726-0.304-1.874-1.61-1.874
		c-1.188,0-1.689,1.069-1.782,1.874H334.049z"/>
	<path d="M337.905,816.762c0,0.396-0.277,0.713-0.739,0.713c-0.422,0-0.699-0.316-0.699-0.713c0-0.396,0.29-0.726,0.726-0.726
		C337.615,816.036,337.905,816.353,337.905,816.762z M336.612,824.945v-6.389h1.161v6.389H336.612z"/>
	<path d="M345.166,824.008c0,1.479-0.304,2.363-0.91,2.931c-0.634,0.567-1.531,0.766-2.337,0.766c-0.766,0-1.61-0.185-2.125-0.528
		l0.291-0.897c0.422,0.277,1.082,0.515,1.874,0.515c1.188,0,2.059-0.62,2.059-2.243v-0.7h-0.026
		c-0.343,0.594-1.043,1.069-2.032,1.069c-1.584,0-2.719-1.347-2.719-3.115c0-2.164,1.412-3.379,2.891-3.379
		c1.108,0,1.702,0.567,1.992,1.096h0.026l0.04-0.964h1.029c-0.039,0.449-0.053,0.978-0.053,1.742V824.008z M344.005,821.078
		c0-0.198-0.014-0.37-0.066-0.515c-0.211-0.687-0.766-1.241-1.623-1.241c-1.109,0-1.901,0.938-1.901,2.416
		c0,1.254,0.647,2.296,1.888,2.296c0.727,0,1.373-0.448,1.61-1.188c0.066-0.198,0.093-0.422,0.093-0.62V821.078z"/>
	<path d="M347.084,815.574h1.161v3.999h0.026c0.185-0.33,0.476-0.634,0.832-0.831c0.343-0.198,0.752-0.317,1.188-0.317
		c0.857,0,2.23,0.528,2.23,2.72v3.801h-1.161v-3.669c0-1.03-0.383-1.888-1.479-1.888c-0.752,0-1.333,0.528-1.558,1.148
		c-0.065,0.171-0.079,0.343-0.079,0.554v3.854h-1.161V815.574z"/>
	<path d="M355.758,817.026v1.53h1.663v0.885h-1.663v3.445c0,0.791,0.225,1.24,0.871,1.24c0.317,0,0.502-0.026,0.674-0.079
		l0.053,0.884c-0.225,0.08-0.581,0.159-1.03,0.159c-0.541,0-0.977-0.186-1.254-0.488c-0.316-0.356-0.448-0.925-0.448-1.677v-3.484
		h-0.99v-0.885h0.99v-1.188L355.758,817.026z"/>
	<path d="M367.31,821.698c0,2.362-1.649,3.393-3.181,3.393c-1.716,0-3.062-1.268-3.062-3.287c0-2.125,1.412-3.379,3.167-3.379
		C366.069,818.425,367.31,819.758,367.31,821.698z M362.255,821.765c0,1.398,0.792,2.455,1.927,2.455c1.109,0,1.94-1.043,1.94-2.481
		c0-1.083-0.541-2.442-1.914-2.442C362.849,819.296,362.255,820.563,362.255,821.765z"/>
	<path d="M368.896,824.945v-5.504h-0.884v-0.885h0.884v-0.303c0-0.897,0.212-1.716,0.739-2.231c0.436-0.422,1.017-0.594,1.558-0.594
		c0.422,0,0.766,0.093,0.99,0.185l-0.159,0.898c-0.171-0.08-0.396-0.146-0.738-0.146c-0.99,0-1.241,0.857-1.241,1.848v0.343h1.544
		v0.885h-1.544v5.504H368.896z"/>
</g>
<g>
	<path d="M296.629,833.729l1.254,3.577c0.211,0.594,0.383,1.122,0.515,1.65h0.04c0.145-0.528,0.33-1.057,0.541-1.65l1.241-3.577
		h1.214l-2.508,6.389h-1.108l-2.429-6.389H296.629z"/>
	<path d="M303.047,837.134c0.026,1.571,1.017,2.218,2.191,2.218c0.831,0,1.346-0.146,1.769-0.33l0.211,0.832
		c-0.409,0.185-1.122,0.409-2.139,0.409c-1.967,0-3.141-1.307-3.141-3.234c0-1.927,1.135-3.432,2.996-3.432
		c2.099,0,2.64,1.821,2.64,2.996c0,0.238-0.014,0.409-0.04,0.541H303.047z M306.452,836.303c0.013-0.726-0.304-1.874-1.61-1.874
		c-1.188,0-1.689,1.069-1.782,1.874H306.452z"/>
	<path d="M308.856,838.942c0.356,0.211,0.964,0.449,1.545,0.449c0.831,0,1.228-0.409,1.228-0.95c0-0.555-0.33-0.845-1.175-1.162
		c-1.162-0.422-1.703-1.043-1.703-1.809c0-1.029,0.845-1.874,2.204-1.874c0.647,0,1.215,0.172,1.558,0.396l-0.277,0.845
		c-0.25-0.158-0.712-0.383-1.307-0.383c-0.686,0-1.056,0.396-1.056,0.871c0,0.527,0.37,0.766,1.201,1.096
		c1.096,0.409,1.677,0.963,1.677,1.913c0,1.136-0.885,1.928-2.376,1.928c-0.7,0-1.347-0.186-1.795-0.449L308.856,838.942z"/>
	<path d="M314.086,838.942c0.356,0.211,0.964,0.449,1.545,0.449c0.831,0,1.228-0.409,1.228-0.95c0-0.555-0.33-0.845-1.175-1.162
		c-1.162-0.422-1.703-1.043-1.703-1.809c0-1.029,0.845-1.874,2.204-1.874c0.647,0,1.215,0.172,1.558,0.396l-0.277,0.845
		c-0.25-0.158-0.712-0.383-1.307-0.383c-0.686,0-1.056,0.396-1.056,0.871c0,0.527,0.37,0.766,1.201,1.096
		c1.096,0.409,1.677,0.963,1.677,1.913c0,1.136-0.885,1.928-2.376,1.928c-0.7,0-1.347-0.186-1.795-0.449L314.086,838.942z"/>
	<path d="M320.12,837.134c0.026,1.571,1.017,2.218,2.19,2.218c0.832,0,1.347-0.146,1.77-0.33l0.211,0.832
		c-0.409,0.185-1.122,0.409-2.139,0.409c-1.967,0-3.141-1.307-3.141-3.234c0-1.927,1.135-3.432,2.996-3.432
		c2.099,0,2.64,1.821,2.64,2.996c0,0.238-0.014,0.409-0.04,0.541H320.12z M323.525,836.303c0.013-0.726-0.304-1.874-1.61-1.874
		c-1.188,0-1.689,1.069-1.782,1.874H323.525z"/>
	<path d="M326.089,830.746h1.161v9.371h-1.161V830.746z"/>
	<path d="M336.558,839.893c-0.304,0.146-0.978,0.37-1.835,0.37c-1.927,0-3.181-1.307-3.181-3.261c0-1.967,1.346-3.405,3.432-3.405
		c0.686,0,1.293,0.172,1.61,0.344l-0.265,0.884c-0.277-0.145-0.713-0.304-1.346-0.304c-1.466,0-2.258,1.096-2.258,2.416
		c0,1.478,0.951,2.389,2.218,2.389c0.66,0,1.096-0.158,1.426-0.304L336.558,839.893z"/>
	<path d="M343.621,836.87c0,2.362-1.649,3.393-3.181,3.393c-1.716,0-3.062-1.268-3.062-3.287c0-2.125,1.412-3.379,3.167-3.379
		C342.381,833.597,343.621,834.93,343.621,836.87z M338.566,836.937c0,1.398,0.792,2.455,1.927,2.455c1.109,0,1.94-1.043,1.94-2.481
		c0-1.083-0.541-2.442-1.914-2.442C339.16,834.468,338.566,835.735,338.566,836.937z"/>
	<path d="M350.87,836.87c0,2.362-1.649,3.393-3.181,3.393c-1.716,0-3.062-1.268-3.062-3.287c0-2.125,1.412-3.379,3.167-3.379
		C349.63,833.597,350.87,834.93,350.87,836.87z M345.815,836.937c0,1.398,0.792,2.455,1.927,2.455c1.109,0,1.94-1.043,1.94-2.481
		c0-1.083-0.541-2.442-1.914-2.442C346.409,834.468,345.815,835.735,345.815,836.937z"/>
	<path d="M352.339,835.722c0-0.752-0.014-1.398-0.053-1.993h1.016l0.053,1.268h0.04c0.29-0.858,1.003-1.399,1.781-1.399
		c0.119,0,0.212,0.014,0.317,0.026v1.096c-0.119-0.026-0.237-0.026-0.396-0.026c-0.818,0-1.398,0.607-1.557,1.479
		c-0.026,0.158-0.04,0.356-0.04,0.541v3.405h-1.161V835.722z"/>
	<path d="M362.029,830.746v7.722c0,0.567,0.026,1.214,0.053,1.649h-1.029l-0.054-1.108h-0.039c-0.344,0.713-1.108,1.254-2.151,1.254
		c-1.544,0-2.745-1.307-2.745-3.247c-0.014-2.125,1.319-3.419,2.863-3.419c0.99,0,1.637,0.462,1.928,0.964h0.026v-3.814H362.029z
		 M360.881,836.329c0-0.146-0.014-0.343-0.053-0.488c-0.172-0.726-0.806-1.333-1.677-1.333c-1.201,0-1.914,1.056-1.914,2.455
		c0,1.293,0.647,2.362,1.888,2.362c0.779,0,1.491-0.528,1.703-1.386c0.039-0.158,0.053-0.316,0.053-0.502V836.329z"/>
	<path d="M365.266,831.934c0,0.396-0.277,0.713-0.739,0.713c-0.422,0-0.699-0.316-0.699-0.713c0-0.396,0.29-0.726,0.726-0.726
		C364.976,831.208,365.266,831.524,365.266,831.934z M363.973,840.117v-6.389h1.161v6.389H363.973z"/>
	<path d="M367.062,835.458c0-0.673-0.014-1.201-0.053-1.729h1.029l0.065,1.057h0.026c0.317-0.595,1.057-1.188,2.112-1.188
		c0.884,0,2.257,0.528,2.257,2.72v3.801h-1.161v-3.683c0-1.029-0.383-1.888-1.479-1.888c-0.752,0-1.347,0.542-1.558,1.188
		c-0.053,0.145-0.079,0.343-0.079,0.541v3.841h-1.161V835.458z"/>
	<path d="M378.878,838.586c0,0.555,0.026,1.096,0.093,1.531h-1.043l-0.093-0.805h-0.039c-0.356,0.501-1.043,0.95-1.954,0.95
		c-1.293,0-1.953-0.911-1.953-1.835c0-1.544,1.373-2.389,3.841-2.376v-0.132c0-0.515-0.146-1.479-1.452-1.465
		c-0.606,0-1.228,0.172-1.676,0.475l-0.264-0.778c0.527-0.33,1.307-0.555,2.111-0.555c1.953,0,2.429,1.333,2.429,2.601V838.586z
		 M377.756,836.857c-1.267-0.026-2.706,0.197-2.706,1.438c0,0.766,0.502,1.108,1.083,1.108c0.845,0,1.386-0.527,1.57-1.069
		c0.04-0.132,0.053-0.264,0.053-0.369V836.857z"/>
	<path d="M382.101,832.198v1.53h1.663v0.885h-1.663v3.445c0,0.791,0.225,1.24,0.871,1.24c0.317,0,0.502-0.026,0.674-0.079
		l0.053,0.884c-0.225,0.08-0.581,0.159-1.03,0.159c-0.541,0-0.977-0.186-1.254-0.488c-0.316-0.356-0.448-0.925-0.448-1.677v-3.484
		h-0.99v-0.885h0.99v-1.188L382.101,832.198z"/>
	<path d="M385.64,837.134c0.026,1.571,1.017,2.218,2.19,2.218c0.832,0,1.347-0.146,1.77-0.33l0.211,0.832
		c-0.409,0.185-1.122,0.409-2.139,0.409c-1.967,0-3.141-1.307-3.141-3.234c0-1.927,1.135-3.432,2.996-3.432
		c2.099,0,2.64,1.821,2.64,2.996c0,0.238-0.014,0.409-0.04,0.541H385.64z M389.045,836.303c0.013-0.726-0.304-1.874-1.61-1.874
		c-1.188,0-1.689,1.069-1.782,1.874H389.045z"/>
</g>
<g>
	<path d="M296.022,854.114c0.356,0.211,0.963,0.449,1.544,0.449c0.832,0,1.227-0.409,1.227-0.95c0-0.555-0.33-0.845-1.174-1.162
		c-1.162-0.422-1.703-1.043-1.703-1.809c0-1.029,0.845-1.874,2.204-1.874c0.646,0,1.214,0.172,1.558,0.396l-0.277,0.845
		c-0.251-0.158-0.713-0.383-1.307-0.383c-0.687,0-1.056,0.396-1.056,0.871c0,0.527,0.37,0.766,1.201,1.096
		c1.095,0.409,1.676,0.963,1.676,1.913c0,1.136-0.884,1.928-2.376,1.928c-0.699,0-1.346-0.186-1.795-0.449L296.022,854.114z"/>
	<path d="M301.832,848.9l1.386,3.775c0.158,0.422,0.317,0.924,0.423,1.307h0.026c0.118-0.383,0.251-0.871,0.409-1.333l1.267-3.749
		h1.228l-1.742,4.554c-0.831,2.191-1.398,3.3-2.19,4c-0.581,0.488-1.136,0.686-1.426,0.738l-0.29-0.963
		c0.29-0.093,0.673-0.277,1.016-0.567c0.317-0.251,0.7-0.7,0.977-1.294c0.053-0.119,0.093-0.211,0.093-0.277
		c0-0.065-0.026-0.158-0.093-0.304l-2.349-5.887H301.832z"/>
	<path d="M307.391,854.114c0.356,0.211,0.964,0.449,1.545,0.449c0.831,0,1.228-0.409,1.228-0.95c0-0.555-0.33-0.845-1.175-1.162
		c-1.162-0.422-1.703-1.043-1.703-1.809c0-1.029,0.845-1.874,2.204-1.874c0.647,0,1.215,0.172,1.558,0.396l-0.277,0.845
		c-0.25-0.158-0.712-0.383-1.307-0.383c-0.686,0-1.056,0.396-1.056,0.871c0,0.527,0.37,0.766,1.201,1.096
		c1.096,0.409,1.677,0.963,1.677,1.913c0,1.136-0.885,1.928-2.376,1.928c-0.7,0-1.347-0.186-1.795-0.449L307.391,854.114z"/>
	<path d="M314.178,847.37v1.53h1.663v0.885h-1.663v3.445c0,0.791,0.225,1.24,0.871,1.24c0.317,0,0.502-0.026,0.674-0.079
		l0.053,0.884c-0.225,0.08-0.581,0.159-1.03,0.159c-0.541,0-0.977-0.186-1.254-0.488c-0.316-0.356-0.448-0.925-0.448-1.677v-3.484
		h-0.99V848.9h0.99v-1.188L314.178,847.37z"/>
	<path d="M317.717,852.306c0.026,1.571,1.017,2.218,2.191,2.218c0.831,0,1.346-0.146,1.769-0.33l0.211,0.832
		c-0.409,0.185-1.122,0.409-2.139,0.409c-1.967,0-3.141-1.307-3.141-3.234c0-1.927,1.135-3.432,2.996-3.432
		c2.099,0,2.64,1.821,2.64,2.996c0,0.238-0.014,0.409-0.04,0.541H317.717z M321.122,851.475c0.013-0.726-0.304-1.874-1.61-1.874
		c-1.188,0-1.689,1.069-1.782,1.874H321.122z"/>
	<path d="M323.686,850.63c0-0.673-0.026-1.201-0.053-1.729h1.016l0.053,1.043h0.04c0.356-0.607,0.95-1.175,2.02-1.175
		c0.857,0,1.518,0.528,1.795,1.28h0.026c0.198-0.369,0.462-0.633,0.726-0.831c0.383-0.291,0.792-0.449,1.399-0.449
		c0.857,0,2.111,0.555,2.111,2.772v3.748h-1.135v-3.604c0-1.24-0.462-1.967-1.386-1.967c-0.673,0-1.175,0.488-1.386,1.043
		c-0.053,0.172-0.093,0.37-0.093,0.581v3.946h-1.135v-3.828c0-1.016-0.449-1.742-1.333-1.742c-0.713,0-1.254,0.581-1.438,1.162
		c-0.066,0.158-0.093,0.369-0.093,0.567v3.841h-1.135V850.63z"/>
</g>
<g>
	
		<polyline fill-rule="evenodd" clip-rule="evenodd" fill="none" stroke="#000000" stroke-linecap="round" stroke-linejoin="round" stroke-miterlimit="10" points="
		279.811,821.012 267.167,820.449 299.806,799.939 	"/>
</g>
<g>
	
		<line fill-rule="evenodd" clip-rule="evenodd" fill="none" stroke="#000000" stroke-width="0.5" stroke-linecap="round" stroke-linejoin="round" stroke-miterlimit="10" stroke-dasharray="8,4" x1="144.526" y1="737.799" x2="260.003" y2="737.799"/>
</g>
<g>
	
		<polyline fill-rule="evenodd" clip-rule="evenodd" fill="#FFFFFF" stroke="#000000" stroke-linecap="round" stroke-linejoin="round" stroke-miterlimit="10" stroke-dasharray="8,4" points="
		76.065,789.404 67.636,788.888 71.382,796.428 76.065,789.404 	"/>
</g>
<g>
	<path d="M14.988,401.626v-3.775l-2.825-5.121h1.32l1.254,2.455c0.33,0.673,0.607,1.214,0.885,1.834h0.026
		c0.237-0.581,0.554-1.162,0.897-1.834l1.28-2.455h1.293l-2.97,5.108v3.788H14.988z"/>
</g>
<g>
	<path d="M16.007,686.835l4.923-7.22v-0.04H16.43v-0.964h6.005v0.7l-4.91,7.193v0.039h4.976v0.964h-6.494V686.835z"/>
</g>
</svg>
