<?xml version="1.0" encoding="utf-8"?>
<!-- Generator: Adobe Illustrator 15.0.0, SVG Export Plug-In . SVG Version: 6.00 Build 0)  -->
<!DOCTYPE svg PUBLIC "-//W3C//DTD SVG 1.1//EN" "http://www.w3.org/Graphics/SVG/1.1/DTD/svg11.dtd">
<svg version="1.1" id="_x3C_Layer_x3E_" xmlns="http://www.w3.org/2000/svg" xmlns:xlink="http://www.w3.org/1999/xlink" x="0px"
	 y="0px" width="724.5px" height="537.5px" viewBox="0 0 724.5 537.5" enable-background="new 0 0 724.5 537.5"
	 xml:space="preserve">
<g>
	
		<line fill-rule="evenodd" clip-rule="evenodd" fill="none" stroke="#000000" stroke-linecap="round" stroke-linejoin="round" stroke-miterlimit="10" x1="2" y1="277.026" x2="490.574" y2="277.026"/>
</g>
<g>
	<polyline stroke="#000000" stroke-linecap="round" stroke-linejoin="round" stroke-miterlimit="10" points="476.843,270.108 
		490.574,277.026 476.843,283.842 476.843,270.108 	"/>
</g>
<g>
	
		<line fill="none" stroke="#000000" stroke-linecap="round" stroke-linejoin="round" stroke-miterlimit="10" x1="248.662" y1="531.432" x2="248.662" y2="41.826"/>
</g>
<g>
	<polyline stroke="#000000" stroke-linecap="round" stroke-linejoin="round" stroke-miterlimit="10" points="241.847,55.662 
		248.662,41.826 255.58,55.662 241.847,55.662 	"/>
</g>
<g>
	
		<line fill="none" stroke="#000000" stroke-linecap="round" stroke-linejoin="round" stroke-miterlimit="10" x1="329.609" y1="278.885" x2="209.221" y2="530.4"/>
</g>
<g>
	
		<line fill="none" stroke="#000000" stroke-linecap="round" stroke-linejoin="round" stroke-miterlimit="10" x1="263.118" y1="418.684" x2="320.937" y2="418.684"/>
</g>
<g>
	<polyline fill="none" stroke="#000000" stroke-linecap="round" stroke-linejoin="round" stroke-miterlimit="10" points="
		281.495,383.993 288,386.058 293.783,389.259 298.532,393.905 301.111,397.932 303.28,403.095 304.622,410.734 304.622,418.684 	
		"/>
</g>
<g>
	<path d="M12.692,18.895v18.594h-2.428V18.895H12.692z"/>
	<path d="M16.884,18.895h2.4v8.966h0.083c0.497-0.717,0.993-1.379,1.462-1.986l5.684-6.979h2.979l-6.731,7.89l7.255,10.704h-2.841
		l-6.097-9.131l-1.793,2.041v7.09h-2.4V18.895z"/>
	<path d="M31.53,34.564c1.076,0.689,2.621,1.214,4.276,1.214c2.456,0,3.89-1.297,3.89-3.173c0-1.71-0.993-2.731-3.504-3.669
		c-3.035-1.104-4.911-2.704-4.911-5.297c0-2.896,2.4-5.049,6.014-5.049c1.876,0,3.283,0.441,4.083,0.911l-0.662,1.958
		c-0.579-0.358-1.821-0.883-3.504-0.883c-2.538,0-3.503,1.518-3.503,2.787c0,1.738,1.131,2.593,3.697,3.586
		c3.145,1.214,4.718,2.731,4.718,5.462c0,2.869-2.097,5.379-6.483,5.379c-1.793,0-3.752-0.552-4.745-1.214L31.53,34.564z"/>
	<path d="M50.285,28.191v-1.655h14.235v1.655H50.285z M50.285,33.599v-1.655h14.235v1.655H50.285z"/>
	<path d="M77.979,21.819h-0.055l-3.118,1.683l-0.469-1.849l3.917-2.097h2.069v17.932h-2.345V21.819z"/>
</g>
<g>
	<path d="M214.234,6.4v18.594h-2.428V6.4H214.234z"/>
	<path d="M218.426,24.995V6.4h2.648l5.931,9.407c1.352,2.18,2.456,4.139,3.311,6.042l0.083-0.027
		c-0.221-2.483-0.276-4.745-0.276-7.642V6.4h2.262v18.594h-2.428l-5.904-9.435c-1.296-2.069-2.538-4.193-3.449-6.207l-0.083,0.027
		c0.138,2.345,0.166,4.58,0.166,7.669v7.945H218.426z"/>
	<path d="M236.575,6.621c1.159-0.193,2.676-0.358,4.607-0.358c2.373,0,4.111,0.552,5.214,1.545c0.993,0.883,1.627,2.234,1.627,3.89
		c0,1.683-0.496,3.007-1.435,3.973c-1.296,1.352-3.338,2.042-5.683,2.042c-0.718,0-1.38-0.028-1.932-0.166v7.449h-2.4V6.621z
		 M238.975,15.587c0.524,0.138,1.187,0.193,1.986,0.193c2.897,0,4.663-1.435,4.663-3.945c0-2.482-1.766-3.669-4.386-3.669
		c-1.049,0-1.849,0.083-2.263,0.193V15.587z"/>
	<path d="M253.648,6.4v11.035c0,4.138,1.849,5.904,4.332,5.904c2.731,0,4.524-1.821,4.524-5.904V6.4h2.428v10.87
		c0,5.71-3.007,8.028-7.035,8.028c-3.808,0-6.677-2.151-6.677-7.945V6.4H253.648z"/>
	<path d="M272.625,8.442h-5.655V6.4h13.766v2.042h-5.683v16.553h-2.428V8.442z"/>
</g>
<g>
	<path d="M277.473,52.761h10.014v2.014H279.9v6.18h7.007v1.986H279.9v8.414h-2.428V52.761z"/>
	<path d="M286.602,74.776c0.607-1.655,1.352-4.607,1.655-6.621l2.704-0.276c-0.662,2.345-1.876,5.407-2.648,6.704L286.602,74.776z"
		/>
	<path d="M309.248,70.887c-0.634,0.303-2.041,0.772-3.834,0.772c-4.028,0-6.648-2.731-6.648-6.814c0-4.11,2.813-7.118,7.172-7.118
		c1.436,0,2.704,0.359,3.366,0.717l-0.552,1.849c-0.579-0.304-1.49-0.635-2.814-0.635c-3.062,0-4.717,2.29-4.717,5.049
		c0,3.09,1.986,4.993,4.635,4.993c1.379,0,2.289-0.331,2.979-0.635L309.248,70.887z"/>
	<path d="M324.006,64.569c0,4.938-3.449,7.09-6.648,7.09c-3.587,0-6.4-2.648-6.4-6.87c0-4.442,2.951-7.063,6.621-7.063
		C321.412,57.727,324.006,60.514,324.006,64.569z M313.439,64.707c0,2.924,1.655,5.131,4.027,5.131c2.318,0,4.056-2.179,4.056-5.187
		c0-2.262-1.131-5.104-4-5.104C314.681,59.548,313.439,62.196,313.439,64.707z"/>
	<path d="M327.064,61.617c0-1.407-0.027-2.511-0.11-3.614h2.152l0.138,2.207h0.055c0.662-1.241,2.207-2.483,4.414-2.483
		c1.849,0,4.718,1.104,4.718,5.683v7.945h-2.428v-7.697c0-2.151-0.8-3.945-3.09-3.945c-1.572,0-2.813,1.131-3.255,2.483
		c-0.11,0.304-0.166,0.717-0.166,1.131v8.028h-2.428V61.617z"/>
	<path d="M345.187,54.803v3.2h3.476v1.849h-3.476v7.2c0,1.655,0.469,2.593,1.82,2.593c0.662,0,1.049-0.055,1.407-0.166l0.11,1.849
		c-0.469,0.165-1.214,0.331-2.151,0.331c-1.132,0-2.042-0.387-2.621-1.021c-0.662-0.745-0.938-1.931-0.938-3.503v-7.283h-2.069
		v-1.849h2.069V55.52L345.187,54.803z"/>
	<path d="M360.771,68.155c0,1.159,0.056,2.29,0.193,3.2h-2.18l-0.193-1.683h-0.082c-0.745,1.048-2.18,1.986-4.083,1.986
		c-2.704,0-4.083-1.904-4.083-3.835c0-3.228,2.869-4.993,8.027-4.966v-0.276c0-1.076-0.303-3.09-3.034-3.062
		c-1.269,0-2.565,0.358-3.504,0.993l-0.552-1.628c1.104-0.689,2.731-1.159,4.414-1.159c4.083,0,5.076,2.787,5.076,5.435V68.155z
		 M358.427,64.541c-2.648-0.055-5.655,0.414-5.655,3.007c0,1.6,1.048,2.317,2.262,2.317c1.766,0,2.896-1.104,3.283-2.235
		c0.083-0.275,0.11-0.552,0.11-0.772V64.541z"/>
	<path d="M374.205,70.887c-0.635,0.303-2.042,0.772-3.835,0.772c-4.028,0-6.649-2.731-6.649-6.814c0-4.11,2.814-7.118,7.174-7.118
		c1.434,0,2.703,0.359,3.365,0.717l-0.552,1.849c-0.579-0.304-1.489-0.635-2.813-0.635c-3.063,0-4.718,2.29-4.718,5.049
		c0,3.09,1.986,4.993,4.635,4.993c1.379,0,2.29-0.331,2.979-0.635L374.205,70.887z"/>
	<path d="M380.326,54.803v3.2h3.476v1.849h-3.476v7.2c0,1.655,0.469,2.593,1.82,2.593c0.662,0,1.049-0.055,1.407-0.166l0.11,1.849
		c-0.469,0.165-1.214,0.331-2.152,0.331c-1.131,0-2.041-0.387-2.62-1.021c-0.662-0.745-0.938-1.931-0.938-3.503v-7.283h-2.068
		v-1.849h2.068V55.52L380.326,54.803z"/>
	<path d="M392.627,71.355V59.852h-1.849v-1.849h1.849v-0.635c0-1.876,0.441-3.586,1.545-4.662c0.91-0.883,2.124-1.241,3.255-1.241
		c0.883,0,1.601,0.193,2.069,0.386l-0.331,1.876c-0.358-0.165-0.828-0.303-1.545-0.303c-2.069,0-2.594,1.793-2.594,3.862v0.717
		h3.228v1.849h-3.228v11.504H392.627z"/>
	<path d="M412.157,64.569c0,4.938-3.448,7.09-6.649,7.09c-3.586,0-6.4-2.648-6.4-6.87c0-4.442,2.952-7.063,6.621-7.063
		C409.563,57.727,412.157,60.514,412.157,64.569z M401.591,64.707c0,2.924,1.655,5.131,4.028,5.131c2.316,0,4.055-2.179,4.055-5.187
		c0-2.262-1.131-5.104-4-5.104C402.832,59.548,401.591,62.196,401.591,64.707z"/>
	<path d="M415.216,62.169c0-1.573-0.027-2.925-0.11-4.166h2.125l0.109,2.648h0.083c0.607-1.793,2.097-2.924,3.725-2.924
		c0.248,0,0.441,0.028,0.662,0.055v2.29c-0.248-0.056-0.497-0.056-0.827-0.056c-1.711,0-2.925,1.27-3.256,3.09
		c-0.055,0.331-0.083,0.745-0.083,1.131v7.118h-2.428V62.169z"/>
	<path d="M433.477,70.887c-0.634,0.303-2.041,0.772-3.834,0.772c-4.028,0-6.648-2.731-6.648-6.814c0-4.11,2.813-7.118,7.172-7.118
		c1.436,0,2.704,0.359,3.366,0.717l-0.552,1.849c-0.579-0.304-1.49-0.635-2.814-0.635c-3.062,0-4.717,2.29-4.717,5.049
		c0,3.09,1.986,4.993,4.635,4.993c1.379,0,2.289-0.331,2.979-0.635L433.477,70.887z"/>
	<path d="M437.502,65.121c0.056,3.283,2.125,4.635,4.58,4.635c1.738,0,2.814-0.303,3.697-0.69l0.441,1.738
		c-0.855,0.386-2.346,0.855-4.47,0.855c-4.11,0-6.565-2.731-6.565-6.759s2.372-7.173,6.262-7.173c4.387,0,5.518,3.807,5.518,6.262
		c0,0.497-0.027,0.855-0.082,1.131H437.502z M444.62,63.383c0.027-1.518-0.635-3.918-3.366-3.918c-2.482,0-3.531,2.235-3.724,3.918
		H444.62z"/>
</g>
<g>
	<path d="M274.886,170.253c1.583-0.269,3.466-0.448,5.527-0.448c3.734,0,6.394,0.896,8.156,2.509
		c1.823,1.644,2.868,3.974,2.868,7.23c0,3.286-1.045,5.975-2.898,7.828c-1.912,1.882-5.02,2.898-8.933,2.898
		c-1.882,0-3.406-0.089-4.721-0.239V170.253z M277.485,188.06c0.657,0.09,1.613,0.12,2.629,0.12c5.587,0,8.575-3.107,8.575-8.545
		c0.03-4.75-2.659-7.768-8.156-7.768c-1.345,0-2.36,0.119-3.047,0.269V188.06z"/>
</g>
<g>
	<path d="M300.413,193.189c0,3.155-2.203,4.529-4.247,4.529c-2.291,0-4.088-1.692-4.088-4.388c0-2.837,1.886-4.512,4.229-4.512
		C298.757,188.818,300.413,190.598,300.413,193.189z M293.664,193.277c0,1.868,1.058,3.278,2.573,3.278
		c1.48,0,2.59-1.393,2.59-3.313c0-1.445-0.722-3.26-2.555-3.26C294.457,189.981,293.664,191.673,293.664,193.277z"/>
</g>
<g>
	<path d="M309.97,179.766v-1.838h15.81v1.838H309.97z M309.97,185.771v-1.838h15.81v1.838H309.97z"/>
</g>
<g>
	<path d="M274.944,204.924c1.348-0.245,3.309-0.429,5.117-0.429c2.85,0,4.719,0.551,5.975,1.685
		c1.011,0.919,1.624,2.329,1.624,3.953c0,2.696-1.716,4.504-3.86,5.239v0.092c1.563,0.552,2.512,2.022,3.002,4.167
		c0.674,2.88,1.165,4.872,1.593,5.668h-2.757c-0.337-0.613-0.797-2.359-1.348-4.933c-0.613-2.85-1.747-3.922-4.167-4.014h-2.513
		v8.947h-2.666V204.924z M277.609,214.33h2.727c2.85,0,4.657-1.563,4.657-3.922c0-2.666-1.93-3.83-4.749-3.83
		c-1.287,0-2.175,0.092-2.635,0.214V214.33z"/>
	<path d="M294.924,218.804l-2.145,6.496h-2.757l7.047-20.651h3.187l7.047,20.651h-2.85l-2.206-6.496H294.924z M301.727,216.72
		l-2.053-5.944c-0.46-1.349-0.767-2.574-1.073-3.769h-0.061c-0.307,1.195-0.613,2.482-1.042,3.738l-2.022,5.975H301.727z"/>
	<path d="M310.34,204.955c1.624-0.276,3.555-0.459,5.669-0.459c3.83,0,6.557,0.919,8.364,2.574c1.869,1.685,2.941,4.075,2.941,7.415
		c0,3.371-1.072,6.128-2.972,8.028c-1.961,1.93-5.147,2.972-9.161,2.972c-1.931,0-3.493-0.092-4.842-0.245V204.955z
		 M313.006,223.216c0.674,0.092,1.654,0.123,2.696,0.123c5.729,0,8.794-3.187,8.794-8.763c0.03-4.872-2.728-7.966-8.365-7.966
		c-1.379,0-2.42,0.122-3.125,0.275V223.216z"/>
	<path d="M330.75,204.924c1.349-0.245,3.31-0.429,5.117-0.429c2.85,0,4.719,0.551,5.975,1.685c1.012,0.919,1.624,2.329,1.624,3.953
		c0,2.696-1.716,4.504-3.86,5.239v0.092c1.563,0.552,2.513,2.022,3.003,4.167c0.674,2.88,1.164,4.872,1.593,5.668h-2.758
		c-0.337-0.613-0.796-2.359-1.348-4.933c-0.613-2.85-1.746-3.922-4.167-4.014h-2.513v8.947h-2.666V204.924z M333.416,214.33h2.727
		c2.85,0,4.658-1.563,4.658-3.922c0-2.666-1.931-3.83-4.75-3.83c-1.286,0-2.175,0.092-2.635,0.214V214.33z"/>
	<path d="M364.979,214.759c0,7.078-4.319,10.877-9.59,10.877c-5.484,0-9.283-4.259-9.283-10.509c0-6.557,4.044-10.847,9.559-10.847
		C361.333,204.28,364.979,208.601,364.979,214.759z M348.924,215.065c0,4.443,2.39,8.396,6.618,8.396s6.618-3.891,6.618-8.579
		c0-4.136-2.145-8.426-6.588-8.426C351.13,206.456,348.924,210.562,348.924,215.065z"/>
	<path d="M368.415,204.648h2.696v18.414h8.824v2.237h-11.521V204.648z"/>
	<path d="M397.19,208.999v7.2h6.925v1.838h-6.925v7.262h-1.961v-7.262h-6.925v-1.838h6.925v-7.2H397.19z"/>
	<path d="M414.17,204.924c1.348-0.245,3.309-0.429,5.116-0.429c2.85,0,4.719,0.551,5.975,1.685c1.012,0.919,1.624,2.329,1.624,3.953
		c0,2.696-1.716,4.504-3.86,5.239v0.092c1.563,0.552,2.513,2.022,3.003,4.167c0.674,2.88,1.164,4.872,1.593,5.668h-2.758
		c-0.337-0.613-0.796-2.359-1.348-4.933c-0.613-2.85-1.747-3.922-4.167-4.014h-2.513v8.947h-2.665V204.924z M416.835,214.33h2.728
		c2.849,0,4.656-1.563,4.656-3.922c0-2.666-1.93-3.83-4.749-3.83c-1.286,0-2.175,0.092-2.635,0.214V214.33z"/>
	<path d="M434.855,206.916h-6.281v-2.267h15.289v2.267h-6.313v18.384h-2.695V206.916z"/>
	<path d="M448.829,204.648v12.256c0,4.596,2.053,6.557,4.811,6.557c3.033,0,5.024-2.022,5.024-6.557v-12.256h2.697v12.072
		c0,6.342-3.34,8.916-7.813,8.916c-4.229,0-7.415-2.39-7.415-8.824v-12.164H448.829z"/>
	<path d="M465.992,204.955c1.164-0.276,3.033-0.459,4.871-0.459c2.666,0,4.382,0.459,5.638,1.501
		c1.072,0.797,1.747,2.022,1.747,3.646c0,2.022-1.349,3.769-3.493,4.535v0.092c1.961,0.459,4.259,2.083,4.259,5.147
		c0,1.777-0.705,3.156-1.777,4.136c-1.409,1.317-3.738,1.931-7.108,1.931c-1.838,0-3.248-0.123-4.136-0.245V204.955z
		 M468.657,213.411h2.421c2.788,0,4.442-1.501,4.442-3.493c0-2.39-1.808-3.37-4.504-3.37c-1.226,0-1.931,0.092-2.359,0.184V213.411z
		 M468.657,223.277c0.552,0.092,1.287,0.122,2.237,0.122c2.757,0,5.3-1.011,5.3-4.014c0-2.788-2.42-3.983-5.331-3.983h-2.206
		V223.277z"/>
	<path d="M493.265,215.617h-7.997v7.445h8.947v2.237h-11.644v-20.651h11.184v2.236h-8.487v6.526h7.997V215.617z"/>
</g>
<g>
	<path d="M352,300.328c1.503-0.255,3.289-0.425,5.245-0.425c3.544,0,6.067,0.85,7.74,2.381c1.729,1.559,2.722,3.771,2.722,6.861
		c0,3.119-0.992,5.67-2.75,7.428c-1.814,1.786-4.764,2.75-8.478,2.75c-1.786,0-3.231-0.085-4.479-0.227V300.328z M354.467,317.225
		c0.624,0.085,1.531,0.113,2.495,0.113c5.302,0,8.137-2.949,8.137-8.108c0.028-4.508-2.523-7.371-7.74-7.371
		c-1.275,0-2.239,0.113-2.892,0.255V317.225z"/>
</g>
<g>
	<path d="M376.326,322.13c0,3.018-2.107,4.333-4.063,4.333c-2.192,0-3.912-1.619-3.912-4.198c0-2.715,1.805-4.316,4.047-4.316
		C374.741,317.949,376.326,319.651,376.326,322.13z M369.868,322.214c0,1.787,1.012,3.136,2.462,3.136
		c1.416,0,2.479-1.332,2.479-3.17c0-1.383-0.691-3.119-2.445-3.119C370.627,319.062,369.868,320.68,369.868,322.214z"/>
</g>
<g>
</g>
<g>
	<path d="M408.51,298.482v17.032c0,1.252,0.059,2.678,0.116,3.639h-2.271l-0.116-2.446h-0.088c-0.757,1.572-2.445,2.766-4.745,2.766
		c-3.406,0-6.056-2.882-6.056-7.162c-0.029-4.687,2.911-7.541,6.317-7.541c2.184,0,3.61,1.019,4.251,2.125h0.058v-8.414H408.51z
		 M405.977,310.797c0-0.32-0.028-0.757-0.116-1.078c-0.378-1.601-1.775-2.94-3.697-2.94c-2.649,0-4.222,2.329-4.222,5.416
		c0,2.853,1.427,5.211,4.163,5.211c1.718,0,3.29-1.165,3.756-3.057c0.088-0.35,0.116-0.699,0.116-1.106V310.797z"/>
	<path d="M415.644,301.103c0,0.873-0.611,1.572-1.631,1.572c-0.932,0-1.543-0.699-1.543-1.572c0-0.874,0.641-1.602,1.602-1.602
		C415.003,299.501,415.644,300.2,415.644,301.103z M412.79,319.153v-14.091h2.563v14.091H412.79z"/>
	<path d="M419.254,316.562c0.785,0.466,2.125,0.99,3.406,0.99c1.834,0,2.707-0.903,2.707-2.096c0-1.223-0.728-1.863-2.591-2.562
		c-2.563-0.932-3.756-2.3-3.756-3.989c0-2.271,1.863-4.134,4.862-4.134c1.427,0,2.678,0.378,3.436,0.874l-0.611,1.863
		c-0.554-0.349-1.572-0.844-2.883-0.844c-1.514,0-2.329,0.874-2.329,1.921c0,1.165,0.815,1.688,2.649,2.417
		c2.416,0.902,3.697,2.125,3.697,4.222c0,2.503-1.95,4.25-5.24,4.25c-1.543,0-2.97-0.408-3.959-0.99L419.254,316.562z"/>
	<path d="M434.218,301.685v3.377h3.669v1.951h-3.669v7.599c0,1.747,0.495,2.736,1.922,2.736c0.699,0,1.106-0.058,1.485-0.175
		l0.116,1.951c-0.495,0.175-1.281,0.35-2.271,0.35c-1.193,0-2.154-0.408-2.766-1.077c-0.698-0.786-0.989-2.038-0.989-3.698v-7.686
		h-2.184v-1.951h2.184v-2.62L434.218,301.685z"/>
	<path d="M450.668,315.775c0,1.223,0.058,2.417,0.203,3.377h-2.3l-0.204-1.776h-0.087c-0.786,1.106-2.3,2.096-4.309,2.096
		c-2.854,0-4.31-2.009-4.31-4.047c0-3.406,3.028-5.27,8.473-5.241v-0.291c0-1.135-0.32-3.261-3.203-3.231
		c-1.339,0-2.707,0.378-3.697,1.048l-0.582-1.718c1.165-0.728,2.883-1.223,4.658-1.223c4.309,0,5.357,2.94,5.357,5.735V315.775z
		 M448.193,311.962c-2.795-0.059-5.969,0.437-5.969,3.173c0,1.688,1.106,2.445,2.388,2.445c1.863,0,3.057-1.165,3.464-2.358
		c0.088-0.292,0.117-0.583,0.117-0.815V311.962z"/>
	<path d="M454.801,308.875c0-1.485-0.029-2.649-0.116-3.814h2.271l0.146,2.329h0.058c0.699-1.31,2.329-2.62,4.658-2.62
		c1.951,0,4.979,1.165,4.979,5.998v8.385h-2.562v-8.123c0-2.271-0.845-4.164-3.261-4.164c-1.66,0-2.97,1.194-3.436,2.621
		c-0.117,0.32-0.175,0.757-0.175,1.193v8.472h-2.563V308.875z"/>
	<path d="M481.004,318.658c-0.67,0.32-2.154,0.815-4.047,0.815c-4.251,0-7.017-2.882-7.017-7.191c0-4.338,2.97-7.512,7.569-7.512
		c1.514,0,2.854,0.378,3.552,0.757l-0.582,1.951c-0.611-0.32-1.572-0.669-2.97-0.669c-3.231,0-4.979,2.417-4.979,5.328
		c0,3.261,2.097,5.27,4.892,5.27c1.455,0,2.416-0.35,3.144-0.67L481.004,318.658z"/>
	<path d="M485.255,312.573c0.059,3.464,2.242,4.891,4.833,4.891c1.834,0,2.97-0.32,3.901-0.728l0.466,1.834
		c-0.902,0.408-2.475,0.903-4.717,0.903c-4.338,0-6.929-2.882-6.929-7.133s2.504-7.57,6.608-7.57c4.629,0,5.823,4.018,5.823,6.609
		c0,0.524-0.029,0.903-0.088,1.194H485.255z M492.767,310.739c0.029-1.601-0.67-4.134-3.552-4.134c-2.621,0-3.727,2.358-3.931,4.134
		H492.767z"/>
	<path d="M504.586,298.482h2.533v8.851h0.059c0.902-1.572,2.532-2.562,4.804-2.562c3.522,0,5.968,2.912,5.968,7.162
		c0,5.037-3.202,7.541-6.347,7.541c-2.038,0-3.668-0.786-4.745-2.62h-0.059l-0.146,2.3h-2.184c0.059-0.961,0.116-2.387,0.116-3.639
		V298.482z M507.119,313.505c0,0.32,0.029,0.641,0.116,0.932c0.466,1.776,1.979,2.999,3.843,2.999c2.708,0,4.28-2.184,4.28-5.415
		c0-2.824-1.456-5.241-4.222-5.241c-1.718,0-3.348,1.223-3.872,3.145c-0.087,0.32-0.146,0.669-0.146,1.077V313.505z"/>
	<path d="M522.579,312.573c0.059,3.464,2.242,4.891,4.833,4.891c1.834,0,2.97-0.32,3.901-0.728l0.466,1.834
		c-0.902,0.408-2.475,0.903-4.717,0.903c-4.338,0-6.929-2.882-6.929-7.133s2.504-7.57,6.608-7.57c4.629,0,5.823,4.018,5.823,6.609
		c0,0.524-0.029,0.903-0.088,1.194H522.579z M530.091,310.739c0.029-1.601-0.67-4.134-3.552-4.134c-2.621,0-3.727,2.358-3.931,4.134
		H530.091z"/>
	<path d="M538.824,301.685v3.377h3.669v1.951h-3.669v7.599c0,1.747,0.495,2.736,1.922,2.736c0.699,0,1.106-0.058,1.484-0.175
		l0.117,1.951c-0.495,0.175-1.281,0.35-2.271,0.35c-1.193,0-2.154-0.408-2.766-1.077c-0.698-0.786-0.989-2.038-0.989-3.698v-7.686
		h-2.184v-1.951h2.184v-2.62L538.824,301.685z"/>
	<path d="M546.656,305.062l1.893,7.162c0.378,1.572,0.757,3.028,1.019,4.483h0.087c0.32-1.426,0.786-2.94,1.252-4.454l2.301-7.191
		h2.154l2.184,7.046c0.523,1.688,0.932,3.173,1.252,4.6h0.087c0.233-1.426,0.611-2.911,1.077-4.571l2.009-7.075h2.533l-4.542,14.091
		h-2.329l-2.154-6.725c-0.495-1.572-0.902-2.97-1.252-4.629h-0.059c-0.349,1.689-0.786,3.145-1.28,4.658l-2.271,6.696h-2.329
		l-4.25-14.091H546.656z"/>
	<path d="M568.2,312.573c0.059,3.464,2.242,4.891,4.833,4.891c1.834,0,2.97-0.32,3.901-0.728l0.466,1.834
		c-0.902,0.408-2.475,0.903-4.717,0.903c-4.338,0-6.929-2.882-6.929-7.133s2.504-7.57,6.608-7.57c4.629,0,5.823,4.018,5.823,6.609
		c0,0.524-0.029,0.903-0.088,1.194H568.2z M575.712,310.739c0.029-1.601-0.67-4.134-3.552-4.134c-2.621,0-3.727,2.358-3.931,4.134
		H575.712z"/>
	<path d="M582.786,312.573c0.059,3.464,2.242,4.891,4.833,4.891c1.834,0,2.97-0.32,3.901-0.728l0.466,1.834
		c-0.902,0.408-2.475,0.903-4.717,0.903c-4.338,0-6.929-2.882-6.929-7.133s2.504-7.57,6.608-7.57c4.629,0,5.823,4.018,5.823,6.609
		c0,0.524-0.029,0.903-0.088,1.194H582.786z M590.298,310.739c0.029-1.601-0.67-4.134-3.552-4.134c-2.621,0-3.727,2.358-3.931,4.134
		H590.298z"/>
	<path d="M595.945,308.875c0-1.485-0.029-2.649-0.116-3.814h2.271l0.146,2.329h0.058c0.699-1.31,2.329-2.62,4.658-2.62
		c1.951,0,4.979,1.165,4.979,5.998v8.385h-2.562v-8.123c0-2.271-0.845-4.164-3.261-4.164c-1.66,0-2.97,1.194-3.436,2.621
		c-0.117,0.32-0.175,0.757-0.175,1.193v8.472h-2.563V308.875z"/>
	<path d="M618.276,309.662c0-1.805-0.058-3.261-0.116-4.6h2.271l0.146,2.417h0.059c1.02-1.717,2.708-2.708,5.008-2.708
		c3.436,0,5.997,2.882,5.997,7.133c0,5.066-3.115,7.57-6.434,7.57c-1.863,0-3.494-0.815-4.338-2.213h-0.059v7.657h-2.533V309.662z
		 M620.81,313.417c0,0.378,0.029,0.728,0.116,1.048c0.466,1.776,2.009,2.999,3.844,2.999c2.707,0,4.279-2.213,4.279-5.444
		c0-2.795-1.484-5.211-4.192-5.211c-1.747,0-3.406,1.223-3.872,3.145c-0.088,0.32-0.175,0.698-0.175,1.019V313.417z"/>
	<path d="M634.842,309.458c0-1.66-0.029-3.086-0.116-4.396h2.242l0.116,2.795h0.087c0.641-1.892,2.213-3.086,3.931-3.086
		c0.262,0,0.466,0.029,0.699,0.059v2.416c-0.263-0.058-0.524-0.058-0.874-0.058c-1.805,0-3.086,1.339-3.436,3.261
		c-0.058,0.35-0.087,0.786-0.087,1.194v7.511h-2.563V309.458z"/>
	<path d="M647.332,301.103c0,0.873-0.611,1.572-1.631,1.572c-0.932,0-1.543-0.699-1.543-1.572c0-0.874,0.641-1.602,1.602-1.602
		C646.691,299.501,647.332,300.2,647.332,301.103z M644.479,319.153v-14.091h2.563v14.091H644.479z"/>
	<path d="M651.291,308.875c0-1.485-0.029-2.649-0.116-3.814h2.271l0.146,2.329h0.058c0.699-1.31,2.329-2.62,4.658-2.62
		c1.951,0,4.979,1.165,4.979,5.998v8.385h-2.562v-8.123c0-2.271-0.845-4.164-3.261-4.164c-1.66,0-2.97,1.194-3.436,2.621
		c-0.117,0.32-0.175,0.757-0.175,1.193v8.472h-2.563V308.875z"/>
	<path d="M677.494,318.658c-0.67,0.32-2.154,0.815-4.047,0.815c-4.251,0-7.017-2.882-7.017-7.191c0-4.338,2.97-7.512,7.569-7.512
		c1.514,0,2.854,0.378,3.552,0.757l-0.582,1.951c-0.611-0.32-1.572-0.669-2.97-0.669c-3.231,0-4.979,2.417-4.979,5.328
		c0,3.261,2.097,5.27,4.892,5.27c1.455,0,2.416-0.35,3.144-0.67L677.494,318.658z"/>
	<path d="M683.346,301.103c0,0.873-0.611,1.572-1.631,1.572c-0.932,0-1.543-0.699-1.543-1.572c0-0.874,0.641-1.602,1.602-1.602
		C682.705,299.501,683.346,300.2,683.346,301.103z M680.492,319.153v-14.091h2.563v14.091H680.492z"/>
	<path d="M687.305,309.662c0-1.805-0.058-3.261-0.116-4.6h2.271l0.146,2.417h0.058c1.02-1.717,2.708-2.708,5.008-2.708
		c3.436,0,5.997,2.882,5.997,7.133c0,5.066-3.115,7.57-6.434,7.57c-1.863,0-3.494-0.815-4.338-2.213h-0.059v7.657h-2.533V309.662z
		 M689.838,313.417c0,0.378,0.029,0.728,0.116,1.048c0.466,1.776,2.009,2.999,3.843,2.999c2.708,0,4.28-2.213,4.28-5.444
		c0-2.795-1.485-5.211-4.192-5.211c-1.747,0-3.406,1.223-3.872,3.145c-0.088,0.32-0.175,0.698-0.175,1.019V313.417z"/>
	<path d="M713.771,315.775c0,1.223,0.058,2.417,0.203,3.377h-2.3l-0.204-1.776h-0.087c-0.786,1.106-2.3,2.096-4.309,2.096
		c-2.854,0-4.31-2.009-4.31-4.047c0-3.406,3.028-5.27,8.473-5.241v-0.291c0-1.135-0.32-3.261-3.202-3.231
		c-1.34,0-2.708,0.378-3.698,1.048l-0.582-1.718c1.165-0.728,2.882-1.223,4.658-1.223c4.309,0,5.357,2.94,5.357,5.735V315.775z
		 M711.295,311.962c-2.795-0.059-5.968,0.437-5.968,3.173c0,1.688,1.106,2.445,2.388,2.445c1.863,0,3.057-1.165,3.464-2.358
		c0.088-0.292,0.116-0.583,0.116-0.815V311.962z"/>
	<path d="M717.903,298.482h2.563v20.671h-2.563V298.482z"/>
</g>
<g>
	<path d="M389.003,342.911c0-1.66-0.028-3.086-0.116-4.396h2.242l0.116,2.795h0.087c0.641-1.893,2.213-3.086,3.931-3.086
		c0.262,0,0.466,0.029,0.698,0.058v2.417c-0.262-0.058-0.523-0.058-0.873-0.058c-1.805,0-3.086,1.339-3.436,3.261
		c-0.058,0.35-0.087,0.786-0.087,1.194v7.511h-2.563V342.911z"/>
	<path d="M410.983,345.443c0,5.211-3.639,7.482-7.017,7.482c-3.784,0-6.754-2.795-6.754-7.25c0-4.687,3.115-7.453,6.987-7.453
		C408.247,338.223,410.983,341.164,410.983,345.443z M399.833,345.589c0,3.086,1.747,5.416,4.251,5.416
		c2.445,0,4.279-2.3,4.279-5.474c0-2.387-1.193-5.386-4.222-5.386C401.144,340.145,399.833,342.939,399.833,345.589z"/>
	<path d="M414.216,331.935h2.563v20.671h-2.563V331.935z"/>
	<path d="M421.087,331.935h2.563v20.671h-2.563V331.935z"/>
	<path d="M429.384,346.026c0.059,3.464,2.242,4.891,4.833,4.891c1.834,0,2.97-0.32,3.901-0.728l0.466,1.834
		c-0.902,0.407-2.475,0.902-4.717,0.902c-4.338,0-6.929-2.882-6.929-7.133c0-4.251,2.504-7.57,6.608-7.57
		c4.629,0,5.823,4.018,5.823,6.609c0,0.524-0.029,0.902-0.088,1.194H429.384z M436.896,344.191c0.029-1.601-0.67-4.134-3.552-4.134
		c-2.621,0-3.727,2.358-3.931,4.134H436.896z"/>
	<path d="M442.543,342.911c0-1.66-0.029-3.086-0.116-4.396h2.242l0.116,2.795h0.087c0.641-1.893,2.213-3.086,3.931-3.086
		c0.262,0,0.466,0.029,0.699,0.058v2.417c-0.263-0.058-0.524-0.058-0.874-0.058c-1.805,0-3.086,1.339-3.436,3.261
		c-0.058,0.35-0.087,0.786-0.087,1.194v7.511h-2.563V342.911z"/>
	<path d="M468.135,349.229c0,1.223,0.058,2.416,0.203,3.377h-2.3l-0.204-1.776h-0.087c-0.786,1.106-2.3,2.096-4.309,2.096
		c-2.854,0-4.31-2.009-4.31-4.047c0-3.406,3.028-5.27,8.473-5.24v-0.292c0-1.135-0.32-3.261-3.203-3.231
		c-1.339,0-2.707,0.378-3.697,1.048l-0.582-1.717c1.165-0.728,2.883-1.223,4.658-1.223c4.309,0,5.357,2.94,5.357,5.735V349.229z
		 M465.66,345.415c-2.795-0.059-5.969,0.437-5.969,3.173c0,1.688,1.106,2.445,2.388,2.445c1.863,0,3.057-1.165,3.464-2.358
		c0.088-0.292,0.117-0.583,0.117-0.815V345.415z"/>
	<path d="M472.269,342.328c0-1.484-0.028-2.649-0.116-3.813h2.271l0.146,2.329h0.059c0.699-1.311,2.329-2.621,4.658-2.621
		c1.951,0,4.979,1.165,4.979,5.998v8.385h-2.562v-8.123c0-2.271-0.845-4.164-3.261-4.164c-1.66,0-2.97,1.194-3.436,2.62
		c-0.117,0.32-0.175,0.757-0.175,1.194v8.472h-2.563V342.328z"/>
	<path d="M500.567,331.935v17.032c0,1.252,0.059,2.678,0.116,3.639h-2.271l-0.116-2.445h-0.088
		c-0.757,1.572-2.445,2.766-4.745,2.766c-3.406,0-6.056-2.882-6.056-7.162c-0.029-4.688,2.911-7.541,6.317-7.541
		c2.184,0,3.61,1.019,4.251,2.125h0.058v-8.414H500.567z M498.034,344.25c0-0.32-0.028-0.757-0.116-1.077
		c-0.378-1.602-1.775-2.941-3.697-2.941c-2.649,0-4.222,2.329-4.222,5.416c0,2.853,1.427,5.211,4.163,5.211
		c1.718,0,3.29-1.164,3.756-3.057c0.088-0.35,0.116-0.699,0.116-1.106V344.25z"/>
	<path d="M514.105,335.137v3.377h3.669v1.95h-3.669v7.599c0,1.747,0.495,2.737,1.922,2.737c0.699,0,1.106-0.058,1.484-0.174
		l0.117,1.95c-0.495,0.175-1.281,0.35-2.271,0.35c-1.193,0-2.154-0.408-2.766-1.077c-0.698-0.786-0.989-2.038-0.989-3.698v-7.686
		h-2.184v-1.95h2.184v-2.621L514.105,335.137z"/>
	<path d="M532.447,348.733c0,1.485,0.029,2.766,0.117,3.872h-2.271l-0.146-2.3h-0.058c-0.641,1.135-2.155,2.62-4.658,2.62
		c-2.213,0-4.862-1.252-4.862-6.172v-8.239h2.562v7.773c0,2.679,0.845,4.513,3.145,4.513c1.718,0,2.911-1.193,3.377-2.358
		c0.146-0.35,0.233-0.815,0.233-1.311v-8.617h2.562V348.733z"/>
	<path d="M536.698,331.935h2.533v8.851h0.059c0.902-1.572,2.532-2.562,4.804-2.562c3.522,0,5.968,2.912,5.968,7.162
		c0,5.037-3.202,7.541-6.347,7.541c-2.038,0-3.668-0.786-4.745-2.62h-0.059l-0.146,2.3h-2.184c0.059-0.961,0.116-2.387,0.116-3.639
		V331.935z M539.231,346.958c0,0.32,0.029,0.64,0.116,0.932c0.466,1.776,1.98,2.999,3.844,2.999c2.707,0,4.279-2.184,4.279-5.415
		c0-2.824-1.456-5.241-4.222-5.241c-1.718,0-3.348,1.223-3.872,3.145c-0.087,0.32-0.146,0.669-0.146,1.077V346.958z"/>
	<path d="M554.69,346.026c0.059,3.464,2.242,4.891,4.833,4.891c1.834,0,2.97-0.32,3.901-0.728l0.466,1.834
		c-0.902,0.407-2.475,0.902-4.717,0.902c-4.338,0-6.929-2.882-6.929-7.133c0-4.251,2.504-7.57,6.608-7.57
		c4.629,0,5.823,4.018,5.823,6.609c0,0.524-0.029,0.902-0.088,1.194H554.69z M562.202,344.191c0.029-1.601-0.67-4.134-3.552-4.134
		c-2.621,0-3.727,2.358-3.931,4.134H562.202z"/>
	<path d="M583.921,349.229c0,1.223,0.058,2.416,0.203,3.377h-2.3l-0.204-1.776h-0.087c-0.786,1.106-2.3,2.096-4.309,2.096
		c-2.854,0-4.31-2.009-4.31-4.047c0-3.406,3.028-5.27,8.473-5.24v-0.292c0-1.135-0.32-3.261-3.202-3.231
		c-1.34,0-2.708,0.378-3.698,1.048l-0.582-1.717c1.165-0.728,2.882-1.223,4.658-1.223c4.309,0,5.357,2.94,5.357,5.735V349.229z
		 M581.445,345.415c-2.795-0.059-5.968,0.437-5.968,3.173c0,1.688,1.106,2.445,2.388,2.445c1.863,0,3.057-1.165,3.464-2.358
		c0.088-0.292,0.116-0.583,0.116-0.815V345.415z"/>
	<path d="M589.249,338.515l2.009,3.027c0.553,0.786,0.989,1.485,1.455,2.271h0.059c0.466-0.815,0.932-1.543,1.427-2.3l1.95-2.999
		h2.795l-4.804,6.813l4.92,7.278h-2.882l-2.096-3.173c-0.554-0.815-1.02-1.601-1.515-2.446h-0.058
		c-0.466,0.845-0.932,1.602-1.485,2.446l-2.038,3.173h-2.824l5.008-7.191l-4.774-6.9H589.249z"/>
	<path d="M602.524,346.026c0.059,3.464,2.242,4.891,4.833,4.891c1.834,0,2.97-0.32,3.901-0.728l0.466,1.834
		c-0.902,0.407-2.475,0.902-4.717,0.902c-4.338,0-6.929-2.882-6.929-7.133c0-4.251,2.504-7.57,6.608-7.57
		c4.629,0,5.823,4.018,5.823,6.609c0,0.524-0.029,0.902-0.088,1.194H602.524z M610.036,344.191c0.029-1.601-0.67-4.134-3.552-4.134
		c-2.621,0-3.727,2.358-3.931,4.134H610.036z"/>
	<path d="M615.336,350.014c0.785,0.466,2.125,0.99,3.406,0.99c1.834,0,2.707-0.903,2.707-2.096c0-1.223-0.728-1.863-2.591-2.562
		c-2.563-0.932-3.756-2.3-3.756-3.989c0-2.271,1.863-4.134,4.862-4.134c1.427,0,2.678,0.378,3.436,0.874l-0.611,1.863
		c-0.554-0.35-1.572-0.844-2.883-0.844c-1.514,0-2.329,0.874-2.329,1.921c0,1.165,0.815,1.688,2.649,2.417
		c2.416,0.902,3.697,2.125,3.697,4.222c0,2.503-1.95,4.25-5.24,4.25c-1.543,0-2.97-0.408-3.959-0.99L615.336,350.014z"/>
</g>
<g>
	<path d="M311.928,394.008h0.055c0.332-0.469,0.773-1.048,1.159-1.517l3.945-4.607h2.896l-5.132,5.49l5.877,7.862h-2.979l-4.58-6.4
		l-1.241,1.379v5.021h-2.4v-19.587h2.4V394.008z"/>
</g>
</svg>
