<?xml version="1.0" encoding="utf-8"?>
<!-- Generator: Adobe Illustrator 15.0.0, SVG Export Plug-In . SVG Version: 6.00 Build 0)  -->
<!DOCTYPE svg PUBLIC "-//W3C//DTD SVG 1.1//EN" "http://www.w3.org/Graphics/SVG/1.1/DTD/svg11.dtd">
<svg version="1.1" xmlns="http://www.w3.org/2000/svg" xmlns:xlink="http://www.w3.org/1999/xlink" x="0px" y="0px" width="724px"
	 height="317px" viewBox="0 0 724 317" enable-background="new 0 0 724 317" xml:space="preserve">
<g>
	
		<polyline fill-rule="evenodd" clip-rule="evenodd" fill="none" stroke="#000000" stroke-linecap="round" stroke-linejoin="round" stroke-miterlimit="10" points="
		717.829,47.733 2.342,47.733 25.792,63.666 42.026,72.885 52.847,77.595 62.667,80.301 70.685,81.202 75.294,81.102 84.112,79.6 
		92.229,76.693 99.745,72.484 106.76,67.173 113.473,61.16 126.1,47.733 138.525,33.905 148.145,24.485 154.959,18.973 
		162.074,14.564 169.791,11.257 173.798,10.155 178.007,9.454 182.417,9.153 188.83,9.855 195.544,12.159 202.658,15.766 
		213.682,23.282 232.921,39.216 257.073,59.959 269.197,69.178 281.222,76.693 289.138,80.401 293.046,81.803 296.954,82.806 
		300.763,83.407 304.57,83.608 308.278,83.307 312.085,82.605 319.501,79.9 326.916,75.991 337.839,67.875 348.862,58.054 
		381.23,26.087 391.952,17.169 399.066,12.459 406.182,8.953 409.689,7.649 413.196,6.848 416.803,6.447 420.312,6.447 
		423.818,6.848 430.933,8.853 437.947,12.059 445.063,16.267 455.685,24.285 470.115,36.91 491.959,57.052 503.183,66.371 
		510.699,71.883 518.314,76.593 526.031,80.301 533.947,82.806 537.855,83.608 541.762,83.908 545.672,83.808 549.58,83.106 
		557.396,80.502 565.012,76.492 576.435,68.075 583.951,61.361 617.821,27.792 629.145,18.071 636.76,12.86 644.477,8.752 
		652.192,6.246 656.1,5.646 660.009,5.546 667.725,6.647 671.632,7.75 679.249,11.056 686.764,15.467 694.18,20.977 704.702,30.798 
		711.415,38.113 717.829,45.928 	"/>
</g>
<g>
	
		<line fill-rule="evenodd" clip-rule="evenodd" fill="none" stroke="#000000" stroke-linecap="round" stroke-linejoin="round" stroke-miterlimit="10" x1="4.146" y1="283.824" x2="717.829" y2="283.824"/>
</g>
<g>
	
		<line fill-rule="evenodd" clip-rule="evenodd" fill="none" stroke="#000000" stroke-linecap="round" stroke-linejoin="round" stroke-miterlimit="10" x1="62.968" y1="45.928" x2="62.968" y2="282.921"/>
</g>
<g>
	
		<line fill-rule="evenodd" clip-rule="evenodd" fill="none" stroke="#000000" stroke-linecap="round" stroke-linejoin="round" stroke-miterlimit="10" x1="183.318" y1="46.831" x2="183.318" y2="281.919"/>
</g>
<g>
	
		<line fill-rule="evenodd" clip-rule="evenodd" fill="none" stroke="#000000" stroke-linecap="round" stroke-linejoin="round" stroke-miterlimit="10" x1="301.765" y1="83.608" x2="301.765" y2="281.017"/>
</g>
<g>
	
		<line fill-rule="evenodd" clip-rule="evenodd" fill="none" stroke="#000000" stroke-linecap="round" stroke-linejoin="round" stroke-miterlimit="10" x1="420.312" y1="6.447" x2="420.312" y2="283.824"/>
</g>
<g>
	
		<line fill-rule="evenodd" clip-rule="evenodd" fill="none" stroke="#000000" stroke-linecap="round" stroke-linejoin="round" stroke-miterlimit="10" x1="537.855" y1="83.608" x2="537.855" y2="311.38"/>
</g>
<g>
	
		<line fill-rule="evenodd" clip-rule="evenodd" fill="none" stroke="#000000" stroke-linecap="round" stroke-linejoin="round" stroke-miterlimit="10" x1="660.009" y1="5.546" x2="660.009" y2="241.535"/>
</g>
<g>
	
		<polyline fill-rule="evenodd" clip-rule="evenodd" fill="none" stroke="#000000" stroke-width="0.5" stroke-linecap="round" stroke-linejoin="round" stroke-miterlimit="10" points="
		101.148,47.532 95.737,54.247 88.421,65.671 82.508,77.495 77.199,90.723 71.787,108.96 68.179,125.193 65.073,144.534 
		62.667,167.381 62.467,170.188 	"/>
</g>
<g>
	
		<polyline fill-rule="evenodd" clip-rule="evenodd" fill="none" stroke="#000000" stroke-width="0.5" stroke-linecap="round" stroke-linejoin="round" stroke-miterlimit="10" points="
		182.417,167.482 178.508,140.726 174.4,119.884 169.29,99.842 164.58,85.312 158.667,70.88 151.553,57.854 146.142,50.138 
		144.638,48.334 	"/>
</g>
<g>
	
		<line fill-rule="evenodd" clip-rule="evenodd" fill="none" stroke="#000000" stroke-width="0.5" stroke-linecap="round" stroke-linejoin="round" stroke-miterlimit="10" x1="91.829" y1="58.455" x2="63.57" y2="58.455"/>
</g>
<g>
	<polyline stroke="#000000" stroke-width="0.5" stroke-linecap="round" stroke-linejoin="round" stroke-miterlimit="10" points="
		71.587,61.16 63.57,58.455 71.587,55.851 71.587,61.16 	"/>
</g>
<g>
	
		<line fill="none" stroke="#000000" stroke-width="0.5" stroke-linecap="round" stroke-linejoin="round" stroke-miterlimit="10" x1="87.019" y1="67.073" x2="63.269" y2="67.073"/>
</g>
<g>
	<polyline stroke="#000000" stroke-width="0.5" stroke-linecap="round" stroke-linejoin="round" stroke-miterlimit="10" points="
		71.386,69.679 63.269,67.073 71.386,64.368 71.386,69.679 	"/>
</g>
<g>
	
		<line fill="none" stroke="#000000" stroke-width="0.5" stroke-linecap="round" stroke-linejoin="round" stroke-miterlimit="10" x1="81.407" y1="78.497" x2="64.371" y2="78.497"/>
</g>
<g>
	<polyline stroke="#000000" stroke-width="0.5" stroke-linecap="round" stroke-linejoin="round" stroke-miterlimit="10" points="
		72.389,81.202 64.371,78.497 72.389,75.791 72.389,81.202 	"/>
</g>
<g>
	
		<line fill="none" stroke="#000000" stroke-width="0.5" stroke-linecap="round" stroke-linejoin="round" stroke-miterlimit="10" x1="97.74" y1="49.938" x2="64.071" y2="49.938"/>
</g>
<g>
	<polyline stroke="#000000" stroke-width="0.5" stroke-linecap="round" stroke-linejoin="round" stroke-miterlimit="10" points="
		72.187,52.643 64.071,49.938 72.187,47.332 72.187,52.643 	"/>
</g>
<g>
	
		<line fill="none" stroke="#000000" stroke-width="0.5" stroke-linecap="round" stroke-linejoin="round" stroke-miterlimit="10" x1="147.543" y1="50.239" x2="182.717" y2="50.239"/>
</g>
<g>
	<polyline stroke="#000000" stroke-width="0.5" stroke-linecap="round" stroke-linejoin="round" stroke-miterlimit="10" points="
		174.701,47.532 182.717,50.239 174.701,52.944 174.701,47.532 	"/>
</g>
<g>
	
		<line fill="none" stroke="#000000" stroke-width="0.5" stroke-linecap="round" stroke-linejoin="round" stroke-miterlimit="10" x1="152.054" y1="57.954" x2="182.516" y2="57.954"/>
</g>
<g>
	<polyline stroke="#000000" stroke-width="0.5" stroke-linecap="round" stroke-linejoin="round" stroke-miterlimit="10" points="
		174.5,55.25 182.516,57.954 174.5,60.661 174.5,55.25 	"/>
</g>
<g>
	
		<line fill="none" stroke="#000000" stroke-width="0.5" stroke-linecap="round" stroke-linejoin="round" stroke-miterlimit="10" x1="157.965" y1="67.073" x2="182.015" y2="67.073"/>
</g>
<g>
	<polyline stroke="#000000" stroke-width="0.5" stroke-linecap="round" stroke-linejoin="round" stroke-miterlimit="10" points="
		173.899,64.368 182.015,67.073 173.899,69.679 173.899,64.368 	"/>
</g>
<g>
	
		<line fill="none" stroke="#000000" stroke-width="0.5" stroke-linecap="round" stroke-linejoin="round" stroke-miterlimit="10" x1="162.174" y1="77.395" x2="182.215" y2="77.395"/>
</g>
<g>
	<polyline stroke="#000000" stroke-width="0.5" stroke-linecap="round" stroke-linejoin="round" stroke-miterlimit="10" points="
		174.099,74.689 182.215,77.395 174.099,80.101 174.099,74.689 	"/>
</g>
<g>
	
		<line fill="none" stroke="#000000" stroke-width="0.5" stroke-linecap="round" stroke-linejoin="round" stroke-miterlimit="10" x1="340.546" y1="85.111" x2="301.864" y2="85.111"/>
</g>
<g>
	<polyline stroke="#000000" stroke-width="0.5" stroke-linecap="round" stroke-linejoin="round" stroke-miterlimit="10" points="
		309.881,87.816 301.864,85.111 309.881,82.505 309.881,87.816 	"/>
</g>
<g>
	
		<line fill="none" stroke="#000000" stroke-width="0.5" stroke-linecap="round" stroke-linejoin="round" stroke-miterlimit="10" x1="331.025" y1="93.929" x2="301.765" y2="93.929"/>
</g>
<g>
	<polyline stroke="#000000" stroke-width="0.5" stroke-linecap="round" stroke-linejoin="round" stroke-miterlimit="10" points="
		309.781,96.634 301.765,93.929 309.781,91.223 309.781,96.634 	"/>
</g>
<g>
	
		<line fill="none" stroke="#000000" stroke-width="0.5" stroke-linecap="round" stroke-linejoin="round" stroke-miterlimit="10" x1="323.309" y1="102.447" x2="302.265" y2="102.447"/>
</g>
<g>
	<polyline stroke="#000000" stroke-width="0.5" stroke-linecap="round" stroke-linejoin="round" stroke-miterlimit="10" points="
		310.383,105.153 302.265,102.447 310.383,99.842 310.383,105.153 	"/>
</g>
<g>
	
		<line fill="none" stroke="#000000" stroke-width="0.5" stroke-linecap="round" stroke-linejoin="round" stroke-miterlimit="10" x1="316.496" y1="112.367" x2="303.468" y2="112.367"/>
</g>
<g>
	<polyline stroke="#000000" stroke-width="0.5" stroke-linecap="round" stroke-linejoin="round" stroke-miterlimit="10" points="
		311.485,114.973 303.468,112.367 311.485,109.662 311.485,114.973 	"/>
</g>
<g>
	
		<polyline fill="none" stroke="#000000" stroke-width="0.5" stroke-linecap="round" stroke-linejoin="round" stroke-miterlimit="10" points="
		419.71,138.221 419.008,117.077 417.404,99.24 414.799,82.605 411.291,67.073 408.085,56.25 404.077,45.429 398.866,34.205 
		392.151,22.881 385.238,13.762 378.123,5.945 420.712,5.945 	"/>
</g>
<g>
	<polyline stroke="#000000" stroke-width="0.5" stroke-linecap="round" stroke-linejoin="round" stroke-miterlimit="10" points="
		412.695,3.341 420.712,5.945 412.695,8.652 412.695,3.341 	"/>
</g>
<g>
	
		<line fill="none" stroke="#000000" stroke-width="0.5" stroke-linecap="round" stroke-linejoin="round" stroke-miterlimit="10" x1="387.943" y1="16.969" x2="420.21" y2="16.969"/>
</g>
<g>
	<polyline stroke="#000000" stroke-width="0.5" stroke-linecap="round" stroke-linejoin="round" stroke-miterlimit="10" points="
		412.193,14.264 420.21,16.969 412.193,19.575 412.193,14.264 	"/>
</g>
<g>
	
		<line fill="none" stroke="#000000" stroke-width="0.5" stroke-linecap="round" stroke-linejoin="round" stroke-miterlimit="10" x1="395.159" y1="26.489" x2="420.21" y2="26.489"/>
</g>
<g>
	<polyline stroke="#000000" stroke-width="0.5" stroke-linecap="round" stroke-linejoin="round" stroke-miterlimit="10" points="
		412.193,23.884 420.21,26.489 412.193,29.195 412.193,23.884 	"/>
</g>
<g>
	
		<line fill="none" stroke="#000000" stroke-width="0.5" stroke-linecap="round" stroke-linejoin="round" stroke-miterlimit="10" x1="401.972" y1="37.211" x2="420.312" y2="37.211"/>
</g>
<g>
	<polyline stroke="#000000" stroke-width="0.5" stroke-linecap="round" stroke-linejoin="round" stroke-miterlimit="10" points="
		412.293,34.506 420.312,37.211 412.293,39.817 412.293,34.506 	"/>
</g>
<g>
	
		<line fill="none" stroke="#000000" stroke-width="0.5" stroke-linecap="round" stroke-linejoin="round" stroke-miterlimit="10" x1="579.342" y1="84.109" x2="539.358" y2="84.109"/>
</g>
<g>
	<polyline stroke="#000000" stroke-width="0.5" stroke-linecap="round" stroke-linejoin="round" stroke-miterlimit="10" points="
		547.375,86.714 539.358,84.109 547.375,81.402 547.375,86.714 	"/>
</g>
<g>
	
		<line fill="none" stroke="#000000" stroke-width="0.5" stroke-linecap="round" stroke-linejoin="round" stroke-miterlimit="10" x1="572.928" y1="93.127" x2="538.757" y2="93.127"/>
</g>
<g>
	<polyline stroke="#000000" stroke-width="0.5" stroke-linecap="round" stroke-linejoin="round" stroke-miterlimit="10" points="
		546.873,95.832 538.757,93.127 546.873,90.421 546.873,95.832 	"/>
</g>
<g>
	
		<line fill="none" stroke="#000000" stroke-width="0.5" stroke-linecap="round" stroke-linejoin="round" stroke-miterlimit="10" x1="567.817" y1="103.549" x2="538.957" y2="103.549"/>
</g>
<g>
	<polyline stroke="#000000" stroke-width="0.5" stroke-linecap="round" stroke-linejoin="round" stroke-miterlimit="10" points="
		546.974,106.254 538.957,103.549 546.974,100.843 546.974,106.254 	"/>
</g>
<g>
	
		<line fill="none" stroke="#000000" stroke-width="0.5" stroke-linecap="round" stroke-linejoin="round" stroke-miterlimit="10" x1="561.503" y1="113.67" x2="540.06" y2="113.67"/>
</g>
<g>
	<polyline stroke="#000000" stroke-width="0.5" stroke-linecap="round" stroke-linejoin="round" stroke-miterlimit="10" points="
		548.076,116.375 540.06,113.67 548.076,110.965 548.076,116.375 	"/>
</g>
<g>
	
		<line fill="none" stroke="#000000" stroke-width="0.5" stroke-linecap="round" stroke-linejoin="round" stroke-miterlimit="10" x1="636.459" y1="35.709" x2="658.506" y2="35.709"/>
</g>
<g>
	<polyline stroke="#000000" stroke-width="0.5" stroke-linecap="round" stroke-linejoin="round" stroke-miterlimit="10" points="
		650.489,33.103 658.506,35.709 650.489,38.414 650.489,33.103 	"/>
</g>
<g>
	
		<line fill="none" stroke="#000000" stroke-width="0.5" stroke-linecap="round" stroke-linejoin="round" stroke-miterlimit="10" x1="631.85" y1="25.989" x2="658.706" y2="25.989"/>
</g>
<g>
	<polyline stroke="#000000" stroke-width="0.5" stroke-linecap="round" stroke-linejoin="round" stroke-miterlimit="10" points="
		650.69,23.282 658.706,25.989 650.69,28.694 650.69,23.282 	"/>
</g>
<g>
	
		<line fill="none" stroke="#000000" stroke-width="0.5" stroke-linecap="round" stroke-linejoin="round" stroke-miterlimit="10" x1="624.034" y1="15.065" x2="659.006" y2="15.065"/>
</g>
<g>
	<polyline stroke="#000000" stroke-width="0.5" stroke-linecap="round" stroke-linejoin="round" stroke-miterlimit="10" points="
		650.989,12.359 659.006,15.065 650.989,17.771 650.989,12.359 	"/>
</g>
<g>
	
		<line fill="none" stroke="#000000" stroke-width="0.5" stroke-linecap="round" stroke-linejoin="round" stroke-miterlimit="10" x1="616.919" y1="7.85" x2="659.006" y2="7.85"/>
</g>
<g>
	
		<polyline fill="none" stroke="#000000" stroke-width="0.5" stroke-linecap="round" stroke-linejoin="round" stroke-miterlimit="10" points="
		659.809,132.609 656.602,109.061 652.794,89.019 648.184,70.78 643.174,54.748 637.662,41.018 630.947,27.591 623.433,15.966 
		616.919,7.85 	"/>
</g>
<g>
	
		<polyline fill="none" stroke="#000000" stroke-width="0.5" stroke-linecap="round" stroke-linejoin="round" stroke-miterlimit="10" points="
		537.955,193.636 542.163,173.094 547.375,152.751 553.788,133.311 559.3,119.783 565.513,107.156 572.226,96.033 580.743,84.911 
		581.746,83.808 	"/>
</g>
<g>
	
		<polyline fill="none" stroke="#000000" stroke-width="0.5" stroke-linecap="round" stroke-linejoin="round" stroke-miterlimit="10" points="
		302.466,172.292 302.466,160.267 303.368,149.946 305.373,139.123 308.479,128.902 313.288,117.979 318.699,109.161 
		325.815,100.343 333.43,92.827 343.451,85.111 	"/>
</g>
<g>
	
		<line fill="none" stroke="#000000" stroke-width="0.5" stroke-linecap="round" stroke-linejoin="round" stroke-miterlimit="10" x1="75.896" y1="91.924" x2="62.868" y2="91.924"/>
</g>
<g>
	
		<line fill="none" stroke="#000000" stroke-width="0.5" stroke-linecap="round" stroke-linejoin="round" stroke-miterlimit="10" x1="63.669" y1="106.054" x2="72.087" y2="106.054"/>
</g>
<g>
	
		<line fill="none" stroke="#000000" stroke-width="0.5" stroke-linecap="round" stroke-linejoin="round" stroke-miterlimit="10" x1="63.669" y1="119.482" x2="68.58" y2="119.482"/>
</g>
<g>
	
		<line fill="none" stroke="#000000" stroke-width="0.5" stroke-linecap="round" stroke-linejoin="round" stroke-miterlimit="10" x1="167.286" y1="90.421" x2="182.616" y2="90.421"/>
</g>
<g>
	
		<line fill="none" stroke="#000000" stroke-width="0.5" stroke-linecap="round" stroke-linejoin="round" stroke-miterlimit="10" x1="170.692" y1="103.449" x2="182.917" y2="103.449"/>
</g>
<g>
	
		<line fill="none" stroke="#000000" stroke-width="0.5" stroke-linecap="round" stroke-linejoin="round" stroke-miterlimit="10" x1="174.5" y1="118.28" x2="182.215" y2="118.28"/>
</g>
<g>
	
		<line fill="none" stroke="#000000" stroke-width="0.5" stroke-linecap="round" stroke-linejoin="round" stroke-miterlimit="10" x1="178.007" y1="131.707" x2="182.616" y2="131.707"/>
</g>
<g>
	
		<line fill="none" stroke="#000000" stroke-width="0.5" stroke-linecap="round" stroke-linejoin="round" stroke-miterlimit="10" x1="303.368" y1="121.987" x2="311.485" y2="121.987"/>
</g>
<g>
	
		<line fill="none" stroke="#000000" stroke-width="0.5" stroke-linecap="round" stroke-linejoin="round" stroke-miterlimit="10" x1="303.067" y1="132.208" x2="306.774" y2="132.208"/>
</g>
<g>
	
		<line fill="none" stroke="#000000" stroke-width="0.5" stroke-linecap="round" stroke-linejoin="round" stroke-miterlimit="10" x1="408.987" y1="59.057" x2="420.011" y2="59.057"/>
</g>
<g>
	
		<line fill="none" stroke="#000000" stroke-width="0.5" stroke-linecap="round" stroke-linejoin="round" stroke-miterlimit="10" x1="411.993" y1="71.482" x2="419.71" y2="71.482"/>
</g>
<g>
	
		<line fill="none" stroke="#000000" stroke-width="0.5" stroke-linecap="round" stroke-linejoin="round" stroke-miterlimit="10" x1="415.201" y1="82.104" x2="420.21" y2="82.104"/>
</g>
<g>
	
		<line fill="none" stroke="#000000" stroke-width="0.5" stroke-linecap="round" stroke-linejoin="round" stroke-miterlimit="10" x1="539.258" y1="125.293" x2="555.592" y2="125.293"/>
</g>
<g>
	
		<line fill="none" stroke="#000000" stroke-width="0.5" stroke-linecap="round" stroke-linejoin="round" stroke-miterlimit="10" x1="538.556" y1="137.319" x2="551.482" y2="137.319"/>
</g>
<g>
	
		<line fill="none" stroke="#000000" stroke-width="0.5" stroke-linecap="round" stroke-linejoin="round" stroke-miterlimit="10" x1="539.058" y1="155.857" x2="546.472" y2="155.857"/>
</g>
<g>
	
		<line fill="none" stroke="#000000" stroke-width="0.5" stroke-linecap="round" stroke-linejoin="round" stroke-miterlimit="10" x1="538.757" y1="171.991" x2="543.366" y2="171.991"/>
</g>
<g>
	
		<line fill="none" stroke="#000000" stroke-width="0.5" stroke-linecap="round" stroke-linejoin="round" stroke-miterlimit="10" x1="645.779" y1="59.157" x2="658.506" y2="59.157"/>
</g>
<g>
	
		<line fill="none" stroke="#000000" stroke-width="0.5" stroke-linecap="round" stroke-linejoin="round" stroke-miterlimit="10" x1="648.986" y1="69.779" x2="658.506" y2="69.779"/>
</g>
<g>
	
		<line fill="none" stroke="#000000" stroke-width="0.5" stroke-linecap="round" stroke-linejoin="round" stroke-miterlimit="10" x1="652.593" y1="82.505" x2="659.207" y2="82.505"/>
</g>
<g>
	
		<line fill="none" stroke="#000000" stroke-width="0.5" stroke-linecap="round" stroke-linejoin="round" stroke-miterlimit="10" x1="654.898" y1="96.634" x2="658.706" y2="96.634"/>
</g>
<g>
	<path d="M8,299.151v13.03H6.298v-13.03H8z"/>
	<path d="M10.727,310.132c0.754,0.483,1.837,0.851,2.997,0.851c1.721,0,2.726-0.909,2.726-2.223c0-1.199-0.696-1.914-2.455-2.571
		c-2.127-0.773-3.441-1.895-3.441-3.712c0-2.03,1.682-3.538,4.214-3.538c1.315,0,2.301,0.31,2.861,0.638l-0.464,1.373
		c-0.406-0.251-1.276-0.619-2.455-0.619c-1.779,0-2.455,1.063-2.455,1.953c0,1.218,0.793,1.817,2.591,2.513
		c2.204,0.851,3.306,1.914,3.306,3.828c0,2.01-1.469,3.77-4.543,3.77c-1.257,0-2.629-0.387-3.325-0.851L10.727,310.132z"/>
	<path d="M22.155,299.151v7.733c0,2.9,1.295,4.137,3.035,4.137c1.914,0,3.171-1.276,3.171-4.137v-7.733h1.701v7.617
		c0,4.002-2.107,5.626-4.93,5.626c-2.668,0-4.678-1.508-4.678-5.568v-7.675H22.155z"/>
	<path d="M32.985,299.325c0.851-0.155,2.088-0.271,3.229-0.271c1.798,0,2.977,0.348,3.77,1.063c0.638,0.58,1.025,1.469,1.025,2.494
		c0,1.701-1.083,2.842-2.436,3.306v0.058c0.986,0.348,1.585,1.276,1.895,2.629c0.425,1.817,0.735,3.074,1.005,3.577h-1.74
		c-0.213-0.387-0.503-1.489-0.851-3.113c-0.386-1.798-1.102-2.475-2.629-2.532h-1.585v5.645h-1.682V299.325z M34.667,305.26h1.72
		c1.798,0,2.939-0.986,2.939-2.475c0-1.682-1.218-2.417-2.997-2.417c-0.812,0-1.373,0.058-1.663,0.135V305.26z"/>
	<path d="M43.37,299.151h7.018v1.411h-5.316v4.331h4.91v1.392h-4.91v5.896H43.37V299.151z"/>
</g>
<g>
	<path d="M124.549,301.201h-0.039l-2.185,1.179l-0.329-1.295l2.745-1.469h1.45v12.566h-1.644V301.201z"/>
</g>
<g>
	<path d="M352.839,312.182v-1.044l1.334-1.295c3.209-3.055,4.678-4.679,4.678-6.573c0-1.276-0.599-2.455-2.475-2.455
		c-1.141,0-2.088,0.58-2.668,1.063l-0.541-1.199c0.851-0.715,2.107-1.276,3.538-1.276c2.707,0,3.848,1.856,3.848,3.654
		c0,2.32-1.682,4.195-4.331,6.747l-0.986,0.928v0.039h5.626v1.411H352.839z"/>
</g>
<g>
	<path d="M603.164,310.249c0.483,0.29,1.585,0.773,2.784,0.773c2.165,0,2.861-1.373,2.842-2.436
		c-0.02-1.759-1.604-2.514-3.248-2.514h-0.947v-1.276h0.947c1.237,0,2.803-0.638,2.803-2.126c0-1.005-0.638-1.895-2.204-1.895
		c-1.005,0-1.972,0.444-2.514,0.831l-0.464-1.237c0.677-0.483,1.953-0.966,3.306-0.966c2.475,0,3.596,1.469,3.596,2.997
		c0,1.314-0.792,2.417-2.32,2.977v0.039c1.546,0.29,2.784,1.45,2.803,3.209c0,2.01-1.585,3.77-4.582,3.77
		c-1.411,0-2.648-0.445-3.267-0.851L603.164,310.249z"/>
</g>
</svg>
