<?xml version="1.0" encoding="utf-8"?>
<!-- Generator: Adobe Illustrator 15.0.0, SVG Export Plug-In . SVG Version: 6.00 Build 0)  -->
<!DOCTYPE svg PUBLIC "-//W3C//DTD SVG 1.1//EN" "http://www.w3.org/Graphics/SVG/1.1/DTD/svg11.dtd">
<svg version="1.1" xmlns="http://www.w3.org/2000/svg" xmlns:xlink="http://www.w3.org/1999/xlink" x="0px" y="0px" width="739px"
	 height="369px" viewBox="0 0 739 369" enable-background="new 0 0 739 369" xml:space="preserve">
<path fill-rule="evenodd" clip-rule="evenodd" fill="none" stroke="#000000" stroke-width="0.75" stroke-linecap="round" stroke-linejoin="round" stroke-miterlimit="10" d="
	M166.304,175.984c24.1,43.52,68.631,46.561,97.254,19.966c26.439-25.191,46.405-73.623,67.463-159.335"/>
<g>
	
		<polyline fill-rule="evenodd" clip-rule="evenodd" fill="none" stroke="#000000" stroke-width="0.75" stroke-linecap="round" stroke-linejoin="round" stroke-miterlimit="10" points="
		168.252,106.961 167.786,178.635 111.476,282.597 	"/>
</g>
<g>
	
		<path fill-rule="evenodd" clip-rule="evenodd" fill="#FFFFFF" stroke="#000000" stroke-width="0.75" stroke-linecap="round" stroke-linejoin="round" stroke-miterlimit="10" d="
		M179.328,188.54c-0.002-3.122-3.378-5.07-6.083-3.511c-2.705,1.568-2.701,5.467,0.004,7.026c2.708,1.556,6.077-0.392,6.079-3.514"
		/>
</g>
<g>
	
		<path fill-rule="evenodd" clip-rule="evenodd" fill="#FFFFFF" stroke="#000000" stroke-width="0.75" stroke-linecap="round" stroke-linejoin="round" stroke-miterlimit="10" d="
		M190.559,199.693c-0.004-3.122-3.38-5.071-6.083-3.511c-2.705,1.569-2.701,5.467,0.003,7.027
		C187.187,204.764,190.555,202.815,190.559,199.693"/>
</g>
<g>
	
		<path fill-rule="evenodd" clip-rule="evenodd" stroke="#000000" stroke-width="0.75" stroke-linecap="round" stroke-linejoin="round" stroke-miterlimit="10" d="
		M205.533,208.194c-0.003-3.122-3.38-5.07-6.084-3.511c-2.705,1.568-2.7,5.467,0.005,7.025
		C202.161,213.265,205.531,211.317,205.533,208.194"/>
</g>
<g>
	
		<path fill-rule="evenodd" clip-rule="evenodd" fill="#FFFFFF" stroke="#000000" stroke-width="0.75" stroke-linecap="round" stroke-linejoin="round" stroke-miterlimit="10" d="
		M222.067,212.015c-0.003-3.122-3.379-5.068-6.083-3.51c-2.705,1.568-2.7,5.467,0.003,7.026c2.708,1.556,6.077-0.393,6.08-3.514"/>
</g>
<g>
	
		<path fill-rule="evenodd" clip-rule="evenodd" fill="#FFFFFF" stroke="#000000" stroke-width="0.75" stroke-linecap="round" stroke-linejoin="round" stroke-miterlimit="10" d="
		M237.744,211.625c-0.003-3.123-3.379-5.07-6.083-3.511c-2.705,1.568-2.7,5.466,0.005,7.027
		C234.371,216.696,237.741,214.748,237.744,211.625"/>
</g>
<g>
	
		<path fill-rule="evenodd" clip-rule="evenodd" stroke="#000000" stroke-width="0.75" stroke-linecap="round" stroke-linejoin="round" stroke-miterlimit="10" d="
		M251.86,206.088c-0.004-3.122-3.38-5.07-6.084-3.512c-2.705,1.569-2.699,5.467,0.004,7.027
		C248.487,211.16,251.857,209.21,251.86,206.088"/>
</g>
<g>
	
		<path fill-rule="evenodd" clip-rule="evenodd" fill="#FFFFFF" stroke="#000000" stroke-width="0.75" stroke-linecap="round" stroke-linejoin="round" stroke-miterlimit="10" d="
		M265.585,197.119c-0.002-3.122-3.378-5.071-6.083-3.512c-2.704,1.57-2.699,5.468,0.005,7.026
		C262.214,202.189,265.583,200.242,265.585,197.119"/>
</g>
<g>
	
		<path fill-rule="evenodd" clip-rule="evenodd" fill="#FFFFFF" stroke="#000000" stroke-width="0.75" stroke-linecap="round" stroke-linejoin="round" stroke-miterlimit="10" d="
		M276.427,185.342c-0.003-3.122-3.379-5.071-6.084-3.512c-2.704,1.57-2.699,5.468,0.005,7.027c2.707,1.556,6.076-0.392,6.079-3.514"
		/>
</g>
<g>
	
		<path fill-rule="evenodd" clip-rule="evenodd" stroke="#000000" stroke-width="0.75" stroke-linecap="round" stroke-linejoin="round" stroke-miterlimit="10" d="
		M285.864,172.318c-0.004-3.123-3.38-5.07-6.085-3.511c-2.704,1.569-2.699,5.467,0.006,7.026
		C282.492,177.389,285.862,175.44,285.864,172.318"/>
</g>
<g>
	
		<path fill-rule="evenodd" clip-rule="evenodd" fill="#FFFFFF" stroke="#000000" stroke-width="0.75" stroke-linecap="round" stroke-linejoin="round" stroke-miterlimit="10" d="
		M294.053,158.279c-0.003-3.122-3.379-5.071-6.084-3.512c-2.704,1.569-2.698,5.467,0.005,7.027c2.708,1.555,6.076-0.393,6.079-3.514
		"/>
</g>
<g>
	
		<path fill-rule="evenodd" clip-rule="evenodd" fill="#FFFFFF" stroke="#000000" stroke-width="0.75" stroke-linecap="round" stroke-linejoin="round" stroke-miterlimit="10" d="
		M301.462,143.539c-0.003-3.121-3.379-5.07-6.084-3.512c-2.704,1.569-2.698,5.467,0.006,7.028
		C298.09,148.61,301.459,146.661,301.462,143.539"/>
</g>
<g>
	
		<path fill-rule="evenodd" clip-rule="evenodd" stroke="#000000" stroke-width="0.75" stroke-linecap="round" stroke-linejoin="round" stroke-miterlimit="10" d="
		M307,128.409c-0.002-3.123-3.38-5.071-6.083-3.512c-2.705,1.57-2.7,5.467,0.004,7.028C303.627,133.48,306.998,131.531,307,128.409"
		/>
</g>
<g>
	
		<path fill-rule="evenodd" clip-rule="evenodd" fill="#FFFFFF" stroke="#000000" stroke-width="0.75" stroke-linecap="round" stroke-linejoin="round" stroke-miterlimit="10" d="
		M312.537,113.278c-0.002-3.122-3.377-5.07-6.085-3.511c-2.704,1.569-2.698,5.467,0.006,7.027c2.708,1.554,6.077-0.394,6.079-3.515"
		/>
</g>
<g>
	
		<path fill-rule="evenodd" clip-rule="evenodd" fill="#FFFFFF" stroke="#000000" stroke-width="0.75" stroke-linecap="round" stroke-linejoin="round" stroke-miterlimit="10" d="
		M318.075,97.758c-0.004-3.122-3.38-5.07-6.084-3.511c-2.704,1.569-2.701,5.467,0.004,7.026
		C314.702,102.829,318.073,100.88,318.075,97.758"/>
</g>
<g>
	
		<path fill-rule="evenodd" clip-rule="evenodd" stroke="#000000" stroke-width="0.75" stroke-linecap="round" stroke-linejoin="round" stroke-miterlimit="10" d="
		M322.521,81.926c-0.004-3.122-3.38-5.07-6.084-3.511c-2.705,1.569-2.7,5.467,0.004,7.027
		C319.148,86.997,322.516,85.048,322.521,81.926"/>
</g>
<g>
	
		<path fill-rule="evenodd" clip-rule="evenodd" stroke="#000000" stroke-width="0.75" stroke-linecap="round" stroke-linejoin="round" stroke-miterlimit="10" d="
		M326.887,66.405c-0.003-3.122-3.378-5.07-6.083-3.51c-2.705,1.569-2.7,5.466,0.004,7.027c2.707,1.554,6.076-0.394,6.079-3.515"/>
</g>
<g>
	
		<path fill-rule="evenodd" clip-rule="evenodd" fill="#FFFFFF" stroke="#000000" stroke-width="0.75" stroke-linecap="round" stroke-linejoin="round" stroke-miterlimit="10" d="
		M331.332,50.574c-0.001-3.123-3.377-5.071-6.083-3.511c-2.704,1.569-2.698,5.466,0.005,7.025
		C327.96,55.645,331.33,53.695,331.332,50.574"/>
</g>
<g>
	
		<path fill-rule="evenodd" clip-rule="evenodd" fill="#FFFFFF" stroke="#000000" stroke-width="0.75" stroke-linecap="round" stroke-linejoin="round" stroke-miterlimit="10" d="
		M334.998,35.053c-0.002-3.123-3.379-5.07-6.083-3.511c-2.704,1.569-2.7,5.467,0.005,7.027
		C331.625,40.125,334.996,38.175,334.998,35.053"/>
</g>
<g>
	
		<path fill-rule="evenodd" clip-rule="evenodd" fill="#FFFFFF" stroke="#000000" stroke-width="0.75" stroke-linecap="round" stroke-linejoin="round" stroke-miterlimit="10" d="
		M126.294,262.397c-0.004-3.121-3.378-5.069-6.085-3.51c-2.702,1.568-2.698,5.467,0.006,7.025c2.707,1.556,6.077-0.393,6.079-3.514"
		/>
</g>
<g>
	
		<path fill-rule="evenodd" clip-rule="evenodd" fill="#FFFFFF" stroke="#000000" stroke-width="0.75" stroke-linecap="round" stroke-linejoin="round" stroke-miterlimit="10" d="
		M134.015,248.047c-0.004-3.121-3.379-5.071-6.084-3.512c-2.704,1.569-2.699,5.467,0.005,7.027
		C130.643,253.118,134.012,251.169,134.015,248.047"/>
</g>
<g>
	
		<path fill-rule="evenodd" clip-rule="evenodd" fill="#FFFFFF" stroke="#000000" stroke-width="0.75" stroke-linecap="round" stroke-linejoin="round" stroke-miterlimit="10" d="
		M141.892,233.774c-0.002-3.121-3.378-5.069-6.083-3.51c-2.704,1.569-2.699,5.466,0.005,7.026c2.707,1.555,6.076-0.394,6.078-3.515"
		/>
</g>
<g>
	
		<path fill-rule="evenodd" clip-rule="evenodd" stroke="#000000" stroke-width="0.75" stroke-linecap="round" stroke-linejoin="round" stroke-miterlimit="10" d="
		M149.769,219.424c-0.004-3.121-3.38-5.07-6.084-3.51c-2.705,1.568-2.699,5.466,0.005,7.027c2.707,1.554,6.076-0.393,6.079-3.515"/>
</g>
<g>
	
		<path fill-rule="evenodd" clip-rule="evenodd" fill="#FFFFFF" stroke="#000000" stroke-width="0.75" stroke-linecap="round" stroke-linejoin="round" stroke-miterlimit="10" d="
		M157.333,205.464c-0.003-3.121-3.379-5.071-6.083-3.512c-2.705,1.569-2.699,5.467,0.005,7.027
		C153.963,210.535,157.332,208.586,157.333,205.464"/>
</g>
<g>
	
		<path fill-rule="evenodd" clip-rule="evenodd" fill="#FFFFFF" stroke="#000000" stroke-width="0.75" stroke-linecap="round" stroke-linejoin="round" stroke-miterlimit="10" d="
		M165.211,190.646c-0.002-3.124-3.379-5.071-6.084-3.512c-2.704,1.569-2.698,5.466,0.006,7.027
		C161.839,195.716,165.209,193.767,165.211,190.646"/>
</g>
<g>
	
		<path fill-rule="evenodd" clip-rule="evenodd" stroke="#000000" stroke-width="0.75" stroke-linecap="round" stroke-linejoin="round" stroke-miterlimit="10" d="
		M171.14,176.919c-0.004-3.122-3.38-5.07-6.085-3.51c-2.704,1.567-2.7,5.466,0.005,7.025c2.707,1.556,6.076-0.393,6.08-3.514"/>
</g>
<g>
	
		<path fill-rule="evenodd" clip-rule="evenodd" fill="#FFFFFF" stroke="#000000" stroke-width="0.75" stroke-linecap="round" stroke-linejoin="round" stroke-miterlimit="10" d="
		M171.918,155.55c-0.002-3.122-3.378-5.071-6.083-3.511c-2.704,1.569-2.701,5.466,0.004,7.026
		C168.547,160.622,171.916,158.671,171.918,155.55"/>
</g>
<g>
	
		<path fill-rule="evenodd" clip-rule="evenodd" fill="#FFFFFF" stroke="#000000" stroke-width="0.75" stroke-linecap="round" stroke-linejoin="round" stroke-miterlimit="10" d="
		M171.918,139.327c-0.002-3.121-3.378-5.07-6.083-3.512c-2.704,1.569-2.701,5.467,0.004,7.028
		C168.547,144.399,171.916,142.449,171.918,139.327"/>
</g>
<g>
	
		<path fill-rule="evenodd" clip-rule="evenodd" stroke="#000000" stroke-width="0.75" stroke-linecap="round" stroke-linejoin="round" stroke-miterlimit="10" d="
		M172.308,123.027c-0.001-3.122-3.377-5.07-6.083-3.512c-2.705,1.569-2.7,5.468,0.004,7.026
		C168.937,128.098,172.307,126.15,172.308,123.027"/>
</g>
<g>
	
		<path fill-rule="evenodd" clip-rule="evenodd" stroke="#000000" stroke-width="0.75" stroke-linecap="round" stroke-linejoin="round" stroke-miterlimit="10" d="
		M171.918,106.493c-0.002-3.122-3.378-5.07-6.083-3.51c-2.704,1.567-2.701,5.466,0.004,7.026c2.707,1.554,6.076-0.394,6.078-3.515"
		/>
</g>
<g>
	
		<line fill-rule="evenodd" clip-rule="evenodd" fill="none" stroke="#000000" stroke-width="0.75" stroke-linecap="round" stroke-linejoin="round" stroke-miterlimit="10" x1="113.736" y1="290.007" x2="113.736" y2="8.693"/>
</g>
<g>
	<polyline stroke="#000000" stroke-width="0.75" stroke-linecap="round" stroke-linejoin="round" stroke-miterlimit="10" points="
		108.59,19.065 113.736,8.693 118.963,19.065 108.59,19.065 	"/>
</g>
<g>
	
		<polyline fill="none" stroke="#000000" stroke-width="0.75" stroke-linecap="round" stroke-linejoin="round" stroke-miterlimit="10" points="
		373.137,66.407 54.074,66.407 164.432,66.407 	"/>
</g>
<g>
	<polyline stroke="#000000" stroke-width="0.75" stroke-linecap="round" stroke-linejoin="round" stroke-miterlimit="10" points="
		153.746,61.182 164.432,66.407 153.746,71.554 153.746,61.182 	"/>
</g>
<path fill="none" stroke="#000000" stroke-width="0.75" stroke-linecap="round" stroke-linejoin="round" stroke-miterlimit="10" d="
	M498,175.984c24.099,43.52,68.71,46.561,97.255,19.966c26.439-25.191,46.405-73.623,67.461-159.335"/>
<g>
	
		<polyline fill="none" stroke="#000000" stroke-width="0.75" stroke-linecap="round" stroke-linejoin="round" stroke-miterlimit="10" points="
		499.949,106.961 499.481,178.635 443.172,282.597 	"/>
</g>
<g>
	
		<path fill-rule="evenodd" clip-rule="evenodd" fill="#FFFFFF" stroke="#000000" stroke-width="0.75" stroke-linecap="round" stroke-linejoin="round" stroke-miterlimit="10" d="
		M511.023,188.54c-0.003-3.122-3.379-5.07-6.083-3.511c-2.705,1.568-2.698,5.467,0.005,7.026c2.708,1.556,6.077-0.392,6.078-3.514"
		/>
</g>
<g>
	
		<path fill-rule="evenodd" clip-rule="evenodd" fill="#FFFFFF" stroke="#000000" stroke-width="0.75" stroke-linecap="round" stroke-linejoin="round" stroke-miterlimit="10" d="
		M522.255,199.693c-0.003-3.122-3.378-5.071-6.084-3.511c-2.704,1.569-2.699,5.467,0.006,7.027
		C518.884,204.764,522.252,202.815,522.255,199.693"/>
</g>
<g>
	
		<path fill-rule="evenodd" clip-rule="evenodd" fill="#FFFFFF" stroke="#000000" stroke-width="0.75" stroke-linecap="round" stroke-linejoin="round" stroke-miterlimit="10" d="
		M537.229,208.194c-0.002-3.122-3.378-5.07-6.083-3.511c-2.705,1.568-2.7,5.467,0.004,7.025
		C533.858,213.265,537.226,211.317,537.229,208.194"/>
</g>
<g>
	
		<path fill-rule="evenodd" clip-rule="evenodd" fill="#FFFFFF" stroke="#000000" stroke-width="0.75" stroke-linecap="round" stroke-linejoin="round" stroke-miterlimit="10" d="
		M553.763,212.015c-0.003-3.122-3.379-5.068-6.083-3.51c-2.705,1.568-2.699,5.467,0.004,7.026c2.708,1.556,6.077-0.393,6.079-3.514"
		/>
</g>
<g>
	
		<path fill-rule="evenodd" clip-rule="evenodd" fill="#FFFFFF" stroke="#000000" stroke-width="0.75" stroke-linecap="round" stroke-linejoin="round" stroke-miterlimit="10" d="
		M569.439,211.625c-0.003-3.123-3.379-5.07-6.083-3.511c-2.705,1.568-2.699,5.466,0.004,7.027
		C566.069,216.696,569.437,214.748,569.439,211.625"/>
</g>
<g>
	
		<path fill-rule="evenodd" clip-rule="evenodd" fill="#FFFFFF" stroke="#000000" stroke-width="0.75" stroke-linecap="round" stroke-linejoin="round" stroke-miterlimit="10" d="
		M583.555,206.088c-0.002-3.122-3.378-5.07-6.082-3.512c-2.706,1.569-2.7,5.467,0.004,7.027
		C580.184,211.16,583.553,209.21,583.555,206.088"/>
</g>
<g>
	
		<path fill-rule="evenodd" clip-rule="evenodd" fill="#FFFFFF" stroke="#000000" stroke-width="0.75" stroke-linecap="round" stroke-linejoin="round" stroke-miterlimit="10" d="
		M597.282,197.119c-0.003-3.122-3.379-5.071-6.083-3.512c-2.705,1.57-2.7,5.468,0.004,7.026
		C593.91,202.189,597.281,200.242,597.282,197.119"/>
</g>
<g>
	
		<path fill-rule="evenodd" clip-rule="evenodd" fill="#FFFFFF" stroke="#000000" stroke-width="0.75" stroke-linecap="round" stroke-linejoin="round" stroke-miterlimit="10" d="
		M608.123,185.342c-0.003-3.122-3.379-5.071-6.084-3.512c-2.705,1.57-2.699,5.468,0.004,7.027c2.708,1.556,6.078-0.392,6.08-3.514"
		/>
</g>
<g>
	
		<path fill-rule="evenodd" clip-rule="evenodd" fill="#FFFFFF" stroke="#000000" stroke-width="0.75" stroke-linecap="round" stroke-linejoin="round" stroke-miterlimit="10" d="
		M617.561,172.318c-0.003-3.123-3.379-5.07-6.084-3.511c-2.704,1.569-2.7,5.467,0.005,7.026
		C614.188,177.389,617.558,175.44,617.561,172.318"/>
</g>
<g>
	
		<path fill-rule="evenodd" clip-rule="evenodd" fill="#FFFFFF" stroke="#000000" stroke-width="0.75" stroke-linecap="round" stroke-linejoin="round" stroke-miterlimit="10" d="
		M625.749,158.279c-0.002-3.122-3.378-5.071-6.083-3.512c-2.703,1.569-2.7,5.467,0.005,7.027c2.707,1.555,6.076-0.393,6.078-3.514"
		/>
</g>
<g>
	
		<path fill-rule="evenodd" clip-rule="evenodd" stroke="#000000" stroke-width="0.75" stroke-linecap="round" stroke-linejoin="round" stroke-miterlimit="10" d="
		M633.158,143.539c-0.002-3.121-3.378-5.07-6.083-3.512c-2.705,1.569-2.7,5.467,0.005,7.028
		C629.786,148.61,633.156,146.661,633.158,143.539"/>
</g>
<g>
	
		<path fill-rule="evenodd" clip-rule="evenodd" fill="#FFFFFF" stroke="#000000" stroke-width="0.75" stroke-linecap="round" stroke-linejoin="round" stroke-miterlimit="10" d="
		M638.695,128.409c-0.001-3.123-3.378-5.071-6.084-3.512c-2.704,1.57-2.699,5.467,0.006,7.028
		C635.325,133.48,638.694,131.531,638.695,128.409"/>
</g>
<g>
	
		<path fill-rule="evenodd" clip-rule="evenodd" stroke="#000000" stroke-width="0.75" stroke-linecap="round" stroke-linejoin="round" stroke-miterlimit="10" d="
		M644.233,113.278c-0.003-3.122-3.379-5.07-6.084-3.511c-2.704,1.569-2.699,5.467,0.005,7.027c2.706,1.554,6.077-0.394,6.08-3.515"
		/>
</g>
<g>
	
		<path fill-rule="evenodd" clip-rule="evenodd" stroke="#000000" stroke-width="0.75" stroke-linecap="round" stroke-linejoin="round" stroke-miterlimit="10" d="
		M649.771,97.758c-0.002-3.122-3.378-5.07-6.083-3.511c-2.704,1.569-2.7,5.467,0.005,7.026
		C646.398,102.829,649.768,100.88,649.771,97.758"/>
</g>
<g>
	
		<path fill-rule="evenodd" clip-rule="evenodd" stroke="#000000" stroke-width="0.75" stroke-linecap="round" stroke-linejoin="round" stroke-miterlimit="10" d="
		M654.216,81.926c-0.003-3.122-3.379-5.07-6.083-3.511c-2.706,1.569-2.699,5.467,0.004,7.027
		C650.844,86.997,654.213,85.048,654.216,81.926"/>
</g>
<g>
	
		<path fill-rule="evenodd" clip-rule="evenodd" stroke="#000000" stroke-width="0.75" stroke-linecap="round" stroke-linejoin="round" stroke-miterlimit="10" d="
		M658.583,66.405c-0.003-3.122-3.38-5.07-6.084-3.51c-2.704,1.569-2.699,5.466,0.006,7.027c2.707,1.554,6.076-0.394,6.079-3.515"/>
</g>
<g>
	
		<path fill-rule="evenodd" clip-rule="evenodd" fill="#FFFFFF" stroke="#000000" stroke-width="0.75" stroke-linecap="round" stroke-linejoin="round" stroke-miterlimit="10" d="
		M663.029,50.574c-0.003-3.123-3.379-5.071-6.083-3.511c-2.704,1.569-2.699,5.466,0.004,7.025
		C659.656,55.645,663.026,53.695,663.029,50.574"/>
</g>
<g>
	
		<path fill-rule="evenodd" clip-rule="evenodd" fill="#FFFFFF" stroke="#000000" stroke-width="0.75" stroke-linecap="round" stroke-linejoin="round" stroke-miterlimit="10" d="
		M666.772,35.053c-0.004-3.123-3.379-5.07-6.083-3.511c-2.705,1.569-2.7,5.467,0.005,7.027
		C663.4,40.125,666.771,38.175,666.772,35.053"/>
</g>
<g>
	
		<path fill-rule="evenodd" clip-rule="evenodd" fill="#FFFFFF" stroke="#000000" stroke-width="0.75" stroke-linecap="round" stroke-linejoin="round" stroke-miterlimit="10" d="
		M450.191,277.06c-0.003-3.122-3.38-5.07-6.083-3.51c-2.705,1.567-2.7,5.466,0.003,7.026c2.708,1.554,6.078-0.395,6.08-3.515"/>
</g>
<g>
	
		<path fill-rule="evenodd" clip-rule="evenodd" fill="#FFFFFF" stroke="#000000" stroke-width="0.75" stroke-linecap="round" stroke-linejoin="round" stroke-miterlimit="10" d="
		M457.99,262.397c-0.003-3.121-3.379-5.069-6.084-3.51c-2.704,1.568-2.699,5.467,0.005,7.025c2.706,1.556,6.076-0.393,6.079-3.514"
		/>
</g>
<g>
	
		<path fill-rule="evenodd" clip-rule="evenodd" fill="#FFFFFF" stroke="#000000" stroke-width="0.75" stroke-linecap="round" stroke-linejoin="round" stroke-miterlimit="10" d="
		M465.711,248.047c-0.003-3.121-3.379-5.071-6.084-3.512c-2.705,1.569-2.7,5.467,0.005,7.027
		C462.339,253.118,465.709,251.169,465.711,248.047"/>
</g>
<g>
	
		<path fill-rule="evenodd" clip-rule="evenodd" fill="#FFFFFF" stroke="#000000" stroke-width="0.75" stroke-linecap="round" stroke-linejoin="round" stroke-miterlimit="10" d="
		M473.588,233.774c-0.003-3.121-3.379-5.069-6.083-3.51c-2.705,1.569-2.7,5.466,0.004,7.026c2.707,1.555,6.077-0.394,6.079-3.515"/>
</g>
<g>
	
		<path fill-rule="evenodd" clip-rule="evenodd" fill="#FFFFFF" stroke="#000000" stroke-width="0.75" stroke-linecap="round" stroke-linejoin="round" stroke-miterlimit="10" d="
		M481.465,219.424c-0.003-3.121-3.379-5.07-6.083-3.51c-2.705,1.568-2.7,5.466,0.005,7.027c2.707,1.554,6.076-0.393,6.079-3.515"/>
</g>
<g>
	
		<path fill-rule="evenodd" clip-rule="evenodd" fill="#FFFFFF" stroke="#000000" stroke-width="0.75" stroke-linecap="round" stroke-linejoin="round" stroke-miterlimit="10" d="
		M489.031,205.464c-0.004-3.121-3.38-5.071-6.084-3.512c-2.705,1.569-2.7,5.467,0.004,7.027
		C485.658,210.535,489.029,208.586,489.031,205.464"/>
</g>
<g>
	
		<path fill-rule="evenodd" clip-rule="evenodd" fill="#FFFFFF" stroke="#000000" stroke-width="0.75" stroke-linecap="round" stroke-linejoin="round" stroke-miterlimit="10" d="
		M496.908,190.646c-0.003-3.124-3.379-5.071-6.084-3.512c-2.704,1.569-2.7,5.466,0.004,7.027
		C493.535,195.716,496.906,193.767,496.908,190.646"/>
</g>
<g>
	
		<path fill-rule="evenodd" clip-rule="evenodd" stroke="#000000" stroke-width="0.75" stroke-linecap="round" stroke-linejoin="round" stroke-miterlimit="10" d="
		M502.835,176.919c-0.002-3.122-3.378-5.07-6.083-3.51c-2.705,1.567-2.7,5.466,0.005,7.025c2.707,1.556,6.076-0.393,6.078-3.514"/>
</g>
<g>
	
		<path fill-rule="evenodd" clip-rule="evenodd" fill="#FFFFFF" stroke="#000000" stroke-width="0.75" stroke-linecap="round" stroke-linejoin="round" stroke-miterlimit="10" d="
		M503.615,155.55c-0.004-3.122-3.38-5.071-6.084-3.511c-2.704,1.569-2.699,5.466,0.006,7.026
		C500.243,160.622,503.613,158.671,503.615,155.55"/>
</g>
<g>
	
		<path fill-rule="evenodd" clip-rule="evenodd" stroke="#000000" stroke-width="0.75" stroke-linecap="round" stroke-linejoin="round" stroke-miterlimit="10" d="
		M503.615,139.327c-0.004-3.121-3.38-5.07-6.084-3.512c-2.704,1.569-2.699,5.467,0.006,7.028
		C500.243,144.399,503.613,142.449,503.615,139.327"/>
</g>
<g>
	
		<path fill-rule="evenodd" clip-rule="evenodd" fill="#FFFFFF" stroke="#000000" stroke-width="0.75" stroke-linecap="round" stroke-linejoin="round" stroke-miterlimit="10" d="
		M504.005,123.027c-0.003-3.122-3.379-5.07-6.083-3.512c-2.705,1.569-2.7,5.468,0.004,7.026
		C500.632,128.098,504.003,126.15,504.005,123.027"/>
</g>
<g>
	
		<path fill-rule="evenodd" clip-rule="evenodd" stroke="#000000" stroke-width="0.75" stroke-linecap="round" stroke-linejoin="round" stroke-miterlimit="10" d="
		M503.615,106.493c-0.004-3.122-3.38-5.07-6.084-3.51c-2.704,1.567-2.699,5.466,0.006,7.026c2.706,1.554,6.076-0.394,6.078-3.515"/>
</g>
<g>
	
		<polyline fill-rule="evenodd" clip-rule="evenodd" fill="#FFFFFF" stroke="#000000" stroke-width="0.75" stroke-linecap="round" stroke-linejoin="round" stroke-miterlimit="10" points="
		445.434,281.272 440.442,290.007 450.503,290.007 445.434,281.272 	"/>
</g>
<g>
	
		<line fill-rule="evenodd" clip-rule="evenodd" fill="none" stroke="#000000" stroke-width="0.75" stroke-linecap="round" stroke-linejoin="round" stroke-miterlimit="10" x1="436.074" y1="290.709" x2="723.551" y2="290.709"/>
</g>
<g>
	
		<polyline fill-rule="evenodd" clip-rule="evenodd" fill="#FFFFFF" stroke="#000000" stroke-width="0.75" stroke-linecap="round" stroke-linejoin="round" stroke-miterlimit="10" points="
		83.789,54.24 70.375,54.24 77.082,65.938 83.789,54.24 	"/>
</g>
<g>
	
		<line fill-rule="evenodd" clip-rule="evenodd" fill="none" stroke="#000000" stroke-width="0.75" stroke-linecap="round" stroke-linejoin="round" stroke-miterlimit="10" x1="62.107" y1="74.049" x2="91.042" y2="74.049"/>
</g>
<g>
	
		<line fill-rule="evenodd" clip-rule="evenodd" fill="none" stroke="#000000" stroke-width="0.75" stroke-linecap="round" stroke-linejoin="round" stroke-miterlimit="10" x1="66.397" y1="80.913" x2="85.973" y2="80.913"/>
</g>
<g>
	
		<line fill-rule="evenodd" clip-rule="evenodd" fill="none" stroke="#000000" stroke-width="0.75" stroke-linecap="round" stroke-linejoin="round" stroke-miterlimit="10" x1="71.855" y1="88.167" x2="80.513" y2="88.167"/>
</g>
<g>
	
		<polyline fill-rule="evenodd" clip-rule="evenodd" fill="none" stroke="#000000" stroke-width="0.75" stroke-linecap="round" stroke-linejoin="round" stroke-miterlimit="10" points="
		735.56,66.172 416.498,66.172 526.856,66.172 	"/>
</g>
<g>
	
		<polyline fill-rule="evenodd" clip-rule="evenodd" fill="#FFFFFF" stroke="#000000" stroke-width="0.75" stroke-linecap="round" stroke-linejoin="round" stroke-miterlimit="10" points="
		446.213,54.083 432.799,54.083 439.507,65.782 446.213,54.083 	"/>
</g>
<g>
	
		<line fill-rule="evenodd" clip-rule="evenodd" fill="none" stroke="#000000" stroke-width="0.75" stroke-linecap="round" stroke-linejoin="round" stroke-miterlimit="10" x1="424.454" y1="73.815" x2="453.466" y2="73.815"/>
</g>
<g>
	
		<line fill-rule="evenodd" clip-rule="evenodd" fill="none" stroke="#000000" stroke-width="0.75" stroke-linecap="round" stroke-linejoin="round" stroke-miterlimit="10" x1="428.822" y1="80.756" x2="448.397" y2="80.756"/>
</g>
<g>
	
		<line fill-rule="evenodd" clip-rule="evenodd" fill="none" stroke="#000000" stroke-width="0.75" stroke-linecap="round" stroke-linejoin="round" stroke-miterlimit="10" x1="434.281" y1="88.01" x2="442.938" y2="88.01"/>
</g>
<g>
	<path d="M125.887,14.399l5.612-8.23V6.125h-5.13V5.026h6.846v0.797l-5.597,8.2v0.045h5.672v1.098h-7.402V14.399z"/>
</g>
<g>
	<path d="M183.839,82.862l-1.309-2.242c-0.527-0.857-0.843-1.414-1.159-2.001h-0.03c-0.286,0.587-0.587,1.128-1.099,2.016
		l-1.218,2.227h-1.505l3.1-5.13l-2.979-5.01h1.52l1.339,2.377c0.376,0.662,0.662,1.173,0.933,1.715h0.045
		c0.286-0.602,0.542-1.068,0.918-1.715l1.369-2.377h1.52l-3.084,4.935l3.16,5.206H183.839z"/>
</g>
<g>
	
		<path fill-rule="evenodd" clip-rule="evenodd" fill="#FFFFFF" stroke="#000000" stroke-width="0.75" stroke-linecap="round" stroke-linejoin="round" stroke-miterlimit="10" d="
		M329.54,359.73c-0.004-3.122-3.38-5.071-6.085-3.512c-2.703,1.569-2.698,5.468,0.005,7.026
		C326.167,364.801,329.537,362.854,329.54,359.73"/>
</g>
<g>
	
		<path fill-rule="evenodd" clip-rule="evenodd" stroke="#000000" stroke-width="0.75" stroke-linecap="round" stroke-linejoin="round" stroke-miterlimit="10" d="
		M329.54,334.695c-0.004-3.122-3.38-5.071-6.085-3.512c-2.703,1.571-2.698,5.467,0.005,7.027
		C326.167,339.765,329.537,337.817,329.54,334.695"/>
</g>
<g>
	<path d="M347.295,331.617c0.632-0.105,1.459-0.196,2.512-0.196c1.294,0,2.242,0.301,2.844,0.843
		c0.542,0.481,0.888,1.219,0.888,2.121c0,0.918-0.271,1.64-0.782,2.167c-0.707,0.737-1.821,1.113-3.1,1.113
		c-0.391,0-0.752-0.015-1.053-0.09v4.062h-1.309V331.617z M348.604,336.507c0.286,0.075,0.647,0.105,1.083,0.105
		c1.58,0,2.542-0.783,2.542-2.152c0-1.354-0.963-2.001-2.392-2.001c-0.572,0-1.008,0.045-1.234,0.105V336.507z"/>
	<path d="M359.982,339.892c0,0.632,0.03,1.249,0.105,1.745h-1.188l-0.105-0.918h-0.045c-0.406,0.572-1.188,1.083-2.227,1.083
		c-1.475,0-2.227-1.038-2.227-2.091c0-1.76,1.565-2.723,4.378-2.708v-0.15c0-0.587-0.166-1.685-1.655-1.67
		c-0.692,0-1.399,0.196-1.911,0.542l-0.301-0.888c0.602-0.376,1.49-0.632,2.407-0.632c2.227,0,2.769,1.52,2.769,2.964V339.892z
		 M358.703,337.921c-1.444-0.03-3.084,0.226-3.084,1.64c0,0.873,0.572,1.264,1.234,1.264c0.963,0,1.58-0.602,1.79-1.219
		c0.045-0.15,0.061-0.301,0.061-0.421V337.921z"/>
	<path d="M362.121,336.627c0-0.857-0.015-1.595-0.06-2.271h1.159l0.06,1.444h0.045c0.331-0.978,1.144-1.595,2.031-1.595
		c0.135,0,0.241,0.015,0.361,0.03v1.249c-0.136-0.03-0.271-0.03-0.452-0.03c-0.933,0-1.595,0.692-1.775,1.685
		c-0.03,0.181-0.045,0.406-0.045,0.617v3.882h-1.324V336.627z"/>
	<path d="M372.083,339.892c0,0.632,0.03,1.249,0.105,1.745h-1.188l-0.105-0.918h-0.045c-0.406,0.572-1.188,1.083-2.227,1.083
		c-1.475,0-2.227-1.038-2.227-2.091c0-1.76,1.565-2.723,4.378-2.708v-0.15c0-0.587-0.166-1.685-1.655-1.67
		c-0.692,0-1.399,0.196-1.911,0.542l-0.301-0.888c0.602-0.376,1.49-0.632,2.407-0.632c2.227,0,2.769,1.52,2.769,2.964V339.892z
		 M370.804,337.921c-1.444-0.03-3.084,0.226-3.084,1.64c0,0.873,0.572,1.264,1.234,1.264c0.963,0,1.58-0.602,1.79-1.219
		c0.045-0.15,0.061-0.301,0.061-0.421V337.921z"/>
	<path d="M374.222,336.326c0-0.767-0.03-1.369-0.06-1.971h1.159l0.06,1.188h0.045c0.406-0.692,1.083-1.339,2.302-1.339
		c0.978,0,1.73,0.602,2.046,1.459h0.03c0.226-0.421,0.526-0.722,0.827-0.948c0.437-0.331,0.903-0.511,1.595-0.511
		c0.978,0,2.407,0.632,2.407,3.159v4.273h-1.294v-4.107c0-1.414-0.527-2.242-1.58-2.242c-0.767,0-1.339,0.557-1.58,1.188
		c-0.06,0.196-0.105,0.421-0.105,0.662v4.499h-1.294v-4.363c0-1.158-0.511-1.986-1.52-1.986c-0.812,0-1.429,0.662-1.64,1.324
		c-0.075,0.18-0.105,0.421-0.105,0.647v4.378h-1.294V336.326z"/>
	<path d="M387.511,338.237c0.03,1.791,1.159,2.528,2.498,2.528c0.948,0,1.535-0.166,2.016-0.376l0.241,0.948
		c-0.466,0.21-1.279,0.466-2.438,0.466c-2.242,0-3.581-1.489-3.581-3.686s1.294-3.912,3.415-3.912c2.392,0,3.009,2.076,3.009,3.415
		c0,0.271-0.015,0.466-0.045,0.617H387.511z M391.393,337.289c0.015-0.827-0.346-2.136-1.835-2.136
		c-1.354,0-1.926,1.219-2.031,2.136H391.393z"/>
	<path d="M395.909,332.61v1.745h1.896v1.008h-1.896v3.927c0,0.903,0.256,1.415,0.993,1.415c0.361,0,0.572-0.03,0.768-0.09
		l0.06,1.008c-0.256,0.09-0.662,0.181-1.174,0.181c-0.617,0-1.113-0.21-1.429-0.557c-0.361-0.406-0.511-1.053-0.511-1.911v-3.972
		h-1.128v-1.008h1.128v-1.354L395.909,332.61z"/>
	<path d="M399.943,338.237c0.03,1.791,1.159,2.528,2.498,2.528c0.948,0,1.535-0.166,2.016-0.376l0.241,0.948
		c-0.466,0.21-1.279,0.466-2.438,0.466c-2.242,0-3.581-1.489-3.581-3.686s1.294-3.912,3.415-3.912c2.393,0,3.009,2.076,3.009,3.415
		c0,0.271-0.015,0.466-0.045,0.617H399.943z M403.825,337.289c0.015-0.827-0.346-2.136-1.835-2.136
		c-1.354,0-1.926,1.219-2.031,2.136H403.825z"/>
	<path d="M406.747,336.627c0-0.857-0.015-1.595-0.06-2.271h1.159l0.06,1.444h0.045c0.331-0.978,1.144-1.595,2.031-1.595
		c0.135,0,0.241,0.015,0.361,0.03v1.249c-0.136-0.03-0.271-0.03-0.452-0.03c-0.933,0-1.595,0.692-1.775,1.685
		c-0.03,0.181-0.045,0.406-0.045,0.617v3.882h-1.324V336.627z"/>
	<path d="M411.488,340.298c0.406,0.241,1.098,0.511,1.76,0.511c0.948,0,1.399-0.466,1.399-1.083c0-0.632-0.376-0.963-1.339-1.324
		c-1.324-0.481-1.941-1.188-1.941-2.061c0-1.173,0.963-2.136,2.513-2.136c0.737,0,1.384,0.195,1.775,0.451l-0.316,0.963
		c-0.286-0.181-0.813-0.437-1.49-0.437c-0.782,0-1.204,0.452-1.204,0.993c0,0.602,0.421,0.873,1.369,1.249
		c1.249,0.466,1.911,1.098,1.911,2.181c0,1.294-1.008,2.197-2.708,2.197c-0.797,0-1.535-0.21-2.046-0.512L411.488,340.298z"/>
	<path d="M426.01,341.381c-0.346,0.166-1.113,0.421-2.091,0.421c-2.197,0-3.626-1.489-3.626-3.716c0-2.242,1.535-3.881,3.912-3.881
		c0.782,0,1.475,0.195,1.835,0.391l-0.301,1.008c-0.316-0.166-0.813-0.346-1.535-0.346c-1.67,0-2.573,1.249-2.573,2.753
		c0,1.685,1.083,2.723,2.528,2.723c0.752,0,1.249-0.181,1.625-0.346L426.01,341.381z"/>
	<path d="M432.677,339.892c0,0.632,0.03,1.249,0.105,1.745h-1.188l-0.105-0.918h-0.045c-0.406,0.572-1.188,1.083-2.227,1.083
		c-1.475,0-2.227-1.038-2.227-2.091c0-1.76,1.565-2.723,4.378-2.708v-0.15c0-0.587-0.166-1.685-1.655-1.67
		c-0.692,0-1.399,0.196-1.911,0.542l-0.301-0.888c0.602-0.376,1.49-0.632,2.407-0.632c2.227,0,2.769,1.52,2.769,2.964V339.892z
		 M431.398,337.921c-1.444-0.03-3.084,0.226-3.084,1.64c0,0.873,0.572,1.264,1.234,1.264c0.963,0,1.58-0.602,1.79-1.219
		c0.045-0.15,0.061-0.301,0.061-0.421V337.921z"/>
	<path d="M434.816,330.955h1.324v10.682h-1.324V330.955z"/>
	<path d="M443.559,341.381c-0.346,0.166-1.114,0.421-2.091,0.421c-2.197,0-3.626-1.489-3.626-3.716c0-2.242,1.535-3.881,3.912-3.881
		c0.782,0,1.475,0.195,1.835,0.391l-0.301,1.008c-0.316-0.166-0.813-0.346-1.535-0.346c-1.67,0-2.573,1.249-2.573,2.753
		c0,1.685,1.083,2.723,2.528,2.723c0.752,0,1.249-0.181,1.625-0.346L443.559,341.381z"/>
	<path d="M451.204,339.636c0,0.767,0.015,1.429,0.061,2.001h-1.174l-0.075-1.188h-0.03c-0.331,0.586-1.114,1.354-2.407,1.354
		c-1.144,0-2.513-0.647-2.513-3.189v-4.258h1.324v4.017c0,1.384,0.437,2.332,1.625,2.332c0.888,0,1.504-0.617,1.745-1.219
		c0.075-0.181,0.121-0.421,0.121-0.677v-4.453h1.324V339.636z"/>
	<path d="M453.404,330.955h1.324v10.682h-1.324V330.955z"/>
	<path d="M462.072,339.892c0,0.632,0.03,1.249,0.105,1.745h-1.188l-0.105-0.918h-0.045c-0.406,0.572-1.188,1.083-2.227,1.083
		c-1.475,0-2.227-1.038-2.227-2.091c0-1.76,1.565-2.723,4.378-2.708v-0.15c0-0.587-0.166-1.685-1.655-1.67
		c-0.692,0-1.399,0.196-1.911,0.542l-0.301-0.888c0.602-0.376,1.49-0.632,2.407-0.632c2.227,0,2.769,1.52,2.769,2.964V339.892z
		 M460.793,337.921c-1.444-0.03-3.084,0.226-3.084,1.64c0,0.873,0.572,1.264,1.234,1.264c0.963,0,1.58-0.602,1.79-1.219
		c0.045-0.15,0.061-0.301,0.061-0.421V337.921z"/>
	<path d="M465.745,332.61v1.745h1.896v1.008h-1.896v3.927c0,0.903,0.256,1.415,0.993,1.415c0.361,0,0.572-0.03,0.768-0.09
		l0.06,1.008c-0.256,0.09-0.662,0.181-1.174,0.181c-0.617,0-1.113-0.21-1.429-0.557c-0.361-0.406-0.511-1.053-0.511-1.911v-3.972
		h-1.128v-1.008h1.128v-1.354L465.745,332.61z"/>
	<path d="M469.779,338.237c0.03,1.791,1.159,2.528,2.498,2.528c0.948,0,1.535-0.166,2.016-0.376l0.241,0.948
		c-0.466,0.21-1.279,0.466-2.438,0.466c-2.242,0-3.581-1.489-3.581-3.686s1.294-3.912,3.415-3.912c2.392,0,3.009,2.076,3.009,3.415
		c0,0.271-0.015,0.466-0.045,0.617H469.779z M473.661,337.289c0.015-0.827-0.346-2.136-1.835-2.136
		c-1.354,0-1.926,1.219-2.031,2.136H473.661z"/>
	<path d="M482.856,330.955v8.801c0,0.647,0.03,1.384,0.06,1.881h-1.173l-0.06-1.264h-0.045c-0.391,0.813-1.264,1.429-2.452,1.429
		c-1.76,0-3.129-1.489-3.129-3.701c-0.015-2.422,1.504-3.896,3.265-3.896c1.128,0,1.866,0.526,2.197,1.098h0.03v-4.348H482.856z
		 M481.547,337.319c0-0.166-0.015-0.391-0.06-0.557c-0.195-0.828-0.917-1.52-1.911-1.52c-1.369,0-2.182,1.204-2.182,2.798
		c0,1.474,0.737,2.693,2.151,2.693c0.888,0,1.7-0.602,1.941-1.58c0.045-0.181,0.06-0.361,0.06-0.572V337.319z"/>
</g>
<g>
	<path d="M347.295,355.716c0.632-0.105,1.459-0.196,2.512-0.196c1.294,0,2.242,0.301,2.844,0.843
		c0.542,0.481,0.888,1.219,0.888,2.121c0,0.918-0.271,1.64-0.782,2.167c-0.707,0.737-1.821,1.114-3.1,1.114
		c-0.391,0-0.752-0.015-1.053-0.09v4.062h-1.309V355.716z M348.604,360.606c0.286,0.075,0.647,0.105,1.083,0.105
		c1.58,0,2.542-0.783,2.542-2.152c0-1.354-0.963-2.001-2.392-2.001c-0.572,0-1.008,0.045-1.234,0.105V360.606z"/>
	<path d="M359.982,363.991c0,0.632,0.03,1.249,0.105,1.745h-1.188l-0.105-0.918h-0.045c-0.406,0.572-1.188,1.083-2.227,1.083
		c-1.475,0-2.227-1.038-2.227-2.091c0-1.76,1.565-2.723,4.378-2.708v-0.15c0-0.587-0.166-1.685-1.655-1.67
		c-0.692,0-1.399,0.196-1.911,0.542l-0.301-0.888c0.602-0.376,1.49-0.632,2.407-0.632c2.227,0,2.769,1.52,2.769,2.964V363.991z
		 M358.703,362.02c-1.444-0.03-3.084,0.226-3.084,1.64c0,0.873,0.572,1.264,1.234,1.264c0.963,0,1.58-0.602,1.79-1.219
		c0.045-0.15,0.061-0.301,0.061-0.421V362.02z"/>
	<path d="M362.121,360.726c0-0.857-0.015-1.595-0.06-2.271h1.159l0.06,1.444h0.045c0.331-0.978,1.144-1.595,2.031-1.595
		c0.135,0,0.241,0.015,0.361,0.03v1.249c-0.136-0.03-0.271-0.03-0.452-0.03c-0.933,0-1.595,0.692-1.775,1.685
		c-0.03,0.181-0.045,0.406-0.045,0.617v3.882h-1.324V360.726z"/>
	<path d="M372.083,363.991c0,0.632,0.03,1.249,0.105,1.745h-1.188l-0.105-0.918h-0.045c-0.406,0.572-1.188,1.083-2.227,1.083
		c-1.475,0-2.227-1.038-2.227-2.091c0-1.76,1.565-2.723,4.378-2.708v-0.15c0-0.587-0.166-1.685-1.655-1.67
		c-0.692,0-1.399,0.196-1.911,0.542l-0.301-0.888c0.602-0.376,1.49-0.632,2.407-0.632c2.227,0,2.769,1.52,2.769,2.964V363.991z
		 M370.804,362.02c-1.444-0.03-3.084,0.226-3.084,1.64c0,0.873,0.572,1.264,1.234,1.264c0.963,0,1.58-0.602,1.79-1.219
		c0.045-0.15,0.061-0.301,0.061-0.421V362.02z"/>
	<path d="M374.222,360.425c0-0.767-0.03-1.369-0.06-1.971h1.159l0.06,1.188h0.045c0.406-0.692,1.083-1.339,2.302-1.339
		c0.978,0,1.73,0.602,2.046,1.459h0.03c0.226-0.421,0.526-0.722,0.827-0.948c0.437-0.331,0.903-0.511,1.595-0.511
		c0.978,0,2.407,0.632,2.407,3.159v4.273h-1.294v-4.107c0-1.414-0.527-2.242-1.58-2.242c-0.767,0-1.339,0.557-1.58,1.188
		c-0.06,0.196-0.105,0.421-0.105,0.662v4.499h-1.294v-4.363c0-1.158-0.511-1.986-1.52-1.986c-0.812,0-1.429,0.662-1.64,1.324
		c-0.075,0.18-0.105,0.421-0.105,0.647v4.378h-1.294V360.425z"/>
	<path d="M387.511,362.336c0.03,1.791,1.159,2.528,2.498,2.528c0.948,0,1.535-0.166,2.016-0.376l0.241,0.948
		c-0.466,0.21-1.279,0.466-2.438,0.466c-2.242,0-3.581-1.49-3.581-3.686c0-2.197,1.294-3.912,3.415-3.912
		c2.392,0,3.009,2.076,3.009,3.415c0,0.271-0.015,0.466-0.045,0.617H387.511z M391.393,361.388c0.015-0.828-0.346-2.136-1.835-2.136
		c-1.354,0-1.926,1.219-2.031,2.136H391.393z"/>
	<path d="M395.909,356.709v1.746h1.896v1.008h-1.896v3.927c0,0.903,0.256,1.415,0.993,1.415c0.361,0,0.572-0.03,0.768-0.09
		l0.06,1.008c-0.256,0.09-0.662,0.181-1.174,0.181c-0.617,0-1.113-0.21-1.429-0.557c-0.361-0.406-0.511-1.053-0.511-1.911v-3.972
		h-1.128v-1.008h1.128v-1.354L395.909,356.709z"/>
	<path d="M399.943,362.336c0.03,1.791,1.159,2.528,2.498,2.528c0.948,0,1.535-0.166,2.016-0.376l0.241,0.948
		c-0.466,0.21-1.279,0.466-2.438,0.466c-2.242,0-3.581-1.49-3.581-3.686c0-2.197,1.294-3.912,3.415-3.912
		c2.393,0,3.009,2.076,3.009,3.415c0,0.271-0.015,0.466-0.045,0.617H399.943z M403.825,361.388c0.015-0.828-0.346-2.136-1.835-2.136
		c-1.354,0-1.926,1.219-2.031,2.136H403.825z"/>
	<path d="M406.747,360.726c0-0.857-0.015-1.595-0.06-2.271h1.159l0.06,1.444h0.045c0.331-0.978,1.144-1.595,2.031-1.595
		c0.135,0,0.241,0.015,0.361,0.03v1.249c-0.136-0.03-0.271-0.03-0.452-0.03c-0.933,0-1.595,0.692-1.775,1.685
		c-0.03,0.181-0.045,0.406-0.045,0.617v3.882h-1.324V360.726z"/>
	<path d="M411.488,364.397c0.406,0.241,1.098,0.511,1.76,0.511c0.948,0,1.399-0.466,1.399-1.083c0-0.632-0.376-0.963-1.339-1.324
		c-1.324-0.481-1.941-1.188-1.941-2.061c0-1.173,0.963-2.136,2.513-2.136c0.737,0,1.384,0.195,1.775,0.451l-0.316,0.963
		c-0.286-0.181-0.813-0.437-1.49-0.437c-0.782,0-1.204,0.452-1.204,0.993c0,0.602,0.421,0.873,1.369,1.249
		c1.249,0.467,1.911,1.099,1.911,2.182c0,1.294-1.008,2.197-2.708,2.197c-0.797,0-1.535-0.21-2.046-0.512L411.488,364.397z"/>
	<path d="M420.819,360.425c0-0.767-0.015-1.369-0.06-1.971h1.173l0.076,1.204h0.03c0.361-0.677,1.204-1.354,2.407-1.354
		c1.008,0,2.573,0.602,2.573,3.099v4.333h-1.324v-4.198c0-1.173-0.437-2.151-1.685-2.151c-0.858,0-1.535,0.617-1.775,1.354
		c-0.061,0.166-0.09,0.391-0.09,0.617v4.378h-1.324V360.425z"/>
	<path d="M435.762,362.035c0,2.693-1.88,3.867-3.626,3.867c-1.956,0-3.49-1.444-3.49-3.746c0-2.422,1.61-3.852,3.611-3.852
		C434.348,358.304,435.762,359.824,435.762,362.035z M430,362.11c0,1.595,0.903,2.798,2.197,2.798c1.264,0,2.211-1.188,2.211-2.828
		c0-1.234-0.617-2.784-2.182-2.784C430.677,359.297,430,360.741,430,362.11z"/>
	<path d="M439.03,356.709v1.746h1.896v1.008h-1.896v3.927c0,0.903,0.256,1.415,0.993,1.415c0.361,0,0.572-0.03,0.767-0.09
		l0.061,1.008c-0.256,0.09-0.662,0.181-1.174,0.181c-0.617,0-1.113-0.21-1.429-0.557c-0.361-0.406-0.511-1.053-0.511-1.911v-3.972
		h-1.128v-1.008h1.128v-1.354L439.03,356.709z"/>
	<path d="M450.798,365.48c-0.346,0.166-1.114,0.421-2.091,0.421c-2.197,0-3.626-1.49-3.626-3.716c0-2.242,1.535-3.881,3.912-3.881
		c0.782,0,1.475,0.195,1.835,0.391l-0.301,1.008c-0.316-0.166-0.813-0.346-1.535-0.346c-1.67,0-2.573,1.249-2.573,2.753
		c0,1.685,1.083,2.723,2.528,2.723c0.752,0,1.249-0.18,1.625-0.346L450.798,365.48z"/>
	<path d="M457.466,363.991c0,0.632,0.03,1.249,0.105,1.745h-1.188l-0.105-0.918h-0.045c-0.406,0.572-1.188,1.083-2.227,1.083
		c-1.475,0-2.227-1.038-2.227-2.091c0-1.76,1.565-2.723,4.378-2.708v-0.15c0-0.587-0.166-1.685-1.655-1.67
		c-0.692,0-1.399,0.196-1.911,0.542l-0.301-0.888c0.602-0.376,1.489-0.632,2.407-0.632c2.227,0,2.769,1.52,2.769,2.964V363.991z
		 M456.187,362.02c-1.444-0.03-3.084,0.226-3.084,1.64c0,0.873,0.572,1.264,1.234,1.264c0.963,0,1.58-0.602,1.79-1.219
		c0.045-0.15,0.06-0.301,0.06-0.421V362.02z"/>
	<path d="M459.605,355.054h1.324v10.682h-1.324V355.054z"/>
	<path d="M468.348,365.48c-0.346,0.166-1.113,0.421-2.091,0.421c-2.197,0-3.626-1.49-3.626-3.716c0-2.242,1.535-3.881,3.912-3.881
		c0.782,0,1.475,0.195,1.835,0.391l-0.301,1.008c-0.316-0.166-0.813-0.346-1.535-0.346c-1.67,0-2.573,1.249-2.573,2.753
		c0,1.685,1.083,2.723,2.528,2.723c0.752,0,1.249-0.18,1.625-0.346L468.348,365.48z"/>
	<path d="M475.993,363.735c0,0.767,0.015,1.429,0.061,2.001h-1.174l-0.075-1.188h-0.03c-0.331,0.587-1.114,1.354-2.407,1.354
		c-1.144,0-2.513-0.647-2.513-3.189v-4.258h1.324v4.017c0,1.384,0.437,2.332,1.625,2.332c0.888,0,1.504-0.617,1.745-1.219
		c0.075-0.181,0.121-0.421,0.121-0.677v-4.453h1.324V363.735z"/>
	<path d="M478.192,355.054h1.324v10.682h-1.324V355.054z"/>
	<path d="M486.86,363.991c0,0.632,0.03,1.249,0.105,1.745h-1.188l-0.105-0.918h-0.045c-0.406,0.572-1.188,1.083-2.227,1.083
		c-1.475,0-2.227-1.038-2.227-2.091c0-1.76,1.565-2.723,4.378-2.708v-0.15c0-0.587-0.166-1.685-1.655-1.67
		c-0.692,0-1.399,0.196-1.911,0.542l-0.301-0.888c0.602-0.376,1.489-0.632,2.407-0.632c2.227,0,2.769,1.52,2.769,2.964V363.991z
		 M485.581,362.02c-1.444-0.03-3.084,0.226-3.084,1.64c0,0.873,0.572,1.264,1.234,1.264c0.963,0,1.58-0.602,1.79-1.219
		c0.045-0.15,0.06-0.301,0.06-0.421V362.02z"/>
	<path d="M490.534,356.709v1.746h1.896v1.008h-1.896v3.927c0,0.903,0.256,1.415,0.993,1.415c0.361,0,0.572-0.03,0.767-0.09
		l0.061,1.008c-0.256,0.09-0.662,0.181-1.174,0.181c-0.617,0-1.113-0.21-1.429-0.557c-0.361-0.406-0.511-1.053-0.511-1.911v-3.972
		h-1.128v-1.008h1.128v-1.354L490.534,356.709z"/>
	<path d="M494.567,362.336c0.03,1.791,1.159,2.528,2.498,2.528c0.948,0,1.535-0.166,2.016-0.376l0.241,0.948
		c-0.466,0.21-1.279,0.466-2.438,0.466c-2.242,0-3.581-1.49-3.581-3.686c0-2.197,1.294-3.912,3.415-3.912
		c2.393,0,3.009,2.076,3.009,3.415c0,0.271-0.015,0.466-0.045,0.617H494.567z M498.449,361.388c0.015-0.828-0.346-2.136-1.835-2.136
		c-1.354,0-1.926,1.219-2.031,2.136H498.449z"/>
	<path d="M507.645,355.054v8.801c0,0.647,0.03,1.384,0.06,1.881h-1.173l-0.06-1.264h-0.045c-0.391,0.813-1.264,1.429-2.452,1.429
		c-1.76,0-3.129-1.49-3.129-3.701c-0.015-2.422,1.504-3.896,3.265-3.896c1.128,0,1.866,0.526,2.197,1.098h0.03v-4.348H507.645z
		 M506.335,361.418c0-0.166-0.015-0.391-0.06-0.557c-0.195-0.828-0.917-1.52-1.911-1.52c-1.369,0-2.182,1.204-2.182,2.798
		c0,1.474,0.737,2.693,2.151,2.693c0.888,0,1.7-0.602,1.941-1.58c0.045-0.181,0.06-0.361,0.06-0.572V361.418z"/>
</g>
<g>
	<path d="M614.025,286.108v-10.141h1.444l3.234,5.13c0.737,1.189,1.339,2.257,1.806,3.295l0.045-0.015
		c-0.12-1.354-0.15-2.588-0.15-4.168v-4.243h1.234v10.141h-1.324l-3.219-5.146c-0.708-1.128-1.384-2.287-1.881-3.385l-0.045,0.015
		c0.075,1.279,0.09,2.498,0.09,4.183v4.333H614.025z"/>
	<path d="M632.595,280.933c0,3.475-2.122,5.341-4.709,5.341c-2.693,0-4.559-2.091-4.559-5.161c0-3.22,1.986-5.326,4.694-5.326
		C630.804,275.787,632.595,277.908,632.595,280.933z M624.711,281.083c0,2.181,1.173,4.122,3.25,4.122
		c2.076,0,3.25-1.911,3.25-4.212c0-2.031-1.053-4.138-3.235-4.138S624.711,278.871,624.711,281.083z"/>
	<path d="M634.299,276.118c0.797-0.136,1.745-0.226,2.783-0.226c1.881,0,3.22,0.452,4.107,1.264
		c0.917,0.827,1.444,2.001,1.444,3.641c0,1.655-0.527,3.009-1.459,3.942c-0.963,0.948-2.527,1.459-4.499,1.459
		c-0.948,0-1.715-0.045-2.377-0.121V276.118z M635.607,285.085c0.331,0.045,0.813,0.06,1.324,0.06c2.813,0,4.318-1.565,4.318-4.303
		c0.015-2.393-1.339-3.912-4.107-3.912c-0.677,0-1.188,0.061-1.535,0.136V285.085z"/>
	<path d="M644.157,284.513c0.587,0.376,1.429,0.662,2.332,0.662c1.339,0,2.121-0.708,2.121-1.73c0-0.933-0.542-1.489-1.911-2.001
		c-1.655-0.602-2.678-1.474-2.678-2.889c0-1.58,1.309-2.753,3.28-2.753c1.023,0,1.79,0.241,2.227,0.497l-0.361,1.068
		c-0.316-0.196-0.993-0.481-1.911-0.481c-1.384,0-1.911,0.828-1.911,1.52c0,0.948,0.617,1.414,2.016,1.956
		c1.715,0.662,2.573,1.489,2.573,2.979c0,1.564-1.144,2.934-3.536,2.934c-0.978,0-2.046-0.301-2.588-0.662L644.157,284.513z"/>
	<path d="M653.668,277.081h-3.084v-1.114h7.508v1.114h-3.1v9.027h-1.324V277.081z"/>
	<path d="M659.223,276.088c0.632-0.105,1.459-0.196,2.512-0.196c1.294,0,2.242,0.301,2.844,0.843
		c0.542,0.481,0.888,1.219,0.888,2.121c0,0.918-0.271,1.64-0.782,2.167c-0.707,0.737-1.821,1.113-3.1,1.113
		c-0.391,0-0.752-0.015-1.053-0.09v4.062h-1.309V276.088z M660.532,280.978c0.286,0.075,0.647,0.105,1.083,0.105
		c1.58,0,2.542-0.783,2.542-2.152c0-1.354-0.963-2.001-2.392-2.001c-0.572,0-1.008,0.045-1.234,0.105V280.978z"/>
	<path d="M669.879,281.038v-0.903h7.764v0.903H669.879z M669.879,283.986v-0.902h7.764v0.902H669.879z"/>
	<path d="M685.605,281.564v0.963h-3.716v-0.963H685.605z"/>
	<path d="M689.609,277.563h-0.03l-1.7,0.917l-0.256-1.008l2.137-1.144h1.128v9.779h-1.279V277.563z"/>
</g>
<g>
	<path d="M280.535,286.108v-10.141h1.444l3.234,5.13c0.737,1.189,1.339,2.257,1.806,3.295l0.045-0.015
		c-0.12-1.354-0.15-2.588-0.15-4.168v-4.243h1.234v10.141h-1.324l-3.219-5.146c-0.708-1.128-1.384-2.287-1.881-3.385l-0.045,0.015
		c0.075,1.279,0.09,2.498,0.09,4.183v4.333H280.535z"/>
	<path d="M299.104,280.933c0,3.475-2.122,5.341-4.709,5.341c-2.693,0-4.559-2.091-4.559-5.161c0-3.22,1.986-5.326,4.694-5.326
		C297.314,275.787,299.104,277.908,299.104,280.933z M291.221,281.083c0,2.181,1.173,4.122,3.25,4.122
		c2.076,0,3.25-1.911,3.25-4.212c0-2.031-1.053-4.138-3.235-4.138S291.221,278.871,291.221,281.083z"/>
	<path d="M300.809,276.118c0.797-0.136,1.745-0.226,2.783-0.226c1.881,0,3.22,0.452,4.107,1.264
		c0.917,0.827,1.444,2.001,1.444,3.641c0,1.655-0.527,3.009-1.459,3.942c-0.963,0.948-2.527,1.459-4.499,1.459
		c-0.948,0-1.715-0.045-2.377-0.121V276.118z M302.117,285.085c0.331,0.045,0.813,0.06,1.324,0.06c2.813,0,4.318-1.565,4.318-4.303
		c0.015-2.393-1.339-3.912-4.107-3.912c-0.677,0-1.188,0.061-1.535,0.136V285.085z"/>
	<path d="M310.667,284.513c0.587,0.376,1.429,0.662,2.332,0.662c1.339,0,2.121-0.708,2.121-1.73c0-0.933-0.542-1.489-1.911-2.001
		c-1.655-0.602-2.678-1.474-2.678-2.889c0-1.58,1.309-2.753,3.28-2.753c1.023,0,1.79,0.241,2.227,0.497l-0.361,1.068
		c-0.316-0.196-0.993-0.481-1.911-0.481c-1.384,0-1.911,0.828-1.911,1.52c0,0.948,0.617,1.414,2.016,1.956
		c1.715,0.662,2.573,1.489,2.573,2.979c0,1.564-1.144,2.934-3.536,2.934c-0.978,0-2.046-0.301-2.588-0.662L310.667,284.513z"/>
	<path d="M320.178,277.081h-3.084v-1.114h7.508v1.114h-3.1v9.027h-1.324V277.081z"/>
	<path d="M325.733,276.088c0.632-0.105,1.459-0.196,2.512-0.196c1.294,0,2.242,0.301,2.844,0.843
		c0.542,0.481,0.888,1.219,0.888,2.121c0,0.918-0.271,1.64-0.782,2.167c-0.707,0.737-1.821,1.113-3.1,1.113
		c-0.391,0-0.752-0.015-1.053-0.09v4.062h-1.309V276.088z M327.042,280.978c0.286,0.075,0.647,0.105,1.083,0.105
		c1.58,0,2.542-0.783,2.542-2.152c0-1.354-0.963-2.001-2.392-2.001c-0.572,0-1.008,0.045-1.234,0.105V280.978z"/>
	<path d="M336.389,281.038v-0.903h7.764v0.903H336.389z M336.389,283.986v-0.902h7.764v0.902H336.389z"/>
	<path d="M348.941,284.604c0.376,0.226,1.233,0.602,2.167,0.602c1.685,0,2.227-1.068,2.211-1.896
		c-0.015-1.369-1.249-1.956-2.527-1.956h-0.737v-0.993h0.737c0.963,0,2.181-0.497,2.181-1.655c0-0.782-0.496-1.474-1.715-1.474
		c-0.782,0-1.535,0.346-1.956,0.647l-0.361-0.963c0.526-0.376,1.52-0.752,2.573-0.752c1.926,0,2.798,1.144,2.798,2.332
		c0,1.023-0.617,1.88-1.806,2.317v0.03c1.204,0.226,2.167,1.128,2.182,2.498c0,1.564-1.234,2.934-3.566,2.934
		c-1.098,0-2.061-0.346-2.542-0.662L348.941,284.604z"/>
</g>
<g>
	<path d="M36.822,238.625l5.612-8.23v-0.045h-5.13v-1.099h6.845v0.797l-5.597,8.2v0.045h5.672v1.098h-7.402V238.625z"/>
	<path d="M45.822,229.251h1.324v9.042h4.333v1.098h-5.657V229.251z"/>
	<path d="M61.02,234.216c0,3.476-2.121,5.341-4.709,5.341c-2.693,0-4.559-2.091-4.559-5.161c0-3.22,1.986-5.326,4.694-5.326
		C59.229,229.071,61.02,231.192,61.02,234.216z M53.136,234.367c0,2.181,1.174,4.122,3.25,4.122s3.25-1.911,3.25-4.212
		c0-2.031-1.053-4.138-3.235-4.138C54.219,230.139,53.136,232.155,53.136,234.367z"/>
	<path d="M64.379,239.392l-2.573-10.141h1.384l1.204,5.13c0.301,1.264,0.572,2.528,0.752,3.506h0.03
		c0.166-1.008,0.481-2.212,0.828-3.521l1.354-5.116h1.369l1.234,5.146c0.286,1.204,0.557,2.407,0.707,3.476h0.03
		c0.21-1.113,0.496-2.242,0.813-3.505l1.339-5.116h1.339l-2.874,10.141h-1.369l-1.279-5.281c-0.316-1.294-0.526-2.287-0.662-3.31
		h-0.03c-0.166,1.008-0.406,2.001-0.782,3.31l-1.444,5.281H64.379z"/>
	<path d="M80.692,234.637h-3.927v3.656h4.394v1.098h-5.717v-10.141h5.492v1.099h-4.168v3.205h3.927V234.637z"/>
	<path d="M82.862,229.387c0.662-0.121,1.625-0.211,2.512-0.211c1.399,0,2.317,0.271,2.934,0.828
		c0.497,0.451,0.797,1.144,0.797,1.941c0,1.324-0.843,2.211-1.896,2.573v0.045c0.767,0.271,1.233,0.993,1.474,2.046
		c0.331,1.414,0.572,2.392,0.782,2.783h-1.354c-0.166-0.301-0.391-1.159-0.662-2.422c-0.301-1.399-0.858-1.926-2.046-1.971H84.17
		v4.393h-1.309V229.387z M84.17,234.005h1.339c1.399,0,2.287-0.767,2.287-1.926c0-1.309-0.948-1.88-2.332-1.88
		c-0.632,0-1.068,0.045-1.294,0.105V234.005z"/>
</g>
<g>
	
		<line fill-rule="evenodd" clip-rule="evenodd" fill="none" stroke="#000000" stroke-width="0.75" stroke-linecap="round" stroke-linejoin="round" stroke-miterlimit="10" x1="107.108" y1="238.611" x2="119.898" y2="238.611"/>
</g>
<g>
	<path d="M0.323,87.555l5.612-8.23V79.28h-5.13v-1.099h6.845v0.797l-5.597,8.2v0.045h5.672v1.098H0.323V87.555z"/>
	<path d="M10.647,78.182V84.2c0,2.257,1.008,3.22,2.362,3.22c1.49,0,2.467-0.993,2.467-3.22v-6.018H16.8v5.928
		c0,3.115-1.64,4.378-3.837,4.378c-2.076,0-3.641-1.173-3.641-4.333v-5.973H10.647z"/>
	<path d="M19.076,78.302c0.632-0.105,1.459-0.196,2.512-0.196c1.294,0,2.242,0.301,2.844,0.843c0.542,0.481,0.888,1.219,0.888,2.121
		c0,0.918-0.271,1.64-0.782,2.167c-0.707,0.737-1.82,1.114-3.099,1.114c-0.391,0-0.752-0.015-1.053-0.09v4.062h-1.309V78.302z
		 M20.385,83.192c0.286,0.075,0.647,0.105,1.083,0.105c1.58,0,2.542-0.783,2.542-2.152c0-1.354-0.963-2.001-2.392-2.001
		c-0.572,0-1.008,0.045-1.234,0.105V83.192z"/>
	<path d="M27.083,78.302c0.632-0.105,1.459-0.196,2.513-0.196c1.294,0,2.242,0.301,2.844,0.843c0.542,0.481,0.888,1.219,0.888,2.121
		c0,0.918-0.271,1.64-0.782,2.167c-0.707,0.737-1.82,1.114-3.099,1.114c-0.391,0-0.752-0.015-1.053-0.09v4.062h-1.309V78.302z
		 M28.392,83.192c0.286,0.075,0.647,0.105,1.083,0.105c1.58,0,2.543-0.783,2.543-2.152c0-1.354-0.963-2.001-2.392-2.001
		c-0.572,0-1.008,0.045-1.234,0.105V83.192z"/>
	<path d="M40.325,83.568h-3.927v3.656h4.393v1.098h-5.717V78.182h5.491v1.099h-4.167v3.205h3.927V83.568z"/>
	<path d="M42.495,78.317c0.662-0.121,1.625-0.211,2.512-0.211c1.399,0,2.317,0.271,2.934,0.828c0.496,0.451,0.797,1.144,0.797,1.941
		c0,1.324-0.843,2.211-1.896,2.573v0.045c0.767,0.271,1.234,0.993,1.474,2.046c0.331,1.414,0.572,2.392,0.782,2.783h-1.354
		c-0.166-0.301-0.391-1.159-0.662-2.422c-0.301-1.399-0.858-1.926-2.046-1.971h-1.234v4.393h-1.309V78.317z M43.803,82.936h1.339
		c1.399,0,2.287-0.767,2.287-1.926c0-1.309-0.948-1.88-2.332-1.88c-0.632,0-1.068,0.045-1.294,0.105V82.936z"/>
</g>
<g>
	
		<path fill-rule="evenodd" clip-rule="evenodd" fill="#FFFFFF" stroke="#000000" stroke-width="0.75" stroke-linecap="round" stroke-linejoin="round" stroke-miterlimit="10" d="
		M118.494,277.06c-0.002-3.122-3.378-5.07-6.083-3.51c-2.705,1.567-2.7,5.466,0.005,7.026c2.707,1.554,6.076-0.395,6.078-3.515"/>
</g>
<g>
	
		<polyline fill-rule="evenodd" clip-rule="evenodd" fill="#FFFFFF" stroke="#000000" stroke-width="0.75" stroke-linecap="round" stroke-linejoin="round" stroke-miterlimit="10" points="
		113.736,281.272 108.747,290.007 118.807,290.007 113.736,281.272 	"/>
</g>
<g>
	
		<line fill-rule="evenodd" clip-rule="evenodd" fill="none" stroke="#000000" stroke-width="0.75" stroke-linecap="round" stroke-linejoin="round" stroke-miterlimit="10" x1="104.379" y1="290.709" x2="391.854" y2="290.709"/>
</g>
</svg>
