<?xml version="1.0" encoding="utf-8"?>
<!-- Generator: Adobe Illustrator 15.0.0, SVG Export Plug-In . SVG Version: 6.00 Build 0)  -->
<!DOCTYPE svg PUBLIC "-//W3C//DTD SVG 1.1//EN" "http://www.w3.org/Graphics/SVG/1.1/DTD/svg11.dtd">
<svg version="1.1" xmlns="http://www.w3.org/2000/svg" xmlns:xlink="http://www.w3.org/1999/xlink" x="0px" y="0px" width="720px"
	 height="365px" viewBox="0 0 720 365" enable-background="new 0 0 720 365" xml:space="preserve">
<g>
	
		<polyline fill-rule="evenodd" clip-rule="evenodd" fill="none" stroke="#48484A" stroke-width="2" stroke-linecap="round" stroke-linejoin="round" stroke-miterlimit="10" points="
		716.588,317.408 96.935,317.408 96.935,4.674 	"/>
</g>
<g>
	<polyline fill="#48484A" stroke="#48484A" stroke-linecap="round" stroke-linejoin="round" stroke-miterlimit="10" points="
		695.756,325.568 716.588,317.408 695.756,309.335 695.756,325.568 	"/>
</g>
<g>
	<polyline fill="#48484A" stroke="#48484A" stroke-linecap="round" stroke-linejoin="round" stroke-miterlimit="10" points="
		88.863,25.505 96.935,4.674 105.094,25.505 88.863,25.505 	"/>
</g>
<g>
	
		<path fill-rule="evenodd" clip-rule="evenodd" stroke="#48484A" stroke-linecap="round" stroke-linejoin="round" stroke-miterlimit="10" d="
		M280.773,139.124c-0.005-5.346-5.786-8.683-10.416-6.012c-4.631,2.687-4.622,9.36,0.009,12.031
		C275,147.806,280.77,144.471,280.773,139.124"/>
</g>
<g>
	
		<path fill-rule="evenodd" clip-rule="evenodd" stroke="#48484A" stroke-linecap="round" stroke-linejoin="round" stroke-miterlimit="10" d="
		M486.487,254.131c-0.007-5.345-5.786-8.682-10.418-6.012c-4.63,2.686-4.621,9.36,0.009,12.03
		c4.634,2.665,10.404-0.672,10.409-6.017"/>
</g>
<g>
	<path d="M7.851,131.762h2.268v18.298H7.851V131.762z"/>
	<path d="M25.221,143.721c0,4.613-3.221,6.624-6.211,6.624c-3.35,0-5.979-2.474-5.979-6.417c0-4.149,2.758-6.598,6.185-6.598
		C22.798,137.329,25.221,139.932,25.221,143.721z M15.35,143.85c0,2.732,1.546,4.793,3.763,4.793c2.165,0,3.789-2.036,3.789-4.845
		c0-2.113-1.057-4.768-3.737-4.768C16.51,139.03,15.35,141.504,15.35,143.85z"/>
	<path d="M38.75,148.231c0,2.886-0.593,4.613-1.778,5.721c-1.237,1.108-2.99,1.495-4.562,1.495c-1.495,0-3.144-0.361-4.149-1.031
		l0.567-1.752c0.825,0.541,2.113,1.005,3.66,1.005c2.32,0,4.021-1.211,4.021-4.381v-1.366h-0.052
		c-0.67,1.16-2.036,2.087-3.969,2.087c-3.093,0-5.309-2.628-5.309-6.082c0-4.227,2.758-6.598,5.644-6.598
		c2.165,0,3.324,1.108,3.891,2.139h0.052l0.077-1.881h2.01c-0.077,0.876-0.103,1.907-0.103,3.402V148.231z M36.482,142.509
		c0-0.387-0.026-0.722-0.129-1.005c-0.412-1.34-1.495-2.423-3.17-2.423c-2.165,0-3.711,1.83-3.711,4.716
		c0,2.448,1.263,4.484,3.686,4.484c1.417,0,2.68-0.876,3.144-2.319c0.129-0.387,0.18-0.825,0.18-1.211V142.509z"/>
</g>
<g>
	<path d="M53.622,133.459c1.332-0.226,2.915-0.377,4.649-0.377c3.141,0,5.378,0.754,6.861,2.111
		c1.533,1.382,2.413,3.342,2.413,6.082c0,2.764-0.88,5.026-2.438,6.584c-1.608,1.583-4.222,2.438-7.514,2.438
		c-1.583,0-2.865-0.076-3.971-0.201V133.459z M55.808,148.437c0.553,0.076,1.357,0.101,2.211,0.101c4.7,0,7.213-2.614,7.213-7.188
		c0.025-3.996-2.237-6.534-6.861-6.534c-1.131,0-1.985,0.101-2.563,0.226V148.437z"/>
</g>
<g>
	<path d="M69.186,147.329c1.005,0.645,2.448,1.134,3.995,1.134c2.293,0,3.634-1.211,3.634-2.964c0-1.598-0.928-2.552-3.273-3.428
		c-2.835-1.031-4.587-2.526-4.587-4.948c0-2.706,2.242-4.716,5.618-4.716c1.752,0,3.067,0.412,3.814,0.851l-0.619,1.83
		c-0.541-0.335-1.701-0.825-3.273-0.825c-2.371,0-3.273,1.417-3.273,2.603c0,1.624,1.057,2.422,3.453,3.351
		c2.938,1.134,4.407,2.551,4.407,5.103c0,2.681-1.959,5.026-6.057,5.026c-1.675,0-3.505-0.516-4.433-1.134L69.186,147.329z"/>
</g>
<g>
	<path d="M88.193,147.981h-0.03l-1.674,0.904l-0.252-0.993l2.104-1.126h1.111v9.63h-1.259V147.981z"/>
</g>
<g>
	<path d="M291.792,124.111l-1.804,5.464h-2.319l5.927-17.371h2.68l5.928,17.371h-2.396l-1.856-5.464H291.792z M297.513,122.359
		l-1.727-5c-0.387-1.134-0.645-2.165-0.902-3.17h-0.051c-0.258,1.005-0.516,2.087-0.876,3.144l-1.701,5.025H297.513z"/>
</g>
<g>
	<path d="M618.737,336.954h2.268v18.298h-2.268V336.954z"/>
	<path d="M636.107,348.913c0,4.613-3.221,6.624-6.211,6.624c-3.351,0-5.979-2.474-5.979-6.417c0-4.149,2.757-6.598,6.185-6.598
		C633.685,342.521,636.107,345.124,636.107,348.913z M626.236,349.042c0,2.732,1.546,4.793,3.763,4.793
		c2.165,0,3.789-2.036,3.789-4.845c0-2.113-1.057-4.768-3.737-4.768C627.396,344.222,626.236,346.696,626.236,349.042z"/>
	<path d="M649.636,353.423c0,2.886-0.592,4.613-1.778,5.721c-1.237,1.108-2.99,1.495-4.562,1.495c-1.495,0-3.144-0.361-4.149-1.031
		l0.567-1.752c0.825,0.541,2.113,1.005,3.66,1.005c2.319,0,4.021-1.211,4.021-4.381v-1.366h-0.052
		c-0.67,1.16-2.036,2.087-3.969,2.087c-3.093,0-5.309-2.628-5.309-6.082c0-4.227,2.757-6.598,5.644-6.598
		c2.165,0,3.325,1.108,3.892,2.139h0.051l0.078-1.881h2.01c-0.078,0.876-0.104,1.907-0.104,3.402V353.423z M647.369,347.701
		c0-0.387-0.026-0.722-0.129-1.005c-0.413-1.34-1.495-2.423-3.17-2.423c-2.165,0-3.711,1.83-3.711,4.716
		c0,2.448,1.263,4.484,3.686,4.484c1.417,0,2.68-0.876,3.144-2.319c0.129-0.387,0.181-0.825,0.181-1.211V347.701z"/>
	<path d="M658.912,355.252v-17.371h2.474l5.541,8.789c1.263,2.036,2.294,3.866,3.093,5.644l0.077-0.026
		c-0.206-2.319-0.257-4.433-0.257-7.139v-7.268h2.113v17.371h-2.268l-5.515-8.814c-1.211-1.933-2.371-3.917-3.222-5.799
		l-0.077,0.026c0.129,2.19,0.154,4.278,0.154,7.165v7.422H658.912z"/>
</g>
<g>
	
		<line fill-rule="evenodd" clip-rule="evenodd" fill="none" stroke="#48484A" stroke-width="3" stroke-linecap="round" stroke-linejoin="round" stroke-miterlimit="10" x1="215.761" y1="105.533" x2="530.926" y2="282.775"/>
</g>
<g>
	
		<polyline fill-rule="evenodd" clip-rule="evenodd" fill="none" stroke="#48484A" stroke-width="2" stroke-linecap="round" stroke-linejoin="round" stroke-miterlimit="10" points="
		97.37,140.86 275.912,140.86 275.912,316.627 274.438,137.561 	"/>
</g>
<g>
	
		<polyline fill-rule="evenodd" clip-rule="evenodd" fill="none" stroke="#48484A" stroke-width="2" stroke-linecap="round" stroke-linejoin="round" stroke-miterlimit="10" points="
		96.761,253.958 477.286,253.958 477.286,319.23 479.455,259.861 	"/>
</g>
<g>
	<path d="M7.851,46.787h2.268v18.298H7.851V46.787z"/>
	<path d="M25.221,58.745c0,4.613-3.221,6.624-6.211,6.624c-3.35,0-5.979-2.474-5.979-6.417c0-4.149,2.758-6.598,6.185-6.598
		C22.798,52.354,25.221,54.957,25.221,58.745z M15.35,58.874c0,2.732,1.546,4.793,3.763,4.793c2.165,0,3.789-2.036,3.789-4.845
		c0-2.113-1.057-4.768-3.737-4.768C16.51,54.055,15.35,56.529,15.35,58.874z"/>
	<path d="M38.75,63.255c0,2.886-0.593,4.613-1.778,5.721c-1.237,1.108-2.99,1.495-4.562,1.495c-1.495,0-3.144-0.361-4.149-1.031
		l0.567-1.752c0.825,0.541,2.113,1.005,3.66,1.005c2.32,0,4.021-1.211,4.021-4.381v-1.366h-0.052
		c-0.67,1.16-2.036,2.087-3.969,2.087c-3.093,0-5.309-2.628-5.309-6.082c0-4.227,2.758-6.598,5.644-6.598
		c2.165,0,3.324,1.108,3.891,2.139h0.052l0.077-1.881h2.01c-0.077,0.876-0.103,1.907-0.103,3.402V63.255z M36.482,57.534
		c0-0.387-0.026-0.722-0.129-1.005c-0.412-1.34-1.495-2.423-3.17-2.423c-2.165,0-3.711,1.83-3.711,4.716
		c0,2.448,1.263,4.484,3.686,4.484c1.417,0,2.68-0.876,3.144-2.319c0.129-0.387,0.18-0.825,0.18-1.211V57.534z"/>
</g>
<g>
	<path d="M53.622,48.398c1.332-0.226,2.915-0.377,4.649-0.377c3.141,0,5.378,0.754,6.861,2.111c1.533,1.382,2.413,3.342,2.413,6.082
		c0,2.764-0.88,5.026-2.438,6.584c-1.608,1.583-4.222,2.438-7.514,2.438c-1.583,0-2.865-0.076-3.971-0.201V48.398z M55.808,63.376
		c0.553,0.076,1.357,0.101,2.211,0.101c4.7,0,7.213-2.614,7.213-7.188c0.025-3.996-2.237-6.534-6.861-6.534
		c-1.131,0-1.985,0.101-2.563,0.226V63.376z"/>
</g>
<g>
	<path d="M69.186,62.353c1.005,0.645,2.448,1.134,3.995,1.134c2.293,0,3.634-1.211,3.634-2.964c0-1.598-0.928-2.552-3.273-3.428
		c-2.835-1.031-4.587-2.526-4.587-4.948c0-2.706,2.242-4.716,5.618-4.716c1.752,0,3.067,0.412,3.814,0.85l-0.619,1.83
		c-0.541-0.335-1.701-0.825-3.273-0.825c-2.371,0-3.273,1.417-3.273,2.603c0,1.624,1.057,2.422,3.453,3.351
		c2.938,1.134,4.407,2.551,4.407,5.103c0,2.681-1.959,5.026-6.057,5.026c-1.675,0-3.505-0.516-4.433-1.134L69.186,62.353z"/>
</g>
<g>
	<path d="M7.851,242.95h2.268v18.298H7.851V242.95z"/>
	<path d="M25.221,254.908c0,4.613-3.221,6.624-6.211,6.624c-3.35,0-5.979-2.474-5.979-6.417c0-4.149,2.758-6.598,6.185-6.598
		C22.798,248.517,25.221,251.12,25.221,254.908z M15.35,255.037c0,2.732,1.546,4.793,3.763,4.793c2.165,0,3.789-2.036,3.789-4.845
		c0-2.113-1.057-4.768-3.737-4.768C16.51,250.218,15.35,252.692,15.35,255.037z"/>
	<path d="M38.75,259.418c0,2.886-0.593,4.613-1.778,5.721c-1.237,1.108-2.99,1.495-4.562,1.495c-1.495,0-3.144-0.361-4.149-1.031
		l0.567-1.752c0.825,0.541,2.113,1.005,3.66,1.005c2.32,0,4.021-1.211,4.021-4.381v-1.366h-0.052
		c-0.67,1.16-2.036,2.087-3.969,2.087c-3.093,0-5.309-2.628-5.309-6.082c0-4.227,2.758-6.598,5.644-6.598
		c2.165,0,3.324,1.108,3.891,2.139h0.052l0.077-1.881h2.01c-0.077,0.876-0.103,1.907-0.103,3.402V259.418z M36.482,253.697
		c0-0.387-0.026-0.722-0.129-1.005c-0.412-1.34-1.495-2.423-3.17-2.423c-2.165,0-3.711,1.83-3.711,4.716
		c0,2.448,1.263,4.484,3.686,4.484c1.417,0,2.68-0.876,3.144-2.319c0.129-0.387,0.18-0.825,0.18-1.211V253.697z"/>
</g>
<g>
	<path d="M53.622,244.561c1.332-0.226,2.915-0.377,4.649-0.377c3.141,0,5.378,0.754,6.861,2.111
		c1.533,1.382,2.413,3.342,2.413,6.082c0,2.764-0.88,5.026-2.438,6.584c-1.608,1.583-4.222,2.438-7.514,2.438
		c-1.583,0-2.865-0.076-3.971-0.201V244.561z M55.808,259.539c0.553,0.076,1.357,0.101,2.211,0.101c4.7,0,7.213-2.614,7.213-7.188
		c0.025-3.996-2.237-6.534-6.861-6.534c-1.131,0-1.985,0.101-2.563,0.226V259.539z"/>
</g>
<g>
	<path d="M69.186,258.516c1.005,0.645,2.448,1.134,3.995,1.134c2.293,0,3.634-1.211,3.634-2.964c0-1.598-0.928-2.552-3.273-3.428
		c-2.835-1.031-4.587-2.526-4.587-4.948c0-2.706,2.242-4.716,5.618-4.716c1.752,0,3.067,0.412,3.814,0.851l-0.619,1.83
		c-0.541-0.335-1.701-0.825-3.273-0.825c-2.371,0-3.273,1.417-3.273,2.603c0,1.624,1.057,2.422,3.453,3.351
		c2.938,1.134,4.407,2.551,4.407,5.103c0,2.681-1.959,5.026-6.057,5.026c-1.675,0-3.505-0.516-4.433-1.134L69.186,258.516z"/>
</g>
<g>
	<path d="M85.363,267.499v-0.8l1.022-0.993c2.459-2.341,3.585-3.585,3.585-5.037c0-0.978-0.459-1.882-1.896-1.882
		c-0.874,0-1.6,0.444-2.044,0.815l-0.415-0.919c0.652-0.548,1.615-0.978,2.711-0.978c2.074,0,2.949,1.422,2.949,2.8
		c0,1.778-1.289,3.215-3.319,5.171l-0.756,0.711v0.03h4.312v1.082H85.363z"/>
</g>
<g>
	<path d="M249.238,333.567h2.268v18.298h-2.268V333.567z"/>
	<path d="M266.607,345.526c0,4.613-3.221,6.624-6.211,6.624c-3.351,0-5.979-2.474-5.979-6.417c0-4.149,2.757-6.598,6.185-6.598
		C264.185,339.134,266.607,341.737,266.607,345.526z M256.737,345.655c0,2.732,1.546,4.793,3.763,4.793
		c2.165,0,3.789-2.036,3.789-4.845c0-2.113-1.057-4.768-3.737-4.768C257.896,340.835,256.737,343.31,256.737,345.655z"/>
	<path d="M280.137,350.036c0,2.886-0.593,4.613-1.778,5.721c-1.237,1.108-2.99,1.495-4.562,1.495c-1.495,0-3.144-0.361-4.149-1.031
		l0.567-1.752c0.825,0.541,2.113,1.005,3.66,1.005c2.319,0,4.02-1.211,4.02-4.381v-1.366h-0.051c-0.67,1.16-2.036,2.087-3.969,2.087
		c-3.093,0-5.309-2.628-5.309-6.082c0-4.227,2.757-6.598,5.644-6.598c2.165,0,3.325,1.108,3.892,2.139h0.051l0.078-1.881h2.01
		c-0.078,0.876-0.104,1.907-0.104,3.402V350.036z M277.869,344.314c0-0.387-0.026-0.722-0.129-1.005
		c-0.413-1.34-1.495-2.423-3.17-2.423c-2.165,0-3.711,1.83-3.711,4.716c0,2.448,1.263,4.484,3.686,4.484
		c1.417,0,2.68-0.876,3.144-2.319c0.129-0.387,0.181-0.825,0.181-1.211V344.314z"/>
	<path d="M289.413,351.866v-17.371h2.474l5.541,8.789c1.263,2.036,2.294,3.866,3.093,5.644l0.077-0.026
		c-0.206-2.319-0.257-4.433-0.257-7.139v-7.268h2.113v17.371h-2.268l-5.515-8.814c-1.211-1.933-2.371-3.917-3.222-5.799
		l-0.077,0.026c0.129,2.19,0.154,4.278,0.154,7.165v7.422H289.413z"/>
</g>
<g>
	<path d="M315.256,349.701h-0.03l-1.674,0.904l-0.252-0.993l2.104-1.126h1.111v9.63h-1.259V349.701z"/>
</g>
<g>
	<path d="M486.448,225.648c0.979-0.232,2.552-0.386,4.098-0.386c2.242,0,3.685,0.386,4.742,1.263
		c0.902,0.67,1.469,1.701,1.469,3.067c0,1.701-1.134,3.17-2.938,3.814v0.078c1.649,0.386,3.582,1.752,3.582,4.33
		c0,1.495-0.593,2.654-1.495,3.479c-1.186,1.108-3.144,1.624-5.979,1.624c-1.546,0-2.732-0.103-3.479-0.207V225.648z
		 M488.69,232.762h2.036c2.345,0,3.737-1.263,3.737-2.938c0-2.01-1.521-2.835-3.789-2.835c-1.031,0-1.624,0.077-1.984,0.155V232.762
		z M488.69,241.06c0.464,0.078,1.083,0.104,1.881,0.104c2.32,0,4.459-0.851,4.459-3.376c0-2.345-2.036-3.35-4.484-3.35h-1.856
		V241.06z"/>
</g>
</svg>
