<?xml version="1.0" encoding="utf-8"?>
<!-- Generator: Adobe Illustrator 15.0.0, SVG Export Plug-In . SVG Version: 6.00 Build 0)  -->
<!DOCTYPE svg PUBLIC "-//W3C//DTD SVG 1.1//EN" "http://www.w3.org/Graphics/SVG/1.1/DTD/svg11.dtd">
<svg version="1.1" id="_x3C_Layer_x3E_" xmlns="http://www.w3.org/2000/svg" xmlns:xlink="http://www.w3.org/1999/xlink" x="0px"
	 y="0px" width="739.5px" height="464.5px" viewBox="0 0 739.5 464.5" enable-background="new 0 0 739.5 464.5"
	 xml:space="preserve">
<g>
	
		<polyline fill-rule="evenodd" clip-rule="evenodd" fill="none" stroke="#000000" stroke-width="2" stroke-linecap="round" stroke-linejoin="round" stroke-miterlimit="10" points="
		42.897,418.589 118.142,388.611 273.286,242.111 391.261,145.53 452.242,112.956 518.904,97.724 	"/>
</g>
<g>
	
		<line fill-rule="evenodd" clip-rule="evenodd" fill="none" stroke="#000000" stroke-width="2" stroke-linecap="round" stroke-linejoin="round" stroke-miterlimit="10" x1="32.2" y1="248.214" x2="575.294" y2="248.214"/>
</g>
<g>
	
		<polyline fill-rule="evenodd" clip-rule="evenodd" stroke="#000000" stroke-linecap="round" stroke-linejoin="round" stroke-miterlimit="10" points="
		559.156,240.178 575.294,248.214 559.156,256.313 559.156,240.178 	"/>
</g>
<g>
	
		<line fill-rule="evenodd" clip-rule="evenodd" fill="none" stroke="#000000" stroke-width="2" stroke-linecap="round" stroke-linejoin="round" stroke-miterlimit="10" x1="272.258" y1="441.979" x2="272.258" y2="41.275"/>
</g>
<g>
	
		<polyline fill-rule="evenodd" clip-rule="evenodd" stroke="#000000" stroke-linecap="round" stroke-linejoin="round" stroke-miterlimit="10" points="
		264.16,57.413 272.258,41.275 280.297,57.413 264.16,57.413 	"/>
</g>
<g>
	<path d="M217.862,7.183h9.932V9.18h-7.524v6.128h6.949v1.97h-6.949v8.345h-2.408V7.183z"/>
	<path d="M246.972,16.211c0,6.32-3.857,9.712-8.563,9.712c-4.897,0-8.29-3.803-8.29-9.384c0-5.855,3.611-9.685,8.536-9.685
		C243.716,6.854,246.972,10.712,246.972,16.211z M232.636,16.485c0,3.967,2.134,7.496,5.91,7.496c3.775,0,5.91-3.475,5.91-7.661
		c0-3.693-1.916-7.523-5.882-7.523C234.605,8.797,232.636,12.463,232.636,16.485z"/>
	<path d="M250.062,7.429c1.204-0.219,2.955-0.383,4.569-0.383c2.544,0,4.213,0.492,5.335,1.505c0.903,0.82,1.45,2.079,1.45,3.529
		c0,2.407-1.532,4.021-3.447,4.678v0.082c1.396,0.493,2.244,1.806,2.681,3.721c0.602,2.572,1.04,4.35,1.423,5.062h-2.462
		c-0.301-0.547-0.711-2.106-1.204-4.405c-0.547-2.544-1.56-3.502-3.721-3.584h-2.244v7.989h-2.38V7.429z M252.442,15.828h2.435
		c2.544,0,4.159-1.396,4.159-3.502c0-2.38-1.724-3.42-4.241-3.42c-1.149,0-1.942,0.082-2.353,0.191V15.828z"/>
	<path d="M277.721,25.048c-0.848,0.438-2.626,0.875-4.87,0.875c-5.198,0-9.083-3.283-9.083-9.356c0-5.8,3.913-9.685,9.63-9.685
		c2.271,0,3.748,0.492,4.377,0.821l-0.602,1.942c-0.875-0.438-2.161-0.766-3.693-0.766c-4.323,0-7.195,2.763-7.195,7.606
		c0,4.542,2.599,7.414,7.059,7.414c1.478,0,2.955-0.301,3.913-0.766L277.721,25.048z"/>
	<path d="M290.25,16.977h-7.141v6.648h7.989v1.997h-10.396V7.183h9.986V9.18h-7.579v5.828h7.141V16.977z"/>
</g>
<g>
	<path d="M546.462,97.239h-7.141v6.648h7.988v1.997h-10.396v-18.44h9.986v1.997h-7.578v5.828h7.141V97.239z"/>
	<path d="M553.383,100.084l-1.915,5.8h-2.463l6.293-18.44h2.846l6.292,18.44h-2.544l-1.97-5.8H553.383z M559.456,98.224
		l-1.833-5.308c-0.41-1.204-0.684-2.298-0.957-3.365h-0.055c-0.273,1.067-0.548,2.216-0.931,3.338l-1.806,5.335H559.456z"/>
	<path d="M567.115,87.444h9.932v1.997h-7.523v6.128h6.949v1.97h-6.949v8.345h-2.408V87.444z"/>
	<path d="M585.582,86.897c-1.997,2.708-3.42,6.238-3.42,11.217c0,4.87,1.505,8.345,3.42,11.081h-1.86
		c-1.724-2.271-3.584-5.773-3.584-11.108c0.027-5.362,1.86-8.892,3.584-11.19H585.582z"/>
	<path d="M588.235,105.884v-18.44h2.627l5.882,9.33c1.341,2.161,2.435,4.104,3.283,5.991l0.082-0.027
		c-0.219-2.462-0.273-4.706-0.273-7.578v-7.715h2.243v18.44h-2.407l-5.855-9.357c-1.285-2.052-2.517-4.158-3.42-6.156l-0.082,0.027
		c0.137,2.326,0.164,4.542,0.164,7.606v7.879H588.235z"/>
	<path d="M604.704,109.195c1.915-2.708,3.42-6.238,3.42-11.163s-1.478-8.399-3.42-11.135h1.86c1.724,2.244,3.584,5.773,3.584,11.135
		c-0.027,5.362-1.86,8.864-3.584,11.163H604.704z"/>
	<path d="M612.364,109.277c0.603-1.642,1.341-4.569,1.642-6.566l2.682-0.273c-0.657,2.326-1.86,5.362-2.627,6.648L612.364,109.277z"
		/>
	<path d="M634.989,97.239h-7.141v6.648h7.988v1.997H625.44v-18.44h9.986v1.997h-7.578v5.828h7.141V97.239z"/>
	<path d="M638.9,87.444h2.408v16.443h7.879v1.997H638.9V87.444z"/>
	<path d="M666.532,96.473c0,6.32-3.857,9.712-8.563,9.712c-4.896,0-8.289-3.803-8.289-9.384c0-5.855,3.611-9.685,8.535-9.685
		C663.276,87.116,666.532,90.974,666.532,96.473z M652.196,96.747c0,3.967,2.134,7.496,5.909,7.496c3.776,0,5.91-3.475,5.91-7.661
		c0-3.693-1.915-7.523-5.883-7.523C654.166,89.059,652.196,92.725,652.196,96.747z"/>
	<path d="M669.622,105.884v-18.44h2.627l5.882,9.33c1.341,2.161,2.435,4.104,3.283,5.991l0.082-0.027
		c-0.219-2.462-0.273-4.706-0.273-7.578v-7.715h2.243v18.44h-2.407l-5.855-9.357c-1.285-2.052-2.517-4.158-3.42-6.156l-0.082,0.027
		c0.137,2.326,0.164,4.542,0.164,7.606v7.879H669.622z"/>
	<path d="M701.687,105.063c-1.066,0.411-3.201,1.012-5.69,1.012c-2.791,0-5.089-0.711-6.895-2.435
		c-1.587-1.532-2.571-3.994-2.571-6.867c0-5.5,3.803-9.521,9.985-9.521c2.134,0,3.83,0.465,4.624,0.848l-0.602,1.942
		c-0.985-0.465-2.217-0.793-4.077-0.793c-4.486,0-7.414,2.791-7.414,7.414c0,4.679,2.791,7.442,7.113,7.442
		c1.56,0,2.627-0.219,3.174-0.493v-5.499h-3.721v-1.915h6.073V105.063z"/>
	<path d="M710.413,86.897c-1.997,2.708-3.42,6.238-3.42,11.217c0,4.87,1.505,8.345,3.42,11.081h-1.86
		c-1.724-2.271-3.584-5.773-3.584-11.108c0.027-5.362,1.86-8.892,3.584-11.19H710.413z"/>
	<path d="M713.065,105.884v-18.44h2.627l5.882,9.33c1.341,2.161,2.435,4.104,3.283,5.991l0.082-0.027
		c-0.219-2.462-0.273-4.706-0.273-7.578v-7.715h2.243v18.44h-2.407l-5.855-9.357c-1.285-2.052-2.517-4.158-3.42-6.156l-0.082,0.027
		c0.137,2.326,0.164,4.542,0.164,7.606v7.879H713.065z"/>
	<path d="M729.534,109.195c1.915-2.708,3.42-6.238,3.42-11.163s-1.478-8.399-3.42-11.135h1.86c1.724,2.244,3.584,5.773,3.584,11.135
		c-0.027,5.362-1.86,8.864-3.584,11.163H729.534z"/>
</g>
<g>
	<path d="M14.005,446.568H6.865v6.648h7.989v1.997H4.457v-18.44h9.986v1.998H6.865v5.827h7.141V446.568z"/>
	<path d="M20.926,449.414l-1.915,5.8h-2.462l6.292-18.44h2.845l6.292,18.44h-2.544l-1.97-5.8H20.926z M27,447.554l-1.833-5.308
		c-0.411-1.204-0.684-2.299-0.958-3.365h-0.055c-0.273,1.066-0.547,2.216-0.93,3.338l-1.806,5.335H27z"/>
	<path d="M34.66,436.773h9.932v1.998h-7.524v6.128h6.949v1.97h-6.949v8.345H34.66V436.773z"/>
	<path d="M53.126,436.227c-1.997,2.709-3.42,6.238-3.42,11.218c0,4.869,1.505,8.344,3.42,11.08h-1.86
		c-1.724-2.271-3.584-5.772-3.584-11.107c0.027-5.363,1.86-8.893,3.584-11.19H53.126z"/>
	<path d="M60.157,439.674h-0.055l-3.091,1.669l-0.465-1.833l3.885-2.079h2.052v17.783h-2.326V439.674z"/>
	<path d="M68.282,458.524c1.915-2.709,3.42-6.238,3.42-11.162c0-4.925-1.478-8.399-3.42-11.136h1.86
		c1.724,2.243,3.584,5.772,3.584,11.136c-0.027,5.362-1.86,8.864-3.584,11.162H68.282z"/>
	<path d="M75.941,458.606c0.602-1.642,1.341-4.569,1.642-6.566l2.681-0.273c-0.656,2.325-1.86,5.362-2.626,6.648L75.941,458.606z"/>
	<path d="M98.566,446.568h-7.141v6.648h7.989v1.997H89.018v-18.44h9.986v1.998h-7.579v5.827h7.141V446.568z"/>
	<path d="M102.477,436.773h2.408v16.443h7.879v1.997h-10.287V436.773z"/>
	<path d="M130.109,445.803c0,6.319-3.857,9.712-8.563,9.712c-4.897,0-8.29-3.803-8.29-9.384c0-5.855,3.611-9.686,8.536-9.686
		C126.854,436.445,130.109,440.303,130.109,445.803z M115.773,446.076c0,3.967,2.134,7.496,5.91,7.496
		c3.775,0,5.909-3.475,5.909-7.66c0-3.693-1.915-7.524-5.882-7.524C117.743,438.388,115.773,442.054,115.773,446.076z"/>
	<path d="M133.2,455.214v-18.44h2.626l5.882,9.33c1.341,2.161,2.435,4.104,3.283,5.991l0.082-0.027
		c-0.219-2.462-0.273-4.705-0.273-7.578v-7.716h2.243v18.44h-2.408l-5.854-9.356c-1.286-2.053-2.517-4.159-3.42-6.156l-0.082,0.027
		c0.137,2.325,0.164,4.542,0.164,7.605v7.88H133.2z"/>
	<path d="M165.263,454.394c-1.067,0.41-3.201,1.012-5.69,1.012c-2.791,0-5.089-0.711-6.895-2.435
		c-1.587-1.532-2.572-3.995-2.572-6.867c0-5.499,3.803-9.521,9.986-9.521c2.134,0,3.83,0.466,4.624,0.849l-0.602,1.942
		c-0.985-0.465-2.216-0.793-4.077-0.793c-4.487,0-7.414,2.79-7.414,7.414c0,4.678,2.791,7.441,7.113,7.441
		c1.56,0,2.626-0.219,3.174-0.492v-5.499h-3.721v-1.916h6.074V454.394z"/>
	<path d="M173.99,436.227c-1.997,2.709-3.42,6.238-3.42,11.218c0,4.869,1.505,8.344,3.42,11.08h-1.86
		c-1.724-2.271-3.584-5.772-3.584-11.107c0.027-5.363,1.86-8.893,3.584-11.19H173.99z"/>
	<path d="M181.02,439.674h-0.055l-3.091,1.669l-0.465-1.833l3.885-2.079h2.052v17.783h-2.326V439.674z"/>
	<path d="M189.145,458.524c1.915-2.709,3.42-6.238,3.42-11.162c0-4.925-1.478-8.399-3.42-11.136h1.86
		c1.724,2.243,3.584,5.772,3.584,11.136c-0.027,5.362-1.86,8.864-3.584,11.162H189.145z"/>
</g>
<g>
	<path d="M503.974,275.651h-7.141v6.648h7.988v1.997h-10.396v-18.44h9.986v1.998h-7.578v5.827h7.141V275.651z"/>
	<path d="M507.885,265.856h2.408V282.3h7.879v1.997h-10.287V265.856z"/>
	<path d="M535.517,274.886c0,6.319-3.857,9.712-8.563,9.712c-4.896,0-8.289-3.803-8.289-9.384c0-5.855,3.611-9.686,8.535-9.686
		C532.261,265.528,535.517,269.386,535.517,274.886z M521.181,275.159c0,3.967,2.134,7.496,5.909,7.496
		c3.776,0,5.91-3.475,5.91-7.66c0-3.693-1.915-7.524-5.883-7.524C523.15,267.471,521.181,271.137,521.181,275.159z"/>
	<path d="M538.606,284.297v-18.44h2.627l5.882,9.33c1.341,2.161,2.435,4.104,3.283,5.991l0.082-0.027
		c-0.219-2.462-0.273-4.705-0.273-7.578v-7.716h2.243v18.44h-2.407l-5.855-9.356c-1.285-2.053-2.517-4.159-3.42-6.156l-0.082,0.027
		c0.137,2.325,0.164,4.542,0.164,7.606v7.879H538.606z"/>
	<path d="M570.67,283.477c-1.066,0.41-3.201,1.012-5.69,1.012c-2.791,0-5.089-0.711-6.895-2.435
		c-1.587-1.532-2.571-3.995-2.571-6.867c0-5.499,3.803-9.521,9.985-9.521c2.134,0,3.83,0.466,4.624,0.849l-0.602,1.942
		c-0.985-0.465-2.217-0.794-4.077-0.794c-4.486,0-7.414,2.791-7.414,7.415c0,4.678,2.791,7.441,7.113,7.441
		c1.56,0,2.627-0.219,3.174-0.492v-5.499h-3.721v-1.916h6.073V283.477z"/>
	<path d="M577.263,278.497l-1.915,5.8h-2.463l6.293-18.44h2.846l6.292,18.44h-2.544l-1.97-5.8H577.263z M583.336,276.637
		l-1.833-5.308c-0.41-1.204-0.684-2.299-0.957-3.365h-0.055c-0.273,1.066-0.548,2.216-0.931,3.338l-1.806,5.335H583.336z"/>
	<path d="M592.419,267.882h-5.608v-2.025h13.652v2.025h-5.636v16.415h-2.408V267.882z"/>
	<path d="M604.895,265.856v18.44h-2.408v-18.44H604.895z"/>
	<path d="M624.811,274.886c0,6.319-3.857,9.712-8.563,9.712c-4.897,0-8.289-3.803-8.289-9.384c0-5.855,3.611-9.686,8.535-9.686
		C621.555,265.528,624.811,269.386,624.811,274.886z M610.475,275.159c0,3.967,2.134,7.496,5.909,7.496
		c3.776,0,5.91-3.475,5.91-7.66c0-3.693-1.915-7.524-5.883-7.524C612.444,267.471,610.475,271.137,610.475,275.159z"/>
	<path d="M627.901,284.297v-18.44h2.627l5.882,9.33c1.341,2.161,2.435,4.104,3.283,5.991l0.082-0.027
		c-0.219-2.462-0.273-4.705-0.273-7.578v-7.716h2.243v18.44h-2.407l-5.855-9.356c-1.285-2.053-2.517-4.159-3.42-6.156l-0.082,0.027
		c0.137,2.325,0.164,4.542,0.164,7.606v7.879H627.901z"/>
</g>
</svg>
