<?xml version="1.0" encoding="utf-8"?>
<!-- Generator: Adobe Illustrator 15.0.0, SVG Export Plug-In . SVG Version: 6.00 Build 0)  -->
<!DOCTYPE svg PUBLIC "-//W3C//DTD SVG 1.1//EN" "http://www.w3.org/Graphics/SVG/1.1/DTD/svg11.dtd">
<svg version="1.1" id="_x3C_Layer_x3E_" xmlns="http://www.w3.org/2000/svg" xmlns:xlink="http://www.w3.org/1999/xlink" x="0px"
	 y="0px" width="725.5px" height="651.5px" viewBox="0 0 725.5 651.5" enable-background="new 0 0 725.5 651.5"
	 xml:space="preserve">
<g>
	
		<polyline fill-rule="evenodd" clip-rule="evenodd" fill="#E2E3E4" stroke="#000000" stroke-linejoin="round" stroke-miterlimit="10" points="
		353.3,336.518 365.411,311.909 678.171,466.596 678.04,466.726 677.52,467.116 676.867,467.638 676.087,468.288 674.264,469.721 
		672.701,471.022 672.181,471.544 671.53,472.194 670.097,473.888 668.795,475.841 668.404,476.752 668.274,477.664 
		668.404,479.617 668.534,480.528 668.534,481.44 668.664,483.263 668.274,485.216 667.884,488.081 667.884,490.553 
		668.014,491.467 668.145,492.248 668.274,492.769 668.274,492.897 353.3,336.518 	"/>
</g>
<g>
	
		<polyline fill-rule="evenodd" clip-rule="evenodd" fill="#E2E3E4" stroke="#000000" stroke-linejoin="round" stroke-miterlimit="10" points="
		317.754,340.164 304.602,323.626 19.708,546.674 19.708,546.804 19.838,547.063 20.229,548.105 20.749,549.668 21.528,551.752 
		22.961,556.309 23.614,558.654 24.133,560.867 24.654,562.69 25.436,563.991 26.349,565.034 27.258,565.685 28.169,566.075 
		28.951,566.205 29.472,566.335 29.602,566.335 317.754,340.164 	"/>
</g>
<g>
	
		<polyline fill-rule="evenodd" clip-rule="evenodd" fill="#E2E3E4" stroke="#000000" stroke-linejoin="round" stroke-miterlimit="10" points="
		330.124,284.694 355.645,289.252 403.17,13.08 403.04,13.08 402.779,13.21 401.607,13.601 399.914,13.992 398.091,14.382 
		396.14,14.772 394.316,14.903 392.883,14.643 392.361,14.382 392.102,13.992 391.711,13.34 391.061,12.559 389.237,10.996 
		384.94,7.871 382.729,6.569 380.905,5.397 380.124,5.006 379.604,4.616 379.213,4.485 379.081,4.355 330.124,284.694 	"/>
</g>
<g>
	
		<polyline fill-rule="evenodd" clip-rule="evenodd" fill="none" stroke="#000000" stroke-linecap="round" stroke-linejoin="round" stroke-miterlimit="10" points="
		367.885,8.522 371.4,5.397 374.784,3.965 378.561,3.965 381.427,5.397 389.107,12.559 392.754,14.122 398.873,14.382 
		414.238,12.689 412.806,12.819 	"/>
</g>
<g>
	
		<polyline fill-rule="evenodd" clip-rule="evenodd" fill="none" stroke="#000000" stroke-width="2" stroke-linecap="round" stroke-linejoin="round" stroke-miterlimit="10" points="
		651.869,502.793 660.201,500.188 664.759,497.063 667.363,493.68 668.014,491.467 667.624,485.607 667.102,480.008 
		668.145,476.622 672.181,471.544 678.561,466.335 685.854,462.299 	"/>
</g>
<g>
	
		<polyline fill-rule="evenodd" clip-rule="evenodd" fill="none" stroke="#000000" stroke-width="2" stroke-linecap="round" stroke-linejoin="round" stroke-miterlimit="10" points="
		4.342,541.334 9.29,541.074 14.108,542.377 18.015,544.98 20.358,548.366 24.133,560.867 26.868,564.773 31.946,568.55 
		38.066,570.894 43.795,571.935 	"/>
</g>
<g>
	
		<path fill-rule="evenodd" clip-rule="evenodd" fill="#ADB0B2" stroke="#000000" stroke-linecap="round" stroke-linejoin="round" stroke-miterlimit="10" d="
		M348.353,313.208c-0.012-11.827-12.801-19.209-23.048-13.303c-10.246,5.945-10.227,20.712,0.019,26.62
		c10.255,5.894,23.02-1.486,23.029-13.313"/>
</g>
<g>
	
		<line fill-rule="evenodd" clip-rule="evenodd" fill="none" stroke="#000000" stroke-width="2" stroke-linecap="round" stroke-linejoin="round" stroke-miterlimit="10" x1="369.187" y1="291.335" x2="516.062" y2="168.68"/>
</g>
<g>
	
		<polyline fill-rule="evenodd" clip-rule="evenodd" stroke="#000000" stroke-linecap="round" stroke-linejoin="round" stroke-miterlimit="10" points="
		497.051,173.106 516.062,168.68 508.249,186.517 497.051,173.106 	"/>
</g>
<g>
	
		<line fill-rule="evenodd" clip-rule="evenodd" fill="none" stroke="#000000" stroke-width="2" stroke-linecap="round" stroke-linejoin="round" stroke-miterlimit="10" x1="322.051" y1="283.653" x2="283.77" y2="113.861"/>
</g>
<g>
	
		<polyline fill-rule="evenodd" clip-rule="evenodd" stroke="#000000" stroke-linecap="round" stroke-linejoin="round" stroke-miterlimit="10" points="
		279.082,132.741 283.77,113.861 296.008,128.967 279.082,132.741 	"/>
</g>
<g>
	
		<line fill-rule="evenodd" clip-rule="evenodd" fill="none" stroke="#000000" stroke-width="2" stroke-linecap="round" stroke-linejoin="round" stroke-miterlimit="10" x1="308.899" y1="282.611" x2="188.458" y2="132.48"/>
</g>
<g>
	
		<polyline fill-rule="evenodd" clip-rule="evenodd" stroke="#000000" stroke-linecap="round" stroke-linejoin="round" stroke-miterlimit="10" points="
		192.624,151.491 188.458,132.48 206.164,140.554 192.624,151.491 	"/>
</g>
<path fill-rule="evenodd" clip-rule="evenodd" fill="none" stroke="#000000" stroke-width="2" stroke-linecap="round" stroke-linejoin="round" stroke-miterlimit="10" d="
	M204.862,188.34c15.365,7.683,25.261,7.683,31.771,2.213c6.642-5.469,3.256-14.191-3.255-32.812"/>
<g>
	
		<polyline fill-rule="evenodd" clip-rule="evenodd" fill="none" stroke="#000000" stroke-width="2" stroke-linecap="round" stroke-linejoin="round" stroke-miterlimit="10" points="
		231.426,173.106 233.379,157.742 244.577,168.55 	"/>
</g>
<path fill-rule="evenodd" clip-rule="evenodd" fill="none" stroke="#000000" stroke-width="2" stroke-linecap="round" stroke-linejoin="round" stroke-miterlimit="10" d="
	M276.087,152.272c6.642,17.449,16.145,23.048,23.047,21.876c6.771-1.302,15.364-5.468,17.448-29.559"/>
<g>
	
		<polyline fill-rule="evenodd" clip-rule="evenodd" fill="none" stroke="#000000" stroke-width="2" stroke-linecap="round" stroke-linejoin="round" stroke-miterlimit="10" points="
		308.508,157.742 316.582,144.59 322.312,159.043 	"/>
</g>
<path fill-rule="evenodd" clip-rule="evenodd" fill="none" stroke="#000000" stroke-width="2" stroke-linecap="round" stroke-linejoin="round" stroke-miterlimit="10" d="
	M482.075,221.282c14.194-13.149,13.543-27.864,8.726-33.984c-4.818-5.989-20.833-12.108-37.24-2.213"/>
<g>
	
		<polyline fill-rule="evenodd" clip-rule="evenodd" fill="none" stroke="#000000" stroke-width="2" stroke-linecap="round" stroke-linejoin="round" stroke-miterlimit="10" points="
		469.057,183.913 453.561,185.084 461.896,171.935 	"/>
</g>
<g>
	<path d="M299.52,71.078l5.072,13.816c0.58,1.546,1.159,3.382,1.546,4.783h0.097c0.435-1.401,0.918-3.188,1.497-4.879l4.638-13.72
		h4.493l-6.377,16.667c-3.043,8.019-5.121,12.077-8.02,14.638c-2.125,1.787-4.154,2.512-5.217,2.705l-1.063-3.526
		c1.063-0.338,2.463-1.015,3.719-2.077c1.16-0.918,2.561-2.561,3.575-4.734c0.193-0.435,0.338-0.773,0.338-1.015
		s-0.096-0.58-0.338-1.111l-8.599-21.546H299.52z"/>
</g>
<g>
	<path d="M141.411,151.893l10.531-13.768c1.063-1.304,2.029-2.416,3.092-3.671v-0.097h-12.657v-3.382h17.778v2.657l-10.435,13.575
		c-1.015,1.305-1.932,2.512-2.995,3.671v0.097h13.623v3.382h-18.937V151.893z"/>
</g>
<g>
	<path d="M542.401,138.657l3.334,5.024c0.918,1.304,1.643,2.464,2.415,3.768h0.097c0.773-1.353,1.546-2.561,2.367-3.816l3.237-4.976
		h4.638l-7.972,11.305l8.164,12.077h-4.782l-3.479-5.266c-0.918-1.353-1.69-2.657-2.512-4.058h-0.097
		c-0.773,1.401-1.546,2.657-2.464,4.058l-3.382,5.266h-4.686l8.309-11.933l-7.922-11.449H542.401z"/>
</g>
<g>
	<path d="M234.268,548.1h4.251v29.034h13.913v3.526h-18.165V548.1z"/>
	<path d="M261.708,550.708c0,1.449-1.014,2.609-2.705,2.609c-1.546,0-2.561-1.16-2.561-2.609s1.063-2.656,2.657-2.656
		C260.646,548.052,261.708,549.211,261.708,550.708z M256.974,580.66v-23.382h4.251v23.382H256.974z"/>
	<path d="M268.278,563.607c0-2.464-0.048-4.396-0.193-6.329h3.768l0.242,3.865h0.096c1.16-2.174,3.865-4.349,7.729-4.349
		c3.237,0,8.261,1.933,8.261,9.952v13.913h-4.251v-13.479c0-3.768-1.401-6.908-5.411-6.908c-2.753,0-4.927,1.98-5.7,4.348
		c-0.193,0.532-0.29,1.257-0.29,1.981v14.058h-4.251V563.607z"/>
	<path d="M297.458,569.742c0.097,5.749,3.72,8.116,8.019,8.116c3.044,0,4.928-0.531,6.474-1.208l0.773,3.044
		c-1.498,0.676-4.106,1.497-7.826,1.497c-7.198,0-11.498-4.782-11.498-11.836c0-7.053,4.154-12.561,10.966-12.561
		c7.681,0,9.661,6.667,9.661,10.967c0,0.869-0.048,1.497-0.145,1.98H297.458z M309.922,566.699c0.048-2.657-1.111-6.86-5.895-6.86
		c-4.348,0-6.183,3.913-6.521,6.86H309.922z"/>
	<path d="M331.227,557.278l3.14,11.884c0.628,2.609,1.256,5.024,1.69,7.44h0.146c0.531-2.367,1.305-4.88,2.077-7.392l3.816-11.933
		h3.575l3.623,11.691c0.869,2.802,1.546,5.266,2.077,7.633h0.145c0.387-2.367,1.015-4.831,1.788-7.585l3.333-11.739h4.203
		l-7.536,23.382h-3.865l-3.574-11.159c-0.821-2.609-1.498-4.928-2.077-7.682h-0.097c-0.58,2.802-1.305,5.218-2.126,7.729
		l-3.769,11.111h-3.864l-7.054-23.382H331.227z"/>
	<path d="M365.092,546.36h4.251v14.638h0.097c0.677-1.207,1.739-2.318,3.044-3.043c1.256-0.725,2.754-1.16,4.348-1.16
		c3.141,0,8.164,1.933,8.164,9.952v13.913h-4.251v-13.43c0-3.769-1.4-6.908-5.41-6.908c-2.754,0-4.88,1.932-5.701,4.202
		c-0.241,0.629-0.29,1.257-0.29,2.029v14.106h-4.251V546.36z"/>
	<path d="M394.271,569.742c0.097,5.749,3.72,8.116,8.02,8.116c3.044,0,4.928-0.531,6.474-1.208l0.772,3.044
		c-1.497,0.676-4.106,1.497-7.826,1.497c-7.197,0-11.497-4.782-11.497-11.836c0-7.053,4.154-12.561,10.966-12.561
		c7.682,0,9.662,6.667,9.662,10.967c0,0.869-0.049,1.497-0.145,1.98H394.271z M406.735,566.699c0.049-2.657-1.111-6.86-5.894-6.86
		c-4.348,0-6.184,3.913-6.521,6.86H406.735z"/>
	<path d="M416.108,564.573c0-2.754-0.048-5.121-0.193-7.295h3.72l0.193,4.638h0.146c1.063-3.14,3.671-5.121,6.521-5.121
		c0.435,0,0.772,0.049,1.159,0.097v4.01c-0.435-0.097-0.869-0.097-1.449-0.097c-2.995,0-5.121,2.223-5.7,5.411
		c-0.097,0.579-0.146,1.304-0.146,1.98v12.464h-4.251V564.573z"/>
	<path d="M433.79,569.742c0.097,5.749,3.72,8.116,8.02,8.116c3.044,0,4.928-0.531,6.474-1.208l0.772,3.044
		c-1.497,0.676-4.106,1.497-7.826,1.497c-7.197,0-11.497-4.782-11.497-11.836c0-7.053,4.154-12.561,10.966-12.561
		c7.682,0,9.662,6.667,9.662,10.967c0,0.869-0.048,1.497-0.145,1.98H433.79z M446.254,566.699c0.049-2.657-1.111-6.86-5.894-6.86
		c-4.348,0-6.184,3.913-6.521,6.86H446.254z"/>
</g>
<g>
	<path d="M239.292,607.272v5.604h6.087v3.237h-6.087v12.608c0,2.898,0.821,4.541,3.188,4.541c1.159,0,1.835-0.097,2.463-0.29
		l0.193,3.237c-0.821,0.289-2.125,0.579-3.768,0.579c-1.98,0-3.575-0.676-4.589-1.787c-1.159-1.305-1.643-3.382-1.643-6.136v-12.753
		h-3.623v-3.237h3.623v-4.348L239.292,607.272z"/>
	<path d="M250.162,601.958h4.251v14.638h0.097c0.676-1.207,1.739-2.318,3.043-3.043c1.256-0.725,2.753-1.16,4.348-1.16
		c3.14,0,8.165,1.933,8.165,9.952v13.913h-4.251v-13.43c0-3.769-1.401-6.908-5.411-6.908c-2.753,0-4.879,1.932-5.7,4.202
		c-0.242,0.629-0.29,1.257-0.29,2.029v14.106h-4.251V601.958z"/>
	<path d="M279.342,625.34c0.097,5.749,3.72,8.116,8.02,8.116c3.043,0,4.928-0.531,6.474-1.208l0.773,3.044
		c-1.498,0.676-4.106,1.497-7.826,1.497c-7.198,0-11.498-4.782-11.498-11.836c0-7.053,4.154-12.561,10.966-12.561
		c7.682,0,9.662,6.667,9.662,10.967c0,0.869-0.048,1.497-0.145,1.98H279.342z M291.806,622.297c0.048-2.657-1.111-6.86-5.894-6.86
		c-4.348,0-6.184,3.913-6.522,6.86H291.806z"/>
	<path d="M311.42,601.958h4.203v14.687h0.097c1.497-2.609,4.203-4.252,7.971-4.252c5.846,0,9.903,4.831,9.903,11.885
		c0,8.357-5.313,12.512-10.531,12.512c-3.382,0-6.087-1.305-7.874-4.348h-0.097l-0.242,3.816h-3.623
		c0.097-1.594,0.193-3.961,0.193-6.039V601.958z M315.623,626.886c0,0.531,0.048,1.063,0.193,1.546
		c0.772,2.947,3.285,4.976,6.377,4.976c4.492,0,7.102-3.623,7.102-8.985c0-4.686-2.416-8.695-7.005-8.695
		c-2.851,0-5.556,2.028-6.426,5.217c-0.145,0.532-0.241,1.111-0.241,1.788V626.886z"/>
	<path d="M355.334,630.654c0,2.028,0.097,4.01,0.338,5.604h-3.816l-0.338-2.947h-0.146c-1.304,1.836-3.816,3.479-7.149,3.479
		c-4.734,0-7.15-3.333-7.15-6.715c0-5.652,5.024-8.744,14.059-8.695v-0.483c0-1.884-0.531-5.411-5.314-5.362
		c-2.222,0-4.492,0.628-6.135,1.739l-0.967-2.851c1.933-1.208,4.783-2.029,7.729-2.029c7.15,0,8.89,4.88,8.89,9.518V630.654z
		 M351.228,624.325c-4.638-0.097-9.903,0.725-9.903,5.266c0,2.802,1.835,4.059,3.961,4.059c3.092,0,5.072-1.933,5.749-3.913
		c0.145-0.483,0.193-0.967,0.193-1.353V624.325z"/>
	<path d="M362.193,601.958h4.251v34.3h-4.251V601.958z"/>
	<path d="M373.595,601.958h4.251v34.3h-4.251V601.958z"/>
	<path d="M389.488,643.118c1.981-0.146,3.624-0.677,4.638-1.836c1.16-1.305,1.643-3.141,1.643-8.744v-19.662h4.252v21.305
		c0,4.541-0.725,7.487-2.803,9.613c-1.884,1.884-4.976,2.657-7.246,2.657L389.488,643.118z M400.503,606.306
		c0,1.401-0.966,2.609-2.705,2.609c-1.546,0-2.561-1.208-2.561-2.609c0-1.449,1.063-2.656,2.657-2.656
		S400.503,604.856,400.503,606.306z"/>
	<path d="M428.137,624.374c0,8.647-6.039,12.415-11.643,12.415c-6.28,0-11.208-4.638-11.208-12.029
		c0-7.777,5.169-12.367,11.594-12.367C423.595,612.393,428.137,617.272,428.137,624.374z M409.634,624.615
		c0,5.121,2.898,8.985,7.053,8.985c4.059,0,7.102-3.816,7.102-9.082c0-3.961-1.98-8.938-7.005-8.938
		C411.808,615.581,409.634,620.219,409.634,624.615z"/>
	<path d="M438.233,606.306c0,1.449-1.015,2.609-2.705,2.609c-1.546,0-2.561-1.16-2.561-2.609s1.063-2.656,2.657-2.656
		C437.171,603.649,438.233,604.809,438.233,606.306z M433.499,636.258v-23.382h4.251v23.382H433.499z"/>
	<path d="M444.804,619.205c0-2.464-0.048-4.396-0.193-6.329h3.769l0.241,3.865h0.097c1.159-2.174,3.865-4.349,7.729-4.349
		c3.237,0,8.261,1.933,8.261,9.952v13.913h-4.251v-13.479c0-3.768-1.401-6.908-5.41-6.908c-2.754,0-4.928,1.98-5.701,4.348
		c-0.193,0.532-0.29,1.257-0.29,1.981v14.058h-4.251V619.205z"/>
	<path d="M476.544,607.272v5.604h6.087v3.237h-6.087v12.608c0,2.898,0.821,4.541,3.188,4.541c1.159,0,1.836-0.097,2.464-0.29
		l0.193,3.237c-0.821,0.289-2.126,0.579-3.769,0.579c-1.98,0-3.575-0.676-4.589-1.787c-1.16-1.305-1.643-3.382-1.643-6.136v-12.753
		h-3.624v-3.237h3.624v-4.348L476.544,607.272z"/>
	<path d="M502.39,606.306c0,1.449-1.015,2.609-2.705,2.609c-1.546,0-2.561-1.16-2.561-2.609s1.063-2.656,2.657-2.656
		C501.327,603.649,502.39,604.809,502.39,606.306z M497.655,636.258v-23.382h4.251v23.382H497.655z"/>
	<path d="M508.381,631.958c1.304,0.773,3.526,1.643,5.651,1.643c3.044,0,4.493-1.497,4.493-3.479c0-2.028-1.208-3.092-4.3-4.251
		c-4.251-1.546-6.231-3.816-6.231-6.618c0-3.769,3.092-6.86,8.067-6.86c2.367,0,4.444,0.629,5.7,1.449l-1.014,3.092
		c-0.918-0.579-2.609-1.4-4.783-1.4c-2.512,0-3.864,1.449-3.864,3.188c0,1.933,1.353,2.802,4.396,4.01
		c4.01,1.497,6.136,3.526,6.136,7.005c0,4.154-3.237,7.053-8.696,7.053c-2.56,0-4.927-0.676-6.569-1.643L508.381,631.958z"/>
	<path d="M537.753,631.958c1.304,0.773,3.526,1.643,5.651,1.643c3.044,0,4.493-1.497,4.493-3.479c0-2.028-1.208-3.092-4.3-4.251
		c-4.251-1.546-6.231-3.816-6.231-6.618c0-3.769,3.092-6.86,8.067-6.86c2.367,0,4.444,0.629,5.7,1.449l-1.014,3.092
		c-0.918-0.579-2.609-1.4-4.783-1.4c-2.512,0-3.864,1.449-3.864,3.188c0,1.933,1.353,2.802,4.396,4.01
		c4.01,1.497,6.136,3.526,6.136,7.005c0,4.154-3.237,7.053-8.695,7.053c-2.561,0-4.928-0.676-6.57-1.643L537.753,631.958z"/>
	<path d="M557.463,620.509c0-2.995-0.097-5.41-0.193-7.633h3.769l0.241,4.01h0.097c1.691-2.851,4.493-4.493,8.31-4.493
		c5.7,0,9.951,4.783,9.951,11.836c0,8.406-5.169,12.561-10.676,12.561c-3.092,0-5.797-1.353-7.198-3.671h-0.097v12.705h-4.203
		V620.509z M561.666,626.741c0,0.628,0.048,1.207,0.193,1.739c0.772,2.946,3.333,4.976,6.377,4.976c4.492,0,7.102-3.672,7.102-9.034
		c0-4.638-2.464-8.647-6.957-8.647c-2.898,0-5.652,2.029-6.425,5.218c-0.146,0.531-0.29,1.159-0.29,1.69V626.741z"/>
	<path d="M587.319,625.34c0.097,5.749,3.72,8.116,8.02,8.116c3.044,0,4.928-0.531,6.474-1.208l0.772,3.044
		c-1.497,0.676-4.106,1.497-7.826,1.497c-7.197,0-11.497-4.782-11.497-11.836c0-7.053,4.154-12.561,10.966-12.561
		c7.682,0,9.662,6.667,9.662,10.967c0,0.869-0.048,1.497-0.145,1.98H587.319z M599.783,622.297c0.049-2.657-1.111-6.86-5.894-6.86
		c-4.348,0-6.184,3.913-6.521,6.86H599.783z"/>
	<path d="M625.822,635.437c-1.111,0.531-3.575,1.353-6.715,1.353c-7.054,0-11.643-4.782-11.643-11.933
		c0-7.197,4.928-12.464,12.561-12.464c2.512,0,4.734,0.629,5.894,1.257l-0.966,3.236c-1.015-0.531-2.609-1.111-4.928-1.111
		c-5.362,0-8.261,4.01-8.261,8.841c0,5.411,3.478,8.744,8.115,8.744c2.416,0,4.01-0.58,5.218-1.111L625.822,635.437z"/>
	<path d="M635.533,606.306c0,1.449-1.015,2.609-2.705,2.609c-1.546,0-2.561-1.16-2.561-2.609s1.063-2.656,2.657-2.656
		C634.471,603.649,635.533,604.809,635.533,606.306z M630.799,636.258v-23.382h4.251v23.382H630.799z"/>
	<path d="M642.538,636.258v-20.145h-3.236v-3.237h3.236v-1.305c0-6.135,3.624-10.145,10.193-10.145c2.174,0,4.734,0.677,5.942,1.546
		l-1.208,3.236c-1.063-0.725-2.85-1.353-4.928-1.353c-4.492,0-5.797,3.141-5.797,6.86v1.159h13.575v23.382h-4.251v-20.145h-9.324
		v20.145H642.538z"/>
	<path d="M669.736,625.34c0.097,5.749,3.72,8.116,8.02,8.116c3.044,0,4.928-0.531,6.474-1.208l0.772,3.044
		c-1.497,0.676-4.106,1.497-7.826,1.497c-7.197,0-11.497-4.782-11.497-11.836c0-7.053,4.154-12.561,10.966-12.561
		c7.682,0,9.662,6.667,9.662,10.967c0,0.869-0.049,1.497-0.145,1.98H669.736z M682.2,622.297c0.049-2.657-1.111-6.86-5.894-6.86
		c-4.348,0-6.184,3.913-6.521,6.86H682.2z"/>
	<path d="M711.719,601.958v28.261c0,2.078,0.097,4.445,0.193,6.039h-3.769l-0.193-4.058h-0.145
		c-1.256,2.608-4.059,4.589-7.875,4.589c-5.652,0-10.048-4.782-10.048-11.884c-0.049-7.778,4.831-12.513,10.483-12.513
		c3.623,0,5.99,1.691,7.053,3.527h0.097v-13.962H711.719z M707.516,622.393c0-0.531-0.049-1.256-0.193-1.787
		c-0.628-2.657-2.947-4.879-6.135-4.879c-4.396,0-7.005,3.864-7.005,8.985c0,4.734,2.366,8.647,6.908,8.647
		c2.85,0,5.459-1.933,6.231-5.072c0.145-0.58,0.193-1.16,0.193-1.836V622.393z"/>
</g>
<g>
	
		<line fill-rule="evenodd" clip-rule="evenodd" fill="none" stroke="#000000" stroke-width="2" stroke-linecap="round" stroke-linejoin="round" stroke-miterlimit="10" x1="227.91" y1="578.446" x2="150.046" y2="454.616"/>
</g>
</svg>
