<?xml version="1.0" encoding="utf-8"?>
<!-- Generator: Adobe Illustrator 15.0.0, SVG Export Plug-In . SVG Version: 6.00 Build 0)  -->
<!DOCTYPE svg PUBLIC "-//W3C//DTD SVG 1.0//EN" "http://www.w3.org/TR/2001/REC-SVG-20010904/DTD/svg10.dtd">
<svg version="1.0" xmlns="http://www.w3.org/2000/svg" xmlns:xlink="http://www.w3.org/1999/xlink" x="0px" y="0px"
	 width="595.28px" height="474px" viewBox="0 0 595.28 474" enable-background="new 0 0 595.28 474" xml:space="preserve">
<text transform="matrix(1 0 0 1 339.79 330.4678)" font-family="'Helvetica-Bold'" font-size="19.8289">Line number</text>
<text transform="matrix(1 0 0 1 338.4541 361.3979)" font-family="'Helvetica-Bold'" font-size="19.8289">Super node number </text>
<g>
	
		<rect x="312.067" y="347.77" fill-rule="evenodd" clip-rule="evenodd" fill="none" stroke="#000000" stroke-linejoin="round" stroke-miterlimit="10" width="16.5" height="16.301"/>
	<path fill-rule="evenodd" clip-rule="evenodd" stroke="#000000" stroke-linejoin="round" stroke-miterlimit="10" d="
		M320.318,355.92"/>
</g>
<g>
	<path fill-rule="evenodd" clip-rule="evenodd" fill="none" stroke="#000000" stroke-linejoin="round" stroke-miterlimit="10" d="
		M289.154,145.02c-0.007-7.096-7.682-11.526-13.83-7.981c-6.146,3.567-6.136,12.427,0.012,15.972
		C281.488,156.547,289.148,152.119,289.154,145.02z"/>
</g>
<g>
	
		<polyline fill-rule="evenodd" clip-rule="evenodd" fill="none" stroke="#000000" stroke-linecap="round" stroke-linejoin="round" stroke-miterlimit="10" points="
		25.747,38.67 25.747,112.287 152.273,112.287 	"/>
</g>
<g>
	
		<polyline fill-rule="evenodd" clip-rule="evenodd" stroke="#000000" stroke-linecap="round" stroke-linejoin="round" stroke-miterlimit="10" points="
		30.223,47.622 25.747,38.67 21.338,47.622 30.223,47.622 	"/>
</g>
<g>
	
		<polyline fill-rule="evenodd" clip-rule="evenodd" stroke="#000000" stroke-linecap="round" stroke-linejoin="round" stroke-miterlimit="10" points="
		143.322,107.879 152.273,112.287 143.322,116.763 143.322,107.879 	"/>
</g>
<g>
	
		<polyline fill-rule="evenodd" clip-rule="evenodd" fill="none" stroke="#000000" stroke-linecap="round" stroke-linejoin="round" stroke-miterlimit="10" points="
		40.376,330.401 40.376,429.338 59.75,411.435 76.985,394.399 95.289,375.026 115.197,352.313 130.896,333.141 146.127,313.367 
		164.832,287.247 175.855,270.813 186.343,279.163 196.431,286.178 205.983,291.856 212.597,295.197 221.347,298.669 
		229.698,300.874 236.512,301.742 242.458,301.676 248.604,300.673 253.48,299.137 258.157,296.933 264.236,292.725 
		268.311,288.917 273.588,282.503 278.131,275.288 292.761,275.288 306.79,274.42 320.15,272.817 332.844,270.346 344.934,267.139 
		356.425,263.063 361.902,260.792 369.852,256.917 377.468,252.575 387.021,246.162 393.768,240.818 402.186,232.935 
		409.132,225.319 416.348,215.967 422.961,205.813 428.973,194.857 434.318,183.099 438.994,170.474 442.134,160.586 
		444.873,150.166 447.946,135.602 450.417,120.237 452.287,104.004 453.491,87.036 454.091,66.794 	"/>
</g>
<g>
	
		<line fill-rule="evenodd" clip-rule="evenodd" fill="none" stroke="#000000" stroke-linecap="round" stroke-linejoin="round" stroke-miterlimit="10" x1="175.855" y1="270.813" x2="175.855" y2="152.771"/>
</g>
<line fill-rule="evenodd" clip-rule="evenodd" fill="none" stroke="#000000" stroke-linecap="round" stroke-linejoin="round" stroke-miterlimit="10" x1="280.402" y1="153.907" x2="280.402" y2="275.288"/>
<g>
	
		<path fill-rule="evenodd" clip-rule="evenodd" fill="none" stroke="#000000" stroke-linecap="round" stroke-linejoin="round" stroke-miterlimit="10" d="
		M186.009,145.533c-0.023-7.097-7.653-11.508-13.739-7.955c-6.093,3.561-6.083,12.422,0.021,15.968
		C178.414,157.08,186.021,152.631,186.009,145.533z"/>
</g>
<g>
	
		<path fill-rule="evenodd" clip-rule="evenodd" fill="none" stroke="#000000" stroke-linecap="round" stroke-linejoin="round" stroke-miterlimit="10" d="
		M329.637,325.579c-0.016-7.044-7.694-11.432-13.839-7.907c-6.138,3.536-6.122,12.345,0.029,15.857
		C321.985,337.032,329.647,332.615,329.637,325.579z"/>
</g>
<g>
	
		<path fill-rule="evenodd" clip-rule="evenodd" fill="none" stroke="#000000" stroke-linecap="round" stroke-linejoin="round" stroke-miterlimit="10" d="
		M120.341,320.246c-0.007-7.097-7.682-11.525-13.829-7.981c-6.148,3.567-6.137,12.428,0.011,15.972
		C112.675,331.772,120.335,327.344,120.341,320.246z"/>
</g>
<g>
	<polygon fill-rule="evenodd" clip-rule="evenodd" fill="none" points="101.636,316.574 102.171,319.646 103.373,321.917 
		105.511,324.055 108.182,325.391 110.854,325.792 113.526,325.391 116.266,324.055 118.604,321.583 119.807,318.778 
		120.074,317.041 119.94,314.77 118.804,311.897 116.934,309.626 114.328,308.022 111.79,307.421 109.986,307.421 107.38,308.022 
		105.177,309.358 103.373,311.229 102.037,313.901 	"/>
</g>
<text transform="matrix(1 0 0 1 107.7153 325.8584)" font-family="'Helvetica-Bold'" font-size="12.3931">1</text>
<g>
	
		<path fill-rule="evenodd" clip-rule="evenodd" fill="none" stroke="#000000" stroke-linecap="round" stroke-linejoin="round" stroke-miterlimit="10" d="
		M161.358,207.214c-0.007-7.097-7.68-11.526-13.829-7.982c-6.148,3.567-6.137,12.427,0.011,15.972
		C153.693,218.741,161.352,214.313,161.358,207.214z"/>
</g>
<g>
	<polygon fill-rule="evenodd" clip-rule="evenodd" fill="none" points="142.72,203.542 142.854,205.345 143.722,207.816 
		145.526,210.222 147.998,211.892 150.536,212.626 152.34,212.76 155.012,212.226 157.283,211.023 159.42,208.885 160.757,206.214 
		161.091,204.009 160.958,201.738 159.889,198.866 157.951,196.594 155.813,195.191 153.274,194.456 151.472,194.323 
		148.799,194.857 146.528,196.06 144.391,198.197 143.054,200.87 142.72,203.074 	"/>
</g>
<text transform="matrix(1 0 0 1 148.7998 212.8936)" font-family="'Helvetica-Bold'" font-size="12.3931">2</text>
<g>
	
		<path fill-rule="evenodd" clip-rule="evenodd" fill="none" stroke="#000000" stroke-linecap="round" stroke-linejoin="round" stroke-miterlimit="10" d="
		M244.462,275.198c-0.024-7.096-7.654-11.507-13.739-7.954c-6.094,3.562-6.083,12.421,0.02,15.967
		C236.866,286.745,244.473,282.296,244.462,275.198z"/>
</g>
<g>
	<polygon fill-rule="evenodd" clip-rule="evenodd" fill="none" points="225.89,271.548 226.024,273.352 227.16,276.224 
		229.03,278.495 231.636,280.098 234.174,280.699 236.446,280.699 239.385,279.697 242.058,277.626 243.46,275.422 244.195,272.951 
		244.262,270.613 243.794,268.475 242.325,265.87 240.454,264.065 237.782,262.729 235.11,262.329 232.438,262.729 229.698,264.065 
		227.36,266.538 226.157,269.344 225.89,271.08 	"/>
</g>
<text transform="matrix(1 0 0 1 231.9697 280.8989)" font-family="'Helvetica-Bold'" font-size="12.3931">3</text>
<g>
	
		<path fill-rule="evenodd" clip-rule="evenodd" fill="none" stroke="#000000" stroke-linecap="round" stroke-linejoin="round" stroke-miterlimit="10" d="
		M313.203,208.083c-0.007-7.097-7.682-11.525-13.83-7.981c-6.147,3.567-6.136,12.427,0.012,15.972
		C305.537,219.609,313.197,215.181,313.203,208.083z"/>
</g>
<g>
	<polygon fill-rule="evenodd" clip-rule="evenodd" fill="none" points="294.564,204.41 294.698,206.214 295.767,209.085 
		297.704,211.357 300.243,212.961 302.848,213.562 304.652,213.562 307.257,212.961 309.462,211.625 311.266,209.754 
		312.602,207.082 312.936,204.878 312.803,202.607 311.934,200.135 310.13,197.73 307.658,196.06 305.12,195.325 303.316,195.191 
		300.644,195.726 298.038,197.195 296.034,199.4 294.898,201.738 294.564,203.943 	"/>
</g>
<text transform="matrix(1 0 0 1 300.644 213.6953)" font-family="'Helvetica-Bold'" font-size="12.3931">4</text>
<g>
	
		<path fill-rule="evenodd" clip-rule="evenodd" fill="none" stroke="#000000" stroke-linecap="round" stroke-linejoin="round" stroke-miterlimit="10" d="
		M454.893,206.413c-0.007-7.098-7.681-11.526-13.83-7.982c-6.146,3.567-6.136,12.427,0.011,15.973
		C447.228,217.939,454.888,213.511,454.893,206.413z"/>
</g>
<g>
	<polygon fill-rule="evenodd" clip-rule="evenodd" fill="none" points="436.188,202.74 436.456,204.944 437.658,207.75 
		439.996,210.222 442.735,211.558 445.407,211.959 448.48,211.424 451.086,209.954 453.156,207.75 454.358,204.944 454.626,202.271 
		454.091,199.667 452.623,196.995 450.417,194.991 447.612,193.789 445.407,193.521 443.136,193.789 440.397,194.991 
		438.192,196.995 436.723,199.667 436.255,201.805 	"/>
</g>
<text transform="matrix(1 0 0 1 442.2671 212.0244)" font-family="'Helvetica-Bold'" font-size="12.3931">5</text>
<g>
	
		<rect x="34.231" y="452.786" fill-rule="evenodd" clip-rule="evenodd" fill="none" stroke="#000000" stroke-linecap="round" stroke-linejoin="round" stroke-miterlimit="10" width="15.298" height="15.098"/>
	
		<path fill-rule="evenodd" clip-rule="evenodd" stroke="#000000" stroke-linecap="round" stroke-linejoin="round" stroke-miterlimit="10" d="
		M41.88,460.334"/>
</g>
<g>
	<rect x="34.231" y="452.786" fill-rule="evenodd" clip-rule="evenodd" fill="none" width="15.298" height="15.098"/>
</g>
<text transform="matrix(1 0 0 1 39.241 465.7451)" font-family="'Helvetica-Bold'" font-size="12.8888">1</text>
<g>
	
		<rect x="171.379" y="292.057" fill-rule="evenodd" clip-rule="evenodd" fill="none" stroke="#000000" stroke-linecap="round" stroke-linejoin="round" stroke-miterlimit="10" width="15.298" height="15.097"/>
	
		<path fill-rule="evenodd" clip-rule="evenodd" stroke="#000000" stroke-linecap="round" stroke-linejoin="round" stroke-miterlimit="10" d="
		M179.028,299.604"/>
</g>
<g>
	<rect x="171.379" y="292.057" fill-rule="evenodd" clip-rule="evenodd" fill="none" width="15.298" height="15.097"/>
</g>
<text transform="matrix(1 0 0 1 176.3896 304.9482)" font-family="'Helvetica-Bold'" font-size="12.8888">2</text>
<g>
	
		<rect x="139.914" y="138.073" fill-rule="evenodd" clip-rule="evenodd" fill="none" stroke="#000000" stroke-linecap="round" stroke-linejoin="round" stroke-miterlimit="10" width="15.299" height="15.099"/>
	
		<path fill-rule="evenodd" clip-rule="evenodd" stroke="#000000" stroke-linecap="round" stroke-linejoin="round" stroke-miterlimit="10" d="
		M147.563,145.623"/>
</g>
<g>
	<rect x="139.914" y="138.073" fill-rule="evenodd" clip-rule="evenodd" fill="none" width="15.299" height="15.099"/>
</g>
<text transform="matrix(1 0 0 1 144.9248 150.9673)" font-family="'Helvetica-Bold'" font-size="12.8888">3</text>
<g>
	
		<rect x="273.12" y="297.668" fill-rule="evenodd" clip-rule="evenodd" fill="none" stroke="#000000" stroke-linecap="round" stroke-linejoin="round" stroke-miterlimit="10" width="15.299" height="15.098"/>
	
		<path fill-rule="evenodd" clip-rule="evenodd" stroke="#000000" stroke-linecap="round" stroke-linejoin="round" stroke-miterlimit="10" d="
		M280.771,305.216"/>
</g>
<g>
	<rect x="273.12" y="297.668" fill-rule="evenodd" clip-rule="evenodd" fill="none" width="15.299" height="15.098"/>
</g>
<text transform="matrix(1 0 0 1 278.1309 310.5601)" font-family="'Helvetica-Bold'" font-size="12.8888">4</text>
<g>
	
		<rect x="297.303" y="138.408" fill-rule="evenodd" clip-rule="evenodd" fill="none" stroke="#000000" stroke-linecap="round" stroke-linejoin="round" stroke-miterlimit="10" width="15.298" height="15.099"/>
	
		<path fill-rule="evenodd" clip-rule="evenodd" stroke="#000000" stroke-linecap="round" stroke-linejoin="round" stroke-miterlimit="10" d="
		M304.952,145.957"/>
</g>
<g>
	<rect x="297.303" y="138.408" fill-rule="evenodd" clip-rule="evenodd" fill="none" width="15.298" height="15.099"/>
</g>
<text transform="matrix(1 0 0 1 302.314 151.3008)" font-family="'Helvetica-Bold'" font-size="12.8888">5</text>
<g>
	
		<rect x="489.164" y="48.557" fill-rule="evenodd" clip-rule="evenodd" fill="none" stroke="#000000" stroke-linecap="round" stroke-linejoin="round" stroke-miterlimit="10" width="15.298" height="15.098"/>
	
		<path fill-rule="evenodd" clip-rule="evenodd" stroke="#000000" stroke-linecap="round" stroke-linejoin="round" stroke-miterlimit="10" d="
		M496.813,56.106"/>
</g>
<g>
	<rect x="489.164" y="48.557" fill-rule="evenodd" clip-rule="evenodd" fill="none" width="15.298" height="15.098"/>
</g>
<text transform="matrix(1 0 0 1 494.1748 61.4502)" font-family="'Helvetica-Bold'" font-size="12.8888">6</text>
<text transform="matrix(1 0 0 1 4.9045 55.1704)" font-family="'Helvetica-Bold'" font-size="11.8973">z</text>
<text transform="matrix(1 0 0 1 125.8857 125.1143)" font-family="'Helvetica-Bold'" font-size="11.8973">x</text>
<g>
	
		<line fill-rule="evenodd" clip-rule="evenodd" fill="none" stroke="#000000" stroke-linecap="round" stroke-linejoin="round" stroke-miterlimit="10" x1="16.795" y1="430.474" x2="104.91" y2="430.474"/>
</g>
<g>
	
		<polyline fill-rule="evenodd" clip-rule="evenodd" fill="none" stroke="#000000" stroke-linecap="round" stroke-linejoin="round" stroke-miterlimit="10" points="
		166.168,108.28 168.84,112.021 171.58,114.291 174.118,115.294 175.588,115.561 178.059,115.427 181.667,114.225 185.808,111.686 
		189.75,108.28 	"/>
</g>
<g>
	
		<polyline fill-rule="evenodd" clip-rule="evenodd" fill="none" stroke="#000000" stroke-linecap="round" stroke-linejoin="round" stroke-miterlimit="10" points="
		191.019,108.413 193.691,112.154 196.297,114.291 199.036,115.427 200.505,115.694 202.977,115.561 206.584,114.358 
		210.125,112.22 214.667,108.413 	"/>
</g>
<g>
	
		<polyline fill-rule="evenodd" clip-rule="evenodd" fill="none" stroke="#000000" stroke-linecap="round" stroke-linejoin="round" stroke-miterlimit="10" points="
		166.168,108.28 168.84,112.021 171.58,114.291 174.118,115.294 175.588,115.561 178.059,115.427 181.667,114.225 185.808,111.686 
		189.75,108.28 	"/>
</g>
<g>
	
		<polyline fill-rule="evenodd" clip-rule="evenodd" fill="none" stroke="#000000" stroke-linecap="round" stroke-linejoin="round" stroke-miterlimit="10" points="
		191.019,108.413 193.691,112.154 196.297,114.291 199.036,115.427 200.505,115.694 202.977,115.561 206.584,114.358 
		210.125,112.22 214.667,108.413 	"/>
</g>
<g>
	
		<polyline fill-rule="evenodd" clip-rule="evenodd" fill="none" stroke="#000000" stroke-linecap="round" stroke-linejoin="round" stroke-miterlimit="10" points="
		166.168,108.28 168.84,112.021 171.58,114.291 174.118,115.294 175.588,115.561 178.059,115.427 181.667,114.225 185.808,111.686 
		189.75,108.28 	"/>
</g>
<g>
	
		<polyline fill-rule="evenodd" clip-rule="evenodd" fill="none" stroke="#000000" stroke-linecap="round" stroke-linejoin="round" stroke-miterlimit="10" points="
		191.019,108.413 193.691,112.154 196.297,114.291 199.036,115.427 200.505,115.694 202.977,115.561 206.584,114.358 
		210.125,112.22 214.667,108.413 	"/>
</g>
<g>
	
		<polyline fill-rule="evenodd" clip-rule="evenodd" fill="none" stroke="#000000" stroke-linecap="round" stroke-linejoin="round" stroke-miterlimit="10" points="
		166.168,108.28 168.84,112.021 171.58,114.291 174.118,115.294 175.588,115.561 178.059,115.427 181.667,114.225 185.808,111.686 
		189.75,108.28 	"/>
</g>
<g>
	
		<polyline fill-rule="evenodd" clip-rule="evenodd" fill="none" stroke="#000000" stroke-linecap="round" stroke-linejoin="round" stroke-miterlimit="10" points="
		191.019,108.413 193.691,112.154 196.297,114.291 199.036,115.427 200.505,115.694 202.977,115.561 206.584,114.358 
		210.125,112.22 214.667,108.413 	"/>
</g>
<g>
	
		<polyline fill-rule="evenodd" clip-rule="evenodd" fill="none" stroke="#000000" stroke-linecap="round" stroke-linejoin="round" stroke-miterlimit="10" points="
		216.338,108.413 219.01,112.154 221.75,114.425 224.287,115.427 225.757,115.694 228.229,115.561 231.836,114.358 235.978,111.821 
		239.92,108.413 	"/>
</g>
<g>
	
		<polyline fill-rule="evenodd" clip-rule="evenodd" fill="none" stroke="#000000" stroke-linecap="round" stroke-linejoin="round" stroke-miterlimit="10" points="
		241.189,108.413 243.861,112.154 246.601,114.425 249.138,115.427 250.608,115.694 253.079,115.561 256.687,114.358 
		260.829,111.821 264.771,108.413 	"/>
</g>
<g>
	
		<polyline fill-rule="evenodd" clip-rule="evenodd" fill="none" stroke="#000000" stroke-linecap="round" stroke-linejoin="round" stroke-miterlimit="10" points="
		216.338,108.413 219.01,112.154 221.75,114.425 224.287,115.427 225.757,115.694 228.229,115.561 231.836,114.358 235.978,111.821 
		239.92,108.413 	"/>
</g>
<g>
	
		<polyline fill-rule="evenodd" clip-rule="evenodd" fill="none" stroke="#000000" stroke-linecap="round" stroke-linejoin="round" stroke-miterlimit="10" points="
		241.189,108.413 243.861,112.154 246.601,114.425 249.138,115.427 250.608,115.694 253.079,115.561 256.687,114.358 
		260.829,111.821 264.771,108.413 	"/>
</g>
<g>
	
		<polyline fill-rule="evenodd" clip-rule="evenodd" fill="none" stroke="#000000" stroke-linecap="round" stroke-linejoin="round" stroke-miterlimit="10" points="
		216.338,108.413 219.01,112.154 221.75,114.425 224.287,115.427 225.757,115.694 228.229,115.561 231.836,114.358 235.978,111.821 
		239.92,108.413 	"/>
</g>
<g>
	
		<polyline fill-rule="evenodd" clip-rule="evenodd" fill="none" stroke="#000000" stroke-linecap="round" stroke-linejoin="round" stroke-miterlimit="10" points="
		241.189,108.413 243.861,112.154 246.601,114.425 249.138,115.427 250.608,115.694 253.079,115.561 256.687,114.358 
		260.829,111.821 264.771,108.413 	"/>
</g>
<g>
	
		<polyline fill-rule="evenodd" clip-rule="evenodd" fill="none" stroke="#000000" stroke-linecap="round" stroke-linejoin="round" stroke-miterlimit="10" points="
		216.338,108.413 219.01,112.154 221.75,114.425 224.287,115.427 225.757,115.694 228.229,115.561 231.836,114.358 235.978,111.821 
		239.92,108.413 	"/>
</g>
<g>
	
		<polyline fill-rule="evenodd" clip-rule="evenodd" fill="none" stroke="#000000" stroke-linecap="round" stroke-linejoin="round" stroke-miterlimit="10" points="
		241.189,108.413 243.861,112.154 246.601,114.425 249.138,115.427 250.608,115.694 253.079,115.561 256.687,114.358 
		260.829,111.821 264.771,108.413 	"/>
</g>
<g>
	
		<polyline fill-rule="evenodd" clip-rule="evenodd" fill="none" stroke="#000000" stroke-linecap="round" stroke-linejoin="round" stroke-miterlimit="10" points="
		216.338,108.413 219.01,112.154 221.75,114.425 224.287,115.427 225.757,115.694 228.229,115.561 231.836,114.358 235.978,111.821 
		239.92,108.413 	"/>
</g>
<g>
	
		<polyline fill-rule="evenodd" clip-rule="evenodd" fill="none" stroke="#000000" stroke-linecap="round" stroke-linejoin="round" stroke-miterlimit="10" points="
		241.189,108.413 243.861,112.154 246.601,114.425 249.138,115.427 250.608,115.694 253.079,115.561 256.687,114.358 
		260.829,111.821 264.771,108.413 	"/>
</g>
<g>
	
		<polyline fill-rule="evenodd" clip-rule="evenodd" fill="none" stroke="#000000" stroke-linecap="round" stroke-linejoin="round" stroke-miterlimit="10" points="
		216.338,108.413 219.01,112.154 221.75,114.425 224.287,115.427 225.757,115.694 228.229,115.561 231.836,114.358 235.978,111.821 
		239.92,108.413 	"/>
</g>
<g>
	
		<polyline fill-rule="evenodd" clip-rule="evenodd" fill="none" stroke="#000000" stroke-linecap="round" stroke-linejoin="round" stroke-miterlimit="10" points="
		241.189,108.413 243.861,112.154 246.601,114.425 249.138,115.427 250.608,115.694 253.079,115.561 256.687,114.358 
		260.829,111.821 264.771,108.413 	"/>
</g>
<g>
	
		<polyline fill-rule="evenodd" clip-rule="evenodd" fill="none" stroke="#000000" stroke-linecap="round" stroke-linejoin="round" stroke-miterlimit="10" points="
		216.338,108.413 219.01,112.154 221.75,114.425 224.287,115.427 225.757,115.694 228.229,115.561 231.836,114.358 235.978,111.821 
		239.92,108.413 	"/>
</g>
<g>
	
		<polyline fill-rule="evenodd" clip-rule="evenodd" fill="none" stroke="#000000" stroke-linecap="round" stroke-linejoin="round" stroke-miterlimit="10" points="
		241.189,108.413 243.861,112.154 246.601,114.425 249.138,115.427 250.608,115.694 253.079,115.561 256.687,114.358 
		260.829,111.821 264.771,108.413 	"/>
</g>
<g>
	
		<polyline fill-rule="evenodd" clip-rule="evenodd" fill="none" stroke="#000000" stroke-linecap="round" stroke-linejoin="round" stroke-miterlimit="10" points="
		216.338,108.413 219.01,112.154 221.75,114.425 224.287,115.427 225.757,115.694 228.229,115.561 231.836,114.358 235.978,111.821 
		239.92,108.413 	"/>
</g>
<g>
	
		<polyline fill-rule="evenodd" clip-rule="evenodd" fill="none" stroke="#000000" stroke-linecap="round" stroke-linejoin="round" stroke-miterlimit="10" points="
		241.189,108.413 243.861,112.154 246.601,114.425 249.138,115.427 250.608,115.694 253.079,115.561 256.687,114.358 
		260.829,111.821 264.771,108.413 	"/>
</g>
<g>
	
		<polyline fill-rule="evenodd" clip-rule="evenodd" fill="none" stroke="#000000" stroke-linecap="round" stroke-linejoin="round" stroke-miterlimit="10" points="
		216.338,108.413 219.01,112.154 221.75,114.425 224.287,115.427 225.757,115.694 228.229,115.561 231.836,114.358 235.978,111.821 
		239.92,108.413 	"/>
</g>
<g>
	
		<polyline fill-rule="evenodd" clip-rule="evenodd" fill="none" stroke="#000000" stroke-linecap="round" stroke-linejoin="round" stroke-miterlimit="10" points="
		241.189,108.413 243.861,112.154 246.601,114.425 249.138,115.427 250.608,115.694 253.079,115.561 256.687,114.358 
		260.829,111.821 264.771,108.413 	"/>
</g>
<g>
	
		<polyline fill-rule="evenodd" clip-rule="evenodd" fill="none" stroke="#000000" stroke-linecap="round" stroke-linejoin="round" stroke-miterlimit="10" points="
		265.773,108.413 268.445,112.154 271.049,114.291 273.789,115.427 275.258,115.694 277.73,115.561 281.338,114.358 284.878,112.22 
		289.42,108.413 	"/>
</g>
<g>
	
		<polyline fill-rule="evenodd" clip-rule="evenodd" fill="none" stroke="#000000" stroke-linecap="round" stroke-linejoin="round" stroke-miterlimit="10" points="
		290.624,108.413 293.295,112.154 295.9,114.291 298.64,115.427 300.109,115.694 302.581,115.561 306.188,114.358 309.729,112.22 
		314.271,108.413 	"/>
</g>
<g>
	
		<polyline fill-rule="evenodd" clip-rule="evenodd" fill="none" stroke="#000000" stroke-linecap="round" stroke-linejoin="round" stroke-miterlimit="10" points="
		265.773,108.413 268.445,112.154 271.049,114.291 273.789,115.427 275.258,115.694 277.73,115.561 281.338,114.358 284.878,112.22 
		289.42,108.413 	"/>
</g>
<g>
	
		<polyline fill-rule="evenodd" clip-rule="evenodd" fill="none" stroke="#000000" stroke-linecap="round" stroke-linejoin="round" stroke-miterlimit="10" points="
		290.624,108.413 293.295,112.154 295.9,114.291 298.64,115.427 300.109,115.694 302.581,115.561 306.188,114.358 309.729,112.22 
		314.271,108.413 	"/>
</g>
<g>
	
		<polyline fill-rule="evenodd" clip-rule="evenodd" fill="none" stroke="#000000" stroke-linecap="round" stroke-linejoin="round" stroke-miterlimit="10" points="
		265.773,108.413 268.445,112.154 271.049,114.291 273.789,115.427 275.258,115.694 277.73,115.561 281.338,114.358 284.878,112.22 
		289.42,108.413 	"/>
</g>
<g>
	
		<polyline fill-rule="evenodd" clip-rule="evenodd" fill="none" stroke="#000000" stroke-linecap="round" stroke-linejoin="round" stroke-miterlimit="10" points="
		290.624,108.413 293.295,112.154 295.9,114.291 298.64,115.427 300.109,115.694 302.581,115.561 306.188,114.358 309.729,112.22 
		314.271,108.413 	"/>
</g>
<g>
	
		<polyline fill-rule="evenodd" clip-rule="evenodd" fill="none" stroke="#000000" stroke-linecap="round" stroke-linejoin="round" stroke-miterlimit="10" points="
		265.773,108.413 268.445,112.154 271.049,114.291 273.789,115.427 275.258,115.694 277.73,115.561 281.338,114.358 284.878,112.22 
		289.42,108.413 	"/>
</g>
<g>
	
		<polyline fill-rule="evenodd" clip-rule="evenodd" fill="none" stroke="#000000" stroke-linecap="round" stroke-linejoin="round" stroke-miterlimit="10" points="
		290.624,108.413 293.295,112.154 295.9,114.291 298.64,115.427 300.109,115.694 302.581,115.561 306.188,114.358 309.729,112.22 
		314.271,108.413 	"/>
</g>
<g>
	
		<polyline fill-rule="evenodd" clip-rule="evenodd" fill="none" stroke="#000000" stroke-linecap="round" stroke-linejoin="round" stroke-miterlimit="10" points="
		265.773,108.413 268.445,112.154 271.049,114.291 273.789,115.427 275.258,115.694 277.73,115.561 281.338,114.358 284.878,112.22 
		289.42,108.413 	"/>
</g>
<g>
	
		<polyline fill-rule="evenodd" clip-rule="evenodd" fill="none" stroke="#000000" stroke-linecap="round" stroke-linejoin="round" stroke-miterlimit="10" points="
		290.624,108.413 293.295,112.154 295.9,114.291 298.64,115.427 300.109,115.694 302.581,115.561 306.188,114.358 309.729,112.22 
		314.271,108.413 	"/>
</g>
<g>
	
		<polyline fill-rule="evenodd" clip-rule="evenodd" fill="none" stroke="#000000" stroke-linecap="round" stroke-linejoin="round" stroke-miterlimit="10" points="
		265.773,108.413 268.445,112.154 271.049,114.291 273.789,115.427 275.258,115.694 277.73,115.561 281.338,114.358 284.878,112.22 
		289.42,108.413 	"/>
</g>
<g>
	
		<polyline fill-rule="evenodd" clip-rule="evenodd" fill="none" stroke="#000000" stroke-linecap="round" stroke-linejoin="round" stroke-miterlimit="10" points="
		290.624,108.413 293.295,112.154 295.9,114.291 298.64,115.427 300.109,115.694 302.581,115.561 306.188,114.358 309.729,112.22 
		314.271,108.413 	"/>
</g>
<g>
	
		<polyline fill-rule="evenodd" clip-rule="evenodd" fill="none" stroke="#000000" stroke-linecap="round" stroke-linejoin="round" stroke-miterlimit="10" points="
		265.773,108.413 268.445,112.154 271.049,114.291 273.789,115.427 275.258,115.694 277.73,115.561 281.338,114.358 284.878,112.22 
		289.42,108.413 	"/>
</g>
<g>
	
		<polyline fill-rule="evenodd" clip-rule="evenodd" fill="none" stroke="#000000" stroke-linecap="round" stroke-linejoin="round" stroke-miterlimit="10" points="
		290.624,108.413 293.295,112.154 295.9,114.291 298.64,115.427 300.109,115.694 302.581,115.561 306.188,114.358 309.729,112.22 
		314.271,108.413 	"/>
</g>
<g>
	
		<polyline fill-rule="evenodd" clip-rule="evenodd" fill="none" stroke="#000000" stroke-linecap="round" stroke-linejoin="round" stroke-miterlimit="10" points="
		265.773,108.413 268.445,112.154 271.049,114.291 273.789,115.427 275.258,115.694 277.73,115.561 281.338,114.358 284.878,112.22 
		289.42,108.413 	"/>
</g>
<g>
	
		<polyline fill-rule="evenodd" clip-rule="evenodd" fill="none" stroke="#000000" stroke-linecap="round" stroke-linejoin="round" stroke-miterlimit="10" points="
		290.624,108.413 293.295,112.154 295.9,114.291 298.64,115.427 300.109,115.694 302.581,115.561 306.188,114.358 309.729,112.22 
		314.271,108.413 	"/>
</g>
<g>
	
		<polyline fill-rule="evenodd" clip-rule="evenodd" fill="none" stroke="#000000" stroke-linecap="round" stroke-linejoin="round" stroke-miterlimit="10" points="
		265.773,108.413 268.445,112.154 271.049,114.291 273.789,115.427 275.258,115.694 277.73,115.561 281.338,114.358 284.878,112.22 
		289.42,108.413 	"/>
</g>
<g>
	
		<polyline fill-rule="evenodd" clip-rule="evenodd" fill="none" stroke="#000000" stroke-linecap="round" stroke-linejoin="round" stroke-miterlimit="10" points="
		290.624,108.413 293.295,112.154 295.9,114.291 298.64,115.427 300.109,115.694 302.581,115.561 306.188,114.358 309.729,112.22 
		314.271,108.413 	"/>
</g>
<g>
	
		<polyline fill-rule="evenodd" clip-rule="evenodd" fill="none" stroke="#000000" stroke-linecap="round" stroke-linejoin="round" stroke-miterlimit="10" points="
		314.806,108.413 317.478,112.154 320.083,114.291 322.822,115.427 324.292,115.694 326.764,115.561 330.372,114.358 
		333.913,112.22 338.454,108.413 	"/>
</g>
<g>
	
		<polyline fill-rule="evenodd" clip-rule="evenodd" fill="none" stroke="#000000" stroke-linecap="round" stroke-linejoin="round" stroke-miterlimit="10" points="
		339.657,108.413 342.329,112.154 344.934,114.291 347.673,115.427 349.144,115.694 351.615,115.561 355.223,114.358 
		358.763,112.22 363.305,108.413 	"/>
</g>
<g>
	
		<polyline fill-rule="evenodd" clip-rule="evenodd" fill="none" stroke="#000000" stroke-linecap="round" stroke-linejoin="round" stroke-miterlimit="10" points="
		314.806,108.413 317.478,112.154 320.083,114.291 322.822,115.427 324.292,115.694 326.764,115.561 330.372,114.358 
		333.913,112.22 338.454,108.413 	"/>
</g>
<g>
	
		<polyline fill-rule="evenodd" clip-rule="evenodd" fill="none" stroke="#000000" stroke-linecap="round" stroke-linejoin="round" stroke-miterlimit="10" points="
		339.657,108.413 342.329,112.154 344.934,114.291 347.673,115.427 349.144,115.694 351.615,115.561 355.223,114.358 
		358.763,112.22 363.305,108.413 	"/>
</g>
<g>
	
		<polyline fill-rule="evenodd" clip-rule="evenodd" fill="none" stroke="#000000" stroke-linecap="round" stroke-linejoin="round" stroke-miterlimit="10" points="
		314.806,108.413 317.478,112.154 320.083,114.291 322.822,115.427 324.292,115.694 326.764,115.561 330.372,114.358 
		333.913,112.22 338.454,108.413 	"/>
</g>
<g>
	
		<polyline fill-rule="evenodd" clip-rule="evenodd" fill="none" stroke="#000000" stroke-linecap="round" stroke-linejoin="round" stroke-miterlimit="10" points="
		339.657,108.413 342.329,112.154 344.934,114.291 347.673,115.427 349.144,115.694 351.615,115.561 355.223,114.358 
		358.763,112.22 363.305,108.413 	"/>
</g>
<g>
	
		<polyline fill-rule="evenodd" clip-rule="evenodd" fill="none" stroke="#000000" stroke-linecap="round" stroke-linejoin="round" stroke-miterlimit="10" points="
		314.806,108.413 317.478,112.154 320.083,114.291 322.822,115.427 324.292,115.694 326.764,115.561 330.372,114.358 
		333.913,112.22 338.454,108.413 	"/>
</g>
<g>
	
		<polyline fill-rule="evenodd" clip-rule="evenodd" fill="none" stroke="#000000" stroke-linecap="round" stroke-linejoin="round" stroke-miterlimit="10" points="
		339.657,108.413 342.329,112.154 344.934,114.291 347.673,115.427 349.144,115.694 351.615,115.561 355.223,114.358 
		358.763,112.22 363.305,108.413 	"/>
</g>
<g>
	
		<polyline fill-rule="evenodd" clip-rule="evenodd" fill="none" stroke="#000000" stroke-linecap="round" stroke-linejoin="round" stroke-miterlimit="10" points="
		314.806,108.413 317.478,112.154 320.083,114.291 322.822,115.427 324.292,115.694 326.764,115.561 330.372,114.358 
		333.913,112.22 338.454,108.413 	"/>
</g>
<g>
	
		<polyline fill-rule="evenodd" clip-rule="evenodd" fill="none" stroke="#000000" stroke-linecap="round" stroke-linejoin="round" stroke-miterlimit="10" points="
		339.657,108.413 342.329,112.154 344.934,114.291 347.673,115.427 349.144,115.694 351.615,115.561 355.223,114.358 
		358.763,112.22 363.305,108.413 	"/>
</g>
<g>
	
		<polyline fill-rule="evenodd" clip-rule="evenodd" fill="none" stroke="#000000" stroke-linecap="round" stroke-linejoin="round" stroke-miterlimit="10" points="
		314.806,108.413 317.478,112.154 320.083,114.291 322.822,115.427 324.292,115.694 326.764,115.561 330.372,114.358 
		333.913,112.22 338.454,108.413 	"/>
</g>
<g>
	
		<polyline fill-rule="evenodd" clip-rule="evenodd" fill="none" stroke="#000000" stroke-linecap="round" stroke-linejoin="round" stroke-miterlimit="10" points="
		339.657,108.413 342.329,112.154 344.934,114.291 347.673,115.427 349.144,115.694 351.615,115.561 355.223,114.358 
		358.763,112.22 363.305,108.413 	"/>
</g>
<g>
	
		<polyline fill-rule="evenodd" clip-rule="evenodd" fill="none" stroke="#000000" stroke-linecap="round" stroke-linejoin="round" stroke-miterlimit="10" points="
		314.806,108.413 317.478,112.154 320.083,114.291 322.822,115.427 324.292,115.694 326.764,115.561 330.372,114.358 
		333.913,112.22 338.454,108.413 	"/>
</g>
<g>
	
		<polyline fill-rule="evenodd" clip-rule="evenodd" fill="none" stroke="#000000" stroke-linecap="round" stroke-linejoin="round" stroke-miterlimit="10" points="
		339.657,108.413 342.329,112.154 344.934,114.291 347.673,115.427 349.144,115.694 351.615,115.561 355.223,114.358 
		358.763,112.22 363.305,108.413 	"/>
</g>
<g>
	
		<polyline fill-rule="evenodd" clip-rule="evenodd" fill="none" stroke="#000000" stroke-linecap="round" stroke-linejoin="round" stroke-miterlimit="10" points="
		314.806,108.413 317.478,112.154 320.083,114.291 322.822,115.427 324.292,115.694 326.764,115.561 330.372,114.358 
		333.913,112.22 338.454,108.413 	"/>
</g>
<g>
	
		<polyline fill-rule="evenodd" clip-rule="evenodd" fill="none" stroke="#000000" stroke-linecap="round" stroke-linejoin="round" stroke-miterlimit="10" points="
		339.657,108.413 342.329,112.154 344.934,114.291 347.673,115.427 349.144,115.694 351.615,115.561 355.223,114.358 
		358.763,112.22 363.305,108.413 	"/>
</g>
<g>
	
		<polyline fill-rule="evenodd" clip-rule="evenodd" fill="none" stroke="#000000" stroke-linecap="round" stroke-linejoin="round" stroke-miterlimit="10" points="
		314.806,108.413 317.478,112.154 320.083,114.291 322.822,115.427 324.292,115.694 326.764,115.561 330.372,114.358 
		333.913,112.22 338.454,108.413 	"/>
</g>
<g>
	
		<polyline fill-rule="evenodd" clip-rule="evenodd" fill="none" stroke="#000000" stroke-linecap="round" stroke-linejoin="round" stroke-miterlimit="10" points="
		339.657,108.413 342.329,112.154 344.934,114.291 347.673,115.427 349.144,115.694 351.615,115.561 355.223,114.358 
		358.763,112.22 363.305,108.413 	"/>
</g>
<g>
	
		<polyline fill-rule="evenodd" clip-rule="evenodd" fill="none" stroke="#000000" stroke-linecap="round" stroke-linejoin="round" stroke-miterlimit="10" points="
		364.24,108.413 366.913,112.154 369.652,114.425 372.19,115.427 373.66,115.694 376.132,115.561 379.74,114.358 383.881,111.821 
		387.822,108.413 	"/>
</g>
<g>
	
		<polyline fill-rule="evenodd" clip-rule="evenodd" fill="none" stroke="#000000" stroke-linecap="round" stroke-linejoin="round" stroke-miterlimit="10" points="
		389.091,108.413 391.764,112.154 394.503,114.425 397.042,115.427 398.511,115.694 400.983,115.561 404.591,114.358 
		408.732,111.821 412.673,108.413 	"/>
</g>
<g>
	
		<polyline fill-rule="evenodd" clip-rule="evenodd" fill="none" stroke="#000000" stroke-linecap="round" stroke-linejoin="round" stroke-miterlimit="10" points="
		364.24,108.413 366.913,112.154 369.652,114.425 372.19,115.427 373.66,115.694 376.132,115.561 379.74,114.358 383.881,111.821 
		387.822,108.413 	"/>
</g>
<g>
	
		<polyline fill-rule="evenodd" clip-rule="evenodd" fill="none" stroke="#000000" stroke-linecap="round" stroke-linejoin="round" stroke-miterlimit="10" points="
		389.091,108.413 391.764,112.154 394.503,114.425 397.042,115.427 398.511,115.694 400.983,115.561 404.591,114.358 
		408.732,111.821 412.673,108.413 	"/>
</g>
<g>
	
		<polyline fill-rule="evenodd" clip-rule="evenodd" fill="none" stroke="#000000" stroke-linecap="round" stroke-linejoin="round" stroke-miterlimit="10" points="
		364.24,108.413 366.913,112.154 369.652,114.425 372.19,115.427 373.66,115.694 376.132,115.561 379.74,114.358 383.881,111.821 
		387.822,108.413 	"/>
</g>
<g>
	
		<polyline fill-rule="evenodd" clip-rule="evenodd" fill="none" stroke="#000000" stroke-linecap="round" stroke-linejoin="round" stroke-miterlimit="10" points="
		389.091,108.413 391.764,112.154 394.503,114.425 397.042,115.427 398.511,115.694 400.983,115.561 404.591,114.358 
		408.732,111.821 412.673,108.413 	"/>
</g>
<g>
	
		<polyline fill-rule="evenodd" clip-rule="evenodd" fill="none" stroke="#000000" stroke-linecap="round" stroke-linejoin="round" stroke-miterlimit="10" points="
		364.24,108.413 366.913,112.154 369.652,114.425 372.19,115.427 373.66,115.694 376.132,115.561 379.74,114.358 383.881,111.821 
		387.822,108.413 	"/>
</g>
<g>
	
		<polyline fill-rule="evenodd" clip-rule="evenodd" fill="none" stroke="#000000" stroke-linecap="round" stroke-linejoin="round" stroke-miterlimit="10" points="
		389.091,108.413 391.764,112.154 394.503,114.425 397.042,115.427 398.511,115.694 400.983,115.561 404.591,114.358 
		408.732,111.821 412.673,108.413 	"/>
</g>
<g>
	
		<polyline fill-rule="evenodd" clip-rule="evenodd" fill="none" stroke="#000000" stroke-linecap="round" stroke-linejoin="round" stroke-miterlimit="10" points="
		364.24,108.413 366.913,112.154 369.652,114.425 372.19,115.427 373.66,115.694 376.132,115.561 379.74,114.358 383.881,111.821 
		387.822,108.413 	"/>
</g>
<g>
	
		<polyline fill-rule="evenodd" clip-rule="evenodd" fill="none" stroke="#000000" stroke-linecap="round" stroke-linejoin="round" stroke-miterlimit="10" points="
		389.091,108.413 391.764,112.154 394.503,114.425 397.042,115.427 398.511,115.694 400.983,115.561 404.591,114.358 
		408.732,111.821 412.673,108.413 	"/>
</g>
<g>
	
		<polyline fill-rule="evenodd" clip-rule="evenodd" fill="none" stroke="#000000" stroke-linecap="round" stroke-linejoin="round" stroke-miterlimit="10" points="
		364.24,108.413 366.913,112.154 369.652,114.425 372.19,115.427 373.66,115.694 376.132,115.561 379.74,114.358 383.881,111.821 
		387.822,108.413 	"/>
</g>
<g>
	
		<polyline fill-rule="evenodd" clip-rule="evenodd" fill="none" stroke="#000000" stroke-linecap="round" stroke-linejoin="round" stroke-miterlimit="10" points="
		389.091,108.413 391.764,112.154 394.503,114.425 397.042,115.427 398.511,115.694 400.983,115.561 404.591,114.358 
		408.732,111.821 412.673,108.413 	"/>
</g>
<g>
	
		<polyline fill-rule="evenodd" clip-rule="evenodd" fill="none" stroke="#000000" stroke-linecap="round" stroke-linejoin="round" stroke-miterlimit="10" points="
		364.24,108.413 366.913,112.154 369.652,114.425 372.19,115.427 373.66,115.694 376.132,115.561 379.74,114.358 383.881,111.821 
		387.822,108.413 	"/>
</g>
<g>
	
		<polyline fill-rule="evenodd" clip-rule="evenodd" fill="none" stroke="#000000" stroke-linecap="round" stroke-linejoin="round" stroke-miterlimit="10" points="
		389.091,108.413 391.764,112.154 394.503,114.425 397.042,115.427 398.511,115.694 400.983,115.561 404.591,114.358 
		408.732,111.821 412.673,108.413 	"/>
</g>
<g>
	
		<polyline fill-rule="evenodd" clip-rule="evenodd" fill="none" stroke="#000000" stroke-linecap="round" stroke-linejoin="round" stroke-miterlimit="10" points="
		364.24,108.413 366.913,112.154 369.652,114.425 372.19,115.427 373.66,115.694 376.132,115.561 379.74,114.358 383.881,111.821 
		387.822,108.413 	"/>
</g>
<g>
	
		<polyline fill-rule="evenodd" clip-rule="evenodd" fill="none" stroke="#000000" stroke-linecap="round" stroke-linejoin="round" stroke-miterlimit="10" points="
		389.091,108.413 391.764,112.154 394.503,114.425 397.042,115.427 398.511,115.694 400.983,115.561 404.591,114.358 
		408.732,111.821 412.673,108.413 	"/>
</g>
<g>
	
		<polyline fill-rule="evenodd" clip-rule="evenodd" fill="none" stroke="#000000" stroke-linecap="round" stroke-linejoin="round" stroke-miterlimit="10" points="
		364.24,108.413 366.913,112.154 369.652,114.425 372.19,115.427 373.66,115.694 376.132,115.561 379.74,114.358 383.881,111.821 
		387.822,108.413 	"/>
</g>
<g>
	
		<polyline fill-rule="evenodd" clip-rule="evenodd" fill="none" stroke="#000000" stroke-linecap="round" stroke-linejoin="round" stroke-miterlimit="10" points="
		389.091,108.413 391.764,112.154 394.503,114.425 397.042,115.427 398.511,115.694 400.983,115.561 404.591,114.358 
		408.732,111.821 412.673,108.413 	"/>
</g>
<g>
	
		<polyline fill-rule="evenodd" clip-rule="evenodd" fill="none" stroke="#000000" stroke-linecap="round" stroke-linejoin="round" stroke-miterlimit="10" points="
		414.143,108.48 416.815,112.22 419.42,114.425 422.16,115.561 423.63,115.828 426.101,115.694 429.708,114.492 433.85,111.887 
		437.792,108.48 	"/>
</g>
<g>
	
		<polyline fill-rule="evenodd" clip-rule="evenodd" fill="none" stroke="#000000" stroke-linecap="round" stroke-linejoin="round" stroke-miterlimit="10" points="
		439.061,108.48 441.332,111.754 443.604,113.958 446.076,115.294 448.48,115.828 450.952,115.694 454.559,114.492 458.701,111.887 
		462.643,108.48 	"/>
</g>
<g>
	
		<polyline fill-rule="evenodd" clip-rule="evenodd" fill="none" stroke="#000000" stroke-linecap="round" stroke-linejoin="round" stroke-miterlimit="10" points="
		414.143,108.48 416.815,112.22 419.42,114.425 422.16,115.561 423.63,115.828 426.101,115.694 429.708,114.492 433.85,111.887 
		437.792,108.48 	"/>
</g>
<g>
	
		<polyline fill-rule="evenodd" clip-rule="evenodd" fill="none" stroke="#000000" stroke-linecap="round" stroke-linejoin="round" stroke-miterlimit="10" points="
		439.061,108.48 441.332,111.754 443.604,113.958 446.076,115.294 448.48,115.828 450.952,115.694 454.559,114.492 458.701,111.887 
		462.643,108.48 	"/>
</g>
<g>
	
		<polyline fill-rule="evenodd" clip-rule="evenodd" fill="none" stroke="#000000" stroke-linecap="round" stroke-linejoin="round" stroke-miterlimit="10" points="
		414.143,108.48 416.815,112.22 419.42,114.425 422.16,115.561 423.63,115.828 426.101,115.694 429.708,114.492 433.85,111.887 
		437.792,108.48 	"/>
</g>
<g>
	
		<polyline fill-rule="evenodd" clip-rule="evenodd" fill="none" stroke="#000000" stroke-linecap="round" stroke-linejoin="round" stroke-miterlimit="10" points="
		439.061,108.48 441.332,111.754 443.604,113.958 446.076,115.294 448.48,115.828 450.952,115.694 454.559,114.492 458.701,111.887 
		462.643,108.48 	"/>
</g>
<g>
	
		<polyline fill-rule="evenodd" clip-rule="evenodd" fill="none" stroke="#000000" stroke-linecap="round" stroke-linejoin="round" stroke-miterlimit="10" points="
		414.143,108.48 416.815,112.22 419.42,114.425 422.16,115.561 423.63,115.828 426.101,115.694 429.708,114.492 433.85,111.887 
		437.792,108.48 	"/>
</g>
<g>
	
		<polyline fill-rule="evenodd" clip-rule="evenodd" fill="none" stroke="#000000" stroke-linecap="round" stroke-linejoin="round" stroke-miterlimit="10" points="
		439.061,108.48 441.332,111.754 443.604,113.958 446.076,115.294 448.48,115.828 450.952,115.694 454.559,114.492 458.701,111.887 
		462.643,108.48 	"/>
</g>
<g>
	
		<polyline fill-rule="evenodd" clip-rule="evenodd" fill="none" stroke="#000000" stroke-linecap="round" stroke-linejoin="round" stroke-miterlimit="10" points="
		414.143,108.48 416.815,112.22 419.42,114.425 422.16,115.561 423.63,115.828 426.101,115.694 429.708,114.492 433.85,111.887 
		437.792,108.48 	"/>
</g>
<g>
	
		<polyline fill-rule="evenodd" clip-rule="evenodd" fill="none" stroke="#000000" stroke-linecap="round" stroke-linejoin="round" stroke-miterlimit="10" points="
		439.061,108.48 441.332,111.754 443.604,113.958 446.076,115.294 448.48,115.828 450.952,115.694 454.559,114.492 458.701,111.887 
		462.643,108.48 	"/>
</g>
<g>
	
		<polyline fill-rule="evenodd" clip-rule="evenodd" fill="none" stroke="#000000" stroke-linecap="round" stroke-linejoin="round" stroke-miterlimit="10" points="
		414.143,108.48 416.815,112.22 419.42,114.425 422.16,115.561 423.63,115.828 426.101,115.694 429.708,114.492 433.85,111.887 
		437.792,108.48 	"/>
</g>
<g>
	
		<polyline fill-rule="evenodd" clip-rule="evenodd" fill="none" stroke="#000000" stroke-linecap="round" stroke-linejoin="round" stroke-miterlimit="10" points="
		439.061,108.48 441.332,111.754 443.604,113.958 446.076,115.294 448.48,115.828 450.952,115.694 454.559,114.492 458.701,111.887 
		462.643,108.48 	"/>
</g>
<g>
	
		<polyline fill-rule="evenodd" clip-rule="evenodd" fill="none" stroke="#000000" stroke-linecap="round" stroke-linejoin="round" stroke-miterlimit="10" points="
		414.143,108.48 416.815,112.22 419.42,114.425 422.16,115.561 423.63,115.828 426.101,115.694 429.708,114.492 433.85,111.887 
		437.792,108.48 	"/>
</g>
<g>
	
		<polyline fill-rule="evenodd" clip-rule="evenodd" fill="none" stroke="#000000" stroke-linecap="round" stroke-linejoin="round" stroke-miterlimit="10" points="
		439.061,108.48 441.332,111.754 443.604,113.958 446.076,115.294 448.48,115.828 450.952,115.694 454.559,114.492 458.701,111.887 
		462.643,108.48 	"/>
</g>
<g>
	
		<polyline fill-rule="evenodd" clip-rule="evenodd" fill="none" stroke="#000000" stroke-linecap="round" stroke-linejoin="round" stroke-miterlimit="10" points="
		414.143,108.48 416.815,112.22 419.42,114.425 422.16,115.561 423.63,115.828 426.101,115.694 429.708,114.492 433.85,111.887 
		437.792,108.48 	"/>
</g>
<g>
	
		<polyline fill-rule="evenodd" clip-rule="evenodd" fill="none" stroke="#000000" stroke-linecap="round" stroke-linejoin="round" stroke-miterlimit="10" points="
		439.061,108.48 441.332,111.754 443.604,113.958 446.076,115.294 448.48,115.828 450.952,115.694 454.559,114.492 458.701,111.887 
		462.643,108.48 	"/>
</g>
<g>
	
		<polyline fill-rule="evenodd" clip-rule="evenodd" fill="none" stroke="#000000" stroke-linecap="round" stroke-linejoin="round" stroke-miterlimit="10" points="
		414.143,108.48 416.815,112.22 419.42,114.425 422.16,115.561 423.63,115.828 426.101,115.694 429.708,114.492 433.85,111.887 
		437.792,108.48 	"/>
</g>
<g>
	
		<polyline fill-rule="evenodd" clip-rule="evenodd" fill="none" stroke="#000000" stroke-linecap="round" stroke-linejoin="round" stroke-miterlimit="10" points="
		439.061,108.48 441.332,111.754 443.604,113.958 446.076,115.294 448.48,115.828 450.952,115.694 454.559,114.492 458.701,111.887 
		462.643,108.48 	"/>
</g>
<g>
	
		<polyline fill-rule="evenodd" clip-rule="evenodd" fill="none" stroke="#000000" stroke-linecap="round" stroke-linejoin="round" stroke-miterlimit="10" points="
		463.043,108.48 465.715,112.22 468.321,114.425 471.06,115.561 472.529,115.828 475,115.694 478.608,114.492 482.75,111.887 
		486.691,108.48 	"/>
</g>
<g>
	
		<polyline fill-rule="evenodd" clip-rule="evenodd" fill="none" stroke="#000000" stroke-linecap="round" stroke-linejoin="round" stroke-miterlimit="10" points="
		487.961,108.48 490.232,111.754 492.504,113.958 494.976,115.294 497.381,115.828 499.852,115.694 503.459,114.492 
		507.601,111.887 511.542,108.48 	"/>
</g>
<g>
	
		<polyline fill-rule="evenodd" clip-rule="evenodd" fill="none" stroke="#000000" stroke-linecap="round" stroke-linejoin="round" stroke-miterlimit="10" points="
		463.043,108.48 465.715,112.22 468.321,114.425 471.06,115.561 472.529,115.828 475,115.694 478.608,114.492 482.75,111.887 
		486.691,108.48 	"/>
</g>
<g>
	
		<polyline fill-rule="evenodd" clip-rule="evenodd" fill="none" stroke="#000000" stroke-linecap="round" stroke-linejoin="round" stroke-miterlimit="10" points="
		487.961,108.48 490.232,111.754 492.504,113.958 494.976,115.294 497.381,115.828 499.852,115.694 503.459,114.492 
		507.601,111.887 511.542,108.48 	"/>
</g>
<g>
	
		<polyline fill-rule="evenodd" clip-rule="evenodd" fill="none" stroke="#000000" stroke-linecap="round" stroke-linejoin="round" stroke-miterlimit="10" points="
		463.043,108.48 465.715,112.22 468.321,114.425 471.06,115.561 472.529,115.828 475,115.694 478.608,114.492 482.75,111.887 
		486.691,108.48 	"/>
</g>
<g>
	
		<polyline fill-rule="evenodd" clip-rule="evenodd" fill="none" stroke="#000000" stroke-linecap="round" stroke-linejoin="round" stroke-miterlimit="10" points="
		487.961,108.48 490.232,111.754 492.504,113.958 494.976,115.294 497.381,115.828 499.852,115.694 503.459,114.492 
		507.601,111.887 511.542,108.48 	"/>
</g>
<g>
	
		<polyline fill-rule="evenodd" clip-rule="evenodd" fill="none" stroke="#000000" stroke-linecap="round" stroke-linejoin="round" stroke-miterlimit="10" points="
		463.043,108.48 465.715,112.22 468.321,114.425 471.06,115.561 472.529,115.828 475,115.694 478.608,114.492 482.75,111.887 
		486.691,108.48 	"/>
</g>
<g>
	
		<polyline fill-rule="evenodd" clip-rule="evenodd" fill="none" stroke="#000000" stroke-linecap="round" stroke-linejoin="round" stroke-miterlimit="10" points="
		487.961,108.48 490.232,111.754 492.504,113.958 494.976,115.294 497.381,115.828 499.852,115.694 503.459,114.492 
		507.601,111.887 511.542,108.48 	"/>
</g>
<g>
	
		<polyline fill-rule="evenodd" clip-rule="evenodd" fill="none" stroke="#000000" stroke-linecap="round" stroke-linejoin="round" stroke-miterlimit="10" points="
		463.043,108.48 465.715,112.22 468.321,114.425 471.06,115.561 472.529,115.828 475,115.694 478.608,114.492 482.75,111.887 
		486.691,108.48 	"/>
</g>
<g>
	
		<polyline fill-rule="evenodd" clip-rule="evenodd" fill="none" stroke="#000000" stroke-linecap="round" stroke-linejoin="round" stroke-miterlimit="10" points="
		487.961,108.48 490.232,111.754 492.504,113.958 494.976,115.294 497.381,115.828 499.852,115.694 503.459,114.492 
		507.601,111.887 511.542,108.48 	"/>
</g>
<g>
	
		<polyline fill-rule="evenodd" clip-rule="evenodd" fill="none" stroke="#000000" stroke-linecap="round" stroke-linejoin="round" stroke-miterlimit="10" points="
		463.043,108.48 465.715,112.22 468.321,114.425 471.06,115.561 472.529,115.828 475,115.694 478.608,114.492 482.75,111.887 
		486.691,108.48 	"/>
</g>
<g>
	
		<polyline fill-rule="evenodd" clip-rule="evenodd" fill="none" stroke="#000000" stroke-linecap="round" stroke-linejoin="round" stroke-miterlimit="10" points="
		487.961,108.48 490.232,111.754 492.504,113.958 494.976,115.294 497.381,115.828 499.852,115.694 503.459,114.492 
		507.601,111.887 511.542,108.48 	"/>
</g>
<g>
	
		<polyline fill-rule="evenodd" clip-rule="evenodd" fill="none" stroke="#000000" stroke-linecap="round" stroke-linejoin="round" stroke-miterlimit="10" points="
		463.043,108.48 465.715,112.22 468.321,114.425 471.06,115.561 472.529,115.828 475,115.694 478.608,114.492 482.75,111.887 
		486.691,108.48 	"/>
</g>
<g>
	
		<polyline fill-rule="evenodd" clip-rule="evenodd" fill="none" stroke="#000000" stroke-linecap="round" stroke-linejoin="round" stroke-miterlimit="10" points="
		487.961,108.48 490.232,111.754 492.504,113.958 494.976,115.294 497.381,115.828 499.852,115.694 503.459,114.492 
		507.601,111.887 511.542,108.48 	"/>
</g>
<g>
	
		<polyline fill-rule="evenodd" clip-rule="evenodd" fill="none" stroke="#000000" stroke-linecap="round" stroke-linejoin="round" stroke-miterlimit="10" points="
		463.043,108.48 465.715,112.22 468.321,114.425 471.06,115.561 472.529,115.828 475,115.694 478.608,114.492 482.75,111.887 
		486.691,108.48 	"/>
</g>
<g>
	
		<polyline fill-rule="evenodd" clip-rule="evenodd" fill="none" stroke="#000000" stroke-linecap="round" stroke-linejoin="round" stroke-miterlimit="10" points="
		487.961,108.48 490.232,111.754 492.504,113.958 494.976,115.294 497.381,115.828 499.852,115.694 503.459,114.492 
		507.601,111.887 511.542,108.48 	"/>
</g>
<g>
	
		<polyline fill-rule="evenodd" clip-rule="evenodd" fill="none" stroke="#000000" stroke-linecap="round" stroke-linejoin="round" stroke-miterlimit="10" points="
		463.043,108.48 465.715,112.22 468.321,114.425 471.06,115.561 472.529,115.828 475,115.694 478.608,114.492 482.75,111.887 
		486.691,108.48 	"/>
</g>
<g>
	
		<polyline fill-rule="evenodd" clip-rule="evenodd" fill="none" stroke="#000000" stroke-linecap="round" stroke-linejoin="round" stroke-miterlimit="10" points="
		487.961,108.48 490.232,111.754 492.504,113.958 494.976,115.294 497.381,115.828 499.852,115.694 503.459,114.492 
		507.601,111.887 511.542,108.48 	"/>
</g>
<g>
	
		<line fill-rule="evenodd" clip-rule="evenodd" fill="none" stroke="#000000" stroke-linecap="round" stroke-linejoin="round" stroke-miterlimit="10" x1="432.714" y1="65.125" x2="473.732" y2="65.125"/>
</g>
<g>
	
		<line fill-rule="evenodd" clip-rule="evenodd" fill="none" stroke="#000000" stroke-linecap="round" stroke-linejoin="round" stroke-miterlimit="10" x1="453.491" y1="56.106" x2="453.491" y2="13.953"/>
</g>
<g>
	
		<line fill-rule="evenodd" clip-rule="evenodd" fill="none" stroke="#000000" stroke-linecap="round" stroke-linejoin="round" stroke-miterlimit="10" x1="456.897" y1="56.641" x2="474.066" y2="9.477"/>
</g>
<g>
	
		<line fill-rule="evenodd" clip-rule="evenodd" fill="none" stroke="#000000" stroke-linecap="round" stroke-linejoin="round" stroke-miterlimit="10" x1="454.091" y1="19.565" x2="470.926" y2="19.565"/>
</g>
<g>
	
		<polyline fill-rule="evenodd" clip-rule="evenodd" stroke="#000000" stroke-linecap="round" stroke-linejoin="round" stroke-miterlimit="10" points="
		462.042,15.089 470.926,19.565 462.042,24.04 462.042,15.089 	"/>
</g>
<text transform="matrix(1 0 0 1 480.0112 26.5784)" font-family="'Helvetica-Bold'" font-size="19.8289">ALFU</text>
<text transform="matrix(1 0 0 1 47.7256 364.0039)" font-family="'Helvetica-Bold'" font-size="19.8289">ALFL</text>
<g>
	
		<polyline fill-rule="evenodd" clip-rule="evenodd" fill="none" stroke="#000000" stroke-linecap="round" stroke-linejoin="round" stroke-miterlimit="10" points="
		40.376,371.418 46.99,370.684 51.734,370.75 56.744,371.418 62.423,373.022 67.967,375.694 72.844,379.102 77.32,383.444 
		81.996,389.456 	"/>
</g>
<g>
	
		<polyline fill-rule="evenodd" clip-rule="evenodd" stroke="#000000" stroke-linecap="round" stroke-linejoin="round" stroke-miterlimit="10" points="
		80.125,379.636 81.996,389.456 73.044,385.047 80.125,379.636 	"/>
</g>
<g>
	
		<line fill-rule="evenodd" clip-rule="evenodd" fill="none" stroke="#000000" stroke-linecap="round" stroke-linejoin="round" stroke-miterlimit="10" x1="9.046" y1="445.771" x2="24.21" y2="430.607"/>
</g>
<g>
	
		<line fill-rule="evenodd" clip-rule="evenodd" fill="none" stroke="#000000" stroke-linecap="round" stroke-linejoin="round" stroke-miterlimit="10" x1="23.81" y1="445.771" x2="38.975" y2="430.607"/>
</g>
<g>
	
		<line fill-rule="evenodd" clip-rule="evenodd" fill="none" stroke="#000000" stroke-linecap="round" stroke-linejoin="round" stroke-miterlimit="10" x1="36.302" y1="445.771" x2="51.466" y2="430.607"/>
</g>
<g>
	
		<line fill-rule="evenodd" clip-rule="evenodd" fill="none" stroke="#000000" stroke-linecap="round" stroke-linejoin="round" stroke-miterlimit="10" x1="49.663" y1="445.771" x2="64.827" y2="430.607"/>
</g>
<g>
	
		<line fill-rule="evenodd" clip-rule="evenodd" fill="none" stroke="#000000" stroke-linecap="round" stroke-linejoin="round" stroke-miterlimit="10" x1="64.56" y1="445.771" x2="79.725" y2="430.607"/>
</g>
<g>
	
		<line fill-rule="evenodd" clip-rule="evenodd" fill="none" stroke="#000000" stroke-linecap="round" stroke-linejoin="round" stroke-miterlimit="10" x1="78.322" y1="445.771" x2="93.486" y2="430.607"/>
</g>
<g>
	
		<line fill-rule="evenodd" clip-rule="evenodd" fill="none" stroke="#000000" stroke-linecap="round" stroke-linejoin="round" stroke-miterlimit="10" x1="90.546" y1="445.771" x2="105.711" y2="430.607"/>
</g>
</svg>
