<?xml version="1.0" encoding="utf-8"?>
<!-- Generator: Adobe Illustrator 15.0.0, SVG Export Plug-In . SVG Version: 6.00 Build 0)  -->
<!DOCTYPE svg PUBLIC "-//W3C//DTD SVG 1.1//EN" "http://www.w3.org/Graphics/SVG/1.1/DTD/svg11.dtd">
<svg version="1.1" id="_x3C_Layer_x3E_" xmlns="http://www.w3.org/2000/svg" xmlns:xlink="http://www.w3.org/1999/xlink" x="0px"
	 y="0px" width="737.5px" height="538.5px" viewBox="0 0 737.5 538.5" enable-background="new 0 0 737.5 538.5"
	 xml:space="preserve">
<g>
	
		<polyline fill-rule="evenodd" clip-rule="evenodd" fill="none" stroke="#000000" stroke-width="2" stroke-linecap="round" stroke-linejoin="round" stroke-miterlimit="10" points="
		150.163,6.121 150.163,463.9 731.153,463.9 	"/>
</g>
<g>
	
		<polyline fill-rule="evenodd" clip-rule="evenodd" stroke="#000000" stroke-linecap="round" stroke-linejoin="round" stroke-miterlimit="10" points="
		158.794,23.515 150.163,6.121 141.399,23.515 158.794,23.515 	"/>
</g>
<g>
	
		<polyline fill-rule="evenodd" clip-rule="evenodd" stroke="#000000" stroke-linecap="round" stroke-linejoin="round" stroke-miterlimit="10" points="
		713.757,455.139 731.153,463.9 713.757,472.533 713.757,455.139 	"/>
</g>
<g>
	
		<line fill-rule="evenodd" clip-rule="evenodd" fill="none" stroke="#000000" stroke-width="2" stroke-linecap="round" stroke-linejoin="round" stroke-miterlimit="10" x1="283.312" y1="33.586" x2="283.312" y2="460.502"/>
</g>
<g>
	
		<line fill-rule="evenodd" clip-rule="evenodd" fill="none" stroke="#000000" stroke-width="2" stroke-linecap="round" stroke-linejoin="round" stroke-miterlimit="10" x1="569.359" y1="24.823" x2="569.359" y2="459.456"/>
</g>
<g>
	
		<polyline fill-rule="evenodd" clip-rule="evenodd" fill="none" stroke="#000000" stroke-width="2" stroke-linecap="round" stroke-linejoin="round" stroke-miterlimit="10" points="
		150.163,463.9 282.135,387.648 356.949,300.931 440.658,182.17 711.402,127.105 	"/>
</g>
<g>
	
		<line fill-rule="evenodd" clip-rule="evenodd" fill="none" stroke="#000000" stroke-width="2" stroke-linecap="round" stroke-linejoin="round" stroke-miterlimit="10" x1="148.986" y1="46.797" x2="716.896" y2="46.797"/>
</g>
<g>
	
		<line fill-rule="evenodd" clip-rule="evenodd" fill="none" stroke="#000000" stroke-width="2" stroke-linecap="round" stroke-linejoin="round" stroke-miterlimit="10" stroke-dasharray="16,8" x1="356.949" y1="300.931" x2="147.939" y2="300.931"/>
</g>
<g>
	
		<line fill-rule="evenodd" clip-rule="evenodd" fill="none" stroke="#000000" stroke-width="2" stroke-linecap="round" stroke-linejoin="round" stroke-miterlimit="10" stroke-dasharray="16,8" x1="282.135" y1="387.648" x2="150.163" y2="387.648"/>
</g>
<g>
	<path d="M40.756,7.651c0.885-0.21,2.307-0.35,3.705-0.35c2.027,0,3.332,0.35,4.287,1.142c0.815,0.606,1.328,1.538,1.328,2.773
		c0,1.538-1.025,2.866-2.656,3.448v0.07c1.491,0.35,3.239,1.584,3.239,3.915c0,1.352-0.536,2.4-1.352,3.146
		c-1.072,1.002-2.842,1.468-5.405,1.468c-1.398,0-2.47-0.093-3.146-0.186V7.651z M42.783,14.082h1.841
		c2.12,0,3.378-1.142,3.378-2.656c0-1.817-1.375-2.563-3.425-2.563c-0.932,0-1.468,0.07-1.794,0.14V14.082z M42.783,21.584
		c0.419,0.07,0.979,0.093,1.701,0.093c2.097,0,4.031-0.769,4.031-3.052c0-2.12-1.841-3.029-4.054-3.029h-1.678V21.584z"/>
	<path d="M66.616,16.225c-0.117-2.19-0.256-4.846-0.256-6.78h-0.046c-0.56,1.817-1.188,3.798-1.981,5.965l-2.772,7.619h-1.538
		l-2.563-7.479c-0.746-2.237-1.351-4.24-1.794-6.104h-0.046c-0.047,1.957-0.163,4.567-0.303,6.943l-0.419,6.734h-1.934l1.095-15.704
		h2.586l2.68,7.596c0.652,1.934,1.165,3.658,1.584,5.289h0.046c0.419-1.584,0.979-3.309,1.678-5.289l2.796-7.596h2.586l0.979,15.704
		h-2.004L66.616,16.225z"/>
	<path d="M85.53,15.107c0,5.382-3.286,8.271-7.293,8.271c-4.171,0-7.06-3.239-7.06-7.992c0-4.986,3.076-8.248,7.27-8.248
		C82.757,7.138,85.53,10.423,85.53,15.107z M73.321,15.34c0,3.378,1.817,6.384,5.033,6.384s5.033-2.959,5.033-6.524
		c0-3.146-1.631-6.408-5.01-6.408S73.321,11.915,73.321,15.34z"/>
	<path d="M101.393,16.225c-0.117-2.19-0.256-4.846-0.256-6.78h-0.046c-0.56,1.817-1.188,3.798-1.981,5.965l-2.772,7.619h-1.538
		l-2.563-7.479c-0.746-2.237-1.351-4.24-1.794-6.104h-0.046c-0.047,1.957-0.163,4.567-0.303,6.943l-0.419,6.734h-1.934l1.095-15.704
		h2.586l2.68,7.596c0.652,1.934,1.165,3.658,1.584,5.289h0.046c0.419-1.584,0.979-3.309,1.678-5.289l2.796-7.596h2.586l0.979,15.704
		h-2.004L101.393,16.225z"/>
	<path d="M110.381,23.122v-6.664l-4.986-9.04h2.33l2.213,4.333c0.583,1.188,1.072,2.144,1.561,3.239h0.046
		c0.419-1.025,0.979-2.05,1.584-3.239l2.26-4.333h2.283l-5.242,9.017v6.687H110.381z"/>
</g>
<g>
	<path d="M5.574,294.354c0.885-0.21,2.307-0.35,3.705-0.35c2.027,0,3.332,0.35,4.287,1.142c0.815,0.606,1.328,1.538,1.328,2.773
		c0,1.538-1.025,2.866-2.656,3.448v0.07c1.491,0.35,3.239,1.584,3.239,3.915c0,1.352-0.536,2.4-1.352,3.146
		c-1.072,1.002-2.842,1.468-5.405,1.468c-1.398,0-2.47-0.093-3.146-0.186V294.354z M7.601,300.785h1.841
		c2.12,0,3.378-1.142,3.378-2.656c0-1.817-1.375-2.563-3.425-2.563c-0.932,0-1.468,0.07-1.794,0.14V300.785z M7.601,308.288
		c0.419,0.07,0.979,0.093,1.701,0.093c2.097,0,4.031-0.769,4.031-3.052c0-2.12-1.841-3.029-4.054-3.029H7.601V308.288z"/>
	<path d="M31.433,302.928c-0.117-2.19-0.256-4.846-0.256-6.78H31.13c-0.56,1.817-1.188,3.798-1.981,5.965l-2.772,7.619h-1.538
		l-2.563-7.479c-0.746-2.237-1.351-4.24-1.794-6.104h-0.046c-0.047,1.957-0.163,4.567-0.303,6.943l-0.419,6.734h-1.934l1.095-15.704
		h2.586l2.68,7.596c0.652,1.934,1.165,3.658,1.584,5.289h0.046c0.419-1.584,0.979-3.309,1.678-5.289l2.796-7.596h2.586l0.979,15.704
		h-2.004L31.433,302.928z"/>
	<path d="M50.348,301.81c0,5.382-3.286,8.271-7.293,8.271c-4.171,0-7.06-3.239-7.06-7.992c0-4.986,3.076-8.248,7.27-8.248
		C47.575,293.841,50.348,297.126,50.348,301.81z M38.138,302.043c0,3.378,1.817,6.384,5.033,6.384s5.033-2.959,5.033-6.524
		c0-3.146-1.631-6.408-5.01-6.408S38.138,298.618,38.138,302.043z"/>
	<path d="M66.21,302.928c-0.117-2.19-0.256-4.846-0.256-6.78h-0.046c-0.56,1.817-1.188,3.798-1.981,5.965l-2.772,7.619h-1.538
		l-2.563-7.479c-0.746-2.237-1.351-4.24-1.794-6.104h-0.046c-0.047,1.957-0.163,4.567-0.303,6.943l-0.419,6.734h-1.934l1.095-15.704
		h2.586l2.68,7.596c0.652,1.934,1.165,3.658,1.584,5.289h0.046c0.419-1.584,0.979-3.309,1.678-5.289l2.796-7.596h2.586l0.979,15.704
		h-2.004L66.21,302.928z"/>
	<path d="M75.199,309.825v-6.664l-4.986-9.04h2.33l2.213,4.333c0.583,1.188,1.072,2.144,1.561,3.239h0.046
		c0.419-1.025,0.979-2.05,1.584-3.239l2.26-4.333h2.283l-5.242,9.017v6.687H75.199z"/>
	<path d="M93.601,293.655c-1.701,2.307-2.913,5.313-2.913,9.553c0,4.147,1.282,7.106,2.913,9.437h-1.584
		c-1.468-1.934-3.052-4.917-3.052-9.46c0.023-4.567,1.584-7.572,3.052-9.53H93.601z"/>
	<path d="M95.625,307.495c0.583,0.35,1.911,0.932,3.355,0.932c2.609,0,3.448-1.654,3.425-2.936c-0.023-2.12-1.934-3.029-3.915-3.029
		H97.35v-1.538h1.142c1.491,0,3.378-0.769,3.378-2.563c0-1.211-0.769-2.283-2.656-2.283c-1.211,0-2.376,0.536-3.029,1.002
		l-0.56-1.491c0.816-0.583,2.354-1.165,3.984-1.165c2.982,0,4.334,1.771,4.334,3.611c0,1.584-0.955,2.913-2.796,3.588v0.046
		c1.864,0.35,3.355,1.748,3.378,3.868c0,2.423-1.911,4.543-5.522,4.543c-1.701,0-3.192-0.536-3.938-1.025L95.625,307.495z"/>
	<path d="M106.503,312.645c1.631-2.307,2.913-5.313,2.913-9.506c0-4.194-1.258-7.153-2.913-9.483h1.584
		c1.468,1.911,3.052,4.917,3.052,9.483c-0.023,4.567-1.584,7.549-3.052,9.506H106.503z"/>
</g>
<g>
	<path d="M5.574,375.838c0.885-0.21,2.307-0.35,3.705-0.35c2.027,0,3.332,0.35,4.287,1.142c0.815,0.606,1.328,1.538,1.328,2.773
		c0,1.538-1.025,2.866-2.656,3.448v0.07c1.491,0.35,3.239,1.584,3.239,3.915c0,1.352-0.536,2.4-1.352,3.146
		c-1.072,1.002-2.842,1.468-5.405,1.468c-1.398,0-2.47-0.093-3.146-0.186V375.838z M7.601,382.269h1.841
		c2.12,0,3.378-1.142,3.378-2.656c0-1.817-1.375-2.563-3.425-2.563c-0.932,0-1.468,0.07-1.794,0.14V382.269z M7.601,389.772
		c0.419,0.07,0.979,0.093,1.701,0.093c2.097,0,4.031-0.769,4.031-3.052c0-2.12-1.841-3.029-4.054-3.029H7.601V389.772z"/>
	<path d="M31.433,384.413c-0.117-2.19-0.256-4.846-0.256-6.78H31.13c-0.56,1.817-1.188,3.798-1.981,5.965l-2.772,7.619h-1.538
		l-2.563-7.479c-0.746-2.237-1.351-4.24-1.794-6.104h-0.046c-0.047,1.957-0.163,4.567-0.303,6.943l-0.419,6.734h-1.934l1.095-15.704
		h2.586l2.68,7.596c0.652,1.934,1.165,3.658,1.584,5.289h0.046c0.419-1.584,0.979-3.309,1.678-5.289l2.796-7.596h2.586l0.979,15.704
		h-2.004L31.433,384.413z"/>
	<path d="M50.348,383.294c0,5.382-3.286,8.271-7.293,8.271c-4.171,0-7.06-3.239-7.06-7.992c0-4.986,3.076-8.248,7.27-8.248
		C47.575,375.326,50.348,378.611,50.348,383.294z M38.138,383.527c0,3.378,1.817,6.384,5.033,6.384s5.033-2.959,5.033-6.524
		c0-3.146-1.631-6.408-5.01-6.408S38.138,380.102,38.138,383.527z"/>
	<path d="M66.21,384.413c-0.117-2.19-0.256-4.846-0.256-6.78h-0.046c-0.56,1.817-1.188,3.798-1.981,5.965l-2.772,7.619h-1.538
		l-2.563-7.479c-0.746-2.237-1.351-4.24-1.794-6.104h-0.046c-0.047,1.957-0.163,4.567-0.303,6.943l-0.419,6.734h-1.934l1.095-15.704
		h2.586l2.68,7.596c0.652,1.934,1.165,3.658,1.584,5.289h0.046c0.419-1.584,0.979-3.309,1.678-5.289l2.796-7.596h2.586l0.979,15.704
		h-2.004L66.21,384.413z"/>
	<path d="M75.199,391.31v-6.664l-4.986-9.04h2.33l2.213,4.333c0.583,1.188,1.072,2.144,1.561,3.239h0.046
		c0.419-1.025,0.979-2.05,1.584-3.239l2.26-4.333h2.283l-5.242,9.017v6.687H75.199z"/>
	<path d="M93.601,375.139c-1.701,2.307-2.913,5.313-2.913,9.553c0,4.147,1.282,7.106,2.913,9.437h-1.584
		c-1.468-1.934-3.052-4.917-3.052-9.46c0.023-4.567,1.584-7.572,3.052-9.53H93.601z"/>
	<path d="M95.136,391.31v-1.258l1.608-1.561c3.868-3.682,5.639-5.639,5.639-7.922c0-1.538-0.722-2.959-2.982-2.959
		c-1.375,0-2.517,0.699-3.215,1.282l-0.652-1.445c1.025-0.862,2.54-1.538,4.264-1.538c3.262,0,4.637,2.237,4.637,4.404
		c0,2.796-2.027,5.056-5.219,8.132l-1.188,1.118v0.047h6.781v1.701H95.136z"/>
	<path d="M106.503,394.129c1.631-2.307,2.913-5.313,2.913-9.506c0-4.194-1.258-7.153-2.913-9.483h1.584
		c1.468,1.911,3.052,4.917,3.052,9.483c-0.023,4.567-1.584,7.549-3.052,9.506H106.503z"/>
</g>
<g>
	<path d="M125.984,461.135c0,5.149-1.934,7.991-5.266,7.991c-2.959,0-4.986-2.772-5.033-7.782c0-5.103,2.213-7.875,5.289-7.875
		C124.144,453.469,125.984,456.312,125.984,461.135z M117.759,461.367c0,3.938,1.211,6.175,3.076,6.175
		c2.074,0,3.076-2.446,3.076-6.314c0-3.728-0.932-6.175-3.076-6.175C119.064,455.053,117.759,457.243,117.759,461.367z"/>
</g>
<g>
	<path d="M152.536,489.126c0,5.149-1.934,7.991-5.266,7.991c-2.959,0-4.986-2.772-5.033-7.782c0-5.103,2.213-7.875,5.289-7.875
		C150.695,481.46,152.536,484.303,152.536,489.126z M144.311,489.358c0,3.938,1.211,6.175,3.076,6.175
		c2.074,0,3.076-2.446,3.076-6.314c0-3.728-0.932-6.175-3.076-6.175C145.616,483.044,144.311,485.234,144.311,489.358z"/>
</g>
<g>
	<path d="M255.617,496.504c-0.722,0.373-2.237,0.745-4.147,0.745c-4.427,0-7.735-2.796-7.735-7.968c0-4.94,3.332-8.249,8.202-8.249
		c1.934,0,3.192,0.42,3.728,0.699l-0.513,1.654c-0.746-0.373-1.841-0.652-3.146-0.652c-3.682,0-6.128,2.354-6.128,6.478
		c0,3.868,2.213,6.314,6.011,6.314c1.258,0,2.517-0.257,3.332-0.652L255.617,496.504z"/>
	<path d="M260.204,481.289v9.32c0,3.494,1.561,4.985,3.658,4.985c2.307,0,3.821-1.537,3.821-4.985v-9.32h2.05v9.18
		c0,4.823-2.54,6.78-5.941,6.78c-3.215,0-5.639-1.817-5.639-6.71v-9.25H260.204z"/>
	<path d="M273.248,481.499c1.025-0.187,2.516-0.327,3.891-0.327c2.167,0,3.588,0.42,4.543,1.282
		c0.769,0.699,1.235,1.771,1.235,3.006c0,2.05-1.305,3.425-2.936,3.984v0.069c1.188,0.42,1.911,1.538,2.284,3.169
		c0.513,2.19,0.885,3.705,1.211,4.311h-2.097c-0.256-0.466-0.605-1.794-1.025-3.751c-0.466-2.167-1.328-2.982-3.169-3.053h-1.911
		v6.804h-2.027V481.499z M275.274,488.651h2.074c2.167,0,3.542-1.188,3.542-2.982c0-2.026-1.468-2.912-3.611-2.912
		c-0.979,0-1.654,0.069-2.004,0.163V488.651z"/>
	<path d="M289.6,496.993l-5.149-15.704h2.213l2.447,7.735c0.652,2.12,1.235,4.031,1.678,5.872h0.046
		c0.443-1.817,1.072-3.798,1.794-5.849l2.656-7.759h2.167l-5.615,15.704H289.6z"/>
</g>
<g>
	<path d="M267.727,507.635c-1.701,2.307-2.913,5.313-2.913,9.553c0,4.147,1.282,7.106,2.913,9.437h-1.584
		c-1.468-1.934-3.052-4.916-3.052-9.46c0.023-4.566,1.584-7.572,3.052-9.529H267.727z"/>
	<path d="M269.262,523.805v-1.258l1.608-1.562c3.868-3.682,5.639-5.639,5.639-7.922c0-1.538-0.722-2.959-2.982-2.959
		c-1.375,0-2.517,0.698-3.215,1.281l-0.652-1.444c1.025-0.862,2.54-1.538,4.264-1.538c3.262,0,4.637,2.236,4.637,4.403
		c0,2.797-2.027,5.057-5.219,8.132l-1.188,1.119v0.046h6.781v1.701H269.262z"/>
	<path d="M280.629,526.624c1.631-2.307,2.913-5.313,2.913-9.507c0-4.193-1.258-7.152-2.913-9.482h1.584
		c1.468,1.91,3.052,4.916,3.052,9.482c-0.023,4.567-1.584,7.55-3.052,9.507H280.629z"/>
</g>
<g>
	<path d="M361.299,496.504c-0.722,0.373-2.236,0.745-4.147,0.745c-4.427,0-7.735-2.796-7.735-7.968c0-4.94,3.332-8.249,8.201-8.249
		c1.935,0,3.192,0.42,3.729,0.699l-0.513,1.654c-0.745-0.373-1.841-0.652-3.146-0.652c-3.682,0-6.128,2.354-6.128,6.478
		c0,3.868,2.214,6.314,6.012,6.314c1.258,0,2.517-0.257,3.332-0.652L361.299,496.504z"/>
	<path d="M365.885,481.289v9.32c0,3.494,1.562,4.985,3.658,4.985c2.307,0,3.821-1.537,3.821-4.985v-9.32h2.051v9.18
		c0,4.823-2.54,6.78-5.942,6.78c-3.215,0-5.639-1.817-5.639-6.71v-9.25H365.885z"/>
	<path d="M378.929,481.499c1.025-0.187,2.517-0.327,3.892-0.327c2.167,0,3.588,0.42,4.543,1.282c0.77,0.699,1.235,1.771,1.235,3.006
		c0,2.05-1.305,3.425-2.936,3.984v0.069c1.188,0.42,1.91,1.538,2.283,3.169c0.513,2.19,0.886,3.705,1.212,4.311h-2.098
		c-0.256-0.466-0.605-1.794-1.025-3.751c-0.466-2.167-1.328-2.982-3.168-3.053h-1.911v6.804h-2.027V481.499z M380.956,488.651h2.074
		c2.166,0,3.541-1.188,3.541-2.982c0-2.026-1.468-2.912-3.611-2.912c-0.979,0-1.654,0.069-2.004,0.163V488.651z"/>
	<path d="M395.281,496.993l-5.148-15.704h2.213l2.446,7.735c0.653,2.12,1.235,4.031,1.678,5.872h0.047
		c0.442-1.817,1.072-3.798,1.794-5.849l2.656-7.759h2.167l-5.615,15.704H395.281z"/>
</g>
<g>
	<path d="M373.409,507.635c-1.701,2.307-2.912,5.313-2.912,9.553c0,4.147,1.281,7.106,2.912,9.437h-1.584
		c-1.469-1.934-3.053-4.916-3.053-9.46c0.023-4.566,1.584-7.572,3.053-9.529H373.409z"/>
	<path d="M375.435,521.475c0.582,0.35,1.91,0.932,3.354,0.932c2.61,0,3.449-1.654,3.426-2.936c-0.023-2.12-1.935-3.029-3.915-3.029
		h-1.142v-1.537h1.142c1.491,0,3.379-0.77,3.379-2.563c0-1.212-0.769-2.283-2.656-2.283c-1.212,0-2.377,0.536-3.029,1.002
		l-0.559-1.491c0.815-0.583,2.354-1.165,3.984-1.165c2.982,0,4.334,1.771,4.334,3.611c0,1.585-0.956,2.913-2.797,3.589v0.046
		c1.864,0.35,3.355,1.748,3.379,3.868c0,2.423-1.91,4.543-5.522,4.543c-1.7,0-3.191-0.535-3.938-1.024L375.435,521.475z"/>
	<path d="M386.312,526.624c1.631-2.307,2.913-5.313,2.913-9.507c0-4.193-1.259-7.152-2.913-9.482h1.585
		c1.468,1.91,3.052,4.916,3.052,9.482c-0.023,4.567-1.584,7.55-3.052,9.507H386.312z"/>
</g>
<g>
	<path d="M442.392,496.504c-0.722,0.373-2.236,0.745-4.147,0.745c-4.427,0-7.735-2.796-7.735-7.968c0-4.94,3.332-8.249,8.201-8.249
		c1.935,0,3.192,0.42,3.729,0.699l-0.513,1.654c-0.745-0.373-1.841-0.652-3.146-0.652c-3.682,0-6.128,2.354-6.128,6.478
		c0,3.868,2.214,6.314,6.012,6.314c1.258,0,2.517-0.257,3.332-0.652L442.392,496.504z"/>
	<path d="M446.978,481.289v9.32c0,3.494,1.562,4.985,3.658,4.985c2.307,0,3.821-1.537,3.821-4.985v-9.32h2.051v9.18
		c0,4.823-2.54,6.78-5.942,6.78c-3.215,0-5.639-1.817-5.639-6.71v-9.25H446.978z"/>
	<path d="M460.021,481.499c1.025-0.187,2.517-0.327,3.892-0.327c2.167,0,3.588,0.42,4.543,1.282c0.77,0.699,1.235,1.771,1.235,3.006
		c0,2.05-1.305,3.425-2.936,3.984v0.069c1.188,0.42,1.91,1.538,2.283,3.169c0.513,2.19,0.886,3.705,1.212,4.311h-2.098
		c-0.256-0.466-0.605-1.794-1.025-3.751c-0.466-2.167-1.328-2.982-3.168-3.053h-1.911v6.804h-2.027V481.499z M462.049,488.651h2.074
		c2.166,0,3.541-1.188,3.541-2.982c0-2.026-1.468-2.912-3.611-2.912c-0.979,0-1.654,0.069-2.004,0.163V488.651z"/>
	<path d="M476.375,496.993l-5.149-15.704h2.213l2.446,7.735c0.653,2.12,1.235,4.031,1.678,5.872h0.047
		c0.442-1.817,1.072-3.798,1.794-5.849l2.656-7.759h2.167l-5.615,15.704H476.375z"/>
</g>
<g>
	<path d="M454.502,507.635c-1.701,2.307-2.912,5.313-2.912,9.553c0,4.147,1.281,7.106,2.912,9.437h-1.584
		c-1.469-1.934-3.053-4.916-3.053-9.46c0.023-4.566,1.584-7.572,3.053-9.529H454.502z"/>
	<path d="M462.375,523.805v-4.147h-7.036v-1.328l6.757-9.67h2.214v9.414h2.12v1.584h-2.12v4.147H462.375z M462.375,518.073v-5.057
		c0-0.792,0.023-1.584,0.07-2.377h-0.07c-0.466,0.886-0.839,1.538-1.258,2.237l-3.705,5.149v0.047H462.375z"/>
	<path d="M467.404,526.624c1.631-2.307,2.913-5.313,2.913-9.507c0-4.193-1.259-7.152-2.913-9.482h1.585
		c1.468,1.91,3.052,4.916,3.052,9.482c-0.023,4.567-1.584,7.55-3.052,9.507H467.404z"/>
</g>
<g>
	<path d="M552.391,496.504c-0.722,0.373-2.236,0.745-4.147,0.745c-4.427,0-7.735-2.796-7.735-7.968c0-4.94,3.332-8.249,8.201-8.249
		c1.935,0,3.192,0.42,3.729,0.699l-0.513,1.654c-0.745-0.373-1.841-0.652-3.146-0.652c-3.682,0-6.128,2.354-6.128,6.478
		c0,3.868,2.214,6.314,6.012,6.314c1.258,0,2.517-0.257,3.332-0.652L552.391,496.504z"/>
	<path d="M556.977,481.289v9.32c0,3.494,1.562,4.985,3.658,4.985c2.307,0,3.821-1.537,3.821-4.985v-9.32h2.051v9.18
		c0,4.823-2.54,6.78-5.942,6.78c-3.215,0-5.639-1.817-5.639-6.71v-9.25H556.977z"/>
	<path d="M570.021,481.499c1.025-0.187,2.517-0.327,3.892-0.327c2.167,0,3.588,0.42,4.543,1.282c0.77,0.699,1.235,1.771,1.235,3.006
		c0,2.05-1.305,3.425-2.936,3.984v0.069c1.188,0.42,1.91,1.538,2.283,3.169c0.513,2.19,0.886,3.705,1.212,4.311h-2.098
		c-0.256-0.466-0.605-1.794-1.025-3.751c-0.466-2.167-1.328-2.982-3.168-3.053h-1.911v6.804h-2.027V481.499z M572.048,488.651h2.074
		c2.166,0,3.541-1.188,3.541-2.982c0-2.026-1.468-2.912-3.611-2.912c-0.979,0-1.654,0.069-2.004,0.163V488.651z"/>
	<path d="M586.373,496.993l-5.148-15.704h2.213l2.446,7.735c0.653,2.12,1.235,4.031,1.678,5.872h0.047
		c0.442-1.817,1.072-3.798,1.794-5.849l2.656-7.759h2.167l-5.615,15.704H586.373z"/>
</g>
<g>
	<path d="M564.632,507.635c-1.701,2.307-2.912,5.313-2.912,9.553c0,4.147,1.281,7.106,2.912,9.437h-1.584
		c-1.469-1.934-3.053-4.916-3.053-9.46c0.023-4.566,1.584-7.572,3.053-9.529H564.632z"/>
	<path d="M575.208,510.384h-5.778l-0.582,3.892c0.349-0.047,0.675-0.07,1.234-0.07c1.188,0,2.33,0.233,3.262,0.815
		c1.188,0.652,2.167,1.98,2.167,3.868c0,2.959-2.354,5.172-5.639,5.172c-1.654,0-3.028-0.466-3.774-0.932l0.513-1.561
		c0.629,0.372,1.864,0.838,3.262,0.838c1.911,0,3.589-1.258,3.565-3.285c0-1.957-1.328-3.332-4.334-3.332
		c-0.886,0-1.562,0.07-2.12,0.141l0.979-7.271h7.246V510.384z"/>
	<path d="M577.534,526.624c1.631-2.307,2.913-5.313,2.913-9.507c0-4.193-1.259-7.152-2.913-9.482h1.585
		c1.468,1.91,3.052,4.916,3.052,9.482c-0.023,4.567-1.584,7.55-3.052,9.507H577.534z"/>
</g>
<g>
	<path d="M666.183,496.372c-0.722,0.373-2.236,0.745-4.147,0.745c-4.427,0-7.735-2.796-7.735-7.968c0-4.94,3.332-8.249,8.201-8.249
		c1.935,0,3.192,0.42,3.729,0.699l-0.513,1.654c-0.745-0.373-1.841-0.652-3.146-0.652c-3.682,0-6.128,2.354-6.128,6.478
		c0,3.868,2.214,6.314,6.012,6.314c1.258,0,2.517-0.257,3.332-0.652L666.183,496.372z"/>
	<path d="M670.769,481.157v9.32c0,3.494,1.562,4.985,3.658,4.985c2.307,0,3.821-1.537,3.821-4.985v-9.32h2.051v9.18
		c0,4.823-2.54,6.78-5.942,6.78c-3.215,0-5.639-1.817-5.639-6.71v-9.25H670.769z"/>
	<path d="M683.813,481.367c1.025-0.187,2.517-0.327,3.892-0.327c2.167,0,3.588,0.42,4.543,1.282c0.77,0.699,1.235,1.771,1.235,3.006
		c0,2.05-1.305,3.425-2.936,3.984v0.069c1.188,0.42,1.91,1.538,2.283,3.169c0.513,2.19,0.886,3.705,1.212,4.311h-2.098
		c-0.256-0.466-0.605-1.794-1.025-3.751c-0.466-2.167-1.328-2.982-3.168-3.053h-1.911v6.804h-2.027V481.367z M685.84,488.52h2.074
		c2.166,0,3.541-1.188,3.541-2.982c0-2.026-1.468-2.912-3.611-2.912c-0.979,0-1.654,0.07-2.004,0.163V488.52z"/>
	<path d="M700.166,496.861l-5.149-15.704h2.213l2.446,7.735c0.653,2.12,1.235,4.031,1.678,5.872h0.047
		c0.442-1.817,1.072-3.798,1.794-5.849l2.656-7.759h2.167l-5.615,15.704H700.166z"/>
</g>
<g>
	<path d="M170.244,19.792c1.025-0.187,2.516-0.326,3.891-0.326c2.167,0,3.588,0.419,4.543,1.282
		c0.769,0.699,1.235,1.771,1.235,3.005c0,2.05-1.305,3.425-2.936,3.984v0.07c1.188,0.419,1.911,1.538,2.284,3.169
		c0.513,2.19,0.885,3.705,1.211,4.311h-2.097c-0.256-0.466-0.605-1.794-1.025-3.751c-0.466-2.167-1.328-2.982-3.169-3.052h-1.911
		v6.804h-2.027V19.792z M172.271,26.946h2.074c2.167,0,3.542-1.188,3.542-2.982c0-2.027-1.468-2.913-3.611-2.913
		c-0.979,0-1.654,0.07-2.004,0.163V26.946z"/>
	<path d="M190.907,32.584c0,0.979,0.046,1.934,0.163,2.703h-1.841l-0.163-1.421h-0.07c-0.629,0.885-1.841,1.678-3.448,1.678
		c-2.284,0-3.449-1.608-3.449-3.239c0-2.726,2.423-4.217,6.78-4.194v-0.233c0-0.909-0.256-2.609-2.563-2.586
		c-1.072,0-2.167,0.303-2.959,0.839l-0.466-1.375c0.932-0.583,2.307-0.979,3.728-0.979c3.448,0,4.287,2.354,4.287,4.59V32.584z
		 M188.927,29.532c-2.237-0.046-4.777,0.35-4.777,2.54c0,1.351,0.886,1.957,1.911,1.957c1.491,0,2.447-0.932,2.773-1.887
		c0.07-0.233,0.093-0.466,0.093-0.652V29.532z"/>
	<path d="M194.212,27.062c0-1.188-0.023-2.12-0.093-3.052h1.817l0.116,1.864h0.047c0.559-1.049,1.864-2.097,3.728-2.097
		c1.561,0,3.984,0.932,3.984,4.8v6.71h-2.051v-6.501c0-1.817-0.675-3.332-2.609-3.332c-1.328,0-2.376,0.955-2.75,2.097
		c-0.093,0.256-0.14,0.606-0.14,0.956v6.78h-2.051V27.062z"/>
	<path d="M216.787,33.633c0,2.609-0.536,4.171-1.608,5.173c-1.118,1.001-2.703,1.351-4.124,1.351c-1.351,0-2.842-0.326-3.751-0.932
		l0.512-1.584c0.746,0.489,1.911,0.909,3.309,0.909c2.097,0,3.635-1.095,3.635-3.961v-1.235h-0.047
		c-0.606,1.049-1.841,1.888-3.588,1.888c-2.796,0-4.8-2.377-4.8-5.499c0-3.821,2.493-5.965,5.103-5.965
		c1.957,0,3.005,1.002,3.518,1.934h0.047l0.07-1.701h1.817c-0.07,0.792-0.093,1.724-0.093,3.076V33.633z M214.736,28.46
		c0-0.349-0.023-0.652-0.117-0.909c-0.373-1.211-1.351-2.19-2.866-2.19c-1.958,0-3.355,1.654-3.355,4.264
		c0,2.214,1.142,4.054,3.332,4.054c1.282,0,2.423-0.792,2.843-2.097c0.116-0.35,0.163-0.746,0.163-1.095V28.46z"/>
	<path d="M221.303,30.021c0.046,2.772,1.794,3.914,3.868,3.914c1.468,0,2.376-0.256,3.122-0.583l0.373,1.468
		c-0.722,0.326-1.98,0.722-3.775,0.722c-3.472,0-5.545-2.307-5.545-5.708s2.004-6.058,5.289-6.058c3.705,0,4.66,3.215,4.66,5.289
		c0,0.419-0.023,0.722-0.07,0.956H221.303z M227.314,28.553c0.023-1.281-0.536-3.309-2.843-3.309c-2.097,0-2.982,1.887-3.146,3.309
		H227.314z"/>
	<path d="M240.567,22.053h-0.047l-2.633,1.421l-0.396-1.562l3.309-1.771h1.748v15.145h-1.98V22.053z"/>
</g>
<g>
	<path d="M373.892,19.792c1.025-0.187,2.517-0.326,3.892-0.326c2.167,0,3.588,0.419,4.543,1.282c0.77,0.699,1.235,1.771,1.235,3.005
		c0,2.05-1.305,3.425-2.936,3.984v0.07c1.188,0.419,1.91,1.538,2.283,3.169c0.513,2.19,0.886,3.705,1.212,4.311h-2.098
		c-0.256-0.466-0.605-1.794-1.025-3.751c-0.466-2.167-1.328-2.982-3.168-3.052h-1.911v6.804h-2.027V19.792z M375.919,26.946h2.074
		c2.166,0,3.541-1.188,3.541-2.982c0-2.027-1.468-2.913-3.611-2.913c-0.979,0-1.654,0.07-2.004,0.163V26.946z"/>
	<path d="M394.556,32.584c0,0.979,0.047,1.934,0.163,2.703h-1.841l-0.163-1.421h-0.07c-0.629,0.885-1.84,1.678-3.448,1.678
		c-2.283,0-3.448-1.608-3.448-3.239c0-2.726,2.423-4.217,6.78-4.194v-0.233c0-0.909-0.256-2.609-2.563-2.586
		c-1.072,0-2.167,0.303-2.96,0.839l-0.466-1.375c0.933-0.583,2.307-0.979,3.729-0.979c3.448,0,4.287,2.354,4.287,4.59V32.584z
		 M392.575,29.532c-2.237-0.046-4.776,0.35-4.776,2.54c0,1.351,0.885,1.957,1.91,1.957c1.491,0,2.446-0.932,2.772-1.887
		c0.07-0.233,0.094-0.466,0.094-0.652V29.532z"/>
	<path d="M397.861,27.062c0-1.188-0.023-2.12-0.094-3.052h1.817l0.117,1.864h0.046c0.56-1.049,1.864-2.097,3.729-2.097
		c1.561,0,3.984,0.932,3.984,4.8v6.71h-2.051v-6.501c0-1.817-0.676-3.332-2.609-3.332c-1.328,0-2.377,0.955-2.749,2.097
		c-0.094,0.256-0.141,0.606-0.141,0.956v6.78h-2.05V27.062z"/>
	<path d="M420.436,33.633c0,2.609-0.536,4.171-1.608,5.173c-1.118,1.001-2.702,1.351-4.124,1.351c-1.352,0-2.843-0.326-3.751-0.932
		l0.513-1.584c0.745,0.489,1.91,0.909,3.309,0.909c2.097,0,3.635-1.095,3.635-3.961v-1.235h-0.047
		c-0.605,1.049-1.841,1.888-3.588,1.888c-2.796,0-4.8-2.377-4.8-5.499c0-3.821,2.493-5.965,5.103-5.965
		c1.957,0,3.006,1.002,3.519,1.934h0.046l0.07-1.701h1.817c-0.07,0.792-0.093,1.724-0.093,3.076V33.633z M418.385,28.46
		c0-0.349-0.023-0.652-0.116-0.909c-0.373-1.211-1.352-2.19-2.866-2.19c-1.957,0-3.355,1.654-3.355,4.264
		c0,2.214,1.142,4.054,3.332,4.054c1.281,0,2.423-0.792,2.843-2.097c0.116-0.35,0.163-0.746,0.163-1.095V28.46z"/>
	<path d="M424.951,30.021c0.047,2.772,1.794,3.914,3.867,3.914c1.469,0,2.377-0.256,3.123-0.583l0.372,1.468
		c-0.722,0.326-1.98,0.722-3.774,0.722c-3.472,0-5.545-2.307-5.545-5.708s2.004-6.058,5.289-6.058c3.704,0,4.66,3.215,4.66,5.289
		c0,0.419-0.023,0.722-0.07,0.956H424.951z M430.963,28.553c0.022-1.281-0.536-3.309-2.843-3.309c-2.098,0-2.982,1.887-3.146,3.309
		H430.963z"/>
	<path d="M439.766,35.287v-1.258l1.607-1.561c3.868-3.682,5.639-5.639,5.639-7.922c0-1.538-0.723-2.959-2.982-2.959
		c-1.375,0-2.517,0.699-3.216,1.282l-0.652-1.445c1.025-0.862,2.54-1.538,4.265-1.538c3.262,0,4.637,2.237,4.637,4.404
		c0,2.796-2.027,5.056-5.22,8.132l-1.188,1.118v0.047h6.78v1.701H439.766z"/>
</g>
<g>
	<path d="M605.007,19.792c1.025-0.187,2.517-0.326,3.892-0.326c2.167,0,3.588,0.419,4.543,1.282c0.77,0.699,1.235,1.771,1.235,3.005
		c0,2.05-1.305,3.425-2.936,3.984v0.07c1.188,0.419,1.91,1.538,2.283,3.169c0.513,2.19,0.886,3.705,1.212,4.311h-2.098
		c-0.256-0.466-0.605-1.794-1.025-3.751c-0.466-2.167-1.328-2.982-3.168-3.052h-1.911v6.804h-2.027V19.792z M607.034,26.946h2.074
		c2.166,0,3.541-1.188,3.541-2.982c0-2.027-1.468-2.913-3.611-2.913c-0.979,0-1.654,0.07-2.004,0.163V26.946z"/>
	<path d="M625.671,32.584c0,0.979,0.047,1.934,0.163,2.703h-1.841l-0.163-1.421h-0.07c-0.629,0.885-1.84,1.678-3.448,1.678
		c-2.283,0-3.448-1.608-3.448-3.239c0-2.726,2.423-4.217,6.78-4.194v-0.233c0-0.909-0.256-2.609-2.563-2.586
		c-1.072,0-2.167,0.303-2.96,0.839l-0.466-1.375c0.933-0.583,2.307-0.979,3.729-0.979c3.448,0,4.287,2.354,4.287,4.59V32.584z
		 M623.69,29.532c-2.237-0.046-4.776,0.35-4.776,2.54c0,1.351,0.885,1.957,1.91,1.957c1.491,0,2.446-0.932,2.772-1.887
		c0.07-0.233,0.094-0.466,0.094-0.652V29.532z"/>
	<path d="M628.977,27.062c0-1.188-0.023-2.12-0.094-3.052h1.817l0.117,1.864h0.046c0.56-1.049,1.864-2.097,3.729-2.097
		c1.561,0,3.984,0.932,3.984,4.8v6.71h-2.051v-6.501c0-1.817-0.676-3.332-2.609-3.332c-1.328,0-2.377,0.955-2.749,2.097
		c-0.094,0.256-0.141,0.606-0.141,0.956v6.78h-2.05V27.062z"/>
	<path d="M651.551,33.633c0,2.609-0.536,4.171-1.608,5.173c-1.118,1.001-2.702,1.351-4.124,1.351c-1.352,0-2.843-0.326-3.751-0.932
		l0.513-1.584c0.745,0.489,1.91,0.909,3.309,0.909c2.097,0,3.635-1.095,3.635-3.961v-1.235h-0.047
		c-0.605,1.049-1.841,1.888-3.588,1.888c-2.796,0-4.8-2.377-4.8-5.499c0-3.821,2.493-5.965,5.103-5.965
		c1.957,0,3.006,1.002,3.519,1.934h0.046l0.07-1.701h1.817c-0.07,0.792-0.093,1.724-0.093,3.076V33.633z M649.5,28.46
		c0-0.349-0.023-0.652-0.116-0.909c-0.373-1.211-1.352-2.19-2.866-2.19c-1.957,0-3.355,1.654-3.355,4.264
		c0,2.214,1.142,4.054,3.332,4.054c1.281,0,2.423-0.792,2.843-2.097c0.116-0.35,0.163-0.746,0.163-1.095V28.46z"/>
	<path d="M656.066,30.021c0.047,2.772,1.794,3.914,3.867,3.914c1.469,0,2.377-0.256,3.123-0.583l0.372,1.468
		c-0.722,0.326-1.98,0.722-3.774,0.722c-3.472,0-5.545-2.307-5.545-5.708s2.004-6.058,5.289-6.058c3.704,0,4.66,3.215,4.66,5.289
		c0,0.419-0.023,0.722-0.07,0.956H656.066z M662.078,28.553c0.022-1.281-0.536-3.309-2.843-3.309c-2.098,0-2.982,1.887-3.146,3.309
		H662.078z"/>
	<path d="M671.37,32.957c0.582,0.35,1.91,0.932,3.354,0.932c2.61,0,3.449-1.654,3.426-2.936c-0.023-2.12-1.935-3.029-3.915-3.029
		h-1.142v-1.538h1.142c1.491,0,3.379-0.769,3.379-2.563c0-1.211-0.769-2.283-2.656-2.283c-1.212,0-2.377,0.536-3.029,1.002
		l-0.559-1.491c0.815-0.583,2.354-1.165,3.984-1.165c2.982,0,4.334,1.771,4.334,3.611c0,1.584-0.956,2.913-2.797,3.588v0.046
		c1.864,0.35,3.355,1.748,3.379,3.868c0,2.423-1.91,4.543-5.522,4.543c-1.7,0-3.191-0.536-3.938-1.025L671.37,32.957z"/>
</g>
</svg>
