<?xml version="1.0" encoding="utf-8"?>
<!-- Generator: Adobe Illustrator 15.0.0, SVG Export Plug-In . SVG Version: 6.00 Build 0)  -->
<!DOCTYPE svg PUBLIC "-//W3C//DTD SVG 1.1//EN" "http://www.w3.org/Graphics/SVG/1.1/DTD/svg11.dtd">
<svg version="1.1" id="_x3C_Layer_x3E_" xmlns="http://www.w3.org/2000/svg" xmlns:xlink="http://www.w3.org/1999/xlink" x="0px"
	 y="0px" width="728.5px" height="234.5px" viewBox="0 0 728.5 234.5" enable-background="new 0 0 728.5 234.5"
	 xml:space="preserve">
<path fill-rule="evenodd" clip-rule="evenodd" fill="#C7C9CB" stroke="#000000" stroke-width="2" stroke-linejoin="round" stroke-miterlimit="10" stroke-dasharray="8,4" d="
	M106.942,185.375c0.618-14.229,8.971-21.55,13.199-27.325c4.228-5.774,19.385-17.117,26.294-21.344
	c6.909-4.125,22.788-12.787,35.162-18.15c12.478-5.465,26.397-10.621,38.669-13.919c12.167-3.3,32.172-9.9,46.3-11.962
	c14.126-2.166,30.419-3.299,41.349-3.196c10.931,0.103,40.731,0.206,51.559,0.309s44.134,4.228,70.841,8.869
	c26.707,4.64,56.921,10.518,87.958,18.766c30.937,8.25,62.489,18.769,96.519,30.316c33.924,11.55,68.572,24.234,105.59,38.566
	c-188.496,19.593-324.197,32.378-414.322,38.875c-30.007,2.165-50.114,1.65-64.138,2.268c-27.841,1.134-40.319-0.309-55.167-2.784
	C164.273,220.951,124.884,203.525,106.942,185.375L106.942,185.375"/>
<g>
	
		<polyline fill-rule="evenodd" clip-rule="evenodd" fill="none" stroke="#000000" stroke-width="2" stroke-linecap="round" stroke-linejoin="round" stroke-miterlimit="10" points="
		37.957,185.582 296.882,185.582 296.882,7.397 	"/>
</g>
<g>
	
		<polyline fill-rule="evenodd" clip-rule="evenodd" stroke="#000000" stroke-width="0.5" stroke-linecap="round" stroke-linejoin="round" stroke-miterlimit="10" points="
		51.774,178.673 37.957,185.582 51.774,192.491 51.774,178.673 	"/>
</g>
<g>
	
		<polyline fill-rule="evenodd" clip-rule="evenodd" stroke="#000000" stroke-width="0.5" stroke-linecap="round" stroke-linejoin="round" stroke-miterlimit="10" points="
		289.973,21.214 296.882,7.397 303.79,21.214 289.973,21.214 	"/>
</g>
<g>
	
		<path fill-rule="evenodd" clip-rule="evenodd" fill="#E2E3E4" stroke="#000000" stroke-width="2" stroke-linecap="round" stroke-linejoin="round" stroke-miterlimit="10" d="
		M305.132,185.581c-0.007-6.351-6.875-10.314-12.375-7.143c-5.502,3.192-5.491,11.121,0.01,14.293
		c5.506,3.164,12.359-0.799,12.365-7.149"/>
</g>
<g>
	
		<line fill-rule="evenodd" clip-rule="evenodd" fill="none" stroke="#000000" stroke-width="2" stroke-linecap="round" stroke-linejoin="round" stroke-miterlimit="10" x1="291.004" y1="180.838" x2="302.347" y2="190.738"/>
</g>
<g>
	
		<line fill-rule="evenodd" clip-rule="evenodd" fill="none" stroke="#000000" stroke-width="2" stroke-linecap="round" stroke-linejoin="round" stroke-miterlimit="10" x1="291.726" y1="191.253" x2="301.626" y2="179.497"/>
</g>
<g>
	
		<line fill-rule="evenodd" clip-rule="evenodd" fill="none" stroke="#000000" stroke-width="2" stroke-linecap="round" stroke-linejoin="round" stroke-miterlimit="10" stroke-dasharray="8,4" x1="69.922" y1="140.417" x2="215.523" y2="140.417"/>
</g>
<g>
	
		<line fill-rule="evenodd" clip-rule="evenodd" fill="none" stroke="#000000" stroke-width="2" stroke-linecap="round" stroke-linejoin="round" stroke-miterlimit="10" x1="205.417" y1="140.417" x2="73.119" y2="62.359"/>
</g>
<g>
	
		<polyline fill-rule="evenodd" clip-rule="evenodd" stroke="#000000" stroke-width="0.5" stroke-linecap="round" stroke-linejoin="round" stroke-miterlimit="10" points="
		81.472,75.351 73.119,62.359 88.484,63.493 81.472,75.351 	"/>
</g>
<g>
	
		<polyline fill-rule="evenodd" clip-rule="evenodd" fill="none" stroke="#000000" stroke-width="2" stroke-linecap="round" stroke-linejoin="round" stroke-miterlimit="10" points="
		94.773,140.417 95.186,130.828 96.629,121.959 99.414,113.4 103.229,105.977 108.282,99.171 114.572,93.293 117.253,91.334 	"/>
</g>
<g>
	
		<polyline fill-rule="evenodd" clip-rule="evenodd" stroke="#000000" stroke-width="0.5" stroke-linecap="round" stroke-linejoin="round" stroke-miterlimit="10" points="
		105.188,93.809 117.253,91.334 111.994,102.471 105.188,93.809 	"/>
</g>
<g>
	<path d="M4.686,107.927c0.976-0.177,2.396-0.311,3.705-0.311c2.063,0,3.417,0.399,4.327,1.22c0.732,0.666,1.176,1.686,1.176,2.862
		c0,1.953-1.243,3.262-2.795,3.794v0.067c1.131,0.399,1.819,1.464,2.174,3.017c0.488,2.085,0.843,3.528,1.153,4.104h-1.997
		c-0.244-0.444-0.577-1.708-0.976-3.572c-0.444-2.063-1.265-2.84-3.018-2.907H6.616v6.479h-1.93V107.927z M6.616,114.738h1.975
		c2.063,0,3.373-1.131,3.373-2.84c0-1.93-1.398-2.773-3.439-2.773c-0.932,0-1.575,0.066-1.908,0.155V114.738z"/>
	<path d="M29.47,115.049c0,5.125-3.128,7.876-6.944,7.876c-3.971,0-6.722-3.084-6.722-7.61c0-4.748,2.929-7.854,6.922-7.854
		C26.83,107.461,29.47,110.589,29.47,115.049z M17.845,115.271c0,3.217,1.73,6.079,4.792,6.079c3.062,0,4.792-2.818,4.792-6.212
		c0-2.995-1.553-6.101-4.77-6.101S17.845,112.009,17.845,115.271z"/>
	<path d="M34.265,109.369h-4.548v-1.642h11.071v1.642h-4.57v13.312h-1.953V109.369z"/>
	<path d="M42.432,107.727h8.054v1.62h-6.102v4.97h5.635v1.598h-5.635v6.767h-1.952V107.727z"/>
	<path d="M53.948,117.977l-1.553,4.704h-1.997l5.103-14.954h2.307l5.103,14.954h-2.063l-1.597-4.704H53.948z M58.874,116.469
		l-1.486-4.304c-0.333-0.977-0.555-1.864-0.777-2.729h-0.044c-0.222,0.865-0.444,1.797-0.754,2.707l-1.464,4.327H58.874z"/>
	<path d="M72.987,122.681l-1.93-3.306c-0.777-1.265-1.243-2.085-1.708-2.951h-0.044c-0.421,0.865-0.865,1.664-1.62,2.973
		l-1.797,3.284h-2.219l4.57-7.565l-4.393-7.388h2.241l1.975,3.505c0.555,0.977,0.976,1.73,1.375,2.529h0.066
		c0.421-0.887,0.799-1.575,1.354-2.529l2.019-3.505h2.241l-4.548,7.277l4.659,7.676H72.987z"/>
</g>
<g>
	<path d="M15.851,220.95v-6.345l-4.748-8.608h2.219l2.108,4.126c0.555,1.132,1.021,2.042,1.486,3.084h0.044
		c0.399-0.976,0.932-1.952,1.508-3.084l2.152-4.126h2.174l-4.992,8.586v6.368H15.851z"/>
</g>
<g>
	<path d="M24.495,217.85h1.146v7.822h3.749v0.95h-4.894V217.85z"/>
</g>
<g>
	<path d="M179.629,149.36c-1.229,1.666-2.104,3.837-2.104,6.9c0,2.996,0.925,5.133,2.104,6.816h-1.145
		c-1.06-1.397-2.205-3.551-2.205-6.833c0.017-3.298,1.145-5.47,2.205-6.883H179.629z"/>
	<path d="M184.478,161.04v-4.813l-3.602-6.53h1.683l1.599,3.13c0.421,0.858,0.774,1.548,1.127,2.339h0.034
		c0.303-0.74,0.707-1.481,1.145-2.339l1.633-3.13h1.649l-3.787,6.513v4.831H184.478z"/>
	<path d="M190.925,149.696h6.109v1.229h-4.628v3.77h4.275v1.212h-4.275v5.133h-1.481V149.696z"/>
	<path d="M207.051,160.687c-0.522,0.27-1.616,0.539-2.996,0.539c-3.198,0-5.587-2.02-5.587-5.756c0-3.568,2.407-5.958,5.924-5.958
		c1.397,0,2.306,0.303,2.693,0.505l-0.37,1.195c-0.539-0.269-1.33-0.471-2.272-0.471c-2.659,0-4.426,1.7-4.426,4.679
		c0,2.794,1.599,4.561,4.342,4.561c0.909,0,1.818-0.185,2.407-0.471L207.051,160.687z"/>
	<path d="M207.895,163.127c0.37-1.01,0.824-2.811,1.01-4.039l1.649-0.168c-0.404,1.431-1.145,3.299-1.616,4.09L207.895,163.127z"/>
	<path d="M215.183,160.182l6.278-9.206v-0.051h-5.739v-1.229h7.658v0.892l-6.261,9.172v0.051h6.345v1.229h-8.281V160.182z"/>
	<path d="M225.25,149.696h6.109v1.229h-4.628v3.77h4.275v1.212h-4.275v5.133h-1.481V149.696z"/>
	<path d="M241.375,160.687c-0.522,0.27-1.616,0.539-2.996,0.539c-3.198,0-5.587-2.02-5.587-5.756c0-3.568,2.407-5.958,5.924-5.958
		c1.397,0,2.306,0.303,2.693,0.505l-0.37,1.195c-0.539-0.269-1.33-0.471-2.272-0.471c-2.659,0-4.426,1.7-4.426,4.679
		c0,2.794,1.599,4.561,4.342,4.561c0.909,0,1.818-0.185,2.407-0.471L241.375,160.687z"/>
	<path d="M242.571,163.077c1.178-1.667,2.104-3.837,2.104-6.867c0-3.029-0.909-5.167-2.104-6.85h1.145
		c1.061,1.38,2.205,3.551,2.205,6.85c-0.017,3.299-1.145,5.453-2.205,6.867H242.571z"/>
</g>
<g>
	<path d="M312.602,22.454l8.275-12.136v-0.066h-7.565v-1.62h10.095v1.176l-8.254,12.092v0.066h8.364v1.62h-10.915V22.454z"/>
</g>
<g>
	<path d="M324.668,20.382h1.145v7.822h3.749v0.95h-4.894V20.382z"/>
</g>
<g>
	
		<path fill-rule="evenodd" clip-rule="evenodd" stroke="#000000" stroke-width="0.5" stroke-linecap="round" stroke-linejoin="round" stroke-miterlimit="10" d="
		M208.511,140.417c-0.002-2.46-2.664-3.997-4.795-2.769c-2.132,1.238-2.128,4.311,0.003,5.539
		C205.853,144.414,208.509,142.878,208.511,140.417"/>
</g>
</svg>
