<?xml version="1.0" encoding="utf-8"?>
<!-- Generator: Adobe Illustrator 15.0.0, SVG Export Plug-In . SVG Version: 6.00 Build 0)  -->
<!DOCTYPE svg PUBLIC "-//W3C//DTD SVG 1.1//EN" "http://www.w3.org/Graphics/SVG/1.1/DTD/svg11.dtd">
<svg version="1.1" id="_x3C_Layer_x3E_" xmlns="http://www.w3.org/2000/svg" xmlns:xlink="http://www.w3.org/1999/xlink" x="0px"
	 y="0px" width="734.031px" height="409.5px" viewBox="0 0 734.031 409.5" enable-background="new 0 0 734.031 409.5"
	 xml:space="preserve">
<g>
	
		<path fill-rule="evenodd" clip-rule="evenodd" fill="#949698" stroke="#000000" stroke-linejoin="round" stroke-miterlimit="10" d="
		M232.724,288.863c-0.019-19.401-21-31.509-37.808-21.82c-16.808,9.75-16.776,33.974,0.029,43.666
		c16.821,9.667,37.763-2.439,37.778-21.84"/>
</g>
<g>
	
		<path fill-rule="evenodd" clip-rule="evenodd" fill="#C7C9CB" stroke="#000000" stroke-linejoin="round" stroke-miterlimit="10" d="
		M280.353,288.855c-0.054-56.066-60.684-91.059-109.257-63.058c-48.568,28.178-48.479,98.18,0.086,126.192
		c48.612,27.933,109.127-7.056,109.17-63.12"/>
</g>
<g>
	
		<line fill-rule="evenodd" clip-rule="evenodd" fill="none" stroke="#000000" stroke-linecap="round" stroke-linejoin="round" stroke-miterlimit="10" x1="211.151" y1="288.869" x2="704.429" y2="40.04"/>
</g>
<g>
	
		<polyline fill-rule="evenodd" clip-rule="evenodd" stroke="#000000" stroke-linecap="round" stroke-linejoin="round" stroke-miterlimit="10" points="
		672.604,40.146 704.429,40.04 685.419,65.563 672.604,40.146 	"/>
</g>
<g>
	
		<polyline fill-rule="evenodd" clip-rule="evenodd" fill="none" stroke="#000000" stroke-linecap="round" stroke-linejoin="round" stroke-miterlimit="10" points="
		38.895,269.325 208.802,289.083 208.802,116.611 	"/>
</g>
<g>
	
		<polyline fill-rule="evenodd" clip-rule="evenodd" stroke="#000000" stroke-linecap="round" stroke-linejoin="round" stroke-miterlimit="10" points="
		68.903,258.432 38.895,269.325 65.593,286.84 68.903,258.432 	"/>
</g>
<g>
	
		<polyline fill-rule="evenodd" clip-rule="evenodd" stroke="#000000" stroke-linecap="round" stroke-linejoin="round" stroke-miterlimit="10" points="
		194.492,145.124 208.802,116.611 223.005,145.124 194.492,145.124 	"/>
</g>
<g>
	<path d="M301.563,404.637h-6.229l-2.477-6.442h-11.337l-2.341,6.442h-6.075l11.047-28.362h6.056L301.563,404.637z M291.019,393.416
		l-3.908-10.525l-3.831,10.525H291.019z"/>
	<path d="M299.442,404.637v-28.362h21.03v4.798h-15.304v6.288h14.24v4.778h-14.24v7.72h15.846v4.778H299.442z"/>
</g>
<g>
	<path d="M125.035,156.881h-6.229l-2.477-6.442h-11.337l-2.341,6.442h-6.075l11.047-28.363h6.056L125.035,156.881z M114.491,145.66
		l-3.908-10.525l-3.831,10.525H114.491z"/>
	<path d="M122.741,156.881v-28.363h5.727v28.363H122.741z"/>
</g>
<g>
	<path d="M241.082,111.388v-4.237l7.7-8.842c1.264-1.444,2.199-2.47,2.805-3.076c-0.632,0.039-1.464,0.064-2.496,0.077l-7.255,0.039
		v-4.508h16.987v3.85l-7.855,9.055l-2.767,2.999c1.509-0.09,2.444-0.135,2.806-0.135h8.416v4.779H241.082z"/>
</g>
<g>
	<path d="M4.152,255.622h5.785l4.914,14.587l4.798-14.587h5.63l-7.255,19.772l-1.296,3.579c-0.478,1.2-0.932,2.115-1.364,2.748
		c-0.432,0.632-0.928,1.145-1.49,1.538c-0.561,0.394-1.251,0.699-2.07,0.919c-0.819,0.219-1.745,0.329-2.776,0.329
		c-1.045,0-2.07-0.11-3.076-0.329l-0.484-4.256c0.852,0.167,1.619,0.251,2.303,0.251c1.264,0,2.199-0.371,2.805-1.112
		c0.606-0.742,1.07-1.687,1.393-2.834L4.152,255.622z"/>
</g>
<g>
	
		<polyline fill-rule="evenodd" clip-rule="evenodd" fill="none" stroke="#000000" stroke-linecap="round" stroke-linejoin="round" stroke-miterlimit="10" points="
		144.619,148.755 153.591,148.755 197.696,276.267 	"/>
</g>
<g>
	
		<polyline fill-rule="evenodd" clip-rule="evenodd" fill="none" stroke="#000000" stroke-linecap="round" stroke-linejoin="round" stroke-miterlimit="10" points="
		265.083,392.245 207.52,392.245 223.005,334.682 	"/>
</g>
<g>
	<path d="M714.918,40.369l7.41-10.583l-7.101-9.963h6.636l3.638,5.649l3.831-5.649h6.384l-6.965,9.731l7.604,10.815h-6.675
		l-4.179-6.365l-4.218,6.365H714.918z"/>
</g>
<g>
	
		<polyline fill-rule="evenodd" clip-rule="evenodd" fill="none" stroke="#000000" stroke-linecap="round" stroke-linejoin="round" stroke-miterlimit="10" points="
		185.094,215.18 505.899,57.021 510.172,57.021 514.443,57.234 518.501,57.448 526.191,58.302 529.929,58.836 536.87,60.118 
		543.49,61.827 549.578,63.749 555.238,66.099 560.473,68.66 565.277,71.437 569.763,74.534 573.819,77.738 577.451,81.262 
		580.762,84.894 583.646,88.631 586.315,92.583 588.559,96.641 590.374,100.913 591.868,105.505 592.937,110.523 593.685,115.649 
		594.004,120.989 593.898,126.542 593.364,132.096 592.402,137.863 591.122,143.522 589.412,149.183 587.276,154.843 
		584.714,160.289 581.83,165.629 578.412,170.755 574.675,175.561 570.511,180.152 233.579,359.031 	"/>
</g>
</svg>
