<?xml version="1.0" encoding="utf-8"?>
<!-- Generator: Adobe Illustrator 15.0.0, SVG Export Plug-In . SVG Version: 6.00 Build 0)  -->
<!DOCTYPE svg PUBLIC "-//W3C//DTD SVG 1.1//EN" "http://www.w3.org/Graphics/SVG/1.1/DTD/svg11.dtd">
<svg version="1.1" id="_x3C_Layer_x3E_" xmlns="http://www.w3.org/2000/svg" xmlns:xlink="http://www.w3.org/1999/xlink" x="0px"
	 y="0px" width="737.5px" height="491.5px" viewBox="0 0 737.5 491.5" enable-background="new 0 0 737.5 491.5"
	 xml:space="preserve">
<g>
	
		<line fill-rule="evenodd" clip-rule="evenodd" fill="none" stroke="#000000" stroke-linecap="round" stroke-linejoin="round" stroke-miterlimit="10" x1="15.464" y1="238.579" x2="495.566" y2="238.579"/>
</g>
<g>
	<polyline stroke="#000000" stroke-linecap="round" stroke-linejoin="round" stroke-miterlimit="10" points="482.072,231.781 
		495.566,238.579 482.072,245.275 482.072,231.781 	"/>
</g>
<g>
	
		<line fill="none" stroke="#000000" stroke-linecap="round" stroke-linejoin="round" stroke-miterlimit="10" x1="257.849" y1="488.574" x2="257.849" y2="7.456"/>
</g>
<g>
	<polyline stroke="#000000" stroke-linecap="round" stroke-linejoin="round" stroke-miterlimit="10" points="251.152,21.053 
		257.849,7.456 264.646,21.053 251.152,21.053 	"/>
</g>
<g>
	<path d="M276.418,17.396h9.837v1.979h-7.453v6.07h6.884v1.951h-6.884v8.265h-2.385V17.396z"/>
	<path d="M285.39,39.022c0.596-1.626,1.328-4.526,1.626-6.504l2.656-0.271c-0.65,2.304-1.843,5.312-2.602,6.585L285.39,39.022z"/>
	<path d="M307.641,35.201c-0.624,0.298-2.006,0.759-3.768,0.759c-3.956,0-6.531-2.683-6.531-6.694c0-4.038,2.764-6.992,7.046-6.992
		c1.408,0,2.655,0.353,3.306,0.705l-0.542,1.816c-0.569-0.298-1.463-0.624-2.764-0.624c-3.009,0-4.635,2.25-4.635,4.959
		c0,3.035,1.951,4.905,4.553,4.905c1.355,0,2.25-0.325,2.927-0.624L307.641,35.201z"/>
	<path d="M322.14,28.995c0,4.851-3.388,6.965-6.53,6.965c-3.523,0-6.287-2.602-6.287-6.748c0-4.363,2.899-6.938,6.504-6.938
		C319.593,22.274,322.14,25.012,322.14,28.995z M311.761,29.131c0,2.872,1.626,5.04,3.956,5.04c2.277,0,3.984-2.141,3.984-5.095
		c0-2.222-1.111-5.013-3.93-5.013C312.98,24.063,311.761,26.665,311.761,29.131z"/>
	<path d="M325.15,26.096c0-1.382-0.027-2.466-0.108-3.55h2.113l0.136,2.168h0.055c0.65-1.219,2.168-2.439,4.336-2.439
		c1.815,0,4.634,1.084,4.634,5.583v7.805h-2.385v-7.561c0-2.113-0.786-3.875-3.035-3.875c-1.545,0-2.765,1.111-3.198,2.439
		c-0.108,0.298-0.162,0.705-0.162,1.111v7.886h-2.385V26.096z"/>
	<path d="M342.957,19.402v3.144h3.415v1.816h-3.415v7.073c0,1.626,0.461,2.547,1.789,2.547c0.65,0,1.029-0.054,1.382-0.163
		l0.108,1.816c-0.461,0.162-1.192,0.325-2.113,0.325c-1.111,0-2.006-0.38-2.575-1.003c-0.65-0.731-0.921-1.897-0.921-3.441v-7.154
		h-2.033v-1.816h2.033v-2.439L342.957,19.402z"/>
	<path d="M358.271,32.518c0,1.138,0.054,2.25,0.189,3.144h-2.141l-0.19-1.653h-0.081c-0.731,1.029-2.141,1.951-4.011,1.951
		c-2.655,0-4.011-1.87-4.011-3.767c0-3.17,2.818-4.905,7.886-4.878v-0.271c0-1.057-0.298-3.035-2.98-3.008
		c-1.246,0-2.521,0.352-3.441,0.976l-0.542-1.599c1.084-0.677,2.683-1.138,4.336-1.138c4.011,0,4.986,2.737,4.986,5.339V32.518z
		 M355.967,28.968c-2.602-0.054-5.556,0.407-5.556,2.954c0,1.572,1.03,2.276,2.223,2.276c1.734,0,2.845-1.084,3.225-2.195
		c0.081-0.271,0.108-0.542,0.108-0.759V28.968z"/>
	<path d="M371.469,35.201c-0.623,0.298-2.005,0.759-3.767,0.759c-3.956,0-6.53-2.683-6.53-6.694c0-4.038,2.764-6.992,7.045-6.992
		c1.41,0,2.656,0.353,3.307,0.705l-0.542,1.816c-0.569-0.298-1.464-0.624-2.765-0.624c-3.008,0-4.634,2.25-4.634,4.959
		c0,3.035,1.951,4.905,4.553,4.905c1.355,0,2.249-0.325,2.927-0.624L371.469,35.201z"/>
	<path d="M377.486,19.402v3.144h3.415v1.816h-3.415v7.073c0,1.626,0.461,2.547,1.789,2.547c0.65,0,1.029-0.054,1.382-0.163
		l0.108,1.816c-0.461,0.162-1.192,0.325-2.113,0.325c-1.111,0-2.006-0.38-2.575-1.003c-0.65-0.731-0.921-1.897-0.921-3.441v-7.154
		h-2.033v-1.816h2.033v-2.439L377.486,19.402z"/>
	<path d="M389.574,35.662v-11.3h-1.815v-1.816h1.815v-0.624c0-1.843,0.434-3.522,1.518-4.58c0.895-0.867,2.087-1.219,3.198-1.219
		c0.867,0,1.571,0.189,2.032,0.379l-0.325,1.843c-0.353-0.162-0.813-0.298-1.518-0.298c-2.032,0-2.547,1.762-2.547,3.794v0.705
		h3.171v1.816h-3.171v11.3H389.574z"/>
	<path d="M408.763,28.995c0,4.851-3.388,6.965-6.53,6.965c-3.523,0-6.287-2.602-6.287-6.748c0-4.363,2.899-6.938,6.504-6.938
		C406.216,22.274,408.763,25.012,408.763,28.995z M398.384,29.131c0,2.872,1.626,5.04,3.956,5.04c2.277,0,3.984-2.141,3.984-5.095
		c0-2.222-1.111-5.013-3.93-5.013C399.604,24.063,398.384,26.665,398.384,29.131z"/>
	<path d="M411.773,26.638c0-1.545-0.027-2.873-0.108-4.092h2.087l0.107,2.602h0.082c0.596-1.761,2.06-2.873,3.658-2.873
		c0.244,0,0.434,0.027,0.65,0.054v2.25c-0.244-0.055-0.488-0.055-0.813-0.055c-1.681,0-2.873,1.247-3.198,3.035
		c-0.054,0.325-0.081,0.732-0.081,1.111v6.992h-2.385V26.638z"/>
	<path d="M429.715,35.201c-0.624,0.298-2.006,0.759-3.768,0.759c-3.956,0-6.531-2.683-6.531-6.694c0-4.038,2.765-6.992,7.047-6.992
		c1.408,0,2.655,0.353,3.306,0.705l-0.542,1.816c-0.569-0.298-1.463-0.624-2.764-0.624c-3.009,0-4.635,2.25-4.635,4.959
		c0,3.035,1.951,4.905,4.553,4.905c1.355,0,2.25-0.325,2.927-0.624L429.715,35.201z"/>
	<path d="M433.674,29.537c0.054,3.225,2.086,4.553,4.498,4.553c1.707,0,2.764-0.298,3.631-0.678l0.434,1.708
		c-0.84,0.379-2.303,0.84-4.39,0.84c-4.038,0-6.45-2.683-6.45-6.64s2.331-7.046,6.152-7.046c4.309,0,5.42,3.74,5.42,6.151
		c0,0.488-0.027,0.84-0.082,1.111H433.674z M440.665,27.83c0.027-1.491-0.623-3.849-3.306-3.849c-2.439,0-3.469,2.195-3.659,3.849
		H440.665z"/>
</g>
<g>
	<path d="M324.498,181.355c0.994-0.181,2.439-0.316,3.771-0.316c2.101,0,3.479,0.407,4.404,1.242
		c0.745,0.677,1.196,1.716,1.196,2.913c0,1.987-1.265,3.32-2.845,3.862v0.068c1.151,0.406,1.852,1.49,2.213,3.071
		c0.497,2.123,0.858,3.59,1.174,4.178h-2.032c-0.248-0.452-0.587-1.739-0.993-3.636c-0.452-2.1-1.287-2.891-3.071-2.958h-1.853
		v6.594h-1.965V181.355z M326.463,188.288h2.01c2.101,0,3.434-1.152,3.434-2.891c0-1.965-1.423-2.823-3.501-2.823
		c-0.948,0-1.604,0.068-1.942,0.158V188.288z"/>
	<path d="M339.744,182.823h-4.63v-1.671h11.269v1.671h-4.652v13.55h-1.986V182.823z"/>
	<path d="M350.043,181.151v9.033c0,3.388,1.514,4.833,3.546,4.833c2.235,0,3.704-1.49,3.704-4.833v-9.033h1.986v8.898
		c0,4.675-2.461,6.572-5.758,6.572c-3.117,0-5.466-1.762-5.466-6.504v-8.966H350.043z"/>
	<path d="M362.691,181.377c0.858-0.203,2.236-0.339,3.591-0.339c1.965,0,3.229,0.339,4.155,1.107
		c0.791,0.587,1.287,1.49,1.287,2.687c0,1.491-0.993,2.778-2.574,3.342v0.068c1.445,0.339,3.14,1.536,3.14,3.794
		c0,1.31-0.52,2.326-1.311,3.049c-1.038,0.971-2.755,1.422-5.239,1.422c-1.354,0-2.394-0.09-3.049-0.181V181.377z M364.656,187.61
		h1.784c2.056,0,3.274-1.106,3.274-2.574c0-1.762-1.332-2.484-3.319-2.484c-0.903,0-1.423,0.068-1.739,0.136V187.61z
		 M364.656,194.882c0.407,0.068,0.949,0.091,1.648,0.091c2.033,0,3.907-0.746,3.907-2.958c0-2.055-1.784-2.936-3.93-2.936h-1.626
		V194.882z"/>
	<path d="M382.792,189.236h-5.895v5.488h6.595v1.648h-8.582v-15.221h8.243v1.649h-6.256v4.81h5.895V189.236z"/>
</g>
<g>
	<path d="M8.72,7.352v18.265H6.335V7.352H8.72z"/>
	<path d="M12.84,7.352h2.357v8.807h0.082c0.488-0.704,0.976-1.354,1.436-1.951l5.583-6.856h2.927l-6.612,7.75l7.127,10.515h-2.791
		l-5.989-8.97l-1.762,2.005v6.965H12.84V7.352z"/>
	<path d="M27.232,22.745c1.057,0.677,2.574,1.192,4.2,1.192c2.412,0,3.821-1.274,3.821-3.117c0-1.68-0.976-2.683-3.442-3.604
		c-2.981-1.084-4.824-2.656-4.824-5.203c0-2.845,2.357-4.959,5.908-4.959c1.843,0,3.225,0.434,4.011,0.895l-0.65,1.924
		c-0.569-0.352-1.789-0.867-3.442-0.867c-2.493,0-3.441,1.491-3.441,2.737c0,1.707,1.111,2.547,3.631,3.523
		c3.089,1.192,4.634,2.683,4.634,5.366c0,2.818-2.06,5.284-6.369,5.284c-1.761,0-3.686-0.542-4.661-1.192L27.232,22.745z"/>
	<path d="M58.941,19.167l-12.574,6.45v-1.87l10.677-5.312v-0.054L46.367,13.07V11.2l12.574,6.423V19.167z"/>
	<path d="M67.697,25.617v-1.463l1.87-1.816c4.499-4.281,6.558-6.558,6.558-9.214c0-1.788-0.84-3.441-3.469-3.441
		c-1.599,0-2.927,0.813-3.74,1.49l-0.759-1.68c1.192-1.003,2.954-1.789,4.959-1.789c3.794,0,5.393,2.602,5.393,5.122
		c0,3.252-2.358,5.881-6.07,9.458l-1.382,1.301v0.054h7.886v1.979H67.697z"/>
</g>
<g>
	
		<line fill="none" stroke="#000000" stroke-linecap="round" stroke-linejoin="round" stroke-miterlimit="10" x1="396.746" y1="233.201" x2="326.841" y2="279.568"/>
</g>
<path stroke="#000000" stroke-linecap="round" stroke-linejoin="round" stroke-miterlimit="10" d="M391.063,236.955
	c-2.028-3.043-1.115-7.303,1.929-9.333c3.146-2.029,7.407-1.218,9.437,1.926c2.026,3.044,1.216,7.306-1.929,9.335
	C397.354,240.913,393.195,240.101,391.063,236.955L391.063,236.955"/>
<path stroke="#000000" stroke-linecap="round" stroke-linejoin="round" stroke-miterlimit="10" d="M332.523,275.814
	c-2.132-3.146-6.29-3.958-9.436-1.928c-3.045,2.029-3.958,6.292-1.929,9.437c2.13,3.044,6.291,3.957,9.437,1.826
	C333.64,283.119,334.552,278.858,332.523,275.814L332.523,275.814"/>
<g>
	
		<line fill="none" stroke="#000000" stroke-linecap="round" stroke-linejoin="round" stroke-miterlimit="10" x1="259.878" y1="452.86" x2="326.841" y2="279.568"/>
</g>
<path stroke="#000000" stroke-linecap="round" stroke-linejoin="round" stroke-miterlimit="10" d="M262.313,446.569
	c3.448,1.319,5.174,5.275,3.856,8.726c-1.32,3.45-5.276,5.276-8.727,3.856c-3.449-1.319-5.275-5.277-3.855-8.727
	C254.907,446.976,258.864,445.251,262.313,446.569L262.313,446.569"/>
<path stroke="#000000" stroke-linecap="round" stroke-linejoin="round" stroke-miterlimit="10" d="M324.406,285.859
	c3.449,1.318,7.406-0.406,8.726-3.855c1.317-3.551-0.406-7.407-3.855-8.827c-3.45-1.32-7.406,0.406-8.727,3.956
	C319.13,280.583,320.955,284.541,324.406,285.859L324.406,285.859"/>
<g>
	
		<line fill="none" stroke="#000000" stroke-linecap="round" stroke-linejoin="round" stroke-miterlimit="10" stroke-dasharray="16,8" x1="323.899" y1="235.231" x2="254.907" y2="281.496"/>
</g>
<path stroke="#000000" stroke-linecap="round" stroke-linejoin="round" stroke-miterlimit="10" stroke-dasharray="16,8" d="
	M318.217,238.984c-2.029-3.043-1.217-7.305,1.927-9.436c3.045-2.027,7.307-1.217,9.336,1.928c2.13,3.044,1.318,7.305-1.826,9.334
	C324.609,242.941,320.348,242.129,318.217,238.984L318.217,238.984"/>
<path stroke="#000000" stroke-linecap="round" stroke-linejoin="round" stroke-miterlimit="10" stroke-dasharray="16,8" d="
	M260.588,277.742c-2.13-3.145-6.291-3.957-9.436-1.826c-3.043,2.029-3.855,6.292-1.826,9.335c2.13,3.145,6.291,3.956,9.437,1.826
	C261.807,285.047,262.618,280.786,260.588,277.742L260.588,277.742"/>
<g>
	
		<line fill="none" stroke="#000000" stroke-linecap="round" stroke-linejoin="round" stroke-miterlimit="10" stroke-dasharray="16,8" x1="185.002" y1="450.933" x2="254.907" y2="281.496"/>
</g>
<path stroke="#000000" stroke-linecap="round" stroke-linejoin="round" stroke-miterlimit="10" stroke-dasharray="16,8" d="
	M187.639,444.642c3.451,1.421,5.073,5.378,3.653,8.827c-1.421,3.45-5.378,5.073-8.828,3.653c-3.45-1.421-5.073-5.379-3.652-8.827
	C180.233,444.845,184.19,443.221,187.639,444.642L187.639,444.642"/>
<path stroke="#000000" stroke-linecap="round" stroke-linejoin="round" stroke-miterlimit="10" stroke-dasharray="16,8" d="
	M252.37,287.787c3.45,1.42,7.407-0.304,8.827-3.754c1.42-3.45-0.203-7.407-3.652-8.827c-3.45-1.421-7.407,0.304-8.827,3.753
	C247.297,282.41,248.92,286.367,252.37,287.787L252.37,287.787"/>
<g>
	<path d="M120.643,330.947c0,0.813-0.569,1.463-1.518,1.463c-0.867,0-1.436-0.65-1.436-1.463s0.596-1.49,1.491-1.49
		C120.047,329.457,120.643,330.107,120.643,330.947z M117.987,347.749v-13.116h2.385v13.116H117.987z"/>
	<path d="M124.329,338.183c0-1.382-0.027-2.466-0.108-3.55h2.114l0.135,2.168h0.054c0.65-1.22,2.168-2.439,4.336-2.439
		c1.815,0,4.634,1.084,4.634,5.583v7.805h-2.385v-7.561c0-2.114-0.786-3.875-3.035-3.875c-1.544,0-2.764,1.111-3.197,2.439
		c-0.108,0.298-0.163,0.705-0.163,1.111v7.886h-2.385V338.183z"/>
	<path d="M139.372,338.915c0-1.68-0.055-3.035-0.108-4.282h2.113l0.136,2.249h0.054c0.949-1.599,2.52-2.52,4.661-2.52
		c3.198,0,5.583,2.683,5.583,6.639c0,4.716-2.899,7.046-5.989,7.046c-1.734,0-3.252-0.759-4.038-2.06h-0.054v7.127h-2.357V338.915z
		 M141.729,342.41c0,0.353,0.027,0.678,0.108,0.976c0.434,1.653,1.87,2.792,3.577,2.792c2.521,0,3.983-2.06,3.983-5.068
		c0-2.602-1.382-4.851-3.902-4.851c-1.626,0-3.17,1.138-3.604,2.927c-0.082,0.298-0.163,0.65-0.163,0.948V342.41z"/>
	<path d="M165.769,344.145c0,1.382,0.027,2.575,0.108,3.604h-2.114l-0.135-2.141h-0.055c-0.596,1.057-2.005,2.438-4.336,2.438
		c-2.06,0-4.525-1.165-4.525-5.745v-7.669h2.385v7.235c0,2.493,0.786,4.201,2.927,4.201c1.599,0,2.71-1.111,3.144-2.195
		c0.136-0.325,0.217-0.759,0.217-1.22v-8.021h2.385V344.145z"/>
	<path d="M172.6,331.489v3.144h3.415v1.815H172.6v7.073c0,1.626,0.461,2.547,1.789,2.547c0.65,0,1.029-0.054,1.382-0.163
		l0.108,1.815c-0.461,0.163-1.192,0.325-2.114,0.325c-1.111,0-2.005-0.379-2.575-1.002c-0.65-0.732-0.921-1.897-0.921-3.442v-7.154
		h-2.033v-1.815h2.033v-2.439L172.6,331.489z"/>
</g>
<g>
	<path d="M338.78,382.489c0,0.813-0.569,1.463-1.518,1.463c-0.867,0-1.437-0.65-1.437-1.463s0.597-1.49,1.491-1.49
		C338.185,380.999,338.78,381.649,338.78,382.489z M336.125,399.291v-13.116h2.385v13.116H336.125z"/>
	<path d="M342.467,389.725c0-1.382-0.027-2.466-0.108-3.55h2.113l0.136,2.168h0.055c0.65-1.22,2.168-2.439,4.336-2.439
		c1.815,0,4.634,1.084,4.634,5.583v7.805h-2.385v-7.561c0-2.114-0.786-3.875-3.035-3.875c-1.545,0-2.765,1.111-3.198,2.439
		c-0.108,0.298-0.162,0.705-0.162,1.111v7.886h-2.385V389.725z"/>
	<path d="M360.273,383.031v3.144h3.415v1.815h-3.415v7.073c0,1.626,0.461,2.547,1.789,2.547c0.65,0,1.029-0.054,1.382-0.163
		l0.108,1.815c-0.461,0.163-1.192,0.325-2.113,0.325c-1.111,0-2.006-0.379-2.575-1.002c-0.65-0.732-0.921-1.897-0.921-3.442v-7.154
		h-2.033v-1.815h2.033v-2.439L360.273,383.031z"/>
	<path d="M367.537,393.167c0.055,3.225,2.087,4.553,4.499,4.553c1.707,0,2.765-0.298,3.632-0.677l0.434,1.707
		c-0.841,0.379-2.304,0.84-4.391,0.84c-4.038,0-6.449-2.683-6.449-6.639s2.33-7.046,6.151-7.046c4.309,0,5.42,3.74,5.42,6.152
		c0,0.487-0.027,0.84-0.081,1.111H367.537z M374.529,391.459c0.027-1.49-0.623-3.848-3.307-3.848c-2.438,0-3.469,2.195-3.658,3.848
		H374.529z"/>
	<path d="M379.789,390.267c0-1.544-0.027-2.872-0.108-4.092h2.087l0.107,2.602h0.082c0.596-1.762,2.06-2.873,3.658-2.873
		c0.244,0,0.434,0.027,0.65,0.054v2.249c-0.244-0.054-0.488-0.054-0.813-0.054c-1.681,0-2.873,1.246-3.198,3.035
		c-0.054,0.325-0.081,0.731-0.081,1.111v6.992h-2.385V390.267z"/>
	<path d="M388.76,390.457c0-1.68-0.055-3.035-0.108-4.282h2.113l0.136,2.249h0.055c0.948-1.599,2.52-2.52,4.66-2.52
		c3.198,0,5.583,2.683,5.583,6.639c0,4.716-2.899,7.046-5.989,7.046c-1.734,0-3.252-0.759-4.037-2.06h-0.055v7.127h-2.357V390.457z
		 M391.117,393.952c0,0.353,0.027,0.678,0.108,0.976c0.434,1.653,1.87,2.792,3.577,2.792c2.521,0,3.983-2.06,3.983-5.068
		c0-2.602-1.382-4.851-3.902-4.851c-1.626,0-3.171,1.138-3.604,2.927c-0.081,0.298-0.162,0.65-0.162,0.948V393.952z"/>
	<path d="M404.182,390.267c0-1.544-0.027-2.872-0.108-4.092h2.087l0.107,2.602h0.082c0.596-1.762,2.06-2.873,3.658-2.873
		c0.244,0,0.434,0.027,0.65,0.054v2.249c-0.244-0.054-0.488-0.054-0.813-0.054c-1.681,0-2.873,1.246-3.198,3.035
		c-0.054,0.325-0.081,0.731-0.081,1.111v6.992h-2.385V390.267z"/>
	<path d="M414.102,393.167c0.054,3.225,2.086,4.553,4.498,4.553c1.707,0,2.764-0.298,3.631-0.677l0.434,1.707
		c-0.84,0.379-2.303,0.84-4.39,0.84c-4.038,0-6.45-2.683-6.45-6.639s2.331-7.046,6.152-7.046c4.309,0,5.42,3.74,5.42,6.152
		c0,0.487-0.027,0.84-0.082,1.111H414.102z M421.093,391.459c0.027-1.49-0.623-3.848-3.306-3.848c-2.439,0-3.469,2.195-3.659,3.848
		H421.093z"/>
	<path d="M429.225,383.031v3.144h3.415v1.815h-3.415v7.073c0,1.626,0.461,2.547,1.789,2.547c0.65,0,1.029-0.054,1.382-0.163
		l0.108,1.815c-0.461,0.163-1.192,0.325-2.113,0.325c-1.111,0-2.006-0.379-2.575-1.002c-0.65-0.732-0.921-1.897-0.921-3.442v-7.154
		h-2.033v-1.815h2.033v-2.439L429.225,383.031z"/>
	<path d="M444.537,396.147c0,1.138,0.054,2.249,0.189,3.144h-2.141l-0.189-1.653h-0.082c-0.731,1.03-2.141,1.951-4.011,1.951
		c-2.655,0-4.011-1.87-4.011-3.767c0-3.171,2.818-4.905,7.887-4.878v-0.271c0-1.057-0.299-3.035-2.981-3.008
		c-1.247,0-2.521,0.353-3.441,0.976l-0.542-1.599c1.084-0.678,2.683-1.138,4.336-1.138c4.011,0,4.986,2.737,4.986,5.338V396.147z
		 M442.233,392.598c-2.602-0.055-5.556,0.406-5.556,2.954c0,1.572,1.03,2.276,2.223,2.276c1.734,0,2.846-1.084,3.225-2.195
		c0.081-0.271,0.108-0.542,0.108-0.759V392.598z"/>
	<path d="M451.151,383.031v3.144h3.415v1.815h-3.415v7.073c0,1.626,0.461,2.547,1.789,2.547c0.65,0,1.029-0.054,1.382-0.163
		l0.108,1.815c-0.461,0.163-1.192,0.325-2.114,0.325c-1.11,0-2.005-0.379-2.574-1.002c-0.65-0.732-0.921-1.897-0.921-3.442v-7.154
		h-2.032v-1.815h2.032v-2.439L451.151,383.031z"/>
	<path d="M459.905,382.489c0,0.813-0.569,1.463-1.518,1.463c-0.867,0-1.437-0.65-1.437-1.463s0.597-1.49,1.491-1.49
		C459.31,380.999,459.905,381.649,459.905,382.489z M457.25,399.291v-13.116h2.385v13.116H457.25z"/>
	<path d="M475.462,392.625c0,4.851-3.388,6.964-6.53,6.964c-3.523,0-6.287-2.602-6.287-6.748c0-4.363,2.899-6.938,6.504-6.938
		C472.915,385.904,475.462,388.641,475.462,392.625z M465.083,392.76c0,2.873,1.626,5.041,3.956,5.041
		c2.277,0,3.984-2.141,3.984-5.095c0-2.223-1.111-5.014-3.93-5.014C466.303,387.692,465.083,390.294,465.083,392.76z"/>
	<path d="M478.473,389.725c0-1.382-0.027-2.466-0.108-3.55h2.113l0.136,2.168h0.055c0.65-1.22,2.168-2.439,4.336-2.439
		c1.815,0,4.634,1.084,4.634,5.583v7.805h-2.385v-7.561c0-2.114-0.786-3.875-3.035-3.875c-1.545,0-2.765,1.111-3.198,2.439
		c-0.108,0.298-0.162,0.705-0.162,1.111v7.886h-2.385V389.725z"/>
</g>
<g>
	
		<line fill="none" stroke="#000000" stroke-linecap="round" stroke-linejoin="round" stroke-miterlimit="10" x1="188.958" y1="346.531" x2="220.004" y2="366.215"/>
</g>
<g>
	<polyline fill="none" stroke="#000000" stroke-linecap="round" stroke-linejoin="round" stroke-miterlimit="10" points="
		213.714,355.765 220.004,366.215 207.931,364.998 	"/>
</g>
<g>
	
		<line fill="none" stroke="#000000" stroke-linecap="round" stroke-linejoin="round" stroke-miterlimit="10" x1="331.813" y1="377.07" x2="302.186" y2="360.33"/>
</g>
<g>
	<polyline fill="none" stroke="#000000" stroke-linecap="round" stroke-linejoin="round" stroke-miterlimit="10" points="
		308.983,370.374 302.186,360.33 314.362,360.938 	"/>
</g>
<g>
	
		<line fill="none" stroke="#000000" stroke-linecap="round" stroke-linejoin="round" stroke-miterlimit="10" x1="324.913" y1="209.562" x2="399.688" y2="209.562"/>
</g>
<g>
	<polyline fill="none" stroke="#000000" stroke-linecap="round" stroke-linejoin="round" stroke-miterlimit="10" points="
		335.667,204.185 324.913,209.562 335.667,215.041 	"/>
</g>
<g>
	
		<line fill="none" stroke="#000000" stroke-linecap="round" stroke-linejoin="round" stroke-miterlimit="10" x1="324.913" y1="204.185" x2="324.913" y2="215.041"/>
</g>
<g>
	<polyline fill="none" stroke="#000000" stroke-linecap="round" stroke-linejoin="round" stroke-miterlimit="10" points="
		388.935,204.185 399.688,209.562 388.935,215.041 	"/>
</g>
<g>
	
		<line fill="none" stroke="#000000" stroke-linecap="round" stroke-linejoin="round" stroke-miterlimit="10" x1="399.688" y1="204.185" x2="399.688" y2="215.041"/>
</g>
<g>
	<path d="M372.179,276.286c1.478-0.25,3.232-0.417,5.155-0.417c3.482,0,5.962,0.835,7.606,2.34c1.699,1.532,2.675,3.706,2.675,6.743
		c0,3.065-0.976,5.572-2.703,7.3c-1.783,1.755-4.681,2.703-8.331,2.703c-1.755,0-3.176-0.083-4.402-0.223V276.286z M374.604,292.893
		c0.612,0.083,1.504,0.111,2.451,0.111c5.211,0,7.997-2.897,7.997-7.969c0.027-4.43-2.479-7.244-7.606-7.244
		c-1.254,0-2.201,0.111-2.842,0.25V292.893z"/>
</g>
<g>
	<path d="M396.082,297.61c0,2.966-2.071,4.259-3.993,4.259c-2.154,0-3.845-1.591-3.845-4.126c0-2.668,1.772-4.242,3.977-4.242
		C394.524,293.5,396.082,295.174,396.082,297.61z M389.735,297.693c0,1.756,0.994,3.082,2.419,3.082
		c1.393,0,2.437-1.309,2.437-3.115c0-1.359-0.68-3.065-2.403-3.065C390.481,294.594,389.735,296.185,389.735,297.693z"/>
</g>
<g>
</g>
<g>
	<path d="M427.708,274.373v16.737c0,1.23,0.058,2.632,0.115,3.576h-2.231l-0.115-2.403h-0.086c-0.743,1.545-2.403,2.718-4.663,2.718
		c-3.348,0-5.951-2.833-5.951-7.039c-0.028-4.606,2.861-7.41,6.209-7.41c2.146,0,3.548,1.001,4.177,2.088h0.058v-8.269H427.708z
		 M425.22,286.476c0-0.315-0.029-0.744-0.115-1.059c-0.371-1.574-1.745-2.89-3.633-2.89c-2.604,0-4.148,2.289-4.148,5.321
		c0,2.804,1.401,5.121,4.091,5.121c1.688,0,3.233-1.144,3.69-3.004c0.086-0.343,0.115-0.687,0.115-1.087V286.476z"/>
	<path d="M434.718,276.948c0,0.858-0.601,1.545-1.603,1.545c-0.915,0-1.517-0.687-1.517-1.545s0.63-1.574,1.574-1.574
		C434.088,275.375,434.718,276.061,434.718,276.948z M431.914,294.687v-13.847h2.518v13.847H431.914z"/>
	<path d="M438.265,292.14c0.772,0.458,2.089,0.973,3.348,0.973c1.803,0,2.66-0.887,2.66-2.06c0-1.202-0.715-1.831-2.546-2.518
		c-2.518-0.916-3.69-2.26-3.69-3.919c0-2.231,1.831-4.063,4.777-4.063c1.402,0,2.633,0.372,3.376,0.858l-0.601,1.831
		c-0.544-0.343-1.545-0.83-2.832-0.83c-1.488,0-2.289,0.858-2.289,1.888c0,1.145,0.801,1.66,2.604,2.375
		c2.375,0.887,3.634,2.088,3.634,4.148c0,2.46-1.917,4.177-5.15,4.177c-1.516,0-2.918-0.401-3.891-0.973L438.265,292.14z"/>
	<path d="M452.97,277.521v3.319h3.605v1.917h-3.605v7.467c0,1.717,0.486,2.689,1.889,2.689c0.687,0,1.087-0.057,1.459-0.171
		l0.114,1.917c-0.486,0.172-1.259,0.344-2.231,0.344c-1.173,0-2.117-0.401-2.718-1.059c-0.687-0.772-0.973-2.003-0.973-3.634v-7.553
		h-2.146v-1.917h2.146v-2.575L452.97,277.521z"/>
	<path d="M469.135,291.368c0,1.202,0.057,2.375,0.2,3.319h-2.261l-0.2-1.745h-0.086c-0.772,1.087-2.26,2.06-4.234,2.06
		c-2.804,0-4.234-1.974-4.234-3.977c0-3.347,2.976-5.178,8.326-5.15v-0.286c0-1.116-0.314-3.204-3.147-3.176
		c-1.316,0-2.66,0.372-3.634,1.03l-0.572-1.688c1.145-0.715,2.833-1.202,4.578-1.202c4.234,0,5.265,2.89,5.265,5.636V291.368z
		 M466.702,287.62c-2.746-0.057-5.864,0.429-5.864,3.119c0,1.659,1.087,2.403,2.346,2.403c1.831,0,3.004-1.145,3.404-2.317
		c0.086-0.286,0.114-0.572,0.114-0.801V287.62z"/>
	<path d="M473.197,284.587c0-1.459-0.029-2.604-0.115-3.748h2.232l0.143,2.289h0.058c0.687-1.288,2.288-2.575,4.577-2.575
		c1.917,0,4.893,1.144,4.893,5.894v8.24h-2.518v-7.982c0-2.231-0.83-4.091-3.204-4.091c-1.631,0-2.919,1.173-3.376,2.575
		c-0.115,0.314-0.172,0.744-0.172,1.173v8.326h-2.518V284.587z"/>
	<path d="M498.945,294.2c-0.658,0.314-2.117,0.801-3.977,0.801c-4.178,0-6.896-2.833-6.896-7.067c0-4.263,2.919-7.381,7.438-7.381
		c1.488,0,2.805,0.372,3.491,0.744l-0.572,1.917c-0.601-0.315-1.545-0.658-2.919-0.658c-3.175,0-4.892,2.375-4.892,5.236
		c0,3.204,2.06,5.178,4.807,5.178c1.43,0,2.374-0.343,3.09-0.658L498.945,294.2z"/>
	<path d="M503.122,288.221c0.058,3.404,2.203,4.807,4.749,4.807c1.803,0,2.919-0.315,3.834-0.715l0.458,1.802
		c-0.887,0.4-2.432,0.887-4.635,0.887c-4.263,0-6.81-2.833-6.81-7.01s2.461-7.438,6.495-7.438c4.549,0,5.722,3.948,5.722,6.494
		c0,0.515-0.028,0.887-0.086,1.173H503.122z M510.504,286.418c0.028-1.573-0.658-4.063-3.49-4.063c-2.575,0-3.662,2.317-3.862,4.063
		H510.504z"/>
	<path d="M522.119,274.373h2.488v8.698h0.058c0.887-1.545,2.489-2.518,4.721-2.518c3.462,0,5.865,2.861,5.865,7.038
		c0,4.949-3.147,7.41-6.237,7.41c-2.003,0-3.604-0.773-4.663-2.575h-0.058l-0.143,2.26h-2.146c0.058-0.944,0.115-2.346,0.115-3.576
		V274.373z M524.607,289.136c0,0.314,0.029,0.629,0.115,0.916c0.457,1.745,1.945,2.947,3.776,2.947c2.66,0,4.206-2.146,4.206-5.321
		c0-2.775-1.431-5.15-4.149-5.15c-1.688,0-3.29,1.202-3.805,3.09c-0.086,0.314-0.144,0.658-0.144,1.059V289.136z"/>
	<path d="M539.799,288.221c0.058,3.404,2.203,4.807,4.75,4.807c1.802,0,2.918-0.315,3.833-0.715l0.458,1.802
		c-0.887,0.4-2.432,0.887-4.635,0.887c-4.263,0-6.81-2.833-6.81-7.01s2.461-7.438,6.495-7.438c4.549,0,5.722,3.948,5.722,6.494
		c0,0.515-0.028,0.887-0.086,1.173H539.799z M547.181,286.418c0.028-1.573-0.658-4.063-3.49-4.063c-2.575,0-3.662,2.317-3.862,4.063
		H547.181z"/>
	<path d="M555.763,277.521v3.319h3.605v1.917h-3.605v7.467c0,1.717,0.486,2.689,1.889,2.689c0.687,0,1.087-0.057,1.459-0.171
		l0.114,1.917c-0.486,0.172-1.259,0.344-2.231,0.344c-1.173,0-2.117-0.401-2.718-1.059c-0.687-0.772-0.973-2.003-0.973-3.634v-7.553
		h-2.146v-1.917h2.146v-2.575L555.763,277.521z"/>
	<path d="M563.458,280.839l1.859,7.038c0.372,1.545,0.744,2.975,1.002,4.406h0.086c0.314-1.402,0.772-2.89,1.229-4.377l2.261-7.066
		h2.117l2.146,6.923c0.515,1.66,0.916,3.119,1.23,4.521h0.086c0.229-1.402,0.601-2.861,1.059-4.492l1.974-6.952h2.489l-4.463,13.847
		h-2.289l-2.117-6.609c-0.486-1.545-0.887-2.918-1.23-4.549h-0.057c-0.344,1.66-0.772,3.09-1.259,4.578l-2.232,6.581h-2.288
		l-4.178-13.847H563.458z"/>
	<path d="M584.629,288.221c0.058,3.404,2.203,4.807,4.75,4.807c1.802,0,2.918-0.315,3.833-0.715l0.458,1.802
		c-0.887,0.4-2.432,0.887-4.635,0.887c-4.263,0-6.81-2.833-6.81-7.01s2.461-7.438,6.495-7.438c4.549,0,5.722,3.948,5.722,6.494
		c0,0.515-0.028,0.887-0.086,1.173H584.629z M592.011,286.418c0.028-1.573-0.658-4.063-3.49-4.063c-2.575,0-3.662,2.317-3.862,4.063
		H592.011z"/>
	<path d="M598.962,288.221c0.058,3.404,2.203,4.807,4.749,4.807c1.803,0,2.919-0.315,3.834-0.715l0.458,1.802
		c-0.887,0.4-2.432,0.887-4.635,0.887c-4.263,0-6.81-2.833-6.81-7.01s2.461-7.438,6.495-7.438c4.549,0,5.722,3.948,5.722,6.494
		c0,0.515-0.028,0.887-0.086,1.173H598.962z M606.344,286.418c0.028-1.573-0.658-4.063-3.49-4.063c-2.575,0-3.662,2.317-3.862,4.063
		H606.344z"/>
	<path d="M611.895,284.587c0-1.459-0.029-2.604-0.115-3.748h2.232l0.143,2.289h0.058c0.687-1.288,2.288-2.575,4.577-2.575
		c1.917,0,4.893,1.144,4.893,5.894v8.24h-2.518v-7.982c0-2.231-0.83-4.091-3.204-4.091c-1.631,0-2.919,1.173-3.376,2.575
		c-0.115,0.314-0.172,0.744-0.172,1.173v8.326h-2.518V284.587z"/>
	<path d="M633.837,285.359c0-1.773-0.058-3.204-0.115-4.52h2.232l0.143,2.375h0.058c1.001-1.688,2.66-2.661,4.921-2.661
		c3.376,0,5.894,2.832,5.894,7.009c0,4.978-3.062,7.439-6.323,7.439c-1.831,0-3.433-0.801-4.263-2.175h-0.057v7.525h-2.489V285.359z
		 M636.326,289.05c0,0.372,0.028,0.715,0.114,1.03c0.457,1.746,1.974,2.947,3.776,2.947c2.66,0,4.206-2.175,4.206-5.35
		c0-2.747-1.46-5.122-4.12-5.122c-1.717,0-3.348,1.202-3.806,3.09c-0.086,0.315-0.171,0.687-0.171,1.001V289.05z"/>
	<path d="M650.115,285.159c0-1.631-0.029-3.033-0.115-4.32h2.203l0.115,2.747h0.085c0.63-1.86,2.175-3.033,3.862-3.033
		c0.258,0,0.458,0.028,0.688,0.057v2.375c-0.258-0.057-0.516-0.057-0.858-0.057c-1.774,0-3.033,1.316-3.376,3.204
		c-0.058,0.344-0.086,0.772-0.086,1.173v7.381h-2.518V285.159z"/>
	<path d="M662.389,276.948c0,0.858-0.601,1.545-1.603,1.545c-0.915,0-1.517-0.687-1.517-1.545s0.63-1.574,1.574-1.574
		C661.759,275.375,662.389,276.061,662.389,276.948z M659.585,294.687v-13.847h2.518v13.847H659.585z"/>
	<path d="M666.279,284.587c0-1.459-0.029-2.604-0.115-3.748h2.232l0.143,2.289h0.058c0.687-1.288,2.288-2.575,4.577-2.575
		c1.917,0,4.893,1.144,4.893,5.894v8.24h-2.518v-7.982c0-2.231-0.83-4.091-3.204-4.091c-1.631,0-2.919,1.173-3.376,2.575
		c-0.115,0.314-0.172,0.744-0.172,1.173v8.326h-2.518V284.587z"/>
	<path d="M692.028,294.2c-0.658,0.314-2.117,0.801-3.977,0.801c-4.178,0-6.896-2.833-6.896-7.067c0-4.263,2.919-7.381,7.438-7.381
		c1.488,0,2.805,0.372,3.491,0.744l-0.572,1.917c-0.601-0.315-1.545-0.658-2.919-0.658c-3.175,0-4.892,2.375-4.892,5.236
		c0,3.204,2.06,5.178,4.807,5.178c1.43,0,2.374-0.343,3.09-0.658L692.028,294.2z"/>
	<path d="M697.778,276.948c0,0.858-0.601,1.545-1.603,1.545c-0.915,0-1.517-0.687-1.517-1.545s0.63-1.574,1.574-1.574
		C697.148,275.375,697.778,276.061,697.778,276.948z M694.975,294.687v-13.847h2.518v13.847H694.975z"/>
	<path d="M701.669,285.359c0-1.773-0.058-3.204-0.115-4.52h2.232l0.143,2.375h0.058c1.001-1.688,2.66-2.661,4.921-2.661
		c3.376,0,5.894,2.832,5.894,7.009c0,4.978-3.062,7.439-6.323,7.439c-1.831,0-3.433-0.801-4.263-2.175h-0.057v7.525h-2.489V285.359z
		 M704.158,289.05c0,0.372,0.028,0.715,0.114,1.03c0.457,1.746,1.974,2.947,3.776,2.947c2.66,0,4.206-2.175,4.206-5.35
		c0-2.747-1.46-5.122-4.12-5.122c-1.717,0-3.348,1.202-3.806,3.09c-0.086,0.315-0.171,0.687-0.171,1.001V289.05z"/>
	<path d="M727.676,291.368c0,1.202,0.057,2.375,0.2,3.319h-2.261l-0.2-1.745h-0.086c-0.772,1.087-2.26,2.06-4.234,2.06
		c-2.804,0-4.234-1.974-4.234-3.977c0-3.347,2.976-5.178,8.326-5.15v-0.286c0-1.116-0.314-3.204-3.147-3.176
		c-1.316,0-2.66,0.372-3.634,1.03l-0.572-1.688c1.145-0.715,2.833-1.202,4.578-1.202c4.234,0,5.265,2.89,5.265,5.636V291.368z
		 M725.243,287.62c-2.746-0.057-5.864,0.429-5.864,3.119c0,1.659,1.087,2.403,2.346,2.403c1.831,0,3.004-1.145,3.404-2.317
		c0.086-0.286,0.114-0.572,0.114-0.801V287.62z"/>
	<path d="M731.737,274.373h2.518v20.313h-2.518V274.373z"/>
</g>
<g>
	<path d="M408.54,318.032c0-1.631-0.029-3.033-0.115-4.32h2.203l0.115,2.747h0.085c0.63-1.86,2.175-3.033,3.863-3.033
		c0.257,0,0.457,0.028,0.687,0.057v2.375c-0.258-0.057-0.516-0.057-0.858-0.057c-1.774,0-3.033,1.316-3.376,3.204
		c-0.058,0.344-0.086,0.772-0.086,1.173v7.381h-2.518V318.032z"/>
	<path d="M430.141,320.521c0,5.121-3.576,7.353-6.896,7.353c-3.719,0-6.638-2.747-6.638-7.124c0-4.606,3.062-7.324,6.867-7.324
		C427.451,313.426,430.141,316.316,430.141,320.521z M419.183,320.665c0,3.033,1.717,5.321,4.177,5.321
		c2.403,0,4.206-2.26,4.206-5.378c0-2.346-1.173-5.293-4.148-5.293C420.47,315.314,419.183,318.061,419.183,320.665z"/>
	<path d="M433.316,307.246h2.518v20.313h-2.518V307.246z"/>
	<path d="M440.067,307.246h2.518v20.313h-2.518V307.246z"/>
	<path d="M448.221,321.094c0.058,3.404,2.203,4.807,4.75,4.807c1.802,0,2.918-0.315,3.833-0.715l0.458,1.802
		c-0.887,0.4-2.432,0.887-4.635,0.887c-4.263,0-6.81-2.833-6.81-7.01s2.461-7.438,6.495-7.438c4.549,0,5.722,3.948,5.722,6.494
		c0,0.515-0.028,0.887-0.086,1.173H448.221z M455.603,319.291c0.028-1.573-0.658-4.063-3.49-4.063c-2.575,0-3.662,2.317-3.862,4.063
		H455.603z"/>
	<path d="M461.152,318.032c0-1.631-0.029-3.033-0.115-4.32h2.203l0.115,2.747h0.085c0.63-1.86,2.175-3.033,3.862-3.033
		c0.258,0,0.458,0.028,0.688,0.057v2.375c-0.258-0.057-0.516-0.057-0.858-0.057c-1.774,0-3.033,1.316-3.376,3.204
		c-0.058,0.344-0.086,0.772-0.086,1.173v7.381h-2.518V318.032z"/>
	<path d="M486.3,324.241c0,1.202,0.057,2.375,0.2,3.319h-2.261l-0.2-1.745h-0.086c-0.772,1.087-2.26,2.06-4.234,2.06
		c-2.804,0-4.234-1.974-4.234-3.977c0-3.347,2.976-5.178,8.326-5.15v-0.286c0-1.116-0.314-3.204-3.147-3.176
		c-1.316,0-2.66,0.372-3.634,1.03l-0.572-1.688c1.145-0.715,2.833-1.202,4.578-1.202c4.234,0,5.265,2.89,5.265,5.636V324.241z
		 M483.867,320.493c-2.746-0.057-5.864,0.429-5.864,3.119c0,1.659,1.087,2.403,2.346,2.403c1.831,0,3.004-1.145,3.404-2.317
		c0.086-0.286,0.114-0.572,0.114-0.801V320.493z"/>
	<path d="M490.362,317.46c0-1.459-0.029-2.604-0.115-3.748h2.232l0.143,2.289h0.058c0.687-1.288,2.288-2.575,4.577-2.575
		c1.917,0,4.893,1.144,4.893,5.894v8.24h-2.518v-7.982c0-2.231-0.83-4.091-3.204-4.091c-1.631,0-2.919,1.173-3.376,2.575
		c-0.115,0.314-0.172,0.744-0.172,1.173v8.326h-2.518V317.46z"/>
	<path d="M518.17,307.246v16.737c0,1.23,0.058,2.632,0.115,3.576h-2.232l-0.114-2.403h-0.086c-0.743,1.545-2.403,2.718-4.663,2.718
		c-3.348,0-5.951-2.833-5.951-7.039c-0.028-4.606,2.861-7.41,6.209-7.41c2.146,0,3.548,1.001,4.177,2.088h0.058v-8.269H518.17z
		 M515.682,319.349c0-0.315-0.029-0.744-0.115-1.059c-0.371-1.574-1.745-2.89-3.633-2.89c-2.604,0-4.148,2.289-4.148,5.321
		c0,2.804,1.401,5.121,4.091,5.121c1.688,0,3.233-1.144,3.69-3.004c0.086-0.343,0.115-0.687,0.115-1.087V319.349z"/>
	<path d="M531.474,310.394v3.319h3.605v1.917h-3.605v7.467c0,1.717,0.486,2.689,1.889,2.689c0.687,0,1.087-0.057,1.459-0.171
		l0.114,1.917c-0.486,0.172-1.259,0.344-2.231,0.344c-1.173,0-2.117-0.401-2.718-1.059c-0.687-0.772-0.973-2.003-0.973-3.634v-7.553
		h-2.146v-1.917h2.146v-2.575L531.474,310.394z"/>
	<path d="M549.498,323.754c0,1.459,0.028,2.718,0.114,3.805h-2.231l-0.144-2.26h-0.057c-0.63,1.116-2.117,2.575-4.578,2.575
		c-2.174,0-4.777-1.23-4.777-6.065v-8.097h2.518v7.639c0,2.632,0.83,4.435,3.09,4.435c1.688,0,2.861-1.173,3.318-2.317
		c0.144-0.343,0.229-0.801,0.229-1.288v-8.468h2.518V323.754z"/>
	<path d="M553.675,307.246h2.489v8.698h0.057c0.887-1.545,2.489-2.518,4.721-2.518c3.462,0,5.865,2.861,5.865,7.038
		c0,4.949-3.147,7.41-6.237,7.41c-2.003,0-3.604-0.773-4.663-2.575h-0.058l-0.143,2.26h-2.146c0.058-0.944,0.115-2.346,0.115-3.576
		V307.246z M556.164,322.009c0,0.314,0.028,0.629,0.114,0.916c0.457,1.745,1.945,2.947,3.776,2.947c2.66,0,4.206-2.146,4.206-5.321
		c0-2.775-1.431-5.15-4.149-5.15c-1.688,0-3.29,1.202-3.805,3.09c-0.086,0.314-0.143,0.658-0.143,1.059V322.009z"/>
	<path d="M571.354,321.094c0.058,3.404,2.203,4.807,4.749,4.807c1.803,0,2.919-0.315,3.834-0.715l0.458,1.802
		c-0.887,0.4-2.432,0.887-4.635,0.887c-4.263,0-6.81-2.833-6.81-7.01s2.461-7.438,6.495-7.438c4.549,0,5.722,3.948,5.722,6.494
		c0,0.515-0.028,0.887-0.086,1.173H571.354z M578.736,319.291c0.028-1.573-0.658-4.063-3.49-4.063c-2.575,0-3.662,2.317-3.862,4.063
		H578.736z"/>
	<path d="M600.079,324.241c0,1.202,0.057,2.375,0.2,3.319h-2.261l-0.2-1.745h-0.086c-0.772,1.087-2.26,2.06-4.234,2.06
		c-2.804,0-4.234-1.974-4.234-3.977c0-3.347,2.976-5.178,8.326-5.15v-0.286c0-1.116-0.314-3.204-3.147-3.176
		c-1.316,0-2.66,0.372-3.634,1.03l-0.572-1.688c1.145-0.715,2.833-1.202,4.578-1.202c4.234,0,5.265,2.89,5.265,5.636V324.241z
		 M597.646,320.493c-2.746-0.057-5.864,0.429-5.864,3.119c0,1.659,1.087,2.403,2.346,2.403c1.831,0,3.004-1.145,3.404-2.317
		c0.086-0.286,0.114-0.572,0.114-0.801V320.493z"/>
	<path d="M605.313,313.712l1.974,2.975c0.544,0.772,0.973,1.459,1.431,2.232h0.058c0.458-0.801,0.915-1.517,1.401-2.26l1.917-2.947
		h2.747l-4.721,6.695l4.835,7.152h-2.832l-2.061-3.119c-0.544-0.801-1.001-1.573-1.487-2.403h-0.058
		c-0.458,0.83-0.915,1.574-1.459,2.403l-2.003,3.119h-2.775l4.921-7.067l-4.691-6.78H605.313z"/>
	<path d="M618.359,321.094c0.058,3.404,2.203,4.807,4.75,4.807c1.802,0,2.918-0.315,3.833-0.715l0.458,1.802
		c-0.887,0.4-2.432,0.887-4.635,0.887c-4.263,0-6.81-2.833-6.81-7.01s2.461-7.438,6.495-7.438c4.549,0,5.722,3.948,5.722,6.494
		c0,0.515-0.028,0.887-0.086,1.173H618.359z M625.741,319.291c0.028-1.573-0.658-4.063-3.49-4.063c-2.575,0-3.662,2.317-3.862,4.063
		H625.741z"/>
	<path d="M630.947,325.013c0.772,0.458,2.089,0.973,3.348,0.973c1.803,0,2.66-0.887,2.66-2.06c0-1.202-0.715-1.831-2.546-2.518
		c-2.518-0.916-3.69-2.26-3.69-3.919c0-2.231,1.831-4.063,4.777-4.063c1.402,0,2.633,0.372,3.376,0.858l-0.601,1.831
		c-0.544-0.343-1.545-0.83-2.832-0.83c-1.488,0-2.289,0.858-2.289,1.888c0,1.145,0.801,1.66,2.604,2.375
		c2.375,0.887,3.634,2.088,3.634,4.148c0,2.46-1.917,4.177-5.15,4.177c-1.516,0-2.918-0.401-3.891-0.973L630.947,325.013z"/>
</g>
</svg>
