<?xml version="1.0" encoding="utf-8"?>
<!-- Generator: Adobe Illustrator 15.0.0, SVG Export Plug-In . SVG Version: 6.00 Build 0)  -->
<!DOCTYPE svg PUBLIC "-//W3C//DTD SVG 1.1//EN" "http://www.w3.org/Graphics/SVG/1.1/DTD/svg11.dtd">
<svg version="1.1" id="_x3C_Layer_x3E_" xmlns="http://www.w3.org/2000/svg" xmlns:xlink="http://www.w3.org/1999/xlink" x="0px"
	 y="0px" width="724.5px" height="581.5px" viewBox="0 0 724.5 581.5" enable-background="new 0 0 724.5 581.5"
	 xml:space="preserve">
<g>
	
		<polyline fill-rule="evenodd" clip-rule="evenodd" fill="none" stroke="#000000" stroke-width="2" stroke-linecap="round" stroke-linejoin="round" stroke-miterlimit="10" points="
		73.264,75.728 73.264,467.201 718.869,467.201 	"/>
</g>
<g>
	
		<polyline fill-rule="evenodd" clip-rule="evenodd" stroke="#000000" stroke-width="2" stroke-linecap="round" stroke-linejoin="round" stroke-miterlimit="10" points="
		93.633,116.642 73.264,75.728 52.891,116.642 93.633,116.642 	"/>
</g>
<g>
	
		<polyline fill-rule="evenodd" clip-rule="evenodd" stroke="#000000" stroke-width="2" stroke-linecap="round" stroke-linejoin="round" stroke-miterlimit="10" points="
		678.126,446.829 718.869,467.201 678.126,487.57 678.126,446.829 	"/>
</g>
<g>
	
		<line fill-rule="evenodd" clip-rule="evenodd" fill="none" stroke="#000000" stroke-linecap="round" stroke-linejoin="round" stroke-miterlimit="10" x1="73.264" y1="467.201" x2="424.671" y2="178.605"/>
</g>
<g>
	
		<polyline fill-rule="evenodd" clip-rule="evenodd" stroke="#000000" stroke-width="2" stroke-linecap="round" stroke-linejoin="round" stroke-miterlimit="10" points="
		380.194,188.789 424.671,178.605 406.166,220.366 380.194,188.789 	"/>
</g>
<path fill-rule="evenodd" clip-rule="evenodd" fill="none" stroke="#000000" stroke-width="2" stroke-linecap="round" stroke-linejoin="round" stroke-miterlimit="10" d="
	M696.12,91.517C696.12,91.347,696.12,91.347,696.12,91.517c0,0.169,3.904,2.886,0,1.357c-4.245-1.357-8.998-11.035-24.278-10.016
	c-15.445,1.358-45.494,7.13-67.224,17.146c-21.56,10.186-38.367,22.919-61.453,42.949c-23.089,19.863-46.348,53.475-75.716,75.715
	c-29.196,22.07-66.885,45.666-98.461,55.682c-31.406,10.016-42.951,11.375-67.226,10.016"/>
<g>
	
		<line fill-rule="evenodd" clip-rule="evenodd" fill="none" stroke="#000000" stroke-width="2" stroke-linecap="round" stroke-linejoin="round" stroke-miterlimit="10" stroke-dasharray="16,8" x1="301.763" y1="284.367" x2="606.146" y2="284.367"/>
</g>
<g>
	
		<polyline fill-rule="evenodd" clip-rule="evenodd" fill="none" stroke="#000000" stroke-width="2" stroke-linecap="round" stroke-linejoin="round" stroke-miterlimit="10" points="
		664.716,228.685 669.805,227.836 659.621,229.194 637.721,230.553 623.46,232.25 601.902,237.004 583.567,243.116 500.213,279.444 
		478.994,287.253 465.753,290.818 440.46,295.741 405.318,300.325 384.606,304.399 360.671,311.357 340.638,319.337 
		320.098,329.693 305.498,339.2 273.921,361.437 257.286,370.944 246.081,375.528 226.388,380.451 210.259,382.659 193.794,382.998 
		179.025,382.828 	"/>
</g>
<g>
	
		<line fill-rule="evenodd" clip-rule="evenodd" fill="none" stroke="#000000" stroke-width="2" stroke-linecap="round" stroke-linejoin="round" stroke-miterlimit="10" stroke-dasharray="16,8" x1="179.025" y1="382.828" x2="507.514" y2="382.828"/>
</g>
<g>
	
		<polyline fill-rule="evenodd" clip-rule="evenodd" fill="none" stroke="#000000" stroke-width="2" stroke-linecap="round" stroke-linejoin="round" stroke-miterlimit="10" stroke-dasharray="16,8" points="
		428.915,461.429 606.146,284.367 606.146,101.533 	"/>
</g>
<g>
	
		<polyline fill-rule="evenodd" clip-rule="evenodd" fill="none" stroke="#000000" stroke-width="2" stroke-linecap="round" stroke-linejoin="round" stroke-miterlimit="10" stroke-dasharray="16,8" points="
		310.421,464.314 491.728,282.839 491.728,202.88 	"/>
</g>
<g>
	
		<line fill-rule="evenodd" clip-rule="evenodd" fill="none" stroke="#000000" stroke-width="2" stroke-linecap="round" stroke-linejoin="round" stroke-miterlimit="10" stroke-dasharray="16,8" x1="176.139" y1="461.429" x2="400.395" y2="284.367"/>
</g>
<g>
	<path d="M6.681,12.239c1.34-0.317,3.493-0.529,5.609-0.529c3.069,0,5.044,0.529,6.491,1.729c1.235,0.917,2.011,2.329,2.011,4.198
		c0,2.329-1.552,4.339-4.022,5.221v0.106c2.258,0.529,4.904,2.399,4.904,5.927c0,2.046-0.811,3.634-2.046,4.763
		c-1.623,1.517-4.304,2.223-8.185,2.223c-2.117,0-3.74-0.142-4.763-0.282V12.239z M9.75,21.976h2.787
		c3.21,0,5.116-1.729,5.116-4.022c0-2.751-2.082-3.88-5.186-3.88c-1.411,0-2.223,0.106-2.716,0.211V21.976z M9.75,33.336
		c0.635,0.105,1.481,0.141,2.575,0.141c3.175,0,6.103-1.164,6.103-4.621c0-3.21-2.787-4.586-6.138-4.586H9.75V33.336z"/>
	<path d="M45.837,25.222c-0.176-3.316-0.388-7.338-0.388-10.266h-0.07c-0.847,2.752-1.799,5.75-2.999,9.031l-4.198,11.536h-2.329
		l-3.88-11.324c-1.129-3.387-2.046-6.421-2.717-9.243h-0.07c-0.07,2.963-0.247,6.915-0.458,10.513l-0.635,10.195h-2.928
		l1.658-23.777h3.916l4.057,11.5c0.988,2.928,1.764,5.539,2.399,8.008h0.07c0.635-2.399,1.482-5.01,2.54-8.008l4.233-11.5h3.916
		l1.482,23.777h-3.034L45.837,25.222z"/>
	<path d="M74.478,23.528c0,8.149-4.974,12.524-11.042,12.524c-6.315,0-10.689-4.904-10.689-12.101
		c0-7.549,4.657-12.489,11.007-12.489C70.279,11.463,74.478,16.438,74.478,23.528z M55.992,23.881c0,5.116,2.751,9.667,7.62,9.667
		s7.62-4.48,7.62-9.878c0-4.763-2.469-9.702-7.585-9.702C58.532,13.968,55.992,18.695,55.992,23.881z"/>
	<path d="M98.498,25.222c-0.176-3.316-0.388-7.338-0.388-10.266h-0.07c-0.847,2.752-1.799,5.75-2.999,9.031l-4.198,11.536h-2.329
		l-3.88-11.324c-1.129-3.387-2.046-6.421-2.717-9.243h-0.07c-0.07,2.963-0.247,6.915-0.458,10.513l-0.635,10.195h-2.928
		l1.658-23.777h3.916l4.057,11.5c0.988,2.928,1.764,5.539,2.399,8.008h0.07c0.635-2.399,1.482-5.01,2.54-8.008l4.233-11.5h3.916
		l1.482,23.777h-3.034L98.498,25.222z"/>
	<path d="M112.11,35.664v-10.09l-7.549-13.688h3.528l3.352,6.562c0.882,1.799,1.623,3.246,2.363,4.904h0.071
		c0.635-1.552,1.482-3.104,2.399-4.904l3.422-6.562h3.458l-7.938,13.652v10.125H112.11z"/>
</g>
<g>
	<path d="M369.973,135.076c1.481-0.247,3.422-0.458,5.891-0.458c3.034,0,5.257,0.706,6.668,1.976
		c1.27,1.129,2.081,2.858,2.081,4.974c0,2.152-0.635,3.846-1.834,5.08c-1.658,1.729-4.269,2.611-7.268,2.611
		c-0.917,0-1.764-0.035-2.47-0.211v9.525h-3.068V135.076z M373.041,146.542c0.671,0.176,1.518,0.247,2.54,0.247
		c3.704,0,5.962-1.835,5.962-5.045c0-3.175-2.258-4.692-5.608-4.692c-1.341,0-2.364,0.106-2.894,0.247V146.542z"/>
	<path d="M388.736,135.112c1.553-0.282,3.811-0.494,5.892-0.494c3.281,0,5.434,0.635,6.88,1.94c1.164,1.058,1.869,2.681,1.869,4.551
		c0,3.104-1.976,5.186-4.444,6.033v0.106c1.799,0.635,2.893,2.328,3.457,4.798c0.776,3.316,1.341,5.609,1.834,6.526h-3.175
		c-0.388-0.706-0.917-2.716-1.552-5.68c-0.706-3.281-2.011-4.516-4.798-4.622h-2.894v10.301h-3.069V135.112z M391.806,145.942h3.14
		c3.281,0,5.363-1.799,5.363-4.516c0-3.069-2.223-4.41-5.469-4.41c-1.481,0-2.505,0.106-3.034,0.247V145.942z"/>
	<path d="M419.99,147.424h-9.208v8.573h10.302v2.575h-13.406v-23.778h12.877v2.576h-9.772v7.514h9.208V147.424z"/>
	<path d="M424.679,154.832c1.376,0.882,3.352,1.553,5.468,1.553c3.141,0,4.975-1.658,4.975-4.057c0-2.188-1.27-3.493-4.48-4.692
		c-3.881-1.411-6.279-3.458-6.279-6.773c0-3.705,3.069-6.456,7.69-6.456c2.399,0,4.198,0.564,5.222,1.164l-0.847,2.505
		c-0.741-0.459-2.329-1.129-4.48-1.129c-3.246,0-4.48,1.94-4.48,3.563c0,2.223,1.446,3.316,4.728,4.586
		c4.021,1.552,6.032,3.492,6.032,6.985c0,3.669-2.681,6.879-8.29,6.879c-2.293,0-4.798-0.706-6.068-1.552L424.679,154.832z"/>
	<path d="M442.068,154.832c1.376,0.882,3.352,1.553,5.469,1.553c3.14,0,4.974-1.658,4.974-4.057c0-2.188-1.27-3.493-4.48-4.692
		c-3.88-1.411-6.279-3.458-6.279-6.773c0-3.705,3.069-6.456,7.69-6.456c2.399,0,4.198,0.564,5.222,1.164l-0.847,2.505
		c-0.741-0.459-2.328-1.129-4.48-1.129c-3.246,0-4.48,1.94-4.48,3.563c0,2.223,1.446,3.316,4.728,4.586
		c4.021,1.552,6.032,3.492,6.032,6.985c0,3.669-2.681,6.879-8.29,6.879c-2.293,0-4.798-0.706-6.068-1.552L442.068,154.832z"/>
</g>
<g>
	<path d="M93.94,252.212c1.482-0.247,3.422-0.458,5.892-0.458c3.034,0,5.256,0.706,6.667,1.976c1.27,1.129,2.082,2.858,2.082,4.974
		c0,2.152-0.635,3.846-1.834,5.08c-1.658,1.729-4.269,2.611-7.268,2.611c-0.917,0-1.764-0.035-2.469-0.211v9.525H93.94V252.212z
		 M97.009,263.678c0.67,0.176,1.517,0.247,2.54,0.247c3.704,0,5.962-1.835,5.962-5.045c0-3.175-2.258-4.692-5.609-4.692
		c-1.34,0-2.364,0.106-2.893,0.247V263.678z"/>
	<path d="M112.705,252.248c1.552-0.282,3.81-0.494,5.892-0.494c3.281,0,5.433,0.635,6.879,1.94c1.165,1.058,1.87,2.681,1.87,4.551
		c0,3.104-1.976,5.186-4.445,6.033v0.106c1.799,0.635,2.893,2.328,3.458,4.798c0.776,3.316,1.34,5.609,1.834,6.526h-3.175
		c-0.388-0.706-0.917-2.716-1.552-5.68c-0.706-3.281-2.011-4.516-4.798-4.622h-2.893v10.301h-3.069V252.248z M115.774,263.078h3.14
		c3.281,0,5.362-1.799,5.362-4.516c0-3.069-2.223-4.41-5.468-4.41c-1.481,0-2.504,0.106-3.034,0.247V263.078z"/>
	<path d="M143.958,264.56h-9.208v8.573h10.301v2.575h-13.406V251.93h12.876v2.576h-9.772v7.514h9.208V264.56z"/>
	<path d="M148.647,271.968c1.376,0.882,3.352,1.553,5.468,1.553c3.14,0,4.974-1.658,4.974-4.057c0-2.188-1.27-3.493-4.48-4.692
		c-3.881-1.411-6.28-3.458-6.28-6.773c0-3.705,3.069-6.456,7.691-6.456c2.398,0,4.198,0.564,5.221,1.164l-0.847,2.505
		c-0.741-0.459-2.328-1.129-4.48-1.129c-3.246,0-4.48,1.94-4.48,3.563c0,2.223,1.446,3.316,4.727,4.586
		c4.022,1.552,6.033,3.492,6.033,6.985c0,3.669-2.681,6.879-8.291,6.879c-2.293,0-4.798-0.706-6.067-1.552L148.647,271.968z"/>
	<path d="M166.036,271.968c1.376,0.882,3.352,1.553,5.468,1.553c3.14,0,4.974-1.658,4.974-4.057c0-2.188-1.27-3.493-4.48-4.692
		c-3.88-1.411-6.279-3.458-6.279-6.773c0-3.705,3.069-6.456,7.69-6.456c2.399,0,4.198,0.564,5.222,1.164l-0.847,2.505
		c-0.741-0.459-2.329-1.129-4.48-1.129c-3.246,0-4.48,1.94-4.48,3.563c0,2.223,1.446,3.316,4.728,4.586
		c4.021,1.552,6.032,3.492,6.032,6.985c0,3.669-2.681,6.879-8.29,6.879c-2.293,0-4.798-0.706-6.068-1.552L166.036,271.968z"/>
	<path d="M190.411,251.225c-2.576,3.492-4.41,8.043-4.41,14.464c0,6.279,1.94,10.76,4.41,14.288h-2.399
		c-2.223-2.928-4.622-7.444-4.622-14.323c0.035-6.915,2.399-11.466,4.622-14.429H190.411z"/>
	<path d="M192.737,275.708v-1.905l2.435-2.364c5.856-5.574,8.537-8.538,8.537-11.995c0-2.329-1.094-4.48-4.516-4.48
		c-2.082,0-3.81,1.059-4.868,1.94l-0.988-2.188c1.553-1.305,3.846-2.328,6.456-2.328c4.939,0,7.021,3.387,7.021,6.667
		c0,4.233-3.069,7.655-7.902,12.312l-1.799,1.693v0.071h10.266v2.575H192.737z"/>
	<path d="M209.95,279.976c2.469-3.493,4.41-8.043,4.41-14.394s-1.905-10.831-4.41-14.358h2.399
		c2.223,2.893,4.622,7.443,4.622,14.358c-0.036,6.915-2.399,11.43-4.622,14.394H209.95z"/>
</g>
<g>
	<path d="M89.014,338.111c1.482-0.247,3.422-0.459,5.892-0.459c3.034,0,5.256,0.706,6.667,1.976c1.27,1.129,2.082,2.857,2.082,4.975
		c0,2.152-0.635,3.845-1.834,5.08c-1.658,1.729-4.269,2.61-7.268,2.61c-0.917,0-1.764-0.035-2.469-0.212v9.525h-3.069V338.111z
		 M92.083,349.577c0.67,0.176,1.517,0.247,2.54,0.247c3.704,0,5.962-1.834,5.962-5.044c0-3.175-2.258-4.692-5.609-4.692
		c-1.34,0-2.364,0.105-2.893,0.247V349.577z"/>
	<path d="M107.779,338.146c1.552-0.282,3.81-0.494,5.892-0.494c3.281,0,5.433,0.635,6.879,1.94c1.165,1.059,1.87,2.681,1.87,4.551
		c0,3.104-1.976,5.186-4.445,6.033v0.106c1.799,0.635,2.893,2.328,3.458,4.798c0.776,3.316,1.34,5.609,1.834,6.526h-3.175
		c-0.388-0.706-0.917-2.716-1.552-5.68c-0.706-3.281-2.011-4.516-4.798-4.622h-2.893v10.301h-3.069V338.146z M110.849,348.977h3.14
		c3.281,0,5.362-1.799,5.362-4.516c0-3.069-2.223-4.41-5.468-4.41c-1.481,0-2.504,0.106-3.034,0.247V348.977z"/>
	<path d="M139.032,350.458h-9.208v8.573h10.301v2.575H126.72v-23.777h12.876v2.575h-9.772v7.514h9.208V350.458z"/>
	<path d="M143.721,357.867c1.376,0.882,3.352,1.552,5.468,1.552c3.14,0,4.974-1.658,4.974-4.057c0-2.188-1.27-3.493-4.48-4.692
		c-3.881-1.411-6.28-3.457-6.28-6.773c0-3.704,3.069-6.456,7.691-6.456c2.398,0,4.198,0.564,5.221,1.164l-0.847,2.505
		c-0.741-0.458-2.328-1.129-4.48-1.129c-3.246,0-4.48,1.94-4.48,3.563c0,2.223,1.446,3.316,4.727,4.586
		c4.022,1.553,6.033,3.493,6.033,6.985c0,3.669-2.681,6.879-8.291,6.879c-2.293,0-4.798-0.706-6.067-1.552L143.721,357.867z"/>
	<path d="M161.11,357.867c1.376,0.882,3.352,1.552,5.468,1.552c3.14,0,4.974-1.658,4.974-4.057c0-2.188-1.27-3.493-4.48-4.692
		c-3.88-1.411-6.279-3.457-6.279-6.773c0-3.704,3.069-6.456,7.69-6.456c2.399,0,4.198,0.564,5.222,1.164l-0.847,2.505
		c-0.741-0.458-2.329-1.129-4.48-1.129c-3.246,0-4.48,1.94-4.48,3.563c0,2.223,1.446,3.316,4.728,4.586
		c4.021,1.553,6.032,3.493,6.032,6.985c0,3.669-2.681,6.879-8.29,6.879c-2.293,0-4.798-0.706-6.068-1.552L161.11,357.867z"/>
</g>
<g>
	<path d="M95.611,377.697c-2.575,3.493-4.41,8.044-4.41,14.464c0,6.28,1.94,10.76,4.41,14.288h-2.399
		c-2.223-2.928-4.622-7.443-4.622-14.323c0.035-6.915,2.399-11.465,4.622-14.429H95.611z"/>
	<path d="M104.676,382.143h-0.07l-3.987,2.152l-0.6-2.364l5.009-2.681h2.646v22.931h-2.999V382.143z"/>
	<path d="M115.15,406.449c2.47-3.492,4.41-8.043,4.41-14.394s-1.905-10.83-4.41-14.358h2.399c2.223,2.893,4.622,7.444,4.622,14.358
		c-0.035,6.915-2.399,11.43-4.622,14.394H115.15z"/>
</g>
<g>
	<path d="M538.15,517.728c-1.094,0.564-3.387,1.129-6.279,1.129c-6.703,0-11.713-4.233-11.713-12.064
		c0-7.479,5.045-12.489,12.418-12.489c2.929,0,4.834,0.636,5.645,1.059l-0.775,2.505c-1.129-0.564-2.787-0.987-4.763-0.987
		c-5.574,0-9.278,3.563-9.278,9.807c0,5.856,3.352,9.561,9.102,9.561c1.905,0,3.811-0.388,5.045-0.987L538.15,517.728z"/>
	<path d="M545.097,494.691v14.111c0,5.291,2.364,7.549,5.539,7.549c3.492,0,5.786-2.328,5.786-7.549v-14.111h3.104v13.899
		c0,7.303-3.845,10.266-8.995,10.266c-4.869,0-8.538-2.751-8.538-10.16v-14.005H545.097z"/>
	<path d="M564.848,495.009c1.553-0.282,3.811-0.494,5.892-0.494c3.281,0,5.434,0.635,6.88,1.94c1.164,1.059,1.869,2.682,1.869,4.551
		c0,3.104-1.976,5.186-4.444,6.033v0.105c1.799,0.635,2.893,2.328,3.457,4.798c0.776,3.316,1.341,5.609,1.834,6.526h-3.175
		c-0.388-0.705-0.917-2.717-1.552-5.68c-0.706-3.281-2.011-4.516-4.798-4.621h-2.894v10.301h-3.069V495.009z M567.917,505.839h3.14
		c3.281,0,5.363-1.799,5.363-4.516c0-3.069-2.223-4.409-5.469-4.409c-1.481,0-2.505,0.105-3.034,0.246V505.839z"/>
	<path d="M589.61,518.469l-7.797-23.777h3.352l3.704,11.712c0.988,3.211,1.87,6.104,2.54,8.891h0.071
		c0.67-2.752,1.622-5.751,2.716-8.855l4.022-11.747h3.28l-8.502,23.777H589.61z"/>
</g>
<g>
	<path d="M99.825,518.066c-1.093,0.564-3.387,1.129-6.279,1.129c-6.703,0-11.712-4.233-11.712-12.064
		c0-7.479,5.045-12.489,12.418-12.489c2.928,0,4.833,0.636,5.645,1.059l-0.776,2.505c-1.129-0.564-2.787-0.988-4.763-0.988
		c-5.574,0-9.278,3.563-9.278,9.808c0,5.856,3.352,9.561,9.102,9.561c1.905,0,3.811-0.388,5.045-0.987L99.825,518.066z"/>
	<path d="M106.771,495.03v14.111c0,5.292,2.363,7.55,5.539,7.55c3.493,0,5.786-2.329,5.786-7.55V495.03h3.104v13.899
		c0,7.303-3.845,10.266-8.996,10.266c-4.868,0-8.537-2.751-8.537-10.16V495.03H106.771z"/>
	<path d="M126.523,495.348c1.552-0.282,3.81-0.494,5.892-0.494c3.281,0,5.433,0.635,6.879,1.94c1.165,1.059,1.87,2.681,1.87,4.551
		c0,3.104-1.976,5.187-4.445,6.032v0.106c1.799,0.635,2.893,2.328,3.458,4.798c0.776,3.316,1.34,5.609,1.834,6.526h-3.175
		c-0.388-0.706-0.917-2.717-1.552-5.68c-0.706-3.281-2.011-4.516-4.798-4.622h-2.893v10.302h-3.069V495.348z M129.593,506.178h3.14
		c3.281,0,5.362-1.799,5.362-4.516c0-3.069-2.223-4.409-5.468-4.409c-1.481,0-2.504,0.105-3.034,0.247V506.178z"/>
	<path d="M151.285,518.808l-7.796-23.777h3.351l3.705,11.712c0.988,3.211,1.87,6.104,2.54,8.891h0.07
		c0.67-2.752,1.623-5.751,2.716-8.855l4.022-11.747h3.281l-8.502,23.777H151.285z"/>
</g>
<g>
	<path d="M118.191,534.896c-2.575,3.493-4.41,8.044-4.41,14.465c0,6.279,1.94,10.76,4.41,14.287h-2.399
		c-2.223-2.928-4.622-7.443-4.622-14.323c0.035-6.914,2.399-11.465,4.622-14.429H118.191z"/>
	<path d="M127.256,539.342h-0.07l-3.987,2.152l-0.6-2.364l5.009-2.681h2.646v22.931h-2.999V539.342z"/>
	<path d="M137.73,563.648c2.47-3.492,4.41-8.043,4.41-14.394c0-6.35-1.905-10.83-4.41-14.358h2.399
		c2.223,2.893,4.622,7.444,4.622,14.358c-0.035,6.915-2.399,11.431-4.622,14.394H137.73z"/>
</g>
<g>
	<path d="M239.878,518.066c-1.093,0.564-3.387,1.129-6.279,1.129c-6.703,0-11.712-4.233-11.712-12.064
		c0-7.479,5.045-12.489,12.418-12.489c2.928,0,4.833,0.636,5.645,1.059l-0.776,2.505c-1.129-0.564-2.787-0.988-4.763-0.988
		c-5.574,0-9.278,3.563-9.278,9.808c0,5.856,3.352,9.561,9.102,9.561c1.905,0,3.811-0.388,5.045-0.987L239.878,518.066z"/>
	<path d="M246.824,495.03v14.111c0,5.292,2.363,7.55,5.539,7.55c3.493,0,5.786-2.329,5.786-7.55V495.03h3.104v13.899
		c0,7.303-3.845,10.266-8.996,10.266c-4.868,0-8.537-2.751-8.537-10.16V495.03H246.824z"/>
	<path d="M266.576,495.348c1.552-0.282,3.81-0.494,5.892-0.494c3.281,0,5.433,0.635,6.879,1.94c1.165,1.059,1.87,2.681,1.87,4.551
		c0,3.104-1.976,5.187-4.445,6.032v0.106c1.799,0.635,2.893,2.328,3.458,4.798c0.776,3.316,1.34,5.609,1.834,6.526h-3.175
		c-0.388-0.706-0.917-2.717-1.552-5.68c-0.706-3.281-2.011-4.516-4.798-4.622h-2.893v10.302h-3.069V495.348z M269.646,506.178h3.14
		c3.281,0,5.362-1.799,5.362-4.516c0-3.069-2.223-4.409-5.468-4.409c-1.481,0-2.504,0.105-3.034,0.247V506.178z"/>
	<path d="M291.338,518.808l-7.796-23.777h3.351l3.705,11.712c0.988,3.211,1.87,6.104,2.54,8.891h0.07
		c0.67-2.752,1.623-5.751,2.716-8.855l4.021-11.747h3.281l-8.502,23.777H291.338z"/>
</g>
<g>
	<path d="M258.246,534.896c-2.575,3.493-4.41,8.044-4.41,14.465c0,6.279,1.94,10.76,4.41,14.287h-2.399
		c-2.223-2.928-4.622-7.443-4.622-14.323c0.035-6.914,2.399-11.465,4.622-14.429H258.246z"/>
	<path d="M260.572,559.38v-1.905l2.435-2.363c5.856-5.574,8.537-8.537,8.537-11.995c0-2.328-1.094-4.479-4.516-4.479
		c-2.082,0-3.81,1.058-4.868,1.939l-0.988-2.187c1.553-1.306,3.846-2.329,6.456-2.329c4.939,0,7.021,3.387,7.021,6.668
		c0,4.233-3.069,7.655-7.902,12.313l-1.799,1.693v0.07h10.266v2.575H260.572z"/>
	<path d="M277.785,563.648c2.47-3.492,4.41-8.043,4.41-14.394c0-6.35-1.905-10.83-4.41-14.358h2.399
		c2.223,2.893,4.622,7.444,4.622,14.358c-0.035,6.915-2.399,11.431-4.622,14.394H277.785z"/>
</g>
<g>
	
		<line fill-rule="evenodd" clip-rule="evenodd" fill="none" stroke="#000000" stroke-width="2" stroke-linecap="round" stroke-linejoin="round" stroke-miterlimit="10" stroke-dasharray="16,8" x1="274.77" y1="382.828" x2="274.77" y2="361.437"/>
</g>
<g>
	
		<line fill-rule="evenodd" clip-rule="evenodd" fill="none" stroke="#000000" stroke-width="2" stroke-linecap="round" stroke-linejoin="round" stroke-miterlimit="10" stroke-dasharray="16,8" x1="399.036" y1="282.839" x2="399.036" y2="262.976"/>
</g>
<g>
	
		<line fill-rule="evenodd" clip-rule="evenodd" fill="none" stroke="#000000" stroke-width="2" stroke-linecap="round" stroke-linejoin="round" stroke-miterlimit="10" stroke-dasharray="16,8" x1="393.263" y1="381.47" x2="393.263" y2="302.872"/>
</g>
<g>
	
		<line fill-rule="evenodd" clip-rule="evenodd" fill="none" stroke="#000000" stroke-width="2" stroke-linecap="round" stroke-linejoin="round" stroke-miterlimit="10" stroke-dasharray="16,8" x1="507.514" y1="382.828" x2="507.514" y2="275.708"/>
</g>
</svg>
