<?xml version="1.0" encoding="utf-8"?>
<!-- Generator: Adobe Illustrator 15.0.0, SVG Export Plug-In . SVG Version: 6.00 Build 0)  -->
<!DOCTYPE svg PUBLIC "-//W3C//DTD SVG 1.1//EN" "http://www.w3.org/Graphics/SVG/1.1/DTD/svg11.dtd">
<svg version="1.1" id="_x3C_Layer_x3E_" xmlns="http://www.w3.org/2000/svg" xmlns:xlink="http://www.w3.org/1999/xlink" x="0px"
	 y="0px" width="728.5px" height="440.5px" viewBox="0 0 728.5 440.5" enable-background="new 0 0 728.5 440.5"
	 xml:space="preserve">
<g>
	
		<line fill-rule="evenodd" clip-rule="evenodd" fill="none" stroke="#000000" stroke-linecap="round" stroke-linejoin="round" stroke-miterlimit="10" x1="225.664" y1="441.172" x2="225.664" y2="40.293"/>
</g>
<g>
	
		<polyline fill-rule="evenodd" clip-rule="evenodd" stroke="#000000" stroke-linecap="round" stroke-linejoin="round" stroke-miterlimit="10" points="
		211.327,69.074 225.664,40.293 240.109,69.074 211.327,69.074 	"/>
</g>
<g>
	
		<line fill-rule="evenodd" clip-rule="evenodd" fill="none" stroke="#000000" stroke-linecap="round" stroke-linejoin="round" stroke-miterlimit="10" x1="197.639" y1="416.596" x2="690.033" y2="416.596"/>
</g>
<g>
	
		<polyline fill-rule="evenodd" clip-rule="evenodd" stroke="#000000" stroke-linecap="round" stroke-linejoin="round" stroke-miterlimit="10" points="
		661.252,402.259 690.033,416.596 661.252,431.039 661.252,402.259 	"/>
</g>
<g>
	
		<polyline fill-rule="evenodd" clip-rule="evenodd" fill="none" stroke="#000000" stroke-linecap="round" stroke-linejoin="round" stroke-miterlimit="10" points="
		53.198,132.563 225.556,413.686 604.662,227.744 	"/>
</g>
<g>
	
		<polyline fill-rule="evenodd" clip-rule="evenodd" stroke="#000000" stroke-linecap="round" stroke-linejoin="round" stroke-miterlimit="10" points="
		80.468,149.595 53.198,132.563 56,164.577 80.468,149.595 	"/>
</g>
<g>
	
		<polyline fill-rule="evenodd" clip-rule="evenodd" stroke="#000000" stroke-linecap="round" stroke-linejoin="round" stroke-miterlimit="10" points="
		572.433,227.529 604.662,227.744 585.043,253.398 572.433,227.529 	"/>
</g>
<path fill-rule="evenodd" clip-rule="evenodd" fill="none" stroke="#000000" stroke-linecap="round" stroke-linejoin="round" stroke-miterlimit="10" d="
	M113.237,296.947c-11.75-30.074-4.528-47.968,5.498-58.102c10.133-9.915,36.218-10.887,61.656,0.97"/>
<g>
	
		<polyline fill-rule="evenodd" clip-rule="evenodd" stroke="#000000" stroke-linecap="round" stroke-linejoin="round" stroke-miterlimit="10" points="
		160.342,214.593 180.391,239.815 148.162,240.68 160.342,214.593 	"/>
</g>
<path fill-rule="evenodd" clip-rule="evenodd" fill="none" stroke="#000000" stroke-linecap="round" stroke-linejoin="round" stroke-miterlimit="10" d="
	M517.781,412.068c2.91-20.697,3.341-48.183-4.528-67.047c-7.976-18.972-21.126-36.434-39.991-53.573"/>
<g>
	
		<polyline fill-rule="evenodd" clip-rule="evenodd" stroke="#000000" stroke-linecap="round" stroke-linejoin="round" stroke-miterlimit="10" points="
		485.012,321.522 473.262,291.448 504.309,300.18 485.012,321.522 	"/>
</g>
<g>
	<path d="M716.99,424.788l-2.784-4.768c-1.12-1.824-1.792-3.008-2.464-4.256h-0.063c-0.608,1.248-1.248,2.4-2.336,4.288
		l-2.592,4.735h-3.2l6.592-10.911l-6.336-10.655h3.232l2.848,5.056c0.8,1.408,1.407,2.496,1.983,3.647h0.097
		c0.607-1.279,1.151-2.271,1.951-3.647l2.912-5.056h3.231l-6.56,10.495l6.72,11.071H716.99z"/>
</g>
<g>
	<path d="M539.614,336.817c1.696-0.288,3.712-0.48,5.92-0.48c4,0,6.848,0.96,8.735,2.688c1.952,1.761,3.071,4.256,3.071,7.744
		c0,3.52-1.119,6.399-3.104,8.383c-2.048,2.017-5.376,3.104-9.567,3.104c-2.016,0-3.647-0.097-5.056-0.257V336.817z
		 M542.398,355.888c0.704,0.096,1.728,0.128,2.815,0.128c5.983,0,9.184-3.328,9.184-9.151c0.032-5.088-2.848-8.319-8.735-8.319
		c-1.44,0-2.528,0.128-3.264,0.288V355.888z"/>
	<path d="M563.707,336.497v21.566h-2.816v-21.566H563.707z"/>
	<path d="M568.569,336.785c1.408-0.256,3.456-0.448,5.344-0.448c2.976,0,4.928,0.576,6.239,1.76c1.057,0.96,1.696,2.432,1.696,4.128
		c0,2.815-1.792,4.704-4.032,5.472v0.096c1.633,0.576,2.624,2.112,3.136,4.352c0.704,3.008,1.217,5.088,1.664,5.92h-2.88
		c-0.352-0.64-0.832-2.464-1.407-5.151c-0.641-2.976-1.824-4.096-4.352-4.192h-2.624v9.344h-2.784V336.785z M571.354,346.608h2.848
		c2.976,0,4.863-1.632,4.863-4.096c0-2.784-2.016-4-4.959-4c-1.345,0-2.272,0.097-2.752,0.225V346.608z"/>
</g>
<g>
	<path d="M646.063,226.558l-2.784-4.768c-1.12-1.824-1.792-3.008-2.464-4.256h-0.063c-0.608,1.248-1.248,2.4-2.336,4.288
		l-2.592,4.735h-3.2l6.592-10.911l-6.336-10.655h3.232l2.848,5.056c0.8,1.408,1.407,2.496,1.983,3.647h0.096
		c0.608-1.279,1.152-2.271,1.952-3.647l2.912-5.056h3.231l-6.56,10.495l6.72,11.071H646.063z"/>
	<path d="M652.525,205.279c1.408-0.256,3.456-0.448,5.344-0.448c2.976,0,4.928,0.576,6.239,1.76c1.057,0.96,1.696,2.432,1.696,4.128
		c0,2.815-1.792,4.704-4.032,5.472v0.096c1.632,0.576,2.624,2.112,3.136,4.352c0.704,3.008,1.217,5.088,1.664,5.92h-2.88
		c-0.352-0.64-0.832-2.464-1.407-5.151c-0.641-2.976-1.824-4.096-4.352-4.192h-2.624v9.344h-2.784V205.279z M655.31,215.103h2.848
		c2.976,0,4.863-1.632,4.863-4.096c0-2.784-2.016-4-4.959-4c-1.345,0-2.272,0.097-2.752,0.225V215.103z"/>
	<path d="M680.874,216.446h-8.352v7.775h9.343v2.336h-12.159v-21.566h11.68v2.336h-8.863v6.815h8.352V216.446z"/>
	<path d="M685.447,204.991h11.615v2.336h-8.799v7.167h8.127v2.304h-8.127v9.76h-2.816V204.991z"/>
</g>
<g>
	<path d="M12.568,229.792v-9.151l-6.848-12.415h3.2l3.04,5.951c0.8,1.632,1.472,2.944,2.144,4.448h0.064
		c0.576-1.408,1.344-2.816,2.176-4.448l3.104-5.951h3.136l-7.199,12.383v9.184H12.568z"/>
	<path d="M24.854,208.514c1.408-0.256,3.456-0.448,5.344-0.448c2.976,0,4.928,0.576,6.24,1.76c1.056,0.96,1.696,2.432,1.696,4.128
		c0,2.815-1.792,4.704-4.032,5.472v0.096c1.632,0.576,2.624,2.112,3.136,4.352c0.704,3.008,1.216,5.088,1.664,5.92h-2.88
		c-0.352-0.64-0.832-2.464-1.408-5.151c-0.64-2.976-1.824-4.096-4.352-4.192h-2.624v9.344h-2.784V208.514z M27.638,218.337h2.848
		c2.976,0,4.864-1.632,4.864-4.096c0-2.784-2.016-4-4.96-4c-1.344,0-2.271,0.097-2.751,0.225V218.337z"/>
	<path d="M53.203,219.681h-8.351v7.775h9.343v2.336H42.036v-21.566h11.679v2.336h-8.863v6.815h8.351V219.681z"/>
	<path d="M57.777,208.226h11.615v2.336h-8.799v7.167h8.127v2.304h-8.127v9.76h-2.816V208.226z"/>
</g>
<g>
	<path d="M134.748,169.924c1.408-0.256,3.456-0.448,5.344-0.448c2.976,0,4.928,0.576,6.24,1.76c1.056,0.96,1.696,2.432,1.696,4.128
		c0,2.815-1.792,4.704-4.032,5.472v0.096c1.632,0.576,2.624,2.112,3.136,4.352c0.704,3.008,1.216,5.088,1.664,5.92h-2.88
		c-0.352-0.64-0.832-2.464-1.408-5.151c-0.64-2.976-1.824-4.096-4.352-4.192h-2.624v9.344h-2.784V169.924z M137.532,179.747h2.848
		c2.976,0,4.864-1.632,4.864-4.096c0-2.784-2.016-4-4.96-4c-1.344,0-2.271,0.097-2.751,0.225V179.747z"/>
	<path d="M170.488,180.195c0,7.391-4.512,11.358-10.015,11.358c-5.728,0-9.695-4.447-9.695-10.975
		c0-6.848,4.224-11.327,9.983-11.327C166.68,169.252,170.488,173.764,170.488,180.195z M153.721,180.515
		c0,4.64,2.496,8.768,6.912,8.768c4.416,0,6.911-4.063,6.911-8.959c0-4.32-2.24-8.8-6.879-8.8S153.721,175.812,153.721,180.515z"/>
	<path d="M177.397,172.004h-6.56v-2.368h15.967v2.368h-6.592v19.198h-2.816V172.004z"/>
</g>
<g>
	<path d="M221.145,29.405v-9.151l-6.848-12.415h3.2l3.04,5.952c0.8,1.632,1.472,2.944,2.144,4.448h0.064
		c0.576-1.408,1.344-2.816,2.176-4.448l3.104-5.952h3.136l-7.199,12.383v9.183H221.145z"/>
</g>
</svg>
