<?xml version="1.0" encoding="utf-8"?>
<!-- Generator: Adobe Illustrator 15.0.0, SVG Export Plug-In . SVG Version: 6.00 Build 0)  -->
<!DOCTYPE svg PUBLIC "-//W3C//DTD SVG 1.1//EN" "http://www.w3.org/Graphics/SVG/1.1/DTD/svg11.dtd" [
	<!ENTITY ns_flows "http://ns.adobe.com/Flows/1.0/">
	<!ENTITY ns_extend "http://ns.adobe.com/Extensibility/1.0/">
	<!ENTITY ns_ai "http://ns.adobe.com/AdobeIllustrator/10.0/">
	<!ENTITY ns_graphs "http://ns.adobe.com/Graphs/1.0/">
]>
<svg version="1.1" id="_x3C_Layer_x3E_" xmlns:x="&ns_extend;" xmlns:i="&ns_ai;" xmlns:graph="&ns_graphs;"
	 xmlns="http://www.w3.org/2000/svg" xmlns:xlink="http://www.w3.org/1999/xlink" xmlns:a="http://ns.adobe.com/AdobeSVGViewerExtensions/3.0/"
	 x="0px" y="0px" width="742.5px" height="357.5px" viewBox="0 0 742.5 357.5" enable-background="new 0 0 742.5 357.5"
	 xml:space="preserve">
<g>
	<path d="M545.843,203.505c-0.464,0.24-1.437,0.479-2.664,0.479c-2.845,0-4.97-1.796-4.97-5.119c0-3.173,2.141-5.299,5.269-5.299
		c1.243,0,2.051,0.27,2.396,0.449l-0.329,1.063c-0.479-0.24-1.183-0.419-2.021-0.419c-2.365,0-3.937,1.512-3.937,4.162
		c0,2.485,1.422,4.057,3.862,4.057c0.808,0,1.616-0.165,2.141-0.419L545.843,203.505z"/>
	<path d="M553.837,200.138c0,2.679-1.871,3.847-3.607,3.847c-1.946,0-3.474-1.437-3.474-3.727c0-2.41,1.603-3.832,3.593-3.832
		C552.43,196.425,553.837,197.937,553.837,200.138z M548.104,200.212c0,1.586,0.898,2.784,2.186,2.784c1.257,0,2.2-1.183,2.2-2.814
		c0-1.228-0.613-2.77-2.17-2.77C548.777,197.413,548.104,198.85,548.104,200.212z"/>
	<path d="M555.498,198.536c0-0.763-0.015-1.362-0.06-1.961h1.167l0.075,1.198h0.03c0.358-0.674,1.197-1.347,2.395-1.347
		c1.003,0,2.56,0.599,2.56,3.083v4.311h-1.317v-4.176c0-1.167-0.434-2.141-1.676-2.141c-0.854,0-1.527,0.614-1.767,1.347
		c-0.061,0.165-0.09,0.389-0.09,0.614v4.356h-1.317V198.536z"/>
	<path d="M565.272,194.539c0,0.449-0.314,0.809-0.838,0.809c-0.479,0-0.794-0.359-0.794-0.809s0.33-0.823,0.823-0.823
		C564.943,193.716,565.272,194.075,565.272,194.539z M563.806,203.82v-7.245h1.317v7.245H563.806z"/>
	<path d="M572.473,203.565c-0.344,0.165-1.107,0.419-2.08,0.419c-2.186,0-3.608-1.482-3.608-3.697c0-2.23,1.527-3.862,3.893-3.862
		c0.778,0,1.467,0.194,1.826,0.389l-0.3,1.003c-0.314-0.165-0.808-0.344-1.526-0.344c-1.662,0-2.56,1.242-2.56,2.739
		c0,1.676,1.077,2.709,2.515,2.709c0.748,0,1.242-0.18,1.616-0.344L572.473,203.565z"/>
	<path d="M579.104,202.083c0,0.628,0.029,1.242,0.104,1.736h-1.183l-0.104-0.913h-0.045c-0.404,0.569-1.183,1.078-2.216,1.078
		c-1.467,0-2.216-1.033-2.216-2.081c0-1.751,1.558-2.709,4.356-2.694v-0.15c0-0.583-0.165-1.676-1.646-1.662
		c-0.688,0-1.393,0.195-1.901,0.539l-0.299-0.883c0.599-0.374,1.481-0.628,2.395-0.628c2.216,0,2.755,1.512,2.755,2.949V202.083z
		 M577.832,200.123c-1.438-0.03-3.069,0.225-3.069,1.631c0,0.868,0.569,1.258,1.228,1.258c0.958,0,1.572-0.599,1.781-1.213
		c0.045-0.149,0.061-0.299,0.061-0.419V200.123z"/>
	<path d="M581.23,193.192h1.317v10.628h-1.317V193.192z"/>
	<path d="M538.583,220.451c0.404,0.239,1.093,0.509,1.751,0.509c0.943,0,1.393-0.464,1.393-1.077c0-0.629-0.374-0.959-1.332-1.318
		c-1.317-0.479-1.932-1.182-1.932-2.051c0-1.167,0.958-2.125,2.5-2.125c0.733,0,1.377,0.194,1.767,0.449l-0.314,0.958
		c-0.284-0.18-0.809-0.435-1.481-0.435c-0.779,0-1.198,0.449-1.198,0.988c0,0.599,0.419,0.868,1.362,1.242
		c1.242,0.465,1.901,1.093,1.901,2.17c0,1.288-1.003,2.186-2.694,2.186c-0.794,0-1.527-0.209-2.036-0.508L538.583,220.451z"/>
	<path d="M545.424,218.4c0.03,1.781,1.152,2.515,2.484,2.515c0.943,0,1.527-0.165,2.006-0.374l0.24,0.943
		c-0.464,0.209-1.272,0.463-2.425,0.463c-2.23,0-3.563-1.481-3.563-3.667c0-2.185,1.288-3.892,3.398-3.892
		c2.38,0,2.994,2.065,2.994,3.398c0,0.27-0.016,0.463-0.045,0.613H545.424z M549.286,217.457c0.015-0.823-0.345-2.125-1.826-2.125
		c-1.348,0-1.916,1.212-2.021,2.125H549.286z"/>
	<path d="M557.354,221.529c-0.344,0.164-1.107,0.418-2.08,0.418c-2.186,0-3.608-1.481-3.608-3.697c0-2.23,1.527-3.861,3.893-3.861
		c0.778,0,1.467,0.194,1.826,0.389l-0.3,1.004c-0.314-0.165-0.808-0.345-1.526-0.345c-1.662,0-2.56,1.242-2.56,2.739
		c0,1.676,1.077,2.709,2.515,2.709c0.748,0,1.242-0.18,1.616-0.344L557.354,221.529z"/>
	<path d="M560.678,212.802v1.736h1.886v1.003h-1.886v3.907c0,0.897,0.254,1.407,0.987,1.407c0.359,0,0.569-0.03,0.764-0.09
		l0.06,1.002c-0.254,0.09-0.658,0.18-1.167,0.18c-0.614,0-1.107-0.209-1.422-0.553c-0.359-0.404-0.509-1.049-0.509-1.901v-3.952
		h-1.123v-1.003h1.123v-1.347L560.678,212.802z"/>
	<path d="M565.512,212.502c0,0.449-0.314,0.809-0.838,0.809c-0.479,0-0.794-0.359-0.794-0.809s0.33-0.822,0.823-0.822
		C565.183,211.68,565.512,212.039,565.512,212.502z M564.045,221.783v-7.245h1.317v7.245H564.045z"/>
	<path d="M574.104,218.102c0,2.679-1.871,3.846-3.607,3.846c-1.946,0-3.474-1.437-3.474-3.727c0-2.41,1.603-3.832,3.593-3.832
		C572.697,214.389,574.104,215.9,574.104,218.102z M568.371,218.176c0,1.586,0.898,2.784,2.186,2.784c1.257,0,2.2-1.183,2.2-2.813
		c0-1.229-0.613-2.77-2.17-2.77C569.045,215.377,568.371,216.813,568.371,218.176z"/>
	<path d="M575.766,216.499c0-0.763-0.015-1.362-0.06-1.961h1.167l0.075,1.198h0.03c0.358-0.674,1.197-1.348,2.395-1.348
		c1.003,0,2.56,0.599,2.56,3.084v4.311h-1.317v-4.176c0-1.168-0.434-2.141-1.676-2.141c-0.854,0-1.527,0.613-1.767,1.347
		c-0.061,0.165-0.09,0.39-0.09,0.614v4.355h-1.317V216.499z"/>
	<path d="M538.344,239.746v-0.809l1.032-1.002c2.485-2.365,3.623-3.623,3.623-5.09c0-0.988-0.464-1.901-1.916-1.901
		c-0.884,0-1.617,0.449-2.065,0.823l-0.42-0.928c0.659-0.555,1.632-0.988,2.739-0.988c2.096,0,2.979,1.438,2.979,2.829
		c0,1.796-1.303,3.249-3.354,5.224l-0.764,0.719v0.03h4.356v1.093H538.344z"/>
	<path d="M550.139,232.501l0.974,3.683c0.194,0.809,0.389,1.557,0.523,2.305h0.045c0.165-0.732,0.404-1.512,0.644-2.29l1.183-3.697
		h1.108l1.122,3.622c0.27,0.869,0.479,1.633,0.644,2.365h0.045c0.12-0.732,0.314-1.496,0.554-2.35l1.033-3.638h1.303l-2.336,7.245
		h-1.197l-1.107-3.458c-0.255-0.808-0.464-1.526-0.644-2.38h-0.03c-0.18,0.868-0.404,1.617-0.658,2.395l-1.168,3.443h-1.197
		l-2.186-7.245H550.139z"/>
	<path d="M562.099,230.465c0,0.449-0.314,0.809-0.838,0.809c-0.479,0-0.794-0.359-0.794-0.809s0.33-0.822,0.823-0.822
		C561.77,229.643,562.099,230.002,562.099,230.465z M560.632,239.746v-7.245h1.317v7.245H560.632z"/>
	<path d="M565.722,230.765v1.736h1.886v1.003h-1.886v3.907c0,0.897,0.254,1.407,0.987,1.407c0.359,0,0.569-0.03,0.764-0.09
		l0.06,1.002c-0.254,0.09-0.658,0.18-1.167,0.18c-0.614,0-1.107-0.209-1.422-0.553c-0.359-0.404-0.509-1.049-0.509-1.901v-3.952
		h-1.123v-1.003h1.123v-1.347L565.722,230.765z"/>
	<path d="M569.09,229.118h1.317v4.536h0.029c0.21-0.375,0.539-0.719,0.943-0.943c0.39-0.225,0.854-0.359,1.348-0.359
		c0.973,0,2.529,0.599,2.529,3.084v4.311h-1.317v-4.161c0-1.168-0.434-2.141-1.676-2.141c-0.854,0-1.513,0.599-1.767,1.302
		c-0.075,0.195-0.09,0.39-0.09,0.629v4.371h-1.317V229.118z"/>
	<path d="M538.344,257.709V256.9l1.032-1.003c2.485-2.365,3.623-3.622,3.623-5.089c0-0.988-0.464-1.901-1.916-1.901
		c-0.884,0-1.617,0.449-2.065,0.823l-0.42-0.928c0.659-0.555,1.632-0.988,2.739-0.988c2.096,0,2.979,1.438,2.979,2.829
		c0,1.796-1.303,3.248-3.354,5.225l-0.764,0.718v0.03h4.356v1.093H538.344z"/>
	<path d="M549.436,256.377c0.404,0.239,1.093,0.509,1.751,0.509c0.943,0,1.393-0.464,1.393-1.078c0-0.628-0.374-0.958-1.332-1.317
		c-1.317-0.479-1.932-1.182-1.932-2.051c0-1.167,0.958-2.125,2.5-2.125c0.733,0,1.377,0.194,1.767,0.449l-0.314,0.958
		c-0.284-0.18-0.809-0.435-1.481-0.435c-0.779,0-1.198,0.449-1.198,0.988c0,0.599,0.419,0.868,1.362,1.242
		c1.242,0.464,1.901,1.093,1.901,2.171c0,1.287-1.003,2.186-2.694,2.186c-0.794,0-1.527-0.21-2.036-0.51L549.436,256.377z"/>
	<path d="M556.276,254.326c0.03,1.781,1.152,2.515,2.485,2.515c0.942,0,1.526-0.165,2.005-0.374l0.24,0.942
		c-0.464,0.21-1.272,0.465-2.425,0.465c-2.23,0-3.563-1.482-3.563-3.668s1.288-3.892,3.398-3.892c2.38,0,2.994,2.065,2.994,3.397
		c0,0.27-0.016,0.465-0.045,0.614H556.276z M560.139,253.383c0.015-0.823-0.345-2.125-1.826-2.125c-1.348,0-1.916,1.212-2.021,2.125
		H560.139z"/>
	<path d="M569.239,256.646c0,1.676-0.345,2.679-1.033,3.323c-0.719,0.644-1.736,0.868-2.649,0.868c-0.868,0-1.826-0.21-2.41-0.6
		l0.329-1.018c0.479,0.314,1.228,0.584,2.126,0.584c1.348,0,2.335-0.703,2.335-2.545v-0.793h-0.029
		c-0.39,0.674-1.183,1.212-2.306,1.212c-1.796,0-3.084-1.526-3.084-3.532c0-2.455,1.603-3.832,3.278-3.832
		c1.258,0,1.932,0.644,2.261,1.242h0.03l0.045-1.093h1.167c-0.045,0.509-0.06,1.107-0.06,1.976V256.646z M567.922,253.323
		c0-0.225-0.015-0.419-0.075-0.584c-0.239-0.778-0.868-1.407-1.841-1.407c-1.258,0-2.155,1.063-2.155,2.739
		c0,1.422,0.733,2.604,2.141,2.604c0.823,0,1.557-0.509,1.826-1.347c0.074-0.225,0.104-0.479,0.104-0.704V253.323z"/>
	<path d="M571.32,252.425c0-0.764-0.03-1.362-0.06-1.961h1.152l0.06,1.183h0.045c0.404-0.688,1.078-1.332,2.29-1.332
		c0.974,0,1.722,0.599,2.036,1.452h0.03c0.225-0.419,0.523-0.719,0.823-0.943c0.434-0.329,0.897-0.509,1.587-0.509
		c0.973,0,2.395,0.629,2.395,3.144v4.251h-1.287v-4.087c0-1.406-0.524-2.229-1.572-2.229c-0.763,0-1.332,0.554-1.571,1.182
		c-0.06,0.195-0.104,0.42-0.104,0.659v4.476h-1.288v-4.341c0-1.152-0.509-1.976-1.512-1.976c-0.808,0-1.422,0.658-1.632,1.316
		c-0.074,0.18-0.104,0.42-0.104,0.645v4.355h-1.287V252.425z"/>
	<path d="M584.538,254.326c0.03,1.781,1.152,2.515,2.485,2.515c0.942,0,1.526-0.165,2.005-0.374l0.24,0.942
		c-0.464,0.21-1.272,0.465-2.425,0.465c-2.23,0-3.563-1.482-3.563-3.668s1.288-3.892,3.398-3.892c2.38,0,2.994,2.065,2.994,3.397
		c0,0.27-0.016,0.465-0.045,0.614H584.538z M588.4,253.383c0.015-0.823-0.345-2.125-1.826-2.125c-1.348,0-1.916,1.212-2.021,2.125
		H588.4z"/>
	<path d="M591.304,252.425c0-0.764-0.015-1.362-0.06-1.961h1.167l0.075,1.197h0.03c0.358-0.673,1.197-1.347,2.395-1.347
		c1.003,0,2.56,0.599,2.56,3.084v4.311h-1.317v-4.177c0-1.167-0.434-2.14-1.676-2.14c-0.854,0-1.527,0.613-1.767,1.347
		c-0.061,0.165-0.09,0.39-0.09,0.614v4.355h-1.317V252.425z"/>
	<path d="M601.139,248.728v1.736h1.886v1.003h-1.886v3.907c0,0.897,0.254,1.407,0.987,1.407c0.359,0,0.569-0.03,0.764-0.09
		l0.06,1.003c-0.254,0.09-0.658,0.18-1.167,0.18c-0.614,0-1.107-0.21-1.422-0.555c-0.359-0.403-0.509-1.048-0.509-1.9v-3.952h-1.123
		v-1.003h1.123v-1.347L601.139,248.728z"/>
	<path d="M604.327,256.377c0.404,0.239,1.093,0.509,1.751,0.509c0.943,0,1.393-0.464,1.393-1.078c0-0.628-0.374-0.958-1.332-1.317
		c-1.317-0.479-1.932-1.182-1.932-2.051c0-1.167,0.958-2.125,2.5-2.125c0.733,0,1.377,0.194,1.767,0.449l-0.314,0.958
		c-0.284-0.18-0.809-0.435-1.481-0.435c-0.779,0-1.198,0.449-1.198,0.988c0,0.599,0.419,0.868,1.362,1.242
		c1.242,0.464,1.901,1.093,1.901,2.171c0,1.287-1.003,2.186-2.694,2.186c-0.794,0-1.527-0.21-2.036-0.51L604.327,256.377z"/>
</g>
<g>
	
		<polygon fill-rule="evenodd" clip-rule="evenodd" fill="none" stroke="#000000" stroke-linejoin="round" stroke-miterlimit="10" points="
		360.862,9.157 359.248,7.717 357.691,6.564 356.021,5.7 354.349,5.182 352.62,4.893 350.775,4.95 348.874,5.182 346.799,5.7 
		345.703,6.161 344.666,6.795 343.63,7.601 342.591,8.523 340.459,10.713 338.384,13.135 336.193,15.439 335.041,16.535 
		333.888,17.515 332.678,18.379 331.468,19.071 330.199,19.589 328.874,19.878 327.549,19.993 326.165,19.936 324.84,19.821 
		323.456,19.589 322.13,19.244 320.747,18.783 319.421,18.207 318.096,17.573 316.771,16.88 315.502,16.074 312.909,14.172 
		310.372,11.981 307.953,9.561 307.953,98.781 218.328,179.357 193.544,309.729 475.27,309.729 450.486,178.088 360.862,97.917 	"/>
</g>
<path fill-rule="evenodd" clip-rule="evenodd" fill="#C7C9CB" stroke="#000000" stroke-linejoin="round" stroke-miterlimit="10" d="
	M334.406,16.419c-3.4,3.459-5.994,4.728-9.798,4.266c-3.861-0.404-9.913-4.785-16.655-11.125c5.531-4.265,10.892-4.553,15.389-3.4
	C327.779,7.313,331.871,14.518,334.406,16.419C336.885,18.264,334.406,16.419,334.406,16.419L334.406,16.419L334.406,16.419"/>
<g>
	
		<polyline fill-rule="evenodd" clip-rule="evenodd" fill="none" stroke="#000000" stroke-linecap="round" stroke-linejoin="round" stroke-miterlimit="10" stroke-dasharray="16,8" points="
		198.271,309.729 198.271,244.14 471.005,244.14 	"/>
</g>
<g>
	
		<line fill-rule="evenodd" clip-rule="evenodd" fill="none" stroke="#000000" stroke-linecap="round" stroke-linejoin="round" stroke-miterlimit="10" stroke-dasharray="16,8" x1="471.005" y1="309.729" x2="198.271" y2="309.729"/>
</g>
<g>
	
		<polyline fill-rule="evenodd" clip-rule="evenodd" fill="none" stroke="#000000" stroke-linecap="round" stroke-linejoin="round" stroke-miterlimit="10" stroke-dasharray="16,8" points="
		213.198,243.678 213.198,178.953 456.94,178.953 	"/>
</g>
<g>
	
		<line fill-rule="evenodd" clip-rule="evenodd" fill="none" stroke="#000000" stroke-linecap="round" stroke-linejoin="round" stroke-miterlimit="10" stroke-dasharray="16,8" x1="456.94" y1="243.678" x2="213.198" y2="243.678"/>
</g>
<g>
	
		<polyline fill-rule="evenodd" clip-rule="evenodd" fill="none" stroke="#000000" stroke-linecap="round" stroke-linejoin="round" stroke-miterlimit="10" stroke-dasharray="16,8" points="
		232.852,178.088 232.852,151.922 437.69,151.922 	"/>
</g>
<g>
	
		<line fill-rule="evenodd" clip-rule="evenodd" fill="none" stroke="#000000" stroke-linecap="round" stroke-linejoin="round" stroke-miterlimit="10" stroke-dasharray="16,8" x1="437.69" y1="178.088" x2="232.852" y2="178.088"/>
</g>
<g>
	
		<polyline fill-rule="evenodd" clip-rule="evenodd" fill="none" stroke="#000000" stroke-linecap="round" stroke-linejoin="round" stroke-miterlimit="10" stroke-dasharray="16,8" points="
		259.711,151.518 259.711,125.352 409.968,125.352 	"/>
</g>
<g>
	
		<line fill-rule="evenodd" clip-rule="evenodd" fill="none" stroke="#000000" stroke-linecap="round" stroke-linejoin="round" stroke-miterlimit="10" stroke-dasharray="16,8" x1="409.968" y1="151.518" x2="259.711" y2="151.518"/>
</g>
<g>
	
		<polyline fill-rule="evenodd" clip-rule="evenodd" fill="none" stroke="#000000" stroke-linecap="round" stroke-linejoin="round" stroke-miterlimit="10" stroke-dasharray="16,8" points="
		285.301,124.891 285.301,98.321 385.186,98.321 	"/>
</g>
<g>
	
		<line fill-rule="evenodd" clip-rule="evenodd" fill="none" stroke="#000000" stroke-linecap="round" stroke-linejoin="round" stroke-miterlimit="10" stroke-dasharray="16,8" x1="385.186" y1="124.891" x2="285.301" y2="124.891"/>
</g>
<g>
	
		<path fill-rule="evenodd" clip-rule="evenodd" fill="none" stroke="#000000" stroke-linecap="round" stroke-linejoin="round" stroke-miterlimit="10" d="
		M340.344,96.411c-0.01-4.125-5.146-6.696-9.257-4.63c-4.106,2.071-4.097,7.23,0.017,9.287
		C335.221,103.118,340.35,100.531,340.344,96.411z"/>
</g>
<g>
	
		<polyline fill-rule="evenodd" clip-rule="evenodd" fill="none" stroke="#000000" stroke-linecap="round" stroke-linejoin="round" stroke-miterlimit="10" points="
		339.939,92.729 341.495,86.967 343.455,82.816 345.646,79.82 347.778,77.802 350.257,76.245 353.542,75.093 356.424,74.632 
		359.535,74.978 363.11,75.958 371.006,79.128 382.015,83.97 386.626,85.525 388.642,85.871 391.466,85.756 394.348,84.949 
		396.769,83.624 400.169,80.741 402.591,78.609 403.743,78.033 402.705,78.609 	"/>
</g>
<g>
	<path d="M391.345,348.027c0.584,0.374,1.423,0.659,2.32,0.659c1.332,0,2.11-0.704,2.11-1.722c0-0.928-0.538-1.482-1.9-1.991
		c-1.646-0.599-2.665-1.467-2.665-2.874c0-1.571,1.303-2.739,3.264-2.739c1.018,0,1.781,0.239,2.215,0.494l-0.358,1.063
		c-0.314-0.194-0.988-0.479-1.901-0.479c-1.377,0-1.901,0.823-1.901,1.512c0,0.943,0.614,1.407,2.006,1.946
		c1.707,0.658,2.56,1.481,2.56,2.964c0,1.557-1.138,2.919-3.518,2.919c-0.973,0-2.035-0.3-2.574-0.659L391.345,348.027z"/>
	<path d="M404.907,347.623c0,0.764,0.015,1.423,0.06,1.991H403.8l-0.075-1.183h-0.03c-0.329,0.584-1.107,1.348-2.395,1.348
		c-1.138,0-2.5-0.645-2.5-3.174v-4.236h1.317v3.997c0,1.377,0.434,2.32,1.616,2.32c0.884,0,1.497-0.614,1.736-1.213
		c0.075-0.18,0.12-0.419,0.12-0.674v-4.431h1.317V347.623z"/>
	<path d="M407.093,344.734c0-0.928-0.03-1.677-0.06-2.365h1.167l0.075,1.242h0.03c0.523-0.883,1.392-1.392,2.574-1.392
		c1.767,0,3.084,1.481,3.084,3.667c0,2.604-1.603,3.893-3.309,3.893c-0.958,0-1.796-0.42-2.23-1.138h-0.03v3.937h-1.302V344.734z
		 M408.395,346.665c0,0.195,0.016,0.375,0.061,0.539c0.239,0.913,1.032,1.542,1.976,1.542c1.393,0,2.2-1.138,2.2-2.799
		c0-1.438-0.763-2.68-2.155-2.68c-0.898,0-1.751,0.629-1.991,1.616c-0.045,0.165-0.09,0.359-0.09,0.524V346.665z"/>
	<path d="M416.344,346.231c0.03,1.781,1.152,2.515,2.484,2.515c0.943,0,1.527-0.165,2.006-0.374l0.24,0.942
		c-0.464,0.21-1.272,0.465-2.425,0.465c-2.23,0-3.563-1.482-3.563-3.668s1.288-3.892,3.398-3.892c2.38,0,2.994,2.065,2.994,3.397
		c0,0.27-0.016,0.465-0.045,0.614H416.344z M420.206,345.288c0.015-0.823-0.345-2.125-1.826-2.125c-1.348,0-1.916,1.212-2.021,2.125
		H420.206z"/>
	<path d="M423.109,344.63c0-0.854-0.015-1.587-0.06-2.261h1.152l0.06,1.438h0.045c0.329-0.974,1.138-1.587,2.021-1.587
		c0.134,0,0.239,0.015,0.358,0.03v1.242c-0.135-0.03-0.27-0.03-0.448-0.03c-0.929,0-1.587,0.688-1.767,1.677
		c-0.03,0.18-0.045,0.404-0.045,0.613v3.862h-1.317V344.63z"/>
	<path d="M428.063,344.33c0-0.764-0.015-1.362-0.06-1.961h1.167l0.075,1.197h0.03c0.358-0.673,1.197-1.347,2.395-1.347
		c1.003,0,2.56,0.599,2.56,3.083v4.312h-1.317v-4.177c0-1.167-0.434-2.14-1.676-2.14c-0.854,0-1.527,0.613-1.767,1.347
		c-0.061,0.165-0.09,0.39-0.09,0.614v4.355h-1.317V344.33z"/>
	<path d="M442.928,345.932c0,2.68-1.871,3.848-3.607,3.848c-1.946,0-3.474-1.438-3.474-3.728c0-2.41,1.603-3.832,3.593-3.832
		C441.521,342.22,442.928,343.731,442.928,345.932z M437.194,346.007c0,1.587,0.898,2.784,2.186,2.784c1.257,0,2.2-1.183,2.2-2.814
		c0-1.228-0.613-2.769-2.17-2.769C437.868,343.208,437.194,344.645,437.194,346.007z"/>
	<path d="M450.831,338.986v8.757c0,0.644,0.029,1.377,0.06,1.871h-1.168l-0.06-1.258h-0.045c-0.389,0.809-1.257,1.423-2.439,1.423
		c-1.752,0-3.114-1.482-3.114-3.683c-0.015-2.41,1.497-3.877,3.249-3.877c1.122,0,1.855,0.523,2.186,1.093h0.029v-4.326H450.831z
		 M449.528,345.318c0-0.165-0.015-0.39-0.06-0.554c-0.194-0.823-0.913-1.512-1.901-1.512c-1.362,0-2.17,1.197-2.17,2.784
		c0,1.467,0.733,2.679,2.141,2.679c0.883,0,1.691-0.599,1.931-1.571c0.045-0.18,0.06-0.359,0.06-0.569V345.318z"/>
	<path d="M453.765,346.231c0.03,1.781,1.152,2.515,2.485,2.515c0.942,0,1.526-0.165,2.005-0.374l0.24,0.942
		c-0.464,0.21-1.272,0.465-2.425,0.465c-2.23,0-3.563-1.482-3.563-3.668s1.288-3.892,3.398-3.892c2.38,0,2.994,2.065,2.994,3.397
		c0,0.27-0.016,0.465-0.045,0.614H453.765z M457.627,345.288c0.015-0.823-0.345-2.125-1.826-2.125c-1.348,0-1.916,1.212-2.021,2.125
		H457.627z"/>
</g>
<g>
	
		<path fill-rule="evenodd" clip-rule="evenodd" fill="none" stroke="#000000" stroke-linecap="round" stroke-linejoin="round" stroke-miterlimit="10" d="
		M341.208,309.952c-0.01-4.126-5.146-6.697-9.257-4.631c-4.107,2.07-4.097,7.231,0.018,9.287
		C336.086,316.66,341.214,314.071,341.208,309.952z"/>
</g>
<g>
	
		<polyline fill-rule="evenodd" clip-rule="evenodd" fill="none" stroke="#000000" stroke-linecap="round" stroke-linejoin="round" stroke-miterlimit="10" points="
		339.594,316.588 341.957,321.142 345.127,325.349 348.297,328.23 351.408,330.133 355.328,331.517 358.499,332.034 
		361.093,331.919 365.876,330.708 373.426,327.481 385.242,321.891 389.507,320.565 391.754,320.393 394.292,320.854 
		396.825,322.12 399.362,324.368 403.513,329.383 405.242,330.535 403.628,329.44 	"/>
</g>
<g>
	
		<line fill-rule="evenodd" clip-rule="evenodd" fill="none" stroke="#000000" stroke-linecap="round" stroke-linejoin="round" stroke-miterlimit="10" x1="521.378" y1="97.456" x2="521.378" y2="179.357"/>
</g>
<g>
	
		<polyline fill-rule="evenodd" clip-rule="evenodd" stroke="#000000" stroke-linecap="round" stroke-linejoin="round" stroke-miterlimit="10" points="
		524.778,104.257 521.378,97.456 517.978,104.257 524.778,104.257 	"/>
</g>
<g>
	
		<polyline fill-rule="evenodd" clip-rule="evenodd" stroke="#000000" stroke-linecap="round" stroke-linejoin="round" stroke-miterlimit="10" points="
		524.778,172.555 521.378,179.357 517.978,172.555 524.778,172.555 	"/>
</g>
<g>
	
		<line fill-rule="evenodd" clip-rule="evenodd" fill="none" stroke="#000000" stroke-linecap="round" stroke-linejoin="round" stroke-miterlimit="10" x1="520.918" y1="309.325" x2="520.918" y2="179.818"/>
</g>
<g>
	
		<polyline fill-rule="evenodd" clip-rule="evenodd" stroke="#000000" stroke-linecap="round" stroke-linejoin="round" stroke-miterlimit="10" points="
		517.574,302.468 520.918,309.325 524.317,302.468 517.574,302.468 	"/>
</g>
<g>
	
		<polyline fill-rule="evenodd" clip-rule="evenodd" stroke="#000000" stroke-linecap="round" stroke-linejoin="round" stroke-miterlimit="10" points="
		517.574,186.618 520.918,179.818 524.317,186.618 517.574,186.618 	"/>
</g>
<g>
	<path d="M545.843,116.505c-0.464,0.24-1.437,0.479-2.664,0.479c-2.845,0-4.97-1.796-4.97-5.119c0-3.173,2.141-5.299,5.269-5.299
		c1.243,0,2.051,0.27,2.396,0.449l-0.329,1.063c-0.479-0.24-1.183-0.419-2.021-0.419c-2.365,0-3.937,1.512-3.937,4.162
		c0,2.485,1.422,4.057,3.862,4.057c0.808,0,1.616-0.165,2.141-0.419L545.843,116.505z"/>
	<path d="M553.837,113.138c0,2.679-1.871,3.847-3.607,3.847c-1.946,0-3.474-1.437-3.474-3.727c0-2.41,1.603-3.832,3.593-3.832
		C552.43,109.425,553.837,110.937,553.837,113.138z M548.104,113.212c0,1.586,0.898,2.784,2.186,2.784c1.257,0,2.2-1.183,2.2-2.814
		c0-1.228-0.613-2.77-2.17-2.77C548.777,110.413,548.104,111.85,548.104,113.212z"/>
	<path d="M555.498,111.536c0-0.763-0.015-1.362-0.06-1.961h1.167l0.075,1.198h0.03c0.358-0.674,1.197-1.347,2.395-1.347
		c1.003,0,2.56,0.599,2.56,3.083v4.311h-1.317v-4.176c0-1.167-0.434-2.141-1.676-2.141c-0.854,0-1.527,0.614-1.767,1.347
		c-0.061,0.165-0.09,0.389-0.09,0.614v4.356h-1.317V111.536z"/>
	<path d="M565.272,107.539c0,0.449-0.314,0.809-0.838,0.809c-0.479,0-0.794-0.359-0.794-0.809s0.33-0.823,0.823-0.823
		C564.943,106.716,565.272,107.075,565.272,107.539z M563.806,116.82v-7.245h1.317v7.245H563.806z"/>
	<path d="M572.473,116.565c-0.344,0.165-1.107,0.419-2.08,0.419c-2.186,0-3.608-1.482-3.608-3.697c0-2.23,1.527-3.862,3.893-3.862
		c0.778,0,1.467,0.194,1.826,0.389l-0.3,1.003c-0.314-0.165-0.808-0.344-1.526-0.344c-1.662,0-2.56,1.242-2.56,2.739
		c0,1.676,1.077,2.709,2.515,2.709c0.748,0,1.242-0.18,1.616-0.344L572.473,116.565z"/>
	<path d="M579.104,115.083c0,0.628,0.029,1.242,0.104,1.736h-1.183l-0.104-0.913h-0.045c-0.404,0.569-1.183,1.078-2.216,1.078
		c-1.467,0-2.216-1.033-2.216-2.081c0-1.751,1.558-2.709,4.356-2.694v-0.15c0-0.583-0.165-1.676-1.646-1.662
		c-0.688,0-1.393,0.195-1.901,0.539l-0.299-0.883c0.599-0.374,1.481-0.628,2.395-0.628c2.216,0,2.755,1.512,2.755,2.949V115.083z
		 M577.832,113.123c-1.438-0.03-3.069,0.225-3.069,1.631c0,0.868,0.569,1.258,1.228,1.258c0.958,0,1.572-0.599,1.781-1.213
		c0.045-0.149,0.061-0.299,0.061-0.419V113.123z"/>
	<path d="M581.23,106.192h1.317v10.628h-1.317V106.192z"/>
	<path d="M538.583,133.451c0.404,0.239,1.093,0.509,1.751,0.509c0.943,0,1.393-0.464,1.393-1.078c0-0.629-0.374-0.958-1.332-1.317
		c-1.317-0.479-1.932-1.183-1.932-2.051c0-1.167,0.958-2.125,2.5-2.125c0.733,0,1.377,0.194,1.767,0.449l-0.314,0.958
		c-0.284-0.18-0.809-0.435-1.481-0.435c-0.779,0-1.198,0.449-1.198,0.988c0,0.599,0.419,0.868,1.362,1.242
		c1.242,0.464,1.901,1.093,1.901,2.17c0,1.288-1.003,2.186-2.694,2.186c-0.794,0-1.527-0.209-2.036-0.509L538.583,133.451z"/>
	<path d="M545.424,131.4c0.03,1.781,1.152,2.515,2.484,2.515c0.943,0,1.527-0.165,2.006-0.374l0.24,0.943
		c-0.464,0.209-1.272,0.464-2.425,0.464c-2.23,0-3.563-1.482-3.563-3.667c0-2.185,1.288-3.892,3.398-3.892
		c2.38,0,2.994,2.065,2.994,3.398c0,0.27-0.016,0.464-0.045,0.614H545.424z M549.286,130.457c0.015-0.823-0.345-2.125-1.826-2.125
		c-1.348,0-1.916,1.212-2.021,2.125H549.286z"/>
	<path d="M557.354,134.529c-0.344,0.165-1.107,0.419-2.08,0.419c-2.186,0-3.608-1.482-3.608-3.697c0-2.23,1.527-3.862,3.893-3.862
		c0.778,0,1.467,0.194,1.826,0.389l-0.3,1.003c-0.314-0.165-0.808-0.344-1.526-0.344c-1.662,0-2.56,1.242-2.56,2.739
		c0,1.676,1.077,2.709,2.515,2.709c0.748,0,1.242-0.18,1.616-0.344L557.354,134.529z"/>
	<path d="M560.678,125.802v1.736h1.886v1.003h-1.886v3.907c0,0.898,0.254,1.407,0.987,1.407c0.359,0,0.569-0.03,0.764-0.09
		l0.06,1.003c-0.254,0.09-0.658,0.18-1.167,0.18c-0.614,0-1.107-0.209-1.422-0.554c-0.359-0.404-0.509-1.048-0.509-1.901v-3.952
		h-1.123v-1.003h1.123v-1.347L560.678,125.802z"/>
	<path d="M565.512,125.502c0,0.449-0.314,0.809-0.838,0.809c-0.479,0-0.794-0.359-0.794-0.809s0.33-0.823,0.823-0.823
		C565.183,124.679,565.512,125.039,565.512,125.502z M564.045,134.783v-7.245h1.317v7.245H564.045z"/>
	<path d="M574.104,131.101c0,2.679-1.871,3.847-3.607,3.847c-1.946,0-3.474-1.437-3.474-3.727c0-2.41,1.603-3.832,3.593-3.832
		C572.697,127.389,574.104,128.9,574.104,131.101z M568.371,131.176c0,1.586,0.898,2.784,2.186,2.784c1.257,0,2.2-1.183,2.2-2.814
		c0-1.228-0.613-2.77-2.17-2.77C569.045,128.376,568.371,129.813,568.371,131.176z"/>
	<path d="M575.766,129.499c0-0.763-0.015-1.362-0.06-1.961h1.167l0.075,1.198h0.03c0.358-0.674,1.197-1.347,2.395-1.347
		c1.003,0,2.56,0.599,2.56,3.083v4.311h-1.317v-4.176c0-1.167-0.434-2.141-1.676-2.141c-0.854,0-1.527,0.614-1.767,1.347
		c-0.061,0.165-0.09,0.389-0.09,0.614v4.356h-1.317V129.499z"/>
	<path d="M541.202,144.244h-0.029l-1.691,0.913l-0.255-1.003l2.126-1.138h1.122v9.73h-1.272V144.244z"/>
	<path d="M550.139,145.501l0.974,3.683c0.194,0.808,0.389,1.557,0.523,2.305h0.045c0.165-0.733,0.404-1.512,0.644-2.291l1.183-3.697
		h1.108l1.122,3.623c0.27,0.868,0.479,1.632,0.644,2.365h0.045c0.12-0.733,0.314-1.497,0.554-2.35l1.033-3.638h1.303l-2.336,7.245
		h-1.197l-1.107-3.458c-0.255-0.808-0.464-1.527-0.644-2.38h-0.03c-0.18,0.868-0.404,1.617-0.658,2.395l-1.168,3.443h-1.197
		l-2.186-7.245H550.139z"/>
	<path d="M562.099,143.465c0,0.449-0.314,0.809-0.838,0.809c-0.479,0-0.794-0.359-0.794-0.809s0.33-0.823,0.823-0.823
		C561.77,142.642,562.099,143.001,562.099,143.465z M560.632,152.746v-7.245h1.317v7.245H560.632z"/>
	<path d="M565.722,143.765v1.736h1.886v1.003h-1.886v3.907c0,0.898,0.254,1.407,0.987,1.407c0.359,0,0.569-0.03,0.764-0.09
		l0.06,1.003c-0.254,0.09-0.658,0.18-1.167,0.18c-0.614,0-1.107-0.209-1.422-0.554c-0.359-0.404-0.509-1.048-0.509-1.901v-3.952
		h-1.123v-1.003h1.123v-1.347L565.722,143.765z"/>
	<path d="M569.09,142.118h1.317v4.536h0.029c0.21-0.375,0.539-0.719,0.943-0.943c0.39-0.225,0.854-0.359,1.348-0.359
		c0.973,0,2.529,0.599,2.529,3.083v4.311h-1.317v-4.161c0-1.168-0.434-2.141-1.676-2.141c-0.854,0-1.513,0.599-1.767,1.302
		c-0.075,0.194-0.09,0.389-0.09,0.628v4.371h-1.317V142.118z"/>
	<path d="M538.658,169.212c0.374,0.225,1.228,0.599,2.155,0.599c1.677,0,2.215-1.063,2.2-1.886
		c-0.015-1.362-1.242-1.946-2.515-1.946h-0.733v-0.987h0.733c0.958,0,2.171-0.494,2.171-1.647c0-0.778-0.494-1.467-1.707-1.467
		c-0.778,0-1.526,0.344-1.945,0.644l-0.359-0.958c0.523-0.374,1.512-0.749,2.56-0.749c1.916,0,2.784,1.138,2.784,2.32
		c0,1.018-0.614,1.871-1.797,2.305v0.03c1.198,0.225,2.156,1.123,2.171,2.485c0,1.557-1.228,2.919-3.548,2.919
		c-1.093,0-2.051-0.345-2.529-0.659L538.658,169.212z"/>
	<path d="M549.436,169.377c0.404,0.239,1.093,0.509,1.751,0.509c0.943,0,1.393-0.464,1.393-1.078c0-0.628-0.374-0.958-1.332-1.317
		c-1.317-0.479-1.932-1.182-1.932-2.051c0-1.167,0.958-2.125,2.5-2.125c0.733,0,1.377,0.194,1.767,0.449l-0.314,0.958
		c-0.284-0.18-0.809-0.435-1.481-0.435c-0.779,0-1.198,0.449-1.198,0.988c0,0.599,0.419,0.868,1.362,1.242
		c1.242,0.464,1.901,1.093,1.901,2.171c0,1.287-1.003,2.186-2.694,2.186c-0.794,0-1.527-0.21-2.036-0.51L549.436,169.377z"/>
	<path d="M556.276,167.326c0.03,1.781,1.152,2.515,2.485,2.515c0.942,0,1.526-0.165,2.005-0.374l0.24,0.942
		c-0.464,0.21-1.272,0.465-2.425,0.465c-2.23,0-3.563-1.482-3.563-3.668s1.288-3.892,3.398-3.892c2.38,0,2.994,2.065,2.994,3.397
		c0,0.27-0.016,0.465-0.045,0.614H556.276z M560.139,166.383c0.015-0.823-0.345-2.125-1.826-2.125c-1.348,0-1.916,1.212-2.021,2.125
		H560.139z"/>
	<path d="M569.239,169.646c0,1.676-0.345,2.679-1.033,3.323c-0.719,0.644-1.736,0.868-2.649,0.868c-0.868,0-1.826-0.21-2.41-0.6
		l0.329-1.018c0.479,0.314,1.228,0.584,2.126,0.584c1.348,0,2.335-0.703,2.335-2.545v-0.793h-0.029
		c-0.39,0.674-1.183,1.212-2.306,1.212c-1.796,0-3.084-1.526-3.084-3.532c0-2.455,1.603-3.832,3.278-3.832
		c1.258,0,1.932,0.644,2.261,1.242h0.03l0.045-1.093h1.167c-0.045,0.509-0.06,1.107-0.06,1.976V169.646z M567.922,166.323
		c0-0.225-0.015-0.419-0.075-0.584c-0.239-0.778-0.868-1.407-1.841-1.407c-1.258,0-2.155,1.063-2.155,2.739
		c0,1.422,0.733,2.604,2.141,2.604c0.823,0,1.557-0.509,1.826-1.347c0.074-0.225,0.104-0.479,0.104-0.704V166.323z"/>
	<path d="M571.32,165.425c0-0.764-0.03-1.362-0.06-1.961h1.152l0.06,1.183h0.045c0.404-0.688,1.078-1.332,2.29-1.332
		c0.974,0,1.722,0.599,2.036,1.452h0.03c0.225-0.419,0.523-0.719,0.823-0.943c0.434-0.329,0.897-0.509,1.587-0.509
		c0.973,0,2.395,0.628,2.395,3.144v4.251h-1.287v-4.087c0-1.406-0.524-2.23-1.572-2.23c-0.763,0-1.332,0.554-1.571,1.182
		c-0.06,0.195-0.104,0.42-0.104,0.659v4.476h-1.288v-4.341c0-1.152-0.509-1.976-1.512-1.976c-0.808,0-1.422,0.659-1.632,1.317
		c-0.074,0.18-0.104,0.42-0.104,0.645v4.355h-1.287V165.425z"/>
	<path d="M584.538,167.326c0.03,1.781,1.152,2.515,2.485,2.515c0.942,0,1.526-0.165,2.005-0.374l0.24,0.942
		c-0.464,0.21-1.272,0.465-2.425,0.465c-2.23,0-3.563-1.482-3.563-3.668s1.288-3.892,3.398-3.892c2.38,0,2.994,2.065,2.994,3.397
		c0,0.27-0.016,0.465-0.045,0.614H584.538z M588.4,166.383c0.015-0.823-0.345-2.125-1.826-2.125c-1.348,0-1.916,1.212-2.021,2.125
		H588.4z"/>
	<path d="M591.304,165.425c0-0.764-0.015-1.362-0.06-1.961h1.167l0.075,1.197h0.03c0.358-0.673,1.197-1.347,2.395-1.347
		c1.003,0,2.56,0.599,2.56,3.084v4.311h-1.317v-4.177c0-1.167-0.434-2.14-1.676-2.14c-0.854,0-1.527,0.614-1.767,1.347
		c-0.061,0.165-0.09,0.39-0.09,0.614v4.355h-1.317V165.425z"/>
	<path d="M601.139,161.728v1.736h1.886v1.003h-1.886v3.907c0,0.897,0.254,1.407,0.987,1.407c0.359,0,0.569-0.03,0.764-0.09
		l0.06,1.003c-0.254,0.09-0.658,0.18-1.167,0.18c-0.614,0-1.107-0.21-1.422-0.555c-0.359-0.403-0.509-1.048-0.509-1.9v-3.952h-1.123
		v-1.003h1.123v-1.347L601.139,161.728z"/>
	<path d="M604.327,169.377c0.404,0.239,1.093,0.509,1.751,0.509c0.943,0,1.393-0.464,1.393-1.078c0-0.628-0.374-0.958-1.332-1.317
		c-1.317-0.479-1.932-1.182-1.932-2.051c0-1.167,0.958-2.125,2.5-2.125c0.733,0,1.377,0.194,1.767,0.449l-0.314,0.958
		c-0.284-0.18-0.809-0.435-1.481-0.435c-0.779,0-1.198,0.449-1.198,0.988c0,0.599,0.419,0.868,1.362,1.242
		c1.242,0.464,1.901,1.093,1.901,2.171c0,1.287-1.003,2.186-2.694,2.186c-0.794,0-1.527-0.21-2.036-0.51L604.327,169.377z"/>
</g>
<g>
	<path d="M524.49,35.739h-3.068v-1.107h7.469v1.107h-3.083v8.981h-1.317V35.739z"/>
	<path d="M529.894,37.475l0.974,3.683c0.194,0.808,0.389,1.557,0.523,2.305h0.045c0.165-0.733,0.404-1.512,0.644-2.291l1.183-3.697
		h1.108l1.122,3.623c0.27,0.868,0.479,1.632,0.644,2.365h0.045c0.12-0.733,0.314-1.497,0.554-2.35l1.033-3.638h1.303l-2.336,7.245
		h-1.197l-1.107-3.458c-0.255-0.808-0.464-1.527-0.644-2.38h-0.03c-0.18,0.868-0.404,1.617-0.658,2.395l-1.168,3.443h-1.197
		l-2.186-7.245H529.894z"/>
	<path d="M546.795,41.038c0,2.679-1.871,3.847-3.607,3.847c-1.946,0-3.474-1.437-3.474-3.727c0-2.41,1.603-3.832,3.593-3.832
		C545.388,37.326,546.795,38.837,546.795,41.038z M541.062,41.113c0,1.586,0.898,2.784,2.186,2.784c1.257,0,2.2-1.183,2.2-2.814
		c0-1.228-0.613-2.77-2.17-2.77C541.735,38.313,541.062,39.75,541.062,41.113z"/>
	<path d="M556.793,44.466c-0.344,0.165-1.107,0.419-2.08,0.419c-2.186,0-3.608-1.482-3.608-3.697c0-2.23,1.527-3.862,3.893-3.862
		c0.778,0,1.467,0.194,1.826,0.389l-0.3,1.003c-0.314-0.165-0.808-0.344-1.526-0.344c-1.662,0-2.56,1.242-2.56,2.739
		c0,1.676,1.077,2.709,2.515,2.709c0.748,0,1.242-0.18,1.616-0.344L556.793,44.466z"/>
	<path d="M564.803,41.038c0,2.679-1.871,3.847-3.607,3.847c-1.946,0-3.474-1.437-3.474-3.727c0-2.41,1.603-3.832,3.593-3.832
		C563.396,37.326,564.803,38.837,564.803,41.038z M559.069,41.113c0,1.586,0.898,2.784,2.186,2.784c1.257,0,2.2-1.183,2.2-2.814
		c0-1.228-0.613-2.77-2.17-2.77C559.743,38.313,559.069,39.75,559.069,41.113z"/>
	<path d="M566.464,39.436c0-0.763-0.015-1.362-0.06-1.961h1.167l0.075,1.198h0.03c0.358-0.674,1.197-1.347,2.395-1.347
		c1.003,0,2.56,0.599,2.56,3.083v4.311h-1.317v-4.176c0-1.167-0.434-2.141-1.676-2.141c-0.854,0-1.527,0.614-1.767,1.347
		c-0.061,0.165-0.09,0.389-0.09,0.614v4.356h-1.317V39.436z"/>
	<path d="M576.238,35.439c0,0.449-0.314,0.809-0.838,0.809c-0.479,0-0.794-0.359-0.794-0.809s0.33-0.823,0.823-0.823
		C575.909,34.616,576.238,34.976,576.238,35.439z M574.771,44.72v-7.245h1.317v7.245H574.771z"/>
	<path d="M583.438,44.466c-0.344,0.165-1.107,0.419-2.08,0.419c-2.186,0-3.608-1.482-3.608-3.697c0-2.23,1.527-3.862,3.893-3.862
		c0.778,0,1.467,0.194,1.826,0.389l-0.3,1.003c-0.314-0.165-0.808-0.344-1.526-0.344c-1.662,0-2.56,1.242-2.56,2.739
		c0,1.676,1.077,2.709,2.515,2.709c0.748,0,1.242-0.18,1.616-0.344L583.438,44.466z"/>
	<path d="M590.07,42.984c0,0.628,0.029,1.242,0.104,1.736h-1.183l-0.104-0.913h-0.045c-0.404,0.569-1.183,1.078-2.216,1.078
		c-1.467,0-2.216-1.033-2.216-2.081c0-1.751,1.558-2.709,4.356-2.694v-0.15c0-0.583-0.165-1.676-1.646-1.662
		c-0.688,0-1.393,0.195-1.901,0.539l-0.299-0.883c0.599-0.374,1.481-0.628,2.395-0.628c2.216,0,2.755,1.512,2.755,2.949V42.984z
		 M588.798,41.023c-1.438-0.03-3.069,0.225-3.069,1.631c0,0.868,0.569,1.258,1.228,1.258c0.958,0,1.572-0.599,1.781-1.213
		c0.045-0.149,0.061-0.299,0.061-0.419V41.023z"/>
	<path d="M592.195,34.092h1.317V44.72h-1.317V34.092z"/>
	<path d="M598.722,43.388c0.404,0.239,1.093,0.509,1.751,0.509c0.943,0,1.393-0.464,1.393-1.078c0-0.629-0.374-0.958-1.332-1.317
		c-1.317-0.479-1.932-1.183-1.932-2.051c0-1.167,0.958-2.125,2.5-2.125c0.733,0,1.377,0.194,1.767,0.449l-0.314,0.958
		c-0.284-0.179-0.809-0.434-1.481-0.434c-0.779,0-1.198,0.449-1.198,0.988c0,0.599,0.419,0.868,1.362,1.242
		c1.242,0.464,1.901,1.093,1.901,2.17c0,1.288-1.003,2.186-2.694,2.186c-0.794,0-1.527-0.209-2.036-0.509L598.722,43.388z"/>
	<path d="M605.563,41.337c0.03,1.781,1.152,2.515,2.484,2.515c0.943,0,1.527-0.165,2.006-0.374l0.24,0.943
		c-0.464,0.209-1.272,0.464-2.425,0.464c-2.23,0-3.563-1.482-3.563-3.667c0-2.185,1.288-3.892,3.398-3.892
		c2.38,0,2.994,2.065,2.994,3.398c0,0.27-0.016,0.464-0.045,0.614H605.563z M609.425,40.394c0.015-0.823-0.345-2.125-1.826-2.125
		c-1.348,0-1.916,1.212-2.021,2.125H609.425z"/>
	<path d="M617.493,44.466c-0.344,0.165-1.107,0.419-2.08,0.419c-2.186,0-3.608-1.482-3.608-3.697c0-2.23,1.527-3.862,3.893-3.862
		c0.778,0,1.467,0.194,1.826,0.389l-0.3,1.003c-0.314-0.165-0.808-0.344-1.526-0.344c-1.662,0-2.56,1.242-2.56,2.739
		c0,1.676,1.077,2.709,2.515,2.709c0.748,0,1.242-0.18,1.616-0.344L617.493,44.466z"/>
	<path d="M620.816,35.739v1.736h1.886v1.003h-1.886v3.907c0,0.898,0.254,1.407,0.987,1.407c0.359,0,0.569-0.03,0.764-0.09
		l0.06,1.003c-0.254,0.09-0.658,0.18-1.167,0.18c-0.614,0-1.107-0.209-1.422-0.554c-0.359-0.404-0.509-1.048-0.509-1.901v-3.952
		h-1.123v-1.003h1.123v-1.347L620.816,35.739z"/>
	<path d="M625.651,35.439c0,0.449-0.314,0.809-0.838,0.809c-0.479,0-0.794-0.359-0.794-0.809s0.33-0.823,0.823-0.823
		C625.322,34.616,625.651,34.976,625.651,35.439z M624.185,44.72v-7.245h1.317v7.245H624.185z"/>
	<path d="M634.243,41.038c0,2.679-1.871,3.847-3.607,3.847c-1.946,0-3.474-1.437-3.474-3.727c0-2.41,1.603-3.832,3.593-3.832
		C632.836,37.326,634.243,38.837,634.243,41.038z M628.51,41.113c0,1.586,0.898,2.784,2.186,2.784c1.257,0,2.2-1.183,2.2-2.814
		c0-1.228-0.613-2.77-2.17-2.77C629.184,38.313,628.51,39.75,628.51,41.113z"/>
	<path d="M635.905,39.436c0-0.763-0.015-1.362-0.06-1.961h1.167l0.075,1.198h0.03c0.358-0.674,1.197-1.347,2.395-1.347
		c1.003,0,2.56,0.599,2.56,3.083v4.311h-1.317v-4.176c0-1.167-0.434-2.141-1.676-2.141c-0.854,0-1.527,0.614-1.767,1.347
		c-0.061,0.165-0.09,0.389-0.09,0.614v4.356h-1.317V39.436z"/>
	<path d="M644.033,43.388c0.404,0.239,1.093,0.509,1.751,0.509c0.943,0,1.393-0.464,1.393-1.078c0-0.629-0.374-0.958-1.332-1.317
		c-1.317-0.479-1.932-1.183-1.932-2.051c0-1.167,0.958-2.125,2.5-2.125c0.733,0,1.377,0.194,1.767,0.449l-0.314,0.958
		c-0.284-0.179-0.809-0.434-1.481-0.434c-0.779,0-1.198,0.449-1.198,0.988c0,0.599,0.419,0.868,1.362,1.242
		c1.242,0.464,1.901,1.093,1.901,2.17c0,1.288-1.003,2.186-2.694,2.186c-0.794,0-1.527-0.209-2.036-0.509L644.033,43.388z"/>
	<path d="M649.841,38.673c0-0.554,0.375-0.943,0.884-0.943c0.539,0,0.883,0.389,0.883,0.943c0,0.524-0.344,0.928-0.898,0.928
		C650.2,39.601,649.841,39.197,649.841,38.673z M649.841,43.957c0-0.554,0.375-0.943,0.884-0.943c0.539,0,0.883,0.389,0.883,0.943
		c0,0.523-0.344,0.928-0.898,0.928C650.2,44.885,649.841,44.48,649.841,43.957z"/>
</g>
<g>
	<path d="M396.236,13.902c0.658-0.12,1.616-0.21,2.5-0.21c1.392,0,2.305,0.27,2.919,0.824c0.494,0.449,0.793,1.137,0.793,1.931
		c0,1.317-0.838,2.201-1.886,2.56v0.045c0.764,0.27,1.228,0.988,1.467,2.036c0.329,1.407,0.568,2.38,0.778,2.769h-1.348
		c-0.164-0.299-0.389-1.153-0.658-2.41c-0.3-1.392-0.854-1.916-2.036-1.961h-1.228v4.371h-1.302V13.902z M397.538,18.497h1.333
		c1.392,0,2.275-0.763,2.275-1.916c0-1.302-0.943-1.871-2.32-1.871c-0.629,0-1.063,0.045-1.288,0.105V18.497z"/>
	<path d="M405.861,14.575c0,0.449-0.314,0.809-0.838,0.809c-0.479,0-0.794-0.359-0.794-0.809s0.33-0.823,0.823-0.823
		C405.532,13.752,405.861,14.111,405.861,14.575z M404.395,23.856v-7.245h1.317v7.245H404.395z"/>
	<path d="M407.718,22.524c0.404,0.239,1.093,0.509,1.751,0.509c0.943,0,1.393-0.464,1.393-1.078c0-0.629-0.374-0.958-1.332-1.317
		c-1.317-0.479-1.932-1.183-1.932-2.051c0-1.167,0.958-2.125,2.5-2.125c0.733,0,1.377,0.194,1.767,0.449l-0.314,0.958
		c-0.284-0.179-0.809-0.434-1.481-0.434c-0.779,0-1.198,0.449-1.198,0.988c0,0.599,0.419,0.868,1.362,1.242
		c1.242,0.464,1.901,1.093,1.901,2.17c0,1.288-1.003,2.186-2.694,2.186c-0.794,0-1.527-0.209-2.036-0.509L407.718,22.524z"/>
	<path d="M414.559,20.473c0.03,1.781,1.152,2.515,2.484,2.515c0.943,0,1.527-0.165,2.006-0.374l0.24,0.943
		c-0.464,0.209-1.272,0.464-2.425,0.464c-2.23,0-3.563-1.482-3.563-3.667c0-2.185,1.288-3.892,3.398-3.892
		c2.38,0,2.994,2.065,2.994,3.398c0,0.27-0.016,0.464-0.045,0.614H414.559z M418.421,19.53c0.015-0.823-0.345-2.125-1.826-2.125
		c-1.348,0-1.916,1.212-2.021,2.125H418.421z"/>
	<path d="M421.324,18.871c0-0.853-0.015-1.586-0.06-2.26h1.152l0.06,1.437h0.045c0.329-0.973,1.138-1.586,2.021-1.586
		c0.134,0,0.239,0.015,0.358,0.03v1.243c-0.135-0.03-0.27-0.03-0.448-0.03c-0.929,0-1.587,0.688-1.767,1.677
		c-0.03,0.18-0.045,0.404-0.045,0.614v3.862h-1.317V18.871z"/>
	<path d="M426.278,13.228h1.317v10.628h-1.317V13.228z"/>
	<path d="M431.277,14.575c0,0.449-0.314,0.809-0.838,0.809c-0.479,0-0.794-0.359-0.794-0.809s0.33-0.823,0.823-0.823
		C430.948,13.752,431.277,14.111,431.277,14.575z M429.811,23.856v-7.245h1.317v7.245H429.811z"/>
	<path d="M433.313,18.572c0-0.763-0.015-1.362-0.06-1.961h1.167l0.075,1.198h0.03c0.358-0.674,1.197-1.347,2.395-1.347
		c1.003,0,2.56,0.599,2.56,3.083v4.311h-1.317V19.68c0-1.167-0.434-2.141-1.676-2.141c-0.854,0-1.527,0.614-1.767,1.347
		c-0.061,0.165-0.09,0.389-0.09,0.614v4.356h-1.317V18.572z"/>
	<path d="M442.354,20.473c0.03,1.781,1.152,2.515,2.485,2.515c0.942,0,1.526-0.165,2.005-0.374l0.24,0.943
		c-0.464,0.209-1.272,0.464-2.425,0.464c-2.23,0-3.563-1.482-3.563-3.667c0-2.185,1.288-3.892,3.398-3.892
		c2.38,0,2.994,2.065,2.994,3.398c0,0.27-0.016,0.464-0.045,0.614H442.354z M446.217,19.53c0.015-0.823-0.345-2.125-1.826-2.125
		c-1.348,0-1.916,1.212-2.021,2.125H446.217z"/>
</g>
<g>
	<path d="M397.454,71.029c0.584,0.375,1.423,0.659,2.32,0.659c1.332,0,2.11-0.704,2.11-1.721c0-0.928-0.538-1.482-1.9-1.991
		c-1.646-0.599-2.665-1.467-2.665-2.874c0-1.572,1.303-2.74,3.264-2.74c1.018,0,1.781,0.24,2.215,0.494l-0.358,1.063
		c-0.314-0.195-0.988-0.479-1.901-0.479c-1.377,0-1.901,0.823-1.901,1.512c0,0.943,0.614,1.407,2.006,1.946
		c1.707,0.659,2.56,1.482,2.56,2.964c0,1.557-1.138,2.919-3.518,2.919c-0.973,0-2.035-0.299-2.574-0.659L397.454,71.029z"/>
	<path d="M411.017,70.625c0,0.763,0.015,1.422,0.06,1.991h-1.167l-0.075-1.183h-0.03c-0.329,0.584-1.107,1.347-2.395,1.347
		c-1.138,0-2.5-0.644-2.5-3.173v-4.236h1.317v3.997c0,1.377,0.434,2.32,1.616,2.32c0.884,0,1.497-0.614,1.736-1.212
		c0.075-0.18,0.12-0.419,0.12-0.673v-4.431h1.317V70.625z"/>
	<path d="M413.202,67.736c0-0.928-0.03-1.676-0.06-2.365h1.167l0.075,1.243h0.03c0.523-0.883,1.392-1.392,2.574-1.392
		c1.767,0,3.084,1.482,3.084,3.667c0,2.604-1.603,3.892-3.309,3.892c-0.958,0-1.796-0.419-2.23-1.138h-0.03v3.937h-1.302V67.736z
		 M414.504,69.667c0,0.194,0.016,0.374,0.061,0.539c0.239,0.913,1.032,1.542,1.976,1.542c1.393,0,2.2-1.138,2.2-2.799
		c0-1.437-0.763-2.679-2.155-2.679c-0.898,0-1.751,0.628-1.991,1.617c-0.045,0.165-0.09,0.359-0.09,0.524V69.667z"/>
	<path d="M422.453,69.233c0.03,1.781,1.152,2.515,2.484,2.515c0.943,0,1.527-0.165,2.006-0.374l0.24,0.943
		c-0.464,0.209-1.272,0.464-2.425,0.464c-2.23,0-3.563-1.482-3.563-3.667c0-2.185,1.288-3.892,3.398-3.892
		c2.38,0,2.994,2.065,2.994,3.398c0,0.27-0.016,0.464-0.045,0.614H422.453z M426.315,68.29c0.015-0.823-0.345-2.125-1.826-2.125
		c-1.348,0-1.916,1.212-2.021,2.125H426.315z"/>
	<path d="M429.219,67.631c0-0.853-0.015-1.586-0.06-2.26h1.152l0.06,1.437h0.045c0.329-0.973,1.138-1.586,2.021-1.586
		c0.134,0,0.239,0.015,0.358,0.03v1.243c-0.135-0.03-0.27-0.03-0.448-0.03c-0.929,0-1.587,0.688-1.767,1.677
		c-0.03,0.18-0.045,0.404-0.045,0.614v3.862h-1.317V67.631z"/>
	<path d="M434.173,67.332c0-0.763-0.015-1.362-0.06-1.961h1.167l0.075,1.198h0.03c0.358-0.674,1.197-1.347,2.395-1.347
		c1.003,0,2.56,0.599,2.56,3.083v4.311h-1.317V68.44c0-1.167-0.434-2.141-1.676-2.141c-0.854,0-1.527,0.614-1.767,1.347
		c-0.061,0.165-0.09,0.389-0.09,0.614v4.356h-1.317V67.332z"/>
	<path d="M449.037,68.934c0,2.679-1.871,3.847-3.607,3.847c-1.946,0-3.474-1.437-3.474-3.727c0-2.41,1.603-3.832,3.593-3.832
		C447.63,65.222,449.037,66.733,449.037,68.934z M443.304,69.009c0,1.586,0.898,2.784,2.186,2.784c1.257,0,2.2-1.183,2.2-2.814
		c0-1.228-0.613-2.77-2.17-2.77C443.978,66.209,443.304,67.646,443.304,69.009z"/>
	<path d="M456.94,61.988v8.757c0,0.644,0.029,1.377,0.06,1.871h-1.168l-0.06-1.257h-0.045c-0.389,0.808-1.257,1.422-2.439,1.422
		c-1.752,0-3.114-1.482-3.114-3.682c-0.015-2.41,1.497-3.877,3.249-3.877c1.122,0,1.855,0.524,2.186,1.093h0.029v-4.326H456.94z
		 M455.638,68.32c0-0.165-0.015-0.389-0.06-0.554c-0.194-0.823-0.913-1.512-1.901-1.512c-1.362,0-2.17,1.198-2.17,2.784
		c0,1.467,0.733,2.68,2.141,2.68c0.883,0,1.691-0.599,1.931-1.572c0.045-0.18,0.06-0.359,0.06-0.569V68.32z"/>
	<path d="M459.874,69.233c0.03,1.781,1.152,2.515,2.485,2.515c0.942,0,1.526-0.165,2.005-0.374l0.24,0.943
		c-0.464,0.209-1.272,0.464-2.425,0.464c-2.23,0-3.563-1.482-3.563-3.667c0-2.185,1.288-3.892,3.398-3.892
		c2.38,0,2.994,2.065,2.994,3.398c0,0.27-0.016,0.464-0.045,0.614H459.874z M463.736,68.29c0.015-0.823-0.345-2.125-1.826-2.125
		c-1.348,0-1.916,1.212-2.021,2.125H463.736z"/>
</g>
<g>
	<path d="M665.204,196.641c0.584,0.374,1.423,0.659,2.32,0.659c1.332,0,2.11-0.704,2.11-1.722c0-0.928-0.538-1.482-1.9-1.991
		c-1.646-0.599-2.665-1.467-2.665-2.874c0-1.572,1.303-2.74,3.264-2.74c1.018,0,1.781,0.24,2.215,0.494l-0.358,1.063
		c-0.314-0.195-0.988-0.479-1.901-0.479c-1.377,0-1.901,0.823-1.901,1.512c0,0.943,0.614,1.407,2.006,1.946
		c1.707,0.658,2.56,1.481,2.56,2.964c0,1.557-1.138,2.919-3.518,2.919c-0.973,0-2.035-0.3-2.574-0.659L665.204,196.641z"/>
	<path d="M674.246,189.246v1.736h1.886v1.003h-1.886v3.907c0,0.898,0.254,1.407,0.987,1.407c0.359,0,0.569-0.03,0.764-0.09
		l0.06,1.003c-0.254,0.09-0.658,0.18-1.167,0.18c-0.614,0-1.107-0.21-1.422-0.555c-0.359-0.403-0.509-1.047-0.509-1.9v-3.952h-1.123
		v-1.003h1.123v-1.347L674.246,189.246z"/>
	<path d="M677.614,193.243c0-0.854-0.015-1.587-0.06-2.261h1.152l0.06,1.438h0.045c0.329-0.973,1.138-1.587,2.021-1.587
		c0.135,0,0.24,0.015,0.359,0.03v1.243c-0.135-0.03-0.27-0.03-0.448-0.03c-0.929,0-1.587,0.688-1.767,1.677
		c-0.03,0.18-0.045,0.404-0.045,0.613v3.862h-1.317V193.243z"/>
	<path d="M683.093,194.845c0.03,1.781,1.152,2.515,2.485,2.515c0.942,0,1.526-0.165,2.005-0.374l0.24,0.942
		c-0.464,0.21-1.272,0.465-2.425,0.465c-2.23,0-3.563-1.482-3.563-3.668s1.288-3.892,3.398-3.892c2.38,0,2.994,2.065,2.994,3.397
		c0,0.27-0.016,0.465-0.045,0.614H683.093z M686.955,193.901c0.015-0.823-0.345-2.125-1.826-2.125c-1.348,0-1.916,1.212-2.021,2.125
		H686.955z"/>
	<path d="M689.679,196.896c0.404,0.239,1.093,0.509,1.751,0.509c0.943,0,1.393-0.464,1.393-1.078c0-0.628-0.374-0.958-1.332-1.317
		c-1.317-0.479-1.932-1.182-1.932-2.05c0-1.168,0.958-2.126,2.5-2.126c0.733,0,1.377,0.194,1.767,0.449l-0.314,0.958
		c-0.284-0.18-0.809-0.435-1.481-0.435c-0.779,0-1.198,0.449-1.198,0.988c0,0.599,0.419,0.868,1.362,1.242
		c1.242,0.464,1.901,1.093,1.901,2.171c0,1.287-1.003,2.186-2.694,2.186c-0.794,0-1.527-0.21-2.036-0.51L689.679,196.896z"/>
	<path d="M695.606,196.896c0.404,0.239,1.093,0.509,1.751,0.509c0.943,0,1.393-0.464,1.393-1.078c0-0.628-0.374-0.958-1.332-1.317
		c-1.317-0.479-1.932-1.182-1.932-2.05c0-1.168,0.958-2.126,2.5-2.126c0.733,0,1.377,0.194,1.767,0.449l-0.314,0.958
		c-0.284-0.18-0.809-0.435-1.481-0.435c-0.779,0-1.198,0.449-1.198,0.988c0,0.599,0.419,0.868,1.362,1.242
		c1.242,0.464,1.901,1.093,1.901,2.171c0,1.287-1.003,2.186-2.694,2.186c-0.794,0-1.527-0.21-2.036-0.51L695.606,196.896z"/>
	<path d="M703.106,200.354c0.613-0.045,1.123-0.21,1.437-0.569c0.359-0.404,0.51-0.973,0.51-2.709v-6.093h1.316v6.602
		c0,1.407-0.224,2.32-0.868,2.979c-0.583,0.584-1.541,0.823-2.245,0.823L703.106,200.354z M706.52,188.947
		c0,0.434-0.3,0.809-0.839,0.809c-0.479,0-0.793-0.375-0.793-0.809c0-0.449,0.329-0.823,0.823-0.823S706.52,188.498,706.52,188.947z
		"/>
	<path d="M715.082,194.545c0,2.68-1.871,3.848-3.607,3.848c-1.946,0-3.474-1.438-3.474-3.728c0-2.41,1.603-3.832,3.593-3.832
		C713.675,190.833,715.082,192.345,715.082,194.545z M709.349,194.62c0,1.587,0.898,2.784,2.186,2.784c1.257,0,2.2-1.183,2.2-2.814
		c0-1.228-0.613-2.769-2.17-2.769C710.022,191.821,709.349,193.258,709.349,194.62z"/>
	<path d="M718.21,188.947c0,0.449-0.314,0.809-0.838,0.809c-0.479,0-0.794-0.359-0.794-0.809s0.33-0.823,0.823-0.823
		C717.881,188.124,718.21,188.483,718.21,188.947z M716.743,198.228v-7.245h1.317v7.245H716.743z"/>
	<path d="M720.246,192.943c0-0.764-0.015-1.362-0.06-1.961h1.167l0.075,1.197h0.03c0.358-0.673,1.197-1.347,2.395-1.347
		c1.003,0,2.56,0.599,2.56,3.083v4.312h-1.317v-4.177c0-1.167-0.434-2.14-1.676-2.14c-0.854,0-1.527,0.613-1.767,1.347
		c-0.061,0.165-0.09,0.39-0.09,0.614v4.355h-1.317V192.943z"/>
	<path d="M730.081,189.246v1.736h1.886v1.003h-1.886v3.907c0,0.898,0.254,1.407,0.987,1.407c0.359,0,0.569-0.03,0.764-0.09
		l0.06,1.003c-0.254,0.09-0.658,0.18-1.167,0.18c-0.614,0-1.107-0.21-1.422-0.555c-0.359-0.403-0.509-1.047-0.509-1.9v-3.952h-1.123
		v-1.003h1.123v-1.347L730.081,189.246z"/>
</g>
<g>
</g>
<g>
	<path d="M665.474,209.45h1.316v8.996h4.312v1.093h-5.628V209.45z"/>
	<path d="M673.855,209.45v10.089h-1.316V209.45H673.855z"/>
	<path d="M676.131,219.539V209.45h1.437l3.219,5.104c0.733,1.183,1.332,2.245,1.796,3.278l0.045-0.016
		c-0.119-1.347-0.149-2.574-0.149-4.146v-4.221h1.228v10.089h-1.317l-3.203-5.119c-0.704-1.123-1.377-2.275-1.871-3.368
		l-0.045,0.015c0.075,1.272,0.09,2.485,0.09,4.162v4.311H676.131z"/>
	<path d="M687.896,210.558h-3.068v-1.107h7.469v1.107h-3.083v8.981h-1.317V210.558z"/>
	<path d="M696.085,219.539v-4.281l-3.203-5.808h1.497l1.422,2.784c0.374,0.764,0.688,1.377,1.003,2.08h0.03
		c0.269-0.658,0.628-1.316,1.018-2.08l1.452-2.784h1.467l-3.368,5.793v4.296H696.085z"/>
	<path d="M701.833,209.569c0.629-0.104,1.452-0.194,2.5-0.194c1.287,0,2.23,0.3,2.829,0.839c0.539,0.479,0.883,1.212,0.883,2.11
		c0,0.913-0.27,1.632-0.778,2.155c-0.703,0.733-1.812,1.107-3.084,1.107c-0.389,0-0.748-0.015-1.048-0.09v4.042h-1.302V209.569z
		 M703.135,214.435c0.285,0.075,0.645,0.104,1.078,0.104c1.572,0,2.53-0.778,2.53-2.141c0-1.347-0.958-1.99-2.381-1.99
		c-0.568,0-1.003,0.045-1.228,0.104V214.435z"/>
	<path d="M712.551,215.019v0.958h-3.697v-0.958H712.551z"/>
	<path d="M715.439,209.45v10.089h-1.316V209.45H715.439z"/>
	<path d="M717.715,209.6c0.793-0.135,1.736-0.225,2.77-0.225c1.871,0,3.203,0.449,4.086,1.258c0.913,0.823,1.438,1.99,1.438,3.622
		c0,1.646-0.524,2.994-1.452,3.922c-0.958,0.943-2.515,1.452-4.476,1.452c-0.943,0-1.707-0.045-2.365-0.12V209.6z M719.017,218.521
		c0.33,0.045,0.809,0.06,1.317,0.06c2.8,0,4.297-1.557,4.297-4.281c0.015-2.38-1.333-3.892-4.087-3.892
		c-0.674,0-1.183,0.06-1.527,0.135V218.521z"/>
</g>
<g>
	<path d="M202.636,28.671c0.793-0.135,1.736-0.225,2.769-0.225c1.871,0,3.204,0.449,4.086,1.258
		c0.913,0.823,1.437,1.991,1.437,3.622c0,1.647-0.524,2.994-1.452,3.922c-0.958,0.943-2.515,1.452-4.476,1.452
		c-0.943,0-1.707-0.045-2.365-0.12V28.671z M203.938,37.593c0.329,0.045,0.808,0.06,1.317,0.06c2.799,0,4.296-1.557,4.296-4.281
		c0.015-2.38-1.332-3.892-4.086-3.892c-0.674,0-1.183,0.06-1.527,0.135V37.593z"/>
	<path d="M217.814,33.881h-3.907v3.637h4.371v1.093h-5.688V28.522h5.464v1.093h-4.146v3.188h3.907V33.881z"/>
	<path d="M219.806,37.024c0.583,0.375,1.422,0.659,2.32,0.659c1.333,0,2.111-0.704,2.111-1.721c0-0.928-0.539-1.482-1.901-1.991
		c-1.647-0.599-2.665-1.467-2.665-2.874c0-1.572,1.302-2.74,3.263-2.74c1.018,0,1.781,0.24,2.215,0.494l-0.359,1.063
		c-0.314-0.195-0.988-0.479-1.901-0.479c-1.377,0-1.901,0.823-1.901,1.512c0,0.943,0.613,1.407,2.005,1.946
		c1.707,0.659,2.56,1.482,2.56,2.964c0,1.557-1.138,2.919-3.518,2.919c-0.973,0-2.036-0.299-2.574-0.659L219.806,37.024z"/>
	<path d="M229.401,28.522h1.317v6.751c0,2.679-1.317,3.502-3.054,3.502c-0.494,0-1.078-0.104-1.392-0.239l0.18-1.063
		c0.269,0.105,0.658,0.195,1.107,0.195c1.167,0,1.841-0.524,1.841-2.5V28.522z"/>
	<path d="M232.724,37.024c0.583,0.375,1.422,0.659,2.32,0.659c1.333,0,2.111-0.704,2.111-1.721c0-0.928-0.539-1.482-1.901-1.991
		c-1.647-0.599-2.665-1.467-2.665-2.874c0-1.572,1.302-2.74,3.263-2.74c1.018,0,1.781,0.24,2.215,0.494l-0.359,1.063
		c-0.314-0.195-0.988-0.479-1.901-0.479c-1.377,0-1.901,0.823-1.901,1.512c0,0.943,0.614,1.407,2.006,1.946
		c1.707,0.659,2.56,1.482,2.56,2.964c0,1.557-1.138,2.919-3.518,2.919c-0.973,0-2.036-0.299-2.574-0.659L232.724,37.024z"/>
</g>
<g>
	<path d="M204.552,47.035h-3.069v-1.107h7.47v1.107h-3.083v8.981h-1.317V47.035z"/>
	<path d="M211.378,45.927v4.221h4.88v-4.221h1.317v10.089h-1.317v-4.73h-4.88v4.73h-1.317V45.927H211.378z"/>
	<path d="M219.671,54.429c0.583,0.375,1.422,0.659,2.32,0.659c1.333,0,2.111-0.704,2.111-1.721c0-0.928-0.539-1.482-1.901-1.991
		c-1.647-0.599-2.665-1.467-2.665-2.874c0-1.572,1.302-2.74,3.263-2.74c1.018,0,1.781,0.24,2.215,0.494l-0.359,1.063
		c-0.314-0.195-0.988-0.479-1.901-0.479c-1.377,0-1.901,0.823-1.901,1.512c0,0.943,0.613,1.407,2.005,1.946
		c1.707,0.659,2.56,1.482,2.56,2.964c0,1.557-1.138,2.919-3.518,2.919c-0.973,0-2.036-0.299-2.574-0.659L219.671,54.429z"/>
	<path d="M229.266,45.927h1.317v6.751c0,2.679-1.317,3.502-3.054,3.502c-0.494,0-1.078-0.104-1.392-0.239l0.18-1.063
		c0.269,0.105,0.658,0.195,1.107,0.195c1.167,0,1.841-0.524,1.841-2.5V45.927z"/>
	<path d="M232.589,54.429c0.583,0.375,1.422,0.659,2.32,0.659c1.333,0,2.111-0.704,2.111-1.721c0-0.928-0.539-1.482-1.901-1.991
		c-1.647-0.599-2.665-1.467-2.665-2.874c0-1.572,1.302-2.74,3.263-2.74c1.018,0,1.781,0.24,2.215,0.494l-0.359,1.063
		c-0.314-0.195-0.988-0.479-1.901-0.479c-1.377,0-1.901,0.823-1.901,1.512c0,0.943,0.614,1.407,2.006,1.946
		c1.707,0.659,2.56,1.482,2.56,2.964c0,1.557-1.138,2.919-3.518,2.919c-0.973,0-2.036-0.299-2.574-0.659L232.589,54.429z"/>
</g>
<g>
	<path d="M133.992,105.903c0.793-0.135,1.736-0.225,2.769-0.225c1.871,0,3.204,0.449,4.086,1.258
		c0.913,0.823,1.437,1.991,1.437,3.622c0,1.647-0.524,2.994-1.452,3.922c-0.958,0.943-2.515,1.452-4.476,1.452
		c-0.943,0-1.707-0.045-2.365-0.12V105.903z M135.294,114.825c0.329,0.045,0.808,0.06,1.317,0.06c2.799,0,4.296-1.557,4.296-4.281
		c0.015-2.38-1.332-3.892-4.086-3.892c-0.674,0-1.183,0.06-1.527,0.135V114.825z"/>
	<path d="M149.17,111.113h-3.907v3.637h4.371v1.093h-5.688v-10.089h5.464v1.093h-4.146v3.188h3.907V111.113z"/>
	<path d="M151.161,114.256c0.583,0.375,1.422,0.659,2.32,0.659c1.333,0,2.111-0.704,2.111-1.721c0-0.928-0.539-1.482-1.901-1.991
		c-1.647-0.599-2.665-1.467-2.665-2.874c0-1.572,1.302-2.74,3.263-2.74c1.018,0,1.781,0.24,2.215,0.494l-0.359,1.063
		c-0.314-0.195-0.988-0.479-1.901-0.479c-1.377,0-1.901,0.823-1.901,1.512c0,0.943,0.613,1.407,2.005,1.946
		c1.707,0.659,2.56,1.482,2.56,2.964c0,1.557-1.138,2.919-3.518,2.919c-0.973,0-2.036-0.299-2.574-0.659L151.161,114.256z"/>
	<path d="M160.756,105.754h1.317v6.751c0,2.679-1.317,3.502-3.054,3.502c-0.494,0-1.078-0.104-1.392-0.239l0.18-1.063
		c0.269,0.105,0.658,0.195,1.107,0.195c1.167,0,1.841-0.524,1.841-2.5V105.754z"/>
	<path d="M164.08,114.256c0.583,0.375,1.422,0.659,2.32,0.659c1.333,0,2.111-0.704,2.111-1.721c0-0.928-0.539-1.482-1.901-1.991
		c-1.647-0.599-2.665-1.467-2.665-2.874c0-1.572,1.302-2.74,3.263-2.74c1.018,0,1.781,0.24,2.215,0.494l-0.359,1.063
		c-0.314-0.195-0.988-0.479-1.901-0.479c-1.377,0-1.901,0.823-1.901,1.512c0,0.943,0.614,1.407,2.006,1.946
		c1.707,0.659,2.56,1.482,2.56,2.964c0,1.557-1.138,2.919-3.518,2.919c-0.973,0-2.036-0.299-2.574-0.659L164.08,114.256z"/>
	<path d="M174.423,105.455c-1.093,1.482-1.871,3.413-1.871,6.137c0,2.664,0.823,4.565,1.871,6.062h-1.018
		c-0.943-1.242-1.961-3.158-1.961-6.077c0.015-2.934,1.018-4.865,1.961-6.122H174.423z"/>
	<path d="M178.27,107.34h-0.03l-1.692,0.913l-0.254-1.003l2.125-1.138h1.123v9.73h-1.272V107.34z"/>
	<path d="M182.716,117.654c1.048-1.482,1.871-3.413,1.871-6.107s-0.808-4.596-1.871-6.092h1.018
		c0.943,1.227,1.961,3.158,1.961,6.092c-0.015,2.934-1.018,4.85-1.961,6.107H182.716z"/>
</g>
<g>
	<path d="M135.908,124.21h-3.069v-1.107h7.47v1.107h-3.083v8.981h-1.317V124.21z"/>
	<path d="M142.733,123.103v4.221h4.88v-4.221h1.317v10.089h-1.317v-4.73h-4.88v4.73h-1.317v-10.089H142.733z"/>
	<path d="M151.026,131.604c0.583,0.375,1.422,0.659,2.32,0.659c1.333,0,2.111-0.704,2.111-1.721c0-0.928-0.539-1.482-1.901-1.991
		c-1.647-0.599-2.665-1.467-2.665-2.874c0-1.572,1.302-2.74,3.263-2.74c1.018,0,1.781,0.24,2.215,0.494l-0.359,1.063
		c-0.314-0.195-0.988-0.479-1.901-0.479c-1.377,0-1.901,0.823-1.901,1.512c0,0.943,0.613,1.407,2.005,1.946
		c1.707,0.659,2.56,1.482,2.56,2.964c0,1.557-1.138,2.919-3.518,2.919c-0.973,0-2.036-0.299-2.574-0.659L151.026,131.604z"/>
	<path d="M160.622,123.103h1.317v6.751c0,2.679-1.317,3.502-3.054,3.502c-0.494,0-1.078-0.104-1.392-0.239l0.18-1.063
		c0.269,0.105,0.658,0.195,1.107,0.195c1.167,0,1.841-0.524,1.841-2.5V123.103z"/>
	<path d="M163.945,131.604c0.583,0.375,1.422,0.659,2.32,0.659c1.333,0,2.111-0.704,2.111-1.721c0-0.928-0.539-1.482-1.901-1.991
		c-1.647-0.599-2.665-1.467-2.665-2.874c0-1.572,1.302-2.74,3.263-2.74c1.018,0,1.781,0.24,2.215,0.494l-0.359,1.063
		c-0.314-0.195-0.988-0.479-1.901-0.479c-1.377,0-1.901,0.823-1.901,1.512c0,0.943,0.614,1.407,2.006,1.946
		c1.707,0.659,2.56,1.482,2.56,2.964c0,1.557-1.138,2.919-3.518,2.919c-0.973,0-2.036-0.299-2.574-0.659L163.945,131.604z"/>
</g>
<g>
	<path d="M185.264,122.803c-1.093,1.482-1.871,3.413-1.871,6.137c0,2.664,0.823,4.565,1.871,6.062h-1.018
		c-0.943-1.242-1.961-3.158-1.961-6.077c0.015-2.934,1.018-4.865,1.961-6.122H185.264z"/>
	<path d="M189.111,124.689h-0.03l-1.692,0.913l-0.254-1.003l2.125-1.138h1.123v9.73h-1.272V124.689z"/>
	<path d="M193.557,135.002c1.048-1.482,1.871-3.413,1.871-6.107s-0.808-4.596-1.871-6.092h1.018
		c0.943,1.227,1.961,3.158,1.961,6.092c-0.015,2.934-1.018,4.85-1.961,6.107H193.557z"/>
</g>
<g>
	<path d="M107.077,236.218c0.793-0.135,1.736-0.225,2.769-0.225c1.871,0,3.204,0.449,4.086,1.258
		c0.913,0.823,1.437,1.99,1.437,3.622c0,1.646-0.524,2.994-1.452,3.922c-0.958,0.943-2.515,1.452-4.476,1.452
		c-0.943,0-1.707-0.045-2.365-0.12V236.218z M108.379,245.14c0.329,0.045,0.808,0.06,1.317,0.06c2.799,0,4.296-1.557,4.296-4.281
		c0.015-2.38-1.332-3.892-4.086-3.892c-0.674,0-1.183,0.06-1.527,0.135V245.14z"/>
	<path d="M122.255,241.427h-3.907v3.638h4.371v1.093h-5.688v-10.089h5.464v1.093h-4.146v3.188h3.907V241.427z"/>
	<path d="M124.247,244.57c0.583,0.374,1.422,0.659,2.32,0.659c1.333,0,2.111-0.704,2.111-1.722c0-0.928-0.539-1.482-1.901-1.991
		c-1.647-0.599-2.665-1.467-2.665-2.874c0-1.571,1.302-2.739,3.263-2.739c1.018,0,1.781,0.239,2.215,0.494l-0.359,1.063
		c-0.314-0.194-0.988-0.479-1.901-0.479c-1.377,0-1.901,0.823-1.901,1.512c0,0.943,0.614,1.407,2.006,1.946
		c1.707,0.658,2.56,1.481,2.56,2.964c0,1.557-1.138,2.919-3.518,2.919c-0.973,0-2.036-0.3-2.574-0.659L124.247,244.57z"/>
	<path d="M133.842,236.068h1.317v6.751c0,2.68-1.317,3.503-3.054,3.503c-0.494,0-1.078-0.105-1.392-0.24l0.179-1.063
		c0.27,0.104,0.659,0.194,1.108,0.194c1.167,0,1.841-0.523,1.841-2.499V236.068z"/>
	<path d="M137.165,244.57c0.583,0.374,1.422,0.659,2.32,0.659c1.333,0,2.111-0.704,2.111-1.722c0-0.928-0.539-1.482-1.901-1.991
		c-1.647-0.599-2.665-1.467-2.665-2.874c0-1.571,1.302-2.739,3.263-2.739c1.018,0,1.781,0.239,2.215,0.494l-0.359,1.063
		c-0.314-0.194-0.988-0.479-1.901-0.479c-1.377,0-1.901,0.823-1.901,1.512c0,0.943,0.613,1.407,2.005,1.946
		c1.707,0.658,2.56,1.481,2.56,2.964c0,1.557-1.138,2.919-3.518,2.919c-0.973,0-2.036-0.3-2.574-0.659L137.165,244.57z"/>
	<path d="M147.509,235.769c-1.093,1.482-1.871,3.413-1.871,6.138c0,2.664,0.823,4.565,1.871,6.063h-1.018
		c-0.943-1.243-1.961-3.159-1.961-6.078c0.015-2.934,1.018-4.864,1.961-6.122H147.509z"/>
	<path d="M148.497,246.157v-0.809l1.033-1.003c2.485-2.365,3.623-3.622,3.623-5.089c0-0.988-0.464-1.901-1.916-1.901
		c-0.883,0-1.617,0.449-2.066,0.823l-0.419-0.928c0.659-0.554,1.631-0.988,2.739-0.988c2.096,0,2.979,1.438,2.979,2.829
		c0,1.797-1.302,3.248-3.353,5.225l-0.763,0.718v0.03h4.356v1.093H148.497z"/>
	<path d="M155.802,247.969c1.048-1.482,1.871-3.413,1.871-6.107s-0.808-4.596-1.871-6.093h1.018
		c0.943,1.228,1.961,3.159,1.961,6.093c-0.015,2.934-1.018,4.85-1.961,6.107H155.802z"/>
</g>
<g>
	<path d="M108.993,254.583h-3.069v-1.107h7.47v1.107h-3.083v8.981h-1.317V254.583z"/>
	<path d="M115.819,253.476v4.221h4.88v-4.221h1.317v10.089h-1.317v-4.73h-4.88v4.73h-1.317v-10.089H115.819z"/>
	<path d="M124.112,261.978c0.583,0.374,1.422,0.659,2.32,0.659c1.333,0,2.111-0.704,2.111-1.722c0-0.928-0.539-1.482-1.901-1.991
		c-1.647-0.599-2.665-1.467-2.665-2.874c0-1.571,1.302-2.739,3.263-2.739c1.018,0,1.781,0.239,2.215,0.494l-0.359,1.063
		c-0.314-0.194-0.988-0.479-1.901-0.479c-1.377,0-1.901,0.823-1.901,1.512c0,0.943,0.614,1.407,2.006,1.946
		c1.707,0.658,2.56,1.481,2.56,2.964c0,1.557-1.138,2.919-3.518,2.919c-0.973,0-2.036-0.3-2.574-0.659L124.112,261.978z"/>
	<path d="M133.707,253.476h1.317v6.751c0,2.68-1.317,3.503-3.054,3.503c-0.494,0-1.078-0.105-1.392-0.24l0.179-1.063
		c0.27,0.104,0.659,0.194,1.108,0.194c1.167,0,1.841-0.523,1.841-2.499V253.476z"/>
	<path d="M137.03,261.978c0.583,0.374,1.422,0.659,2.32,0.659c1.333,0,2.111-0.704,2.111-1.722c0-0.928-0.539-1.482-1.901-1.991
		c-1.647-0.599-2.665-1.467-2.665-2.874c0-1.571,1.302-2.739,3.263-2.739c1.018,0,1.781,0.239,2.215,0.494l-0.359,1.063
		c-0.314-0.194-0.988-0.479-1.901-0.479c-1.377,0-1.901,0.823-1.901,1.512c0,0.943,0.613,1.407,2.005,1.946
		c1.707,0.658,2.56,1.481,2.56,2.964c0,1.557-1.138,2.919-3.518,2.919c-0.973,0-2.036-0.3-2.574-0.659L137.03,261.978z"/>
</g>
<g>
	<path d="M158.347,253.176c-1.093,1.482-1.871,3.413-1.871,6.138c0,2.664,0.823,4.565,1.871,6.063h-1.018
		c-0.943-1.243-1.961-3.159-1.961-6.078c0.015-2.934,1.018-4.864,1.961-6.122H158.347z"/>
	<path d="M159.335,263.564v-0.809l1.033-1.003c2.485-2.365,3.623-3.622,3.623-5.089c0-0.988-0.464-1.901-1.916-1.901
		c-0.883,0-1.617,0.449-2.066,0.823l-0.419-0.928c0.659-0.554,1.631-0.988,2.739-0.988c2.096,0,2.979,1.438,2.979,2.829
		c0,1.796-1.302,3.248-3.353,5.225l-0.763,0.718v0.03h4.356v1.093H159.335z"/>
	<path d="M166.64,265.376c1.048-1.482,1.871-3.413,1.871-6.107s-0.808-4.596-1.871-6.093h1.018c0.943,1.228,1.961,3.159,1.961,6.093
		c-0.015,2.934-1.018,4.85-1.961,6.107H166.64z"/>
</g>
<g>
	<path d="M3.974,239.672c0.583,0.374,1.422,0.659,2.32,0.659c1.333,0,2.111-0.704,2.111-1.722c0-0.928-0.539-1.482-1.901-1.991
		c-1.647-0.599-2.665-1.467-2.665-2.874c0-1.571,1.302-2.739,3.263-2.739c1.018,0,1.781,0.239,2.215,0.494l-0.359,1.063
		c-0.314-0.194-0.988-0.479-1.901-0.479c-1.377,0-1.901,0.823-1.901,1.512c0,0.943,0.613,1.407,2.005,1.946
		c1.707,0.658,2.56,1.481,2.56,2.964c0,1.557-1.138,2.919-3.518,2.919c-0.973,0-2.036-0.3-2.574-0.659L3.974,239.672z"/>
	<path d="M13.569,231.17h1.317v6.751c0,2.68-1.317,3.503-3.054,3.503c-0.494,0-1.078-0.105-1.392-0.24l0.18-1.063
		c0.269,0.104,0.658,0.194,1.107,0.194c1.167,0,1.841-0.523,1.841-2.499V231.17z"/>
	<path d="M16.892,239.672c0.583,0.374,1.422,0.659,2.32,0.659c1.333,0,2.111-0.704,2.111-1.722c0-0.928-0.539-1.482-1.901-1.991
		c-1.647-0.599-2.665-1.467-2.665-2.874c0-1.571,1.302-2.739,3.263-2.739c1.018,0,1.781,0.239,2.215,0.494l-0.359,1.063
		c-0.314-0.194-0.988-0.479-1.901-0.479c-1.377,0-1.901,0.823-1.901,1.512c0,0.943,0.614,1.407,2.006,1.946
		c1.707,0.658,2.56,1.481,2.56,2.964c0,1.557-1.138,2.919-3.518,2.919c-0.973,0-2.036-0.3-2.574-0.659L16.892,239.672z"/>
	<path d="M24.421,231.17h1.317v8.996h4.311v1.093h-5.628V231.17z"/>
	<path d="M34.301,230.87c-1.093,1.482-1.871,3.413-1.871,6.138c0,2.664,0.823,4.565,1.871,6.063h-1.018
		c-0.943-1.243-1.961-3.159-1.961-6.078c0.015-2.934,1.018-4.864,1.961-6.122H34.301z"/>
	<path d="M35.289,241.259v-0.809l1.033-1.003c2.485-2.365,3.623-3.622,3.623-5.089c0-0.988-0.464-1.901-1.916-1.901
		c-0.883,0-1.617,0.449-2.066,0.823l-0.419-0.928c0.659-0.554,1.631-0.988,2.739-0.988c2.096,0,2.979,1.438,2.979,2.829
		c0,1.797-1.302,3.248-3.353,5.225l-0.763,0.718v0.03h4.356v1.093H35.289z"/>
	<path d="M42.594,243.07c1.048-1.482,1.871-3.413,1.871-6.107s-0.808-4.596-1.871-6.093h1.018c0.943,1.228,1.961,3.159,1.961,6.093
		c-0.015,2.934-1.018,4.85-1.961,6.107H42.594z"/>
</g>
<g>
	<path d="M3.974,136.503c0.583,0.375,1.422,0.659,2.32,0.659c1.333,0,2.111-0.704,2.111-1.721c0-0.928-0.539-1.482-1.901-1.991
		c-1.647-0.599-2.665-1.467-2.665-2.874c0-1.572,1.302-2.74,3.263-2.74c1.018,0,1.781,0.24,2.215,0.494l-0.359,1.063
		c-0.314-0.195-0.988-0.479-1.901-0.479c-1.377,0-1.901,0.823-1.901,1.512c0,0.943,0.613,1.407,2.005,1.946
		c1.707,0.659,2.56,1.482,2.56,2.964c0,1.557-1.138,2.919-3.518,2.919c-0.973,0-2.036-0.299-2.574-0.659L3.974,136.503z"/>
	<path d="M13.569,128.001h1.317v6.751c0,2.679-1.317,3.502-3.054,3.502c-0.494,0-1.078-0.104-1.392-0.239l0.18-1.063
		c0.269,0.105,0.658,0.195,1.107,0.195c1.167,0,1.841-0.524,1.841-2.5V128.001z"/>
	<path d="M16.892,136.503c0.583,0.375,1.422,0.659,2.32,0.659c1.333,0,2.111-0.704,2.111-1.721c0-0.928-0.539-1.482-1.901-1.991
		c-1.647-0.599-2.665-1.467-2.665-2.874c0-1.572,1.302-2.74,3.263-2.74c1.018,0,1.781,0.24,2.215,0.494l-0.359,1.063
		c-0.314-0.195-0.988-0.479-1.901-0.479c-1.377,0-1.901,0.823-1.901,1.512c0,0.943,0.614,1.407,2.006,1.946
		c1.707,0.659,2.56,1.482,2.56,2.964c0,1.557-1.138,2.919-3.518,2.919c-0.973,0-2.036-0.299-2.574-0.659L16.892,136.503z"/>
	<path d="M24.421,128.001h1.317v8.996h4.311v1.093h-5.628V128.001z"/>
	<path d="M34.301,127.702c-1.093,1.482-1.871,3.413-1.871,6.137c0,2.664,0.823,4.565,1.871,6.062h-1.018
		c-0.943-1.242-1.961-3.158-1.961-6.077c0.015-2.934,1.018-4.865,1.961-6.122H34.301z"/>
	<path d="M38.148,129.588h-0.03l-1.692,0.913l-0.254-1.003l2.125-1.138h1.123v9.73h-1.272V129.588z"/>
	<path d="M42.594,139.901c1.048-1.482,1.871-3.413,1.871-6.107s-0.808-4.596-1.871-6.092h1.018c0.943,1.227,1.961,3.158,1.961,6.092
		c-0.015,2.934-1.018,4.85-1.961,6.107H42.594z"/>
</g>
<g>
	
		<line fill-rule="evenodd" clip-rule="evenodd" fill="none" stroke="#000000" stroke-linecap="round" stroke-linejoin="round" stroke-miterlimit="10" x1="77.35" y1="95.438" x2="77.35" y2="177.339"/>
</g>
<g>
	
		<polyline fill-rule="evenodd" clip-rule="evenodd" stroke="#000000" stroke-linecap="round" stroke-linejoin="round" stroke-miterlimit="10" points="
		80.693,102.239 77.35,95.438 73.95,102.239 80.693,102.239 	"/>
</g>
<g>
	
		<polyline fill-rule="evenodd" clip-rule="evenodd" stroke="#000000" stroke-linecap="round" stroke-linejoin="round" stroke-miterlimit="10" points="
		80.693,170.538 77.35,177.339 73.95,170.538 80.693,170.538 	"/>
</g>
<g>
	
		<line fill-rule="evenodd" clip-rule="evenodd" fill="none" stroke="#000000" stroke-linecap="round" stroke-linejoin="round" stroke-miterlimit="10" x1="76.889" y1="307.251" x2="76.889" y2="177.742"/>
</g>
<g>
	
		<polyline fill-rule="evenodd" clip-rule="evenodd" stroke="#000000" stroke-linecap="round" stroke-linejoin="round" stroke-miterlimit="10" points="
		73.489,300.449 76.889,307.251 80.29,300.449 73.489,300.449 	"/>
</g>
<g>
	
		<polyline fill-rule="evenodd" clip-rule="evenodd" stroke="#000000" stroke-linecap="round" stroke-linejoin="round" stroke-miterlimit="10" points="
		73.489,184.543 76.889,177.742 80.29,184.543 73.489,184.543 	"/>
</g>
<path fill-rule="evenodd" clip-rule="evenodd" fill="none" stroke="#000000" stroke-linecap="round" stroke-linejoin="round" stroke-miterlimit="10" d="
	M642.068,97.802c10.604,2.421,8.471,8.415,8.471,14.409c0,6.109-9.394,84.495-8.873,88.53c0.517,3.917,8.125,4.669,8.125,4.669
	s-6.974,2.419-7.262,8.587c-0.347,6.282,6.282,80,6.396,88.759c0.058,8.588-4.264,5.82-5.128,6.858
	c-0.865,1.096-0.865,0.923,0-0.402"/>
<g>
	
		<polyline fill-rule="evenodd" clip-rule="evenodd" fill="none" stroke="#000000" stroke-linecap="round" stroke-linejoin="round" stroke-miterlimit="10" points="
		258.442,44.316 267.55,46.448 276.943,49.445 285.417,53.076 292.965,57.226 298.153,60.915 302.535,64.719 306.165,68.407 
		310.775,74.517 313.715,79.704 316.136,85.238 318.211,91.98 319.479,98.781 	"/>
</g>
<g>
	
		<polyline fill-rule="evenodd" clip-rule="evenodd" fill="none" stroke="#000000" stroke-linecap="round" stroke-linejoin="round" stroke-miterlimit="10" points="
		201.787,120.972 210.893,123.104 220.288,126.102 228.76,129.732 236.31,133.881 241.497,137.57 245.879,141.375 249.509,145.063 
		254.12,151.172 257.059,156.36 259.479,161.894 261.555,168.636 262.823,175.437 	"/>
</g>
<g>
	
		<polyline fill-rule="evenodd" clip-rule="evenodd" fill="none" stroke="#000000" stroke-linecap="round" stroke-linejoin="round" stroke-miterlimit="10" points="
		175.504,253.879 184.611,256.07 191.988,258.318 199.769,261.373 207.608,265.407 213.775,269.442 218.962,273.707 
		223.228,278.028 227.377,283.446 230.432,288.519 233.486,295.608 235.273,301.546 236.541,308.347 	"/>
</g>
<path fill-rule="evenodd" clip-rule="evenodd" fill="none" stroke="#000000" stroke-linecap="round" stroke-linejoin="round" stroke-miterlimit="10" d="
	M340.459,38.84c-0.058-3.689,6.857-9.51,15.792-9.856c8.991-0.346,24.957,8.243,32.851,7.263c7.782-1.038,10.03-7.608,11.125-9.453
	c1.038-1.785,0-0.691,0-0.863c0-0.116,0-0.116,0,0"/>
<g>
	
		<line fill-rule="evenodd" clip-rule="evenodd" fill="none" stroke="#000000" stroke-linecap="round" stroke-linejoin="round" stroke-miterlimit="10" stroke-dasharray="16,8" x1="383.166" y1="98.205" x2="383.166" y2="126.102"/>
</g>
<g>
	
		<line fill-rule="evenodd" clip-rule="evenodd" fill="none" stroke="#000000" stroke-linecap="round" stroke-linejoin="round" stroke-miterlimit="10" stroke-dasharray="16,8" x1="409.449" y1="124.486" x2="409.449" y2="150.769"/>
</g>
<g>
	
		<line fill-rule="evenodd" clip-rule="evenodd" fill="none" stroke="#000000" stroke-linecap="round" stroke-linejoin="round" stroke-miterlimit="10" stroke-dasharray="16,8" x1="431.58" y1="151.576" x2="431.58" y2="177.051"/>
</g>
<g>
	
		<line fill-rule="evenodd" clip-rule="evenodd" fill="none" stroke="#000000" stroke-linecap="round" stroke-linejoin="round" stroke-miterlimit="10" stroke-dasharray="16,8" x1="457.056" y1="178.665" x2="457.056" y2="244.369"/>
</g>
<g>
	
		<line fill-rule="evenodd" clip-rule="evenodd" fill="none" stroke="#000000" stroke-linecap="round" stroke-linejoin="round" stroke-miterlimit="10" stroke-dasharray="16,8" x1="469.391" y1="242.756" x2="469.391" y2="310.939"/>
</g>
</svg>
