<?xml version="1.0" encoding="utf-8"?>
<!-- Generator: Adobe Illustrator 15.0.0, SVG Export Plug-In . SVG Version: 6.00 Build 0)  -->
<!DOCTYPE svg PUBLIC "-//W3C//DTD SVG 1.1//EN" "http://www.w3.org/Graphics/SVG/1.1/DTD/svg11.dtd">
<svg version="1.1" id="_x3C_Layer_x3E_" xmlns="http://www.w3.org/2000/svg" xmlns:xlink="http://www.w3.org/1999/xlink" x="0px"
	 y="0px" width="707.632px" height="246.812px" viewBox="0 0 707.632 246.812" enable-background="new 0 0 707.632 246.812"
	 xml:space="preserve">
<g>
	<path d="M91.001,22.025l2.387,6.502c0.273,0.728,0.546,1.591,0.728,2.25h0.045c0.205-0.659,0.432-1.5,0.705-2.296l2.183-6.457
		h2.114l-3.001,7.844c-1.433,3.774-2.41,5.684-3.774,6.889c-1,0.841-1.955,1.183-2.455,1.273l-0.5-1.66
		c0.5-0.159,1.16-0.478,1.751-0.978c0.545-0.432,1.205-1.205,1.682-2.228c0.091-0.205,0.159-0.364,0.159-0.477
		c0-0.114-0.045-0.273-0.159-0.523l-4.047-10.14H91.001z"/>
</g>
<path fill-rule="evenodd" clip-rule="evenodd" fill="none" stroke="#000000" stroke-linecap="round" stroke-linejoin="round" stroke-miterlimit="10" d="
	M114.981,78.677c-9.577,24.707-11.747,33.262-22.409,41.369c-10.534,7.916-36.262-0.51-40.029-2.17
	c-3.766-1.595,4.788,4.405,4.788,4.278c0-0.064,0-0.255,0-0.511"/>
<path fill-rule="evenodd" clip-rule="evenodd" stroke="#000000" stroke-linecap="round" stroke-linejoin="round" stroke-miterlimit="10" d="
	M114.215,80.655c-1.085-0.445-1.596-1.659-1.213-2.744c0.447-1.15,1.659-1.661,2.745-1.214c1.085,0.384,1.66,1.661,1.213,2.746
	C116.512,80.528,115.3,81.039,114.215,80.655L114.215,80.655"/>
<path fill-rule="evenodd" clip-rule="evenodd" fill="none" stroke="#000000" stroke-linecap="round" stroke-linejoin="round" stroke-miterlimit="10" d="
	M196.635,75.42c-4.662,34.667-11.875,61.033-22.026,80.568c-10.278,19.473-29.113,35.179-44.626,39.264
	c-15.513,3.896-27.196-3.767-47.754-15.577l-3.766,65.502"/>
<path fill-rule="evenodd" clip-rule="evenodd" stroke="#000000" stroke-linecap="round" stroke-linejoin="round" stroke-miterlimit="10" d="
	M196.316,77.528c-1.149-0.128-1.979-1.214-1.787-2.362c0.127-1.149,1.212-1.979,2.361-1.851c1.15,0.191,1.979,1.212,1.852,2.425
	C198.551,76.889,197.465,77.719,196.316,77.528L196.316,77.528"/>
<path fill-rule="evenodd" clip-rule="evenodd" fill="none" stroke="#000000" stroke-linecap="round" stroke-linejoin="round" stroke-miterlimit="10" d="
	M280.396,84.549c5.682,11.748-24.771,59.757-44.563,85.935c-19.982,26.365-28.218,29.557-73.61,70.417"/>
<path fill-rule="evenodd" clip-rule="evenodd" stroke="#000000" stroke-linecap="round" stroke-linejoin="round" stroke-miterlimit="10" d="
	M281.354,86.465c-1.086,0.511-2.362,0.063-2.873-0.958c-0.511-1.085-0.063-2.362,1.021-2.873c1.021-0.512,2.298-0.063,2.809,1.021
	C282.822,84.677,282.376,85.954,281.354,86.465L281.354,86.465"/>
<path fill-rule="evenodd" clip-rule="evenodd" fill="none" stroke="#000000" stroke-linecap="round" stroke-linejoin="round" stroke-miterlimit="10" d="
	M546.746,84.422c-15.065,74.122-31.921,104.511-56.436,120.344c-24.132,15.576-26.877-26.368-46.158-23.687
	c-19.535,2.745-40.285,46.223-43.542,56.438c-3.19,10.023,0.258-0.512,0,0c-0.316,0.51-1.339,2.681-1.595,3.19
	c-0.255,0.576-0.255,0.576,0,0"/>
<path fill-rule="evenodd" clip-rule="evenodd" stroke="#000000" stroke-linecap="round" stroke-linejoin="round" stroke-miterlimit="10" d="
	M546.299,86.528c-1.147-0.255-1.914-1.404-1.658-2.553c0.254-1.149,1.34-1.852,2.49-1.659c1.148,0.255,1.914,1.404,1.66,2.553
	C548.6,86.018,547.449,86.721,546.299,86.528L546.299,86.528"/>
<path fill-rule="evenodd" clip-rule="evenodd" fill="none" stroke="#000000" stroke-linecap="round" stroke-linejoin="round" stroke-miterlimit="10" d="
	M678.072,76.378c-17.303,64.736-27.582,87.272-42.392,105.275c-14.813,17.559-35.563,25.41-47.818-3.766"/>
<path fill-rule="evenodd" clip-rule="evenodd" stroke="#000000" stroke-linecap="round" stroke-linejoin="round" stroke-miterlimit="10" d="
	M677.561,78.422c-1.15-0.319-1.853-1.469-1.533-2.619c0.319-1.149,1.469-1.787,2.619-1.532c1.148,0.319,1.787,1.532,1.531,2.617
	C679.859,78.039,678.646,78.741,677.561,78.422L677.561,78.422"/>
<path fill-rule="evenodd" clip-rule="evenodd" fill="none" stroke="#000000" stroke-linecap="round" stroke-linejoin="round" stroke-miterlimit="10" d="
	M565.262,239.622c8.619-19.279,15.067-24.705,22.601-61.733"/>
<g>
	
		<path fill-rule="evenodd" clip-rule="evenodd" fill="#FFFFFF" stroke="#000000" stroke-linecap="round" stroke-linejoin="round" stroke-miterlimit="10" d="
		M590.798,177.307c-0.004-2.652-2.93-4.306-5.269-2.978c-2.339,1.331-2.333,4.65,0.011,5.972s5.263-0.343,5.258-2.992"/>
</g>
<g>
	
		<path fill-rule="evenodd" clip-rule="evenodd" stroke="#000000" stroke-linecap="round" stroke-linejoin="round" stroke-miterlimit="10" d="
		M435.662,181.844c-0.005-2.947-3.193-4.788-5.748-3.314c-2.552,1.48-2.551,5.163,0.006,6.637c2.557,1.469,5.739-0.371,5.742-3.32"
		/>
</g>
<g>
	
		<path fill-rule="evenodd" clip-rule="evenodd" stroke="#000000" stroke-linecap="round" stroke-linejoin="round" stroke-miterlimit="10" d="
		M447.536,177.503c-0.002-2.947-3.192-4.788-5.747-3.316c-2.554,1.481-2.549,5.165,0.005,6.637
		C444.35,182.293,447.534,180.454,447.536,177.503"/>
</g>
<g>
	
		<path fill-rule="evenodd" clip-rule="evenodd" stroke="#000000" stroke-linecap="round" stroke-linejoin="round" stroke-miterlimit="10" d="
		M459.411,181.27c-0.004-2.949-3.191-4.787-5.747-3.316c-2.553,1.482-2.55,5.163,0.005,6.639
		C456.226,186.061,459.41,184.221,459.411,181.27"/>
</g>
<g>
	
		<path fill-rule="evenodd" clip-rule="evenodd" stroke="#000000" stroke-linecap="round" stroke-linejoin="round" stroke-miterlimit="10" d="
		M470.646,207.062c-0.003-2.947-3.192-4.789-5.745-3.314c-2.556,1.481-2.549,5.163,0.004,6.637c2.557,1.468,5.741-0.373,5.741-3.32"
		/>
</g>
<g>
	
		<path fill-rule="evenodd" clip-rule="evenodd" stroke="#000000" stroke-linecap="round" stroke-linejoin="round" stroke-miterlimit="10" d="
		M484.628,211.852c-0.002-2.95-3.19-4.79-5.744-3.316c-2.555,1.481-2.552,5.162,0.003,6.636
		C481.443,216.641,484.626,214.8,484.628,211.852"/>
</g>
<g>
	
		<path fill-rule="evenodd" clip-rule="evenodd" stroke="#000000" stroke-linecap="round" stroke-linejoin="round" stroke-miterlimit="10" d="
		M499.121,205.914c-0.003-2.948-3.19-4.79-5.746-3.316c-2.555,1.482-2.55,5.163,0.005,6.639
		C495.937,210.703,499.118,208.864,499.121,205.914"/>
</g>
<g>
	
		<polyline fill-rule="evenodd" clip-rule="evenodd" fill="#FFFFFF" stroke="#000000" stroke-linecap="round" stroke-linejoin="round" stroke-miterlimit="10" points="
		583.902,144.18 591.437,144.18 591.437,169.97 583.902,169.97 583.902,144.18 	"/>
	
		<path fill-rule="evenodd" clip-rule="evenodd" fill="#FFFFFF" stroke="#000000" stroke-linecap="round" stroke-linejoin="round" stroke-miterlimit="10" d="
		M587.671,157.075"/>
</g>
<g>
	
		<polyline fill-rule="evenodd" clip-rule="evenodd" fill="#FFFFFF" stroke="#000000" stroke-linecap="round" stroke-linejoin="round" stroke-miterlimit="10" points="
		152.583,239.241 164.395,239.241 164.395,244.667 152.583,244.667 152.583,239.241 	"/>
	
		<path fill-rule="evenodd" clip-rule="evenodd" fill="#FFFFFF" stroke="#000000" stroke-linecap="round" stroke-linejoin="round" stroke-miterlimit="10" d="
		M158.49,241.955"/>
</g>
<g>
	
		<polyline fill-rule="evenodd" clip-rule="evenodd" fill="none" stroke="#000000" stroke-linecap="round" stroke-linejoin="round" stroke-miterlimit="10" points="
		83.697,178.462 88.487,244.539 79.356,232.153 86.891,219.257 81.017,206.937 84.782,196.147 	"/>
</g>
<g>
	
		<polyline fill-rule="evenodd" clip-rule="evenodd" fill="none" stroke="#000000" stroke-linecap="round" stroke-linejoin="round" stroke-miterlimit="10" points="
		52.097,117.875 34.411,244.667 56.947,119.472 	"/>
</g>
<g>
	
		<polyline fill-rule="evenodd" clip-rule="evenodd" fill="#FFFFFF" stroke="#000000" stroke-linecap="round" stroke-linejoin="round" stroke-miterlimit="10" points="
		394.164,236.431 405.465,236.431 405.465,245.05 394.164,245.05 394.164,236.431 	"/>
	
		<path fill-rule="evenodd" clip-rule="evenodd" fill="#FFFFFF" stroke="#000000" stroke-linecap="round" stroke-linejoin="round" stroke-miterlimit="10" d="
		M399.814,240.74"/>
</g>
<path fill-rule="evenodd" clip-rule="evenodd" fill="none" stroke="#000000" stroke-linecap="round" stroke-linejoin="round" stroke-miterlimit="10" d="
	M402.911,82.444c-1.725,35.942-9.962,60.585-25.282,75.206c-12.77,11.94-35.113,10.025-58.096,8.621
	c-4.789-0.32-7.278,9.191-12.26,7.979c-9.321,24.005-14.3,42.647-23.621,66.652"/>
<path fill-rule="evenodd" clip-rule="evenodd" stroke="#000000" stroke-linecap="round" stroke-linejoin="round" stroke-miterlimit="10" d="
	M402.784,84.549c-1.15-0.063-2.109-1.085-2.045-2.233c0.064-1.149,1.084-2.106,2.236-2.043c1.213,0.063,2.104,1.084,2.042,2.234
	C404.953,83.72,403.933,84.614,402.784,84.549L402.784,84.549"/>
<g>
	
		<line fill-rule="evenodd" clip-rule="evenodd" fill="none" stroke="#000000" stroke-linecap="round" stroke-linejoin="round" stroke-miterlimit="10" x1="2.682" y1="245.177" x2="712.292" y2="245.177"/>
</g>
<g>
	
		<polyline fill-rule="evenodd" clip-rule="evenodd" fill="none" stroke="#000000" stroke-linecap="round" stroke-linejoin="round" stroke-miterlimit="10" points="
		0,100.32 7.087,99.936 22.026,98.276 29.751,98.085 37.539,98.787 53.116,101.022 56.947,101.405 60.714,101.469 68.184,100.894 
		82.868,98.595 86.635,98.212 90.401,98.148 94.231,98.404 114.47,101.597 118.876,101.979 123.343,102.107 127.94,101.916 
		132.666,101.405 151.307,98.532 157.819,97.894 161.969,97.829 167.778,98.404 181.888,100.958 185.399,101.341 188.91,101.469 
		192.549,101.277 200.019,100.064 211.766,97.894 215.852,97.383 219.938,97.127 224.087,97.191 232.515,98.085 245.666,100 
		250.198,100.511 254.796,100.703 264.309,100.383 283.779,98.276 293.356,97.829 302.678,98.404 319.979,100.894 327.896,101.469 
		334.473,101.022 347.879,98.723 360.902,96.361 366.902,95.85 370.287,96.106 373.733,96.681 387.908,100.383 392.823,101.213 
		396.145,101.213 403.423,100.448 431.448,96.361 437.958,95.85 444.217,96.361 472.5,100.831 479.011,101.277 482.713,100.958 
		486.8,100.32 505.696,95.85 510.613,95.211 520.635,95.723 557.984,99.17 562.517,99.362 566.41,99.042 573.625,97.766 
		592.395,93.552 599.163,92.658 602.674,92.786 606.376,93.424 624.252,98.595 628.018,99.234 631.531,99.362 638.681,98.404 
		650.555,95.978 658.982,94.764 665.366,94.573 672.517,95.148 698.373,98.468 703.163,98.723 	"/>
</g>
<g>
	
		<line fill-rule="evenodd" clip-rule="evenodd" fill="none" stroke="#000000" stroke-linecap="round" stroke-linejoin="round" stroke-miterlimit="10" x1="34.411" y1="243.006" x2="34.411" y2="33.54"/>
</g>
<g>
	
		<polyline fill-rule="evenodd" clip-rule="evenodd" stroke="#000000" stroke-linecap="round" stroke-linejoin="round" stroke-miterlimit="10" points="
		30.134,42.031 34.411,33.54 38.626,42.031 30.134,42.031 	"/>
</g>
<g>
	
		<polyline fill-rule="evenodd" clip-rule="evenodd" fill="none" stroke="#000000" stroke-linecap="round" stroke-linejoin="round" stroke-miterlimit="10" points="
		83.25,49.629 34.411,98.532 90.273,98.532 	"/>
</g>
<g>
	
		<polyline fill-rule="evenodd" clip-rule="evenodd" stroke="#000000" stroke-linecap="round" stroke-linejoin="round" stroke-miterlimit="10" points="
		80.25,58.695 83.25,49.629 74.25,52.693 80.25,58.695 	"/>
</g>
<g>
	
		<polyline fill-rule="evenodd" clip-rule="evenodd" stroke="#000000" stroke-linecap="round" stroke-linejoin="round" stroke-miterlimit="10" points="
		81.718,94.254 90.273,98.532 81.718,102.81 81.718,94.254 	"/>
</g>
<g>
	
		<polyline fill-rule="evenodd" clip-rule="evenodd" fill="#FFFFFF" stroke="#000000" stroke-linecap="round" stroke-linejoin="round" stroke-miterlimit="10" points="
		307.401,178.144 304.784,174.758 318.19,164.543 320.809,167.928 307.401,178.144 	"/>
</g>
<g>
	
		<polyline fill-rule="evenodd" clip-rule="evenodd" fill="#FFFFFF" stroke="#000000" stroke-linecap="round" stroke-linejoin="round" stroke-miterlimit="10" points="
		275.607,238.218 291.187,238.218 291.187,244.667 275.607,244.667 275.607,238.218 	"/>
	
		<path fill-rule="evenodd" clip-rule="evenodd" fill="#FFFFFF" stroke="#000000" stroke-linecap="round" stroke-linejoin="round" stroke-miterlimit="10" d="
		M283.396,241.443"/>
</g>
<g>
	
		<line fill-rule="evenodd" clip-rule="evenodd" fill="none" stroke="#000000" stroke-linecap="round" stroke-linejoin="round" stroke-miterlimit="10" x1="587.671" y1="170.484" x2="587.671" y2="172.653"/>
</g>
<g>
	<path d="M29.981,10.405l1.569,2.364c0.432,0.614,0.773,1.16,1.137,1.773h0.045c0.364-0.637,0.728-1.205,1.114-1.796l1.523-2.342
		h2.183l-3.751,5.32l3.842,5.684h-2.251l-1.637-2.478c-0.432-0.637-0.796-1.25-1.183-1.91h-0.045c-0.364,0.66-0.728,1.25-1.16,1.91
		l-1.591,2.478h-2.206l3.911-5.616l-3.729-5.388H29.981z"/>
</g>
<g>
	<path d="M91.45,87.028l4.957-6.479c0.5-0.614,0.955-1.137,1.455-1.728v-0.045h-5.957v-1.591h8.367v1.25l-4.911,6.389
		c-0.478,0.614-0.91,1.182-1.41,1.728v0.045h6.412v1.591H91.45V87.028z"/>
</g>
<g>
	
		<polyline fill-rule="evenodd" clip-rule="evenodd" fill="#FFFFFF" stroke="#000000" stroke-linecap="round" stroke-linejoin="round" stroke-miterlimit="10" points="
		28.603,234.324 41.499,234.324 41.499,245.05 28.603,245.05 28.603,234.324 	"/>
	
		<path fill-rule="evenodd" clip-rule="evenodd" fill="#FFFFFF" stroke="#000000" stroke-linecap="round" stroke-linejoin="round" stroke-miterlimit="10" d="
		M35.049,239.686"/>
</g>
<g>
	
		<polyline fill-rule="evenodd" clip-rule="evenodd" fill="#FFFFFF" stroke="#000000" stroke-linecap="round" stroke-linejoin="round" stroke-miterlimit="10" points="
		559.069,235.921 570.37,235.921 570.37,244.539 559.069,244.539 559.069,235.921 	"/>
	
		<path fill-rule="evenodd" clip-rule="evenodd" fill="#FFFFFF" stroke="#000000" stroke-linecap="round" stroke-linejoin="round" stroke-miterlimit="10" d="
		M564.72,240.23"/>
</g>
<g>
	
		<polyline fill-rule="evenodd" clip-rule="evenodd" fill="none" stroke="#000000" stroke-linecap="round" stroke-linejoin="round" stroke-miterlimit="10" points="
		78.463,244.091 87.019,232.282 79.484,219.385 85.421,207.064 81.144,196.273 	"/>
</g>
</svg>
