<?xml version="1.0" encoding="utf-8"?>
<!-- Generator: Adobe Illustrator 15.0.0, SVG Export Plug-In . SVG Version: 6.00 Build 0)  -->
<!DOCTYPE svg PUBLIC "-//W3C//DTD SVG 1.1//EN" "http://www.w3.org/Graphics/SVG/1.1/DTD/svg11.dtd">
<svg version="1.1" id="_x3C_Layer_x3E_" xmlns="http://www.w3.org/2000/svg" xmlns:xlink="http://www.w3.org/1999/xlink" x="0px"
	 y="0px" width="721.965px" height="227.167px" viewBox="0 0 721.965 227.167" enable-background="new 0 0 721.965 227.167"
	 xml:space="preserve">
<g>
	<path d="M67.936,11.808l2.41,6.563c0.275,0.734,0.551,1.606,0.734,2.272h0.046c0.207-0.666,0.436-1.515,0.711-2.318l2.203-6.518
		h2.134l-3.029,7.917c-1.446,3.81-2.433,5.737-3.81,6.954c-1.01,0.849-1.974,1.193-2.479,1.285l-0.505-1.675
		c0.505-0.161,1.17-0.482,1.767-0.987c0.551-0.436,1.216-1.216,1.698-2.249c0.092-0.207,0.161-0.367,0.161-0.482
		s-0.046-0.275-0.161-0.528l-4.085-10.235H67.936z"/>
</g>
<g>
	
		<line fill-rule="evenodd" clip-rule="evenodd" fill="none" stroke="#000000" stroke-width="2" stroke-linecap="round" stroke-linejoin="round" stroke-miterlimit="10" x1="4.371" y1="221.651" x2="720.633" y2="221.651"/>
</g>
<g>
	
		<polyline fill-rule="evenodd" clip-rule="evenodd" fill="none" stroke="#000000" stroke-width="2" stroke-linecap="round" stroke-linejoin="round" stroke-miterlimit="10" points="
		1.664,75.435 8.753,75.048 23.896,73.373 31.694,73.179 39.556,73.888 55.279,76.144 59.145,76.531 62.947,76.595 70.487,76.015 
		85.308,73.695 89.11,73.373 92.913,73.308 100.71,74.017 117.207,76.724 121.654,77.11 126.165,77.239 130.804,77.046 
		140.277,75.886 154.325,73.695 160.962,73.05 165.15,72.985 170.95,73.501 185.257,76.08 188.736,76.466 192.28,76.595 
		195.954,76.401 203.558,75.242 215.415,72.985 219.539,72.471 223.663,72.212 227.853,72.276 236.358,73.243 249.634,75.177 
		258.849,75.886 263.617,75.821 268.449,75.499 292.938,73.05 297.771,72.985 307.179,73.565 324.643,76.015 332.634,76.595 
		339.272,76.144 352.804,73.824 365.949,71.439 372.008,70.924 375.423,71.182 378.902,71.761 393.144,75.499 398.17,76.337 
		401.457,76.337 408.868,75.627 437.094,71.439 443.729,70.924 450.046,71.439 478.528,75.95 485.102,76.401 488.902,76.144 
		497.347,74.532 512.103,70.924 517.063,70.279 525.506,70.73 564.88,74.275 569.454,74.468 573.385,74.146 580.667,72.857 
		599.612,68.604 606.379,67.702 609.924,67.831 613.659,68.475 631.771,73.695 635.57,74.339 639.116,74.468 642.597,74.146 
		662.506,70.343 666.76,69.828 673.269,69.635 680.423,70.215 706.585,73.565 711.418,73.824 	"/>
</g>
<g>
	
		<line fill-rule="evenodd" clip-rule="evenodd" fill="none" stroke="#000000" stroke-width="2" stroke-linecap="round" stroke-linejoin="round" stroke-miterlimit="10" x1="36.333" y1="219.525" x2="36.333" y2="8.029"/>
</g>
<g>
	
		<polyline fill-rule="evenodd" clip-rule="evenodd" stroke="#000000" stroke-linecap="round" stroke-linejoin="round" stroke-miterlimit="10" points="
		32.081,16.665 36.333,8.029 40.65,16.665 32.081,16.665 	"/>
</g>
<g>
	
		<polyline fill-rule="evenodd" clip-rule="evenodd" fill="none" stroke="#000000" stroke-width="2" stroke-linecap="round" stroke-linejoin="round" stroke-miterlimit="10" points="
		85.695,24.333 36.333,73.63 92.719,73.63 	"/>
</g>
<g>
	
		<polyline fill-rule="evenodd" clip-rule="evenodd" stroke="#000000" stroke-linecap="round" stroke-linejoin="round" stroke-miterlimit="10" points="
		82.666,33.419 85.695,24.333 76.545,27.361 82.666,33.419 	"/>
</g>
<g>
	
		<polyline fill-rule="evenodd" clip-rule="evenodd" stroke="#000000" stroke-linecap="round" stroke-linejoin="round" stroke-miterlimit="10" points="
		84.148,69.377 92.719,73.63 84.148,77.949 84.148,69.377 	"/>
</g>
<g>
	<path d="M77.874,54.983l1.583,2.387c0.436,0.62,0.78,1.17,1.147,1.79h0.046c0.367-0.643,0.734-1.216,1.125-1.813l1.538-2.364h2.203
		l-3.787,5.37l3.878,5.737h-2.272l-1.652-2.501c-0.436-0.643-0.803-1.262-1.193-1.928h-0.046c-0.367,0.666-0.734,1.262-1.17,1.928
		l-1.606,2.501h-2.226l3.947-5.668l-3.764-5.439H77.874z"/>
</g>
<g>
	<path d="M20.573,16.525l5.003-6.541c0.505-0.62,0.964-1.147,1.469-1.744V8.194h-6.013V6.588h8.445V7.85l-4.957,6.449
		c-0.482,0.62-0.918,1.193-1.423,1.744v0.046h6.472v1.606h-8.996V16.525z"/>
</g>
<g>
	
		<polyline fill-rule="evenodd" clip-rule="evenodd" fill="none" stroke="#000000" stroke-width="2" stroke-linecap="round" stroke-linejoin="round" stroke-miterlimit="10" points="
		257.43,64.995 242.738,91.738 230.237,113.004 218.121,132.014 207.618,146.966 197.178,160.434 188.092,170.873 178.813,180.472 
		167.729,190.526 157.805,198.389 149.814,203.415 143.241,206.766 135.38,209.924 127.195,212.629 116.756,215.209 
		106.251,217.076 93.75,218.688 75.964,219.91 48.642,220.943 41.875,221.716 35.108,222.811 43.1,221.524 43.1,221.588 	"/>
</g>
<path fill-rule="evenodd" clip-rule="evenodd" stroke="#000000" stroke-width="2" stroke-linecap="round" stroke-linejoin="round" stroke-miterlimit="10" d="
	M256.399,66.864c-0.966-0.58-1.353-1.869-0.772-2.9c0.579-1.031,1.803-1.417,2.834-0.837c1.032,0.579,1.354,1.869,0.839,2.9
	C258.718,67.057,257.43,67.445,256.399,66.864L256.399,66.864"/>
<g>
	
		<polyline fill-rule="evenodd" clip-rule="evenodd" fill="none" stroke="#000000" stroke-linecap="round" stroke-linejoin="round" stroke-miterlimit="10" points="
		52.25,219.46 43.1,221.588 50.188,227.839 	"/>
</g>
<path fill-rule="evenodd" clip-rule="evenodd" fill="none" stroke="#000000" stroke-width="2" stroke-linecap="round" stroke-linejoin="round" stroke-miterlimit="10" d="
	M420.08,62.804c0,0-15.853,114.704-41.178,127.982c-24.939,13.015-37.376-15.598-53.099-15.146
	c-15.918,0.45-52.392,34.026-73.785,41.691c-21.33,7.542-42.789,2.514-51.489,3.286c-8.636,0.712-8.636,1.033,0,1.033"/>
<path fill-rule="evenodd" clip-rule="evenodd" stroke="#000000" stroke-width="2" stroke-linecap="round" stroke-linejoin="round" stroke-miterlimit="10" d="
	M419.821,64.931c-1.16-0.129-1.996-1.226-1.869-2.385c0.193-1.224,1.29-1.998,2.451-1.868c1.16,0.194,1.996,1.289,1.804,2.449
	C422.076,64.286,420.981,65.123,419.821,64.931L419.821,64.931"/>
<g>
	
		<polyline fill-rule="evenodd" clip-rule="evenodd" fill="none" stroke="#000000" stroke-width="2" stroke-linecap="round" stroke-linejoin="round" stroke-miterlimit="10" points="
		209.1,217.397 200.529,221.651 209.1,225.969 	"/>
</g>
<g>
	
		<polyline fill-rule="evenodd" clip-rule="evenodd" fill="none" stroke="#000000" stroke-width="2" stroke-linecap="round" stroke-linejoin="round" stroke-miterlimit="10" points="
		630.995,65.381 628.159,78.27 624.938,96.313 622.104,115.323 618.881,138.973 616.754,151.409 614.175,161.593 611.47,169.196 
		609.279,173.964 605.283,180.472 601.482,185.113 597.679,188.851 590.913,194.005 582.987,198.451 577.188,200.771 
		571.711,202.063 567.391,202.513 563.978,202.382 559.466,201.674 554.183,199.805 548.384,196.455 543.612,192.719 
		536.784,186.209 529.308,178.862 525.506,175.964 522.478,174.674 520.414,174.353 516.677,174.931 511.651,176.864 
		504.112,181.248 494.768,187.884 474.404,202.835 465.253,208.7 458.615,212.18 452.106,214.692 443.924,216.818 432.645,218.88 
		422.271,220.104 409.769,221.008 395.784,221.524 381.479,221.524 385.411,221.588 	"/>
</g>
<path fill-rule="evenodd" clip-rule="evenodd" stroke="#000000" stroke-width="2" stroke-linecap="round" stroke-linejoin="round" stroke-miterlimit="10" d="
	M631.513,63.319c-1.161-0.258-2.321,0.451-2.578,1.611c-0.258,1.096,0.45,2.255,1.61,2.578c1.097,0.257,2.319-0.452,2.578-1.611
	C633.38,64.737,632.67,63.578,631.513,63.319L631.513,63.319"/>
<g>
	
		<polyline fill-rule="evenodd" clip-rule="evenodd" fill="none" stroke="#000000" stroke-width="2" stroke-linecap="round" stroke-linejoin="round" stroke-miterlimit="10" points="
		393.916,217.076 385.411,221.588 394.11,225.646 	"/>
</g>
<g>
	
		<line fill-rule="evenodd" clip-rule="evenodd" fill="none" stroke="#000000" stroke-width="2" stroke-linecap="round" stroke-linejoin="round" stroke-miterlimit="10" x1="518.611" y1="171.13" x2="518.611" y2="216.496"/>
</g>
<path fill-rule="evenodd" clip-rule="evenodd" fill="none" stroke="#000000" stroke-width="2" stroke-linecap="round" stroke-linejoin="round" stroke-miterlimit="10" d="
	M518.611,175.383c-2.319,0-4.253-1.934-4.253-4.253c0-2.385,1.934-4.316,4.253-4.316c2.385,0,4.317,1.932,4.317,4.316
	C522.929,173.449,520.996,175.383,518.611,175.383L518.611,175.383z"/>
<path fill-rule="evenodd" clip-rule="evenodd" fill="none" stroke="#000000" stroke-width="2" stroke-linecap="round" stroke-linejoin="round" stroke-miterlimit="10" d="
	M518.611,212.244c-2.319,0-4.253,1.934-4.253,4.252c0,2.384,1.934,4.316,4.253,4.316c2.385,0,4.317-1.933,4.317-4.316
	C522.929,214.178,520.996,212.244,518.611,212.244L518.611,212.244z"/>
<g>
	
		<path fill-rule="evenodd" clip-rule="evenodd" stroke="#000000" stroke-width="2" stroke-linecap="round" stroke-linejoin="round" stroke-miterlimit="10" d="
		M317.619,176.091c-0.003-2.977-3.222-4.833-5.803-3.349c-2.576,1.499-2.571,5.214,0.007,6.699
		C314.402,180.926,317.616,179.068,317.619,176.091"/>
</g>
<g>
	
		<path fill-rule="evenodd" clip-rule="evenodd" stroke="#000000" stroke-width="2" stroke-linecap="round" stroke-linejoin="round" stroke-miterlimit="10" d="
		M329.67,171.773c-0.004-2.976-3.222-4.834-5.801-3.347c-2.578,1.496-2.575,5.211,0.004,6.698c2.582,1.481,5.796-0.376,5.797-3.35"
		/>
</g>
<g>
	
		<path fill-rule="evenodd" clip-rule="evenodd" stroke="#000000" stroke-width="2" stroke-linecap="round" stroke-linejoin="round" stroke-miterlimit="10" d="
		M341.591,175.511c-0.004-2.974-3.222-4.832-5.801-3.348c-2.576,1.496-2.573,5.213,0.005,6.699
		C338.374,180.344,341.588,178.487,341.591,175.511"/>
</g>
</svg>
