<?xml version="1.0" encoding="utf-8"?>
<!-- Generator: Adobe Illustrator 15.0.0, SVG Export Plug-In . SVG Version: 6.00 Build 0)  -->
<!DOCTYPE svg PUBLIC "-//W3C//DTD SVG 1.1//EN" "http://www.w3.org/Graphics/SVG/1.1/DTD/svg11.dtd">
<svg version="1.1" id="_x3C_Layer_x3E_" xmlns="http://www.w3.org/2000/svg" xmlns:xlink="http://www.w3.org/1999/xlink" x="0px"
	 y="0px" width="737.008px" height="237px" viewBox="0 0 737.008 237" enable-background="new 0 0 737.008 237"
	 xml:space="preserve">
<g>
	
		<polyline fill-rule="evenodd" clip-rule="evenodd" fill="#FFFFFF" stroke="#000000" stroke-linejoin="round" stroke-miterlimit="10" points="
		500.831,83.688 500.831,46.814 580.112,46.814 500.831,83.688 	"/>
</g>
<g>
	
		<polyline fill-rule="evenodd" clip-rule="evenodd" fill="#FFFFFF" stroke="#000000" stroke-linejoin="round" stroke-miterlimit="10" points="
		580.112,46.814 580.112,83.688 500.831,83.688 580.112,46.814 	"/>
</g>
<g>
	
		<polyline fill-rule="evenodd" clip-rule="evenodd" fill="#919396" stroke="#000000" stroke-linejoin="round" stroke-miterlimit="10" points="
		386.254,82.683 386.254,45.808 465.609,45.808 386.254,82.683 	"/>
</g>
<g>
	
		<polyline fill-rule="evenodd" clip-rule="evenodd" fill="#919396" stroke="#000000" stroke-linejoin="round" stroke-miterlimit="10" points="
		465.609,45.808 465.609,82.683 386.254,82.683 465.609,45.808 	"/>
</g>
<g>
	
		<polyline fill-rule="evenodd" clip-rule="evenodd" fill="#919396" stroke="#000000" stroke-linejoin="round" stroke-miterlimit="10" points="
		386.254,119.7 386.254,82.826 465.609,82.826 386.254,119.7 	"/>
</g>
<g>
	
		<polyline fill-rule="evenodd" clip-rule="evenodd" fill="#919396" stroke="#000000" stroke-linejoin="round" stroke-miterlimit="10" points="
		465.609,82.826 465.609,119.7 386.254,119.7 465.609,82.826 	"/>
</g>
<g>
	
		<polyline fill-rule="evenodd" clip-rule="evenodd" fill="#919396" stroke="#000000" stroke-linejoin="round" stroke-miterlimit="10" points="
		386.254,156.645 386.254,119.7 465.609,119.7 386.254,156.645 	"/>
</g>
<g>
	
		<polyline fill-rule="evenodd" clip-rule="evenodd" fill="#919396" stroke="#000000" stroke-linejoin="round" stroke-miterlimit="10" points="
		465.609,119.7 465.609,156.645 386.254,156.645 465.609,119.7 	"/>
</g>
<g>
	
		<polyline fill-rule="evenodd" clip-rule="evenodd" fill="#919396" stroke="#000000" stroke-linejoin="round" stroke-miterlimit="10" points="
		386.254,193.52 386.254,156.645 465.609,156.645 386.254,193.52 	"/>
</g>
<g>
	
		<polyline fill-rule="evenodd" clip-rule="evenodd" fill="#919396" stroke="#000000" stroke-linejoin="round" stroke-miterlimit="10" points="
		465.609,156.645 465.609,193.52 386.254,193.52 465.609,156.645 	"/>
</g>
<g>
	
		<polyline fill-rule="evenodd" clip-rule="evenodd" fill="#919396" stroke="#000000" stroke-linejoin="round" stroke-miterlimit="10" points="
		386.254,230.464 386.254,193.52 465.609,193.52 386.254,230.464 	"/>
</g>
<g>
	
		<polyline fill-rule="evenodd" clip-rule="evenodd" fill="#919396" stroke="#000000" stroke-linejoin="round" stroke-miterlimit="10" points="
		465.609,193.52 465.609,230.464 386.254,230.464 465.609,193.52 	"/>
</g>
<g>
	
		<polyline fill-rule="evenodd" clip-rule="evenodd" fill="#919396" stroke="#000000" stroke-linejoin="round" stroke-miterlimit="10" points="
		225.174,82.683 225.174,45.808 304.529,45.808 225.174,82.683 	"/>
</g>
<g>
	
		<polyline fill-rule="evenodd" clip-rule="evenodd" fill="#919396" stroke="#000000" stroke-linejoin="round" stroke-miterlimit="10" points="
		304.529,45.808 304.529,82.683 225.174,82.683 304.529,45.808 	"/>
</g>
<g>
	
		<polyline fill-rule="evenodd" clip-rule="evenodd" fill="#919396" stroke="#000000" stroke-linejoin="round" stroke-miterlimit="10" points="
		225.174,119.7 225.174,82.826 304.529,82.826 225.174,119.7 	"/>
</g>
<g>
	
		<polyline fill-rule="evenodd" clip-rule="evenodd" fill="#919396" stroke="#000000" stroke-linejoin="round" stroke-miterlimit="10" points="
		304.529,82.826 304.529,119.7 225.174,119.7 304.529,82.826 	"/>
</g>
<g>
	
		<polyline fill-rule="evenodd" clip-rule="evenodd" fill="#919396" stroke="#000000" stroke-linejoin="round" stroke-miterlimit="10" points="
		225.174,156.645 225.174,119.7 304.529,119.7 225.174,156.645 	"/>
</g>
<g>
	
		<polyline fill-rule="evenodd" clip-rule="evenodd" fill="#919396" stroke="#000000" stroke-linejoin="round" stroke-miterlimit="10" points="
		304.529,119.7 304.529,156.645 225.174,156.645 304.529,119.7 	"/>
</g>
<g>
	
		<polyline fill-rule="evenodd" clip-rule="evenodd" fill="#919396" stroke="#000000" stroke-linejoin="round" stroke-miterlimit="10" points="
		225.174,193.52 225.174,156.645 304.529,156.645 225.174,193.52 	"/>
</g>
<g>
	
		<polyline fill-rule="evenodd" clip-rule="evenodd" fill="#919396" stroke="#000000" stroke-linejoin="round" stroke-miterlimit="10" points="
		304.529,156.645 304.529,193.52 225.174,193.52 304.529,156.645 	"/>
</g>
<g>
	
		<polyline fill-rule="evenodd" clip-rule="evenodd" fill="#B3B5B8" stroke="#000000" stroke-linejoin="round" stroke-miterlimit="10" points="
		225.174,230.464 225.174,193.52 304.529,193.52 225.174,230.464 	"/>
</g>
<g>
	
		<polyline fill-rule="evenodd" clip-rule="evenodd" fill="#B3B5B8" stroke="#000000" stroke-linejoin="round" stroke-miterlimit="10" points="
		304.529,193.52 304.529,230.464 225.174,230.464 304.529,193.52 	"/>
</g>
<g>
	
		<polyline fill-rule="evenodd" clip-rule="evenodd" fill="#C7C9CB" stroke="#000000" stroke-linejoin="round" stroke-miterlimit="10" points="
		225.174,230.464 225.174,193.52 304.529,193.52 225.174,230.464 	"/>
</g>
<g>
	
		<polyline fill-rule="evenodd" clip-rule="evenodd" fill="#C7C9CB" stroke="#000000" stroke-linejoin="round" stroke-miterlimit="10" points="
		304.529,193.52 304.529,230.464 225.174,230.464 304.529,193.52 	"/>
</g>
<g>
	
		<polyline fill-rule="evenodd" clip-rule="evenodd" fill="#C7C9CB" stroke="#000000" stroke-linejoin="round" stroke-miterlimit="10" points="
		145.245,230.464 145.245,193.52 224.527,193.52 145.245,230.464 	"/>
</g>
<g>
	
		<polyline fill-rule="evenodd" clip-rule="evenodd" fill="#C7C9CB" stroke="#000000" stroke-linejoin="round" stroke-miterlimit="10" points="
		224.527,193.52 224.527,230.464 145.245,230.464 224.527,193.52 	"/>
</g>
<g>
	
		<polyline fill-rule="evenodd" clip-rule="evenodd" fill="#C7C9CB" stroke="#000000" stroke-linejoin="round" stroke-miterlimit="10" points="
		145.245,193.52 145.245,156.645 224.527,156.645 145.245,193.52 	"/>
</g>
<g>
	
		<polyline fill-rule="evenodd" clip-rule="evenodd" fill="#C7C9CB" stroke="#000000" stroke-linejoin="round" stroke-miterlimit="10" points="
		224.527,156.645 224.527,193.52 145.245,193.52 224.527,156.645 	"/>
</g>
<g>
	
		<polyline fill-rule="evenodd" clip-rule="evenodd" fill="#949698" stroke="#000000" stroke-linejoin="round" stroke-miterlimit="10" points="
		145.245,82.683 145.245,45.808 224.527,45.808 145.245,82.683 	"/>
</g>
<g>
	
		<polyline fill-rule="evenodd" clip-rule="evenodd" fill="#C7C9CB" stroke="#000000" stroke-linejoin="round" stroke-miterlimit="10" points="
		224.527,45.808 224.527,82.683 145.245,82.683 224.527,45.808 	"/>
</g>
<g>
	
		<polyline fill-rule="evenodd" clip-rule="evenodd" fill="#949698" stroke="#000000" stroke-linejoin="round" stroke-miterlimit="10" points="
		145.245,119.7 145.245,82.826 224.527,82.826 145.245,119.7 	"/>
</g>
<g>
	
		<polyline fill-rule="evenodd" clip-rule="evenodd" fill="#C7C9CB" stroke="#000000" stroke-linejoin="round" stroke-miterlimit="10" points="
		224.527,82.826 224.527,119.7 145.245,119.7 224.527,82.826 	"/>
</g>
<g>
	
		<polyline fill-rule="evenodd" clip-rule="evenodd" fill="#949698" stroke="#000000" stroke-linejoin="round" stroke-miterlimit="10" points="
		145.245,156.645 145.245,119.7 224.527,119.7 145.245,156.645 	"/>
</g>
<g>
	
		<polyline fill-rule="evenodd" clip-rule="evenodd" fill="#C7C9CB" stroke="#000000" stroke-linejoin="round" stroke-miterlimit="10" points="
		224.527,119.7 224.527,156.645 145.245,156.645 224.527,119.7 	"/>
</g>
<g>
	
		<polyline fill-rule="evenodd" clip-rule="evenodd" fill="#FFFFFF" stroke="#000000" stroke-linejoin="round" stroke-miterlimit="10" points="
		386.398,8.216 465.681,8.216 465.681,45.089 386.398,45.089 386.398,8.216 	"/>
	
		<path fill-rule="evenodd" clip-rule="evenodd" fill="#FFFFFF" stroke="#000000" stroke-linejoin="round" stroke-miterlimit="10" d="
		M426.04,26.653"/>
</g>
<g>
	<rect x="386.398" y="8.216" fill-rule="evenodd" clip-rule="evenodd" fill="none" width="79.283" height="36.873"/>
</g>
<g>
	<path d="M412.451,13.027h5.035v1.013h-3.814v3.107h3.523v0.999h-3.523v4.23h-1.221V13.027z"/>
	<path d="M424.047,17.992h-3.62v3.371h4.051v1.012h-5.271v-9.349h5.063v1.013h-3.842v2.955h3.62V17.992z"/>
	<path d="M433.923,18.27c-0.068-1.304-0.152-2.885-0.152-4.037h-0.027c-0.333,1.082-0.707,2.261-1.18,3.551l-1.65,4.536h-0.915
		l-1.526-4.453c-0.443-1.332-0.805-2.524-1.067-3.634h-0.028c-0.027,1.165-0.097,2.719-0.18,4.134l-0.25,4.008h-1.15l0.651-9.349
		h1.54l1.594,4.522c0.389,1.151,0.694,2.178,0.943,3.148h0.028c0.249-0.943,0.583-1.97,0.999-3.148l1.664-4.522h1.539l0.583,9.349
		h-1.192L433.923,18.27z"/>
</g>
<g>
	
		<polyline fill-rule="evenodd" clip-rule="evenodd" fill="#FFFFFF" stroke="#000000" stroke-linejoin="round" stroke-miterlimit="10" points="
		226.179,8.216 305.462,8.216 305.462,45.089 226.179,45.089 226.179,8.216 	"/>
	
		<path fill-rule="evenodd" clip-rule="evenodd" fill="#FFFFFF" stroke="#000000" stroke-linejoin="round" stroke-miterlimit="10" d="
		M265.822,26.653"/>
</g>
<g>
	<rect x="226.179" y="8.216" fill-rule="evenodd" clip-rule="evenodd" fill="none" width="79.283" height="36.873"/>
</g>
<g>
	<path d="M244.534,22.084c-0.43,0.222-1.332,0.444-2.469,0.444c-2.635,0-4.604-1.665-4.604-4.744c0-2.94,1.983-4.91,4.882-4.91
		c1.151,0,1.9,0.25,2.219,0.417l-0.305,0.985c-0.444-0.222-1.096-0.389-1.873-0.389c-2.191,0-3.648,1.401-3.648,3.856
		c0,2.302,1.318,3.759,3.579,3.759c0.749,0,1.498-0.153,1.983-0.389L244.534,22.084z"/>
	<path d="M247.628,19.435l-0.971,2.94h-1.249l3.19-9.349h1.442l3.19,9.349h-1.29l-0.999-2.94H247.628z M250.707,18.492l-0.929-2.691
		c-0.208-0.61-0.347-1.165-0.485-1.706h-0.028c-0.139,0.541-0.277,1.124-0.472,1.692l-0.916,2.705H250.707z"/>
	<path d="M255.313,14.053h-2.843v-1.026h6.921v1.026h-2.857v8.322h-1.221V14.053z"/>
	<path d="M260.417,13.027h5.035v1.013h-3.814v3.107h3.523v0.999h-3.523v4.23h-1.221V13.027z"/>
	<path d="M272.013,17.992h-3.62v3.371h4.05v1.012h-5.271v-9.349h5.063v1.013h-3.842v2.955h3.62V17.992z"/>
	<path d="M281.89,18.27c-0.069-1.304-0.153-2.885-0.153-4.037h-0.028c-0.333,1.082-0.707,2.261-1.179,3.551l-1.651,4.536h-0.915
		l-1.526-4.453c-0.444-1.332-0.805-2.524-1.068-3.634h-0.028c-0.028,1.165-0.097,2.719-0.18,4.134l-0.25,4.008h-1.151l0.652-9.349
		h1.54l1.595,4.522c0.389,1.151,0.694,2.178,0.943,3.148h0.028c0.25-0.943,0.583-1.97,0.999-3.148l1.665-4.522h1.54l0.583,9.349
		h-1.193L281.89,18.27z"/>
</g>
<g>
	
		<polyline fill-rule="evenodd" clip-rule="evenodd" fill="#FFFFFF" stroke="#000000" stroke-linejoin="round" stroke-miterlimit="10" points="
		145.172,8.216 224.527,8.216 224.527,45.089 145.172,45.089 145.172,8.216 	"/>
	
		<path fill-rule="evenodd" clip-rule="evenodd" fill="#FFFFFF" stroke="#000000" stroke-linejoin="round" stroke-miterlimit="10" d="
		M184.85,26.653"/>
</g>
<g>
	<rect x="145.172" y="8.216" fill-rule="evenodd" clip-rule="evenodd" fill="none" width="79.354" height="36.873"/>
</g>
<g>
	<path d="M178.19,22.084c-0.43,0.222-1.332,0.444-2.469,0.444c-2.635,0-4.604-1.665-4.604-4.744c0-2.94,1.983-4.91,4.882-4.91
		c1.151,0,1.9,0.25,2.219,0.417l-0.305,0.985c-0.444-0.222-1.096-0.389-1.873-0.389c-2.191,0-3.648,1.401-3.648,3.856
		c0,2.302,1.318,3.759,3.579,3.759c0.749,0,1.498-0.153,1.983-0.389L178.19,22.084z"/>
	<path d="M181.284,19.435l-0.971,2.94h-1.249l3.19-9.349h1.442l3.19,9.349h-1.29l-0.999-2.94H181.284z M184.363,18.492l-0.929-2.691
		c-0.208-0.61-0.347-1.165-0.485-1.706h-0.028c-0.139,0.541-0.277,1.124-0.472,1.692l-0.916,2.705H184.363z"/>
	<path d="M188.969,14.053h-2.843v-1.026h6.921v1.026h-2.857v8.322h-1.221V14.053z"/>
</g>
<g>
	
		<polyline fill-rule="evenodd" clip-rule="evenodd" fill="#FFFFFF" stroke="#000000" stroke-linejoin="round" stroke-miterlimit="10" points="
		4.001,8.216 144.742,8.216 144.742,45.089 4.001,45.089 4.001,8.216 	"/>
	
		<path fill-rule="evenodd" clip-rule="evenodd" fill="#FFFFFF" stroke="#000000" stroke-linejoin="round" stroke-miterlimit="10" d="
		M74.372,26.653"/>
</g>
<g>
	<rect x="4.001" y="8.216" fill-rule="evenodd" clip-rule="evenodd" fill="none" width="140.74" height="36.873"/>
</g>
<g>
	<path d="M19.941,18.583l-0.896,2.714h-1.152l2.945-8.629h1.332l2.944,8.629h-1.19L23,18.583H19.941z M22.783,17.712l-0.857-2.484
		c-0.192-0.563-0.32-1.075-0.448-1.574h-0.025c-0.128,0.499-0.256,1.037-0.436,1.562l-0.845,2.497H22.783z"/>
	<path d="M33.602,17.507c-0.064-1.204-0.141-2.663-0.141-3.725h-0.026c-0.307,0.998-0.653,2.086-1.088,3.277l-1.523,4.186h-0.845
		l-1.408-4.109c-0.41-1.229-0.743-2.33-0.986-3.354h-0.026c-0.025,1.075-0.089,2.509-0.166,3.815l-0.23,3.7H26.1l0.602-8.629h1.421
		l1.473,4.174c0.358,1.063,0.64,2.01,0.87,2.906h0.025c0.23-0.871,0.538-1.818,0.922-2.906l1.536-4.174h1.421l0.538,8.629h-1.101
		L33.602,17.507z"/>
	<path d="M41.08,17.251h-3.341v3.111h3.738v0.935h-4.865v-8.629h4.673v0.935h-3.546v2.727h3.341V17.251z"/>
	<path d="M44.768,13.616h-2.624v-0.948h6.388v0.948h-2.637v7.681h-1.127V13.616z"/>
	<path d="M50.607,12.668v3.61h4.174v-3.61h1.126v8.629h-1.126v-4.045h-4.174v4.045H49.48v-8.629H50.607z"/>
</g>
<g>
	<path d="M7.547,34.675c0.5,0.32,1.216,0.563,1.984,0.563c1.139,0,1.805-0.602,1.805-1.472c0-0.794-0.461-1.268-1.626-1.703
		c-1.408-0.512-2.279-1.254-2.279-2.458c0-1.344,1.114-2.343,2.791-2.343c0.871,0,1.523,0.205,1.895,0.423l-0.308,0.909
		c-0.269-0.167-0.845-0.41-1.626-0.41c-1.178,0-1.626,0.704-1.626,1.293c0,0.807,0.525,1.203,1.716,1.664
		c1.459,0.563,2.189,1.268,2.189,2.535c0,1.331-0.973,2.496-3.008,2.496c-0.832,0-1.741-0.256-2.202-0.563L7.547,34.675z"/>
	<path d="M15.92,36.032v-3.661l-2.739-4.968h1.28l1.216,2.381c0.32,0.653,0.589,1.178,0.858,1.78h0.026
		c0.23-0.563,0.537-1.127,0.87-1.78l1.242-2.381h1.254l-2.88,4.955v3.674H15.92z"/>
	<path d="M20.62,34.675c0.5,0.32,1.216,0.563,1.984,0.563c1.139,0,1.805-0.602,1.805-1.472c0-0.794-0.461-1.268-1.626-1.703
		c-1.408-0.512-2.279-1.254-2.279-2.458c0-1.344,1.114-2.343,2.791-2.343c0.871,0,1.523,0.205,1.895,0.423l-0.308,0.909
		c-0.269-0.167-0.845-0.41-1.626-0.41c-1.178,0-1.626,0.704-1.626,1.293c0,0.807,0.525,1.203,1.716,1.664
		c1.459,0.563,2.189,1.268,2.189,2.535c0,1.331-0.973,2.496-3.008,2.496c-0.832,0-1.741-0.256-2.202-0.563L20.62,34.675z"/>
	<path d="M28.712,28.351h-2.625v-0.948h6.388v0.948h-2.637v7.681h-1.126V28.351z"/>
	<path d="M37.893,31.987h-3.341v3.111h3.738v0.935h-4.865v-8.629h4.673v0.935h-3.546v2.727h3.341V31.987z"/>
	<path d="M47.008,32.243c-0.063-1.204-0.141-2.663-0.141-3.725h-0.025c-0.308,0.998-0.653,2.086-1.088,3.277l-1.523,4.186h-0.845
		l-1.408-4.109c-0.409-1.229-0.742-2.33-0.985-3.354h-0.026c-0.026,1.075-0.089,2.509-0.167,3.815l-0.23,3.7h-1.063l0.602-8.629
		h1.421l1.472,4.174c0.358,1.063,0.64,2.01,0.871,2.906h0.025c0.23-0.871,0.538-1.818,0.922-2.906l1.536-4.174h1.421l0.537,8.629
		h-1.101L47.008,32.243z"/>
</g>
<g>
	
		<polyline fill-rule="evenodd" clip-rule="evenodd" fill="#FFFFFF" stroke="#000000" stroke-linejoin="round" stroke-miterlimit="10" points="
		4.001,45.808 144.742,45.808 144.742,82.683 4.001,82.683 4.001,45.808 	"/>
	
		<path fill-rule="evenodd" clip-rule="evenodd" fill="#FFFFFF" stroke="#000000" stroke-linejoin="round" stroke-miterlimit="10" d="
		M74.372,64.245"/>
</g>
<g>
	<rect x="4.001" y="45.808" fill-rule="evenodd" clip-rule="evenodd" fill="none" width="140.74" height="36.875"/>
</g>
<g>
	<path d="M7.547,68.027c0.5,0.32,1.216,0.563,1.984,0.563c1.139,0,1.805-0.602,1.805-1.473c0-0.794-0.461-1.268-1.626-1.703
		c-1.408-0.512-2.279-1.254-2.279-2.458c0-1.344,1.114-2.343,2.791-2.343c0.871,0,1.523,0.205,1.895,0.422l-0.308,0.909
		c-0.269-0.167-0.845-0.41-1.626-0.41c-1.178,0-1.626,0.704-1.626,1.293c0,0.807,0.525,1.204,1.716,1.665
		c1.459,0.563,2.189,1.267,2.189,2.535c0,1.332-0.973,2.497-3.008,2.497c-0.832,0-1.741-0.256-2.202-0.563L7.547,68.027z"/>
	<path d="M15.396,66.67L14.5,69.384h-1.152l2.945-8.628h1.332l2.944,8.628h-1.19l-0.922-2.714H15.396z M18.238,65.8l-0.857-2.483
		c-0.192-0.563-0.32-1.076-0.448-1.575h-0.025c-0.128,0.5-0.256,1.037-0.436,1.562L15.626,65.8H18.238z"/>
</g>
<g>
	
		<polyline fill-rule="evenodd" clip-rule="evenodd" fill="#FFFFFF" stroke="#000000" stroke-linejoin="round" stroke-miterlimit="10" points="
		4.001,82.826 144.742,82.826 144.742,119.7 4.001,119.7 4.001,82.826 	"/>
	
		<path fill-rule="evenodd" clip-rule="evenodd" fill="#FFFFFF" stroke="#000000" stroke-linejoin="round" stroke-miterlimit="10" d="
		M74.372,101.263"/>
</g>
<g>
	<rect x="4.001" y="82.826" fill-rule="evenodd" clip-rule="evenodd" fill="none" width="140.74" height="36.874"/>
</g>
<g>
	<path d="M7.547,105.116c0.5,0.32,1.216,0.563,1.984,0.563c1.139,0,1.805-0.602,1.805-1.473c0-0.794-0.461-1.268-1.626-1.703
		c-1.408-0.512-2.279-1.254-2.279-2.458c0-1.344,1.114-2.343,2.791-2.343c0.871,0,1.523,0.205,1.895,0.422l-0.308,0.909
		c-0.269-0.167-0.845-0.41-1.626-0.41c-1.178,0-1.626,0.704-1.626,1.293c0,0.807,0.525,1.204,1.716,1.665
		c1.459,0.563,2.189,1.267,2.189,2.535c0,1.332-0.973,2.497-3.008,2.497c-0.832,0-1.741-0.256-2.202-0.563L7.547,105.116z"/>
	<path d="M14,97.973c0.486-0.115,1.268-0.192,2.035-0.192c1.114,0,1.831,0.192,2.355,0.627c0.448,0.333,0.73,0.845,0.73,1.523
		c0,0.845-0.563,1.575-1.459,1.895v0.038c0.819,0.192,1.779,0.871,1.779,2.151c0,0.743-0.294,1.319-0.742,1.728
		c-0.589,0.551-1.562,0.807-2.97,0.807c-0.768,0-1.357-0.051-1.728-0.103V97.973z M15.114,101.506h1.012
		c1.165,0,1.856-0.627,1.856-1.459c0-0.999-0.755-1.408-1.882-1.408c-0.512,0-0.807,0.039-0.986,0.077V101.506z M15.114,105.628
		c0.23,0.039,0.538,0.052,0.935,0.052c1.152,0,2.215-0.423,2.215-1.677c0-1.165-1.011-1.665-2.228-1.665h-0.922V105.628z"/>
</g>
<g>
	
		<polyline fill-rule="evenodd" clip-rule="evenodd" fill="#FFFFFF" stroke="#000000" stroke-linejoin="round" stroke-miterlimit="10" points="
		4.001,119.7 144.742,119.7 144.742,156.645 4.001,156.645 4.001,119.7 	"/>
	
		<path fill-rule="evenodd" clip-rule="evenodd" fill="#FFFFFF" stroke="#000000" stroke-linejoin="round" stroke-miterlimit="10" d="
		M74.372,138.172"/>
</g>
<g>
	<rect x="4.001" y="119.7" fill-rule="evenodd" clip-rule="evenodd" fill="none" width="140.74" height="36.945"/>
</g>
<g>
	<path d="M7.547,141.991c0.5,0.32,1.216,0.563,1.984,0.563c1.139,0,1.805-0.602,1.805-1.472c0-0.794-0.461-1.268-1.626-1.703
		c-1.408-0.512-2.279-1.254-2.279-2.458c0-1.344,1.114-2.343,2.791-2.343c0.871,0,1.523,0.205,1.895,0.423l-0.308,0.909
		c-0.269-0.167-0.845-0.41-1.626-0.41c-1.178,0-1.626,0.704-1.626,1.293c0,0.807,0.525,1.203,1.716,1.664
		c1.459,0.563,2.189,1.268,2.189,2.535c0,1.331-0.973,2.496-3.008,2.496c-0.832,0-1.741-0.256-2.202-0.563L7.547,141.991z"/>
	<path d="M20.017,143.079c-0.396,0.205-1.229,0.409-2.278,0.409c-2.433,0-4.25-1.536-4.25-4.378c0-2.714,1.831-4.532,4.506-4.532
		c1.063,0,1.754,0.23,2.048,0.384l-0.282,0.909c-0.41-0.205-1.011-0.358-1.729-0.358c-2.022,0-3.367,1.293-3.367,3.559
		c0,2.125,1.216,3.469,3.303,3.469c0.691,0,1.382-0.141,1.83-0.358L20.017,143.079z"/>
</g>
<g>
	
		<polyline fill-rule="evenodd" clip-rule="evenodd" fill="#FFFFFF" stroke="#000000" stroke-linejoin="round" stroke-miterlimit="10" points="
		4.001,156.645 144.742,156.645 144.742,193.52 4.001,193.52 4.001,156.645 	"/>
	
		<path fill-rule="evenodd" clip-rule="evenodd" fill="#FFFFFF" stroke="#000000" stroke-linejoin="round" stroke-miterlimit="10" d="
		M74.372,175.083"/>
</g>
<g>
	<rect x="4.001" y="156.645" fill-rule="evenodd" clip-rule="evenodd" fill="none" width="140.74" height="36.875"/>
</g>
<g>
	<path d="M7.547,178.937c0.5,0.32,1.216,0.563,1.984,0.563c1.139,0,1.805-0.602,1.805-1.473c0-0.794-0.461-1.268-1.626-1.703
		c-1.408-0.512-2.279-1.254-2.279-2.458c0-1.344,1.114-2.343,2.791-2.343c0.871,0,1.523,0.205,1.895,0.422l-0.308,0.909
		c-0.269-0.167-0.845-0.41-1.626-0.41c-1.178,0-1.626,0.704-1.626,1.293c0,0.807,0.525,1.204,1.716,1.665
		c1.459,0.563,2.189,1.267,2.189,2.535c0,1.332-0.973,2.497-3.008,2.497c-0.832,0-1.741-0.256-2.202-0.563L7.547,178.937z"/>
	<path d="M14,171.793c0.678-0.115,1.485-0.192,2.368-0.192c1.601,0,2.74,0.384,3.495,1.076c0.781,0.704,1.229,1.703,1.229,3.098
		c0,1.408-0.448,2.561-1.242,3.354c-0.819,0.807-2.151,1.242-3.828,1.242c-0.807,0-1.459-0.038-2.022-0.103V171.793z
		 M15.114,179.423c0.282,0.039,0.691,0.051,1.127,0.051c2.394,0,3.674-1.332,3.674-3.662c0.013-2.035-1.139-3.328-3.495-3.328
		c-0.576,0-1.011,0.051-1.306,0.115V179.423z"/>
</g>
<g>
	
		<polyline fill-rule="evenodd" clip-rule="evenodd" fill="#FFFFFF" stroke="#000000" stroke-linejoin="round" stroke-miterlimit="10" points="
		4.001,193.52 144.742,193.52 144.742,230.464 4.001,230.464 4.001,193.52 	"/>
	
		<path fill-rule="evenodd" clip-rule="evenodd" fill="#FFFFFF" stroke="#000000" stroke-linejoin="round" stroke-miterlimit="10" d="
		M74.372,211.992"/>
</g>
<g>
	<rect x="4.001" y="193.52" fill-rule="evenodd" clip-rule="evenodd" fill="none" width="140.74" height="36.945"/>
</g>
<g>
	<path d="M9.083,214.453l-0.896,2.714H7.035l2.945-8.628h1.332l2.944,8.628h-1.19l-0.922-2.714H9.083z M11.925,213.582l-0.857-2.484
		c-0.192-0.563-0.32-1.075-0.448-1.575h-0.025c-0.128,0.5-0.256,1.037-0.436,1.562l-0.845,2.497H11.925z"/>
	<path d="M15.524,208.653c0.563-0.103,1.383-0.18,2.138-0.18c1.191,0,1.972,0.23,2.497,0.704c0.422,0.384,0.679,0.973,0.679,1.652
		c0,1.126-0.717,1.882-1.613,2.189v0.039c0.653,0.23,1.05,0.845,1.255,1.741c0.281,1.203,0.486,2.035,0.665,2.368h-1.152
		c-0.141-0.256-0.333-0.986-0.563-2.061c-0.256-1.191-0.73-1.639-1.741-1.677h-1.05v3.738h-1.114V208.653z M16.638,212.583h1.139
		c1.191,0,1.946-0.653,1.946-1.639c0-1.114-0.807-1.601-1.984-1.601c-0.537,0-0.909,0.039-1.101,0.09V212.583z"/>
</g>
<g>
	<path d="M599.784,138.106l-0.971,2.94h-1.249l3.191-9.349h1.441l3.19,9.349h-1.29l-0.998-2.94H599.784z M602.863,137.163
		l-0.93-2.691c-0.207-0.61-0.346-1.165-0.484-1.706h-0.028c-0.139,0.541-0.277,1.124-0.472,1.692l-0.916,2.705H602.863z"/>
	<path d="M606.678,131.198h1.22v9.848h-1.22V131.198z"/>
	<path d="M609.952,131.198h1.22v9.848h-1.22V131.198z"/>
	<path d="M619.3,137.634c0,2.483-1.734,3.565-3.343,3.565c-1.804,0-3.218-1.332-3.218-3.454c0-2.233,1.484-3.551,3.328-3.551
		C617.996,134.194,619.3,135.596,619.3,137.634z M613.988,137.704c0,1.47,0.832,2.58,2.025,2.58c1.164,0,2.039-1.096,2.039-2.607
		c0-1.137-0.569-2.566-2.012-2.566C614.612,135.11,613.988,136.441,613.988,137.704z"/>
	<path d="M621.228,134.333l0.902,3.412c0.18,0.749,0.36,1.442,0.485,2.136h0.042c0.152-0.68,0.374-1.401,0.596-2.123l1.096-3.426
		h1.026l1.04,3.356c0.25,0.805,0.444,1.512,0.597,2.192h0.042c0.111-0.68,0.291-1.387,0.514-2.178l0.957-3.371h1.206l-2.163,6.713
		h-1.11l-1.026-3.204c-0.236-0.749-0.43-1.415-0.597-2.206h-0.027c-0.167,0.805-0.374,1.498-0.61,2.22l-1.082,3.19h-1.109
		l-2.025-6.713H621.228z"/>
	<path d="M631.494,137.912c0.027,1.651,1.068,2.331,2.303,2.331c0.874,0,1.414-0.153,1.858-0.347l0.222,0.874
		c-0.43,0.194-1.179,0.43-2.246,0.43c-2.066,0-3.302-1.374-3.302-3.398c0-2.025,1.192-3.606,3.149-3.606
		c2.205,0,2.773,1.914,2.773,3.148c0,0.25-0.014,0.43-0.041,0.569H631.494z M635.072,137.038c0.015-0.763-0.318-1.97-1.691-1.97
		c-1.248,0-1.775,1.124-1.873,1.97H635.072z"/>
	<path d="M643.548,131.198v8.114c0,0.597,0.027,1.276,0.055,1.734h-1.082l-0.055-1.165h-0.042c-0.36,0.749-1.165,1.318-2.261,1.318
		c-1.623,0-2.885-1.374-2.885-3.412c-0.014-2.233,1.387-3.593,3.01-3.593c1.04,0,1.72,0.485,2.025,1.013h0.027v-4.009H643.548z
		 M642.341,137.065c0-0.152-0.014-0.36-0.056-0.513c-0.181-0.763-0.847-1.401-1.762-1.401c-1.262,0-2.011,1.11-2.011,2.58
		c0,1.359,0.68,2.482,1.983,2.482c0.818,0,1.567-0.555,1.789-1.456c0.042-0.167,0.056-0.333,0.056-0.527V137.065z"/>
	<path d="M654.603,137.634c0,2.483-1.734,3.565-3.343,3.565c-1.804,0-3.218-1.332-3.218-3.454c0-2.233,1.484-3.551,3.328-3.551
		C653.298,134.194,654.603,135.596,654.603,137.634z M649.291,137.704c0,1.47,0.832,2.58,2.025,2.58
		c1.164,0,2.039-1.096,2.039-2.607c0-1.137-0.569-2.566-2.012-2.566C649.915,135.11,649.291,136.441,649.291,137.704z"/>
	<path d="M656.143,136.524c0-0.859-0.028-1.553-0.056-2.191h1.082l0.069,1.151h0.028c0.484-0.818,1.289-1.29,2.385-1.29
		c1.637,0,2.857,1.373,2.857,3.398c0,2.413-1.484,3.606-3.065,3.606c-0.888,0-1.664-0.389-2.066-1.055h-0.028v3.648h-1.206V136.524z
		 M657.349,138.314c0,0.18,0.014,0.347,0.057,0.5c0.221,0.846,0.957,1.429,1.83,1.429c1.29,0,2.039-1.055,2.039-2.594
		c0-1.332-0.707-2.483-1.998-2.483c-0.832,0-1.622,0.583-1.844,1.498c-0.042,0.153-0.084,0.333-0.084,0.486V138.314z"/>
	<path d="M665.505,132.724v1.609h1.748v0.93h-1.748v3.62c0,0.832,0.236,1.304,0.916,1.304c0.332,0,0.527-0.028,0.707-0.083
		l0.056,0.929c-0.235,0.083-0.61,0.167-1.082,0.167c-0.568,0-1.026-0.194-1.317-0.514c-0.333-0.374-0.472-0.971-0.472-1.761v-3.662
		h-1.04v-0.93h1.04v-1.248L665.505,132.724z"/>
	<path d="M669.986,132.447c0,0.417-0.291,0.749-0.776,0.749c-0.444,0-0.735-0.333-0.735-0.749c0-0.416,0.305-0.763,0.764-0.763
		C669.681,131.684,669.986,132.017,669.986,132.447z M668.626,141.046v-6.713h1.221v6.713H668.626z"/>
	<path d="M677.948,137.634c0,2.483-1.733,3.565-3.343,3.565c-1.803,0-3.219-1.332-3.219-3.454c0-2.233,1.484-3.551,3.33-3.551
		C676.644,134.194,677.948,135.596,677.948,137.634z M672.635,137.704c0,1.47,0.832,2.58,2.024,2.58
		c1.166,0,2.039-1.096,2.039-2.607c0-1.137-0.568-2.566-2.011-2.566C673.259,135.11,672.635,136.441,672.635,137.704z"/>
	<path d="M679.488,136.15c0-0.708-0.014-1.263-0.056-1.817h1.082l0.069,1.11h0.027c0.333-0.625,1.109-1.249,2.22-1.249
		c0.929,0,2.372,0.555,2.372,2.857v3.995h-1.221v-3.87c0-1.082-0.402-1.983-1.554-1.983c-0.79,0-1.415,0.568-1.637,1.248
		c-0.056,0.152-0.083,0.36-0.083,0.569v4.036h-1.221V136.15z"/>
</g>
<g>
	<path d="M598.272,200.131v-9.349h1.331l2.982,4.73c0.68,1.096,1.234,2.081,1.664,3.038l0.042-0.014
		c-0.11-1.248-0.139-2.386-0.139-3.842v-3.912h1.138v9.349h-1.221l-2.969-4.744c-0.651-1.04-1.275-2.108-1.733-3.121l-0.042,0.014
		c0.07,1.179,0.084,2.302,0.084,3.856v3.995H598.272z"/>
	<path d="M613.433,196.719c0,2.483-1.734,3.564-3.343,3.564c-1.804,0-3.218-1.332-3.218-3.454c0-2.233,1.484-3.551,3.328-3.551
		C612.128,193.279,613.433,194.681,613.433,196.719z M608.121,196.789c0,1.47,0.832,2.58,2.025,2.58
		c1.164,0,2.039-1.096,2.039-2.608c0-1.137-0.569-2.566-2.012-2.566C608.745,194.195,608.121,195.526,608.121,196.789z"/>
	<path d="M616.443,191.809v1.609h1.748v0.93h-1.748v3.62c0,0.832,0.236,1.304,0.916,1.304c0.332,0,0.527-0.028,0.707-0.083
		l0.056,0.93c-0.235,0.083-0.61,0.166-1.082,0.166c-0.568,0-1.026-0.194-1.317-0.513c-0.333-0.375-0.472-0.971-0.472-1.761v-3.662
		h-1.04v-0.93h1.04v-1.248L616.443,191.809z"/>
	<path d="M627.22,198.522c0,0.583,0.028,1.151,0.098,1.609h-1.096l-0.098-0.846h-0.041c-0.375,0.527-1.096,0.999-2.053,0.999
		c-1.359,0-2.053-0.957-2.053-1.928c0-1.623,1.441-2.51,4.035-2.497v-0.139c0-0.541-0.152-1.554-1.525-1.54
		c-0.638,0-1.289,0.181-1.762,0.5l-0.277-0.818c0.555-0.347,1.373-0.583,2.22-0.583c2.053,0,2.552,1.401,2.552,2.732V198.522z
		 M626.042,196.705c-1.331-0.027-2.843,0.208-2.843,1.512c0,0.804,0.526,1.165,1.137,1.165c0.888,0,1.457-0.555,1.65-1.124
		c0.042-0.139,0.056-0.277,0.056-0.388V196.705z"/>
	<path d="M629.191,190.283h1.221v9.848h-1.221V190.283z"/>
	<path d="M632.464,190.283h1.221v9.848h-1.221V190.283z"/>
	<path d="M641.813,196.719c0,2.483-1.733,3.564-3.343,3.564c-1.803,0-3.219-1.332-3.219-3.454c0-2.233,1.484-3.551,3.33-3.551
		C640.509,193.279,641.813,194.681,641.813,196.719z M636.5,196.789c0,1.47,0.832,2.58,2.024,2.58c1.166,0,2.039-1.096,2.039-2.608
		c0-1.137-0.568-2.566-2.011-2.566C637.125,194.195,636.5,195.526,636.5,196.789z"/>
	<path d="M643.742,193.418l0.9,3.412c0.182,0.749,0.361,1.443,0.486,2.136h0.041c0.152-0.68,0.375-1.401,0.597-2.123l1.096-3.426
		h1.026l1.041,3.356c0.249,0.805,0.443,1.512,0.596,2.192h0.042c0.11-0.68,0.291-1.387,0.513-2.178l0.957-3.371h1.207l-2.164,6.713
		h-1.109l-1.026-3.204c-0.235-0.749-0.431-1.415-0.597-2.206h-0.027c-0.166,0.805-0.375,1.498-0.61,2.22l-1.082,3.19h-1.109
		l-2.025-6.713H643.742z"/>
	<path d="M654.006,196.997c0.027,1.651,1.067,2.33,2.302,2.33c0.875,0,1.415-0.152,1.859-0.347l0.222,0.874
		c-0.431,0.194-1.179,0.43-2.247,0.43c-2.066,0-3.301-1.373-3.301-3.398c0-2.025,1.192-3.606,3.148-3.606
		c2.205,0,2.773,1.914,2.773,3.148c0,0.25-0.014,0.43-0.041,0.569H654.006z M657.584,196.123c0.015-0.763-0.319-1.97-1.692-1.97
		c-1.248,0-1.775,1.124-1.872,1.97H657.584z"/>
	<path d="M666.06,190.283v8.114c0,0.597,0.028,1.276,0.057,1.734h-1.082l-0.057-1.165h-0.041c-0.36,0.749-1.165,1.317-2.261,1.317
		c-1.623,0-2.886-1.373-2.886-3.412c-0.014-2.233,1.388-3.593,3.011-3.593c1.04,0,1.72,0.485,2.024,1.013h0.028v-4.009H666.06z
		 M664.854,196.15c0-0.152-0.015-0.36-0.056-0.513c-0.18-0.763-0.846-1.401-1.762-1.401c-1.262,0-2.011,1.11-2.011,2.58
		c0,1.359,0.68,2.483,1.983,2.483c0.818,0,1.567-0.555,1.789-1.457c0.041-0.167,0.056-0.333,0.056-0.527V196.15z"/>
</g>
<g>
	<path d="M604.306,212.82c0,2.483-1.734,3.564-3.344,3.564c-1.803,0-3.218-1.332-3.218-3.454c0-2.233,1.484-3.551,3.329-3.551
		C603.001,209.38,604.306,210.781,604.306,212.82z M598.994,212.889c0,1.47,0.832,2.58,2.024,2.58c1.165,0,2.039-1.096,2.039-2.608
		c0-1.137-0.569-2.566-2.011-2.566C599.617,210.295,598.994,211.627,598.994,212.889z"/>
	<path d="M605.845,211.71c0-0.86-0.027-1.554-0.055-2.192h1.082l0.068,1.151h0.028c0.485-0.818,1.29-1.29,2.386-1.29
		c1.637,0,2.857,1.374,2.857,3.398c0,2.414-1.484,3.606-3.066,3.606c-0.887,0-1.664-0.388-2.066-1.054h-0.027v3.647h-1.207V211.71z
		 M607.052,213.5c0,0.18,0.014,0.347,0.056,0.5c0.222,0.846,0.957,1.428,1.831,1.428c1.289,0,2.039-1.054,2.039-2.594
		c0-1.332-0.708-2.482-1.998-2.482c-0.832,0-1.623,0.583-1.845,1.498c-0.042,0.152-0.083,0.333-0.083,0.485V213.5z"/>
	<path d="M615.208,207.91v1.609h1.748v0.93h-1.748v3.62c0,0.832,0.236,1.304,0.916,1.304c0.332,0,0.526-0.028,0.707-0.083
		l0.055,0.93c-0.235,0.083-0.609,0.166-1.082,0.166c-0.568,0-1.025-0.194-1.316-0.513c-0.334-0.375-0.473-0.971-0.473-1.761v-3.662
		h-1.04v-0.93h1.04v-1.248L615.208,207.91z"/>
	<path d="M619.689,207.632c0,0.416-0.291,0.749-0.777,0.749c-0.443,0-0.734-0.333-0.734-0.749s0.305-0.763,0.763-0.763
		C619.384,206.87,619.689,207.203,619.689,207.632z M618.33,216.232v-6.713h1.221v6.713H618.33z"/>
	<path d="M627.65,212.82c0,2.483-1.733,3.564-3.342,3.564c-1.804,0-3.219-1.332-3.219-3.454c0-2.233,1.484-3.551,3.329-3.551
		C626.346,209.38,627.65,210.781,627.65,212.82z M622.337,212.889c0,1.47,0.832,2.58,2.025,2.58c1.165,0,2.039-1.096,2.039-2.608
		c0-1.137-0.568-2.566-2.012-2.566C622.962,210.295,622.337,211.627,622.337,212.889z"/>
	<path d="M629.191,211.336c0-0.708-0.015-1.262-0.057-1.817h1.082l0.07,1.11h0.027c0.332-0.624,1.109-1.249,2.219-1.249
		c0.93,0,2.372,0.555,2.372,2.857v3.995h-1.221v-3.87c0-1.082-0.402-1.983-1.554-1.983c-0.79,0-1.414,0.568-1.637,1.248
		c-0.055,0.153-0.083,0.361-0.083,0.569v4.036h-1.22V211.336z"/>
</g>
<g>
	<path d="M598.119,21.838c0.541,0.347,1.318,0.61,2.15,0.61c1.234,0,1.956-0.652,1.956-1.595c0-0.86-0.499-1.373-1.762-1.845
		c-1.526-0.555-2.469-1.359-2.469-2.663c0-1.456,1.206-2.538,3.023-2.538c0.943,0,1.651,0.222,2.053,0.458l-0.333,0.985
		c-0.291-0.181-0.915-0.444-1.762-0.444c-1.275,0-1.761,0.763-1.761,1.401c0,0.874,0.568,1.304,1.858,1.803
		c1.581,0.61,2.371,1.373,2.371,2.746c0,1.443-1.053,2.705-3.259,2.705c-0.901,0-1.886-0.277-2.386-0.61L598.119,21.838z"/>
	<path d="M606.498,14.986v1.609h1.748v0.929h-1.748v3.62c0,0.833,0.236,1.304,0.916,1.304c0.332,0,0.526-0.028,0.707-0.083
		l0.055,0.93c-0.235,0.083-0.609,0.166-1.082,0.166c-0.568,0-1.025-0.194-1.316-0.513c-0.334-0.375-0.473-0.971-0.473-1.762v-3.662
		h-1.04v-0.929h1.04v-1.249L606.498,14.986z"/>
	<path d="M614.334,21.7c0,0.583,0.028,1.151,0.097,1.609h-1.096l-0.097-0.846h-0.042c-0.374,0.527-1.096,0.999-2.053,0.999
		c-1.359,0-2.053-0.957-2.053-1.928c0-1.623,1.442-2.511,4.036-2.497v-0.139c0-0.541-0.152-1.553-1.525-1.54
		c-0.638,0-1.29,0.18-1.762,0.499l-0.277-0.818c0.555-0.347,1.373-0.582,2.22-0.582c2.053,0,2.552,1.4,2.552,2.732V21.7z
		 M613.156,19.883c-1.332-0.028-2.844,0.208-2.844,1.512c0,0.805,0.527,1.165,1.137,1.165c0.889,0,1.457-0.555,1.651-1.124
		c0.042-0.139,0.056-0.277,0.056-0.388V19.883z"/>
	<path d="M617.719,14.986v1.609h1.747v0.929h-1.747v3.62c0,0.833,0.235,1.304,0.915,1.304c0.333,0,0.527-0.028,0.707-0.083
		l0.057,0.93c-0.236,0.083-0.611,0.166-1.082,0.166c-0.568,0-1.027-0.194-1.318-0.513c-0.332-0.375-0.471-0.971-0.471-1.762v-3.662
		h-1.041v-0.929h1.041v-1.249L617.719,14.986z"/>
	<path d="M622.199,14.709c0,0.416-0.291,0.749-0.775,0.749c-0.444,0-0.736-0.333-0.736-0.749s0.306-0.763,0.764-0.763
		C621.894,13.946,622.199,14.279,622.199,14.709z M620.84,23.309v-6.713h1.22v6.713H620.84z"/>
	<path d="M628.871,23.073c-0.318,0.153-1.025,0.388-1.928,0.388c-2.025,0-3.343-1.373-3.343-3.426c0-2.066,1.415-3.578,3.606-3.578
		c0.721,0,1.359,0.18,1.692,0.36l-0.277,0.929c-0.292-0.153-0.749-0.319-1.415-0.319c-1.539,0-2.371,1.151-2.371,2.538
		c0,1.554,0.998,2.511,2.33,2.511c0.693,0,1.15-0.167,1.498-0.319L628.871,23.073z"/>
	<path d="M637.957,21.7c0,0.583,0.027,1.151,0.098,1.609h-1.096l-0.098-0.846h-0.042c-0.374,0.527-1.096,0.999-2.053,0.999
		c-1.358,0-2.053-0.957-2.053-1.928c0-1.623,1.442-2.511,4.036-2.497v-0.139c0-0.541-0.152-1.553-1.525-1.54
		c-0.639,0-1.29,0.18-1.762,0.499l-0.277-0.818c0.555-0.347,1.373-0.582,2.219-0.582c2.053,0,2.553,1.4,2.553,2.732V21.7z
		 M636.777,19.883c-1.331-0.028-2.843,0.208-2.843,1.512c0,0.805,0.526,1.165,1.138,1.165c0.887,0,1.456-0.555,1.65-1.124
		c0.041-0.139,0.055-0.277,0.055-0.388V19.883z"/>
	<path d="M639.927,18.412c0-0.707-0.015-1.262-0.057-1.816h1.082l0.07,1.109h0.027c0.332-0.624,1.109-1.248,2.219-1.248
		c0.93,0,2.372,0.555,2.372,2.857v3.995h-1.221v-3.87c0-1.082-0.402-1.983-1.554-1.983c-0.79,0-1.414,0.569-1.637,1.249
		c-0.055,0.153-0.083,0.361-0.083,0.569v4.036h-1.22V18.412z"/>
	<path d="M652.341,21.7c0,0.583,0.027,1.151,0.098,1.609h-1.096l-0.098-0.846h-0.042c-0.374,0.527-1.096,0.999-2.053,0.999
		c-1.358,0-2.053-0.957-2.053-1.928c0-1.623,1.442-2.511,4.036-2.497v-0.139c0-0.541-0.152-1.553-1.525-1.54
		c-0.639,0-1.29,0.18-1.762,0.499l-0.277-0.818c0.555-0.347,1.373-0.582,2.219-0.582c2.053,0,2.553,1.4,2.553,2.732V21.7z
		 M651.162,19.883c-1.331-0.028-2.843,0.208-2.843,1.512c0,0.805,0.526,1.165,1.138,1.165c0.887,0,1.456-0.555,1.65-1.124
		c0.041-0.139,0.055-0.277,0.055-0.388V19.883z"/>
	<path d="M654.312,13.461h1.22v9.848h-1.22V13.461z"/>
	<path d="M658.029,16.596l1.456,3.967c0.167,0.443,0.333,0.971,0.444,1.373h0.027c0.125-0.402,0.264-0.916,0.43-1.401l1.332-3.939
		h1.29l-1.831,4.785c-0.874,2.302-1.471,3.467-2.303,4.202c-0.609,0.514-1.192,0.722-1.498,0.777l-0.305-1.013
		c0.305-0.097,0.707-0.292,1.068-0.597c0.332-0.264,0.734-0.735,1.025-1.359c0.057-0.125,0.098-0.222,0.098-0.291
		s-0.027-0.167-0.098-0.319l-2.469-6.186H658.029z"/>
	<path d="M663.869,22.074c0.375,0.222,1.012,0.472,1.623,0.472c0.873,0,1.289-0.43,1.289-0.999c0-0.582-0.346-0.888-1.234-1.221
		c-1.221-0.443-1.789-1.096-1.789-1.9c0-1.082,0.889-1.969,2.316-1.969c0.68,0,1.276,0.18,1.637,0.416l-0.291,0.888
		c-0.264-0.167-0.749-0.402-1.373-0.402c-0.722,0-1.109,0.416-1.109,0.915c0,0.555,0.388,0.805,1.262,1.151
		c1.151,0.43,1.762,1.013,1.762,2.011c0,1.193-0.93,2.025-2.497,2.025c-0.735,0-1.415-0.194-1.886-0.472L663.869,22.074z"/>
	<path d="M670.887,14.709c0,0.416-0.291,0.749-0.776,0.749c-0.443,0-0.735-0.333-0.735-0.749s0.306-0.763,0.763-0.763
		C670.583,13.946,670.887,14.279,670.887,14.709z M669.529,23.309v-6.713h1.22v6.713H669.529z"/>
	<path d="M672.607,22.074c0.375,0.222,1.013,0.472,1.623,0.472c0.874,0,1.29-0.43,1.29-0.999c0-0.582-0.347-0.888-1.234-1.221
		c-1.221-0.443-1.789-1.096-1.789-1.9c0-1.082,0.888-1.969,2.315-1.969c0.68,0,1.277,0.18,1.637,0.416l-0.291,0.888
		c-0.264-0.167-0.748-0.402-1.373-0.402c-0.721,0-1.109,0.416-1.109,0.915c0,0.555,0.389,0.805,1.262,1.151
		c1.152,0.43,1.762,1.013,1.762,2.011c0,1.193-0.93,2.025-2.496,2.025c-0.735,0-1.415-0.194-1.887-0.472L672.607,22.074z"/>
</g>
<g>
	<path d="M604.306,35.855c0,2.483-1.734,3.565-3.344,3.565c-1.803,0-3.218-1.332-3.218-3.454c0-2.233,1.484-3.551,3.329-3.551
		C603.001,32.415,604.306,33.816,604.306,35.855z M598.994,35.924c0,1.47,0.832,2.58,2.024,2.58c1.165,0,2.039-1.096,2.039-2.607
		c0-1.137-0.569-2.566-2.011-2.566C599.617,33.331,598.994,34.662,598.994,35.924z"/>
	<path d="M605.845,34.371c0-0.708-0.014-1.263-0.055-1.817h1.082l0.068,1.11h0.028c0.333-0.625,1.109-1.249,2.22-1.249
		c0.929,0,2.371,0.555,2.371,2.857v3.995h-1.221v-3.87c0-1.082-0.402-1.983-1.553-1.983c-0.791,0-1.416,0.568-1.637,1.248
		c-0.057,0.152-0.084,0.36-0.084,0.569v4.036h-1.221V34.371z"/>
	<path d="M613.544,29.419h1.221v9.848h-1.221V29.419z"/>
	<path d="M617.261,32.554l1.457,3.967c0.166,0.444,0.332,0.971,0.443,1.374h0.027c0.125-0.402,0.264-0.916,0.431-1.401l1.331-3.939
		h1.29l-1.831,4.785c-0.873,2.303-1.47,3.468-2.303,4.203c-0.609,0.513-1.192,0.721-1.497,0.776l-0.306-1.013
		c0.306-0.097,0.707-0.291,1.068-0.596c0.333-0.263,0.734-0.735,1.026-1.359c0.056-0.125,0.097-0.222,0.097-0.292
		s-0.027-0.167-0.097-0.319l-2.469-6.187H617.261z"/>
</g>
<g>
	<path d="M598.119,85.667c0.541,0.347,1.318,0.61,2.15,0.61c1.234,0,1.956-0.652,1.956-1.595c0-0.86-0.499-1.373-1.762-1.845
		c-1.526-0.555-2.469-1.359-2.469-2.663c0-1.456,1.206-2.538,3.023-2.538c0.943,0,1.651,0.222,2.053,0.458l-0.333,0.985
		c-0.291-0.181-0.915-0.444-1.762-0.444c-1.275,0-1.761,0.763-1.761,1.401c0,0.874,0.568,1.304,1.858,1.803
		c1.581,0.61,2.371,1.373,2.371,2.746c0,1.443-1.053,2.705-3.259,2.705c-0.901,0-1.886-0.277-2.386-0.61L598.119,85.667z"/>
	<path d="M610.686,85.292c0,0.707,0.015,1.317,0.056,1.845h-1.082l-0.069-1.096h-0.028c-0.305,0.541-1.025,1.248-2.219,1.248
		c-1.055,0-2.316-0.596-2.316-2.94v-3.925h1.221v3.703c0,1.276,0.402,2.15,1.498,2.15c0.818,0,1.387-0.569,1.609-1.124
		c0.068-0.167,0.11-0.389,0.11-0.624v-4.105h1.221V85.292z"/>
	<path d="M612.712,77.289h1.206v4.216h0.028c0.43-0.749,1.206-1.22,2.288-1.22c1.679,0,2.843,1.387,2.843,3.412
		c0,2.4-1.525,3.592-3.023,3.592c-0.971,0-1.748-0.374-2.261-1.248h-0.027l-0.069,1.096h-1.041c0.028-0.458,0.057-1.138,0.057-1.734
		V77.289z M613.918,84.446c0,0.153,0.014,0.305,0.056,0.444c0.222,0.846,0.943,1.429,1.83,1.429c1.291,0,2.039-1.04,2.039-2.58
		c0-1.345-0.693-2.496-2.011-2.496c-0.818,0-1.595,0.582-1.845,1.498c-0.041,0.153-0.069,0.319-0.069,0.513V84.446z"/>
	<path d="M620.438,85.902c0.374,0.222,1.013,0.472,1.622,0.472c0.875,0,1.291-0.43,1.291-0.999c0-0.582-0.348-0.888-1.234-1.221
		c-1.221-0.443-1.789-1.096-1.789-1.9c0-1.082,0.887-1.969,2.315-1.969c0.68,0,1.276,0.18,1.637,0.416l-0.291,0.888
		c-0.264-0.167-0.749-0.402-1.373-0.402c-0.722,0-1.11,0.416-1.11,0.915c0,0.555,0.389,0.805,1.263,1.151
		c1.151,0.43,1.762,1.013,1.762,2.011c0,1.193-0.93,2.025-2.497,2.025c-0.734,0-1.414-0.194-1.887-0.472L620.438,85.902z"/>
	<path d="M626.777,84.002c0.027,1.65,1.068,2.33,2.303,2.33c0.874,0,1.414-0.152,1.858-0.347l0.222,0.874
		c-0.43,0.194-1.179,0.43-2.246,0.43c-2.066,0-3.302-1.373-3.302-3.398s1.192-3.606,3.149-3.606c2.205,0,2.773,1.914,2.773,3.148
		c0,0.25-0.014,0.43-0.041,0.568H626.777z M630.355,83.128c0.015-0.763-0.318-1.969-1.691-1.969c-1.248,0-1.775,1.124-1.873,1.969
		H630.355z"/>
	<path d="M637.625,86.11h-0.027c-0.375,0.652-1.11,1.179-2.191,1.179c-1.568,0-2.844-1.345-2.844-3.384
		c0-2.524,1.623-3.62,3.037-3.62c1.041,0,1.734,0.513,2.066,1.151h0.028l0.042-1.012h1.15c-0.027,0.555-0.055,1.151-0.055,1.845
		v7.614h-1.207V86.11z M637.625,83.142c0-0.167-0.014-0.347-0.056-0.5c-0.194-0.749-0.832-1.387-1.747-1.387
		c-1.263,0-2.025,1.068-2.025,2.566c0,1.345,0.638,2.497,1.983,2.497c0.79,0,1.47-0.485,1.747-1.317
		c0.056-0.181,0.098-0.417,0.098-0.597V83.142z"/>
	<path d="M646.474,85.292c0,0.707,0.014,1.317,0.056,1.845h-1.082l-0.069-1.096h-0.027c-0.306,0.541-1.027,1.248-2.22,1.248
		c-1.054,0-2.316-0.596-2.316-2.94v-3.925h1.221v3.703c0,1.276,0.402,2.15,1.498,2.15c0.818,0,1.388-0.569,1.608-1.124
		c0.07-0.167,0.111-0.389,0.111-0.624v-4.105h1.221V85.292z"/>
	<path d="M649.179,84.002c0.027,1.65,1.068,2.33,2.303,2.33c0.874,0,1.414-0.152,1.858-0.347l0.222,0.874
		c-0.43,0.194-1.179,0.43-2.246,0.43c-2.066,0-3.302-1.373-3.302-3.398s1.192-3.606,3.149-3.606c2.205,0,2.773,1.914,2.773,3.148
		c0,0.25-0.014,0.43-0.041,0.568H649.179z M652.757,83.128c0.015-0.763-0.318-1.969-1.691-1.969c-1.248,0-1.775,1.124-1.873,1.969
		H652.757z"/>
	<path d="M655.45,82.24c0-0.707-0.015-1.262-0.056-1.816h1.082l0.069,1.109h0.028c0.332-0.624,1.109-1.248,2.219-1.248
		c0.93,0,2.371,0.555,2.371,2.857v3.995h-1.221v-3.87c0-1.082-0.401-1.983-1.553-1.983c-0.791,0-1.415,0.569-1.637,1.249
		c-0.056,0.153-0.084,0.361-0.084,0.569v4.036h-1.22V82.24z"/>
	<path d="M664.563,78.814v1.609h1.747v0.929h-1.747v3.62c0,0.833,0.235,1.304,0.915,1.304c0.333,0,0.527-0.028,0.707-0.083
		l0.057,0.93c-0.236,0.083-0.611,0.166-1.082,0.166c-0.568,0-1.027-0.194-1.318-0.513c-0.332-0.375-0.471-0.971-0.471-1.762v-3.662
		h-1.041v-0.929h1.041v-1.249L664.563,78.814z"/>
</g>
<g>
	<path d="M604.014,93.175v8.114c0,0.597,0.028,1.276,0.056,1.734h-1.082l-0.056-1.165h-0.042c-0.359,0.749-1.164,1.318-2.26,1.318
		c-1.623,0-2.886-1.374-2.886-3.412c-0.014-2.233,1.388-3.593,3.011-3.593c1.039,0,1.719,0.485,2.024,1.013h0.028v-4.009H604.014z
		 M602.808,99.042c0-0.152-0.015-0.36-0.057-0.513c-0.18-0.763-0.846-1.401-1.761-1.401c-1.263,0-2.011,1.11-2.011,2.58
		c0,1.359,0.679,2.482,1.982,2.482c0.818,0,1.568-0.555,1.789-1.456c0.042-0.167,0.057-0.333,0.057-0.527V99.042z"/>
	<path d="M606.498,96.31l1.456,3.967c0.167,0.444,0.333,0.971,0.444,1.374h0.027c0.125-0.402,0.264-0.916,0.43-1.401l1.332-3.939
		h1.29l-1.831,4.785c-0.874,2.303-1.471,3.468-2.303,4.203c-0.609,0.513-1.192,0.721-1.498,0.776l-0.305-1.013
		c0.305-0.097,0.707-0.291,1.068-0.596c0.332-0.263,0.734-0.735,1.025-1.359c0.057-0.125,0.098-0.222,0.098-0.292
		s-0.027-0.167-0.098-0.319l-2.469-6.187H606.498z"/>
	<path d="M612.587,98.127c0-0.708-0.015-1.263-0.057-1.817h1.082l0.07,1.11h0.027c0.332-0.625,1.109-1.249,2.219-1.249
		c0.93,0,2.372,0.555,2.372,2.857v3.995h-1.221v-3.87c0-1.082-0.402-1.983-1.554-1.983c-0.79,0-1.414,0.568-1.637,1.248
		c-0.055,0.152-0.083,0.36-0.083,0.569v4.036h-1.22V98.127z"/>
	<path d="M625.001,101.414c0,0.583,0.027,1.151,0.098,1.609h-1.096l-0.098-0.846h-0.042c-0.374,0.527-1.096,0.999-2.053,0.999
		c-1.358,0-2.053-0.957-2.053-1.928c0-1.623,1.442-2.51,4.036-2.497v-0.139c0-0.541-0.152-1.554-1.525-1.54
		c-0.639,0-1.29,0.181-1.762,0.5l-0.277-0.818c0.555-0.347,1.373-0.583,2.219-0.583c2.053,0,2.553,1.401,2.553,2.732V101.414z
		 M623.822,99.597c-1.331-0.027-2.843,0.208-2.843,1.512c0,0.804,0.526,1.165,1.138,1.165c0.887,0,1.456-0.555,1.65-1.124
		c0.041-0.139,0.055-0.277,0.055-0.388V99.597z"/>
	<path d="M626.972,98.127c0-0.708-0.028-1.263-0.057-1.817h1.068l0.056,1.096h0.042c0.374-0.638,0.998-1.234,2.121-1.234
		c0.902,0,1.596,0.555,1.887,1.346h0.027c0.209-0.389,0.486-0.666,0.764-0.874c0.402-0.305,0.832-0.472,1.471-0.472
		c0.9,0,2.219,0.583,2.219,2.913v3.939h-1.193v-3.787c0-1.304-0.484-2.066-1.456-2.066c-0.708,0-1.234,0.513-1.456,1.096
		c-0.056,0.18-0.098,0.388-0.098,0.61v4.147h-1.192V99c0-1.068-0.472-1.831-1.401-1.831c-0.748,0-1.317,0.61-1.512,1.221
		c-0.069,0.166-0.097,0.388-0.097,0.596v4.036h-1.192V98.127z"/>
	<path d="M639.9,94.423c0,0.417-0.291,0.749-0.777,0.749c-0.443,0-0.734-0.333-0.734-0.749c0-0.416,0.305-0.763,0.763-0.763
		C639.595,93.661,639.9,93.993,639.9,94.423z M638.541,103.023V96.31h1.221v6.713H638.541z"/>
	<path d="M646.572,102.787c-0.32,0.152-1.027,0.389-1.929,0.389c-2.024,0-3.343-1.374-3.343-3.426c0-2.067,1.415-3.579,3.606-3.579
		c0.722,0,1.359,0.181,1.692,0.361l-0.277,0.929c-0.291-0.152-0.749-0.319-1.415-0.319c-1.54,0-2.372,1.151-2.372,2.538
		c0,1.553,0.999,2.51,2.33,2.51c0.693,0,1.152-0.166,1.498-0.318L646.572,102.787z"/>
	<path d="M655.657,101.414c0,0.583,0.028,1.151,0.097,1.609h-1.096l-0.097-0.846h-0.042c-0.374,0.527-1.096,0.999-2.053,0.999
		c-1.359,0-2.053-0.957-2.053-1.928c0-1.623,1.442-2.51,4.036-2.497v-0.139c0-0.541-0.152-1.554-1.525-1.54
		c-0.638,0-1.29,0.181-1.762,0.5l-0.277-0.818c0.555-0.347,1.373-0.583,2.22-0.583c2.053,0,2.552,1.401,2.552,2.732V101.414z
		 M654.478,99.597c-1.332-0.027-2.844,0.208-2.844,1.512c0,0.804,0.527,1.165,1.137,1.165c0.889,0,1.457-0.555,1.651-1.124
		c0.042-0.139,0.056-0.277,0.056-0.388V99.597z"/>
	<path d="M657.626,98.127c0-0.708-0.014-1.263-0.055-1.817h1.082l0.068,1.11h0.028c0.333-0.625,1.109-1.249,2.22-1.249
		c0.929,0,2.371,0.555,2.371,2.857v3.995h-1.221v-3.87c0-1.082-0.402-1.983-1.553-1.983c-0.791,0-1.416,0.568-1.637,1.248
		c-0.057,0.152-0.084,0.36-0.084,0.569v4.036h-1.221V98.127z"/>
	<path d="M670.042,101.414c0,0.583,0.028,1.151,0.097,1.609h-1.096l-0.097-0.846h-0.042c-0.374,0.527-1.096,0.999-2.053,0.999
		c-1.359,0-2.053-0.957-2.053-1.928c0-1.623,1.442-2.51,4.036-2.497v-0.139c0-0.541-0.152-1.554-1.525-1.54
		c-0.638,0-1.29,0.181-1.762,0.5l-0.277-0.818c0.555-0.347,1.373-0.583,2.22-0.583c2.053,0,2.552,1.401,2.552,2.732V101.414z
		 M668.863,99.597c-1.332-0.027-2.844,0.208-2.844,1.512c0,0.804,0.527,1.165,1.137,1.165c0.889,0,1.457-0.555,1.651-1.124
		c0.042-0.139,0.056-0.277,0.056-0.388V99.597z"/>
	<path d="M672.011,93.175h1.221v9.848h-1.221V93.175z"/>
	<path d="M675.729,96.31l1.456,3.967c0.166,0.444,0.333,0.971,0.443,1.374h0.028c0.125-0.402,0.264-0.916,0.431-1.401l1.331-3.939
		h1.29l-1.831,4.785c-0.874,2.303-1.47,3.468-2.303,4.203c-0.61,0.513-1.192,0.721-1.497,0.776l-0.306-1.013
		c0.306-0.097,0.707-0.291,1.067-0.596c0.334-0.263,0.735-0.735,1.027-1.359c0.055-0.125,0.097-0.222,0.097-0.292
		s-0.028-0.167-0.097-0.319l-2.469-6.187H675.729z"/>
	<path d="M681.569,101.789c0.374,0.222,1.013,0.471,1.622,0.471c0.875,0,1.291-0.43,1.291-0.998c0-0.583-0.348-0.888-1.234-1.221
		c-1.221-0.444-1.789-1.096-1.789-1.9c0-1.082,0.887-1.97,2.315-1.97c0.68,0,1.276,0.181,1.637,0.416l-0.291,0.888
		c-0.264-0.166-0.749-0.402-1.373-0.402c-0.722,0-1.11,0.417-1.11,0.916c0,0.555,0.389,0.804,1.263,1.151
		c1.151,0.43,1.762,1.013,1.762,2.011c0,1.193-0.93,2.025-2.497,2.025c-0.734,0-1.414-0.194-1.887-0.472L681.569,101.789z"/>
	<path d="M688.587,94.423c0,0.417-0.291,0.749-0.776,0.749c-0.444,0-0.735-0.333-0.735-0.749c0-0.416,0.305-0.763,0.764-0.763
		C688.283,93.661,688.587,93.993,688.587,94.423z M687.228,103.023V96.31h1.221v6.713H687.228z"/>
	<path d="M690.308,101.789c0.374,0.222,1.012,0.471,1.622,0.471c0.874,0,1.29-0.43,1.29-0.998c0-0.583-0.347-0.888-1.234-1.221
		c-1.221-0.444-1.789-1.096-1.789-1.9c0-1.082,0.888-1.97,2.316-1.97c0.68,0,1.275,0.181,1.637,0.416l-0.291,0.888
		c-0.264-0.166-0.75-0.402-1.373-0.402c-0.723,0-1.11,0.417-1.11,0.916c0,0.555,0.388,0.804,1.263,1.151
		c1.15,0.43,1.762,1.013,1.762,2.011c0,1.193-0.93,2.025-2.497,2.025c-0.735,0-1.415-0.194-1.887-0.472L690.308,101.789z"/>
</g>
<g>
	
		<polyline fill-rule="evenodd" clip-rule="evenodd" fill="none" stroke="#000000" stroke-linecap="round" stroke-linejoin="round" stroke-miterlimit="10" points="
		593.194,26.544 586.365,26.113 578.099,26.257 570.264,27.119 563.003,28.773 555.6,31.504 550.426,34.163 544.101,38.548 
		538.998,43.292 533.965,49.402 529.509,56.518 528.502,58.459 	"/>
</g>
<g>
	<polyline stroke="#000000" stroke-linecap="round" stroke-linejoin="round" stroke-miterlimit="10" points="537.488,52.708 
		528.502,58.459 529.293,47.75 530.946,54.362 537.488,52.708 	"/>
</g>
<g>
	<polyline fill="none" stroke="#000000" stroke-linecap="round" stroke-linejoin="round" stroke-miterlimit="10" points="
		591.541,106.186 585.862,105.396 580.112,103.958 573.929,101.371 569.331,98.495 565.089,94.757 561.28,90.158 558.118,84.837 
		555.672,78.729 554.165,73.409 	"/>
</g>
<g>
	<polyline stroke="#000000" stroke-linecap="round" stroke-linejoin="round" stroke-miterlimit="10" points="552.366,83.975 
		554.165,73.409 561.567,81.244 555.6,78.01 552.366,83.975 	"/>
</g>
<g>
	
		<polyline fill-rule="evenodd" clip-rule="evenodd" fill="#949698" stroke="#000000" stroke-linecap="round" stroke-linejoin="round" stroke-miterlimit="10" points="
		305.462,230.25 305.462,193.375 384.745,193.375 305.462,230.25 	"/>
</g>
<g>
	
		<polyline fill-rule="evenodd" clip-rule="evenodd" fill="#949698" stroke="#000000" stroke-linecap="round" stroke-linejoin="round" stroke-miterlimit="10" points="
		384.745,193.304 384.745,230.25 305.462,230.25 384.745,193.304 	"/>
</g>
<g>
	
		<polyline fill-rule="evenodd" clip-rule="evenodd" fill="#C7C9CB" stroke="#000000" stroke-linecap="round" stroke-linejoin="round" stroke-miterlimit="10" points="
		305.462,193.375 305.462,156.429 384.745,156.429 305.462,193.375 	"/>
</g>
<g>
	
		<polyline fill-rule="evenodd" clip-rule="evenodd" fill="#C7C9CB" stroke="#000000" stroke-linecap="round" stroke-linejoin="round" stroke-miterlimit="10" points="
		384.745,156.429 384.745,193.304 305.462,193.304 384.745,156.429 	"/>
</g>
<g>
	
		<polyline fill-rule="evenodd" clip-rule="evenodd" fill="#C7C9CB" stroke="#000000" stroke-linecap="round" stroke-linejoin="round" stroke-miterlimit="10" points="
		305.462,82.467 305.462,45.592 384.745,45.592 305.462,82.467 	"/>
</g>
<g>
	
		<polyline fill-rule="evenodd" clip-rule="evenodd" fill="#C7C9CB" stroke="#000000" stroke-linecap="round" stroke-linejoin="round" stroke-miterlimit="10" points="
		384.745,45.592 384.745,82.467 305.462,82.467 384.745,45.592 	"/>
</g>
<g>
	
		<polyline fill-rule="evenodd" clip-rule="evenodd" fill="#C7C9CB" stroke="#000000" stroke-linecap="round" stroke-linejoin="round" stroke-miterlimit="10" points="
		305.462,119.556 305.462,82.61 384.745,82.61 305.462,119.556 	"/>
</g>
<g>
	
		<polyline fill-rule="evenodd" clip-rule="evenodd" fill="#C7C9CB" stroke="#000000" stroke-linecap="round" stroke-linejoin="round" stroke-miterlimit="10" points="
		384.745,82.61 384.745,119.484 305.462,119.484 384.745,82.61 	"/>
</g>
<g>
	
		<polyline fill-rule="evenodd" clip-rule="evenodd" fill="#C7C9CB" stroke="#000000" stroke-linecap="round" stroke-linejoin="round" stroke-miterlimit="10" points="
		305.462,156.429 305.462,119.484 384.745,119.484 305.462,156.429 	"/>
</g>
<g>
	
		<polyline fill-rule="evenodd" clip-rule="evenodd" fill="#C7C9CB" stroke="#000000" stroke-linecap="round" stroke-linejoin="round" stroke-miterlimit="10" points="
		384.745,119.484 384.745,156.429 305.462,156.429 384.745,119.484 	"/>
</g>
<g>
	
		<polyline fill-rule="evenodd" clip-rule="evenodd" fill="#FFFFFF" stroke="#000000" stroke-linecap="round" stroke-linejoin="round" stroke-miterlimit="10" points="
		305.462,8 384.745,8 384.745,44.945 305.462,44.945 305.462,8 	"/>
	
		<path fill-rule="evenodd" clip-rule="evenodd" fill="#FFFFFF" stroke="#000000" stroke-linecap="round" stroke-linejoin="round" stroke-miterlimit="10" d="
		M345.104,26.473"/>
</g>
<g>
	<rect x="305.462" y="8" fill-rule="evenodd" clip-rule="evenodd" fill="none" width="79.282" height="36.945"/>
</g>
<g>
	<path d="M317.504,20.689c0.541,0.347,1.318,0.61,2.15,0.61c1.235,0,1.956-0.652,1.956-1.595c0-0.86-0.5-1.373-1.762-1.845
		c-1.526-0.555-2.469-1.359-2.469-2.663c0-1.457,1.207-2.539,3.023-2.539c0.943,0,1.651,0.222,2.053,0.458l-0.333,0.985
		c-0.292-0.18-0.916-0.444-1.762-0.444c-1.276,0-1.762,0.763-1.762,1.401c0,0.874,0.569,1.304,1.859,1.803
		c1.581,0.61,2.372,1.373,2.372,2.746c0,1.442-1.054,2.705-3.259,2.705c-0.901,0-1.886-0.277-2.386-0.61L317.504,20.689z"/>
	<path d="M326.271,13.837h-2.843v-1.026h6.921v1.026h-2.857v8.322h-1.221V13.837z"/>
	<path d="M331.861,19.219l-0.971,2.94h-1.249l3.19-9.349h1.442l3.19,9.349h-1.29l-0.999-2.94H331.861z M334.94,18.276l-0.929-2.691
		c-0.208-0.61-0.347-1.165-0.485-1.706h-0.028c-0.139,0.541-0.277,1.124-0.472,1.692l-0.916,2.705H334.94z"/>
	<path d="M338.824,12.811h5.035v1.013h-3.814v3.107h3.523v0.999h-3.523v4.23h-1.221V12.811z"/>
	<path d="M350.42,17.776h-3.62v3.371h4.05v1.012h-5.271v-9.349h5.063v1.013H346.8v2.955h3.62V17.776z"/>
	<path d="M360.297,18.054c-0.069-1.304-0.153-2.885-0.153-4.037h-0.028c-0.333,1.082-0.707,2.261-1.179,3.551l-1.651,4.536h-0.915
		l-1.526-4.453c-0.444-1.332-0.805-2.524-1.068-3.634h-0.028c-0.028,1.165-0.097,2.719-0.18,4.134l-0.25,4.008h-1.151l0.652-9.349
		h1.54l1.595,4.522c0.389,1.151,0.694,2.178,0.943,3.148h0.028c0.25-0.943,0.583-1.97,0.999-3.148l1.665-4.522h1.54l0.583,9.349
		h-1.193L360.297,18.054z"/>
</g>
<g>
	
		<polyline fill-rule="evenodd" clip-rule="evenodd" fill="#919396" stroke="#000000" stroke-linecap="round" stroke-linejoin="round" stroke-miterlimit="10" points="
		500.831,168.505 500.831,131.632 580.112,131.632 500.831,168.505 	"/>
</g>
<g>
	
		<polyline fill-rule="evenodd" clip-rule="evenodd" fill="#C7C9CB" stroke="#000000" stroke-linecap="round" stroke-linejoin="round" stroke-miterlimit="10" points="
		500.831,228.093 500.831,191.146 580.112,191.146 500.831,228.093 	"/>
</g>
</svg>
