<?xml version="1.0" encoding="utf-8"?>
<!-- Generator: Adobe Illustrator 15.0.0, SVG Export Plug-In . SVG Version: 6.00 Build 0)  -->
<!DOCTYPE svg PUBLIC "-//W3C//DTD SVG 1.1//EN" "http://www.w3.org/Graphics/SVG/1.1/DTD/svg11.dtd">
<svg version="1.1" xmlns="http://www.w3.org/2000/svg" xmlns:xlink="http://www.w3.org/1999/xlink" x="0px" y="0px" width="549px"
	 height="761px" viewBox="0 0 549 761" enable-background="new 0 0 549 761" xml:space="preserve">
<g>
	
		<rect x="192.271" y="5.748" fill-rule="evenodd" clip-rule="evenodd" fill="none" stroke="#000000" stroke-linejoin="round" stroke-miterlimit="10" width="152.812" height="54.179"/>
	<path fill-rule="evenodd" clip-rule="evenodd" stroke="#000000" stroke-linejoin="round" stroke-miterlimit="10" d="
		M268.677,32.837"/>
</g>
<g>
	<rect x="192.271" y="5.748" fill-rule="evenodd" clip-rule="evenodd" fill="none" width="152.812" height="54.179"/>
</g>
<g>
	<path d="M213.885,36.154c0.522,0.334,1.271,0.589,2.074,0.589c1.191,0,1.887-0.629,1.887-1.539c0-0.83-0.482-1.325-1.7-1.78
		c-1.472-0.535-2.382-1.312-2.382-2.569c0-1.405,1.164-2.449,2.917-2.449c0.91,0,1.593,0.214,1.98,0.442l-0.321,0.95
		c-0.281-0.174-0.883-0.428-1.7-0.428c-1.231,0-1.7,0.736-1.7,1.352c0,0.843,0.549,1.258,1.793,1.74
		c1.525,0.589,2.288,1.325,2.288,2.649c0,1.392-1.017,2.61-3.145,2.61c-0.87,0-1.82-0.268-2.302-0.589L213.885,36.154z"/>
	<path d="M225.289,33.344h-3.493v3.252h3.908v0.977h-5.085v-9.02h4.885v0.977h-3.707v2.85h3.493V33.344z"/>
	<path d="M227.204,28.553h1.178v8.043h3.854v0.977h-5.032V28.553z"/>
	<path d="M238.192,33.344h-3.493v3.252h3.908v0.977h-5.085v-9.02h4.885v0.977h-3.707v2.85h3.493V33.344z"/>
	<path d="M246.41,37.291c-0.415,0.214-1.285,0.428-2.382,0.428c-2.543,0-4.443-1.606-4.443-4.577c0-2.837,1.914-4.737,4.71-4.737
		c1.11,0,1.833,0.241,2.141,0.402l-0.294,0.95c-0.428-0.214-1.057-0.375-1.807-0.375c-2.114,0-3.52,1.352-3.52,3.72
		c0,2.221,1.271,3.626,3.453,3.626c0.723,0,1.445-0.147,1.914-0.375L246.41,37.291z"/>
	<path d="M249.972,29.543h-2.743v-0.99h6.677v0.99h-2.756v8.029h-1.178V29.543z"/>
	<path d="M257.602,36.154c0.522,0.334,1.271,0.589,2.074,0.589c1.191,0,1.887-0.629,1.887-1.539c0-0.83-0.482-1.325-1.7-1.78
		c-1.472-0.535-2.382-1.312-2.382-2.569c0-1.405,1.164-2.449,2.917-2.449c0.91,0,1.593,0.214,1.98,0.442l-0.321,0.95
		c-0.281-0.174-0.883-0.428-1.7-0.428c-1.231,0-1.7,0.736-1.7,1.352c0,0.843,0.549,1.258,1.793,1.74
		c1.525,0.589,2.288,1.325,2.288,2.649c0,1.392-1.017,2.61-3.145,2.61c-0.87,0-1.82-0.268-2.302-0.589L257.602,36.154z"/>
	<path d="M266.356,37.572v-3.827l-2.864-5.192h1.338l1.271,2.489c0.334,0.682,0.616,1.231,0.896,1.86h0.027
		c0.241-0.589,0.562-1.177,0.91-1.86l1.298-2.489h1.312l-3.011,5.179v3.841H266.356z"/>
	<path d="M271.269,36.154c0.522,0.334,1.271,0.589,2.074,0.589c1.191,0,1.887-0.629,1.887-1.539c0-0.83-0.482-1.325-1.7-1.78
		c-1.472-0.535-2.382-1.312-2.382-2.569c0-1.405,1.164-2.449,2.917-2.449c0.91,0,1.593,0.214,1.98,0.442l-0.321,0.95
		c-0.281-0.174-0.883-0.428-1.7-0.428c-1.231,0-1.699,0.736-1.699,1.352c0,0.843,0.548,1.258,1.793,1.74
		c1.525,0.589,2.288,1.325,2.288,2.649c0,1.392-1.017,2.61-3.145,2.61c-0.87,0-1.82-0.268-2.302-0.589L271.269,36.154z"/>
	<path d="M279.728,29.543h-2.743v-0.99h6.677v0.99h-2.756v8.029h-1.178V29.543z"/>
	<path d="M289.324,33.344h-3.493v3.252h3.908v0.977h-5.085v-9.02h4.885v0.977h-3.707v2.85h3.493V33.344z"/>
	<path d="M298.854,33.611c-0.067-1.258-0.147-2.784-0.147-3.894h-0.027c-0.321,1.044-0.682,2.181-1.137,3.426l-1.593,4.376h-0.883
		l-1.472-4.296c-0.428-1.285-0.776-2.436-1.03-3.506h-0.027c-0.027,1.124-0.094,2.623-0.174,3.988l-0.241,3.867h-1.11l0.629-9.02
		h1.485l1.539,4.363c0.375,1.111,0.669,2.101,0.91,3.038h0.027c0.241-0.91,0.562-1.9,0.963-3.038l1.606-4.363h1.485l0.562,9.02
		h-1.151L298.854,33.611z"/>
</g>
<g>
	<rect x="9.051" y="100.32" fill-rule="evenodd" clip-rule="evenodd" fill="none" width="152.876" height="54.245"/>
</g>
<g>
	<path d="M48.832,123.061c0.522,0.334,1.271,0.589,2.074,0.589c1.191,0,1.887-0.629,1.887-1.539c0-0.83-0.482-1.325-1.699-1.78
		c-1.472-0.535-2.382-1.311-2.382-2.569c0-1.405,1.164-2.449,2.917-2.449c0.91,0,1.592,0.214,1.98,0.442l-0.321,0.95
		c-0.281-0.174-0.883-0.428-1.699-0.428c-1.231,0-1.699,0.736-1.699,1.352c0,0.843,0.549,1.258,1.793,1.74
		c1.525,0.589,2.288,1.325,2.288,2.65c0,1.392-1.017,2.609-3.145,2.609c-0.87,0-1.82-0.268-2.302-0.589L48.832,123.061z"/>
	<path d="M57.292,116.45h-2.743v-0.99h6.678v0.99h-2.757v8.029h-1.177V116.45z"/>
	<path d="M62.686,121.642l-0.937,2.837h-1.204l3.078-9.02h1.392l3.078,9.02h-1.245l-0.963-2.837H62.686z M65.657,120.732
		l-0.897-2.596c-0.201-0.589-0.334-1.124-0.468-1.646h-0.027c-0.134,0.522-0.268,1.084-0.455,1.633l-0.883,2.61H65.657z"/>
	<path d="M69.419,124.479v-9.02h1.285l2.877,4.563c0.656,1.057,1.191,2.007,1.606,2.931l0.041-0.013
		c-0.107-1.205-0.134-2.302-0.134-3.707v-3.774h1.097v9.02h-1.178l-2.864-4.577c-0.629-1.004-1.231-2.034-1.673-3.011l-0.04,0.013
		c0.067,1.137,0.08,2.221,0.08,3.72v3.854H69.419z"/>
	<path d="M78.227,115.594c0.709-0.121,1.552-0.201,2.476-0.201c1.673,0,2.864,0.402,3.653,1.124c0.816,0.736,1.285,1.78,1.285,3.238
		c0,1.472-0.468,2.677-1.298,3.506c-0.856,0.843-2.249,1.298-4.001,1.298c-0.843,0-1.525-0.04-2.114-0.107V115.594z M79.391,123.569
		c0.294,0.04,0.723,0.053,1.178,0.053c2.502,0,3.841-1.392,3.841-3.827c0.013-2.128-1.191-3.479-3.653-3.479
		c-0.603,0-1.057,0.054-1.365,0.121V123.569z"/>
	<path d="M88.413,121.642l-0.937,2.837h-1.205l3.078-9.02h1.392l3.078,9.02h-1.245l-0.963-2.837H88.413z M91.383,120.732
		l-0.896-2.596c-0.201-0.589-0.334-1.124-0.468-1.646h-0.027c-0.134,0.522-0.268,1.084-0.455,1.633l-0.883,2.61H91.383z"/>
	<path d="M95.146,115.58c0.589-0.107,1.445-0.188,2.235-0.188c1.245,0,2.061,0.241,2.609,0.736c0.441,0.401,0.709,1.017,0.709,1.726
		c0,1.177-0.749,1.967-1.686,2.288v0.04c0.683,0.241,1.098,0.883,1.312,1.82c0.294,1.258,0.509,2.128,0.696,2.476h-1.204
		c-0.147-0.268-0.348-1.031-0.589-2.155c-0.268-1.244-0.763-1.713-1.82-1.753h-1.098v3.907h-1.164V115.58z M96.311,119.688h1.191
		c1.245,0,2.034-0.682,2.034-1.713c0-1.164-0.843-1.673-2.074-1.673c-0.562,0-0.95,0.04-1.151,0.094V119.688z"/>
	<path d="M102.348,115.594c0.709-0.121,1.552-0.201,2.476-0.201c1.673,0,2.864,0.402,3.653,1.124
		c0.816,0.736,1.285,1.78,1.285,3.238c0,1.472-0.468,2.677-1.298,3.506c-0.856,0.843-2.249,1.298-4.001,1.298
		c-0.843,0-1.525-0.04-2.114-0.107V115.594z M103.512,123.569c0.294,0.04,0.723,0.053,1.178,0.053c2.502,0,3.841-1.392,3.841-3.827
		c0.013-2.128-1.191-3.479-3.653-3.479c-0.603,0-1.057,0.054-1.365,0.121V123.569z"/>
</g>
<g>
	<path d="M58.883,138.394c0.522,0.334,1.271,0.589,2.074,0.589c1.191,0,1.887-0.629,1.887-1.539c0-0.83-0.482-1.325-1.699-1.78
		c-1.472-0.535-2.382-1.312-2.382-2.569c0-1.405,1.164-2.449,2.917-2.449c0.91,0,1.592,0.214,1.98,0.442l-0.321,0.95
		c-0.281-0.174-0.883-0.428-1.699-0.428c-1.231,0-1.699,0.736-1.699,1.352c0,0.843,0.549,1.258,1.793,1.74
		c1.525,0.589,2.288,1.325,2.288,2.649c0,1.392-1.017,2.61-3.145,2.61c-0.87,0-1.82-0.268-2.302-0.589L58.883,138.394z"/>
	<path d="M67.636,139.813v-3.827l-2.864-5.192h1.338l1.271,2.489c0.334,0.682,0.616,1.231,0.897,1.86h0.027
		c0.241-0.589,0.562-1.177,0.91-1.86l1.298-2.489h1.312l-3.011,5.179v3.841H67.636z"/>
	<path d="M72.549,138.394c0.522,0.334,1.271,0.589,2.074,0.589c1.191,0,1.887-0.629,1.887-1.539c0-0.83-0.481-1.325-1.699-1.78
		c-1.472-0.535-2.382-1.312-2.382-2.569c0-1.405,1.164-2.449,2.917-2.449c0.91,0,1.592,0.214,1.98,0.442l-0.321,0.95
		c-0.281-0.174-0.883-0.428-1.699-0.428c-1.231,0-1.7,0.736-1.7,1.352c0,0.843,0.549,1.258,1.793,1.74
		c1.526,0.589,2.289,1.325,2.289,2.649c0,1.392-1.017,2.61-3.145,2.61c-0.87,0-1.82-0.268-2.302-0.589L72.549,138.394z"/>
	<path d="M81.008,131.783h-2.743v-0.99h6.677v0.99h-2.756v8.029h-1.178V131.783z"/>
	<path d="M90.605,135.584h-3.493v3.252h3.908v0.977h-5.085v-9.02h4.885v0.977h-3.707v2.85h3.493V135.584z"/>
	<path d="M100.135,135.852c-0.067-1.258-0.147-2.784-0.147-3.894H99.96c-0.321,1.044-0.682,2.181-1.137,3.426l-1.593,4.376h-0.883
		l-1.472-4.296c-0.428-1.285-0.776-2.436-1.03-3.506h-0.027c-0.027,1.124-0.094,2.623-0.174,3.988l-0.241,3.867h-1.11l0.629-9.02
		h1.485l1.539,4.363c0.375,1.111,0.669,2.101,0.91,3.038h0.027c0.241-0.91,0.562-1.9,0.963-3.038l1.606-4.363h1.485l0.562,9.02
		h-1.151L100.135,135.852z"/>
</g>
<g>
	
		<rect x="8.342" y="99.934" fill-rule="evenodd" clip-rule="evenodd" fill="none" stroke="#000000" stroke-linejoin="round" stroke-miterlimit="10" width="152.876" height="54.18"/>
	<path fill-rule="evenodd" clip-rule="evenodd" stroke="#000000" stroke-linejoin="round" stroke-miterlimit="10" d="M84.78,127.024
		"/>
</g>
<g>
	<rect x="192.271" y="533.954" fill-rule="evenodd" clip-rule="evenodd" fill="none" width="152.812" height="54.244"/>
</g>
<g>
	<path d="M254.476,549.094h1.178v8.042h3.854v0.977h-5.032V549.094z"/>
	<path d="M261.972,549.094v9.02h-1.178v-9.02H261.972z"/>
	<path d="M264.007,558.113v-9.02h1.285l2.877,4.563c0.656,1.057,1.191,2.007,1.606,2.931l0.04-0.014
		c-0.107-1.204-0.134-2.302-0.134-3.707v-3.774h1.097v9.02h-1.177l-2.864-4.577c-0.629-1.003-1.231-2.034-1.673-3.011l-0.04,0.013
		c0.067,1.138,0.08,2.222,0.08,3.72v3.854H264.007z"/>
	<path d="M277.471,553.885h-3.493v3.251h3.908v0.977h-5.085v-9.02h4.885v0.977h-3.707v2.85h3.493V553.885z"/>
</g>
<g>
	<path d="M217.943,572.092c0.522,0.334,1.271,0.589,2.074,0.589c1.191,0,1.887-0.629,1.887-1.539c0-0.83-0.482-1.325-1.7-1.78
		c-1.472-0.535-2.382-1.312-2.382-2.569c0-1.405,1.164-2.449,2.917-2.449c0.91,0,1.593,0.214,1.98,0.441l-0.321,0.95
		c-0.281-0.174-0.883-0.428-1.7-0.428c-1.231,0-1.7,0.736-1.7,1.352c0,0.843,0.549,1.258,1.793,1.74
		c1.525,0.589,2.288,1.325,2.288,2.649c0,1.392-1.017,2.609-3.145,2.609c-0.87,0-1.82-0.268-2.302-0.588L217.943,572.092z"/>
	<path d="M224.689,564.598c0.562-0.093,1.298-0.174,2.235-0.174c1.151,0,1.994,0.268,2.529,0.75c0.482,0.428,0.79,1.084,0.79,1.887
		c0,0.816-0.241,1.458-0.696,1.927c-0.629,0.656-1.619,0.99-2.756,0.99c-0.348,0-0.669-0.014-0.937-0.081v3.613h-1.164V564.598z
		 M225.854,568.947c0.254,0.067,0.576,0.094,0.963,0.094c1.405,0,2.262-0.696,2.262-1.914c0-1.204-0.856-1.78-2.127-1.78
		c-0.509,0-0.897,0.04-1.098,0.094V568.947z"/>
	<path d="M236.467,569.282h-3.493v3.251h3.908v0.977h-5.085v-9.02h4.885v0.977h-3.707v2.85h3.493V569.282z"/>
	<path d="M244.686,573.229c-0.415,0.214-1.285,0.428-2.382,0.428c-2.543,0-4.443-1.605-4.443-4.576c0-2.837,1.914-4.737,4.71-4.737
		c1.11,0,1.833,0.241,2.141,0.401l-0.294,0.95c-0.428-0.214-1.057-0.375-1.807-0.375c-2.114,0-3.52,1.352-3.52,3.72
		c0,2.222,1.271,3.626,3.453,3.626c0.723,0,1.445-0.147,1.914-0.375L244.686,573.229z"/>
	<path d="M247.324,564.491v9.02h-1.178v-9.02H247.324z"/>
	<path d="M249.345,564.491h4.858v0.977h-3.68v2.998h3.399v0.963h-3.399v4.082h-1.178V564.491z"/>
	<path d="M257.042,564.491v9.02h-1.178v-9.02H257.042z"/>
	<path d="M265.366,573.229c-0.415,0.214-1.285,0.428-2.382,0.428c-2.543,0-4.443-1.605-4.443-4.576c0-2.837,1.914-4.737,4.71-4.737
		c1.11,0,1.833,0.241,2.141,0.401l-0.294,0.95c-0.428-0.214-1.057-0.375-1.807-0.375c-2.114,0-3.52,1.352-3.52,3.72
		c0,2.222,1.271,3.626,3.453,3.626c0.723,0,1.445-0.147,1.914-0.375L265.366,573.229z"/>
	<path d="M268.352,570.673l-0.937,2.837h-1.205l3.078-9.02h1.392l3.078,9.02h-1.245l-0.963-2.837H268.352z M271.323,569.763
		l-0.896-2.596c-0.201-0.588-0.334-1.124-0.468-1.646h-0.027c-0.134,0.522-0.268,1.084-0.455,1.633l-0.883,2.609H271.323z"/>
	<path d="M275.768,565.481h-2.743v-0.99h6.677v0.99h-2.756v8.029h-1.178V565.481z"/>
	<path d="M281.872,564.491v9.02h-1.178v-9.02H281.872z"/>
	<path d="M291.615,568.907c0,3.091-1.887,4.75-4.188,4.75c-2.396,0-4.055-1.86-4.055-4.59c0-2.864,1.766-4.737,4.175-4.737
		C290.022,564.33,291.615,566.217,291.615,568.907z M284.603,569.041c0,1.94,1.044,3.667,2.891,3.667s2.891-1.7,2.891-3.747
		c0-1.807-0.937-3.68-2.877-3.68S284.603,567.074,284.603,569.041z"/>
	<path d="M293.129,573.51v-9.02h1.285l2.877,4.563c0.656,1.057,1.191,2.007,1.606,2.931l0.04-0.014
		c-0.107-1.204-0.134-2.302-0.134-3.707v-3.774h1.097v9.02h-1.177l-2.864-4.577c-0.629-1.003-1.231-2.034-1.673-3.011l-0.04,0.013
		c0.067,1.138,0.08,2.221,0.08,3.72v3.854H293.129z"/>
</g>
<g>
	
		<rect x="192.271" y="533.954" fill-rule="evenodd" clip-rule="evenodd" fill="none" stroke="#000000" stroke-linejoin="round" stroke-miterlimit="10" width="152.812" height="54.244"/>
	<path fill-rule="evenodd" clip-rule="evenodd" stroke="#000000" stroke-linejoin="round" stroke-miterlimit="10" d="
		M268.677,561.077"/>
</g>
<g>
	<rect x="192.271" y="616.996" fill-rule="evenodd" clip-rule="evenodd" fill="none" width="152.812" height="54.245"/>
</g>
<g>
	<path d="M232.562,640.874c-0.415,0.214-1.285,0.428-2.382,0.428c-2.542,0-4.442-1.605-4.442-4.576c0-2.837,1.914-4.737,4.71-4.737
		c1.11,0,1.833,0.241,2.141,0.401l-0.294,0.95c-0.428-0.214-1.057-0.375-1.807-0.375c-2.114,0-3.52,1.352-3.52,3.72
		c0,2.222,1.271,3.626,3.453,3.626c0.723,0,1.445-0.147,1.914-0.375L232.562,640.874z"/>
	<path d="M241.463,636.551c0,3.091-1.887,4.75-4.188,4.75c-2.396,0-4.055-1.86-4.055-4.59c0-2.864,1.766-4.737,4.175-4.737
		C239.871,631.975,241.463,633.862,241.463,636.551z M234.451,636.685c0,1.94,1.044,3.667,2.891,3.667s2.89-1.7,2.89-3.747
		c0-1.807-0.937-3.68-2.877-3.68S234.451,634.718,234.451,636.685z"/>
	<path d="M250.579,637.194c-0.067-1.258-0.147-2.784-0.147-3.894h-0.027c-0.321,1.043-0.682,2.181-1.137,3.426l-1.593,4.375h-0.883
		l-1.472-4.295c-0.428-1.285-0.776-2.436-1.03-3.506h-0.027c-0.027,1.124-0.094,2.623-0.174,3.988l-0.241,3.867h-1.11l0.629-9.02
		h1.485l1.539,4.363c0.375,1.11,0.669,2.101,0.91,3.038h0.027c0.241-0.91,0.562-1.9,0.963-3.038l1.606-4.363h1.485l0.562,9.02
		h-1.151L250.579,637.194z"/>
	<path d="M253.739,632.242c0.562-0.093,1.298-0.174,2.235-0.174c1.151,0,1.994,0.268,2.529,0.75c0.482,0.428,0.79,1.084,0.79,1.887
		c0,0.816-0.241,1.458-0.696,1.927c-0.629,0.656-1.619,0.99-2.756,0.99c-0.348,0-0.669-0.014-0.937-0.081v3.613h-1.164V632.242z
		 M254.903,636.591c0.254,0.067,0.576,0.094,0.963,0.094c1.405,0,2.262-0.696,2.262-1.914c0-1.204-0.856-1.78-2.127-1.78
		c-0.509,0-0.897,0.04-1.098,0.094V636.591z"/>
	<path d="M268.569,636.551c0,3.091-1.887,4.75-4.188,4.75c-2.396,0-4.055-1.86-4.055-4.59c0-2.864,1.766-4.737,4.175-4.737
		C266.977,631.975,268.569,633.862,268.569,636.551z M261.557,636.685c0,1.94,1.044,3.667,2.891,3.667s2.891-1.7,2.891-3.747
		c0-1.807-0.937-3.68-2.877-3.68S261.557,634.718,261.557,636.685z"/>
	<path d="M270.083,641.155v-9.02h1.285l2.877,4.563c0.656,1.057,1.191,2.007,1.606,2.931l0.04-0.014
		c-0.107-1.204-0.134-2.302-0.134-3.707v-3.774h1.097v9.02h-1.177l-2.864-4.577c-0.629-1.003-1.231-2.034-1.673-3.011l-0.04,0.013
		c0.067,1.138,0.08,2.221,0.08,3.72v3.854H270.083z"/>
	<path d="M283.548,636.926h-3.493v3.251h3.908v0.977h-5.085v-9.02h4.885v0.977h-3.707v2.85h3.493V636.926z"/>
	<path d="M285.477,641.155v-9.02h1.285l2.877,4.563c0.656,1.057,1.191,2.007,1.606,2.931l0.04-0.014
		c-0.107-1.204-0.134-2.302-0.134-3.707v-3.774h1.097v9.02h-1.177l-2.864-4.577c-0.629-1.003-1.231-2.034-1.673-3.011l-0.04,0.013
		c0.067,1.138,0.08,2.221,0.08,3.72v3.854H285.477z"/>
	<path d="M295.997,633.125h-2.743v-0.99h6.677v0.99h-2.756v8.029h-1.178V633.125z"/>
</g>
<g>
	<path d="M217.943,655.133c0.522,0.334,1.271,0.589,2.074,0.589c1.191,0,1.887-0.629,1.887-1.539c0-0.83-0.482-1.325-1.7-1.78
		c-1.472-0.535-2.382-1.312-2.382-2.569c0-1.405,1.164-2.449,2.917-2.449c0.91,0,1.593,0.214,1.98,0.441l-0.321,0.95
		c-0.281-0.174-0.883-0.428-1.7-0.428c-1.231,0-1.7,0.736-1.7,1.352c0,0.843,0.549,1.258,1.793,1.74
		c1.525,0.589,2.288,1.325,2.288,2.649c0,1.392-1.017,2.609-3.145,2.609c-0.87,0-1.82-0.268-2.302-0.588L217.943,655.133z"/>
	<path d="M224.689,647.639c0.562-0.093,1.298-0.174,2.235-0.174c1.151,0,1.994,0.268,2.529,0.75c0.482,0.428,0.79,1.084,0.79,1.887
		c0,0.816-0.241,1.458-0.696,1.927c-0.629,0.656-1.619,0.99-2.756,0.99c-0.348,0-0.669-0.014-0.937-0.081v3.613h-1.164V647.639z
		 M225.854,651.988c0.254,0.067,0.576,0.094,0.963,0.094c1.405,0,2.262-0.696,2.262-1.914c0-1.204-0.856-1.78-2.127-1.78
		c-0.509,0-0.897,0.04-1.098,0.094V651.988z"/>
	<path d="M236.467,652.323h-3.493v3.251h3.908v0.977h-5.085v-9.02h4.885v0.977h-3.707v2.85h3.493V652.323z"/>
	<path d="M244.686,656.271c-0.415,0.214-1.285,0.428-2.382,0.428c-2.543,0-4.443-1.605-4.443-4.576c0-2.837,1.914-4.737,4.71-4.737
		c1.11,0,1.833,0.241,2.141,0.401l-0.294,0.95c-0.428-0.214-1.057-0.375-1.807-0.375c-2.114,0-3.52,1.352-3.52,3.72
		c0,2.222,1.271,3.626,3.453,3.626c0.723,0,1.445-0.147,1.914-0.375L244.686,656.271z"/>
	<path d="M247.324,647.532v9.02h-1.178v-9.02H247.324z"/>
	<path d="M249.345,647.532h4.858v0.977h-3.68v2.998h3.399v0.963h-3.399v4.082h-1.178V647.532z"/>
	<path d="M257.042,647.532v9.02h-1.178v-9.02H257.042z"/>
	<path d="M265.366,656.271c-0.415,0.214-1.285,0.428-2.382,0.428c-2.543,0-4.443-1.605-4.443-4.576c0-2.837,1.914-4.737,4.71-4.737
		c1.11,0,1.833,0.241,2.141,0.401l-0.294,0.95c-0.428-0.214-1.057-0.375-1.807-0.375c-2.114,0-3.52,1.352-3.52,3.72
		c0,2.222,1.271,3.626,3.453,3.626c0.723,0,1.445-0.147,1.914-0.375L265.366,656.271z"/>
	<path d="M268.352,653.715l-0.937,2.837h-1.205l3.078-9.02h1.392l3.078,9.02h-1.245l-0.963-2.837H268.352z M271.323,652.805
		l-0.896-2.596c-0.201-0.588-0.334-1.124-0.468-1.646h-0.027c-0.134,0.522-0.268,1.084-0.455,1.633l-0.883,2.609H271.323z"/>
	<path d="M275.768,648.522h-2.743v-0.99h6.677v0.99h-2.756v8.029h-1.178V648.522z"/>
	<path d="M281.872,647.532v9.02h-1.178v-9.02H281.872z"/>
	<path d="M291.615,651.948c0,3.091-1.887,4.75-4.188,4.75c-2.396,0-4.055-1.86-4.055-4.59c0-2.864,1.766-4.737,4.175-4.737
		C290.022,647.372,291.615,649.259,291.615,651.948z M284.603,652.082c0,1.94,1.044,3.667,2.891,3.667s2.891-1.7,2.891-3.747
		c0-1.807-0.937-3.68-2.877-3.68S284.603,650.115,284.603,652.082z"/>
	<path d="M293.129,656.552v-9.02h1.285l2.877,4.563c0.656,1.057,1.191,2.007,1.606,2.931l0.04-0.014
		c-0.107-1.204-0.134-2.302-0.134-3.707v-3.774h1.097v9.02h-1.177l-2.864-4.577c-0.629-1.003-1.231-2.034-1.673-3.011l-0.04,0.013
		c0.067,1.138,0.08,2.222,0.08,3.72v3.854H293.129z"/>
</g>
<g>
	
		<rect x="192.271" y="616.996" fill-rule="evenodd" clip-rule="evenodd" fill="none" stroke="#000000" stroke-linejoin="round" stroke-miterlimit="10" width="152.812" height="54.245"/>
	<path fill-rule="evenodd" clip-rule="evenodd" stroke="#000000" stroke-linejoin="round" stroke-miterlimit="10" d="
		M268.677,644.119"/>
</g>
<g>
	<rect x="192.271" y="700.039" fill-rule="evenodd" clip-rule="evenodd" fill="none" width="152.812" height="54.244"/>
</g>
<g>
	<path d="M242.103,715.048c0.522,0.334,1.271,0.589,2.074,0.589c1.191,0,1.887-0.629,1.887-1.539c0-0.83-0.482-1.325-1.7-1.78
		c-1.472-0.535-2.382-1.312-2.382-2.569c0-1.405,1.164-2.449,2.917-2.449c0.91,0,1.593,0.214,1.98,0.441l-0.321,0.95
		c-0.281-0.174-0.883-0.428-1.7-0.428c-1.231,0-1.7,0.736-1.7,1.352c0,0.843,0.549,1.258,1.793,1.74
		c1.525,0.589,2.288,1.325,2.288,2.649c0,1.392-1.017,2.609-3.145,2.609c-0.87,0-1.82-0.268-2.302-0.588L242.103,715.048z"/>
	<path d="M250.857,716.466v-3.827l-2.864-5.192h1.338l1.271,2.489c0.334,0.682,0.616,1.231,0.896,1.86h0.027
		c0.241-0.589,0.562-1.178,0.91-1.86l1.298-2.489h1.312l-3.011,5.179v3.841H250.857z"/>
	<path d="M255.77,715.048c0.522,0.334,1.271,0.589,2.074,0.589c1.191,0,1.887-0.629,1.887-1.539c0-0.83-0.482-1.325-1.7-1.78
		c-1.472-0.535-2.382-1.312-2.382-2.569c0-1.405,1.164-2.449,2.917-2.449c0.91,0,1.593,0.214,1.98,0.441l-0.321,0.95
		c-0.281-0.174-0.883-0.428-1.7-0.428c-1.231,0-1.699,0.736-1.699,1.352c0,0.843,0.548,1.258,1.793,1.74
		c1.525,0.589,2.288,1.325,2.288,2.649c0,1.392-1.017,2.609-3.145,2.609c-0.87,0-1.82-0.268-2.302-0.588L255.77,715.048z"/>
	<path d="M264.229,708.437h-2.743v-0.99h6.677v0.99h-2.756v8.029h-1.178V708.437z"/>
	<path d="M273.826,712.238h-3.493v3.251h3.908v0.977h-5.085v-9.02h4.885v0.977h-3.707v2.85h3.493V712.238z"/>
	<path d="M283.355,712.505c-0.067-1.258-0.147-2.784-0.147-3.894h-0.027c-0.321,1.043-0.682,2.181-1.137,3.426l-1.593,4.375h-0.883
		l-1.472-4.295c-0.428-1.285-0.776-2.436-1.03-3.506h-0.027c-0.027,1.124-0.094,2.623-0.174,3.988l-0.241,3.867h-1.11l0.629-9.02
		h1.485l1.539,4.363c0.375,1.11,0.669,2.101,0.91,3.038h0.027c0.241-0.91,0.562-1.9,0.963-3.038l1.606-4.363h1.485l0.562,9.02
		h-1.151L283.355,712.505z"/>
</g>
<g>
	<path d="M217.943,730.444c0.522,0.334,1.271,0.589,2.074,0.589c1.191,0,1.887-0.629,1.887-1.539c0-0.83-0.482-1.325-1.7-1.78
		c-1.472-0.535-2.382-1.312-2.382-2.569c0-1.405,1.164-2.449,2.917-2.449c0.91,0,1.593,0.214,1.98,0.441l-0.321,0.95
		c-0.281-0.174-0.883-0.428-1.7-0.428c-1.231,0-1.7,0.736-1.7,1.352c0,0.843,0.549,1.258,1.793,1.74
		c1.525,0.589,2.288,1.325,2.288,2.649c0,1.392-1.017,2.609-3.145,2.609c-0.87,0-1.82-0.268-2.302-0.588L217.943,730.444z"/>
	<path d="M224.689,722.95c0.562-0.093,1.298-0.174,2.235-0.174c1.151,0,1.994,0.268,2.529,0.75c0.482,0.428,0.79,1.084,0.79,1.887
		c0,0.816-0.241,1.458-0.696,1.927c-0.629,0.656-1.619,0.99-2.756,0.99c-0.348,0-0.669-0.014-0.937-0.081v3.613h-1.164V722.95z
		 M225.854,727.299c0.254,0.067,0.576,0.094,0.963,0.094c1.405,0,2.262-0.696,2.262-1.914c0-1.204-0.856-1.78-2.127-1.78
		c-0.509,0-0.897,0.04-1.098,0.094V727.299z"/>
	<path d="M236.467,727.634h-3.493v3.251h3.908v0.977h-5.085v-9.02h4.885v0.977h-3.707v2.85h3.493V727.634z"/>
	<path d="M244.686,731.582c-0.415,0.214-1.285,0.428-2.382,0.428c-2.543,0-4.443-1.605-4.443-4.576c0-2.837,1.914-4.737,4.71-4.737
		c1.11,0,1.833,0.241,2.141,0.401l-0.294,0.95c-0.428-0.214-1.057-0.375-1.807-0.375c-2.114,0-3.52,1.352-3.52,3.72
		c0,2.222,1.271,3.626,3.453,3.626c0.723,0,1.445-0.147,1.914-0.375L244.686,731.582z"/>
	<path d="M247.324,722.843v9.02h-1.178v-9.02H247.324z"/>
	<path d="M249.345,722.843h4.858v0.977h-3.68v2.998h3.399v0.963h-3.399v4.082h-1.178V722.843z"/>
	<path d="M257.042,722.843v9.02h-1.178v-9.02H257.042z"/>
	<path d="M265.366,731.582c-0.415,0.214-1.285,0.428-2.382,0.428c-2.543,0-4.443-1.605-4.443-4.576c0-2.837,1.914-4.737,4.71-4.737
		c1.11,0,1.833,0.241,2.141,0.401l-0.294,0.95c-0.428-0.214-1.057-0.375-1.807-0.375c-2.114,0-3.52,1.352-3.52,3.72
		c0,2.222,1.271,3.626,3.453,3.626c0.723,0,1.445-0.147,1.914-0.375L265.366,731.582z"/>
	<path d="M268.352,729.026l-0.937,2.837h-1.205l3.078-9.02h1.392l3.078,9.02h-1.245l-0.963-2.837H268.352z M271.323,728.116
		l-0.896-2.596c-0.201-0.588-0.334-1.124-0.468-1.646h-0.027c-0.134,0.522-0.268,1.084-0.455,1.633l-0.883,2.609H271.323z"/>
	<path d="M275.768,723.833h-2.743v-0.99h6.677v0.99h-2.756v8.029h-1.178V723.833z"/>
	<path d="M281.872,722.843v9.02h-1.178v-9.02H281.872z"/>
	<path d="M291.615,727.259c0,3.091-1.887,4.75-4.188,4.75c-2.396,0-4.055-1.86-4.055-4.59c0-2.864,1.766-4.737,4.175-4.737
		C290.022,722.683,291.615,724.57,291.615,727.259z M284.603,727.393c0,1.94,1.044,3.667,2.891,3.667s2.891-1.7,2.891-3.747
		c0-1.807-0.937-3.68-2.877-3.68S284.603,725.426,284.603,727.393z"/>
	<path d="M293.129,731.863v-9.02h1.285l2.877,4.563c0.656,1.057,1.191,2.007,1.606,2.931l0.04-0.014
		c-0.107-1.204-0.134-2.302-0.134-3.707v-3.774h1.097v9.02h-1.177l-2.864-4.577c-0.629-1.003-1.231-2.034-1.673-3.011l-0.04,0.013
		c0.067,1.138,0.08,2.221,0.08,3.72v3.854H293.129z"/>
</g>
<g>
	<path d="M234.043,746.979c-0.415,0.214-1.285,0.428-2.382,0.428c-2.542,0-4.442-1.605-4.442-4.576c0-2.837,1.914-4.737,4.71-4.737
		c1.11,0,1.833,0.241,2.141,0.401l-0.294,0.95c-0.428-0.214-1.057-0.375-1.807-0.375c-2.114,0-3.52,1.352-3.52,3.72
		c0,2.222,1.271,3.626,3.453,3.626c0.723,0,1.445-0.147,1.914-0.375L234.043,746.979z"/>
	<path d="M242.944,742.656c0,3.091-1.887,4.75-4.188,4.75c-2.396,0-4.055-1.86-4.055-4.59c0-2.864,1.766-4.737,4.175-4.737
		C241.352,738.08,242.944,739.967,242.944,742.656z M235.932,742.79c0,1.94,1.044,3.667,2.891,3.667s2.89-1.7,2.89-3.747
		c0-1.807-0.937-3.68-2.877-3.68S235.932,740.823,235.932,742.79z"/>
	<path d="M252.06,743.299c-0.067-1.258-0.147-2.784-0.147-3.894h-0.027c-0.321,1.043-0.682,2.181-1.137,3.426l-1.593,4.375h-0.883
		l-1.472-4.295c-0.428-1.285-0.776-2.436-1.03-3.506h-0.027c-0.027,1.124-0.094,2.623-0.174,3.988l-0.241,3.867h-1.11l0.629-9.02
		h1.485l1.539,4.363c0.375,1.11,0.669,2.101,0.91,3.038h0.027c0.241-0.91,0.562-1.9,0.963-3.038l1.606-4.363h1.485l0.562,9.02
		h-1.151L252.06,743.299z"/>
	<path d="M255.221,738.347c0.562-0.093,1.298-0.174,2.235-0.174c1.151,0,1.994,0.268,2.529,0.75c0.482,0.428,0.79,1.084,0.79,1.887
		c0,0.816-0.241,1.458-0.696,1.927c-0.629,0.656-1.619,0.99-2.756,0.99c-0.348,0-0.669-0.014-0.937-0.081v3.613h-1.164V738.347z
		 M256.385,742.696c0.254,0.067,0.576,0.094,0.963,0.094c1.405,0,2.262-0.696,2.262-1.914c0-1.204-0.856-1.78-2.127-1.78
		c-0.509,0-0.897,0.04-1.098,0.094V742.696z"/>
	<path d="M262.329,738.24h1.178v8.042h3.854v0.977h-5.032V738.24z"/>
	<path d="M273.316,743.031h-3.493v3.251h3.908v0.977h-5.085v-9.02h4.885v0.977h-3.707v2.85h3.493V743.031z"/>
	<path d="M277.172,739.23h-2.743v-0.99h6.677v0.99h-2.756v8.029h-1.178V739.23z"/>
	<path d="M286.769,743.031h-3.493v3.251h3.908v0.977h-5.085v-9.02h4.885v0.977h-3.707v2.85h3.493V743.031z"/>
	<path d="M288.698,738.374c0.709-0.12,1.552-0.201,2.476-0.201c1.673,0,2.864,0.401,3.653,1.124c0.816,0.736,1.285,1.78,1.285,3.239
		c0,1.472-0.468,2.676-1.298,3.506c-0.856,0.843-2.249,1.298-4.001,1.298c-0.843,0-1.525-0.04-2.114-0.107V738.374z M289.862,746.35
		c0.294,0.041,0.723,0.054,1.178,0.054c2.502,0,3.841-1.392,3.841-3.827c0.013-2.128-1.191-3.479-3.653-3.479
		c-0.603,0-1.057,0.054-1.365,0.121V746.35z"/>
</g>
<g>
	
		<rect x="192.271" y="700.039" fill-rule="evenodd" clip-rule="evenodd" fill="none" stroke="#000000" stroke-linejoin="round" stroke-miterlimit="10" width="152.812" height="54.244"/>
	<path fill-rule="evenodd" clip-rule="evenodd" stroke="#000000" stroke-linejoin="round" stroke-miterlimit="10" d="
		M268.677,727.16"/>
</g>
<g>
	
		<polyline fill-rule="evenodd" clip-rule="evenodd" fill="#FFFFFF" stroke="#000000" stroke-linejoin="round" stroke-miterlimit="10" points="
		44.805,182.847 89.258,182.847 89.258,214.285 44.805,214.285 44.805,182.847 	"/>
	
		<path fill-rule="evenodd" clip-rule="evenodd" fill="#FFFFFF" stroke="#000000" stroke-linejoin="round" stroke-miterlimit="10" d="
		M67.031,198.566"/>
</g>
<g>
	<rect x="44.805" y="182.847" fill-rule="evenodd" clip-rule="evenodd" fill="none" width="44.452" height="31.438"/>
</g>
<g>
	<path d="M58.625,201.851c0.522,0.334,1.271,0.589,2.074,0.589c1.191,0,1.887-0.629,1.887-1.539c0-0.83-0.482-1.325-1.699-1.78
		c-1.472-0.535-2.382-1.312-2.382-2.569c0-1.405,1.164-2.449,2.917-2.449c0.91,0,1.592,0.214,1.98,0.442l-0.321,0.95
		c-0.281-0.174-0.883-0.428-1.699-0.428c-1.231,0-1.699,0.736-1.699,1.352c0,0.843,0.549,1.258,1.793,1.74
		c1.526,0.589,2.288,1.325,2.288,2.649c0,1.392-1.017,2.609-3.145,2.609c-0.87,0-1.82-0.268-2.302-0.588L58.625,201.851z"/>
	<path d="M66.83,200.433l-0.937,2.837h-1.204l3.078-9.02h1.392l3.078,9.02h-1.245l-0.963-2.837H66.83z M69.801,199.522l-0.897-2.596
		c-0.201-0.589-0.334-1.124-0.468-1.646h-0.027c-0.134,0.522-0.268,1.084-0.455,1.633l-0.883,2.609H69.801z"/>
</g>
<g>
	
		<rect x="44.805" y="182.847" fill-rule="evenodd" clip-rule="evenodd" fill="none" stroke="#000000" stroke-linejoin="round" stroke-miterlimit="10" width="44.452" height="31.438"/>
	
		<path fill-rule="evenodd" clip-rule="evenodd" fill="#FFFFFF" stroke="#000000" stroke-linejoin="round" stroke-miterlimit="10" d="
		M67.031,198.566"/>
</g>
<g>
	<rect x="44.419" y="233.935" fill-rule="evenodd" clip-rule="evenodd" fill="none" width="44.452" height="31.439"/>
</g>
<g>
	<path d="M58.239,252.939c0.522,0.334,1.271,0.589,2.074,0.589c1.191,0,1.887-0.629,1.887-1.539c0-0.83-0.482-1.325-1.699-1.78
		c-1.472-0.535-2.382-1.312-2.382-2.569c0-1.405,1.164-2.449,2.917-2.449c0.91,0,1.592,0.214,1.98,0.441l-0.321,0.95
		c-0.281-0.174-0.883-0.428-1.699-0.428c-1.231,0-1.699,0.736-1.699,1.352c0,0.843,0.549,1.258,1.793,1.74
		c1.525,0.589,2.288,1.325,2.288,2.649c0,1.392-1.017,2.609-3.145,2.609c-0.87,0-1.82-0.268-2.302-0.588L58.239,252.939z"/>
	<path d="M64.985,245.472c0.509-0.12,1.325-0.201,2.128-0.201c1.164,0,1.914,0.201,2.462,0.656c0.469,0.348,0.763,0.883,0.763,1.592
		c0,0.883-0.589,1.646-1.526,1.981v0.04c0.856,0.201,1.86,0.91,1.86,2.248c0,0.776-0.308,1.378-0.776,1.807
		c-0.615,0.575-1.633,0.843-3.105,0.843c-0.803,0-1.418-0.053-1.806-0.107V245.472z M66.149,249.166h1.057
		c1.218,0,1.94-0.656,1.94-1.525c0-1.044-0.79-1.472-1.967-1.472c-0.535,0-0.843,0.041-1.031,0.081V249.166z M66.149,253.475
		c0.241,0.04,0.562,0.054,0.977,0.054c1.204,0,2.315-0.442,2.315-1.753c0-1.218-1.057-1.74-2.328-1.74h-0.964V253.475z"/>
</g>
<g>
	
		<rect x="44.805" y="234.321" fill-rule="evenodd" clip-rule="evenodd" fill="none" stroke="#000000" stroke-linejoin="round" stroke-miterlimit="10" width="44.452" height="31.439"/>
	
		<path fill-rule="evenodd" clip-rule="evenodd" fill="#FFFFFF" stroke="#000000" stroke-linejoin="round" stroke-miterlimit="10" d="
		M67.031,250.041"/>
</g>
<g>
	<rect x="44.419" y="288.115" fill-rule="evenodd" clip-rule="evenodd" fill="none" width="44.452" height="31.439"/>
</g>
<g>
	<path d="M58.239,307.119c0.522,0.334,1.271,0.589,2.074,0.589c1.191,0,1.887-0.629,1.887-1.539c0-0.83-0.482-1.325-1.699-1.78
		c-1.472-0.535-2.382-1.312-2.382-2.569c0-1.405,1.164-2.449,2.917-2.449c0.91,0,1.592,0.214,1.98,0.441l-0.321,0.95
		c-0.281-0.174-0.883-0.428-1.699-0.428c-1.231,0-1.699,0.736-1.699,1.352c0,0.843,0.549,1.258,1.793,1.74
		c1.525,0.589,2.288,1.325,2.288,2.649c0,1.392-1.017,2.609-3.145,2.609c-0.87,0-1.82-0.268-2.302-0.588L58.239,307.119z"/>
	<path d="M71.274,308.256c-0.415,0.214-1.285,0.428-2.382,0.428c-2.542,0-4.443-1.605-4.443-4.576c0-2.837,1.914-4.737,4.71-4.737
		c1.111,0,1.833,0.241,2.141,0.401l-0.294,0.95c-0.428-0.214-1.057-0.375-1.806-0.375c-2.115,0-3.52,1.352-3.52,3.72
		c0,2.222,1.271,3.626,3.453,3.626c0.723,0,1.445-0.147,1.914-0.375L71.274,308.256z"/>
</g>
<g>
	
		<rect x="44.805" y="288.565" fill-rule="evenodd" clip-rule="evenodd" fill="none" stroke="#000000" stroke-linejoin="round" stroke-miterlimit="10" width="44.452" height="31.439"/>
	
		<path fill-rule="evenodd" clip-rule="evenodd" fill="#FFFFFF" stroke="#000000" stroke-linejoin="round" stroke-miterlimit="10" d="
		M67.031,304.285"/>
</g>
<g>
	<rect x="44.934" y="345.452" fill-rule="evenodd" clip-rule="evenodd" fill="none" width="44.452" height="31.438"/>
</g>
<g>
	<path d="M58.754,364.456c0.522,0.334,1.271,0.589,2.074,0.589c1.191,0,1.887-0.629,1.887-1.539c0-0.83-0.482-1.325-1.699-1.78
		c-1.472-0.535-2.382-1.312-2.382-2.569c0-1.405,1.164-2.449,2.917-2.449c0.91,0,1.592,0.214,1.98,0.441l-0.321,0.95
		c-0.281-0.174-0.883-0.428-1.699-0.428c-1.231,0-1.699,0.736-1.699,1.352c0,0.843,0.549,1.258,1.793,1.74
		c1.525,0.589,2.288,1.325,2.288,2.649c0,1.392-1.017,2.609-3.145,2.609c-0.87,0-1.82-0.268-2.302-0.588L58.754,364.456z"/>
	<path d="M65.5,356.988c0.709-0.12,1.552-0.201,2.476-0.201c1.673,0,2.864,0.401,3.653,1.124c0.816,0.736,1.285,1.78,1.285,3.239
		c0,1.472-0.469,2.676-1.298,3.506c-0.856,0.843-2.248,1.298-4.001,1.298c-0.843,0-1.525-0.04-2.114-0.107V356.988z M66.664,364.964
		c0.294,0.041,0.723,0.054,1.178,0.054c2.502,0,3.841-1.392,3.841-3.827c0.013-2.128-1.191-3.479-3.653-3.479
		c-0.602,0-1.057,0.054-1.365,0.121V364.964z"/>
</g>
<g>
	
		<rect x="44.805" y="345.58" fill-rule="evenodd" clip-rule="evenodd" fill="none" stroke="#000000" stroke-linejoin="round" stroke-miterlimit="10" width="44.452" height="31.439"/>
	
		<path fill-rule="evenodd" clip-rule="evenodd" fill="#FFFFFF" stroke="#000000" stroke-linejoin="round" stroke-miterlimit="10" d="
		M67.031,361.3"/>
</g>
<g>
	<rect x="44.677" y="403.304" fill-rule="evenodd" clip-rule="evenodd" fill="none" width="44.452" height="31.438"/>
</g>
<g>
	<path d="M64.546,423.445c-0.415,0.214-1.285,0.428-2.382,0.428c-2.542,0-4.443-1.605-4.443-4.576c0-2.837,1.914-4.737,4.71-4.737
		c1.111,0,1.833,0.241,2.141,0.401l-0.294,0.95c-0.428-0.214-1.057-0.375-1.806-0.375c-2.115,0-3.52,1.352-3.52,3.72
		c0,2.222,1.271,3.626,3.453,3.626c0.723,0,1.445-0.147,1.914-0.375L64.546,423.445z"/>
	<path d="M67.532,420.889l-0.937,2.837h-1.204l3.078-9.02h1.392l3.078,9.02h-1.245l-0.964-2.837H67.532z M70.503,419.979
		l-0.897-2.596c-0.201-0.588-0.334-1.124-0.468-1.646h-0.027c-0.134,0.522-0.268,1.084-0.455,1.633l-0.883,2.609H70.503z"/>
</g>
<g>
	
		<rect x="44.805" y="401.564" fill-rule="evenodd" clip-rule="evenodd" fill="none" stroke="#000000" stroke-linejoin="round" stroke-miterlimit="10" width="44.452" height="31.439"/>
	
		<path fill-rule="evenodd" clip-rule="evenodd" fill="#FFFFFF" stroke="#000000" stroke-linejoin="round" stroke-miterlimit="10" d="
		M67.031,417.283"/>
</g>
<g>
	<rect x="45.256" y="459.417" fill-rule="evenodd" clip-rule="evenodd" fill="none" width="44.452" height="31.438"/>
</g>
<g>
	<path d="M65.126,479.557c-0.415,0.214-1.285,0.428-2.382,0.428c-2.542,0-4.443-1.605-4.443-4.576c0-2.837,1.914-4.737,4.71-4.737
		c1.111,0,1.833,0.241,2.141,0.401l-0.294,0.95c-0.428-0.214-1.057-0.375-1.806-0.375c-2.115,0-3.52,1.352-3.52,3.72
		c0,2.222,1.271,3.626,3.453,3.626c0.722,0,1.445-0.147,1.914-0.375L65.126,479.557z"/>
	<path d="M66.6,470.953c0.509-0.12,1.325-0.201,2.128-0.201c1.164,0,1.914,0.201,2.462,0.656c0.469,0.348,0.763,0.883,0.763,1.592
		c0,0.883-0.589,1.646-1.526,1.981v0.04c0.856,0.201,1.86,0.91,1.86,2.248c0,0.776-0.308,1.378-0.776,1.807
		c-0.615,0.575-1.633,0.843-3.105,0.843c-0.803,0-1.418-0.053-1.806-0.107V470.953z M67.764,474.646h1.057
		c1.218,0,1.94-0.656,1.94-1.525c0-1.044-0.79-1.472-1.967-1.472c-0.535,0-0.843,0.041-1.031,0.081V474.646z M67.764,478.955
		c0.241,0.04,0.562,0.054,0.977,0.054c1.204,0,2.315-0.442,2.315-1.753c0-1.218-1.057-1.74-2.328-1.74h-0.964V478.955z"/>
</g>
<g>
	
		<rect x="44.805" y="459.03" fill-rule="evenodd" clip-rule="evenodd" fill="none" stroke="#000000" stroke-linejoin="round" stroke-miterlimit="10" width="44.452" height="31.439"/>
	
		<path fill-rule="evenodd" clip-rule="evenodd" fill="#FFFFFF" stroke="#000000" stroke-linejoin="round" stroke-miterlimit="10" d="
		M67.031,474.75"/>
</g>
<g>
	<rect x="387.925" y="99.805" fill-rule="evenodd" clip-rule="evenodd" fill="none" width="152.876" height="54.18"/>
</g>
<g>
	<path d="M427.508,121.063l-0.937,2.837h-1.205l3.078-9.02h1.392l3.078,9.02h-1.244l-0.964-2.837H427.508z M430.479,120.153
		l-0.896-2.596c-0.201-0.589-0.334-1.124-0.468-1.646h-0.027c-0.134,0.522-0.268,1.084-0.455,1.633l-0.883,2.609H430.479z"/>
	<path d="M434.241,115.001c0.589-0.107,1.445-0.188,2.235-0.188c1.245,0,2.061,0.241,2.609,0.736
		c0.441,0.401,0.709,1.017,0.709,1.726c0,1.177-0.749,1.967-1.686,2.288v0.04c0.683,0.241,1.098,0.883,1.312,1.82
		c0.294,1.258,0.509,2.128,0.696,2.476h-1.204c-0.147-0.268-0.348-1.031-0.589-2.155c-0.268-1.244-0.763-1.713-1.82-1.753h-1.098
		v3.907h-1.164V115.001z M435.405,119.11h1.191c1.245,0,2.034-0.682,2.034-1.713c0-1.164-0.843-1.673-2.074-1.673
		c-0.562,0-0.95,0.04-1.151,0.094V119.11z"/>
	<path d="M441.443,115.015c0.508-0.12,1.325-0.201,2.127-0.201c1.165,0,1.914,0.201,2.462,0.656
		c0.468,0.348,0.763,0.883,0.763,1.593c0,0.883-0.588,1.646-1.525,1.98v0.04c0.856,0.201,1.86,0.91,1.86,2.248
		c0,0.776-0.308,1.378-0.776,1.807c-0.616,0.575-1.633,0.843-3.104,0.843c-0.803,0-1.418-0.053-1.807-0.107V115.015z
		 M442.607,118.708h1.057c1.218,0,1.94-0.656,1.94-1.526c0-1.044-0.79-1.472-1.967-1.472c-0.536,0-0.843,0.04-1.031,0.08V118.708z
		 M442.607,123.017c0.241,0.04,0.562,0.054,0.977,0.054c1.204,0,2.315-0.442,2.315-1.753c0-1.218-1.057-1.74-2.329-1.74h-0.963
		V123.017z"/>
	<path d="M449.862,114.881v9.02h-1.178v-9.02H449.862z"/>
	<path d="M453.61,115.871h-2.743v-0.99h6.677v0.99h-2.756v8.029h-1.178V115.871z"/>
	<path d="M458.549,115.001c0.589-0.107,1.445-0.188,2.235-0.188c1.244,0,2.061,0.241,2.609,0.736
		c0.441,0.401,0.709,1.017,0.709,1.726c0,1.177-0.749,1.967-1.686,2.288v0.04c0.683,0.241,1.098,0.883,1.312,1.82
		c0.294,1.258,0.509,2.128,0.696,2.476h-1.204c-0.147-0.268-0.348-1.031-0.589-2.155c-0.268-1.244-0.763-1.713-1.82-1.753h-1.098
		v3.907h-1.164V115.001z M459.713,119.11h1.191c1.245,0,2.034-0.682,2.034-1.713c0-1.164-0.843-1.673-2.074-1.673
		c-0.562,0-0.95,0.04-1.151,0.094V119.11z"/>
	<path d="M467.276,121.063l-0.937,2.837h-1.205l3.078-9.02h1.392l3.078,9.02h-1.244l-0.964-2.837H467.276z M470.247,120.153
		l-0.896-2.596c-0.201-0.589-0.334-1.124-0.468-1.646h-0.027c-0.134,0.522-0.268,1.084-0.455,1.633l-0.883,2.609H470.247z"/>
	<path d="M474.01,115.001c0.589-0.107,1.445-0.188,2.235-0.188c1.245,0,2.061,0.241,2.609,0.736
		c0.441,0.401,0.709,1.017,0.709,1.726c0,1.177-0.749,1.967-1.686,2.288v0.04c0.683,0.241,1.098,0.883,1.312,1.82
		c0.294,1.258,0.509,2.128,0.696,2.476h-1.204c-0.147-0.268-0.348-1.031-0.589-2.155c-0.268-1.244-0.763-1.713-1.82-1.753h-1.098
		v3.907h-1.164V115.001z M475.174,119.11h1.191c1.245,0,2.034-0.682,2.034-1.713c0-1.164-0.843-1.673-2.074-1.673
		c-0.562,0-0.95,0.04-1.151,0.094V119.11z"/>
	<path d="M483.071,123.9v-3.827l-2.864-5.192h1.338l1.271,2.489c0.334,0.682,0.616,1.231,0.896,1.86h0.027
		c0.241-0.589,0.562-1.177,0.91-1.86l1.298-2.489h1.312l-3.011,5.179v3.841H483.071z"/>
</g>
<g>
	<path d="M437.756,137.879c0.522,0.334,1.271,0.589,2.074,0.589c1.191,0,1.887-0.629,1.887-1.539c0-0.83-0.482-1.325-1.7-1.78
		c-1.472-0.535-2.382-1.311-2.382-2.569c0-1.405,1.164-2.449,2.917-2.449c0.91,0,1.593,0.214,1.98,0.442l-0.321,0.95
		c-0.281-0.174-0.883-0.428-1.7-0.428c-1.231,0-1.7,0.736-1.7,1.352c0,0.843,0.549,1.258,1.793,1.74
		c1.525,0.589,2.288,1.325,2.288,2.65c0,1.392-1.017,2.609-3.145,2.609c-0.87,0-1.82-0.268-2.302-0.589L437.756,137.879z"/>
	<path d="M446.51,139.297v-3.827l-2.864-5.192h1.338l1.271,2.489c0.334,0.683,0.616,1.231,0.896,1.86h0.027
		c0.241-0.589,0.562-1.177,0.91-1.86l1.298-2.489h1.312l-3.011,5.179v3.841H446.51z"/>
	<path d="M451.423,137.879c0.522,0.334,1.271,0.589,2.074,0.589c1.191,0,1.887-0.629,1.887-1.539c0-0.83-0.482-1.325-1.7-1.78
		c-1.472-0.535-2.382-1.311-2.382-2.569c0-1.405,1.164-2.449,2.917-2.449c0.91,0,1.593,0.214,1.98,0.442l-0.321,0.95
		c-0.281-0.174-0.883-0.428-1.7-0.428c-1.231,0-1.699,0.736-1.699,1.352c0,0.843,0.548,1.258,1.793,1.74
		c1.525,0.589,2.288,1.325,2.288,2.65c0,1.392-1.017,2.609-3.145,2.609c-0.87,0-1.82-0.268-2.302-0.589L451.423,137.879z"/>
	<path d="M459.882,131.268h-2.743v-0.99h6.677v0.99h-2.756v8.029h-1.178V131.268z"/>
	<path d="M469.479,135.068h-3.493v3.252h3.908v0.977h-5.085v-9.02h4.885v0.977h-3.707v2.85h3.493V135.068z"/>
	<path d="M479.009,135.336c-0.067-1.258-0.147-2.783-0.147-3.894h-0.027c-0.321,1.044-0.682,2.181-1.137,3.426l-1.593,4.376h-0.883
		l-1.472-4.296c-0.428-1.285-0.776-2.436-1.03-3.506h-0.027c-0.027,1.124-0.094,2.623-0.174,3.988l-0.241,3.867h-1.11l0.629-9.02
		h1.485l1.539,4.363c0.375,1.111,0.669,2.101,0.91,3.038h0.027c0.241-0.91,0.562-1.9,0.963-3.038l1.606-4.363h1.485l0.562,9.02
		h-1.151L479.009,135.336z"/>
</g>
<g>
	
		<rect x="388.054" y="99.934" fill-rule="evenodd" clip-rule="evenodd" fill="none" stroke="#000000" stroke-linejoin="round" stroke-miterlimit="10" width="152.876" height="54.18"/>
	
		<path fill-rule="evenodd" clip-rule="evenodd" fill="#FFFFFF" stroke="#000000" stroke-linejoin="round" stroke-miterlimit="10" d="
		M464.492,127.024"/>
</g>
<g>
	<rect x="387.925" y="186.584" fill-rule="evenodd" clip-rule="evenodd" fill="none" width="152.876" height="54.244"/>
</g>
<g>
	<path d="M440.866,194.126c0.709-0.12,1.552-0.201,2.476-0.201c1.673,0,2.864,0.402,3.653,1.124c0.816,0.736,1.285,1.78,1.285,3.239
		c0,1.472-0.468,2.676-1.298,3.506c-0.856,0.843-2.249,1.298-4.001,1.298c-0.843,0-1.525-0.04-2.114-0.107V194.126z M442.03,202.102
		c0.294,0.041,0.723,0.054,1.178,0.054c2.502,0,3.841-1.392,3.841-3.827c0.013-2.128-1.191-3.479-3.653-3.479
		c-0.603,0-1.057,0.054-1.365,0.121V202.102z"/>
	<path d="M454.438,198.783h-3.493v3.251h3.908v0.977h-5.085v-9.02h4.885v0.977h-3.707v2.85h3.493V198.783z"/>
	<path d="M456.353,193.992h4.858v0.977h-3.68v2.998h3.399v0.963h-3.399v4.082h-1.178V193.992z"/>
	<path d="M464.049,193.992v9.02h-1.178v-9.02H464.049z"/>
	<path d="M466.084,203.012v-9.02h1.285l2.877,4.563c0.656,1.057,1.191,2.007,1.606,2.931l0.04-0.014
		c-0.107-1.204-0.134-2.302-0.134-3.707v-3.774h1.097v9.02h-1.177l-2.864-4.577c-0.629-1.003-1.231-2.034-1.673-3.011l-0.04,0.013
		c0.067,1.137,0.08,2.222,0.08,3.72v3.854H466.084z"/>
	<path d="M479.549,198.783h-3.493v3.251h3.908v0.977h-5.085v-9.02h4.885v0.977h-3.707v2.85h3.493V198.783z"/>
</g>
<g>
	<path d="M426.758,209.523c0.508-0.12,1.325-0.201,2.127-0.201c1.165,0,1.914,0.201,2.462,0.656
		c0.468,0.348,0.763,0.883,0.763,1.592c0,0.883-0.588,1.646-1.525,1.981v0.04c0.856,0.201,1.86,0.91,1.86,2.248
		c0,0.776-0.308,1.378-0.776,1.807c-0.616,0.575-1.633,0.843-3.104,0.843c-0.803,0-1.418-0.053-1.807-0.107V209.523z
		 M427.922,213.216h1.057c1.218,0,1.94-0.656,1.94-1.525c0-1.044-0.79-1.472-1.967-1.472c-0.536,0-0.843,0.041-1.031,0.081V213.216z
		 M427.922,217.525c0.241,0.04,0.562,0.054,0.977,0.054c1.204,0,2.315-0.442,2.315-1.753c0-1.218-1.057-1.74-2.329-1.74h-0.963
		V217.525z"/>
	<path d="M441.721,213.805c0,3.091-1.887,4.75-4.188,4.75c-2.396,0-4.055-1.86-4.055-4.59c0-2.864,1.766-4.737,4.175-4.737
		C440.129,209.229,441.721,211.116,441.721,213.805z M434.709,213.939c0,1.94,1.044,3.667,2.891,3.667s2.891-1.7,2.891-3.747
		c0-1.807-0.937-3.68-2.877-3.68S434.709,211.972,434.709,213.939z"/>
	<path d="M444.4,209.389v5.353c0,2.007,0.896,2.864,2.101,2.864c1.325,0,2.195-0.883,2.195-2.864v-5.353h1.177v5.272
		c0,2.77-1.458,3.894-3.412,3.894c-1.847,0-3.239-1.043-3.239-3.854v-5.313H444.4z"/>
	<path d="M451.896,218.409v-9.02h1.285l2.877,4.563c0.656,1.057,1.191,2.007,1.606,2.931l0.04-0.014
		c-0.107-1.204-0.134-2.302-0.134-3.707v-3.774h1.097v9.02h-1.177l-2.864-4.577c-0.629-1.003-1.231-2.034-1.673-3.011l-0.04,0.013
		c0.067,1.138,0.08,2.221,0.08,3.72v3.854H451.896z"/>
	<path d="M460.704,209.523c0.709-0.12,1.552-0.201,2.476-0.201c1.673,0,2.864,0.401,3.653,1.124c0.816,0.736,1.285,1.78,1.285,3.239
		c0,1.472-0.468,2.676-1.298,3.506c-0.856,0.843-2.249,1.298-4.001,1.298c-0.843,0-1.525-0.04-2.114-0.107V209.523z
		 M461.868,217.499c0.294,0.041,0.723,0.054,1.178,0.054c2.502,0,3.841-1.392,3.841-3.827c0.013-2.128-1.191-3.479-3.653-3.479
		c-0.603,0-1.057,0.054-1.365,0.121V217.499z"/>
	<path d="M470.89,215.572l-0.937,2.837h-1.205l3.078-9.02h1.392l3.078,9.02h-1.244l-0.964-2.837H470.89z M473.86,214.662
		l-0.896-2.596c-0.201-0.588-0.334-1.124-0.468-1.646h-0.027c-0.134,0.522-0.268,1.084-0.455,1.633l-0.883,2.609H473.86z"/>
	<path d="M477.623,209.51c0.589-0.107,1.445-0.188,2.235-0.188c1.245,0,2.061,0.241,2.609,0.736
		c0.441,0.401,0.709,1.017,0.709,1.726c0,1.178-0.749,1.967-1.686,2.288v0.041c0.683,0.241,1.098,0.883,1.312,1.82
		c0.294,1.258,0.509,2.127,0.696,2.476h-1.204c-0.147-0.268-0.348-1.03-0.589-2.154c-0.268-1.245-0.763-1.713-1.82-1.753h-1.098
		v3.908h-1.164V209.51z M478.787,213.618h1.191c1.245,0,2.034-0.683,2.034-1.713c0-1.165-0.843-1.673-2.074-1.673
		c-0.562,0-0.95,0.04-1.151,0.094V213.618z"/>
	<path d="M486.685,218.409v-3.827l-2.864-5.192h1.338l1.271,2.489c0.334,0.682,0.616,1.231,0.896,1.86h0.027
		c0.241-0.589,0.562-1.178,0.91-1.86l1.298-2.489h1.312l-3.011,5.179v3.841H486.685z"/>
</g>
<g>
	<path d="M429.698,233.524c-0.415,0.214-1.285,0.428-2.382,0.428c-2.542,0-4.442-1.605-4.442-4.576c0-2.837,1.914-4.737,4.71-4.737
		c1.11,0,1.833,0.241,2.141,0.401l-0.294,0.95c-0.428-0.214-1.057-0.375-1.807-0.375c-2.114,0-3.52,1.352-3.52,3.72
		c0,2.222,1.271,3.626,3.453,3.626c0.723,0,1.445-0.147,1.914-0.375L429.698,233.524z"/>
	<path d="M438.599,229.202c0,3.091-1.887,4.75-4.188,4.75c-2.396,0-4.055-1.86-4.055-4.59c0-2.864,1.766-4.737,4.175-4.737
		C437.006,224.625,438.599,226.513,438.599,229.202z M431.586,229.336c0,1.94,1.044,3.667,2.891,3.667s2.89-1.7,2.89-3.747
		c0-1.807-0.937-3.68-2.877-3.68S431.586,227.369,431.586,229.336z"/>
	<path d="M440.113,233.806v-9.02h1.285l2.877,4.563c0.656,1.057,1.191,2.007,1.606,2.931l0.04-0.014
		c-0.107-1.204-0.134-2.302-0.134-3.707v-3.774h1.097v9.02h-1.177l-2.864-4.577c-0.629-1.003-1.231-2.034-1.673-3.011l-0.04,0.013
		c0.067,1.138,0.08,2.222,0.08,3.72v3.854H440.113z"/>
	<path d="M448.921,224.92c0.709-0.12,1.552-0.201,2.476-0.201c1.673,0,2.864,0.401,3.653,1.124c0.816,0.736,1.285,1.78,1.285,3.239
		c0,1.472-0.468,2.676-1.298,3.506c-0.856,0.843-2.249,1.298-4.001,1.298c-0.843,0-1.525-0.04-2.114-0.107V224.92z M450.085,232.896
		c0.294,0.041,0.723,0.054,1.178,0.054c2.502,0,3.841-1.392,3.841-3.827c0.013-2.128-1.191-3.479-3.653-3.479
		c-0.603,0-1.057,0.054-1.365,0.121V232.896z"/>
	<path d="M459,224.786v9.02h-1.178v-9.02H459z"/>
	<path d="M462.748,225.776h-2.743v-0.99h6.677v0.99h-2.756v8.029h-1.178V225.776z"/>
	<path d="M468.852,224.786v9.02h-1.178v-9.02H468.852z"/>
	<path d="M478.595,229.202c0,3.091-1.887,4.75-4.188,4.75c-2.396,0-4.055-1.86-4.055-4.59c0-2.864,1.766-4.737,4.175-4.737
		C477.002,224.625,478.595,226.513,478.595,229.202z M471.583,229.336c0,1.94,1.044,3.667,2.891,3.667s2.89-1.7,2.89-3.747
		c0-1.807-0.937-3.68-2.877-3.68S471.583,227.369,471.583,229.336z"/>
	<path d="M480.109,233.806v-9.02h1.285l2.877,4.563c0.656,1.057,1.191,2.007,1.606,2.931l0.04-0.014
		c-0.107-1.204-0.134-2.302-0.134-3.707v-3.774h1.097v9.02h-1.177l-2.864-4.577c-0.629-1.003-1.231-2.034-1.673-3.011l-0.04,0.013
		c0.067,1.138,0.08,2.222,0.08,3.72v3.854H480.109z"/>
	<path d="M488.77,232.387c0.522,0.334,1.271,0.589,2.074,0.589c1.191,0,1.887-0.629,1.887-1.539c0-0.83-0.482-1.325-1.7-1.78
		c-1.472-0.535-2.382-1.312-2.382-2.569c0-1.405,1.164-2.449,2.917-2.449c0.91,0,1.593,0.214,1.98,0.441l-0.321,0.95
		c-0.281-0.174-0.883-0.428-1.7-0.428c-1.231,0-1.699,0.736-1.699,1.352c0,0.843,0.548,1.258,1.793,1.74
		c1.525,0.589,2.288,1.325,2.288,2.649c0,1.392-1.017,2.609-3.145,2.609c-0.87,0-1.82-0.268-2.302-0.588L488.77,232.387z"/>
</g>
<g>
	
		<rect x="388.054" y="187.035" fill-rule="evenodd" clip-rule="evenodd" fill="none" stroke="#000000" stroke-linejoin="round" stroke-miterlimit="10" width="152.876" height="54.179"/>
	
		<path fill-rule="evenodd" clip-rule="evenodd" fill="#FFFFFF" stroke="#000000" stroke-linejoin="round" stroke-miterlimit="10" d="
		M464.492,214.125"/>
</g>
<g>
	<rect x="388.698" y="272.653" fill-rule="evenodd" clip-rule="evenodd" fill="none" width="152.876" height="54.244"/>
</g>
<g>
	<path d="M441.641,280.196c0.709-0.12,1.552-0.201,2.476-0.201c1.673,0,2.864,0.401,3.653,1.124c0.816,0.736,1.285,1.78,1.285,3.239
		c0,1.472-0.468,2.676-1.298,3.506c-0.856,0.843-2.249,1.298-4.001,1.298c-0.843,0-1.525-0.04-2.114-0.107V280.196z
		 M442.805,288.171c0.294,0.041,0.723,0.054,1.178,0.054c2.502,0,3.841-1.392,3.841-3.827c0.013-2.128-1.191-3.479-3.653-3.479
		c-0.603,0-1.057,0.054-1.365,0.121V288.171z"/>
	<path d="M455.212,284.853h-3.493v3.251h3.908v0.977h-5.085v-9.02h4.885v0.977h-3.707v2.85h3.493V284.853z"/>
	<path d="M457.127,280.062h4.858v0.977h-3.68v2.998h3.399V285h-3.399v4.082h-1.178V280.062z"/>
	<path d="M464.824,280.062v9.02h-1.178v-9.02H464.824z"/>
	<path d="M466.859,289.082v-9.02h1.285l2.877,4.563c0.656,1.057,1.191,2.007,1.606,2.931l0.04-0.014
		c-0.107-1.204-0.134-2.302-0.134-3.707v-3.774h1.097v9.02h-1.177l-2.864-4.577c-0.629-1.003-1.231-2.034-1.673-3.011l-0.04,0.013
		c0.067,1.138,0.08,2.221,0.08,3.72v3.854H466.859z"/>
	<path d="M480.323,284.853h-3.493v3.251h3.908v0.977h-5.085v-9.02h4.885v0.977h-3.707v2.85h3.493V284.853z"/>
</g>
<g>
	<path d="M421.457,303.06c0.522,0.334,1.271,0.589,2.074,0.589c1.191,0,1.887-0.629,1.887-1.539c0-0.83-0.482-1.325-1.7-1.78
		c-1.472-0.535-2.382-1.312-2.382-2.569c0-1.405,1.164-2.449,2.917-2.449c0.91,0,1.593,0.214,1.98,0.441l-0.321,0.95
		c-0.281-0.174-0.883-0.428-1.7-0.428c-1.231,0-1.7,0.736-1.7,1.352c0,0.843,0.549,1.258,1.793,1.74
		c1.525,0.589,2.288,1.325,2.288,2.649c0,1.392-1.017,2.609-3.145,2.609c-0.87,0-1.82-0.268-2.302-0.588L421.457,303.06z"/>
	<path d="M429.916,296.449h-2.743v-0.99h6.677v0.99h-2.756v8.029h-1.178V296.449z"/>
	<path d="M434.855,295.579c0.589-0.107,1.445-0.188,2.235-0.188c1.245,0,2.061,0.241,2.609,0.736
		c0.441,0.401,0.709,1.017,0.709,1.726c0,1.178-0.749,1.967-1.686,2.288v0.041c0.683,0.241,1.098,0.883,1.312,1.82
		c0.294,1.258,0.509,2.127,0.696,2.476h-1.204c-0.147-0.268-0.348-1.03-0.589-2.154c-0.268-1.245-0.763-1.713-1.82-1.753h-1.098
		v3.908h-1.164V295.579z M436.02,299.688h1.191c1.245,0,2.034-0.683,2.034-1.713c0-1.165-0.843-1.673-2.074-1.673
		c-0.562,0-0.95,0.04-1.151,0.094V299.688z"/>
	<path d="M446.714,300.25h-3.493v3.251h3.908v0.977h-5.085v-9.02h4.885v0.977h-3.707v2.85h3.493V300.25z"/>
	<path d="M448.495,303.06c0.522,0.334,1.271,0.589,2.074,0.589c1.191,0,1.887-0.629,1.887-1.539c0-0.83-0.482-1.325-1.7-1.78
		c-1.472-0.535-2.382-1.312-2.382-2.569c0-1.405,1.164-2.449,2.917-2.449c0.91,0,1.593,0.214,1.98,0.441l-0.321,0.95
		c-0.281-0.174-0.883-0.428-1.7-0.428c-1.231,0-1.699,0.736-1.699,1.352c0,0.843,0.548,1.258,1.793,1.74
		c1.525,0.589,2.288,1.325,2.288,2.649c0,1.392-1.017,2.609-3.145,2.609c-0.87,0-1.82-0.268-2.302-0.588L448.495,303.06z"/>
	<path d="M455.094,303.06c0.522,0.334,1.271,0.589,2.074,0.589c1.191,0,1.887-0.629,1.887-1.539c0-0.83-0.482-1.325-1.7-1.78
		c-1.472-0.535-2.382-1.312-2.382-2.569c0-1.405,1.164-2.449,2.917-2.449c0.91,0,1.593,0.214,1.98,0.441l-0.321,0.95
		c-0.281-0.174-0.883-0.428-1.7-0.428c-1.231,0-1.7,0.736-1.7,1.352c0,0.843,0.549,1.258,1.793,1.74
		c1.525,0.589,2.288,1.325,2.288,2.649c0,1.392-1.017,2.609-3.145,2.609c-0.87,0-1.82-0.268-2.302-0.588L455.094,303.06z"/>
	<path d="M461.827,295.458h4.858v0.977h-3.68v2.998h3.399v0.963h-3.399v4.082h-1.178V295.458z"/>
	<path d="M468.36,295.579c0.589-0.107,1.445-0.188,2.235-0.188c1.244,0,2.061,0.241,2.609,0.736
		c0.441,0.401,0.709,1.017,0.709,1.726c0,1.178-0.749,1.967-1.686,2.288v0.041c0.683,0.241,1.098,0.883,1.312,1.82
		c0.294,1.258,0.509,2.127,0.696,2.476h-1.204c-0.147-0.268-0.348-1.03-0.589-2.154c-0.268-1.245-0.763-1.713-1.82-1.753h-1.098
		v3.908h-1.164V295.579z M469.524,299.688h1.191c1.245,0,2.034-0.683,2.034-1.713c0-1.165-0.843-1.673-2.074-1.673
		c-0.562,0-0.95,0.04-1.151,0.094V299.688z"/>
	<path d="M480.218,300.25h-3.493v3.251h3.908v0.977h-5.085v-9.02h4.885v0.977h-3.707v2.85h3.493V300.25z"/>
	<path d="M486.803,300.25h-3.493v3.251h3.908v0.977h-5.085v-9.02h4.885v0.977h-3.707v2.85h3.493V300.25z"/>
</g>
<g>
	<path d="M416.04,319.595c-0.415,0.214-1.285,0.428-2.382,0.428c-2.543,0-4.443-1.605-4.443-4.576c0-2.837,1.914-4.737,4.71-4.737
		c1.11,0,1.833,0.241,2.141,0.401l-0.294,0.95c-0.428-0.214-1.057-0.375-1.807-0.375c-2.114,0-3.52,1.352-3.52,3.72
		c0,2.222,1.271,3.626,3.453,3.626c0.723,0,1.445-0.147,1.914-0.375L416.04,319.595z"/>
	<path d="M424.941,315.272c0,3.091-1.887,4.75-4.188,4.75c-2.396,0-4.055-1.86-4.055-4.59c0-2.864,1.766-4.737,4.175-4.737
		C423.349,310.696,424.941,312.583,424.941,315.272z M417.929,315.406c0,1.94,1.044,3.667,2.891,3.667s2.891-1.7,2.891-3.747
		c0-1.807-0.937-3.68-2.877-3.68S417.929,313.439,417.929,315.406z"/>
	<path d="M426.456,319.876v-9.02h1.285l2.877,4.563c0.656,1.057,1.191,2.007,1.606,2.931l0.04-0.014
		c-0.107-1.204-0.134-2.302-0.134-3.707v-3.774h1.097v9.02h-1.177l-2.864-4.577c-0.629-1.003-1.231-2.034-1.673-3.011l-0.04,0.013
		c0.067,1.138,0.08,2.222,0.08,3.72v3.854H426.456z"/>
	<path d="M435.25,310.856h4.858v0.977h-3.68v2.998h3.399v0.963h-3.399v4.082h-1.178V310.856z"/>
	<path d="M442.946,310.856v9.02h-1.178v-9.02H442.946z"/>
	<path d="M451.859,319.475c-0.522,0.201-1.566,0.495-2.784,0.495c-1.365,0-2.489-0.348-3.372-1.191
		c-0.776-0.75-1.258-1.954-1.258-3.359c0-2.69,1.86-4.657,4.884-4.657c1.044,0,1.874,0.228,2.262,0.415l-0.294,0.95
		c-0.482-0.228-1.084-0.388-1.994-0.388c-2.195,0-3.626,1.365-3.626,3.626c0,2.289,1.365,3.64,3.479,3.64
		c0.763,0,1.285-0.107,1.552-0.241v-2.689h-1.82v-0.937h2.971V319.475z"/>
	<path d="M454.792,310.856v5.353c0,2.007,0.896,2.864,2.101,2.864c1.325,0,2.195-0.883,2.195-2.864v-5.353h1.177v5.272
		c0,2.77-1.458,3.894-3.412,3.894c-1.847,0-3.239-1.043-3.239-3.854v-5.313H454.792z"/>
	<path d="M462.289,310.977c0.589-0.107,1.445-0.188,2.235-0.188c1.244,0,2.061,0.241,2.609,0.736
		c0.441,0.402,0.709,1.017,0.709,1.727c0,1.178-0.749,1.967-1.686,2.288v0.041c0.683,0.241,1.098,0.883,1.312,1.82
		c0.294,1.258,0.509,2.127,0.696,2.476h-1.204c-0.147-0.268-0.348-1.03-0.589-2.154c-0.268-1.245-0.763-1.713-1.82-1.753h-1.098
		v3.908h-1.164V310.977z M463.453,315.085h1.191c1.245,0,2.034-0.683,2.034-1.713c0-1.165-0.843-1.673-2.074-1.673
		c-0.562,0-0.95,0.04-1.151,0.094V315.085z"/>
	<path d="M471.015,317.039l-0.937,2.837h-1.205l3.078-9.02h1.392l3.078,9.02h-1.245l-0.963-2.837H471.015z M473.986,316.129
		l-0.896-2.596c-0.201-0.588-0.334-1.124-0.468-1.646h-0.027c-0.134,0.522-0.268,1.084-0.455,1.633l-0.883,2.609H473.986z"/>
	<path d="M478.431,311.847h-2.743v-0.99h6.677v0.99h-2.756v8.029h-1.178V311.847z"/>
	<path d="M484.535,310.856v9.02h-1.178v-9.02H484.535z"/>
	<path d="M494.278,315.272c0,3.091-1.887,4.75-4.188,4.75c-2.396,0-4.055-1.86-4.055-4.59c0-2.864,1.766-4.737,4.175-4.737
		C492.686,310.696,494.278,312.583,494.278,315.272z M487.266,315.406c0,1.94,1.044,3.667,2.891,3.667s2.891-1.7,2.891-3.747
		c0-1.807-0.937-3.68-2.877-3.68S487.266,313.439,487.266,315.406z"/>
	<path d="M495.792,319.876v-9.02h1.285l2.877,4.563c0.656,1.057,1.191,2.007,1.606,2.931l0.04-0.014
		c-0.107-1.204-0.134-2.302-0.134-3.707v-3.774h1.097v9.02h-1.177l-2.864-4.577c-0.629-1.003-1.231-2.034-1.673-3.011l-0.04,0.013
		c0.067,1.138,0.08,2.222,0.08,3.72v3.854H495.792z"/>
</g>
<g>
	
		<rect x="388.054" y="273.104" fill-rule="evenodd" clip-rule="evenodd" fill="none" stroke="#000000" stroke-linejoin="round" stroke-miterlimit="10" width="152.876" height="54.179"/>
	
		<path fill-rule="evenodd" clip-rule="evenodd" fill="#FFFFFF" stroke="#000000" stroke-linejoin="round" stroke-miterlimit="10" d="
		M464.492,300.194"/>
</g>
<g>
	
		<line fill-rule="evenodd" clip-rule="evenodd" fill="none" stroke="#000000" stroke-linecap="round" stroke-linejoin="round" stroke-miterlimit="10" x1="464.846" y1="153.985" x2="464.846" y2="187.035"/>
</g>
<g>
	
		<line fill-rule="evenodd" clip-rule="evenodd" fill="none" stroke="#000000" stroke-linecap="round" stroke-linejoin="round" stroke-miterlimit="10" x1="464.846" y1="241.214" x2="464.846" y2="273.104"/>
</g>
<g>
	
		<polyline fill-rule="evenodd" clip-rule="evenodd" fill="none" stroke="#000000" stroke-linecap="round" stroke-linejoin="round" stroke-miterlimit="10" points="
		260.56,59.863 260.56,77.258 83.267,77.258 83.267,100.32 	"/>
</g>
<g>
	
		<polyline fill-rule="evenodd" clip-rule="evenodd" fill="none" stroke="#000000" stroke-linecap="round" stroke-linejoin="round" stroke-miterlimit="10" points="
		275.57,60.056 275.57,77.258 464.846,77.258 464.846,99.805 	"/>
</g>
<g>
	
		<polyline fill-rule="evenodd" clip-rule="evenodd" fill="none" stroke="#000000" stroke-linecap="round" stroke-linejoin="round" stroke-miterlimit="10" points="
		22.064,154.501 22.064,475.909 44.805,475.909 	"/>
</g>
<g>
	
		<line fill-rule="evenodd" clip-rule="evenodd" fill="none" stroke="#000000" stroke-linecap="round" stroke-linejoin="round" stroke-miterlimit="10" x1="24.19" y1="416.833" x2="44.805" y2="416.833"/>
</g>
<g>
	
		<line fill-rule="evenodd" clip-rule="evenodd" fill="none" stroke="#000000" stroke-linecap="round" stroke-linejoin="round" stroke-miterlimit="10" x1="23.159" y1="360.463" x2="44.805" y2="360.463"/>
</g>
<g>
	
		<line fill-rule="evenodd" clip-rule="evenodd" fill="none" stroke="#000000" stroke-linecap="round" stroke-linejoin="round" stroke-miterlimit="10" x1="21.484" y1="303.576" x2="44.419" y2="303.576"/>
</g>
<g>
	
		<line fill-rule="evenodd" clip-rule="evenodd" fill="none" stroke="#000000" stroke-linecap="round" stroke-linejoin="round" stroke-miterlimit="10" x1="23.159" y1="249.332" x2="44.29" y2="249.332"/>
</g>
<g>
	
		<line fill-rule="evenodd" clip-rule="evenodd" fill="none" stroke="#000000" stroke-linecap="round" stroke-linejoin="round" stroke-miterlimit="10" x1="23.675" y1="199.468" x2="44.805" y2="199.468"/>
</g>
<g>
	
		<polyline fill-rule="evenodd" clip-rule="evenodd" fill="none" stroke="#000000" stroke-linecap="round" stroke-linejoin="round" stroke-miterlimit="10" points="
		89.258,198.566 160.252,198.566 160.252,474.878 	"/>
</g>
<g>
	
		<line fill-rule="evenodd" clip-rule="evenodd" fill="none" stroke="#000000" stroke-linecap="round" stroke-linejoin="round" stroke-miterlimit="10" x1="89.258" y1="250.041" x2="158.642" y2="250.041"/>
</g>
<g>
	
		<line fill-rule="evenodd" clip-rule="evenodd" fill="none" stroke="#000000" stroke-linecap="round" stroke-linejoin="round" stroke-miterlimit="10" x1="89.258" y1="304.285" x2="159.737" y2="304.285"/>
</g>
<g>
	
		<line fill-rule="evenodd" clip-rule="evenodd" fill="none" stroke="#000000" stroke-linecap="round" stroke-linejoin="round" stroke-miterlimit="10" x1="89.258" y1="361.3" x2="159.157" y2="361.3"/>
</g>
<g>
	
		<line fill-rule="evenodd" clip-rule="evenodd" fill="none" stroke="#000000" stroke-linecap="round" stroke-linejoin="round" stroke-miterlimit="10" x1="89.258" y1="416.704" x2="161.992" y2="416.704"/>
</g>
<g>
	
		<polyline fill-rule="evenodd" clip-rule="evenodd" fill="none" stroke="#000000" stroke-linecap="round" stroke-linejoin="round" stroke-miterlimit="10" points="
		271.962,513.854 272.091,509.216 272.8,504.642 274.089,500.584 276.214,496.718 279.114,493.368 282.979,490.598 286.522,488.987 
		291.354,487.569 292.063,487.44 464.846,487.44 464.846,327.542 	"/>
</g>
<g>
	
		<line fill-rule="evenodd" clip-rule="evenodd" fill="none" stroke="#000000" stroke-linecap="round" stroke-linejoin="round" stroke-miterlimit="10" x1="89.258" y1="474.75" x2="160.252" y2="474.75"/>
</g>
<g>
	
		<polyline fill-rule="evenodd" clip-rule="evenodd" fill="none" stroke="#000000" stroke-linecap="round" stroke-linejoin="round" stroke-miterlimit="10" points="
		271.061,513.339 271.383,509.731 271.254,505.221 270.48,501.164 269.127,497.62 267.195,494.656 264.554,492.015 261.011,489.76 
		257.468,488.278 253.989,487.312 159.737,487.312 159.737,471.078 	"/>
</g>
<g>
	
		<line fill-rule="evenodd" clip-rule="evenodd" fill="none" stroke="#000000" stroke-linecap="round" stroke-linejoin="round" stroke-miterlimit="10" x1="271.383" y1="533.954" x2="271.383" y2="513.339"/>
</g>
<g>
	
		<line fill-rule="evenodd" clip-rule="evenodd" fill="none" stroke="#000000" stroke-linecap="round" stroke-linejoin="round" stroke-miterlimit="10" x1="268.677" y1="588.198" x2="268.677" y2="616.996"/>
</g>
<g>
	
		<line fill-rule="evenodd" clip-rule="evenodd" fill="none" stroke="#000000" stroke-linecap="round" stroke-linejoin="round" stroke-miterlimit="10" x1="268.677" y1="671.241" x2="268.677" y2="700.039"/>
</g>
</svg>
