<?xml version="1.0" encoding="utf-8"?>
<!-- Generator: Adobe Illustrator 15.0.0, SVG Export Plug-In . SVG Version: 6.00 Build 0)  -->
<!DOCTYPE svg PUBLIC "-//W3C//DTD SVG 1.1//EN" "http://www.w3.org/Graphics/SVG/1.1/DTD/svg11.dtd">
<svg version="1.1" id="_x3C_Layer_x3E_" xmlns="http://www.w3.org/2000/svg" xmlns:xlink="http://www.w3.org/1999/xlink" x="0px"
	 y="0px" width="732.632px" height="321.5px" viewBox="0 0 732.632 321.5" enable-background="new 0 0 732.632 321.5"
	 xml:space="preserve">
<g>
	
		<polyline fill-rule="evenodd" clip-rule="evenodd" fill="none" stroke="#000000" stroke-linecap="round" stroke-linejoin="round" stroke-miterlimit="10" points="
		45.354,7.505 45.354,311.452 59.867,287.597 71.544,266.244 81.888,245.224 90.812,224.539 98.735,203.019 103.657,187.003 
		108.662,167.236 112.249,147.802 114.25,130.535 114.834,121.944 	"/>
</g>
<g>
	
		<polyline fill-rule="evenodd" clip-rule="evenodd" stroke="#000000" stroke-linecap="round" stroke-linejoin="round" stroke-miterlimit="10" points="
		50.942,13.094 45.354,2 39.764,13.094 50.942,13.094 	"/>
</g>
<path fill-rule="evenodd" clip-rule="evenodd" stroke="#000000" stroke-linecap="round" stroke-linejoin="round" stroke-miterlimit="10" d="
	M114.834,121.944c3.003,0.167,5.671-2.252,5.839-5.255c0.167-3.086-2.169-5.756-5.255-5.922c-3.086-0.083-5.673,2.252-5.839,5.338
	C109.413,119.108,111.748,121.778,114.834,121.944L114.834,121.944"/>
<g>
	
		<polyline fill-rule="evenodd" clip-rule="evenodd" fill="none" stroke="#000000" stroke-linecap="round" stroke-linejoin="round" stroke-miterlimit="10" points="
		157.624,307.949 173.388,289.099 189.403,267.997 202.499,248.977 215.677,227.875 225.687,209.692 232.026,196.179 
		238.865,179.081 245.789,159.228 257.55,120.443 264.723,97.672 264.723,97.588 264.389,97.839 259.384,110.016 	"/>
</g>
<g>
	
		<polyline fill-rule="evenodd" clip-rule="evenodd" fill="none" stroke="#000000" stroke-linecap="round" stroke-linejoin="round" stroke-miterlimit="10" points="
		274.814,311.452 303.425,192.342 301.507,200.517 301.507,198.181 301.507,198.431 	"/>
</g>
<path fill-rule="evenodd" clip-rule="evenodd" fill="none" stroke="#000000" stroke-linecap="round" stroke-linejoin="round" stroke-miterlimit="10" d="
	M314.853,183.668c13.679,21.853,37.951,21.02,55.385,13.346c17.599-7.924,38.701-48.044,48.46-59.639c9.594-11.342,0-0.667,0-0.667
	c0-0.167,0-0.167,0,0"/>
<path fill-rule="evenodd" clip-rule="evenodd" fill="none" stroke="#000000" stroke-linecap="round" stroke-linejoin="round" stroke-miterlimit="10" d="
	M425.788,129.119c12.68-0.585,23.271-2.92,32.279-7.007c8.927-4.171,17.434-14.514,21.02-17.517
	c3.504-3.085,2.585,1.584,2.585,1.502c0-0.083-2.585-2.336-2.585-2.253"/>
<g>
	
		<line fill-rule="evenodd" clip-rule="evenodd" fill="none" stroke="#000000" stroke-linecap="round" stroke-linejoin="round" stroke-miterlimit="10" x1="529.717" y1="303.196" x2="564.834" y2="83.492"/>
</g>
<g>
	
		<line fill-rule="evenodd" clip-rule="evenodd" fill="none" stroke="#000000" stroke-linecap="round" stroke-linejoin="round" stroke-miterlimit="10" x1="520.625" y1="301.776" x2="555.739" y2="82.074"/>
</g>
<g>
	
		<polyline fill-rule="evenodd" clip-rule="evenodd" fill="none" stroke="#000000" stroke-linecap="round" stroke-linejoin="round" stroke-miterlimit="10" points="
		123.258,93.834 43.935,93.834 106.41,31.361 	"/>
</g>
<g>
	
		<polyline fill-rule="evenodd" clip-rule="evenodd" stroke="#000000" stroke-linecap="round" stroke-linejoin="round" stroke-miterlimit="10" points="
		112.082,99.424 123.258,93.834 112.082,88.33 112.082,99.424 	"/>
</g>
<g>
	
		<polyline fill-rule="evenodd" clip-rule="evenodd" stroke="#000000" stroke-linecap="round" stroke-linejoin="round" stroke-miterlimit="10" points="
		94.566,35.364 106.41,31.361 102.489,43.206 94.566,35.364 	"/>
</g>
<g>
	
		<polyline fill-rule="evenodd" clip-rule="evenodd" fill="#FFFFFF" stroke="#000000" stroke-linecap="round" stroke-linejoin="round" stroke-miterlimit="10" points="
		269.727,312.453 280.904,312.954 281.488,300.443 270.311,299.858 269.727,312.453 	"/>
</g>
<g>
	
		<polyline fill-rule="evenodd" clip-rule="evenodd" fill="#FFFFFF" stroke="#000000" stroke-linecap="round" stroke-linejoin="round" stroke-miterlimit="10" points="
		153.87,312.537 165.047,313.037 165.631,300.443 154.454,299.942 153.87,312.537 	"/>
</g>
<g>
	
		<polyline fill-rule="evenodd" clip-rule="evenodd" fill="#FFFFFF" stroke="#000000" stroke-linecap="round" stroke-linejoin="round" stroke-miterlimit="10" points="
		41.6,312.537 52.777,313.037 53.278,300.443 42.1,299.942 41.6,312.537 	"/>
</g>
<path fill-rule="evenodd" clip-rule="evenodd" fill="#FFFFFF" stroke="#000000" stroke-linecap="round" stroke-linejoin="round" stroke-miterlimit="10" d="
	M301.507,194.594c-5.005,7.507-7.257,14.93-4.922,16.433c2.336,1.583,8.342-3.253,13.347-10.845
	c5.004-7.59,7.256-14.929,4.921-16.515C312.517,182.167,306.511,187.003,301.507,194.594L301.507,194.594"/>
<g>
	
		<path fill-rule="evenodd" clip-rule="evenodd" fill="#FFFFFF" stroke="#000000" stroke-linecap="round" stroke-linejoin="round" stroke-miterlimit="10" d="
		M427.708,132.452c-0.006-4.493-4.865-7.299-8.761-5.055c-3.894,2.258-3.886,7.871,0.008,10.116
		C422.852,139.753,427.703,136.948,427.708,132.452"/>
</g>
<g>
	
		<path fill-rule="evenodd" clip-rule="evenodd" fill="#FFFFFF" stroke="#000000" stroke-linecap="round" stroke-linejoin="round" stroke-miterlimit="10" d="
		M529.384,306.281c-0.004-4.045-4.378-6.571-7.883-4.55c-3.504,2.033-3.498,7.084,0.007,9.104
		C525.016,312.851,529.381,310.326,529.384,306.281"/>
</g>
<g>
	
		<polyline fill-rule="evenodd" clip-rule="evenodd" stroke="#000000" stroke-linecap="round" stroke-linejoin="round" stroke-miterlimit="10" points="
		552.236,75.484 569.088,75.484 569.088,84.076 552.236,84.076 552.236,75.484 	"/>
	
		<path fill-rule="evenodd" clip-rule="evenodd" stroke="#000000" stroke-linecap="round" stroke-linejoin="round" stroke-miterlimit="10" d="
		M560.663,79.781"/>
</g>
<g>
	
		<line fill-rule="evenodd" clip-rule="evenodd" fill="none" stroke="#000000" stroke-linecap="round" stroke-linejoin="round" stroke-miterlimit="10" x1="-4.526" y1="314.205" x2="716.975" y2="314.205"/>
</g>
<g>
	
		<polyline fill-rule="evenodd" clip-rule="evenodd" fill="none" stroke="#000000" stroke-linecap="round" stroke-linejoin="round" stroke-miterlimit="10" points="
		32.842,96.337 39.848,95.92 54.696,94.502 62.369,94.336 70.126,94.919 85.475,96.922 93.063,97.339 100.404,96.838 
		115.001,94.752 122.424,94.418 126.177,94.585 146.28,97.422 150.617,97.839 155.038,97.922 159.626,97.755 187.151,94.252 
		195.326,94.169 202.749,95.086 213.092,96.838 216.511,97.255 220.015,97.339 227.271,96.755 242.702,94.169 250.793,93.501 
		259.052,93.834 280.737,96.504 289.996,96.588 294.749,96.337 318.773,94.169 323.527,94.085 332.702,94.669 353.888,97.172 
		359.727,97.255 366.817,96.588 390.505,92.834 396.428,92.333 399.764,92.5 410.273,94.669 420.451,96.922 425.371,97.172 
		438.635,95.67 460.319,92.75 466.827,92.333 475.501,93.084 501.024,96.755 507.446,97.172 511.118,96.922 523.794,94.502 
		533.972,92.333 538.81,91.75 548.736,92.25 587.104,95.336 592.106,95.336 598.697,94.418 622.22,89.915 628.309,89.498 
		631.812,89.831 651.413,94.752 657.001,95.42 662.09,95.086 681.607,91.833 690.032,91.166 694.453,91.25 724.814,94.669 
		729.567,94.919 	"/>
</g>
<g>
	
		<polyline fill-rule="evenodd" clip-rule="evenodd" stroke="#000000" stroke-linecap="round" stroke-linejoin="round" stroke-miterlimit="10" points="
		256.549,84.743 264.974,84.743 264.974,110.016 256.549,110.016 256.549,84.743 	"/>
	
		<path fill-rule="evenodd" clip-rule="evenodd" stroke="#000000" stroke-linecap="round" stroke-linejoin="round" stroke-miterlimit="10" d="
		M260.761,97.379"/>
</g>
<g>
	
		<polyline fill-rule="evenodd" clip-rule="evenodd" stroke="#000000" stroke-linecap="round" stroke-linejoin="round" stroke-miterlimit="10" points="
		477.504,85.077 484.425,85.077 484.425,104.511 477.504,104.511 477.504,85.077 	"/>
	
		<path fill-rule="evenodd" clip-rule="evenodd" stroke="#000000" stroke-linecap="round" stroke-linejoin="round" stroke-miterlimit="10" d="
		M480.964,94.793"/>
</g>
<g>
	<path d="M24.702,34.851l6.477-8.467c0.654-0.802,1.248-1.485,1.901-2.258v-0.059h-7.784v-2.08h10.933v1.634l-6.417,8.348
		c-0.624,0.802-1.188,1.545-1.842,2.258v0.06h8.378v2.08H24.702V34.851z"/>
</g>
<g>
	<path d="M95.785,73.952l2.05,3.089c0.564,0.802,1.01,1.515,1.486,2.317h0.059c0.476-0.832,0.951-1.575,1.456-2.347l1.99-3.06h2.852
		l-4.902,6.952l5.021,7.427h-2.941l-2.139-3.238c-0.564-0.832-1.04-1.634-1.545-2.496h-0.059c-0.476,0.862-0.951,1.634-1.515,2.496
		l-2.08,3.238h-2.882l5.11-7.338l-4.872-7.041H95.785z"/>
</g>
<g>
	<path d="M77.251,25.074l3.119,8.497c0.356,0.951,0.713,2.08,0.951,2.941h0.06c0.267-0.861,0.564-1.96,0.921-3l2.852-8.437h2.763
		l-3.921,10.25c-1.872,4.932-3.149,7.427-4.932,9.001c-1.307,1.1-2.555,1.545-3.208,1.664l-0.654-2.169
		c0.654-0.208,1.515-0.624,2.288-1.277c0.713-0.564,1.575-1.575,2.199-2.912c0.119-0.268,0.208-0.475,0.208-0.624
		c0-0.148-0.06-0.356-0.208-0.683l-5.288-13.25H77.251z"/>
</g>
</svg>
