<?xml version="1.0" encoding="utf-8"?>
<!-- Generator: Adobe Illustrator 15.0.0, SVG Export Plug-In . SVG Version: 6.00 Build 0)  -->
<!DOCTYPE svg PUBLIC "-//W3C//DTD SVG 1.1//EN" "http://www.w3.org/Graphics/SVG/1.1/DTD/svg11.dtd">
<svg version="1.1" id="_x3C_Layer_x3E_" xmlns="http://www.w3.org/2000/svg" xmlns:xlink="http://www.w3.org/1999/xlink" x="0px"
	 y="0px" width="716.516px" height="520.5px" viewBox="0 0 716.516 520.5" enable-background="new 0 0 716.516 520.5"
	 xml:space="preserve">
<g>
	
		<polyline fill-rule="evenodd" clip-rule="evenodd" fill="#FFFFFF" stroke="#000000" stroke-linejoin="round" stroke-miterlimit="10" points="
		144.619,446.41 153.928,458.133 177.855,445.721 210.332,427.861 239.155,411.244 276.46,388.488 306.661,368.974 337.967,347.667 
		359.067,332.566 380.236,316.706 400.576,300.709 420.022,284.643 448.225,259.957 474.911,235.203 499.804,211.137 
		529.314,181.143 559.173,149.286 584.479,120.877 588.686,115.98 579.446,104.257 554.829,132.184 529.937,159.008 505.87,183.969 
		474.221,215.344 448.086,239.892 420.298,264.715 401.129,280.988 381.477,296.847 360.446,312.984 339.277,328.497 
		307.766,350.355 277.079,370.422 248.05,388.558 212.883,409.383 180.199,427.724 148.962,444.272 144.619,446.41 	"/>
</g>
<g>
	
		<path fill-rule="evenodd" clip-rule="evenodd" fill="#FFFFFF" stroke="#000000" stroke-linejoin="round" stroke-miterlimit="10" d="
		M155.445,453.098c-0.007-6.635-7.183-10.775-12.93-7.464c-5.749,3.336-5.738,11.618,0.01,14.935
		c5.753,3.307,12.915-0.834,12.92-7.469"/>
</g>
<g>
	
		<polyline fill-rule="evenodd" clip-rule="evenodd" fill="none" stroke="#000000" stroke-linecap="round" stroke-linejoin="round" stroke-miterlimit="10" points="
		609.923,4.757 604.407,45.096 591.72,109.223 577.103,107.774 589.927,42.406 594.754,6.825 	"/>
</g>
<g>
	
		<path fill-rule="evenodd" clip-rule="evenodd" fill="#FFFFFF" stroke="#000000" stroke-linecap="round" stroke-linejoin="round" stroke-miterlimit="10" d="
		M592.755,114.186c-0.008-6.688-7.24-10.862-13.034-7.521c-5.793,3.361-5.784,11.712,0.011,15.053
		c5.798,3.332,13.018-0.842,13.023-7.53"/>
</g>
<g>
	
		<line fill-rule="evenodd" clip-rule="evenodd" fill="none" stroke="#000000" stroke-linecap="round" stroke-linejoin="round" stroke-miterlimit="10" x1="178.82" y1="418.759" x2="193.507" y2="444.549"/>
</g>
<g>
	
		<line fill-rule="evenodd" clip-rule="evenodd" fill="none" stroke="#000000" stroke-linecap="round" stroke-linejoin="round" stroke-miterlimit="10" x1="221.779" y1="395.384" x2="236.534" y2="420.001"/>
</g>
<g>
	
		<line fill-rule="evenodd" clip-rule="evenodd" fill="none" stroke="#000000" stroke-linecap="round" stroke-linejoin="round" stroke-miterlimit="10" x1="258.601" y1="370.835" x2="275.771" y2="399.108"/>
</g>
<g>
	
		<line fill-rule="evenodd" clip-rule="evenodd" fill="none" stroke="#000000" stroke-linecap="round" stroke-linejoin="round" stroke-miterlimit="10" x1="299.146" y1="348.771" x2="312.661" y2="369.594"/>
</g>
<g>
	
		<line fill-rule="evenodd" clip-rule="evenodd" fill="none" stroke="#000000" stroke-linecap="round" stroke-linejoin="round" stroke-miterlimit="10" x1="339.69" y1="316.844" x2="360.515" y2="341.394"/>
</g>
<g>
	
		<line fill-rule="evenodd" clip-rule="evenodd" fill="none" stroke="#000000" stroke-linecap="round" stroke-linejoin="round" stroke-miterlimit="10" x1="381.409" y1="282.437" x2="403.543" y2="305.743"/>
</g>
<g>
	
		<line fill-rule="evenodd" clip-rule="evenodd" fill="none" stroke="#000000" stroke-linecap="round" stroke-linejoin="round" stroke-miterlimit="10" x1="435.469" y1="236.996" x2="457.535" y2="265.267"/>
</g>
<g>
	
		<line fill-rule="evenodd" clip-rule="evenodd" fill="none" stroke="#000000" stroke-linecap="round" stroke-linejoin="round" stroke-miterlimit="10" x1="480.909" y1="194.037" x2="501.733" y2="217.343"/>
</g>
<g>
	
		<line fill-rule="evenodd" clip-rule="evenodd" fill="none" stroke="#000000" stroke-linecap="round" stroke-linejoin="round" stroke-miterlimit="10" x1="526.351" y1="144.872" x2="552.141" y2="169.49"/>
</g>
<g>
	
		<line fill-rule="evenodd" clip-rule="evenodd" fill="none" stroke="#000000" stroke-linecap="round" stroke-linejoin="round" stroke-miterlimit="10" x1="591.374" y1="115.428" x2="713.009" y2="115.428"/>
</g>
<g>
	
		<polyline fill-rule="evenodd" clip-rule="evenodd" fill="none" stroke="#000000" stroke-linecap="round" stroke-linejoin="round" stroke-miterlimit="10" points="
		135.999,431.033 128.415,419.587 240.259,346.564 246.188,334.497 258.531,334.703 367.688,263.406 375.271,272.3 	"/>
</g>
<g>
	
		<polyline fill-rule="evenodd" clip-rule="evenodd" fill="none" stroke="#000000" stroke-linecap="round" stroke-linejoin="round" stroke-miterlimit="10" points="
		114.209,404.003 106.349,389.246 318.867,238.375 325.279,222.86 339.483,222.86 547.243,78.953 557.036,89.502 	"/>
</g>
<g>
	
		<polyline fill-rule="evenodd" clip-rule="evenodd" fill="#FFFFFF" stroke="#000000" stroke-linecap="round" stroke-linejoin="round" stroke-miterlimit="10" points="
		162.822,489.645 145.653,458.96 127.656,489.162 162.822,489.645 	"/>
</g>
<g>
	<path d="M188.766,360.347c0.947-0.036,2.11-0.37,3.118-1.071c1.496-1.039,1.82-2.437,1.026-3.579
		c-0.724-1.041-1.761-1.243-3.687-0.75c-2.315,0.611-4.135,0.431-5.233-1.147c-1.227-1.766-0.676-4.091,1.525-5.622
		c1.143-0.794,2.186-1.121,2.872-1.174l0.425,1.473c-0.504,0.028-1.482,0.234-2.507,0.946c-1.545,1.075-1.491,2.407-0.954,3.18
		c0.736,1.059,1.787,1.102,3.77,0.62c2.429-0.592,4.029-0.334,5.186,1.33c1.215,1.747,1,4.163-1.671,6.021
		c-1.092,0.759-2.519,1.252-3.404,1.27L188.766,360.347z"/>
	<path d="M200.63,346.866l-4.385,3.048l2.837,4.083l4.906-3.41l0.853,1.227l-6.384,4.438l-7.872-11.324l6.132-4.263l0.852,1.227
		l-4.654,3.235l2.488,3.578l4.385-3.048L200.63,346.866z"/>
	<path d="M215.027,343.984c-0.479,0.708-1.533,1.99-3.062,3.052c-1.714,1.191-3.429,1.735-5.273,1.447
		c-1.629-0.264-3.285-1.355-4.511-3.119c-2.348-3.377-1.729-7.47,2.068-10.11c1.31-0.911,2.55-1.35,3.201-1.453l0.459,1.449
		c-0.803,0.135-1.699,0.46-2.842,1.254c-2.755,1.916-3.362,4.879-1.388,7.718c1.998,2.873,4.891,3.379,7.545,1.534
		c0.958-0.666,1.519-1.256,1.739-1.658l-2.348-3.377l-2.285,1.588l-0.817-1.176l3.73-2.593L215.027,343.984z"/>
	<path d="M223.684,331.337c-1.182-1.521-2.614-3.366-3.583-4.76l-0.033,0.023c0.507,1.591,1.046,3.334,1.562,5.294l1.819,6.883
		l-1.109,0.771l-5.597-4.109c-1.659-1.239-3.1-2.38-4.353-3.502l-0.034,0.023c0.947,1.435,2.171,3.375,3.262,5.159l3.073,5.066
		l-1.395,0.969l-7.082-11.873l1.865-1.296l5.739,4.133c1.44,1.067,2.674,2.055,3.794,3.021l0.034-0.023
		c-0.492-1.353-0.953-2.876-1.442-4.655l-1.791-6.878l1.865-1.296l8.577,10.834l-1.444,1.004L223.684,331.337z"/>
	<path d="M233.266,324.179l-4.385,3.048l2.837,4.083l4.906-3.41l0.854,1.227l-6.385,4.438l-7.872-11.324l6.132-4.263l0.853,1.227
		l-4.654,3.235l2.487,3.578l4.386-3.048L233.266,324.179z"/>
	<path d="M239.378,327.805l-7.871-11.324l1.612-1.121l7.595,3.218c1.746,0.755,3.247,1.481,4.574,2.277l0.038-0.051
		c-1.185-1.418-2.177-2.773-3.403-4.538l-3.293-4.737l1.378-0.958l7.871,11.324l-1.479,1.028l-7.59-3.247
		c-1.665-0.71-3.321-1.479-4.728-2.32l-0.039,0.053c1.077,1.369,2.04,2.718,3.348,4.6l3.364,4.839L239.378,327.805z"/>
	<path d="M245.579,308.542l-3.445,2.395l-0.863-1.243l8.384-5.828l0.864,1.243l-3.462,2.406l7.008,10.081l-1.478,1.028
		L245.579,308.542z"/>
</g>
<g>
	<path d="M281.803,226.642l1.478-1.027l7.02,10.097l4.839-3.364l0.853,1.227l-6.317,4.391L281.803,226.642z"/>
	<path d="M291.213,220.1l7.871,11.323l-1.478,1.028l-7.872-11.323L291.213,220.1z"/>
	<path d="M301.64,229.647l-7.872-11.323l1.613-1.122l7.595,3.218c1.746,0.755,3.248,1.48,4.573,2.277l0.039-0.052
		c-1.186-1.418-2.177-2.773-3.403-4.537l-3.293-4.737l1.378-0.958l7.871,11.323l-1.479,1.028l-7.59-3.247
		c-1.665-0.71-3.321-1.479-4.728-2.319l-0.039,0.052c1.077,1.369,2.04,2.719,3.348,4.601l3.363,4.838L301.64,229.647z"/>
	<path d="M314.854,212.587l-4.385,3.049l2.838,4.082l4.905-3.411l0.854,1.227l-6.385,4.438l-7.872-11.323l6.133-4.263l0.852,1.226
		l-4.653,3.235l2.487,3.579l4.386-3.049L314.854,212.587z"/>
</g>
<g>
	<path d="M240.809,469.711l-4.594,2.725l2.536,4.275l5.139-3.048l0.763,1.285l-6.688,3.966l-7.034-11.861l6.424-3.81l0.762,1.284
		l-4.875,2.892l2.224,3.749l4.593-2.725L240.809,469.711z"/>
	<path d="M239.591,461.916l1.549-0.918l6.272,10.576l5.068-3.006l0.763,1.285l-6.617,3.924L239.591,461.916z"/>
	<path d="M257.778,459.646l-4.594,2.725l2.536,4.275l5.14-3.048l0.762,1.285l-6.688,3.966l-7.035-11.861l6.424-3.81l0.762,1.284
		l-4.875,2.892l2.223,3.749l4.594-2.725L257.778,459.646z"/>
	<path d="M270.52,452.565c-1.069-1.603-2.364-3.546-3.231-5.007l-0.034,0.021c0.392,1.622,0.804,3.4,1.176,5.393l1.318,6.996
		l-1.161,0.689l-5.287-4.502c-1.564-1.355-2.92-2.598-4.09-3.807l-0.035,0.021c0.842,1.499,1.923,3.522,2.883,5.38l2.699,5.273
		l-1.461,0.866l-6.207-12.352l1.953-1.158l5.426,4.535c1.359,1.169,2.52,2.242,3.566,3.287l0.035-0.021
		c-0.393-1.385-0.742-2.938-1.102-4.747l-1.291-6.989l1.954-1.158l7.773,11.423l-1.514,0.897L270.52,452.565z"/>
	<path d="M280.593,446.116l-4.594,2.725l2.536,4.275l5.139-3.048l0.763,1.285l-6.688,3.966l-7.035-11.861l6.424-3.81l0.762,1.284
		l-4.875,2.892l2.223,3.749l4.594-2.725L280.593,446.116z"/>
	<path d="M286.427,450.172l-7.034-11.861l1.689-1.002l7.343,3.758c1.688,0.879,3.133,1.711,4.397,2.602l0.042-0.049
		c-1.079-1.501-1.971-2.923-3.066-4.771l-2.943-4.962l1.443-0.856l7.035,11.861l-1.55,0.919l-7.336-3.785
		c-1.609-0.829-3.205-1.716-4.548-2.655l-0.043,0.049c0.976,1.444,1.839,2.859,3.008,4.83l3.006,5.068L286.427,450.172z"/>
	<path d="M294,431.407l-3.607,2.14l-0.772-1.302l8.782-5.208l0.772,1.301l-3.626,2.15l6.263,10.56l-1.549,0.919L294,431.407z"/>
</g>
<g>
	
		<polyline fill-rule="evenodd" clip-rule="evenodd" fill="none" stroke="#000000" stroke-linecap="round" stroke-linejoin="round" stroke-miterlimit="10" points="
		241.706,430.069 248.05,441.445 261.358,433.31 268.806,434.138 272.599,426.481 285.355,418.69 278.114,405.727 	"/>
</g>
<g>
	<path d="M5.065,425.671c0.958,0.614,2.334,1.081,3.808,1.081c2.187,0,3.464-1.154,3.464-2.825c0-1.522-0.884-2.432-3.12-3.267
		c-2.702-0.983-4.373-2.408-4.373-4.717c0-2.58,2.137-4.496,5.355-4.496c1.67,0,2.923,0.393,3.636,0.811l-0.59,1.744
		c-0.516-0.319-1.621-0.786-3.12-0.786c-2.26,0-3.12,1.352-3.12,2.481c0,1.548,1.007,2.31,3.292,3.193
		c2.8,1.081,4.201,2.433,4.201,4.864c0,2.556-1.867,4.791-5.773,4.791c-1.597,0-3.341-0.491-4.226-1.081L5.065,425.671z"/>
	<path d="M19.582,411.718v9.826c0,3.686,1.646,5.258,3.857,5.258c2.432,0,4.029-1.622,4.029-5.258v-9.826h2.162v9.679
		c0,5.086-2.678,7.149-6.265,7.149c-3.39,0-5.945-1.916-5.945-7.075v-9.753H19.582z"/>
	<path d="M33.335,411.914c1.032-0.172,2.383-0.319,4.103-0.319c2.113,0,3.66,0.491,4.643,1.376c0.884,0.786,1.449,1.989,1.449,3.464
		c0,1.498-0.442,2.678-1.277,3.537c-1.155,1.204-2.973,1.818-5.061,1.818c-0.639,0-1.229-0.024-1.72-0.147v6.633h-2.137V411.914z
		 M35.472,419.898c0.467,0.123,1.056,0.172,1.769,0.172c2.58,0,4.152-1.277,4.152-3.514c0-2.211-1.572-3.267-3.906-3.267
		c-0.934,0-1.646,0.073-2.015,0.172V419.898z"/>
	<path d="M54.95,420.513h-6.412v5.97h7.173v1.793h-9.335v-16.558h8.967v1.793h-6.805v5.232h6.412V420.513z"/>
	<path d="M58.485,411.938c1.081-0.196,2.653-0.344,4.103-0.344c2.285,0,3.783,0.442,4.791,1.351c0.811,0.737,1.302,1.867,1.302,3.17
		c0,2.161-1.375,3.611-3.095,4.2v0.074c1.253,0.442,2.015,1.621,2.408,3.341c0.541,2.31,0.934,3.906,1.277,4.545h-2.211
		c-0.271-0.491-0.639-1.892-1.081-3.955c-0.491-2.285-1.4-3.145-3.341-3.219h-2.015v7.174h-2.137V411.938z M60.622,419.48h2.187
		c2.285,0,3.734-1.253,3.734-3.145c0-2.138-1.547-3.07-3.808-3.07c-1.032,0-1.744,0.073-2.113,0.172V419.48z"/>
	<path d="M76.636,420.856v1.572h-6.068v-1.572H76.636z"/>
</g>
<g>
	<path d="M5.336,456.547v-16.558h2.358l5.282,8.377c1.204,1.94,2.187,3.685,2.948,5.38l0.074-0.024
		c-0.196-2.211-0.246-4.226-0.246-6.805v-6.928h2.015v16.558h-2.162l-5.257-8.401c-1.155-1.843-2.26-3.734-3.071-5.528l-0.073,0.025
		c0.123,2.088,0.147,4.078,0.147,6.829v7.075H5.336z"/>
	<path d="M35.647,448.096c0,5.675-3.464,8.722-7.689,8.722c-4.397,0-7.444-3.415-7.444-8.427c0-5.257,3.243-8.696,7.665-8.696
		C32.724,439.694,35.647,443.158,35.647,448.096z M22.774,448.342c0,3.562,1.916,6.731,5.306,6.731c3.391,0,5.307-3.12,5.307-6.879
		c0-3.316-1.72-6.756-5.282-6.756S22.774,444.73,22.774,448.342z"/>
	<path d="M38.419,440.234c1.302-0.221,2.85-0.368,4.545-0.368c3.071,0,5.257,0.737,6.707,2.063c1.499,1.352,2.358,3.268,2.358,5.945
		c0,2.702-0.86,4.913-2.383,6.437c-1.572,1.548-4.127,2.383-7.346,2.383c-1.548,0-2.8-0.074-3.881-0.196V440.234z M40.556,454.876
		c0.541,0.074,1.327,0.099,2.162,0.099c4.594,0,7.051-2.555,7.051-7.026c0.024-3.906-2.187-6.387-6.707-6.387
		c-1.105,0-1.941,0.098-2.506,0.221V454.876z"/>
	<path d="M63.325,448.784h-6.412v5.97h7.173v1.793h-9.335v-16.558h8.967v1.793h-6.805v5.232h6.412V448.784z"/>
</g>
<g>
	<path d="M621.587,146.887c0.958,0.614,2.334,1.081,3.808,1.081c2.187,0,3.464-1.155,3.464-2.825c0-1.523-0.884-2.432-3.119-3.268
		c-2.703-0.982-4.373-2.408-4.373-4.717c0-2.58,2.137-4.496,5.355-4.496c1.67,0,2.923,0.393,3.636,0.811l-0.59,1.744
		c-0.516-0.319-1.621-0.786-3.12-0.786c-2.26,0-3.119,1.352-3.119,2.481c0,1.548,1.007,2.309,3.291,3.194
		c2.801,1.081,4.201,2.432,4.201,4.864c0,2.555-1.867,4.791-5.773,4.791c-1.597,0-3.341-0.491-4.225-1.081L621.587,146.887z"/>
	<path d="M636.103,132.933v9.827c0,3.685,1.646,5.257,3.857,5.257c2.432,0,4.029-1.621,4.029-5.257v-9.827h2.161v9.679
		c0,5.085-2.678,7.149-6.264,7.149c-3.391,0-5.945-1.916-5.945-7.075v-9.753H636.103z"/>
	<path d="M649.856,133.13c1.031-0.172,2.383-0.319,4.103-0.319c2.112,0,3.66,0.491,4.644,1.375c0.884,0.786,1.449,1.99,1.449,3.464
		c0,1.499-0.442,2.678-1.277,3.538c-1.155,1.204-2.973,1.818-5.062,1.818c-0.639,0-1.228-0.025-1.72-0.147v6.633h-2.137V133.13z
		 M651.993,141.114c0.467,0.123,1.057,0.172,1.77,0.172c2.579,0,4.151-1.278,4.151-3.513c0-2.211-1.572-3.268-3.906-3.268
		c-0.934,0-1.646,0.074-2.015,0.172V141.114z"/>
	<path d="M671.472,141.728h-6.412v5.97h7.174v1.793h-9.335v-16.558h8.967v1.793h-6.806v5.233h6.412V141.728z"/>
	<path d="M675.006,133.154c1.081-0.196,2.653-0.344,4.103-0.344c2.285,0,3.783,0.442,4.79,1.351
		c0.812,0.737,1.303,1.867,1.303,3.169c0,2.162-1.376,3.611-3.096,4.201v0.074c1.253,0.442,2.015,1.621,2.407,3.341
		c0.541,2.31,0.934,3.906,1.277,4.545h-2.211c-0.27-0.491-0.639-1.892-1.08-3.955c-0.492-2.285-1.4-3.145-3.342-3.218h-2.015v7.173
		h-2.137V133.154z M677.143,140.696h2.187c2.285,0,3.734-1.253,3.734-3.145c0-2.137-1.548-3.071-3.808-3.071
		c-1.032,0-1.744,0.074-2.113,0.172V140.696z"/>
	<path d="M693.157,142.072v1.572h-6.067v-1.572H693.157z"/>
</g>
<g>
	<path d="M621.857,177.763v-16.558h2.358l5.281,8.377c1.204,1.941,2.187,3.685,2.948,5.38l0.074-0.024
		c-0.197-2.211-0.246-4.226-0.246-6.805v-6.928h2.015v16.558h-2.162l-5.257-8.402c-1.155-1.842-2.261-3.734-3.071-5.527
		l-0.073,0.024c0.123,2.088,0.147,4.078,0.147,6.83v7.075H621.857z"/>
	<path d="M652.169,169.312c0,5.675-3.464,8.721-7.689,8.721c-4.397,0-7.443-3.415-7.443-8.426c0-5.257,3.242-8.696,7.664-8.696
		C649.245,160.91,652.169,164.374,652.169,169.312z M639.296,169.558c0,3.562,1.916,6.731,5.307,6.731
		c3.39,0,5.307-3.12,5.307-6.878c0-3.316-1.72-6.756-5.282-6.756S639.296,165.946,639.296,169.558z"/>
	<path d="M654.94,161.45c1.302-0.221,2.85-0.368,4.545-0.368c3.07,0,5.257,0.737,6.706,2.063c1.499,1.351,2.358,3.268,2.358,5.945
		c0,2.702-0.859,4.913-2.383,6.437c-1.572,1.547-4.127,2.383-7.345,2.383c-1.548,0-2.801-0.074-3.882-0.197V161.45z
		 M657.077,176.092c0.541,0.074,1.327,0.098,2.162,0.098c4.594,0,7.051-2.555,7.051-7.026c0.024-3.906-2.187-6.388-6.707-6.388
		c-1.105,0-1.94,0.099-2.506,0.221V176.092z"/>
	<path d="M679.847,170h-6.412v5.97h7.174v1.793h-9.335v-16.558h8.967v1.793h-6.806v5.233h6.412V170z"/>
</g>
<g>
	
		<line fill-rule="evenodd" clip-rule="evenodd" fill="none" stroke="#000000" stroke-linecap="round" stroke-linejoin="round" stroke-miterlimit="10" x1="96.902" y1="447.169" x2="134.964" y2="457.374"/>
</g>
<g>
	
		<polyline fill-rule="evenodd" clip-rule="evenodd" stroke="#000000" stroke-linecap="round" stroke-linejoin="round" stroke-miterlimit="10" points="
		127.242,450.548 134.964,457.374 124.897,459.443 127.242,450.548 	"/>
</g>
<g>
	
		<line fill-rule="evenodd" clip-rule="evenodd" fill="none" stroke="#000000" stroke-linecap="round" stroke-linejoin="round" stroke-miterlimit="10" x1="620.06" y1="157.353" x2="593.03" y2="130.323"/>
</g>
<g>
	
		<polyline fill-rule="evenodd" clip-rule="evenodd" stroke="#000000" stroke-linecap="round" stroke-linejoin="round" stroke-miterlimit="10" points="
		596.271,140.114 593.03,130.323 602.752,133.563 596.271,140.114 	"/>
</g>
<g>
	
		<line fill-rule="evenodd" clip-rule="evenodd" fill="none" stroke="#000000" stroke-linecap="round" stroke-linejoin="round" stroke-miterlimit="10" x1="78.492" y1="490.127" x2="202.471" y2="490.127"/>
</g>
<g>
	
		<line fill-rule="evenodd" clip-rule="evenodd" fill="none" stroke="#000000" stroke-linecap="round" stroke-linejoin="round" stroke-miterlimit="10" x1="82.146" y1="515.916" x2="98.143" y2="491.368"/>
</g>
<g>
	
		<line fill-rule="evenodd" clip-rule="evenodd" fill="none" stroke="#000000" stroke-linecap="round" stroke-linejoin="round" stroke-miterlimit="10" x1="106.694" y1="517.158" x2="122.69" y2="492.61"/>
</g>
<g>
	
		<line fill-rule="evenodd" clip-rule="evenodd" fill="none" stroke="#000000" stroke-linecap="round" stroke-linejoin="round" stroke-miterlimit="10" x1="130.069" y1="517.158" x2="145.998" y2="492.61"/>
</g>
<g>
	
		<line fill-rule="evenodd" clip-rule="evenodd" fill="none" stroke="#000000" stroke-linecap="round" stroke-linejoin="round" stroke-miterlimit="10" x1="154.617" y1="517.158" x2="170.545" y2="492.61"/>
</g>
<g>
	
		<line fill-rule="evenodd" clip-rule="evenodd" fill="none" stroke="#000000" stroke-linecap="round" stroke-linejoin="round" stroke-miterlimit="10" x1="180.406" y1="515.916" x2="196.335" y2="491.368"/>
</g>
</svg>
