<?xml version="1.0" encoding="utf-8"?>
<!-- Generator: Adobe Illustrator 15.0.0, SVG Export Plug-In . SVG Version: 6.00 Build 0)  -->
<!DOCTYPE svg PUBLIC "-//W3C//DTD SVG 1.1//EN" "http://www.w3.org/Graphics/SVG/1.1/DTD/svg11.dtd">
<svg version="1.1" id="_x3C_Layer_x3E_" xmlns="http://www.w3.org/2000/svg" xmlns:xlink="http://www.w3.org/1999/xlink" x="0px"
	 y="0px" width="733.374px" height="504.5px" viewBox="0 0 733.374 504.5" enable-background="new 0 0 733.374 504.5"
	 xml:space="preserve">
<g>
	
		<polyline fill-rule="evenodd" clip-rule="evenodd" fill="none" stroke="#000000" stroke-width="2" stroke-linecap="round" stroke-linejoin="round" stroke-miterlimit="10" points="
		259.074,133.239 247.237,175.593 235.52,214.004 226.7,240.23 215.095,271.793 203.376,299.525 191.771,323.431 180.049,343.621 
		171.234,356.386 162.414,366.945 153.477,375.3 147.675,379.593 141.758,383.075 135.955,385.512 127.136,387.368 121.334,387.368 
		115.531,386.44 106.711,383.307 98.011,377.97 89.191,370.541 80.371,360.912 71.552,349.075 9.124,501.32 	"/>
</g>
<g>
	
		<polyline fill-rule="evenodd" clip-rule="evenodd" fill="none" stroke="#000000" stroke-width="2" stroke-linecap="round" stroke-linejoin="round" stroke-miterlimit="10" points="
		8.775,36.347 8.775,173.041 361.305,173.041 	"/>
</g>
<g>
	
		<polyline fill-rule="evenodd" clip-rule="evenodd" stroke="#000000" stroke-linecap="round" stroke-linejoin="round" stroke-miterlimit="10" points="
		16.55,51.894 8.775,36.347 1,51.894 16.55,51.894 	"/>
</g>
<g>
	
		<polyline fill-rule="evenodd" clip-rule="evenodd" stroke="#000000" stroke-linecap="round" stroke-linejoin="round" stroke-miterlimit="10" points="
		345.756,165.268 361.305,173.041 345.756,180.816 345.756,165.268 	"/>
</g>
<g>
	
		<line fill-rule="evenodd" clip-rule="evenodd" fill="none" stroke="#000000" stroke-width="2" stroke-linecap="round" stroke-linejoin="round" stroke-miterlimit="10" stroke-dasharray="16,8" x1="8.775" y1="173.041" x2="8.775" y2="500.159"/>
</g>
<g>
	
		<line fill-rule="evenodd" clip-rule="evenodd" fill="none" stroke="#000000" stroke-linecap="round" stroke-linejoin="round" stroke-miterlimit="10" x1="728.925" y1="502.133" x2="10.979" y2="502.133"/>
</g>
<g>
	
		<line fill-rule="evenodd" clip-rule="evenodd" fill="none" stroke="#000000" stroke-width="2" stroke-linecap="round" stroke-linejoin="round" stroke-miterlimit="10" x1="71.552" y1="349.075" x2="71.552" y2="264.133"/>
</g>
<path fill-rule="evenodd" clip-rule="evenodd" fill="none" stroke="#000000" stroke-width="2" stroke-linecap="round" stroke-linejoin="round" stroke-miterlimit="10" d="
	M71.552,271.793c4.295,0,7.776-3.481,7.776-7.66c0-4.293-3.481-7.774-7.776-7.774c-4.291,0-7.773,3.481-7.773,7.774
	C63.779,268.312,67.261,271.793,71.552,271.793L71.552,271.793z"/>
<g>
	
		<line fill-rule="evenodd" clip-rule="evenodd" fill="none" stroke="#000000" stroke-width="2" stroke-linecap="round" stroke-linejoin="round" stroke-miterlimit="10" x1="184.809" y1="501.786" x2="184.809" y2="426.59"/>
</g>
<path fill-rule="evenodd" clip-rule="evenodd" fill="none" stroke="#000000" stroke-width="2" stroke-linecap="round" stroke-linejoin="round" stroke-miterlimit="10" d="
	M184.809,434.366c4.291,0,7.773-3.482,7.773-7.776c0-4.176-3.482-7.775-7.773-7.775c-4.292,0-7.773,3.6-7.773,7.775
	C177.036,430.884,180.517,434.366,184.809,434.366L184.809,434.366z"/>
<g>
	<path d="M259.081,290.232h11.256v2.264h-8.527v6.945h7.876v2.232h-7.876v9.457h-2.729V290.232z"/>
	<path d="M276.349,291.907c0,0.931-0.65,1.675-1.736,1.675c-0.992,0-1.643-0.744-1.643-1.675s0.682-1.705,1.705-1.705
		C275.667,290.202,276.349,290.946,276.349,291.907z M273.311,311.131v-15.007h2.729v15.007H273.311z"/>
	<path d="M280.564,300.186c0-1.581-0.031-2.821-0.124-4.062h2.418l0.155,2.48h0.062c0.744-1.396,2.48-2.79,4.961-2.79
		c2.078,0,5.303,1.24,5.303,6.387v8.93h-2.729v-8.65c0-2.419-0.899-4.434-3.473-4.434c-1.768,0-3.163,1.271-3.659,2.79
		c-0.124,0.341-0.186,0.806-0.186,1.271v9.022h-2.729V300.186z"/>
	<path d="M308.311,307.534c0,1.302,0.062,2.573,0.217,3.597h-2.449l-0.218-1.892h-0.093c-0.837,1.179-2.449,2.232-4.589,2.232
		c-3.038,0-4.589-2.14-4.589-4.31c0-3.628,3.225-5.612,9.022-5.581v-0.31c0-1.21-0.341-3.473-3.41-3.442
		c-1.426,0-2.884,0.403-3.938,1.116l-0.62-1.829c1.24-0.775,3.069-1.302,4.961-1.302c4.589,0,5.705,3.131,5.705,6.107V307.534z
		 M305.675,303.473c-2.977-0.063-6.356,0.465-6.356,3.379c0,1.799,1.179,2.605,2.543,2.605c1.984,0,3.255-1.24,3.689-2.512
		c0.093-0.311,0.124-0.62,0.124-0.868V303.473z"/>
	<path d="M312.71,289.117h2.729v22.014h-2.729V289.117z"/>
	<path d="M337.294,310.604c-0.714,0.342-2.295,0.868-4.311,0.868c-4.526,0-7.473-3.069-7.473-7.658c0-4.62,3.163-7.999,8.063-7.999
		c1.611,0,3.038,0.402,3.782,0.806l-0.62,2.077c-0.651-0.341-1.674-0.713-3.162-0.713c-3.442,0-5.303,2.573-5.303,5.674
		c0,3.473,2.232,5.612,5.209,5.612c1.551,0,2.574-0.372,3.349-0.713L337.294,310.604z"/>
	<path d="M353.879,303.504c0,5.55-3.876,7.968-7.472,7.968c-4.031,0-7.193-2.977-7.193-7.72c0-4.992,3.317-7.938,7.441-7.938
		C350.965,295.814,353.879,298.945,353.879,303.504z M342.004,303.658c0,3.287,1.86,5.768,4.526,5.768
		c2.605,0,4.559-2.449,4.559-5.829c0-2.543-1.271-5.736-4.496-5.736C343.399,297.86,342.004,300.837,342.004,303.658z"/>
	<path d="M357.317,300.186c0-1.581-0.031-2.821-0.124-4.062h2.418l0.155,2.48h0.063c0.744-1.396,2.48-2.79,4.961-2.79
		c2.077,0,5.302,1.24,5.302,6.387v8.93h-2.729v-8.65c0-2.419-0.899-4.434-3.473-4.434c-1.768,0-3.163,1.271-3.659,2.79
		c-0.124,0.341-0.186,0.806-0.186,1.271v9.022h-2.729V300.186z"/>
	<path d="M374.8,311.131v-12.93h-2.077v-2.077h2.077v-0.837c0-3.938,2.326-6.512,6.543-6.512c1.395,0,3.038,0.435,3.813,0.992
		l-0.775,2.078c-0.682-0.466-1.829-0.869-3.162-0.869c-2.884,0-3.721,2.016-3.721,4.403v0.744h8.712v15.007h-2.729v-12.93h-5.983
		v12.93H374.8z"/>
	<path d="M403.57,308.93c0,3.473-0.713,5.55-2.14,6.883c-1.488,1.334-3.596,1.799-5.487,1.799c-1.799,0-3.783-0.435-4.992-1.24
		l0.683-2.108c0.992,0.651,2.542,1.209,4.402,1.209c2.791,0,4.837-1.457,4.837-5.271v-1.644h-0.062
		c-0.807,1.396-2.45,2.511-4.775,2.511c-3.721,0-6.387-3.162-6.387-7.316c0-5.086,3.317-7.938,6.79-7.938
		c2.604,0,3.999,1.333,4.682,2.573h0.062l0.094-2.264h2.418c-0.093,1.054-0.124,2.294-0.124,4.093V308.93z M400.842,302.046
		c0-0.465-0.03-0.868-0.155-1.209c-0.496-1.612-1.798-2.915-3.813-2.915c-2.604,0-4.465,2.202-4.465,5.675
		c0,2.945,1.52,5.395,4.435,5.395c1.705,0,3.225-1.054,3.782-2.79c0.155-0.465,0.217-0.992,0.217-1.457V302.046z"/>
	<path d="M420.62,307.007c0,1.581,0.03,2.946,0.123,4.124h-2.418l-0.155-2.449h-0.062c-0.683,1.209-2.295,2.79-4.961,2.79
		c-2.356,0-5.178-1.333-5.178-6.573v-8.774h2.729v8.278c0,2.853,0.898,4.807,3.348,4.807c1.83,0,3.102-1.271,3.598-2.512
		c0.154-0.372,0.248-0.868,0.248-1.396v-9.178h2.729V307.007z"/>
	<path d="M425.143,300.806c0-1.767-0.031-3.286-0.124-4.682h2.387l0.125,2.977h0.093c0.682-2.016,2.356-3.286,4.186-3.286
		c0.279,0,0.496,0.03,0.744,0.062v2.573c-0.279-0.062-0.558-0.062-0.931-0.062c-1.922,0-3.286,1.426-3.658,3.473
		c-0.063,0.372-0.093,0.837-0.093,1.271v8h-2.729V300.806z"/>
	<path d="M445.666,307.534c0,1.302,0.062,2.573,0.217,3.597h-2.449l-0.218-1.892h-0.093c-0.837,1.179-2.449,2.232-4.589,2.232
		c-3.038,0-4.589-2.14-4.589-4.31c0-3.628,3.225-5.612,9.022-5.581v-0.31c0-1.21-0.341-3.473-3.41-3.442
		c-1.426,0-2.884,0.403-3.938,1.116l-0.62-1.829c1.24-0.775,3.069-1.302,4.961-1.302c4.589,0,5.705,3.131,5.705,6.107V307.534z
		 M443.03,303.473c-2.977-0.063-6.356,0.465-6.356,3.379c0,1.799,1.179,2.605,2.543,2.605c1.984,0,3.255-1.24,3.689-2.512
		c0.093-0.311,0.124-0.62,0.124-0.868V303.473z"/>
	<path d="M453.228,292.527v3.597h3.907v2.077h-3.907v8.093c0,1.86,0.527,2.915,2.047,2.915c0.744,0,1.178-0.063,1.581-0.187
		l0.124,2.077c-0.527,0.187-1.364,0.372-2.418,0.372c-1.271,0-2.295-0.434-2.946-1.147c-0.744-0.837-1.054-2.17-1.054-3.938v-8.186
		h-2.326v-2.077h2.326v-2.79L453.228,292.527z"/>
	<path d="M463.24,291.907c0,0.931-0.651,1.675-1.736,1.675c-0.992,0-1.644-0.744-1.644-1.675s0.683-1.705,1.706-1.705
		C462.559,290.202,463.24,290.946,463.24,291.907z M460.202,311.131v-15.007h2.729v15.007H460.202z"/>
	<path d="M481.036,303.504c0,5.55-3.875,7.968-7.473,7.968c-4.03,0-7.193-2.977-7.193-7.72c0-4.992,3.318-7.938,7.441-7.938
		C478.122,295.814,481.036,298.945,481.036,303.504z M469.161,303.658c0,3.287,1.86,5.768,4.527,5.768
		c2.604,0,4.558-2.449,4.558-5.829c0-2.543-1.271-5.736-4.496-5.736C470.557,297.86,469.161,300.837,469.161,303.658z"/>
	<path d="M484.475,300.186c0-1.581-0.031-2.821-0.124-4.062h2.418l0.155,2.48h0.062c0.744-1.396,2.48-2.79,4.961-2.79
		c2.078,0,5.303,1.24,5.303,6.387v8.93h-2.729v-8.65c0-2.419-0.899-4.434-3.473-4.434c-1.768,0-3.163,1.271-3.659,2.79
		c-0.124,0.341-0.186,0.806-0.186,1.271v9.022h-2.729V300.186z"/>
</g>
<g>
	<path d="M275.714,463.57c1.209,0.775,2.945,1.365,4.806,1.365c2.76,0,4.372-1.458,4.372-3.566c0-1.922-1.116-3.069-3.938-4.123
		c-3.411-1.24-5.52-3.039-5.52-5.953c0-3.256,2.697-5.675,6.76-5.675c2.107,0,3.689,0.496,4.588,1.023l-0.744,2.201
		c-0.65-0.403-2.046-0.992-3.938-0.992c-2.853,0-3.938,1.706-3.938,3.132c0,1.953,1.271,2.914,4.154,4.031
		c3.535,1.363,5.303,3.069,5.303,6.139c0,3.225-2.356,6.046-7.287,6.046c-2.015,0-4.217-0.62-5.332-1.364L275.714,463.57z"/>
	<path d="M294.438,448.254v3.597h3.907v2.077h-3.907v8.093c0,1.86,0.527,2.915,2.047,2.915c0.744,0,1.178-0.063,1.581-0.187
		l0.124,2.077c-0.527,0.187-1.364,0.372-2.419,0.372c-1.271,0-2.294-0.434-2.945-1.147c-0.744-0.837-1.054-2.17-1.054-3.938v-8.186
		h-2.325v-2.077h2.325v-2.79L294.438,448.254z"/>
	<path d="M301.412,456.532c0-1.767-0.031-3.286-0.124-4.682h2.387l0.125,2.977h0.093c0.682-2.016,2.356-3.286,4.186-3.286
		c0.279,0,0.496,0.03,0.744,0.062v2.573c-0.279-0.062-0.558-0.062-0.931-0.062c-1.922,0-3.286,1.426-3.658,3.473
		c-0.063,0.372-0.093,0.837-0.093,1.271v8h-2.729V456.532z"/>
	<path d="M312.759,459.85c0.062,3.69,2.387,5.209,5.146,5.209c1.953,0,3.162-0.341,4.154-0.774l0.496,1.953
		c-0.961,0.435-2.635,0.961-5.022,0.961c-4.62,0-7.38-3.069-7.38-7.597c0-4.526,2.667-8.061,7.039-8.061
		c4.93,0,6.201,4.278,6.201,7.038c0,0.558-0.031,0.961-0.094,1.271H312.759z M320.758,457.896c0.031-1.705-0.713-4.402-3.782-4.402
		c-2.791,0-3.969,2.512-4.187,4.402H320.758z"/>
	<path d="M326.397,464.098c0.837,0.496,2.264,1.055,3.627,1.055c1.954,0,2.884-0.961,2.884-2.232c0-1.303-0.774-1.984-2.759-2.729
		c-2.729-0.992-4-2.449-4-4.248c0-2.418,1.984-4.402,5.178-4.402c1.52,0,2.853,0.402,3.658,0.93l-0.65,1.984
		c-0.59-0.372-1.675-0.899-3.07-0.899c-1.611,0-2.48,0.931-2.48,2.047c0,1.24,0.869,1.798,2.822,2.573
		c2.573,0.961,3.938,2.264,3.938,4.496c0,2.666-2.077,4.526-5.581,4.526c-1.644,0-3.163-0.434-4.217-1.054L326.397,464.098z"/>
	<path d="M338.673,464.098c0.837,0.496,2.264,1.055,3.627,1.055c1.954,0,2.884-0.961,2.884-2.232c0-1.303-0.774-1.984-2.759-2.729
		c-2.729-0.992-4-2.449-4-4.248c0-2.418,1.984-4.402,5.178-4.402c1.52,0,2.853,0.402,3.658,0.93l-0.65,1.984
		c-0.59-0.372-1.675-0.899-3.07-0.899c-1.611,0-2.48,0.931-2.48,2.047c0,1.24,0.869,1.798,2.822,2.573
		c2.573,0.961,3.938,2.264,3.938,4.496c0,2.666-2.077,4.526-5.581,4.526c-1.644,0-3.163-0.434-4.217-1.054L338.673,464.098z"/>
	<path d="M351.599,466.857v-12.93h-2.077v-2.077h2.077v-0.713c0-2.108,0.496-4.031,1.736-5.24c1.023-0.992,2.388-1.396,3.659-1.396
		c0.992,0,1.798,0.217,2.325,0.435l-0.372,2.108c-0.403-0.187-0.93-0.342-1.736-0.342c-2.325,0-2.914,2.016-2.914,4.342v0.806h3.628
		v2.077h-3.628v12.93H351.599z"/>
	<path d="M360.372,456.532c0-1.767-0.031-3.286-0.124-4.682h2.388l0.123,2.977h0.094c0.682-2.016,2.356-3.286,4.186-3.286
		c0.279,0,0.496,0.03,0.744,0.062v2.573c-0.279-0.062-0.559-0.062-0.93-0.062c-1.923,0-3.287,1.426-3.659,3.473
		c-0.062,0.372-0.093,0.837-0.093,1.271v8h-2.729V456.532z"/>
	<path d="M371.718,459.85c0.063,3.69,2.388,5.209,5.147,5.209c1.953,0,3.163-0.341,4.155-0.774l0.496,1.953
		c-0.962,0.435-2.636,0.961-5.023,0.961c-4.62,0-7.379-3.069-7.379-7.597c0-4.526,2.666-8.061,7.038-8.061
		c4.93,0,6.201,4.278,6.201,7.038c0,0.558-0.031,0.961-0.093,1.271H371.718z M379.718,457.896c0.031-1.705-0.713-4.402-3.783-4.402
		c-2.79,0-3.969,2.512-4.186,4.402H379.718z"/>
	<path d="M387.249,459.85c0.062,3.69,2.387,5.209,5.146,5.209c1.953,0,3.162-0.341,4.154-0.774l0.496,1.953
		c-0.961,0.435-2.635,0.961-5.022,0.961c-4.62,0-7.38-3.069-7.38-7.597c0-4.526,2.667-8.061,7.039-8.061
		c4.93,0,6.201,4.278,6.201,7.038c0,0.558-0.031,0.961-0.094,1.271H387.249z M395.248,457.896c0.031-1.705-0.713-4.402-3.782-4.402
		c-2.791,0-3.969,2.512-4.187,4.402H395.248z"/>
	<path d="M418.528,466.33c-0.714,0.342-2.295,0.868-4.311,0.868c-4.526,0-7.473-3.069-7.473-7.658c0-4.62,3.163-7.999,8.063-7.999
		c1.611,0,3.038,0.402,3.782,0.806l-0.62,2.077c-0.651-0.341-1.674-0.713-3.162-0.713c-3.442,0-5.303,2.573-5.303,5.674
		c0,3.473,2.232,5.612,5.209,5.612c1.551,0,2.574-0.372,3.349-0.713L418.528,466.33z"/>
	<path d="M435.112,459.23c0,5.55-3.875,7.968-7.473,7.968c-4.03,0-7.193-2.977-7.193-7.72c0-4.992,3.318-7.938,7.441-7.938
		C432.198,451.541,435.112,454.672,435.112,459.23z M423.237,459.385c0,3.287,1.86,5.768,4.527,5.768
		c2.604,0,4.558-2.449,4.558-5.829c0-2.543-1.271-5.736-4.496-5.736C424.633,453.587,423.237,456.563,423.237,459.385z"/>
	<path d="M438.551,455.912c0-1.581-0.031-2.821-0.124-4.062h2.418l0.155,2.48h0.062c0.744-1.396,2.48-2.79,4.961-2.79
		c2.078,0,5.303,1.24,5.303,6.387v8.93h-2.729v-8.65c0-2.419-0.899-4.434-3.473-4.434c-1.768,0-3.163,1.271-3.659,2.79
		c-0.124,0.341-0.186,0.806-0.186,1.271v9.022h-2.729V455.912z"/>
	<path d="M456.034,466.857v-12.93h-2.078v-2.077h2.078v-0.837c0-3.938,2.325-6.512,6.542-6.512c1.396,0,3.038,0.435,3.813,0.992
		l-0.775,2.078c-0.682-0.466-1.829-0.869-3.162-0.869c-2.884,0-3.721,2.016-3.721,4.403v0.744h8.713v15.007h-2.729v-12.93h-5.984
		v12.93H456.034z"/>
	<path d="M484.804,464.656c0,3.473-0.713,5.55-2.139,6.883c-1.488,1.334-3.598,1.799-5.488,1.799c-1.799,0-3.783-0.435-4.992-1.24
		l0.682-2.108c0.992,0.651,2.543,1.209,4.403,1.209c2.79,0,4.837-1.457,4.837-5.271v-1.644h-0.063
		c-0.806,1.396-2.449,2.511-4.774,2.511c-3.721,0-6.388-3.162-6.388-7.316c0-5.086,3.318-7.938,6.791-7.938
		c2.604,0,4,1.333,4.682,2.573h0.063l0.093-2.264h2.418c-0.093,1.054-0.124,2.294-0.124,4.093V464.656z M482.075,457.772
		c0-0.465-0.031-0.868-0.154-1.209c-0.496-1.612-1.799-2.915-3.814-2.915c-2.604,0-4.465,2.202-4.465,5.675
		c0,2.945,1.52,5.395,4.434,5.395c1.706,0,3.225-1.054,3.783-2.79c0.155-0.465,0.217-0.992,0.217-1.457V457.772z"/>
	<path d="M501.853,462.733c0,1.581,0.031,2.946,0.125,4.124h-2.419l-0.155-2.449h-0.062c-0.683,1.209-2.295,2.79-4.961,2.79
		c-2.356,0-5.179-1.333-5.179-6.573v-8.774h2.729v8.278c0,2.853,0.899,4.807,3.35,4.807c1.829,0,3.1-1.271,3.596-2.512
		c0.155-0.372,0.248-0.868,0.248-1.396v-9.178h2.729V462.733z"/>
	<path d="M506.376,456.532c0-1.767-0.031-3.286-0.124-4.682h2.388l0.123,2.977h0.094c0.682-2.016,2.356-3.286,4.186-3.286
		c0.279,0,0.496,0.03,0.744,0.062v2.573c-0.279-0.062-0.559-0.062-0.93-0.062c-1.923,0-3.287,1.426-3.659,3.473
		c-0.062,0.372-0.093,0.837-0.093,1.271v8h-2.729V456.532z"/>
	<path d="M526.9,463.261c0,1.302,0.062,2.573,0.217,3.597h-2.449l-0.218-1.892h-0.093c-0.837,1.179-2.449,2.232-4.589,2.232
		c-3.038,0-4.589-2.14-4.589-4.31c0-3.628,3.225-5.612,9.022-5.581v-0.31c0-1.21-0.341-3.473-3.41-3.442
		c-1.426,0-2.884,0.403-3.938,1.116l-0.62-1.829c1.24-0.775,3.069-1.302,4.961-1.302c4.589,0,5.705,3.131,5.705,6.107V463.261z
		 M524.265,459.199c-2.977-0.063-6.356,0.465-6.356,3.379c0,1.799,1.179,2.605,2.543,2.605c1.984,0,3.255-1.24,3.689-2.512
		c0.093-0.311,0.124-0.62,0.124-0.868V459.199z"/>
	<path d="M534.462,448.254v3.597h3.907v2.077h-3.907v8.093c0,1.86,0.527,2.915,2.047,2.915c0.744,0,1.178-0.063,1.581-0.187
		l0.124,2.077c-0.527,0.187-1.364,0.372-2.418,0.372c-1.271,0-2.295-0.434-2.946-1.147c-0.744-0.837-1.054-2.17-1.054-3.938v-8.186
		h-2.326v-2.077h2.326v-2.79L534.462,448.254z"/>
	<path d="M544.475,447.634c0,0.931-0.651,1.675-1.736,1.675c-0.992,0-1.644-0.744-1.644-1.675s0.683-1.705,1.706-1.705
		C543.793,445.929,544.475,446.673,544.475,447.634z M541.437,466.857v-15.007h2.729v15.007H541.437z"/>
	<path d="M562.271,459.23c0,5.55-3.875,7.968-7.473,7.968c-4.03,0-7.193-2.977-7.193-7.72c0-4.992,3.318-7.938,7.441-7.938
		C559.356,451.541,562.271,454.672,562.271,459.23z M550.396,459.385c0,3.287,1.86,5.768,4.527,5.768
		c2.604,0,4.558-2.449,4.558-5.829c0-2.543-1.271-5.736-4.496-5.736C551.791,453.587,550.396,456.563,550.396,459.385z"/>
	<path d="M565.709,455.912c0-1.581-0.031-2.821-0.124-4.062h2.418l0.155,2.48h0.062c0.744-1.396,2.48-2.79,4.961-2.79
		c2.078,0,5.303,1.24,5.303,6.387v8.93h-2.729v-8.65c0-2.419-0.899-4.434-3.473-4.434c-1.768,0-3.163,1.271-3.659,2.79
		c-0.124,0.341-0.186,0.806-0.186,1.271v9.022h-2.729V455.912z"/>
</g>
<g>
	<path d="M383.409,166.273l2.14,3.225c0.589,0.837,1.055,1.581,1.551,2.418h0.062c0.496-0.868,0.992-1.643,1.52-2.45l2.077-3.193
		h2.977l-5.116,7.255l5.24,7.751h-3.069l-2.232-3.38c-0.589-0.868-1.085-1.705-1.612-2.604h-0.063
		c-0.496,0.899-0.992,1.706-1.581,2.604l-2.17,3.38h-3.008l5.333-7.658l-5.085-7.349H383.409z"/>
</g>
<g>
	<path d="M1.792,21.071l6.759-8.837c0.682-0.837,1.302-1.55,1.984-2.356V9.816H2.413v-2.17h11.41v1.705l-6.697,8.713
		c-0.651,0.837-1.24,1.612-1.922,2.356v0.062h8.744v2.17H1.792V21.071z"/>
</g>
<g>
	
		<line fill-rule="evenodd" clip-rule="evenodd" fill="none" stroke="#000000" stroke-width="2" stroke-linecap="round" stroke-linejoin="round" stroke-miterlimit="10" x1="245.731" y1="299.757" x2="217.994" y2="280.728"/>
</g>
<g>
	
		<line fill-rule="evenodd" clip-rule="evenodd" fill="none" stroke="#000000" stroke-width="2" stroke-linecap="round" stroke-linejoin="round" stroke-miterlimit="10" x1="291.218" y1="477.881" x2="281.47" y2="496.446"/>
</g>
</svg>
