<?xml version="1.0" encoding="utf-8"?>
<!-- Generator: Adobe Illustrator 15.0.0, SVG Export Plug-In . SVG Version: 6.00 Build 0)  -->
<!DOCTYPE svg PUBLIC "-//W3C//DTD SVG 1.1//EN" "http://www.w3.org/Graphics/SVG/1.1/DTD/svg11.dtd">
<svg version="1.1" id="_x3C_Layer_x3E_" xmlns="http://www.w3.org/2000/svg" xmlns:xlink="http://www.w3.org/1999/xlink" x="0px"
	 y="0px" width="666.295px" height="428.167px" viewBox="0 0 666.295 428.167" enable-background="new 0 0 666.295 428.167"
	 xml:space="preserve">
<g>
	
		<polyline fill-rule="evenodd" clip-rule="evenodd" fill="none" stroke="#000000" stroke-width="2" stroke-linecap="round" stroke-linejoin="round" stroke-miterlimit="10" points="
		1,139.338 7.571,138.877 21.398,136.918 28.661,136.687 35.92,137.494 54.017,140.721 57.588,140.836 64.504,140.146 
		78.218,137.263 85.25,136.802 88.821,137.033 107.724,140.952 111.755,141.528 115.905,141.643 120.171,141.413 146.102,136.571 
		153.709,136.457 173.76,140.721 177.104,140.836 183.903,140.03 198.425,136.342 206.032,135.419 213.756,135.996 234.269,139.684 
		242.914,139.799 256.511,138.186 269.998,136.457 274.491,136.342 283.138,137.148 303.075,140.606 308.49,140.721 
		315.175,139.799 337.417,134.612 342.949,133.921 346.176,134.151 365.657,140.26 370.267,140.606 382.711,138.532 
		403.227,134.498 409.338,133.921 417.518,134.958 443.679,140.375 447.485,140.606 450.943,140.26 462.926,136.918 
		474.107,133.459 478.601,133.114 500.729,135.535 521.13,137.955 527.122,138.07 533.346,136.802 555.474,130.579 561.238,130.002 
		564.464,130.463 571.725,132.883 582.903,137.263 588.091,138.186 592.933,137.725 611.369,133.229 619.207,132.307 
		623.355,132.422 651.94,137.033 656.433,137.378 	"/>
</g>
<g>
	
		<polyline fill-rule="evenodd" clip-rule="evenodd" fill="none" stroke="#000000" stroke-width="2" stroke-linecap="round" stroke-linejoin="round" stroke-miterlimit="10" points="
		74.646,390.817 77.183,314.176 79.027,279.715 81.563,252.976 83.636,230.963 84.328,213.329 83.981,184.632 82.023,146.945 
		79.487,116.404 	"/>
</g>
<g>
	
		<polyline fill-rule="evenodd" clip-rule="evenodd" stroke="#000000" stroke-width="2" stroke-linecap="round" stroke-linejoin="round" stroke-miterlimit="10" points="
		70.15,386.092 69.92,395.312 79.14,395.542 79.371,386.322 70.15,386.092 	"/>
</g>
<path fill-rule="evenodd" clip-rule="evenodd" stroke="#000000" stroke-width="2" stroke-linecap="round" stroke-linejoin="round" stroke-miterlimit="10" d="
	M79.948,121.014c2.536-0.23,4.38-2.536,4.149-5.072c-0.23-2.42-2.421-4.379-4.957-4.149c-2.536,0.231-4.494,2.421-4.263,4.956
	C75.108,119.285,77.413,121.245,79.948,121.014L79.948,121.014"/>
<path fill-rule="evenodd" clip-rule="evenodd" fill="none" stroke="#000000" stroke-width="2" stroke-linecap="round" stroke-linejoin="round" stroke-miterlimit="10" d="
	M191.279,392.085c0.921-39.877,6.802-74.222,8.528-104.071c1.615-29.736,5.532-44.142,5.764-72.725
	c0.117-28.813,2.766-59.123,1.96-75.605c-0.808-16.249,2.075-39.531,2.88-23.279"/>
<g>
	
		<polyline fill-rule="evenodd" clip-rule="evenodd" stroke="#000000" stroke-width="2" stroke-linecap="round" stroke-linejoin="round" stroke-miterlimit="10" points="
		186.786,387.359 186.556,396.58 195.776,396.81 196.006,387.589 186.786,387.359 	"/>
</g>
<path fill-rule="evenodd" clip-rule="evenodd" stroke="#000000" stroke-width="2" stroke-linecap="round" stroke-linejoin="round" stroke-miterlimit="10" d="
	M210.181,111.793c-2.536,0.116-4.493,2.306-4.379,4.842c0.117,2.535,2.305,4.494,4.841,4.379c2.536-0.115,4.493-2.306,4.38-4.84
	C214.909,113.638,212.717,111.679,210.181,111.793L210.181,111.793"/>
<g>
	
		<polyline fill-rule="evenodd" clip-rule="evenodd" fill="none" stroke="#000000" stroke-width="2" stroke-linecap="round" stroke-linejoin="round" stroke-miterlimit="10" points="
		350.095,364.653 358.741,340.221 368.424,316.365 378.91,293.083 393.546,264.962 409.683,237.648 426.508,212.522 
		441.722,192.009 459.929,169.764 481.597,145.908 504.88,122.973 510.987,117.326 	"/>
</g>
<g>
	
		<polyline fill-rule="evenodd" clip-rule="evenodd" stroke="#000000" stroke-linecap="round" stroke-linejoin="round" stroke-miterlimit="10" points="
		347.328,358.662 344.102,367.419 352.862,370.532 355.976,361.89 347.328,358.662 	"/>
</g>
<path fill-rule="evenodd" clip-rule="evenodd" stroke="#000000" stroke-linecap="round" stroke-linejoin="round" stroke-miterlimit="10" d="
	M507.76,120.553c1.73,1.844,4.608,1.844,6.453,0.116c1.845-1.729,1.961-4.727,0.118-6.57c-1.73-1.729-4.728-1.844-6.455-0.115
	C506.032,115.828,505.914,118.708,507.76,120.553L507.76,120.553"/>
<g>
	
		<line fill-rule="evenodd" clip-rule="evenodd" fill="none" stroke="#000000" stroke-width="2" stroke-linecap="round" stroke-linejoin="round" stroke-miterlimit="10" x1="512.946" y1="419.859" x2="512.946" y2="0"/>
</g>
<g>
	
		<polyline fill-rule="evenodd" clip-rule="evenodd" stroke="#000000" stroke-linecap="round" stroke-linejoin="round" stroke-miterlimit="10" points="
		505.224,15.443 512.946,0 520.668,15.443 505.224,15.443 	"/>
</g>
<g>
	
		<polyline fill-rule="evenodd" clip-rule="evenodd" fill="none" stroke="#000000" stroke-width="2" stroke-linecap="round" stroke-linejoin="round" stroke-miterlimit="10" points="
		630.271,130.924 514.905,130.924 605.148,40.799 	"/>
</g>
<g>
	
		<polyline fill-rule="evenodd" clip-rule="evenodd" stroke="#000000" stroke-width="2" stroke-linecap="round" stroke-linejoin="round" stroke-miterlimit="10" points="
		614.943,138.646 630.271,130.924 614.943,123.204 614.943,138.646 	"/>
</g>
<g>
	
		<polyline fill-rule="evenodd" clip-rule="evenodd" stroke="#000000" stroke-width="2" stroke-linecap="round" stroke-linejoin="round" stroke-miterlimit="10" points="
		588.781,46.216 605.148,40.799 599.616,57.048 588.781,46.216 	"/>
</g>
<g>
	
		<line fill-rule="evenodd" clip-rule="evenodd" fill="none" stroke="#000000" stroke-width="2" stroke-linecap="round" stroke-linejoin="round" stroke-miterlimit="10" x1="10.681" y1="421.819" x2="655.511" y2="421.819"/>
</g>
<g>
	
		<line fill-rule="evenodd" clip-rule="evenodd" fill="none" stroke="#000000" stroke-linecap="round" stroke-linejoin="round" stroke-miterlimit="10" x1="507.184" y1="170.686" x2="478.026" y2="170.686"/>
</g>
<g>
	
		<polyline fill-rule="evenodd" clip-rule="evenodd" stroke="#000000" stroke-linecap="round" stroke-linejoin="round" stroke-miterlimit="10" points="
		487.247,175.295 478.026,170.686 487.247,166.078 487.247,175.295 	"/>
</g>
<g>
	
		<line fill-rule="evenodd" clip-rule="evenodd" fill="none" stroke="#000000" stroke-linecap="round" stroke-linejoin="round" stroke-miterlimit="10" x1="507.184" y1="197.887" x2="460.622" y2="197.887"/>
</g>
<g>
	
		<polyline fill-rule="evenodd" clip-rule="evenodd" stroke="#000000" stroke-linecap="round" stroke-linejoin="round" stroke-miterlimit="10" points="
		469.842,202.497 460.622,197.887 469.842,193.276 469.842,202.497 	"/>
</g>
<g>
	
		<line fill-rule="evenodd" clip-rule="evenodd" fill="none" stroke="#000000" stroke-linecap="round" stroke-linejoin="round" stroke-miterlimit="10" x1="506.144" y1="226.008" x2="444.141" y2="226.008"/>
</g>
<g>
	
		<polyline fill-rule="evenodd" clip-rule="evenodd" stroke="#000000" stroke-linecap="round" stroke-linejoin="round" stroke-miterlimit="10" points="
		453.361,230.618 444.141,226.008 453.361,221.397 453.361,230.618 	"/>
</g>
<g>
	
		<line fill-rule="evenodd" clip-rule="evenodd" fill="none" stroke="#000000" stroke-linecap="round" stroke-linejoin="round" stroke-miterlimit="10" x1="493.585" y1="283.172" x2="440.223" y2="283.172"/>
</g>
<g>
	
		<polyline fill-rule="evenodd" clip-rule="evenodd" stroke="#000000" stroke-linecap="round" stroke-linejoin="round" stroke-miterlimit="10" points="
		449.443,287.781 440.223,283.172 449.443,278.563 449.443,287.781 	"/>
</g>
<g>
	<path d="M485.45,38.705l8.947-11.698c0.903-1.108,1.725-2.052,2.627-3.12v-0.082h-10.754v-2.873h15.105v2.257l-8.866,11.534
		c-0.862,1.108-1.642,2.134-2.545,3.119v0.083h11.575v2.873h-16.09V38.705z"/>
</g>
<g>
	<path d="M594.615,102.07l2.832,4.269c0.779,1.108,1.396,2.093,2.052,3.202h0.082c0.657-1.149,1.313-2.175,2.012-3.243l2.75-4.228
		h3.94l-6.772,9.604l6.937,10.262h-4.063l-2.955-4.474c-0.78-1.149-1.437-2.257-2.135-3.448h-0.082
		c-0.656,1.19-1.313,2.257-2.094,3.448l-2.873,4.474h-3.981l7.061-10.138l-6.731-9.728H594.615z"/>
</g>
<g>
	<path d="M551.601,43.982l4.311,11.739c0.492,1.313,0.984,2.873,1.313,4.063h0.082c0.369-1.19,0.779-2.709,1.272-4.146l3.94-11.657
		h3.817l-5.419,14.161c-2.586,6.814-4.351,10.262-6.813,12.437c-1.806,1.519-3.529,2.135-4.433,2.299l-0.903-2.997
		c0.903-0.287,2.094-0.862,3.161-1.765c0.984-0.78,2.175-2.175,3.037-4.022c0.164-0.369,0.287-0.657,0.287-0.862
		s-0.082-0.493-0.287-0.944l-7.307-18.307H551.601z"/>
</g>
<g>
	
		<polyline fill-rule="evenodd" clip-rule="evenodd" stroke="#000000" stroke-width="2" stroke-linecap="round" stroke-linejoin="round" stroke-miterlimit="10" points="
		192.893,256.779 212.486,259.084 216.288,226.123 196.698,223.818 192.893,256.779 	"/>
</g>
</svg>
