<?xml version="1.0" encoding="utf-8"?>
<!-- Generator: Adobe Illustrator 15.0.0, SVG Export Plug-In . SVG Version: 6.00 Build 0)  -->
<!DOCTYPE svg PUBLIC "-//W3C//DTD SVG 1.1//EN" "http://www.w3.org/Graphics/SVG/1.1/DTD/svg11.dtd">
<svg version="1.1" id="Layer_1" xmlns="http://www.w3.org/2000/svg" xmlns:xlink="http://www.w3.org/1999/xlink" x="0px" y="0px"
	 width="298.667px" height="129.333px" viewBox="0 0 298.667 129.333" enable-background="new 0 0 298.667 129.333"
	 xml:space="preserve">
<g>
	
		<polyline fill="none" stroke="#000000" stroke-width="1.0006" stroke-linecap="round" stroke-linejoin="round" stroke-miterlimit="10" points="
		21.625,4.769 21.625,127.492 22.165,126.629 22.741,125.729 23.281,124.864 23.821,123.965 24.36,123.101 24.9,122.236 
		25.405,121.337 25.945,120.473 26.449,119.608 26.953,118.744 27.457,117.881 27.96,117.017 28.464,116.116 28.969,115.253 
		29.437,114.389 29.905,113.524 30.373,112.696 30.841,111.833 31.309,110.969 31.776,110.104 32.208,109.24 32.641,108.377 
		33.073,107.549 33.504,106.685 33.937,105.82 34.369,104.992 34.765,104.129 35.197,103.301 35.593,102.437 35.989,101.608 
		36.385,100.745 36.745,99.917 37.141,99.089 37.537,98.225 37.896,97.396 38.257,96.568 38.617,95.74 38.977,94.877 39.301,94.049 
		39.661,93.221 39.984,92.393 40.309,91.564 40.633,90.736 40.957,89.909 41.281,89.081 41.568,88.253 41.749,87.821 42.037,86.993 
		42.325,86.165 42.613,85.373 42.9,84.545 43.188,83.717 43.44,82.889 43.729,82.097 43.98,81.269 44.232,80.477 44.484,79.648 
		44.736,78.856 44.953,78.029 45.205,77.237 45.42,76.444 45.637,75.617 45.853,74.825 46.068,74.033 46.249,73.241 46.465,72.449 
		46.645,71.621 46.825,70.829 47.004,70.037 47.185,69.245 47.365,68.453 47.509,67.66 47.688,66.868 47.833,66.076 47.977,65.321 
		48.121,64.529 48.265,63.737 48.373,62.945 48.517,62.188 48.625,61.396 48.732,60.604 48.841,59.849 48.949,59.057 49.057,58.301 
		49.128,57.509 49.236,56.752 49.309,55.96 49.38,55.205 49.453,54.449 49.489,53.657 49.561,52.9 49.597,52.145 49.668,51.389 
		49.668,50.957 	"/>
	
		<polygon fill-rule="evenodd" clip-rule="evenodd" stroke="#000000" stroke-width="1.0006" stroke-linecap="round" stroke-linejoin="round" stroke-miterlimit="10" points="
		23.856,7 21.625,2.5 19.356,7 	"/>
	
		<path fill-rule="evenodd" clip-rule="evenodd" stroke="#000000" stroke-width="1.0006" stroke-linecap="round" stroke-linejoin="round" stroke-miterlimit="10" d="
		M49.668,50.957c1.26,0.072,2.304-0.864,2.376-2.124c0.072-1.224-0.9-2.304-2.124-2.376c-1.224-0.036-2.304,0.9-2.376,2.124
		C47.473,49.84,48.445,50.884,49.668,50.957L49.668,50.957z"/>
	
		<path fill="none" stroke="#000000" stroke-width="1.0006" stroke-linecap="round" stroke-linejoin="round" stroke-miterlimit="10" d="
		M66.984,126.089c11.448-13.248,20.412-26.244,27.468-39.673c6.984-13.535,11.808-33.443,14.184-40.284
		c2.232-6.696,2.088-6.696-0.576,0 M114.325,127.492c5.4-22.571,8.892-37.224,10.764-44.784c1.656-7.416,0.036,0.036,0,0
		c0-0.144,0-0.792,0-0.827c0-0.181,0-0.181,0,0 M130.453,75.904c5.544,8.82,15.372,8.496,22.392,5.4
		c7.092-3.204,15.624-19.44,19.584-24.12c3.852-4.572,0-0.252,0-0.252c0-0.072,0-0.072,0,0 M175.272,53.873
		c5.148-0.252,9.433-1.188,13.032-2.844c3.636-1.656,7.056-5.832,8.532-7.092c1.403-1.224,1.044,0.684,1.044,0.648
		s-1.044-0.972-1.044-0.936 M217.284,124.181c4.717-29.557,9.433-59.148,14.148-88.74 M213.576,123.604
		c4.717-29.556,9.433-59.148,14.185-88.74 M53.088,39.616h-32.04l25.236-25.2"/>
	
		<polygon fill-rule="evenodd" clip-rule="evenodd" stroke="#000000" stroke-width="1.0006" stroke-linecap="round" stroke-linejoin="round" stroke-miterlimit="10" points="
		48.588,41.884 53.088,39.617 48.588,37.384 	"/>
	
		<polygon fill-rule="evenodd" clip-rule="evenodd" stroke="#000000" stroke-width="1.0006" stroke-linecap="round" stroke-linejoin="round" stroke-miterlimit="10" points="
		41.497,16 46.285,14.417 44.701,19.168 	"/>
	
		<polygon fill-rule="evenodd" clip-rule="evenodd" fill="#FFFFFF" stroke="#000000" stroke-width="1.0006" stroke-linecap="round" stroke-linejoin="round" stroke-miterlimit="10" points="
		112.272,127.925 116.772,128.141 116.989,123.064 112.489,122.849 112.272,127.925 	"/>
	
		<polygon fill-rule="evenodd" clip-rule="evenodd" fill="#FFFFFF" stroke="#000000" stroke-width="1.0006" stroke-linecap="round" stroke-linejoin="round" stroke-miterlimit="10" points="
		65.437,127.96 69.973,128.177 70.188,123.064 65.688,122.885 65.437,127.96 	"/>
	
		<polygon fill-rule="evenodd" clip-rule="evenodd" fill="#FFFFFF" stroke="#000000" stroke-width="1.0006" stroke-linecap="round" stroke-linejoin="round" stroke-miterlimit="10" points="
		20.113,127.96 24.613,128.177 24.829,123.064 20.329,122.885 20.113,127.96 	"/>
	
		<path fill-rule="evenodd" clip-rule="evenodd" fill="#FFFFFF" stroke="#000000" stroke-width="1.0006" stroke-linecap="round" stroke-linejoin="round" stroke-miterlimit="10" d="
		M125.088,80.297c-2.052,3.06-2.916,6.048-1.98,6.659c0.936,0.648,3.348-1.332,5.364-4.392c2.052-3.06,2.952-6.048,1.98-6.66
		C129.517,75.292,127.104,77.236,125.088,80.297L125.088,80.297z"/>
	
		<path fill-rule="evenodd" clip-rule="evenodd" fill="#FFFFFF" stroke="#000000" stroke-width="1.0006" stroke-linecap="round" stroke-linejoin="round" stroke-miterlimit="10" d="
		M173.641,52.913c1.292,0,2.34,1.048,2.34,2.34s-1.048,2.34-2.34,2.34s-2.34-1.048-2.34-2.34S172.349,52.913,173.641,52.913"/>
	
		<path fill-rule="evenodd" clip-rule="evenodd" fill="#FFFFFF" stroke="#000000" stroke-width="1.0006" stroke-linecap="round" stroke-linejoin="round" stroke-miterlimit="10" d="
		M215.041,123.328c1.172,0,2.124,0.952,2.124,2.124c0,1.173-0.952,2.124-2.124,2.124c-1.173,0-2.124-0.951-2.124-2.124
		C212.917,124.28,213.868,123.328,215.041,123.328"/>
	
		<polygon fill-rule="evenodd" clip-rule="evenodd" stroke="#000000" stroke-width="1.0006" stroke-linecap="round" stroke-linejoin="round" stroke-miterlimit="10" points="
		226.356,32.2 233.16,32.2 233.16,35.656 226.356,35.656 226.356,32.2 	"/>
	
		<path fill="none" stroke="#000000" stroke-width="1.0006" stroke-linecap="round" stroke-linejoin="round" stroke-miterlimit="10" d="
		M1.5,128.645h291.384 M16.584,40.625c3.672,0,7.74-0.936,11.916-0.828c4.14,0.144,8.352,1.26,12.384,1.224
		c3.996-0.036,7.812-1.26,11.88-1.188c4.032,0.108,8.316,1.476,13.176,1.404c4.86-0.036,10.26-1.476,14.652-1.512
		c4.392-0.036,7.776,1.332,11.592,1.296s8.028-1.476,12.42-1.548c4.392-0.072,8.964,1.224,13.968,1.296
		c4.968,0.072,10.368-1.08,15.408-1.044c5.076,0.036,9.756,1.26,13.824,1.296c4.032,0.036,12.096-2.016,15.624-2.016
		s7.704,1.908,10.979,1.944c3.313,0.036,13.969-1.944,17.46-1.944c3.492,0,12.673,1.98,16.416,1.944
		c3.744-0.036,9.648-2.088,12.673-2.16c2.987-0.072,17.172,1.476,20.771,1.476s11.736-2.52,15.336-2.412
		c3.601,0.144,8.712,2.592,12.276,2.412c3.563-0.18,8.136-1.656,12.672-1.728c4.536-0.036,11.052,1.404,15.983,1.512"/>
	
		<polygon fill-rule="evenodd" clip-rule="evenodd" stroke="#000000" stroke-width="1.0006" stroke-linecap="round" stroke-linejoin="round" stroke-miterlimit="10" points="
		106.945,35.944 110.329,35.944 110.329,46.132 106.945,46.132 106.945,35.944 	"/>
	
		<polygon fill-rule="evenodd" clip-rule="evenodd" stroke="#000000" stroke-width="1.0006" stroke-linecap="round" stroke-linejoin="round" stroke-miterlimit="10" points="
		196.152,36.088 198.961,36.088 198.961,43.937 196.152,43.937 196.152,36.088 	"/>
	<path d="M13.291,16.396v-0.855l3.961-4.547c-0.451,0.023-0.85,0.035-1.189,0.035h-2.537v-0.855h5.086v0.697l-3.369,3.949
		l-0.65,0.721c0.469-0.035,0.914-0.053,1.33-0.053h2.877v0.908H13.291z"/>
	<path d="M40.685,37.349l2.273-3.234l-2.104-2.988h1.318l0.955,1.459c0.176,0.281,0.322,0.51,0.434,0.697
		c0.17-0.258,0.328-0.486,0.475-0.686l1.049-1.471h1.26l-2.15,2.93l2.314,3.293h-1.295l-1.277-1.934l-0.34-0.521l-1.635,2.455
		H40.685z"/>
	<path d="M33.997,20.017l-0.117-0.99c0.229,0.064,0.428,0.094,0.604,0.094c0.234,0,0.422-0.035,0.563-0.117
		c0.141-0.076,0.252-0.188,0.346-0.328c0.064-0.105,0.17-0.363,0.322-0.785c0.018-0.059,0.047-0.141,0.094-0.258l-2.361-6.234h1.137
		l1.295,3.604c0.164,0.457,0.316,0.938,0.451,1.441c0.117-0.48,0.264-0.955,0.434-1.418l1.33-3.627h1.055l-2.367,6.328
		c-0.258,0.686-0.451,1.154-0.592,1.412c-0.188,0.352-0.404,0.604-0.645,0.768c-0.246,0.164-0.533,0.24-0.867,0.24
		C34.471,20.146,34.243,20.105,33.997,20.017L33.997,20.017z"/>
</g>
</svg>
